<svg width="1em" height="1em" viewBox="0 0 32 32" fill="none" xmlns="http://www.w3.org/2000/svg">
<path d="M13.6585 6C8.54828 6 4.40527 10.143 4.40527 15.2532C4.40527 20.3635 8.37369 24.5065 13.4839 24.5065C14.5315 24.5065 15.2525 23.9652 15.4044 23.2843C15.7536 21.713 13.7563 21.3237 14.5315 19.9671C15.2298 18.745 17.7683 20.0073 19.9437 18.9196C22.0388 17.8721 22.7372 16.8245 22.9117 15.2532C23.5298 9.68907 18.7687 6 13.6585 6ZM7.98435 15.2532C7.16553 15.2532 6.50035 14.588 6.50035 13.7692C6.50035 12.9504 7.16553 12.2852 7.98435 12.2852C8.80318 12.2852 9.46836 12.9504 9.46836 13.7692C9.46836 14.588 8.80318 15.2532 7.98435 15.2532ZM11.127 11.0631C10.3081 11.0631 9.64295 10.3979 9.64295 9.57908C9.64295 8.76026 10.3081 8.09507 11.127 8.09507C11.9458 8.09507 12.611 8.76026 12.611 9.57908C12.611 10.3979 11.9458 11.0631 11.127 11.0631ZM16.3646 11.0631C15.5458 11.0631 14.8806 10.3979 14.8806 9.57908C14.8806 8.76026 15.5458 8.09507 16.3646 8.09507C17.1835 8.09507 17.8487 8.76026 17.8487 9.57908C17.8487 10.3979 17.1835 11.0631 16.3646 11.0631ZM19.5072 15.2532C18.6884 15.2532 18.0232 14.588 18.0232 13.7692C18.0232 12.9504 18.6884 12.2852 19.5072 12.2852C20.3261 12.2852 20.9913 12.9504 20.9913 13.7692C20.9913 14.588 20.3261 15.2532 19.5072 15.2532Z" fill="currentColor"/>
<path d="M19.5442 24.599C19.6367 24.6915 19.7764 24.7177 19.8951 24.6601C20.3403 24.4506 21.4472 23.8727 22.3935 22.9247C23.1704 22.1478 26.8245 17.989 29.4905 14.7085C29.8257 14.2965 29.281 13.7535 28.869 14.087C25.5884 16.7529 21.4297 20.4071 20.6528 21.184C19.7048 22.132 19.1286 23.2372 18.9174 23.6824C18.8615 23.8011 18.886 23.9408 18.9785 24.0333L19.5407 24.5955L19.5442 24.599Z" fill="currentColor"/>
<path d="M18.5784 27.2214C18.0966 27.6142 17.4698 27.8185 16.8657 27.939C16.2616 28.0594 15.5738 27.9791 15.1355 27.8988C14.9557 27.8656 14.8894 27.6422 15.0221 27.5165C15.3084 27.2476 15.6995 26.8181 15.8461 26.3746C16.0504 25.7636 16.019 25.3254 16.5183 24.826C17.1608 24.1835 18.217 24.2097 18.8264 24.9046C19.4357 25.5995 19.2855 26.6418 18.5784 27.2197V27.2214Z" fill="currentColor"/>
</svg>
