<svg width="1em" height="1em" viewBox="0 0 24 24" fill="currentColor" xmlns="http://www.w3.org/2000/svg" xmlns:xlink="http://www.w3.org/1999/xlink" >
  <path d="M9.356,2.491c-.251-.251-.666-.234-.895.046-.2.244-.157.608.068.833l1.721,1.721-6.241,6.241c-.485.485-.485,1.272,0,1.759l6.215,6.215c.485.485,1.272.485,1.76,0l6.215-6.215c.485-.485.485-1.272,0-1.759L9.356,2.491ZM11.579,6.421l5.268,5.268c.241.241.242.632.002.875l-5.214,5.267c-.243.245-.639.245-.881,0l-5.308-5.361c-.24-.243-.239-.634.002-.875l5.174-5.174c.264-.264.692-.264.956,0Z"/>
</svg>