<svg width="1em" height="1em" viewBox="0 0 30 30" fill="none" xmlns="http://www.w3.org/2000/svg">
<path d="M9.25579 22.3518L10.9477 20.3445C11.0876 20.1789 10.9707 19.9254 10.7534 19.9254H9.42081V10.0774H10.7534C10.9707 10.0774 11.0876 9.82386 10.9477 9.65833L9.25579 7.65102C9.1242 7.49597 8.88399 7.49597 8.75449 7.65102L7.06049 9.65833C6.92055 9.82386 7.03752 10.0774 7.25475 10.0774H8.58739V19.9254H7.25475C7.03752 19.9254 6.92055 20.1789 7.06049 20.3445L8.7524 22.3518C8.88399 22.5068 9.1242 22.5068 9.25371 22.3518H9.25579Z" fill="currentColor"/>
<path d="M22.5822 10.0079H12.765C12.5352 10.0079 12.3473 9.81929 12.3473 9.5888C12.3473 9.35832 12.5352 9.16974 12.765 9.16974H22.5822C22.812 9.16974 23 9.35832 23 9.5888C23 9.81929 22.812 10.0079 22.5822 10.0079Z" fill="currentColor"/>
<path d="M22.5822 12.801H12.765C12.5352 12.801 12.3473 12.6124 12.3473 12.3819C12.3473 12.1514 12.5352 11.9628 12.765 11.9628H22.5822C22.812 11.9628 23 12.1514 23 12.3819C23 12.6124 22.812 12.801 22.5822 12.801Z" fill="currentColor"/>
<path d="M22.5822 15.594H12.765C12.5352 15.594 12.3473 15.4054 12.3473 15.1749C12.3473 14.9444 12.5352 14.7559 12.765 14.7559H22.5822C22.812 14.7559 23 14.9444 23 15.1749C23 15.4054 22.812 15.594 22.5822 15.594Z" fill="currentColor"/>
<path d="M22.5822 18.3871H12.765C12.5352 18.3871 12.3473 18.1985 12.3473 17.968C12.3473 17.7375 12.5352 17.549 12.765 17.549H22.5822C22.812 17.549 23 17.7375 23 17.968C23 18.1985 22.812 18.3871 22.5822 18.3871Z" fill="currentColor"/>
<path d="M19.3718 21.1822H12.765C12.5352 21.1822 12.3473 20.9937 12.3473 20.7632C12.3473 20.5327 12.5352 20.3441 12.765 20.3441H19.3718C19.6016 20.3441 19.7896 20.5327 19.7896 20.7632C19.7896 20.9937 19.6016 21.1822 19.3718 21.1822Z" fill="currentColor"/>
</svg>
