<svg width="1em" height="1em" viewBox="0 0 22 22" fill="none" xmlns="http://www.w3.org/2000/svg">
<path d="M10.0833 21.0833V19.25C10.0833 18.7437 10.4937 18.3333 11 18.3333C11.5063 18.3333 11.9167 18.7437 11.9167 19.25V21.0833C11.9167 21.5896 11.5063 22 11 22C10.4937 22 10.0833 21.5896 10.0833 21.0833ZM4.52186 16.1819C4.87984 15.8239 5.46011 15.8239 5.81809 16.1819C6.17607 16.5399 6.17607 17.1202 5.81809 17.4781L4.51649 18.7797C4.15851 19.1377 3.57825 19.1377 3.22027 18.7797C2.86231 18.4217 2.86229 17.8415 3.22027 17.4835L4.52186 16.1819ZM16.1819 16.1819C16.5399 15.8239 17.1202 15.8239 17.4781 16.1819L18.7797 17.4835C19.1377 17.8415 19.1377 18.4217 18.7797 18.7797C18.4217 19.1377 17.8415 19.1377 17.4835 18.7797L16.1819 17.4781C15.8239 17.1202 15.8239 16.5399 16.1819 16.1819ZM14.6667 11C14.6667 8.97496 13.025 7.33333 11 7.33333C8.97496 7.33333 7.33333 8.97496 7.33333 11C7.33333 13.025 8.97496 14.6667 11 14.6667C13.025 14.6667 14.6667 13.025 14.6667 11ZM2.75 10.0833C3.25626 10.0833 3.66667 10.4937 3.66667 11C3.66667 11.5063 3.25626 11.9167 2.75 11.9167H0.916667C0.410406 11.9167 0 11.5063 0 11C0 10.4937 0.410406 10.0833 0.916667 10.0833H2.75ZM21.0833 10.0833C21.5896 10.0833 22 10.4937 22 11C22 11.5063 21.5896 11.9167 21.0833 11.9167H19.25C18.7437 11.9167 18.3333 11.5063 18.3333 11C18.3333 10.4937 18.7437 10.0833 19.25 10.0833H21.0833ZM3.22027 3.22027C3.57825 2.86229 4.15851 2.86229 4.51649 3.22027L5.81809 4.52186C6.17607 4.87984 6.17607 5.46011 5.81809 5.81809C5.46011 6.17605 4.87984 6.17606 4.52186 5.81809L3.22027 4.51649C2.86229 4.15852 2.86231 3.57825 3.22027 3.22027ZM17.4835 3.22027C17.8415 2.86229 18.4217 2.86231 18.7797 3.22027C19.1377 3.57825 19.1377 4.15851 18.7797 4.51649L17.4781 5.81809C17.1202 6.17607 16.5399 6.17607 16.1819 5.81809C15.8239 5.46011 15.8239 4.87984 16.1819 4.52186L17.4835 3.22027ZM10.0833 2.75V0.916667C10.0833 0.410406 10.4937 0 11 0C11.5063 0 11.9167 0.410406 11.9167 0.916667V2.75C11.9167 3.25626 11.5063 3.66667 11 3.66667C10.4937 3.66667 10.0833 3.25626 10.0833 2.75ZM16.5 11C16.5 14.0376 14.0376 16.5 11 16.5C7.96243 16.5 5.5 14.0376 5.5 11C5.5 7.96243 7.96243 5.5 11 5.5C14.0376 5.5 16.5 7.96243 16.5 11Z" fill="currentColor"/>
</svg>
