<svg width="1em" height="1em" fill="currentColor" xmlns="http://www.w3.org/2000/svg" viewBox="2 2 20 20">
  <path d="M10.724,9.916h2.717v-2.141c0-.215-.085-.421-.237-.573s-.357-.238-.572-.239h-4.861c-.215,0-.421.086-.573.238s-.238.358-.238.573v4.86c.001.215.087.42.239.572s.358.237.572.237h2.142v-2.718c0-.215.085-.421.237-.573.152-.152.359-.237.574-.237Z"/>
  <path d="M16.171,10.502h-4.86c-.215,0-.42.086-.572.238-.152.152-.237.358-.237.572v4.862c0,.215.085.42.237.572.152.152.357.237.572.237h4.86c.215,0,.421-.085.573-.237.152-.152.238-.357.238-.572v-4.862c0-.215-.086-.421-.238-.572-.152-.152-.358-.237-.573-.238Z"/>
  <path d="M19.995,6.725c.194,0,.38-.078.516-.215s.214-.323.214-.517v-2.263c0-.194-.077-.38-.214-.517s-.323-.214-.516-.214h-2.265c-.194,0-.379.077-.516.214-.137.137-.214.323-.214.517v.709H6.725v-.709c0-.194-.077-.38-.214-.517s-.323-.214-.516-.214h-2.265c-.194,0-.379.077-.516.214s-.214.323-.214.517v2.263c0,.194.077.38.214.517s.322.214.516.215h.711v10.275h-.711c-.194,0-.379.077-.516.214-.137.137-.214.323-.214.517v2.263c0,.194.077.38.214.517.137.137.322.214.516.215h2.265c.194,0,.38-.077.516-.215.137-.137.214-.323.214-.517v-.434h10.275v.434c0,.194.077.38.214.517.137.137.322.214.516.215h2.265c.194,0,.38-.078.516-.215.137-.137.214-.323.214-.517v-2.263c0-.194-.077-.379-.214-.517-.137-.137-.323-.214-.516-.214h-.433V6.725h.433ZM19.921,3.807v2.118h-2.118v-2.118h2.118ZM5.921,3.807v2.118h-2.118v-2.118h2.118ZM4.482,17.807h1.439v2.118h-2.118v-2.118h.679ZM19.921,17.807v2.118h-2.118v-2.118h2.118ZM18.41,17h-.68c-.194,0-.379.077-.516.214-.137.137-.214.323-.214.517v.677H6.725v-.677c0-.194-.077-.38-.214-.517-.137-.137-.323-.214-.516-.214h-.403V6.725h.403c.194,0,.38-.078.516-.215s.214-.323.214-.517v-.402h10.275v.402c0,.194.077.38.214.517.137.137.322.214.516.215h.68v10.275Z"/>
</svg>