<svg width="1em" height="1em" viewBox="0 0 22 22" fill="none" xmlns="http://www.w3.org/2000/svg">
<path d="M16.702 5.29918C16.702 5.29918 16.6977 5.28852 16.6956 5.28426C15.4427 2.34596 12.743 0.370751 9.60445 0.0490073C9.58527 0.0490073 9.56609 0.0447458 9.54692 0.042615C9.43186 0.0319613 9.31893 0.0234383 9.20387 0.017046C9.17191 0.017046 9.13781 0.0127845 9.10585 0.0106538C8.96948 0.0042615 8.83525 0 8.69675 0C3.90043 0.00213075 -0.000976562 3.90353 -0.000976562 8.69985C-0.000976562 8.83622 0.00328494 8.97259 0.00967719 9.10896C0.00967719 9.14092 0.0139387 9.17501 0.0160694 9.20697C0.0224617 9.32203 0.0309847 9.43709 0.0416385 9.55002C0.0416385 9.5692 0.0459 9.58838 0.0480307 9.60755C0.369774 12.7462 2.34498 15.4458 5.28329 16.6966C5.28755 16.6966 5.29394 16.7008 5.2982 16.703C6.62566 19.8139 9.71312 22 13.3034 22C18.0998 22 22.0012 18.0986 22.0012 13.3023C22.0012 9.71196 19.815 6.6245 16.7041 5.29705L16.702 5.29918ZM12.0314 5.94479L16.0564 9.96978C15.9754 10.4428 15.8497 10.9009 15.6835 11.3399L10.6613 6.31768C11.1002 6.15148 11.5583 6.02576 12.0314 5.94479ZM13.6678 5.84465C13.7104 5.84465 13.7509 5.85104 13.7914 5.85317C13.8702 5.85743 13.949 5.86383 14.0279 5.87235C14.079 5.87661 14.1302 5.88513 14.1813 5.88939C14.2495 5.89792 14.3177 5.90644 14.3837 5.91496C14.4413 5.92349 14.4967 5.93414 14.5521 5.94266C14.6117 5.95332 14.6735 5.96397 14.7332 5.97462C14.795 5.98741 14.8546 6.00019 14.9143 6.01298C14.9675 6.02576 15.0229 6.03642 15.0762 6.05133C15.1401 6.06625 15.2041 6.08329 15.268 6.10247C15.317 6.11525 15.366 6.13017 15.415 6.14508C15.4811 6.16426 15.5471 6.18557 15.6132 6.20688C15.6579 6.22179 15.7027 6.23671 15.7474 6.25162C15.9775 6.91002 16.1182 7.60891 16.1522 8.3355L13.6614 5.84465H13.6678ZM6.20164 15.6205C6.18033 15.5545 6.15902 15.4884 6.13985 15.4224C6.12493 15.3734 6.11215 15.3244 6.09723 15.2754C6.08019 15.2114 6.06314 15.1475 6.04609 15.0836C6.03331 15.0303 6.02052 14.977 6.00774 14.9216C5.99496 14.8599 5.98004 14.8002 5.96939 14.7384C5.95873 14.6787 5.94808 14.6191 5.93743 14.5573C5.92677 14.5019 5.91825 14.4444 5.90973 14.389C5.89907 14.3208 5.89268 14.2547 5.88416 14.1865C5.87776 14.1354 5.87137 14.0843 5.86711 14.0331C5.85859 13.9543 5.85433 13.8754 5.85006 13.7966C5.84793 13.754 5.84367 13.7135 5.84154 13.6709L8.33239 16.1596C7.6058 16.1234 6.90692 15.9828 6.24852 15.7548C6.2336 15.71 6.21655 15.6653 6.20377 15.6205H6.20164ZM9.96667 16.0595L5.94169 12.0345C6.02266 11.5615 6.14837 11.1033 6.31457 10.6644L11.3367 15.6866C10.8978 15.8528 10.4397 15.9785 9.96667 16.0595ZM12.5065 15.1219L6.87922 9.49462C7.09229 9.13453 7.33733 8.79574 7.6058 8.47826L13.5229 14.3954C13.2054 14.6638 12.8666 14.9089 12.5065 15.1219ZM14.3922 13.526L8.47515 7.60891C8.79263 7.34044 9.13142 7.0954 9.49152 6.88232L15.1188 12.5096C14.9058 12.8697 14.6607 13.2085 14.3922 13.526ZM13.3013 20.7748C10.6166 20.7748 8.25994 19.3515 6.94314 17.2207C7.50992 17.3379 8.09588 17.3976 8.69675 17.3976C13.4931 17.3976 17.3945 13.4962 17.3945 8.69985C17.3945 8.09898 17.3327 7.51303 17.2176 6.94625C19.3484 8.26305 20.7717 10.6197 20.7717 13.3044C20.7717 17.4231 17.42 20.7748 13.3013 20.7748Z" fill="currentColor"/>
</svg>
