<svg width="1em" height="1em" fill="currentColor" xmlns="http://www.w3.org/2000/svg" viewBox="2 2 20 20">
  <path d="M20.657,8.18c-.137-.137-.322-.214-.516-.214h-2.263c-.096,0-.191.019-.28.056s-.169.091-.237.158c-.068.068-.122.148-.159.237-.037.089-.056.184-.056.28v.511h-2.543v-2.482h1.194c.194,0,.379-.078.516-.215.137-.137.214-.323.214-.516v-2.263c0-.194-.077-.38-.214-.517s-.322-.214-.516-.214h-2.265c-.194,0-.379.077-.516.214-.137.137-.214.323-.214.517v1.131h-6.078v-1.131c0-.194-.077-.38-.214-.517s-.323-.214-.516-.214h-2.265c-.194,0-.379.077-.516.214s-.214.323-.214.517v2.263c0,.194.077.38.214.517s.322.214.516.215h.944v5.585h1.05c.009,0,.016.005.024.005h-2.018c-.194,0-.379.077-.516.214-.137.137-.214.322-.214.516v2.258c0,.193.077.379.214.516.137.137.322.214.516.214h2.265c.193,0,.377-.076.514-.212s.214-.32.216-.513v-.516h2.295v2.483h.804s.003,0,.004,0h-1.998c-.193,0-.379.078-.515.214-.137.137-.214.323-.214.516v2.264c0,.193.077.379.214.516.137.137.322.214.515.214h2.263c.193,0,.379-.078.516-.214.137-.137.214-.322.215-.516v-2s0,.003,0,.005v.863h6.323v1.132c0,.194.078.379.215.516.137.137.323.214.516.214h2.263c.193,0,.379-.077.516-.214.137-.137.214-.322.214-.516v-2.264c0-.194-.077-.38-.214-.516s-.323-.214-.516-.214h-1.998s.003,0,.004,0h.804v-5.586h1.19c.193,0,.379-.077.516-.214.137-.137.214-.322.214-.516v-2.263c0-.194-.077-.38-.214-.517ZM5.921,3.807v2.118h-2.118v-2.118h2.118ZM3.803,15.233v-2.118h2.118v2.118h-2.118ZM15.725,15.233h-2.118v-2.118h2.118v2.118ZM15.725,3.807v2.118h-2.118v-2.118h2.118ZM9.1,18.083h.92v2.117h-2.118v-2.117h1.198ZM10.816,17.969c-.01-.18-.079-.351-.207-.479-.114-.114-.264-.174-.421-.195v-2.503h2.615v.511c0,.193.077.379.214.516.137.137.322.214.516.214h2.265c.193,0,.377-.076.514-.212.137-.136.214-.32.216-.513v-2.263c0-.193-.077-.379-.214-.516s-.322-.214-.516-.214h-2.019c.009,0,.016-.005.024-.005h.801v-1.934h2.543v.583c0,.194.078.38.215.516.114.113.263.173.421.195v5.625c-.157.021-.307.081-.421.195-.128.128-.197.3-.207.479h-6.339ZM18.886,18.083h1.182v2.117h-2.118l-.002-1.143-.002-.974h.94ZM18.951,10.889h-1.001l-.003-1.602v-.516s2.121,0,2.121,0v2.118h-1.117Z"/>
</svg>