<svg xmlns="http://www.w3.org/2000/svg" xmlns:xlink="http://www.w3.org/1999/xlink" width="24" height="24" viewBox="0 0 24 24">
  <defs>
    <clipPath id="clip-icon-nodetype-1">
      <rect width="24" height="24"/>
    </clipPath>
  </defs>
  <g id="icon-nodetype-1" clip-path="url(#clip-icon-nodetype-1)">
    <g id="icon-nodetype-1-2" data-name="icon-nodetype-1" transform="translate(33.901 6.642)">
      <path id="Path_138" data-name="Path 138" d="M-15.5,4.593a1.6,1.6,0,0,1-1.6-1.6,1.6,1.6,0,0,1,1.6-1.6,1.6,1.6,0,0,1,1.6,1.6A1.607,1.607,0,0,1-15.5,4.593Zm0-2.195a.589.589,0,0,0-.588.591.588.588,0,0,0,.59.587.589.589,0,0,0,.588-.587A.59.59,0,0,0-15.5,2.4Z" fill="#848484"/>
      <g id="Group_85" data-name="Group 85">
        <path id="Path_154" data-name="Path 154" d="M-28.267,7.074a.618.618,0,0,0-.618.618.618.618,0,0,0,.618.618.618.618,0,0,0,.618-.618h0A.618.618,0,0,0-28.267,7.074Z" fill="none"/>
        <path id="Path_155" data-name="Path 155" d="M-22.69,4.179A1.222,1.222,0,0,0-23.91,5.4c0,.029.015.054.017.083l2.2-.754A1.2,1.2,0,0,0-22.69,4.179Z" fill="none"/>
        <path id="Path_156" data-name="Path 156" d="M-22.687,6.621a1.206,1.206,0,0,0,1.048-.633l-1.539.528A1.221,1.221,0,0,0-22.687,6.621Z" fill="none"/>
        <path id="Path_157" data-name="Path 157" d="M-27.358,6.675l.28-.1a1.618,1.618,0,0,0-1.187-.519A1.631,1.631,0,0,0-29.9,7.691a1.632,1.632,0,0,0,1.631,1.633A1.634,1.634,0,0,0-26.635,7.7l-.357.122Zm-.291,1.017a.618.618,0,0,1-.618.618.618.618,0,0,1-.618-.618.618.618,0,0,1,.618-.618.618.618,0,0,1,.618.618Z" fill="#848484"/>
        <path id="Path_158" data-name="Path 158" d="M-16.213,4.125l-.367-1.15-3.484,1.2a2.885,2.885,0,0,1,.276,1.181Z" fill="#848484"/>
        <path id="Path_159" data-name="Path 159" d="M-27.078,6.579a1.624,1.624,0,0,1,.444,1.113V7.7L-25,7.143a2.877,2.877,0,0,1-.517-1.1Z" fill="#848484"/>
        <path id="Path_160" data-name="Path 160" d="M-27.078,6.579l-.28.1.366,1.15.357-.122V7.692A1.624,1.624,0,0,0-27.078,6.579Z" fill="#848484"/>
        <path id="Path_161" data-name="Path 161" d="M-23.91,5.4a1.222,1.222,0,0,1,1.22-1.223,1.2,1.2,0,0,1,1,.552l1.631-.56A2.9,2.9,0,0,0-22.69,2.493h0A2.907,2.907,0,0,0-25.6,5.4a2.91,2.91,0,0,0,.077.644l1.628-.559C-23.9,5.456-23.91,5.431-23.91,5.4Z" fill="#494a4a"/>
        <path id="Path_162" data-name="Path 162" d="M-21.639,5.988a1.206,1.206,0,0,1-1.048.633,1.221,1.221,0,0,1-.491-.105L-25,7.143A2.892,2.892,0,0,0-22.69,8.307,2.907,2.907,0,0,0-19.783,5.4c0-.016,0-.031,0-.048Z" fill="#494a4a"/>
        <path id="Path_163" data-name="Path 163" d="M-21.468,5.4a1.193,1.193,0,0,1-.171.588l1.851-.636a2.885,2.885,0,0,0-.276-1.181l-1.631.56A1.185,1.185,0,0,1-21.468,5.4Z" fill="#494a4a"/>
        <path id="Path_164" data-name="Path 164" d="M-23.893,5.485l-1.628.559A2.877,2.877,0,0,0-25,7.143l1.826-.627A1.213,1.213,0,0,1-23.893,5.485Z" fill="#494a4a"/>
      </g>
    </g>
  </g>
</svg>
