<svg width="512" height="512" xmlns="http://www.w3.org/2000/svg">
 <!-- Created with Method Draw - http://github.com/duopixel/Method-Draw/ -->
 <g>
  <path stroke="#333333" d="m491.77818,219.68544l0.70787,0.04547l0.72085,0.0763l0.70787,0.10715l0.70786,0.138l0.70787,0.16885l0.69488,0.19969l0.69487,0.23055l0.68189,0.24515l0.68189,0.29061l0.65591,0.30685l0.65592,0.35231l0.65591,0.36691l0.62994,0.39777l0.61694,0.41401l0.60396,0.45946l0.59097,0.47569l0.57636,0.50493l0.56337,0.52115l0.55037,0.55201l0.52442,0.56661l0.51141,0.59746l0.48544,0.61208l0.47245,0.62831l0.44647,0.65916l0.43349,0.67377l0.40588,0.68999l0.3799,0.70462l0.36693,0.72086l0.34094,0.75007l0.31496,0.75008l0.289,0.76631l0.27601,0.7663l0.23541,0.79716l0.22243,0.79716l0.19644,0.81177l0.17048,0.81177l0.14449,0.828l0.11853,0.82801l0.09253,0.828l0.06494,0.84262l0.03898,0.82801l0.01298,0.84262l-0.01298,0.84262l-0.03898,0.828l-0.06494,0.84262l-0.09253,0.82801l-0.11853,0.828l-0.14449,0.82801l-0.15749,0.81177l-0.19644,0.81177l-0.22243,0.79716l-0.19644,0.64292l-63.72072,199.17433l-0.26301,0.78092l-0.289,0.76631l-0.31496,0.76631l-0.32795,0.73546l-0.36693,0.72085l-0.3799,0.72085l-0.39291,0.69001l-0.43348,0.67377l-0.44647,0.65916l-0.45947,0.64292l-0.48543,0.62831l-0.49843,0.59746l-0.5244,0.56661l-0.53739,0.55201l-0.56337,0.53577l-0.57636,0.50492l-0.57635,0.47569l-0.60396,0.45947l-0.61695,0.42861l-0.64292,0.41401l-0.62994,0.36691l-0.65591,0.35231l-0.66889,0.32146l-0.66889,0.29062l-0.68189,0.25976l-0.69488,0.23055l-0.69488,0.19969l-0.70786,0.18347l-0.70787,0.138l-0.70786,0.12175l-0.70787,0.0763l-0.72085,0.0617l-0.87834,0.01462l-353.63474,0l-0.72085,-0.01462l-0.70787,-0.04545l-0.72085,-0.07632l-0.70786,-0.10715l-0.70787,-0.13799l-0.70787,-0.16885l-0.69487,-0.1997l-0.69488,-0.23054l-0.68189,-0.24515l-0.68189,-0.29062l-0.65591,-0.30684l-0.65591,-0.35231l-0.65592,-0.36693l-0.62993,-0.39776l-0.61695,-0.41401l-0.60396,-0.45946l-0.59097,-0.47571l-0.57636,-0.50492l-0.56336,-0.52116l-0.55038,-0.55201l-0.5244,-0.56661l-0.51143,-0.59746l-0.48544,-0.61207l-0.47245,-0.62831l-0.44647,-0.65916l-0.43348,-0.67377l-0.40588,-0.69001l-0.37992,-0.70462l-0.36693,-0.72085l-0.34094,-0.75008l-0.31496,-0.75007l-0.28898,-0.76631l-0.27601,-0.76631l-0.23542,-0.79715l-0.22243,-0.79716l-0.19644,-0.81177l-0.17046,-0.81177l-0.1445,-0.82801l-0.11852,-0.828l-0.09255,-0.82801l-0.06494,-0.84262l-0.03896,-0.828l-0.01299,-0.84262l0.01299,-0.84262l0.03896,-0.82801l0.06494,-0.84262l0.09255,-0.828l0.11852,-0.82801l0.1445,-0.828l0.15747,-0.81177l0.19646,-0.81177l0.22242,-0.79716l0.17048,-0.56661l63.01124,-199.17433l0.26301,-0.78092l0.01299,-0.03085l0.06494,-0.1997l0.28898,-0.76631l0.31498,-0.75007l0.34093,-0.73546l0.36693,-0.72085l0.37992,-0.72086l0.40588,-0.68999l0.43348,-0.67378l0.44647,-0.64292l0.17048,-0.23054l0.15749,-0.23055l0.48543,-0.62831l0.51143,-0.59746l0.51141,-0.58285l0.53739,-0.55201l0.18347,-0.16885l0.17046,-0.16884l0.20944,-0.1997l0.56337,-0.50493l0.17046,-0.13799l0.59097,-0.47571l0.60396,-0.45946l0.61695,-0.41401l0.289,-0.16884l0.17046,-0.12177l0.64293,-0.38315l0.64292,-0.35231l0.66889,-0.32146l0.66889,-0.29062l0.23542,-0.09253l0.64292,-0.24515l0.32795,-0.10715l0.17048,-0.0617l0.09253,-0.03085l0.10554,-0.03085l0.69487,-0.19969l0.35393,-0.0763l0.1445,-0.04547l0.09255,-0.0146l0.11852,-0.03085l0.70786,-0.138l0.44648,-0.0617l0.05195,-0.0146l0.05195,0l0.15749,-0.03085l0.18345,-0.01462l0.32795,-0.04545l0.15749,-0.01462l0.05195,0l0.70787,-0.04545l0.30197,0l0.20944,-0.01462l354.57963,0l0.7176,0.01786l0,0.00001zm0,0" stroke-miterlimit="4" fill="#333333" id="svg_9"/>
  <path stroke="#333333" d="m217.31964,47.21511l0.50167,0.03896l0.51304,0.06494l0.50167,0.09092l0.50167,0.11689l0.60558,0.16885l0.24029,0.07793l0.47895,0.18184l0.47893,0.19482l0.59422,0.26139l0.46758,0.20782l0.44484,0.22242l0.45622,0.24841l0.45622,0.27438l0.29711,0.18183l0.33121,0.22243l0.31983,0.23542l0.21756,0.15586l0.42212,0.31333l0.41075,0.35231l0.39939,0.3653l0.38804,0.37829l0.36528,0.40425l0.35393,0.41725l0.33121,0.44323l0.31983,0.45622l0.30848,0.4692l0.27438,0.49519l0.26301,0.49517l0.24029,0.50817l0.263,0.62506l2.0197,5.18884l0.19482,0.53414l0.17046,0.54714l0.15912,0.56012l0.12501,0.56013l0.11365,0.56012l0.09092,0.57311l0.05682,0.5861l0.04547,0.57311l0.02272,0.79554l0,64.28084l233.00729,0l0.51304,0.01299l0.50167,0.03898l0.51304,0.06494l0.50167,0.09091l0.50167,0.1169l0.49031,0.14287l0.49031,0.16885l0.47895,0.18183l0.24029,0.1169l0.11365,0.05195l0.51304,0.24841l0.67377,0.35231l0.67377,0.37827l0.5715,0.35231l0.62831,0.41726l0.45621,0.32633l0.42213,0.32633l0.42212,0.33933l0.20618,0.18183l0.44485,0.40425l0.45622,0.43024l0.38803,0.39128l0.3653,0.39128l0.42212,0.49517l0.24029,0.28737l0.18345,0.22242l0.33121,0.44323l0.31983,0.45622l0.30848,0.4692l0.27438,0.4822l0.26301,0.50817l0.25165,0.50817l0.21754,0.52115l0.2062,0.57312l0.29711,0.84748l0.18345,0.53414l0.15912,0.56013l0.13638,0.56012l0.11365,0.57311l0.09092,0.57311l0.06818,0.57311l0.04547,0.5861l0.02272,0.57311l0,24.53982l-0.01137,0.5861l-0.0341,0.57311l-0.05682,0.5861l-0.07956,0.57311l-0.10229,0.57311l-0.12501,0.56013l-0.14774,0.56012l-0.1591,0.54713l-0.19483,0.54714l-0.20618,0.52116l-0.24029,0.52116l-0.25165,0.50817l-0.26301,0.49517l-0.29711,0.48218l-0.30848,0.46921l-0.31983,0.44322l-0.34257,0.43024l-0.3653,0.41726l-0.37666,0.39126l-0.38803,0.37829l-0.41075,0.35231l-0.41075,0.33932l-0.43349,0.31335l-0.44484,0.28737l-0.45622,0.26139l-0.45622,0.2484l-0.47895,0.22243l-0.47893,0.19482l-0.49031,0.16885l-0.49031,0.14287l-0.50167,0.1169l-0.50167,0.09091l-0.50169,0.06496l-0.51304,0.05195l-0.57148,0.01299l-355.26477,0l-2.79736,0.96438l-2.03266,0.87347l-1.86058,0.99036l-1.90604,1.23877l-1.82649,1.39463l-1.57483,1.45956l-1.54074,1.68198l-1.34754,1.75993l-1.32481,2.03429l-1.1868,2.20316l-72.24756,237.93149l-0.17046,0.54713l-0.2062,0.53415l-0.21756,0.52115l-0.24027,0.52116l-0.26301,0.49519l-0.27438,0.49517l-0.29712,0.4692l-0.31983,0.45622l-0.33121,0.44323l-0.35393,0.41725l-0.36528,0.40425l-0.38803,0.39128l-0.39941,0.3653l-0.41075,0.33932l-0.42212,0.32633l-0.43349,0.30036l-0.45621,0.28737l-0.45622,0.2484l-0.46758,0.23542l-0.47895,0.20781l-0.47895,0.18184l-0.49031,0.15586l-0.50167,0.12988l-0.50167,0.11689l-0.50167,0.07793l-0.50167,0.05197l-0.51304,0.03896l-0.51304,0l-0.50167,-0.02598l-0.51304,-0.03896l-0.50167,-0.07793l-0.50167,-0.10391l-0.50167,-0.11689l-0.49033,-0.15586l-0.49029,-0.16885l-0.47895,-0.20781l-0.46758,-0.22243l-0.46758,-0.2484l-0.44484,-0.27438l-0.44485,-0.28737l-0.42212,-0.32634l-0.42213,-0.33932l-0.39939,-0.35231l-0.38803,-0.37829l-0.37666,-0.40425l-0.35393,-0.41725l-0.3312,-0.43024l-0.33121,-0.45622l-0.29711,-0.4692l-0.28574,-0.4822l-0.27438,-0.49517l-0.24029,-0.50817l-0.22892,-0.52116l-0.20618,-0.53414l-0.18347,-0.54714l-0.17046,-0.54713l-0.13638,-0.56012l-0.12501,-0.57311l-0.09092,-0.57312l-0.07956,-0.57311l-0.04545,-0.57311l-0.0341,-0.5861l0,-0.5861l0.02274,-0.83449l24.20049,-369.51944l0.04547,-0.57311l0.06818,-0.57312l0.10229,-0.57311l0.11365,-0.57311l0.13638,-0.56012l0.15912,-0.54714l0.18345,-0.54713l0.2062,-0.53415l0.22891,-0.52115l0.31984,-0.67865l0.21754,-0.41725l0.27438,-0.48218l0.19483,-0.32634l0.07954,-0.12988l0.29712,-0.48218l0.21754,-0.30036l0.10229,-0.14287l0.33121,-0.44323l0.43348,-0.52116l0.09092,-0.1039l0.49031,-0.52116l0.10229,-0.10391l0.38803,-0.37829l0.39939,-0.36528l0.42213,-0.33933l0.42212,-0.31333l0.44485,-0.28737l0.39939,-0.23542l0.02272,-0.01299l0.59421,-0.32633l3.48088,-1.70796l0.22892,-0.10391l0.1591,-0.07793l0.04545,-0.01299l0.04547,-0.02597l0.20618,-0.07793l0.19483,-0.07793l0.47895,-0.16885l0.50167,-0.15586l0.49031,-0.11689l0.22891,-0.03898l0.3653,-0.07793l0.51304,-0.06494l0.50169,-0.03896l0.51304,-0.01299l175.87489,0l0.50817,0.02598l0.00003,-0.00001zm0,0" stroke-miterlimit="4" fill="#333333" id="svg_8"/>
 </g>
</svg>