<svg id="Layer_1" data-name="Layer 1" xmlns="http://www.w3.org/2000/svg" viewBox="0 0 511.626 511.626">
  <title>Artboard 1</title>
  <rect id="canvas_background" data-name="canvas background" x="-1" y="-1" width="802" height="602" style="fill: none"/>
  <g id="svg_70" data-name="svg 70" style="opacity: 0.9700000286102295">
    <g id="svg_68" data-name="svg 68">
      <path id="svg_65" data-name="svg 65" d="M40.93,75.916,496.873,339.155c9.182,5.3,12.09,17.457,6.492,27.153l.006-.009c-5.6,9.7-17.58,13.255-26.762,7.954L20.667,111.014c-9.182-5.3-12.09-17.457-6.493-27.153l0,.009C19.767,74.175,31.749,70.615,40.93,75.916Z" style="stroke: #000"/>
      <path id="svg_64" data-name="svg 64" d="M257.689,91.49l1.868.018,1.867.028,1.859.046,1.858.055L267,91.7l1.858.083,1.849.092,1.849.1,1.85.12,1.84.129,1.84.138,1.84.156,1.84.166,1.831.175,1.831.193,1.831.2,1.83.212,1.822.23,1.822.239,1.821.258,1.822.266,1.812.276,1.813.3,1.812.3,1.813.313,1.8.331,1.8.341,1.8.349,1.8.369,1.794.377,1.794.386,1.794.405,1.794.414,1.785.423,1.785.442,1.785.451,1.784.46,1.776.478,1.776.488,1.775.5,1.776.516,1.766.524,1.767.534,1.766.552,1.767.561,1.757.57,1.757.589,1.757.6,1.749.607,1.748.626,1.748.635,1.748.644,1.739.662,1.738.672,1.739.681,1.739.7,1.73.708,1.729.727,1.73.736,1.73.745,1.72.764,1.721.773,1.72.782,1.72.8,1.712.81,1.711.819,1.711.837,1.711.846,1.7.856,1.7.874,1.7.883,1.7.893,1.693.91,1.692.921,1.693.929,1.693.947,1.684.957,1.683.966,1.684.985,1.674.993,1.666,1L402.814,134l1.647,1.012,1.637,1.021,1.638,1.031,1.628,1.039,1.62,1.049,1.61,1.058,1.6,1.068,1.592,1.067,1.583,1.076,1.573,1.086,1.564,1.095,1.555,1.1,1.545,1.113,1.537,1.122,1.527,1.132,1.518,1.132,1.518,1.14,1.509,1.15,1.5,1.16,1.49,1.168,1.481,1.178,1.472,1.187,1.463,1.2,1.454,1.2,1.444,1.2L442.954,163l1.426,1.224,1.417,1.233,1.408,1.242,1.4,1.251,1.39,1.251,1.389,1.261,1.38,1.269,1.371,1.279,1.361,1.288,1.353,1.3,1.343,1.307,1.334,1.316,1.325,1.315,1.316,1.325,1.306,1.334,1.3,1.343,1.288,1.353,1.279,1.361,1.27,1.371,1.269,1.38,1.261,1.38,1.251,1.39,1.242,1.4,1.233,1.408L476.085,196l1.214,1.426,1.205,1.436,1.2,1.435,1.187,1.444,1.178,1.454,1.168,1.463,1.159,1.472,1.15,1.481,1.141,1.491,1.141,1.5,1.132,1.5,1.122,1.509,1.113,1.518,1.1,1.527,1.095,1.536,1.086,1.546,1.076,1.555,1.068,1.564,1.058,1.564,1.048,1.573,1.04,1.583,1.03,1.591,1.022,1.6,1.012,1.61,1.012,1.62,1,1.619,1.076,1.987.966,1.978.856,1.978.736,1.969.625,1.969.515,1.959.4,1.951.285,1.95.175,1.942.055,1.932-.055,1.941-.175,1.941-.285,1.951-.4,1.95-.515,1.96-.625,1.959-.736,1.969-.856,1.978-.966,1.978-1.076,1.988-1,1.628-1.012,1.619-1.012,1.61-1.022,1.61-1.03,1.6-1.04,1.592-1.048,1.582-1.058,1.574-1.068,1.564-1.076,1.554-1.086,1.546-1.095,1.546-1.1,1.536-1.113,1.527-1.122,1.519-1.132,1.508-1.141,1.5-1.141,1.49-1.15,1.482-1.159,1.472-1.168,1.472-1.178,1.463L479.7,310.29l-1.2,1.445L477.3,313.17l-1.214,1.426-1.224,1.417-1.233,1.407-1.242,1.4-1.251,1.4-1.261,1.39-1.269,1.38-1.27,1.37-1.279,1.362-1.288,1.353-1.3,1.343-1.306,1.334-1.316,1.334-1.325,1.325-1.334,1.315-1.343,1.307-1.353,1.3-1.361,1.288-1.371,1.279-1.38,1.269-1.389,1.261-1.39,1.26-1.4,1.252-1.408,1.242-1.417,1.232-1.426,1.224-1.435,1.215-1.444,1.2-1.454,1.2-1.463,1.2-1.472,1.187-1.481,1.177-1.49,1.169-1.5,1.159-1.509,1.15-1.518,1.141-1.518,1.131-1.527,1.123-1.537,1.122-1.545,1.114-1.555,1.1-1.564,1.094-1.573,1.086-1.583,1.076-1.592,1.068-1.6,1.058-1.61,1.049-1.62,1.048-1.628,1.04-1.638,1.03-1.637,1.022-1.647,1.012-1.656,1-1.666.993-1.674.985-1.684.975-1.683.966-1.684.957-1.693.938-1.693.929-1.692.92-1.693.9-1.7.892-1.7.884-1.7.864-1.7.856-1.711.846-1.711.828-1.711.819-1.712.81-1.72.791-1.72.782-1.721.773-1.72.754-1.73.746-1.73.736-1.729.717-1.73.709-1.739.7-1.739.681-1.738.671-1.739.663-1.748.644-1.748.635-1.748.625-1.749.607-1.757.6-1.757.589-1.757.571-1.767.561-1.766.552-1.767.534-1.766.524-1.776.506-1.775.5-1.776.487-1.776.47-1.784.46-1.785.45-1.785.433-1.785.423-1.794.414-1.794.4-1.794.386-1.794.377-1.8.359-1.8.35-1.8.34-1.8.322-1.813.313-1.812.3-1.813.285-1.812.276-1.822.267-1.821.248-1.822.239-1.822.23-1.83.212-1.831.2-1.831.193-1.831.175-1.84.166-1.84.156-1.84.138-1.84.129-1.85.12-1.849.1-1.849.092-1.858.083-1.859.064-1.858.055-1.859.046-1.867.028-1.868.018-1.868.009-1.867-.009-1.868-.018-1.868-.028-1.858-.046L246.5,418.8l-1.858-.064-1.859-.083-1.849-.092-1.849-.1-1.849-.12-1.84-.129-1.84-.138-1.84-.156-1.84-.166-1.831-.175-1.831-.193-1.831-.2-1.831-.212-1.822-.23-1.821-.239-1.822-.258-1.822-.266-1.812-.276-1.812-.295-1.813-.3-1.812-.313-1.8-.331-1.8-.341-1.8-.349-1.8-.368-1.794-.378-1.794-.386-1.794-.405-1.795-.414-1.784-.423-1.785-.442-1.785-.451-1.785-.46-1.776-.478-1.775-.488-1.776-.5-1.776-.516-1.766-.524L175.853,407l-1.767-.552-1.766-.561-1.758-.57-1.757-.589-1.757-.6-1.748-.607-1.748-.626-1.748-.635-1.748-.644-1.739-.662-1.739-.672-1.739-.681-1.739-.7-1.729-.708-1.73-.727-1.73-.736-1.729-.745-1.721-.764-1.72-.773-1.721-.782-1.72-.8-1.711-.81-1.712-.819-1.711-.837-1.711-.846-1.7-.856-1.7-.874-1.7-.883-1.7-.893-1.693-.91-1.693-.92-1.693-.93-1.693-.947-1.683-.957-1.684-.966-1.684-.985-1.674-.993-1.665-1-1.656-1.012-1.647-1.012-1.647-1.021-1.638-1.031-1.628-1.039-1.619-1.049-1.61-1.058-1.6-1.068-1.592-1.067-1.582-1.076-1.574-1.086-1.564-1.095-1.554-1.1-1.546-1.113-1.536-1.122-1.528-1.132-1.518-1.132-1.518-1.14-1.509-1.15-1.5-1.16-1.491-1.168-1.481-1.178-1.472-1.187-1.463-1.2-1.454-1.2-1.444-1.2-1.435-1.214-1.426-1.224-1.417-1.233-1.408-1.242-1.4-1.251-1.389-1.251-1.39-1.261-1.38-1.269-1.37-1.279-1.362-1.288-1.353-1.3-1.343-1.307-1.334-1.316L50.784,330.9l-1.315-1.325-1.307-1.334-1.3-1.343-1.288-1.353L44.3,324.183l-1.27-1.371-1.269-1.38-1.261-1.38-1.251-1.39-1.242-1.4-1.233-1.408-1.223-1.416-1.215-1.426-1.205-1.436-1.2-1.435L30.746,308.7l-1.177-1.454L28.4,305.782l-1.159-1.472-1.15-1.481-1.141-1.491-1.141-1.5-1.131-1.5-1.123-1.509-1.113-1.518-1.1-1.527-1.1-1.536L17.157,290.7l-1.076-1.555-1.067-1.564-1.058-1.564-1.049-1.573-1.04-1.583-1.03-1.591-1.021-1.6L8.8,278.062l-1.012-1.62-1-1.619-1.077-1.987-.966-1.978-.855-1.978-.736-1.969-.626-1.969-.515-1.959-.4-1.951-.285-1.95-.175-1.942L1.1,255.208l.055-1.932.175-1.941.285-1.95.4-1.951.515-1.96.626-1.968.736-1.969.855-1.978.966-1.978,1.077-1.988,1-1.619L8.8,232.355l1.012-1.61,1.021-1.6,1.03-1.592,1.04-1.582,1.049-1.573,1.058-1.564,1.067-1.564,1.076-1.555,1.086-1.546,1.1-1.536,1.1-1.528,1.113-1.518,1.123-1.508,1.131-1.5,1.141-1.5,1.141-1.49,1.15-1.481,1.159-1.473,1.169-1.462,1.177-1.454,1.187-1.444,1.2-1.436,1.205-1.435,1.215-1.426,1.223-1.417,1.233-1.407,1.242-1.4,1.251-1.389,1.261-1.38,1.269-1.38,1.27-1.371,1.279-1.362,1.288-1.352,1.3-1.343,1.307-1.334,1.315-1.325,1.325-1.316,1.334-1.315,1.343-1.307,1.353-1.3L57.5,173l1.37-1.279,1.38-1.27,1.39-1.26,1.389-1.251,1.4-1.252,1.408-1.242,1.417-1.232,1.426-1.224,1.435-1.214,1.444-1.206,1.454-1.2,1.463-1.2,1.472-1.187,1.481-1.177,1.491-1.169,1.5-1.159,1.509-1.15,1.518-1.141,1.518-1.131,1.528-1.132,1.536-1.122,1.546-1.114,1.554-1.1,1.564-1.095,1.574-1.085,1.582-1.077,1.592-1.067,1.6-1.067,1.61-1.058,1.619-1.049,1.628-1.04,1.638-1.03L107.182,135l1.647-1.012,1.656-1.012,1.665-1,1.674-.994,1.684-.984,1.684-.966,1.683-.957,1.693-.948,1.693-.929,1.693-.92,1.693-.911,1.7-.892,1.7-.883,1.7-.874,1.7-.856,1.711-.846,1.711-.838,1.712-.819,1.711-.809,1.72-.8,1.721-.782,1.72-.772,1.721-.764,1.729-.745,1.73-.736,1.73-.727,1.729-.708,1.739-.7,1.739-.681,1.739-.671,1.739-.663,1.748-.644,1.748-.634,1.748-.626,1.748-.607,1.757-.6,1.757-.589,1.758-.57,1.766-.562,1.767-.552,1.766-.533,1.766-.525,1.776-.515,1.776-.5,1.775-.487,1.776-.479,1.785-.46,1.785-.451,1.785-.441,1.784-.423,1.795-.414,1.794-.405,1.794-.387,1.794-.377,1.8-.368,1.8-.35,1.8-.34,1.8-.331,1.812-.313,1.813-.3,1.812-.294,1.812-.276,1.822-.267,1.822-.257,1.821-.24,1.822-.23,1.831-.211,1.831-.2,1.831-.193,1.831-.175,1.84-.165,1.84-.157,1.84-.138,1.84-.128,1.849-.12,1.849-.1,1.849-.092,1.859-.083,1.858-.064,1.859-.056,1.858-.046,1.868-.027,1.868-.019,1.867-.009,1.868.009Zm-4.122,34.2-1.95.055-1.942.1-1.932.138-1.922.174-1.914.212-1.905.248-1.886.286-1.876.322-1.859.358-1.849.4-1.84.432-1.822.47-1.8.506-1.794.533-1.776.571-1.766.607-1.748.635-1.73.671-1.711.709-1.693.736-1.684.773-1.665.8-1.647.828-1.628.865-1.61.892-1.583.92-1.564.948-1.545.984L202.4,141.87l-1.509,1.04-1.481,1.067-1.463,1.095-1.444,1.122-1.417,1.151-1.4,1.177-1.371,1.205-1.353,1.224-1.324,1.251-1.3,1.279-1.278,1.3-1.252,1.325-1.223,1.353-1.206,1.37-1.177,1.4-1.15,1.417-1.123,1.444-1.095,1.463-1.067,1.481-1.039,1.509-1.012,1.527-.985,1.546-.947,1.564-.92,1.582-.893,1.61L171.105,177l-.828,1.647-.8,1.665-.773,1.684-.736,1.693-.708,1.711-.672,1.729-.635,1.748-.607,1.767-.571,1.776-.533,1.794-.506,1.8-.469,1.822-.433,1.84-.4,1.849-.359,1.858-.322,1.877-.285,1.886-.249,1.905-.211,1.913-.175,1.923-.138,1.932-.1,1.941-.056,1.951-.018,1.96.018,1.959.056,1.951.1,1.941.138,1.932.175,1.923.211,1.913.249,1.905.285,1.886.322,1.877.359,1.858.4,1.85.433,1.84.469,1.821.506,1.8.533,1.8.571,1.775.607,1.767.635,1.748.672,1.729.708,1.712.736,1.692.773,1.684.8,1.665.828,1.647.865,1.629.893,1.61.92,1.582.947,1.564.985,1.546,1.012,1.527,1.039,1.509,1.067,1.481,1.095,1.463,1.123,1.444,1.15,1.417,1.177,1.4,1.206,1.371,1.223,1.352,1.252,1.325,1.278,1.3,1.3,1.279,1.324,1.251,1.353,1.224,1.371,1.205,1.4,1.178,1.417,1.15,1.444,1.122,1.463,1.095,1.481,1.067,1.509,1.04,1.528,1.012,1.545.984,1.564.948,1.583.92,1.61.892,1.628.865,1.647.828,1.665.8,1.684.772,1.693.736,1.711.709,1.73.671,1.748.635,1.766.607,1.776.571,1.794.533,1.8.507,1.822.469,1.84.432,1.849.4,1.859.359,1.876.322,1.886.285,1.905.248,1.914.212,1.922.175,1.932.138,1.942.1,1.95.055,1.96.018,1.959-.018,1.951-.055,1.941-.1,1.932-.138,1.923-.175,1.914-.212,1.9-.248,1.886-.285,1.877-.322,1.859-.359,1.849-.4,1.84-.432,1.822-.469,1.8-.507,1.794-.533,1.775-.571,1.767-.607,1.748-.635,1.73-.671,1.711-.709,1.693-.736,1.683-.772,1.666-.8,1.646-.828,1.629-.865,1.61-.892,1.582-.92,1.564-.948,1.546-.984,1.527-1.012,1.509-1.04,1.481-1.067,1.463-1.095,1.445-1.122,1.417-1.15,1.4-1.178,1.371-1.205,1.352-1.224,1.325-1.251,1.3-1.279,1.279-1.3,1.251-1.325,1.224-1.352,1.2-1.371,1.178-1.4L330,279.7l1.122-1.444,1.1-1.463,1.067-1.481,1.04-1.509,1.012-1.527.984-1.546.948-1.564.92-1.582.893-1.61.864-1.629.828-1.647.8-1.665.773-1.684.736-1.692.708-1.712.672-1.729.635-1.748.607-1.767.57-1.775.534-1.8.506-1.8.469-1.821.432-1.84.4-1.85.359-1.858.322-1.877.285-1.886.248-1.905.212-1.913.175-1.923.138-1.932.1-1.941.055-1.951.019-1.959-.019-1.96-.055-1.951-.1-1.941-.138-1.932-.175-1.923-.212-1.913-.248-1.905-.285-1.886-.322-1.877-.359-1.858-.4-1.849-.432-1.84-.469-1.822-.506-1.8-.534-1.794-.57-1.776-.607-1.767-.635-1.748-.672-1.729-.708-1.711-.736-1.693-.773-1.684-.8-1.665L339.948,177l-.864-1.629-.893-1.61-.92-1.582-.948-1.564-.984-1.546-1.012-1.527-1.04-1.509-1.067-1.481-1.1-1.463L330,161.642l-1.15-1.417-1.178-1.4-1.2-1.37-1.224-1.353L324,154.778l-1.279-1.3-1.3-1.279-1.325-1.251-1.352-1.224-1.371-1.205-1.4-1.177-1.417-1.151-1.445-1.122-1.463-1.095-1.481-1.067-1.509-1.04-1.527-1.012-1.546-.984-1.564-.948-1.582-.92-1.61-.892-1.629-.865-1.646-.828-1.666-.8-1.683-.773-1.693-.736L290.8,132.4l-1.73-.671-1.748-.635-1.767-.607-1.775-.571-1.794-.533-1.8-.506-1.822-.47-1.84-.432-1.849-.4-1.859-.358-1.877-.322-1.886-.286-1.9-.248-1.914-.212-1.923-.174-1.932-.138-1.941-.1-1.951-.055-1.959-.018Z" style="stroke: #000;stroke-miterlimit: 4.710531234741211;stroke-width: 1.1776328086853027px"/>
    </g>
  </g>
</svg>
