<svg xmlns="http://www.w3.org/2000/svg" width="25" height="25" viewBox="0 0 25 25">
  <g id="Group_33" data-name="Group 33" transform="translate(-11 -11)">
    <g id="Group_7" data-name="Group 7" transform="translate(16.501 16.501)">
      <path id="Subtraction_1" data-name="Subtraction 1" d="M4.1,9H1.125A1.126,1.126,0,0,1,0,7.876V1.125A1.127,1.127,0,0,1,1.125,0H7.876A1.127,1.127,0,0,1,9,1.125V4.1H5.225A1.127,1.127,0,0,0,4.1,5.225V9Z" transform="translate(0 0)" fill="#adadad"/>
      <path id="Path_42" data-name="Path 42" d="M7.125,6A1.126,1.126,0,0,0,6,7.125v6.751A1.126,1.126,0,0,0,7.125,15h6.751A1.126,1.126,0,0,0,15,13.876V7.125A1.126,1.126,0,0,0,13.876,6Z" transform="translate(-1.08 -1.08)" fill="#4d4d4d"/>
    </g>
    <g id="Group_9" data-name="Group 9" transform="translate(11 11)">
      <g id="Rectangle_45" data-name="Rectangle 45" transform="translate(2 2)" fill="none" stroke="#707070" stroke-width="1.6">
        <rect width="21" height="21" rx="3" stroke="none"/>
        <rect x="0.8" y="0.8" width="19.4" height="19.4" rx="2.2" fill="none"/>
      </g>
      <rect id="Rectangle_46" data-name="Rectangle 46" width="5" height="5" rx="1"/>
      <rect id="Rectangle_47" data-name="Rectangle 47" width="5" height="5" rx="1" transform="translate(20)"/>
      <rect id="Rectangle_48" data-name="Rectangle 48" width="5" height="5" rx="1" transform="translate(0 20)"/>
      <rect id="Rectangle_49" data-name="Rectangle 49" width="5" height="5" rx="1" transform="translate(20 20)"/>
    </g>
  </g>
</svg>
