<?xml version="1.0"?><svg fill="#000000" xmlns="http://www.w3.org/2000/svg" viewBox="0 0 24 24" width="48px" height="48px">    <path d="M 7 3 A 4 4 0 0 0 3 7 A 4 4 0 0 0 7 11 A 4 4 0 0 0 11 7 A 4 4 0 0 0 7 3 z M 15 3 C 13.895 3 13 3.895 13 5 L 13 9 C 13 10.105 13.895 11 15 11 L 19 11 C 20.105 11 21 10.105 21 9 L 21 5 C 21 3.895 20.105 3 19 3 L 15 3 z M 16.527344 12.734375 A 1.0001 1.0001 0 0 0 15.912109 12.923828 L 12.617188 15.318359 A 1.0001 1.0001 0 0 0 12.253906 16.435547 L 13.513672 20.308594 A 1.0001 1.0001 0 0 0 14.464844 21 L 18.535156 21 A 1.0001 1.0001 0 0 0 19.486328 20.308594 L 20.746094 16.435547 A 1.0001 1.0001 0 0 0 20.382812 15.318359 L 17.087891 12.923828 A 1.0001 1.0001 0 0 0 16.527344 12.734375 z M 7.0078125 13 A 1.0001 1.0001 0 0 0 6.1054688 13.552734 L 3.1054688 19.552734 A 1.0001 1.0001 0 0 0 4 21 L 10 21 A 1.0001 1.0001 0 0 0 10.894531 19.552734 L 7.8945312 13.552734 A 1.0001 1.0001 0 0 0 7.0078125 13 z"/></svg>