<svg id="Capa_1" data-name="Layer 1" xmlns="http://www.w3.org/2000/svg" viewBox="0 0 511.626 328.896">
  <title>eye-open</title>
  <path d="M505.917,236.117q-39.9765-65.38-107.497-105.065Q330.8975,91.3665,255.812,91.365q-75.0885,0-142.61,39.687Q45.678,170.736,5.707,236.117,0,246.1085-.001,255.818t5.708,19.699Q45.6775,340.9,113.202,380.581q67.5225,39.69,142.61,39.68,75.09,0,142.608-39.536,67.518-39.5415,107.497-105.208,5.709-9.9885,5.708-19.699T505.917,236.117ZM194.567,158.03q25.551-25.551,61.242-25.554a13.7045,13.7045,0,1,1,.0069,27.409,59.4621,59.4621,0,0,0-59.387,59.387,13.7075,13.7075,0,1,1-27.415,0Q169.0141,183.587,194.567,158.03ZM379.866,349.04a239.17,239.17,0,0,1-248.105,0q-57.2431-34.69-95.215-93.222,43.3965-67.3815,108.777-100.783a124.7686,124.7686,0,0,0-17.417,64.236q0,52.824,37.544,90.362,37.5405,37.55,90.362,37.544,52.821,0,90.362-37.544,37.5494-37.539,37.5449-90.362A124.753,124.753,0,0,0,366.3,155.035q65.3775,33.3975,108.776,100.783Q437.1111,314.351,379.866,349.04Z" transform="translate(0.001 -91.365)"/>
</svg>
