<svg width="512" height="512" xmlns="http://www.w3.org/2000/svg">
 <!-- Created with Method Draw - http://github.com/duopixel/Method-Draw/ -->
 <g>
    <path stroke="#333333" id="svg_10" d="m377.60405,263.77745l0.55,0.04l0.55,0.05l0.54,0.08l0.54,0.09l0.53,0.11l0.54,0.13l0.52,0.16l0.52,0.17l0.52,0.19l0.5,0.21l0.5,0.22l0.49,0.25l0.48,0.26l0.47,0.28l0.46,0.3l0.28,0.19l118.34,83.39l0.44,0.32l0.43,0.34l0.42,0.36l0.4,0.37l0.39,0.38l0.38,0.4l0.36,0.41l0.35,0.43l0.33,0.43l0.31,0.45l0.3,0.46l0.28,0.47l0.26,0.48l0.24,0.49l0.23,0.5l0.21,0.51l0.19,0.51l0.17,0.52l0.15,0.53l0.14,0.53l0.11,0.54l0.09,0.53l0.08,0.55l0.05,0.54l0.04,0.55l0.01,0.55l-0.01,0.54l-0.02,0.55l-0.05,0.55l-0.06,0.54l-0.09,0.54l-0.1,0.54l-0.13,0.53l-0.14,0.53l-0.17,0.52l-0.18,0.52l-0.2,0.51l-0.22,0.5l-0.24,0.5l-0.25,0.48l-0.28,0.47l-0.29,0.47l-0.3,0.45l-0.33,0.44l-0.34,0.43l-0.35,0.42l-0.37,0.41l-0.38,0.39l-0.4,0.37l-0.41,0.36l-0.43,0.35l-0.64,0.47l-118.33,83.14l-0.45,0.31l-0.47,0.29l-0.47,0.27l-0.48,0.26l-0.5,0.24l-0.5,0.21l-0.51,0.2l-0.52,0.19l-0.52,0.16l-0.53,0.14l-0.53,0.13l-0.54,0.1l-0.54,0.09l-0.54,0.06l-0.55,0.05l-0.55,0.02l-0.54,0.01l-0.55,-0.02l-0.55,-0.03l-0.54,-0.05l-0.55,-0.08l-0.54,-0.09l-0.53,-0.12l-0.53,-0.13l-0.53,-0.15l-0.52,-0.17l-0.51,-0.19l-0.51,-0.21l-0.5,-0.23l-0.49,-0.25l-0.48,-0.26l-0.47,-0.28l-0.46,-0.3l-0.45,-0.31l-0.43,-0.33l-0.43,-0.35l-0.41,-0.36l-0.4,-0.37l-0.38,-0.4l-0.37,-0.4l-0.36,-0.42l-0.33,-0.43l-0.33,-0.44l-0.3,-0.45l-0.29,-0.47l-0.28,-0.47l-0.25,-0.49l-0.24,-0.49l-0.22,-0.5l-0.2,-0.51l-0.18,-0.52l-0.17,-0.52l-0.14,-0.53l-0.13,-0.53l-0.1,-0.54l-0.09,-0.54l-0.06,-0.54l-0.05,-0.55l-0.02,-0.55l-0.01,-0.31l-0.28,-35.41l-145,0l-0.55,-0.01l-0.54,-0.03l-0.55,-0.05l-0.54,-0.07l-0.54,-0.09l-0.54,-0.11l-0.53,-0.13l-0.53,-0.15l-0.52,-0.16l-0.52,-0.19l-0.5,-0.2l-0.5,-0.23l-0.5,-0.24l-0.48,-0.26l-0.47,-0.27l-0.46,-0.3l-0.45,-0.31l-0.44,-0.33l-0.43,-0.34l-0.42,-0.36l-0.4,-0.37l-0.39,-0.39l-0.37,-0.4l-0.36,-0.41l-0.34,-0.43l-0.33,-0.44l-0.31,-0.45l-0.29,-0.46l-0.28,-0.47l-0.26,-0.49l-0.24,-0.49l-0.22,-0.5l-0.21,-0.5l-0.18,-0.52l-0.17,-0.52l-0.15,-0.53l-0.13,-0.53l-0.11,-0.54l-0.09,-0.54l-0.07,-0.54l-0.05,-0.55l-0.03,-0.54l-0.01,-0.56l0,-66l0.01,-0.55l0.03,-0.54l0.05,-0.55l0.07,-0.54l0.09,-0.54l0.11,-0.54l0.13,-0.53l0.15,-0.53l0.16,-0.52l0.19,-0.52l0.2,-0.5l0.23,-0.5l0.24,-0.5l0.26,-0.48l0.27,-0.47l0.3,-0.46l0.31,-0.45l0.33,-0.44l0.34,-0.43l0.36,-0.42l0.37,-0.4l0.39,-0.39l0.4,-0.37l0.41,-0.36l0.43,-0.34l0.44,-0.33l0.45,-0.31l0.46,-0.29l0.47,-0.28l0.49,-0.26l0.49,-0.24l0.5,-0.22l0.5,-0.21l0.52,-0.18l0.52,-0.17l0.53,-0.15l0.53,-0.13l0.54,-0.11l0.54,-0.09l0.54,-0.07l0.55,-0.05l0.54,-0.03l0.56,-0.01l145,0l0.27,-35.36l0.01,-0.54l0.04,-0.55l0.05,-0.55l0.08,-0.54l0.09,-0.54l0.11,-0.53l0.14,-0.54l0.15,-0.52l0.17,-0.52l0.19,-0.51l0.21,-0.51l0.23,-0.5l0.24,-0.49l0.27,-0.48l0.28,-0.47l0.29,-0.46l0.32,-0.45l0.33,-0.44l0.34,-0.42l0.36,-0.41l0.38,-0.4l0.39,-0.39l0.4,-0.37l0.42,-0.35l0.43,-0.34l0.44,-0.32l0.46,-0.31l0.46,-0.29l0.47,-0.27l0.49,-0.26l0.49,-0.24l0.5,-0.22l0.51,-0.2l0.52,-0.18l0.52,-0.16l0.53,-0.15l0.53,-0.12l0.54,-0.11l0.54,-0.09l0.55,-0.06l0.54,-0.05l0.55,-0.02l0.55,-0.01l0.54,0.01z" fill="#333333"/>
    <path stroke="#333333" id="svg_9" d="m292.51405,-3.28149l0.54,0.03l0.55,0.05l0.54,0.07l0.54,0.09l0.54,0.11l0.53,0.13l0.53,0.15l0.52,0.16l0.52,0.19l0.5,0.2l0.5,0.23l0.5,0.24l0.48,0.26l0.47,0.27l0.46,0.3l0.45,0.31l0.44,0.33l0.43,0.34l0.42,0.36l0.4,0.37l0.2,0.19l150.72,150.72l0.38,0.4l0.36,0.41l0.35,0.42l0.34,0.43l0.32,0.45l0.3,0.45l0.28,0.47l0.27,0.48l0.25,0.48l0.23,0.5l0.22,0.5l0.19,0.52l0.18,0.51l0.16,0.53l0.14,0.53l0.12,0.53l0.1,0.54l0.08,0.54l0.06,0.55l0.04,0.54l0.02,0.55l0,75.56l-0.01,0.55l-0.03,0.54l-0.05,0.55l-0.07,0.54l-0.09,0.54l-0.11,0.54l-0.13,0.53l-0.15,0.53l-0.16,0.52l-0.19,0.52l-0.2,0.5l-0.23,0.5l-0.24,0.5l-0.26,0.48l-0.27,0.47l-0.3,0.46l-0.31,0.45l-0.33,0.44l-0.34,0.43l-0.36,0.42l-0.37,0.4l-0.39,0.39l-0.4,0.37l-0.41,0.36l-0.43,0.34l-0.44,0.33l-0.45,0.31l-0.46,0.29l-0.47,0.28l-0.49,0.26l-0.49,0.24l-0.5,0.22l-0.5,0.21l-0.52,0.18l-0.52,0.17l-0.53,0.15l-0.53,0.13l-0.54,0.11l-0.54,0.09l-0.54,0.07l-0.55,0.05l-0.54,0.03l-0.56,0.01l-2,0l-0.55,-0.01l-0.54,-0.03l-0.55,-0.05l-0.54,-0.07l-0.54,-0.09l-0.54,-0.11l-0.53,-0.13l-0.53,-0.15l-0.52,-0.16l-0.52,-0.19l-0.5,-0.2l-0.5,-0.23l-0.5,-0.24l-0.48,-0.26l-0.47,-0.27l-0.46,-0.3l-0.45,-0.31l-0.44,-0.33l-0.43,-0.34l-0.42,-0.36l-0.4,-0.37l-0.39,-0.39l-0.37,-0.4l-0.36,-0.41l-0.34,-0.43l-0.33,-0.44l-0.31,-0.45l-0.29,-0.46l-0.28,-0.47l-0.26,-0.49l-0.24,-0.49l-0.22,-0.5l-0.21,-0.5l-0.18,-0.52l-0.17,-0.52l-0.15,-0.53l-0.13,-0.53l-0.11,-0.54l-0.09,-0.54l-0.07,-0.54l-0.05,-0.55l-0.03,-0.54l-0.01,-0.56l0,-49l-145,0l-0.55,-0.01l-0.54,-0.03l-0.55,-0.05l-0.54,-0.07l-0.54,-0.09l-0.54,-0.11l-0.53,-0.13l-0.53,-0.15l-0.52,-0.16l-0.52,-0.19l-0.5,-0.2l-0.5,-0.23l-0.5,-0.24l-0.48,-0.26l-0.47,-0.27l-0.46,-0.3l-0.45,-0.31l-0.44,-0.33l-0.43,-0.34l-0.42,-0.36l-0.4,-0.37l-0.39,-0.39l-0.37,-0.4l-0.36,-0.41l-0.34,-0.43l-0.33,-0.44l-0.31,-0.45l-0.29,-0.46l-0.28,-0.47l-0.26,-0.49l-0.24,-0.49l-0.22,-0.5l-0.21,-0.5l-0.18,-0.52l-0.17,-0.52l-0.15,-0.53l-0.13,-0.53l-0.11,-0.54l-0.09,-0.54l-0.07,-0.54l-0.05,-0.55l-0.03,-0.54l-0.01,-0.56l0,-145l-224,0l0,448l241,0l0.55,0.01l0.54,0.03l0.55,0.05l0.54,0.07l0.54,0.09l0.54,0.11l0.53,0.13l0.53,0.15l0.52,0.16l0.52,0.19l0.5,0.2l0.5,0.23l0.5,0.24l0.48,0.26l0.47,0.27l0.46,0.3l0.45,0.31l0.44,0.33l0.43,0.34l0.42,0.36l0.4,0.37l0.39,0.39l0.37,0.4l0.36,0.41l0.34,0.43l0.33,0.44l0.31,0.45l0.29,0.46l0.28,0.47l0.26,0.49l0.24,0.49l0.22,0.5l0.21,0.5l0.18,0.52l0.17,0.52l0.15,0.53l0.13,0.53l0.11,0.54l0.09,0.54l0.07,0.54l0.05,0.55l0.03,0.54l0.01,0.56l0,2l-0.01,0.55l-0.03,0.54l-0.05,0.55l-0.07,0.54l-0.09,0.54l-0.11,0.54l-0.13,0.53l-0.15,0.53l-0.16,0.52l-0.19,0.52l-0.2,0.5l-0.23,0.5l-0.24,0.5l-0.26,0.48l-0.27,0.47l-0.3,0.46l-0.31,0.45l-0.33,0.44l-0.34,0.43l-0.36,0.42l-0.37,0.4l-0.39,0.39l-0.4,0.37l-0.41,0.36l-0.43,0.34l-0.44,0.33l-0.45,0.31l-0.46,0.29l-0.47,0.28l-0.49,0.26l-0.49,0.24l-0.5,0.22l-0.5,0.21l-0.52,0.18l-0.52,0.17l-0.53,0.15l-0.53,0.13l-0.54,0.11l-0.54,0.09l-0.54,0.07l-0.55,0.05l-0.54,0.03l-0.56,0.01l-258,0l-0.55,-0.01l-0.54,-0.03l-0.55,-0.05l-0.54,-0.07l-0.54,-0.09l-0.54,-0.11l-0.53,-0.13l-0.53,-0.15l-0.52,-0.16l-0.52,-0.19l-0.5,-0.2l-0.5,-0.23l-0.5,-0.24l-0.48,-0.26l-0.47,-0.27l-0.46,-0.3l-0.45,-0.31l-0.44,-0.33l-0.43,-0.34l-0.42,-0.36l-0.4,-0.37l-0.39,-0.39l-0.37,-0.4l-0.36,-0.41l-0.34,-0.43l-0.33,-0.44l-0.31,-0.45l-0.29,-0.46l-0.28,-0.47l-0.26,-0.49l-0.24,-0.49l-0.22,-0.5l-0.21,-0.5l-0.18,-0.52l-0.17,-0.52l-0.15,-0.53l-0.13,-0.53l-0.11,-0.54l-0.09,-0.54l-0.07,-0.54l-0.05,-0.55l-0.03,-0.54l-0.01,-0.56l0,-482l0.01,-0.55l0.03,-0.54l0.05,-0.55l0.07,-0.54l0.09,-0.54l0.11,-0.54l0.03,-0.12l0.09,-0.4l0.15,-0.53l0.17,-0.52l0.01,-0.03l0.18,-0.5l0.2,-0.5l0.01,-0.02l0.21,-0.48l0.24,-0.49l0.26,-0.48l0.16,-0.27l0.12,-0.21l0.13,-0.2l0.16,-0.26l0.31,-0.45l0.33,-0.44l0.34,-0.42l0.36,-0.42l0.37,-0.4l0.39,-0.39l0.4,-0.37l0.02,-0.02l0.4,-0.35l0.43,-0.34l0.44,-0.33l0.45,-0.31l0.16,-0.1l0.29,-0.19l0.35,-0.2l0.13,-0.08l0.49,-0.26l0.49,-0.24l0.27,-0.12l0.22,-0.1l0.15,-0.06l0.36,-0.15l0.38,-0.13l0.13,-0.05l0.52,-0.17l0.53,-0.15l0.53,-0.13l0.54,-0.11l0.54,-0.09l0.54,-0.07l0.55,-0.05l0.54,-0.03l0.29,0l0.27,-0.01l267.29,0l0.55,0.01z" fill="#333333"/>
 </g>
</svg>