<svg xmlns="http://www.w3.org/2000/svg" xmlns:xlink="http://www.w3.org/1999/xlink" width="16" height="16" viewBox="0 0 16 16">
  <defs>
    <clipPath id="clip-icon-lock">
      <rect width="16" height="16"/>
    </clipPath>
  </defs>
  <g id="icon-lock" clip-path="url(#clip-icon-lock)">
    <path id="icon-lock-2" data-name="icon-lock" d="M3196.741-448.106a3.284,3.284,0,0,0-3.277,3.277v.936h-.937a.936.936,0,0,0-.937.936v5.618a.936.936,0,0,0,.937.936h8.427a.937.937,0,0,0,.937-.936h0v-5.618a.937.937,0,0,0-.937-.936h-.936v-.936A3.282,3.282,0,0,0,3196.741-448.106Zm0,.936a2.334,2.334,0,0,1,2.341,2.326v.951H3194.4v-.936a2.333,2.333,0,0,1,2.326-2.341Z" transform="translate(-3188.741 450.254)" fill="#5b5b5b"/>
  </g>
</svg>
