<svg xmlns="http://www.w3.org/2000/svg" xmlns:xlink="http://www.w3.org/1999/xlink" width="24" height="24" viewBox="0 0 24 24">
  <defs>
    <clipPath id="clip-Icon-nodetype-2">
      <rect width="24" height="24"/>
    </clipPath>
  </defs>
  <g id="Icon-nodetype-2" clip-path="url(#clip-Icon-nodetype-2)">
    <path id="Path_20" data-name="Path 20" d="M4028.693,2425.047" transform="translate(-4018.199 -2410.047)" fill="#fff" stroke="#494a4a" stroke-miterlimit="10" stroke-width="1.5"/>
    <g id="Group_89" data-name="Group 89" transform="translate(20.597 4.308)">
      <g id="Group_61" data-name="Group 61">
        <rect id="Rectangle_62" data-name="Rectangle 62" width="3.922" height="1.122" transform="translate(-14.757 7.134)" fill="#848484"/>
        <rect id="Rectangle_63" data-name="Rectangle 63" width="3.95" height="1.122" transform="translate(-5.946 7.129)" fill="#848484"/>
        <path id="Path_145-3" data-name="Path 145-3" d="M-14.991,9.4a1.7,1.7,0,0,1-1.7-1.7A1.7,1.7,0,0,1-15,6,1.7,1.7,0,0,1-13.3,7.7v.01A1.7,1.7,0,0,1-14.991,9.4Zm0-2.267a.572.572,0,0,0-.573.573.573.573,0,0,0,.573.573.574.574,0,0,0,.573-.573h0a.573.573,0,0,0-.572-.574h0Z" transform="translate(-0.901 -0.009)" fill="#848484"/>
        <path id="Path_146" data-name="Path 146" d="M-2.164,9.373A1.668,1.668,0,0,1-3.832,7.707,1.667,1.667,0,0,1-2.166,6.039,1.666,1.666,0,0,1-.5,7.7h0A1.668,1.668,0,0,1-2.164,9.373Zm0-2.212A.545.545,0,0,0-2.71,7.7a.546.546,0,0,0,.544.546.545.545,0,0,0,.546-.544h0A.545.545,0,0,0-2.164,7.161Z" transform="translate(0.901 -0.015)" fill="#848484"/>
      </g>
      <g id="Path_57" data-name="Path 57">
        <path id="Path_140" data-name="Path 140" d="M-8.532,6.471a1.22,1.22,0,0,0-1.22,1.222,1.221,1.221,0,0,0,1.223,1.22A1.222,1.222,0,0,0-7.31,7.692,1.222,1.222,0,0,0-8.532,6.471m0-1.687A2.908,2.908,0,0,1-5.625,7.692,2.907,2.907,0,0,1-8.533,10.6,2.908,2.908,0,0,1-11.44,7.692,2.908,2.908,0,0,1-8.533,4.784Z" fill="#494a4a"/>
      </g>
    </g>
  </g>
</svg>
