<svg xmlns="http://www.w3.org/2000/svg" viewBox="0 0 512 512" width="512" height="512">
	<style>
		tspan { white-space:pre }
		.shp0 { fill: #7c7c7c } 
	</style>
	<path id="Layer" fill-rule="evenodd" class="shp0" d="M510.99 209.54L457.97 447.27C452.35 474.26 428.04 494.17 400.07 494.17L69.75 494.17C31.27 494.17 0 462.9 0 424.42L0 65.76C0 39.5 21.38 18 47.76 18L145 18C170.29 18 191.06 37.79 192.64 62.71L413.02 62.71C443.19 62.71 467.75 87.26 467.75 117.44L467.75 146.88C480.33 148.95 491.81 155.31 499.99 165.45C510.13 177.91 514.04 194.03 510.99 209.54ZM35.67 396.08L80.99 188.17C85.88 163.74 107.74 145.9 132.91 145.9L431.95 145.9L431.95 117.44C431.95 107.05 423.52 98.5 413.02 98.5L189.71 98.5C171.75 98.5 157.1 83.84 157.1 65.89C157.1 59.17 151.72 53.79 145 53.79L47.76 53.79C41.05 53.79 35.67 59.17 35.67 65.89L35.67 396.08ZM475.81 202.22C476.78 197.33 475.44 192.08 472.14 188.04C468.84 184.01 463.96 181.69 458.71 181.69L132.79 181.69C124.6 181.69 117.39 187.56 115.81 195.62L58.88 456.92C62.3 458.02 65.84 458.63 69.63 458.63L399.82 458.63C410.94 458.63 420.59 450.81 422.79 439.94L475.81 202.22Z" />
</svg>