<?xml version="1.0" encoding="utf-8"?>
<!-- Generator: Adobe Illustrator 23.0.6, SVG Export Plug-In . SVG Version: 6.00 Build 0)  -->
<svg version="1.1" id="圖層_1" xmlns="http://www.w3.org/2000/svg" xmlns:xlink="http://www.w3.org/1999/xlink" x="0px" y="0px"
	 viewBox="0 0 512 512" style="enable-background:new 0 0 512 512;" xml:space="preserve">
<style type="text/css">
	.st0{fill:#7C7C7C;}
</style>
<path class="st0" d="M465,181.8c-6.7-8.3-16.1-13.5-26.4-15.2v-24.1c0-24.7-20.1-44.8-44.8-44.8H213.4c-1.3-20.4-18.3-36.6-39-36.6
	H94.8c-21.6,0-39.1,17.6-39.1,39.1v63.6v230c0,31.5,25.6,57.1,57.1,57.1h270.4c22.9,0,42.8-16.3,47.4-38.4l43.4-194.6
	C476.5,205.2,473.3,192,465,181.8z M84.9,163.9v-63.6c0-5.5,4.4-9.9,9.9-9.9h79.6c5.5,0,9.9,4.4,9.9,9.9c0,14.7,12,26.7,26.7,26.7
	h182.8c8.6,0,15.5,7,15.5,15.5v23.3H164.5c-20.6,0-38.5,14.6-42.5,34.6L84.9,370.6V163.9z M401.8,406.5c-1.8,8.9-9.7,15.3-18.8,15.3
	H112.7c-3.1,0-6-0.5-8.8-1.4l46.6-213.9c1.3-6.6,7.2-11.4,13.9-11.4h266.8c4.3,0,8.3,1.9,11,5.2c2.7,3.3,3.8,7.6,3,11.6L401.8,406.5
	z"/>
</svg>
