<svg xmlns="http://www.w3.org/2000/svg" width="24" height="23.999" viewBox="0 0 24 23.999">
  <g id="Union_2" data-name="Union 2" transform="translate(891 1289)" fill="#969696">
    <path d="M -878.0004272460938 -1265.650512695312 L -888.0003051757812 -1265.650512695312 C -889.2958984375 -1265.650512695312 -890.3499755859375 -1266.704467773438 -890.3499755859375 -1268.000122070312 L -890.3499755859375 -1278 C -890.3499755859375 -1279.295654296875 -889.2958984375 -1280.349731445312 -888.0003051757812 -1280.349731445312 L -882.9999389648438 -1280.349731445312 L -882.3499145507812 -1280.349731445312 L -882.3499145507812 -1280.999755859375 L -882.3499145507812 -1286.000122070312 C -882.3499145507812 -1287.295776367188 -881.2958984375 -1288.349853515625 -880.000244140625 -1288.349853515625 L -870.0003051757812 -1288.349853515625 C -868.7041625976562 -1288.349853515625 -867.6497192382812 -1287.295776367188 -867.6497192382812 -1286.000122070312 L -867.6497192382812 -1276.000244140625 C -867.6497192382812 -1274.7041015625 -868.7041625976562 -1273.649658203125 -870.0003051757812 -1273.649658203125 L -874.9998168945312 -1273.649658203125 L -875.6498413085938 -1273.649658203125 L -875.6498413085938 -1272.999633789062 L -875.6498413085938 -1268.000122070312 C -875.6498413085938 -1266.704467773438 -876.7042846679688 -1265.650512695312 -878.0004272460938 -1265.650512695312 Z" stroke="none"/>
    <path d="M -878.0004272460938 -1266.300537109375 C -877.0626831054688 -1266.300537109375 -876.2998046875 -1267.06298828125 -876.2998046875 -1268.000122070312 L -876.2998046875 -1272.999633789062 L -876.2998046875 -1274.299682617188 L -874.9998168945312 -1274.299682617188 L -870.0003051757812 -1274.299682617188 C -869.0625610351562 -1274.299682617188 -868.2996826171875 -1275.0625 -868.2996826171875 -1276.000244140625 L -868.2996826171875 -1286.000122070312 C -868.2996826171875 -1286.937377929688 -869.0625610351562 -1287.699829101562 -870.0003051757812 -1287.699829101562 L -880.000244140625 -1287.699829101562 C -880.9374389648438 -1287.699829101562 -881.699951171875 -1286.937377929688 -881.699951171875 -1286.000122070312 L -881.699951171875 -1280.999755859375 L -881.699951171875 -1279.69970703125 L -882.9999389648438 -1279.69970703125 L -888.0003051757812 -1279.69970703125 C -888.9375 -1279.69970703125 -889.7000122070312 -1278.937255859375 -889.7000122070312 -1278 L -889.7000122070312 -1268.000122070312 C -889.7000122070312 -1267.06298828125 -888.9375 -1266.300537109375 -888.0003051757812 -1266.300537109375 L -878.0004272460938 -1266.300537109375 M -878.0004272460938 -1265.00048828125 L -888.0003051757812 -1265.00048828125 C -889.6572265625 -1265.00048828125 -891 -1266.34326171875 -891 -1268.000122070312 L -891 -1278 C -891 -1279.656982421875 -889.6572265625 -1280.999755859375 -888.0003051757812 -1280.999755859375 L -882.9999389648438 -1280.999755859375 L -882.9999389648438 -1286.000122070312 C -882.9999389648438 -1287.656982421875 -881.6571044921875 -1288.999877929688 -880.000244140625 -1288.999877929688 L -870.0003051757812 -1288.999877929688 C -868.3434448242188 -1288.999877929688 -866.9996948242188 -1287.656982421875 -866.9996948242188 -1286.000122070312 L -866.9996948242188 -1276.000244140625 C -866.9996948242188 -1274.343383789062 -868.3434448242188 -1272.999633789062 -870.0003051757812 -1272.999633789062 L -874.9998168945312 -1272.999633789062 L -874.9998168945312 -1268.000122070312 C -874.9998168945312 -1266.34326171875 -876.343505859375 -1265.00048828125 -878.0004272460938 -1265.00048828125 Z" stroke="none" fill="#707070"/>
  </g>
</svg>
