<svg xmlns="http://www.w3.org/2000/svg" width="20.774" height="10.239" viewBox="0 0 20.774 10.239">
  <g id="icon-nodetype-1" transform="translate(0.75 0.75)">
    <circle id="Ellipse_5" data-name="Ellipse 5" cx="1.602" cy="1.602" r="1.602" transform="translate(0 5.535)" fill="none" stroke="#969696" stroke-miterlimit="10" stroke-width="1.5"/>
    <ellipse id="Ellipse_6" data-name="Ellipse 6" cx="1.562" cy="1.562" rx="1.562" ry="1.562" transform="translate(16.15 0)" fill="none" stroke="#969696" stroke-miterlimit="10" stroke-width="1.5"/>
    <line id="Line_3" data-name="Line 3" y1="4.404" x2="13.351" transform="translate(3.124 2.233)" fill="none" stroke="#969696" stroke-miterlimit="10" stroke-width="1.5"/>
    <g id="Path_57" data-name="Path 57" transform="translate(5.363 1.378)" fill="#fff">
      <path d="M 2.991743087768555 5.083483219146729 C 1.838353037834167 5.083483219146729 0.9000030755996704 4.145133018493652 0.9000030755996704 2.991743087768555 C 0.9000030755996704 1.838353037834167 1.838353037834167 0.9000030755996704 2.991743087768555 0.9000030755996704 C 4.145133018493652 0.9000030755996704 5.083483219146729 1.838353037834167 5.083483219146729 2.991743087768555 C 5.083483219146729 4.145133018493652 4.145133018493652 5.083483219146729 2.991743087768555 5.083483219146729 Z" stroke="none"/>
      <path d="M 2.991743087768555 1.800003051757812 C 2.334613084793091 1.800003051757812 1.800003051757812 2.334613084793091 1.800003051757812 2.991743087768555 C 1.800003051757812 3.648873090744019 2.334613084793091 4.183483123779297 2.991743087768555 4.183483123779297 C 3.648873090744019 4.183483123779297 4.183483123779297 3.648873090744019 4.183483123779297 2.991743087768555 C 4.183483123779297 2.334613084793091 3.648873090744019 1.800003051757812 2.991743087768555 1.800003051757812 M 2.991743087768555 2.86102294921875e-06 C 4.644032955169678 2.86102294921875e-06 5.98348331451416 1.339453220367432 5.98348331451416 2.991743087768555 C 5.98348331451416 4.644032955169678 4.644032955169678 5.98348331451416 2.991743087768555 5.98348331451416 C 1.339453220367432 5.98348331451416 2.86102294921875e-06 4.644032955169678 2.86102294921875e-06 2.991743087768555 C 2.86102294921875e-06 1.339453220367432 1.339453220367432 2.86102294921875e-06 2.991743087768555 2.86102294921875e-06 Z" stroke="none" fill="#5c5c5c"/>
    </g>
  </g>
</svg>
