<?xml version="1.0" encoding="UTF-8"?>
<svg width="17px" height="14px" viewBox="0 0 17 14" version="1.1" xmlns="http://www.w3.org/2000/svg" xmlns:xlink="http://www.w3.org/1999/xlink">
    <!-- Generator: Sketch 62 (91390) - https://sketch.com -->
    <title>icons8-layers</title>
    <desc>Created with Sketch.</desc>
    <g id="Page-1" stroke="none" stroke-width="1" fill="none" fill-rule="evenodd" opacity="0.701334635">
        <g id="BS2-Camera-Active" transform="translate(-1055.000000, -54.000000)" fill="#000000" fill-rule="nonzero">
            <g id="icons8-layers" transform="translate(1055.000000, 54.000000)">
                <path d="M8.1666665,0 C7.92537863,0 7.70084207,0.0635932381 7.49964436,0.165305357 L7.48659403,0.165305357 L0.464015142,3.768673 C0.192287875,3.87855179 -3.11750625e-12,4.14346961 -3.11750625e-12,4.45454536 C-3.11750625e-12,4.76339384 0.189457382,5.02831167 0.458214953,5.14041773 L0.458214953,5.15491824 L7.49239459,8.74668543 L7.49819441,8.74378552 C7.7001338,8.84624006 7.9246362,8.90909073 8.1666665,8.90909073 C8.4086968,8.90909073 8.6331992,8.84624006 8.83513859,8.74378552 L8.84093841,8.74668543 L15.8751177,5.15491824 L15.8751177,5.14041773 C16.1438752,5.02831167 16.333333,4.76339384 16.333333,4.45454536 C16.333333,4.14346961 16.1410451,3.87855179 15.8693179,3.768673 L8.84673897,0.165305357 L8.83368864,0.165305357 C8.63249167,0.0635932381 8.40795437,0 8.1666665,0 Z M1.83866,7.47 L0.464015142,8.17472318 C0.192287875,8.28460197 -3.32534e-12,8.54951972 -3.32534e-12,8.86059547 C-3.32534e-12,9.16944395 0.189457382,9.4343617 0.458214953,9.54646776 L0.458214953,9.56096805 L7.49239459,13.1527355 L7.49819441,13.1498356 C7.7001338,13.2522902 7.9246362,13.3151408 8.1666665,13.3151408 C8.4086968,13.3151408 8.6331992,13.2522902 8.83513859,13.1498356 L8.84093841,13.1527355 L15.8751177,9.56096805 L15.8751177,9.54646776 C16.1438752,9.4343617 16.333333,9.16944395 16.333333,8.86059547 C16.333333,8.54951972 16.1410451,8.28460197 15.8693179,8.17472318 L14.4946734,7.47 C12.3379302,8.57398483 9.39420705,10.0761644 9.36005554,10.0887856 C8.97770706,10.2595432 8.5772271,10.3454439 8.1666665,10.3454439 C7.75462105,10.3454439 7.35276093,10.2588357 6.9689276,10.0873357 C6.93626093,10.0754569 3.9961448,8.57472725 1.83866,7.47 Z" id="Shape"></path>
            </g>
        </g>
    </g>
</svg>