<svg xmlns="http://www.w3.org/2000/svg" width="24" height="24" viewBox="0 0 24 24">
  <g id="Group_22" data-name="Group 22" transform="translate(-67 -12)">
    <g id="Group_20" data-name="Group 20" transform="translate(56.714 1.5)">
      <g id="Rectangle_27" data-name="Rectangle 27" transform="translate(18.286 10.5)" fill="#969696" stroke="#707070" stroke-width="1.3">
        <rect width="16" height="16" rx="3" stroke="none"/>
        <rect x="0.65" y="0.65" width="14.7" height="14.7" rx="2.35" fill="none"/>
      </g>
    </g>
    <g id="Group_21" data-name="Group 21" transform="translate(48.714 9.5)">
      <g id="Rectangle_27-2" data-name="Rectangle 27" transform="translate(18.286 10.5)" fill="#969696" stroke="#707070" stroke-width="1.3">
        <rect width="16" height="16" rx="3" stroke="none"/>
        <rect x="0.65" y="0.65" width="14.7" height="14.7" rx="2.35" fill="none"/>
      </g>
    </g>
    <g id="Intersection_4" data-name="Intersection 4" transform="translate(1071 1301)" fill="#fff">
      <path d="M -988.6502685546875 -1273.649658203125 L -992.9996948242188 -1273.649658203125 C -994.2958374023438 -1273.649658203125 -995.3502807617188 -1274.7041015625 -995.3502807617188 -1276.000244140625 L -995.3502807617188 -1280.349731445312 L -990.9999389648438 -1280.349731445312 C -989.7042846679688 -1280.349731445312 -988.6502685546875 -1279.295654296875 -988.6502685546875 -1278 L -988.6502685546875 -1273.649658203125 Z" stroke="none"/>
      <path d="M -989.3002319335938 -1274.299682617188 L -989.3002319335938 -1278 C -989.3002319335938 -1278.937255859375 -990.062744140625 -1279.69970703125 -990.9999389648438 -1279.69970703125 L -994.7003173828125 -1279.69970703125 L -994.7003173828125 -1276.000244140625 C -994.7003173828125 -1275.0625 -993.9374389648438 -1274.299682617188 -992.9996948242188 -1274.299682617188 L -989.3002319335938 -1274.299682617188 M -988.000244140625 -1272.999633789062 L -992.9996948242188 -1272.999633789062 C -994.6566162109375 -1272.999633789062 -996.0003051757812 -1274.343383789062 -996.0003051757812 -1276.000244140625 L -996.0003051757812 -1280.999755859375 L -990.9999389648438 -1280.999755859375 C -989.343017578125 -1280.999755859375 -988.000244140625 -1279.656982421875 -988.000244140625 -1278 L -988.000244140625 -1272.999633789062 Z" stroke="none" fill="#707070"/>
    </g>
  </g>
</svg>
