<svg xmlns="http://www.w3.org/2000/svg" width="17.644" height="17.237" viewBox="0 0 17.644 17.237">
  <path id="Path_68" data-name="Path 68" d="M3160.933-460.338v-1.628a.534.534,0,0,0-.531-.537h-1.192a.533.533,0,0,1-.514-.4,6.842,6.842,0,0,0-.658-1.636.541.541,0,0,1,.086-.645l.868-.879a.541.541,0,0,0,0-.76l-1.138-1.151a.527.527,0,0,0-.751,0l-.835.844a.527.527,0,0,1-.65.08,6.721,6.721,0,0,0-1.707-.739.535.535,0,0,1-.39-.517v-.923a.534.534,0,0,0-.531-.537h-1.61a.534.534,0,0,0-.531.537v.884a.534.534,0,0,1-.4.52,6.734,6.734,0,0,0-1.828.766.525.525,0,0,1-.646-.082l-.786-.8a.527.527,0,0,0-.751,0l-1.139,1.151a.541.541,0,0,0,0,.76l.813.822a.541.541,0,0,1,.085.647,6.9,6.9,0,0,0-.669,1.655.532.532,0,0,1-.513.4h-1.192a.535.535,0,0,0-.531.537v1.628a.534.534,0,0,0,.531.537h1.19a.531.531,0,0,1,.513.4,6.856,6.856,0,0,0,.751,1.8.541.541,0,0,1-.08.656l-.818.827a.541.541,0,0,0,0,.76l1.138,1.151a.528.528,0,0,0,.752,0l.852-.861a.526.526,0,0,1,.637-.087,6.706,6.706,0,0,0,1.69.685.536.536,0,0,1,.4.521v.884a.534.534,0,0,0,.531.537h1.61a.534.534,0,0,0,.531-.537v-.923a.537.537,0,0,1,.392-.518,6.713,6.713,0,0,0,1.573-.66.526.526,0,0,1,.637.088l.9.91a.527.527,0,0,0,.752,0l1.138-1.151a.542.542,0,0,0,0-.76l-.874-.884a.541.541,0,0,1-.08-.655,6.884,6.884,0,0,0,.739-1.78.531.531,0,0,1,.513-.4h1.191A.534.534,0,0,0,3160.933-460.338Zm-4.57-.9v.255l0,.082-.006.083-.008.083-.009.083-.011.083-.013.082-.014.083-.016.083-.017.083-.02.083-.02.082-.022.083-.023.083-.026.078-.027.078-.029.077-.03.076-.032.075-.032.074-.034.074-.036.073-.037.073-.039.072-.04.071-.041.069-.043.071-.044.068-.045.067-.046.066-.047.065-.049.064-.05.064-.051.063-.052.062-.054.06-.055.059-.056.059-.047.048-.021.02-.054.048-.059.055-.061.054-.061.053-.062.052-.063.05-.065.049-.065.048-.067.047-.067.046-.069.044-.069.043-.07.042-.071.04-.072.04-.072.038-.074.037-.074.036-.075.034-.076.032-.077.031-.077.03-.082.028-.082.026-.081.026-.082.024-.082.022-.082.021-.082.019-.082.017-.082.016-.082.015-.082.012-.082.012-.082.009-.086.008-.087.006-.087,0h-.351l-.087,0-.087-.006-.086-.008L3151.6-457l-.081-.011-.082-.012-.082-.014-.081-.016-.082-.017-.082-.019-.082-.021-.082-.022-.082-.023-.082-.026-.081-.026-.082-.028-.078-.03-.076-.031-.076-.032-.076-.034-.074-.035-.074-.036-.073-.038-.072-.039-.071-.04-.07-.041-.07-.043-.068-.045-.067-.046-.067-.047-.065-.048-.064-.049-.063-.05-.062-.052-.062-.053-.06-.054-.06-.055-.059-.056-.057-.057-.057-.059-.055-.059-.053-.06-.054-.061-.051-.063-.049-.063-.049-.065-.048-.065-.047-.066-.046-.067-.044-.068-.043-.069-.042-.069-.04-.071-.038-.071-.037-.073-.036-.073-.034-.073-.034-.074-.031-.075-.03-.076-.029-.077-.028-.078-.026-.078-.024-.083-.023-.083-.021-.082-.019-.083-.019-.082-.016-.083-.015-.082-.013-.082-.011-.083-.01-.083-.008-.083-.006-.082,0-.068c0-.009,0-.019,0-.029v-.323l0-.082.006-.083.007-.082.01-.082.011-.083.013-.082.015-.083.016-.082.017-.082.02-.083.02-.082.022-.082.023-.083.026-.078.02-.058a.34.34,0,0,1,.015-.039l.027-.059.03-.076.031-.075.033-.074.034-.074.021-.054a.4.4,0,0,1,.019-.04l.027-.053.038-.072.04-.07.042-.07.042-.069.044-.068.045-.067.046-.066.049-.065.049-.064.05-.064.052-.063.052-.061.053-.06.055-.059.055-.059.057-.058.059-.056.06-.055.06-.054.061-.053.062-.052.063-.05.065-.049.065-.048.066-.047.068-.045.069-.045.069-.043.07-.042.071-.04.072-.04.073-.038.074-.037.074-.035.076-.034.076-.033.077-.031.077-.03.082-.028.081-.027.082-.026.082-.024.082-.022.082-.021.081-.019.082-.017.082-.016.082-.014.082-.013.082-.011.086-.01.085-.007.087-.007.087,0h.087v0h.274l.086,0,.087.006.086.007.082.009.082.011.082.012.082.014.081.016.082.017.082.019.081.021.082.022.082.023.081.026.082.026.082.028.077.03.077.031.076.032.078.035.074.035.073.036.072.038.069.037.071.04.071.041.069.043.069.044.068.046.067.047.066.048.064.049.064.05.063.051.062.053.061.054.06.055.058.056.057.057.056.059.055.059.053.06.053.061.052.064.051.063.049.065.048.065.047.066.045.067.044.068.044.069.042.07.04.07.028.046.016.028.03.058.036.073.034.074.032.074.032.075.03.076.029.077.027.078.026.078.023.082.023.083.021.082.02.082.018.093.016.083.015.082.013.082.011.083.01.083.008.083.007.082,0,.082Z" transform="translate(-3143.29 469.768)" fill="#5b5b5b"/>
</svg>
