<svg width="511.626" height="511.626" xmlns="http://www.w3.org/2000/svg">

 <g>
  <title>background</title>
  <rect fill="none" id="canvas_background" height="602" width="802" y="-1" x="-1"/>
 </g>
 <g>
  <title>Layer 1</title>
  <g stroke="null" opacity="0.97" id="svg_70">
   <g stroke="null" transform="matrix(1.1776328323123333,0,0,1.1776328323123333,-92612.16087126781,-92867.16572558467) " id="svg_68" class="layer">
    <title stroke="null" fill="#000000" transform="translate(0.8491610884666443,0) translate(-0.8491610884666443,0) translate(0,0.8491610884666443) translate(0,-0.8491610884666443) translate(0,-0.8491610884666443) translate(0,0.8491610884666443) translate(0,0.8491610884666443) translate(0,0.8491610884666443) translate(0,0.8491610884666443) translate(0,0.8491610884666443) translate(0,0.8491610884666443) translate(0,0.8491610884666443) translate(0,0.8491610884666443) translate(0,0.8491610884666443) translate(0,0.8491610884666443) translate(0,0.8491610884666443) translate(0,0.8491610884666443) translate(0,0.8491610884666443) translate(0,0.8491610884666443) translate(0,0.8491610884666443) translate(0,0.8491610884666443) translate(0,0.8491610884666443) translate(0,0.8491610884666443) translate(0,0.8491610884666443) translate(0,0.8491610884666443) translate(0,0.8491610884666443) translate(-0.8491610884666443,0) translate(0.8491610884666443,0) translate(1.4551915228366852e-11,0.9747093915939331) translate(-0.9747093915939331,0) translate(0.9747093915939331,0) translate(-0.9747093915939331,0) translate(0.9747093915939331,0) translate(-14.620640754699707,68.22966003417969) translate(-283.6219177246094,-180.33763122558594) translate(78738.3359375,0) translate(0,78930.203125) ">圖層 2</title>
    <filter stroke="null" fill="#000000" transform="translate(0.8491610884666443,0) translate(-0.8491610884666443,0) translate(0,0.8491610884666443) translate(0,-0.8491610884666443) translate(0,-0.8491610884666443) translate(0,0.8491610884666443) translate(0,0.8491610884666443) translate(0,0.8491610884666443) translate(0,0.8491610884666443) translate(0,0.8491610884666443) translate(0,0.8491610884666443) translate(0,0.8491610884666443) translate(0,0.8491610884666443) translate(0,0.8491610884666443) translate(0,0.8491610884666443) translate(0,0.8491610884666443) translate(0,0.8491610884666443) translate(0,0.8491610884666443) translate(0,0.8491610884666443) translate(0,0.8491610884666443) translate(0,0.8491610884666443) translate(0,0.8491610884666443) translate(0,0.8491610884666443) translate(0,0.8491610884666443) translate(0,0.8491610884666443) translate(0,0.8491610884666443) translate(-0.8491610884666443,0) translate(0.8491610884666443,0) translate(1.4551915228366852e-11,0.9747093915939331) translate(-0.9747093915939331,0) translate(0.9747093915939331,0) translate(-0.9747093915939331,0) translate(0.9747093915939331,0) translate(-14.620640754699707,68.22966003417969) translate(-283.6219177246094,-180.33763122558594) translate(78738.3359375,0) translate(0,78930.203125) " id="svg_66" filterUnits="objectBoundingBox" primitiveUnits="userSpaceOnUse" color-interpolation-filters="sRGB"/>
    <rect stroke="#000000" x="339116.04527" y="282267.70286" width="2059.57415" height="122.98202" id="svg_65" fill="#000000" rx="70" transform="rotate(30 78862.39062500003,79050.328125) matrix(0.23289897852833175,0,0,0.2798638742419104,-357.22513727424786,36.58998442000063) "/>
    <path stroke="#000000" id="svg_64" d="m78861.46873,78936.87793l1.58425,0.01572l1.58225,0.02622l1.58025,0.0367l1.57823,0.0472l1.57623,0.05767l1.57423,0.06817l1.57224,0.07866l1.57024,0.08913l1.56824,0.09963l1.56622,0.11011l1.56424,0.12061l1.56222,0.13108l1.56023,0.14158l1.55823,0.15205l1.55623,0.16255l1.55423,0.17303l1.55221,0.18353l1.55023,0.194l1.54821,0.2045l1.54623,0.21498l1.54422,0.22546l1.54222,0.23596l1.54023,0.24644l1.53822,0.25694l1.53622,0.26741l1.53422,0.2779l1.53222,0.28838l1.53022,0.29888l1.52822,0.30936l1.52622,0.31984l1.52422,0.33033l1.52222,0.34082l1.52022,0.35131l1.51821,0.36179l1.51622,0.37228l1.51422,0.38277l1.51222,0.39325l1.51023,0.40373l1.50823,0.41423l1.50623,0.42471l1.50423,0.4352l1.50223,0.44567l1.50023,0.45617l1.49823,0.46665l1.49624,0.47715l1.49423,0.48762l1.49223,0.49811l1.49024,0.5086l1.48823,0.5191l1.48625,0.52957l1.48423,0.54006l1.48225,0.55054l1.48025,0.56102l1.47825,0.57152l1.47625,0.582l1.47425,0.59249l1.47226,0.60296l1.47025,0.61346l1.46826,0.62394l1.46626,0.63442l1.46427,0.64493l1.46227,0.6554l1.46027,0.66589l1.45828,0.67637l1.45627,0.68686l1.45428,0.69733l1.45228,0.70783l1.45028,0.71832l1.44828,0.72879l1.4463,0.73929l1.4443,0.74977l1.4423,0.76025l1.4403,0.77074l1.4383,0.78123l1.43631,0.79171l1.43431,0.8022l1.43231,0.81268l1.43032,0.82318l1.42833,0.83365l1.42358,0.84223l1.41631,0.84901l1.40903,0.85581l1.40177,0.86259l1.39447,0.86939l1.3872,0.87617l1.37993,0.88297l1.37266,0.88977l1.36538,0.89654l1.35809,0.90334l1.35083,0.91013l1.34355,0.91692l1.33627,0.92371l1.329,0.93051l1.32173,0.93729l1.31444,0.94408l1.30717,0.95088l1.2999,0.95767l1.29261,0.96446l1.28533,0.97124l1.27807,0.97803l1.27078,0.98483l1.26352,0.99162l1.25623,0.99841l1.24896,1.00521l1.24169,1.01198l1.2344,1.01878l1.22713,1.02557l1.21986,1.03237l1.21257,1.03914l1.2053,1.04594l1.19803,1.05273l1.19073,1.05952l1.18347,1.06632l1.17619,1.07309l1.1689,1.07989l1.16164,1.08668l1.15436,1.09348l1.14707,1.10026l1.13981,1.10706l1.13253,1.11384l1.12524,1.12063l1.11798,1.12743l1.11069,1.13421l1.10343,1.14101l1.09613,1.14779l1.08887,1.15458l1.08158,1.16138l1.0743,1.16816l1.06703,1.17496l1.05976,1.18174l1.05247,1.18853l1.0452,1.19533l1.03792,1.20211l1.03064,1.20891l1.02337,1.21569l1.01608,1.22248l1.00881,1.22927l1.00153,1.23607l0.99424,1.24284l0.98698,1.24964l0.97969,1.25643l0.97241,1.26322l0.96515,1.27002l0.95786,1.27679l0.95058,1.28359l0.94329,1.29038l0.93603,1.29717l0.92875,1.30396l0.92146,1.31074l0.9142,1.31754l0.90691,1.32432l0.89963,1.33112l0.89235,1.33791l0.88508,1.34469l0.8778,1.35148l0.87051,1.35828l0.86325,1.36505l0.85596,1.37186l0.84868,1.37864l0.91708,1.68732l0.82052,1.68249l0.72399,1.67768l0.62745,1.67285l0.53094,1.66806l0.43443,1.66324l0.33793,1.65844l0.24144,1.65366l0.14497,1.64888l0.04852,1.64408l-0.04826,1.6448l-0.14476,1.64933l-0.24129,1.65389l-0.33781,1.65848l-0.43434,1.66311l-0.53087,1.66777l-0.62742,1.67247l-0.72398,1.6772l-0.82051,1.68196l-0.91708,1.68676l-0.84852,1.38459l-0.85579,1.37769l-0.86308,1.37078l-0.87037,1.36388l-0.87766,1.35699l-0.88494,1.35009l-0.89223,1.34318l-0.89952,1.33627l-0.9068,1.32939l-0.91409,1.32248l-0.92138,1.31557l-0.92866,1.30869l-0.93595,1.30177l-0.94324,1.29488l-0.95051,1.28797l-0.95781,1.28108l-0.96508,1.27417l-0.97237,1.26727l-0.97965,1.26036l-0.98694,1.25347l-0.99422,1.24657l-1.00151,1.23966l-1.00878,1.23276l-1.01608,1.22587l-1.02335,1.21896l-1.03063,1.21205l-1.03792,1.20515l-1.04521,1.19826l-1.05247,1.19136l-1.05976,1.18444l-1.06705,1.17755l-1.07433,1.17064l-1.08161,1.16375l-1.08889,1.15684l-1.09616,1.14993l-1.10345,1.14305l-1.11073,1.13612l-1.11802,1.12924l-1.12528,1.12232l-1.13257,1.11544l-1.13985,1.10853l-1.14713,1.10162l-1.1544,1.09472l-1.1617,1.08782l-1.16896,1.08091l-1.17625,1.074l-1.18353,1.06711l-1.19079,1.06021l-1.19808,1.0533l-1.20536,1.04639l-1.21263,1.0395l-1.21991,1.0326l-1.22719,1.02569l-1.23446,1.01878l-1.24174,1.01189l-1.24902,1.00499l-1.25628,0.99808l-1.26357,0.99117l-1.27085,0.98427l-1.27811,0.97738l-1.2854,0.97045l-1.29267,0.96357l-1.29994,0.95666l-1.30722,0.94975l-1.3145,0.94284l-1.32177,0.93596l-1.32904,0.92904l-1.33631,0.92214l-1.34359,0.91525l-1.35087,0.90834l-1.35813,0.90143l-1.36541,0.89453l-1.37268,0.88762l-1.37995,0.88071l-1.38723,0.87383l-1.3945,0.86691l-1.40178,0.86001l-1.40904,0.8531l-1.41631,0.8462l-1.42358,0.83929l-1.42829,0.83057l-1.43029,0.82014l-1.43229,0.80967l-1.43427,0.79924l-1.43629,0.78878l-1.43827,0.77833l-1.44027,0.76787l-1.44227,0.75742l-1.44427,0.74698l-1.44626,0.73653l-1.44827,0.72607l-1.45026,0.71563l-1.45225,0.70517l-1.45425,0.69473l-1.45625,0.68427l-1.45825,0.67383l-1.46025,0.66337l-1.46224,0.65292l-1.46425,0.64248l-1.46624,0.63203l-1.46825,0.62158l-1.47024,0.61112l-1.47224,0.60068l-1.47425,0.59023l-1.47623,0.57979l-1.47823,0.56933l-1.48023,0.55888l-1.48223,0.54843l-1.48423,0.53799l-1.48623,0.52754l-1.48823,0.51708l-1.49022,0.50665l-1.49223,0.49619l-1.49423,0.48574l-1.49623,0.4753l-1.49823,0.46485l-1.50023,0.45439l-1.50223,0.44396l-1.50423,0.4335l-1.50623,0.42305l-1.50823,0.41262l-1.51023,0.40216l-1.51222,0.39172l-1.51422,0.38126l-1.51622,0.37082l-1.51822,0.36038l-1.52022,0.34992l-1.52224,0.33949l-1.52422,0.32904l-1.52623,0.31858l-1.52822,0.30813l-1.53023,0.2977l-1.53223,0.28724l-1.53423,0.27679l-1.53623,0.26636l-1.53823,0.2559l-1.54023,0.24546l-1.54224,0.23501l-1.54423,0.22458l-1.54624,0.21412l-1.54824,0.20367l-1.55024,0.19324l-1.55224,0.18278l-1.55424,0.17235l-1.55625,0.16189l-1.55824,0.15146l-1.56025,0.141l-1.56225,0.13056l-1.56425,0.1201l-1.56626,0.10967l-1.56825,0.09922l-1.57026,0.08878l-1.57226,0.07833l-1.57428,0.06789l-1.57626,0.05745l-1.57827,0.04699l-1.58027,0.03655l-1.58227,0.02612l-1.58427,0.01567l-1.58629,0.00522l-1.58625,-0.00524l-1.58425,-0.01572l-1.58225,-0.0262l-1.58025,-0.03668l-1.57825,-0.04716l-1.57625,-0.05763l-1.57425,-0.06813l-1.57225,-0.07859l-1.57025,-0.08908l-1.56824,-0.09956l-1.56625,-0.11005l-1.56425,-0.12051l-1.56224,-0.13101l-1.56025,-0.14149l-1.55824,-0.15197l-1.55625,-0.16245l-1.55424,-0.17293l-1.55225,-0.18342l-1.55024,-0.19391l-1.54826,-0.20438l-1.54624,-0.21487l-1.54424,-0.22534l-1.54226,-0.23584l-1.54024,-0.24631l-1.53826,-0.2568l-1.53625,-0.26729l-1.53425,-0.27776l-1.53226,-0.28826l-1.53025,-0.29873l-1.52825,-0.30922l-1.52626,-0.31971l-1.52425,-0.3302l-1.52225,-0.34067l-1.52026,-0.35117l-1.51825,-0.36166l-1.51626,-0.37213l-1.51425,-0.38262l-1.51227,-0.39312l-1.51025,-0.40359l-1.50827,-0.41409l-1.50625,-0.42456l-1.50427,-0.43505l-1.50225,-0.44555l-1.50027,-0.45602l-1.49827,-0.46653l-1.49626,-0.47701l-1.49427,-0.4875l-1.49227,-0.49797l-1.49027,-0.50847l-1.48827,-0.51897l-1.48627,-0.52945l-1.48427,-0.53993l-1.48227,-0.55043l-1.48027,-0.56092l-1.47829,-0.57141l-1.47628,-0.58189l-1.47428,-0.5924l-1.47229,-0.60288l-1.47028,-0.61337l-1.46829,-0.62386l-1.46629,-0.63436l-1.46428,-0.64484l-1.46229,-0.65534l-1.46029,-0.66582l-1.45829,-0.67632l-1.45629,-0.68682l-1.45431,-0.69731l-1.4523,-0.70779l-1.4503,-0.71828l-1.44831,-0.72879l-1.44631,-0.73927l-1.4443,-0.74977l-1.44231,-0.76027l-1.44031,-0.77075l-1.43831,-0.78124l-1.43631,-0.79174l-1.43433,-0.80224l-1.43231,-0.81273l-1.43033,-0.82322l-1.42832,-0.83372l-1.42372,-0.84205l-1.41644,-0.84886l-1.40916,-0.85564l-1.40187,-0.86243l-1.3946,-0.86924l-1.38732,-0.87603l-1.38004,-0.88283l-1.37275,-0.88962l-1.36548,-0.89643l-1.35819,-0.90321l-1.35092,-0.91002l-1.34363,-0.91681l-1.33635,-0.92361l-1.32906,-0.9304l-1.32179,-0.9372l-1.31451,-0.944l-1.30723,-0.95079l-1.29994,-0.95759l-1.29267,-0.96439l-1.28539,-0.97118l-1.27811,-0.97796l-1.27082,-0.98478l-1.26354,-0.99155l-1.25627,-0.99837l-1.24898,-1.00515l-1.2417,-1.01194l-1.23442,-1.01874l-1.22715,-1.02553l-1.21986,-1.03233l-1.21258,-1.03913l-1.2053,-1.04592l-1.19801,-1.05272l-1.19073,-1.05951l-1.18346,-1.06629l-1.17618,-1.07309l-1.16889,-1.07989l-1.16161,-1.08668l-1.15434,-1.09347l-1.14705,-1.10027l-1.13977,-1.10706l-1.13249,-1.11386l-1.12522,-1.12065l-1.11792,-1.12745l-1.11065,-1.13423l-1.10337,-1.14102l-1.09608,-1.14782l-1.08882,-1.15461l-1.08151,-1.1614l-1.07425,-1.1682l-1.06696,-1.175l-1.0597,-1.18177l-1.05239,-1.18857l-1.04513,-1.19537l-1.03784,-1.20216l-1.03056,-1.20895l-1.02328,-1.21573l-1.01599,-1.22254l-1.00872,-1.22932l-1.00144,-1.23611l-0.99415,-1.24291l-0.98689,-1.2497l-0.9796,-1.25649l-0.9723,-1.26327l-0.96504,-1.27007l-0.95775,-1.27686l-0.95047,-1.28365l-0.94318,-1.29045l-0.93592,-1.29722l-0.92863,-1.30402l-0.92134,-1.31082l-0.91408,-1.3176l-0.90679,-1.3244l-0.89951,-1.33117l-0.89222,-1.33797l-0.88495,-1.34477l-0.87766,-1.35155l-0.87037,-1.35835l-0.86311,-1.36512l-0.85582,-1.37192l-0.84854,-1.37871l-0.91685,-1.68659l-0.82039,-1.68196l-0.72391,-1.67732l-0.62743,-1.67266l-0.53093,-1.66799l-0.43443,-1.6633l-0.33791,-1.65859l-0.24138,-1.65387l-0.14483,-1.64913l-0.04829,-1.64437l0.04829,-1.64434l0.14483,-1.64907l0.24138,-1.65382l0.33791,-1.65857l0.43443,-1.66334l0.53093,-1.6681l0.62743,-1.6729l0.72391,-1.67769l0.82039,-1.68249l0.91685,-1.68732l0.84854,-1.37864l0.85582,-1.37186l0.86311,-1.36505l0.87037,-1.35828l0.87766,-1.35148l0.88495,-1.34469l0.89222,-1.33791l0.89951,-1.33112l0.90679,-1.32432l0.91408,-1.31754l0.92134,-1.31074l0.92863,-1.30396l0.93591,-1.29717l0.9432,-1.29038l0.95047,-1.28359l0.95775,-1.27679l0.96503,-1.27002l0.97232,-1.26322l0.97958,-1.25643l0.98687,-1.24964l0.99416,-1.24284l1.00143,-1.23607l1.00872,-1.22927l1.01599,-1.22248l1.02328,-1.21569l1.03056,-1.20891l1.03784,-1.20211l1.04511,-1.19533l1.05239,-1.18853l1.05968,-1.18174l1.06696,-1.17496l1.07424,-1.16816l1.08153,-1.16138l1.08879,-1.15458l1.09608,-1.14779l1.10337,-1.14101l1.11063,-1.13421l1.11792,-1.12743l1.1252,-1.12063l1.13248,-1.11384l1.13977,-1.10706l1.14703,-1.10026l1.15432,-1.09348l1.16161,-1.08668l1.16888,-1.07989l1.17617,-1.07309l1.18344,-1.06632l1.19072,-1.05952l1.19801,-1.05273l1.20527,-1.04594l1.21257,-1.03914l1.21986,-1.03237l1.22712,-1.02557l1.23441,-1.01878l1.24169,-1.01198l1.24896,-1.00521l1.25624,-0.99841l1.26353,-0.99162l1.27081,-0.98483l1.27808,-0.97803l1.28536,-0.97124l1.29265,-0.96446l1.29992,-0.95767l1.30721,-0.95088l1.3145,-0.94408l1.32176,-0.93729l1.32905,-0.93051l1.33633,-0.92371l1.3436,-0.91692l1.35088,-0.91013l1.35817,-0.90334l1.36545,-0.89654l1.37273,-0.88977l1.38,-0.88297l1.38729,-0.87617l1.39457,-0.86939l1.40185,-0.86259l1.40912,-0.85581l1.4164,-0.84901l1.42369,-0.84223l1.42832,-0.83378l1.43033,-0.8233l1.43231,-0.81281l1.43433,-0.80231l1.43631,-0.79182l1.43831,-0.78134l1.44031,-0.77084l1.44231,-0.76035l1.44431,-0.74986l1.4463,-0.73936l1.44831,-0.72887l1.4503,-0.71837l1.4523,-0.7079l1.45431,-0.6974l1.45629,-0.6869l1.45829,-0.67643l1.46029,-0.66593l1.46229,-0.65544l1.46428,-0.64495l1.46629,-0.63445l1.46829,-0.62396l1.47028,-0.61348l1.47229,-0.60299l1.47428,-0.59249l1.47628,-0.58202l1.47829,-0.57152l1.48027,-0.56103l1.48227,-0.55053l1.48427,-0.54006l1.48627,-0.52956l1.48827,-0.51908l1.49027,-0.50858l1.49227,-0.49809l1.49427,-0.48759l1.49626,-0.47712l1.49827,-0.46663l1.50027,-0.45613l1.50225,-0.44566l1.50427,-0.43516l1.50627,-0.42467l1.50825,-0.41419l1.51027,-0.4037l1.51225,-0.39321l1.51426,-0.38272l1.51625,-0.37224l1.51825,-0.36175l1.52026,-0.35126l1.52225,-0.34076l1.52425,-0.33029l1.52626,-0.3198l1.52825,-0.30932l1.53026,-0.29882l1.53225,-0.28834l1.53425,-0.27786l1.53626,-0.26737l1.53824,-0.25688l1.54024,-0.2464l1.54226,-0.23591l1.54424,-0.22542l1.54624,-0.21493l1.54826,-0.20445l1.55024,-0.19397l1.55225,-0.18347l1.55424,-0.173l1.55625,-0.1625l1.55824,-0.15203l1.56025,-0.14154l1.56224,-0.13105l1.56425,-0.12057l1.56625,-0.11009l1.56824,-0.09959l1.57025,-0.08912l1.57225,-0.07863l1.57425,-0.06814l1.57625,-0.05766l1.57825,-0.04718l1.58025,-0.03668l1.58225,-0.02621l1.58425,-0.01572l1.58625,-0.00525l1.58616,0.00527zm-3.49646,29.04042l-1.65952,0.05041l-1.65095,0.08361l-1.64203,0.11649l-1.63279,0.14905l-1.62321,0.1813l-1.61335,0.21319l-1.60312,0.24478l-1.59261,0.27605l-1.58174,0.30699l-1.57056,0.33759l-1.55907,0.3679l-1.54724,0.39786l-1.53508,0.4275l-1.5226,0.45681l-1.5098,0.48583l-1.49669,0.51448l-1.48323,0.54284l-1.46946,0.57085l-1.45537,0.59857l-1.44095,0.62594l-1.42621,0.65298l-1.41114,0.67972l-1.39574,0.70613l-1.38003,0.73219l-1.36399,0.75796l-1.34763,0.78339l-1.33094,0.8085l-1.31393,0.8333l-1.2966,0.85774l-1.27894,0.88188l-1.26096,0.9057l-1.24265,0.92919l-1.22402,0.95235l-1.20506,0.97519l-1.18578,0.9977l-1.16618,1.0199l-1.14627,1.04178l-1.126,1.06331l-1.10544,1.08453l-1.08453,1.10544l-1.06331,1.126l-1.04177,1.14626l-1.0199,1.16618l-0.99771,1.1858l-0.97519,1.20506l-0.95235,1.22402l-0.92919,1.24265l-0.9057,1.26096l-0.88188,1.27893l-0.85774,1.2966l-0.83328,1.31394l-0.8085,1.33094l-0.78339,1.34763l-0.75797,1.36399l-0.73219,1.38003l-0.70612,1.39574l-0.67972,1.41114l-0.65299,1.42621l-0.62594,1.44095l-0.59856,1.45536l-0.57086,1.46947l-0.54284,1.48323l-0.51448,1.49668l-0.48581,1.50982l-0.45683,1.5226l-0.4275,1.53508l-0.39786,1.54724l-0.36789,1.55906l-0.33761,1.57058l-0.30698,1.58174l-0.27605,1.5926l-0.24479,1.60314l-0.21319,1.61334l-0.18128,1.62323l-0.14906,1.63279l-0.11649,1.64203l-0.08361,1.65093l-0.05041,1.65953l-0.01687,1.66779l0.01687,1.6678l0.05041,1.65952l0.08361,1.65095l0.11649,1.64203l0.14906,1.63278l0.18128,1.62323l0.21319,1.61335l0.24479,1.60312l0.27605,1.59261l0.30698,1.58174l0.33761,1.57056l0.36789,1.55907l0.39786,1.54724l0.4275,1.53508l0.45683,1.5226l0.48581,1.5098l0.51448,1.49669l0.54284,1.48323l0.57086,1.46946l0.59856,1.45537l0.62594,1.44095l0.65299,1.42621l0.67972,1.41114l0.70612,1.39574l0.73219,1.38003l0.75797,1.36399l0.78339,1.34763l0.8085,1.33094l0.83328,1.31393l0.85774,1.2966l0.88188,1.27894l0.9057,1.26096l0.92919,1.24265l0.95235,1.22402l0.97519,1.20506l0.99771,1.18578l1.0199,1.16618l1.04177,1.14627l1.06331,1.126l1.08453,1.10544l1.10544,1.08453l1.126,1.06331l1.14627,1.04177l1.16618,1.0199l1.18578,0.99771l1.20506,0.97519l1.22402,0.95235l1.24265,0.92919l1.26096,0.9057l1.27894,0.88188l1.2966,0.85774l1.31393,0.83328l1.33094,0.8085l1.34763,0.78339l1.36399,0.75797l1.38003,0.73219l1.39574,0.70612l1.41114,0.67972l1.42621,0.65299l1.44095,0.62594l1.45537,0.59856l1.46946,0.57086l1.48323,0.54284l1.49669,0.51448l1.5098,0.48581l1.5226,0.45683l1.53508,0.4275l1.54724,0.39786l1.55907,0.36789l1.57056,0.33761l1.58174,0.30698l1.59261,0.27605l1.60312,0.24479l1.61335,0.21319l1.62321,0.18128l1.63279,0.14905l1.64203,0.1165l1.65095,0.08361l1.65952,0.05041l1.6678,0.01687l1.66779,-0.01687l1.65953,-0.05041l1.65093,-0.08361l1.64203,-0.1165l1.63279,-0.14905l1.62323,-0.18128l1.61334,-0.21319l1.60314,-0.24479l1.5926,-0.27605l1.58174,-0.30698l1.57058,-0.33761l1.55906,-0.36789l1.54724,-0.39786l1.53508,-0.4275l1.5226,-0.45683l1.50982,-0.48581l1.49668,-0.51448l1.48323,-0.54284l1.46947,-0.57086l1.45536,-0.59856l1.44095,-0.62594l1.42621,-0.65299l1.41114,-0.67972l1.39574,-0.70612l1.38003,-0.73219l1.36399,-0.75797l1.34763,-0.78339l1.33094,-0.8085l1.31394,-0.83328l1.2966,-0.85774l1.27893,-0.88188l1.26096,-0.9057l1.24265,-0.92919l1.22402,-0.95235l1.20506,-0.97519l1.1858,-0.99771l1.16618,-1.0199l1.14626,-1.04177l1.126,-1.06331l1.10544,-1.08453l1.08453,-1.10544l1.06331,-1.126l1.04178,-1.14627l1.0199,-1.16618l0.9977,-1.18578l0.97519,-1.20506l0.95235,-1.22402l0.92919,-1.24265l0.9057,-1.26096l0.88188,-1.27894l0.85774,-1.2966l0.8333,-1.31393l0.8085,-1.33094l0.78339,-1.34763l0.75796,-1.36399l0.73219,-1.38003l0.70613,-1.39574l0.6797,-1.41114l0.65299,-1.42621l0.62594,-1.44095l0.59857,-1.45537l0.57085,-1.46946l0.54284,-1.48323l0.51448,-1.49669l0.48583,-1.5098l0.45681,-1.5226l0.4275,-1.53508l0.39786,-1.54724l0.36789,-1.55907l0.33761,-1.57056l0.30699,-1.58174l0.27605,-1.59261l0.24478,-1.60312l0.21319,-1.61335l0.1813,-1.62323l0.14905,-1.63278l0.11649,-1.64203l0.08361,-1.65095l0.05041,-1.65952l0.01688,-1.6678l-0.01688,-1.66779l-0.05041,-1.65953l-0.08361,-1.65093l-0.11649,-1.64203l-0.14905,-1.63279l-0.1813,-1.62323l-0.21319,-1.61334l-0.24478,-1.60314l-0.27605,-1.5926l-0.30699,-1.58174l-0.33761,-1.57058l-0.36789,-1.55906l-0.39786,-1.54724l-0.4275,-1.53508l-0.45681,-1.5226l-0.48583,-1.50982l-0.51448,-1.49668l-0.54284,-1.48323l-0.57085,-1.46947l-0.59857,-1.45536l-0.62594,-1.44095l-0.65299,-1.42621l-0.6797,-1.41114l-0.70613,-1.39574l-0.73219,-1.38003l-0.75796,-1.36399l-0.78339,-1.34763l-0.8085,-1.33094l-0.8333,-1.31394l-0.85774,-1.2966l-0.88188,-1.27893l-0.9057,-1.26096l-0.92919,-1.24265l-0.95235,-1.22402l-0.97519,-1.20506l-0.9977,-1.1858l-1.0199,-1.16618l-1.04178,-1.14626l-1.06331,-1.126l-1.08453,-1.10544l-1.10544,-1.08453l-1.126,-1.06331l-1.14626,-1.04178l-1.16618,-1.0199l-1.1858,-0.9977l-1.20506,-0.97519l-1.22402,-0.95235l-1.24265,-0.92919l-1.26096,-0.9057l-1.27893,-0.88188l-1.2966,-0.85774l-1.31394,-0.8333l-1.33094,-0.8085l-1.34763,-0.78339l-1.36399,-0.75796l-1.38003,-0.73219l-1.39574,-0.70613l-1.41114,-0.67972l-1.42621,-0.65298l-1.44095,-0.62594l-1.45536,-0.59857l-1.46947,-0.57085l-1.48323,-0.54284l-1.49668,-0.51448l-1.50982,-0.48583l-1.5226,-0.45681l-1.53508,-0.4275l-1.54724,-0.39786l-1.55906,-0.3679l-1.57058,-0.33759l-1.58174,-0.30699l-1.5926,-0.27605l-1.60314,-0.24478l-1.61334,-0.21319l-1.62323,-0.1813l-1.63279,-0.14905l-1.64203,-0.11649l-1.65093,-0.08361l-1.65953,-0.05041l-1.66779,-0.01688l-1.6678,0.01688z" fill="#000000"/>
   </g>
   <g stroke="null" transform="matrix(1.1776328323123333,0,0,1.1776328323123333,-92612.16087126781,-92867.16572558467) " id="svg_69" class="layer" display="inline">
    <title stroke="null" fill="#000000" transform="translate(0.8491610884666443,0) translate(-0.8491610884666443,0) translate(0,0.8491610884666443) translate(0,-0.8491610884666443) translate(0,-0.8491610884666443) translate(0,0.8491610884666443) translate(0,0.8491610884666443) translate(0,0.8491610884666443) translate(0,0.8491610884666443) translate(0,0.8491610884666443) translate(0,0.8491610884666443) translate(0,0.8491610884666443) translate(0,0.8491610884666443) translate(0,0.8491610884666443) translate(0,0.8491610884666443) translate(0,0.8491610884666443) translate(0,0.8491610884666443) translate(0,0.8491610884666443) translate(0,0.8491610884666443) translate(0,0.8491610884666443) translate(0,0.8491610884666443) translate(0,0.8491610884666443) translate(0,0.8491610884666443) translate(0,0.8491610884666443) translate(0,0.8491610884666443) translate(0,0.8491610884666443) translate(-0.8491610884666443,0) translate(0.8491610884666443,0) translate(1.4551915228366852e-11,0.9747093915939331) translate(-0.9747093915939331,0) translate(0.9747093915939331,0) translate(-0.9747093915939331,0) translate(0.9747093915939331,0) translate(-14.620640754699707,68.22966003417969) translate(-283.6219177246094,-180.33763122558594) translate(78738.3359375,0) translate(0,78930.203125) ">預設圖層</title>
    <filter stroke="null" fill="#000000" transform="translate(0.8491610884666443,0) translate(-0.8491610884666443,0) translate(0,0.8491610884666443) translate(0,-0.8491610884666443) translate(0,-0.8491610884666443) translate(0,0.8491610884666443) translate(0,0.8491610884666443) translate(0,0.8491610884666443) translate(0,0.8491610884666443) translate(0,0.8491610884666443) translate(0,0.8491610884666443) translate(0,0.8491610884666443) translate(0,0.8491610884666443) translate(0,0.8491610884666443) translate(0,0.8491610884666443) translate(0,0.8491610884666443) translate(0,0.8491610884666443) translate(0,0.8491610884666443) translate(0,0.8491610884666443) translate(0,0.8491610884666443) translate(0,0.8491610884666443) translate(0,0.8491610884666443) translate(0,0.8491610884666443) translate(0,0.8491610884666443) translate(0,0.8491610884666443) translate(0,0.8491610884666443) translate(-0.8491610884666443,0) translate(0.8491610884666443,0) translate(1.4551915228366852e-11,0.9747093915939331) translate(-0.9747093915939331,0) translate(0.9747093915939331,0) translate(-0.9747093915939331,0) translate(0.9747093915939331,0) translate(-14.620640754699707,68.22966003417969) translate(-283.6219177246094,-180.33763122558594) translate(78738.3359375,0) translate(0,78930.203125) " id="svg_63" filterUnits="objectBoundingBox" primitiveUnits="userSpaceOnUse" color-interpolation-filters="sRGB"/>
    <filter stroke="null" fill="#000000" transform="translate(0.8491610884666443,0) translate(-0.8491610884666443,0) translate(0,0.8491610884666443) translate(0,-0.8491610884666443) translate(0,-0.8491610884666443) translate(0,0.8491610884666443) translate(0,0.8491610884666443) translate(0,0.8491610884666443) translate(0,0.8491610884666443) translate(0,0.8491610884666443) translate(0,0.8491610884666443) translate(0,0.8491610884666443) translate(0,0.8491610884666443) translate(0,0.8491610884666443) translate(0,0.8491610884666443) translate(0,0.8491610884666443) translate(0,0.8491610884666443) translate(0,0.8491610884666443) translate(0,0.8491610884666443) translate(0,0.8491610884666443) translate(0,0.8491610884666443) translate(0,0.8491610884666443) translate(0,0.8491610884666443) translate(0,0.8491610884666443) translate(0,0.8491610884666443) translate(0,0.8491610884666443) translate(-0.8491610884666443,0) translate(0.8491610884666443,0) translate(1.4551915228366852e-11,0.9747093915939331) translate(-0.9747093915939331,0) translate(0.9747093915939331,0) translate(-0.9747093915939331,0) translate(0.9747093915939331,0) translate(-14.620640754699707,68.22966003417969) translate(-283.6219177246094,-180.33763122558594) translate(78738.3359375,0) translate(0,78930.203125) " filterUnits="objectBoundingBox" primitiveUnits="userSpaceOnUse" color-interpolation-filters="sRGB" id="svg_62"/>
   </g>
  </g>
 </g>
</svg>