<svg xmlns="http://www.w3.org/2000/svg" xmlns:xlink="http://www.w3.org/1999/xlink" width="24" height="24" viewBox="0 0 24 24">
  <defs>
    <clipPath id="clip-icon-hdist">
      <rect width="24" height="24"/>
    </clipPath>
  </defs>
  <g id="icon-hdist" clip-path="url(#clip-icon-hdist)">
    <g id="Group_51" data-name="Group 51" transform="translate(-719.058 -217.102)">
      <path id="Rectangle_52" data-name="Rectangle 52" d="M725.021,237.1h0a.747.747,0,0,1-.764-.727V221.829a.747.747,0,0,1,.764-.727h0a.746.746,0,0,1,.764.727v14.545A.746.746,0,0,1,725.021,237.1Z" transform="translate(0 0)" fill="#969595"/>
      <path id="Rectangle_53" data-name="Rectangle 53" d="M741.021,237.1h0a.747.747,0,0,1-.764-.727V221.829a.747.747,0,0,1,.764-.727h0a.746.746,0,0,1,.764.727v14.545A.746.746,0,0,1,741.021,237.1Z" transform="translate(-3.926 0)" fill="#969595"/>
      <rect id="Rectangle_16" data-name="Rectangle 16" width="4.368" height="13.423" rx="0.5" transform="translate(728.874 222.391)" fill="#494a4a"/>
    </g>
  </g>
</svg>
