<svg xmlns="http://www.w3.org/2000/svg" viewBox="0 0 512 512" width="512" height="512">
	<style>
		tspan { white-space:pre }
		.shp0 { fill: #7c7b7c } 
	</style>
	<g id="Layer">
		<path id="Layer" class="shp0" d="M313.13 -0.01L71.83 0.03C34.29 0.04 3.96 30.39 3.96 67.93L4.04 443.09C4.04 480.63 34.51 510.97 71.93 510.96L312.16 510.91L312.15 471.37L71.92 471.41C56.22 471.41 43.59 458.79 43.58 443.08L43.51 67.92C43.51 52.34 56.26 39.58 71.84 39.58L269.69 39.54L269.71 145.08C269.71 156.65 279.04 165.98 290.61 165.97L393.31 165.95L393.34 275.15L432.88 275.14L432.85 126.87C432.85 115.89 428.72 105.39 421.4 97.36L345.48 14.27C337.21 5.18 325.4 -0.01 313.13 -0.01Z" />
		<path id="Layer" class="shp0" d="M501.37 382.56L403.97 303.13C395.46 298.29 384.84 304.31 384.84 314.11L384.85 351.77L272.7 351.79C264.32 351.79 257.47 358.64 257.48 367.02L257.49 420.97C257.49 429.35 264.34 436.2 272.72 436.19L384.87 436.17L384.87 473.83C384.88 483.63 395.5 489.77 404 484.81L501.49 405.34C510.23 400.26 510.23 387.63 501.37 382.56Z" />
	</g>
</svg>