<svg xmlns="http://www.w3.org/2000/svg" width="18.87" height="22" viewBox="0 0 18.87 22">
  <g id="Group_53" data-name="Group 53" transform="translate(-14.565 -13)">
    <path id="Subtraction_2" data-name="Subtraction 2" d="M-1091.129-1201.838h-6.657v-6.29h6.657a1,1,0,0,1,1,1v4.29A1,1,0,0,1-1091.129-1201.838Zm-10.214,0H-1108a1,1,0,0,1-1-1v-4.29a1,1,0,0,1,1-1h6.656v6.289Zm7.069-8.033h-3.512v-6.29h3.512a1,1,0,0,1,1,1v4.29A1,1,0,0,1-1094.275-1209.871Zm-7.069,0h-3.511a1,1,0,0,1-1-1v-4.29a1,1,0,0,1,1-1h3.511v6.289Z" transform="translate(1123.565 1233)" fill="#5c5c5c"/>
    <path id="Path_48" data-name="Path 48" d="M1,0H1A1,1,0,0,1,2,1V21a1,1,0,0,1-1,1H1a1,1,0,0,1-1-1V1A1,1,0,0,1,1,0Z" transform="translate(23 13)" fill="#a6a6a6"/>
  </g>
</svg>
