<svg xmlns="http://www.w3.org/2000/svg" xmlns:xlink="http://www.w3.org/1999/xlink" width="16" height="16" viewBox="0 0 16 16">
  <defs>
    <clipPath id="clip-icon-unlock">
      <rect width="16" height="16"/>
    </clipPath>
  </defs>
  <g id="icon-unlock" clip-path="url(#clip-icon-unlock)">
    <path id="icon-padlock" d="M9.28,2A3.367,3.367,0,0,0,5.92,5.36v.96H4.96A.96.96,0,0,0,4,7.28v5.76a.96.96,0,0,0,.96.96H13.6a.96.96,0,0,0,.96-.96V7.28a.96.96,0,0,0-.96-.96H6.88V5.36a2.4,2.4,0,0,1,4.66-.8.48.48,0,1,0,.9-.321A3.361,3.361,0,0,0,9.28,2Z" transform="translate(-1.28)" fill="#5b5b5b"/>
  </g>
</svg>
