<svg xmlns="http://www.w3.org/2000/svg" width="19.5" height="16.5" viewBox="0 0 19.5 16.5">
  <g id="Group_50" data-name="Group 50" transform="translate(-14.25 -15.75)">
    <line id="Line_5" data-name="Line 5" x2="15.411" transform="translate(16.159 18.526)" fill="none" stroke="#969696" stroke-linecap="round" stroke-miterlimit="10" stroke-width="1.5"/>
    <path id="Path_20" data-name="Path 20" d="M106.178,111.763" transform="translate(-80.552 -86.104)" fill="#fff" stroke="#5c5c5c" stroke-miterlimit="10" stroke-width="1.5"/>
    <g id="Path_57" data-name="Path 57" transform="translate(14.25 15.75)" fill="#fff">
      <path d="M 2.75 4.599999904632568 C 1.729910016059875 4.599999904632568 0.8999999761581421 3.770090103149414 0.8999999761581421 2.75 C 0.8999999761581421 1.729910016059875 1.729910016059875 0.8999999761581421 2.75 0.8999999761581421 C 3.770090103149414 0.8999999761581421 4.599999904632568 1.729910016059875 4.599999904632568 2.75 C 4.599999904632568 3.770090103149414 3.770090103149414 4.599999904632568 2.75 4.599999904632568 Z" stroke="none"/>
      <path d="M 2.75 1.799999952316284 C 2.226170063018799 1.799999952316284 1.799999952316284 2.226170063018799 1.799999952316284 2.75 C 1.799999952316284 3.273829936981201 2.226170063018799 3.700000047683716 2.75 3.700000047683716 C 3.273829936981201 3.700000047683716 3.700000047683716 3.273829936981201 3.700000047683716 2.75 C 3.700000047683716 2.226170063018799 3.273829936981201 1.799999952316284 2.75 1.799999952316284 M 2.75 0 C 4.268779754638672 0 5.5 1.23121976852417 5.5 2.75 C 5.5 4.268779754638672 4.268779754638672 5.5 2.75 5.5 C 1.23121976852417 5.5 0 4.268779754638672 0 2.75 C 0 1.23121976852417 1.23121976852417 0 2.75 0 Z" stroke="none" fill="#5c5c5c"/>
    </g>
    <line id="Line_5-2" data-name="Line 5" x2="15.411" transform="translate(16.295 24.276)" fill="none" stroke="#969696" stroke-linecap="round" stroke-miterlimit="10" stroke-width="1.5"/>
    <path id="Path_20-2" data-name="Path 20" d="M106.178,111.763" transform="translate(-80.552 -80.104)" fill="#fff" stroke="#5c5c5c" stroke-miterlimit="10" stroke-width="1.5"/>
    <g id="Path_57-2" data-name="Path 57" transform="translate(21.25 21.25)" fill="#fff">
      <path d="M 2.75 4.599999904632568 C 1.729910016059875 4.599999904632568 0.8999999761581421 3.770090103149414 0.8999999761581421 2.75 C 0.8999999761581421 1.729910016059875 1.729910016059875 0.8999999761581421 2.75 0.8999999761581421 C 3.770090103149414 0.8999999761581421 4.599999904632568 1.729910016059875 4.599999904632568 2.75 C 4.599999904632568 3.770090103149414 3.770090103149414 4.599999904632568 2.75 4.599999904632568 Z" stroke="none"/>
      <path d="M 2.75 1.799999952316284 C 2.226170063018799 1.799999952316284 1.799999952316284 2.226170063018799 1.799999952316284 2.75 C 1.799999952316284 3.273829936981201 2.226170063018799 3.700000047683716 2.75 3.700000047683716 C 3.273829936981201 3.700000047683716 3.700000047683716 3.273829936981201 3.700000047683716 2.75 C 3.700000047683716 2.226170063018799 3.273829936981201 1.799999952316284 2.75 1.799999952316284 M 2.75 0 C 4.268779754638672 0 5.5 1.23121976852417 5.5 2.75 C 5.5 4.268779754638672 4.268779754638672 5.5 2.75 5.5 C 1.23121976852417 5.5 0 4.268779754638672 0 2.75 C 0 1.23121976852417 1.23121976852417 0 2.75 0 Z" stroke="none" fill="#5c5c5c"/>
    </g>
    <line id="Line_5-3" data-name="Line 5" x1="15.411" transform="translate(16.159 29.526)" fill="none" stroke="#969696" stroke-linecap="round" stroke-miterlimit="10" stroke-width="1.5"/>
    <g id="Path_57-3" data-name="Path 57" transform="translate(28.25 26.75)" fill="#fff">
      <path d="M 2.75 4.599999904632568 C 1.729910016059875 4.599999904632568 0.8999999761581421 3.770090103149414 0.8999999761581421 2.75 C 0.8999999761581421 1.729910016059875 1.729910016059875 0.8999999761581421 2.75 0.8999999761581421 C 3.770090103149414 0.8999999761581421 4.599999904632568 1.729910016059875 4.599999904632568 2.75 C 4.599999904632568 3.770090103149414 3.770090103149414 4.599999904632568 2.75 4.599999904632568 Z" stroke="none"/>
      <path d="M 2.75 1.799999952316284 C 2.226170063018799 1.799999952316284 1.799999952316284 2.226170063018799 1.799999952316284 2.75 C 1.799999952316284 3.273829936981201 2.226170063018799 3.700000047683716 2.75 3.700000047683716 C 3.273829936981201 3.700000047683716 3.700000047683716 3.273829936981201 3.700000047683716 2.75 C 3.700000047683716 2.226170063018799 3.273829936981201 1.799999952316284 2.75 1.799999952316284 M 2.75 0 C 4.268779754638672 0 5.5 1.23121976852417 5.5 2.75 C 5.5 4.268779754638672 4.268779754638672 5.5 2.75 5.5 C 1.23121976852417 5.5 0 4.268779754638672 0 2.75 C 0 1.23121976852417 1.23121976852417 0 2.75 0 Z" stroke="none" fill="#5c5c5c"/>
    </g>
  </g>
</svg>
