<svg xmlns="http://www.w3.org/2000/svg" width="22.528" height="13.798" viewBox="0 0 22.528 13.798">
  <g id="Group_11" data-name="Group 11" transform="translate(-12.736 -17.101)">
    <path id="Exclusion_3" data-name="Exclusion 3" d="M-818.25-1136.2c-3.1,0-5.857-1.726-7.625-3.174A20.759,20.759,0,0,1-829-1142.55l0-.007a21.227,21.227,0,0,1,3.121-3.218c1.768-1.471,4.525-3.225,7.625-3.225s5.865,1.754,7.639,3.225a21.133,21.133,0,0,1,3.139,3.225l0,.007a21.174,21.174,0,0,1-3.135,3.167C-812.385-1137.928-815.151-1136.2-818.25-1136.2Zm.014-10.4a4,4,0,0,0-4,4,4,4,0,0,0,4,4,4,4,0,0,0,4-4A4,4,0,0,0-818.236-1146.6Z" transform="translate(842.236 1166.601)" fill="#a2a2a2" stroke="#a2a2a2" stroke-linecap="round" stroke-linejoin="round" stroke-width="1"/>
  </g>
</svg>
