<svg width="512" height="512" xmlns="http://www.w3.org/2000/svg">
 <!-- Created with Method Draw - http://github.com/duopixel/Method-Draw/ -->
 <g>
  <title>Layer 1</title>
  <g stroke="null" transform="rotate(-1.3990898132324219 256.0007019042935,256.005615234375) " id="svg_12">
   <g stroke="null" transform="matrix(1.3372490942118063,0,0,1.3372490942118063,-104880.36752294819,-104880.35762653776) " id="svg_11" class="layer">
    <title stroke="null" transform="translate(0,1.094482660293579) translate(1.9364469051361084,-1.4551915228366852e-11) translate(-0.04551614075899124,0.04664069786667824) translate(0,0.7404122948646545) translate(0,-0.7404122948646545) translate(0,0.7404122948646545) translate(-0.0007012216374278069,0) translate(-0.0007012216374278069,0) translate(0,0.003202189691364765) translate(0,-0.0006955947610549629) translate(0,-0.004599005915224552) translate(-0.0007012216374278069,0) translate(-482.07049560546875,-482.07049560546875) translate(78859.96875,0) translate(0,78800) ">預設圖層</title>
    <filter stroke="null" transform="translate(0,1.094482660293579) translate(1.9364469051361084,-1.4551915228366852e-11) translate(-0.04551614075899124,0.04664069786667824) translate(0,0.7404122948646545) translate(0,-0.7404122948646545) translate(0,0.7404122948646545) translate(-0.0007012216374278069,0) translate(-0.0007012216374278069,0) translate(0,0.003202189691364765) translate(0,-0.0006955947610549629) translate(0,-0.004599005915224552) translate(-0.0007012216374278069,0) translate(-482.07049560546875,-482.07049560546875) translate(78859.96875,0) translate(0,78800) " id="svg_9" filterUnits="objectBoundingBox" primitiveUnits="userSpaceOnUse" color-interpolation-filters="sRGB"/>
    <path stroke="#333333" fill="none" d="m78621.4278,78621.09218l0.10443,0.52215l-0.20886,0l0.10443,-0.52215z" id="svg_8" fill-opacity="0" transform="rotate(24 78621.4296875,78621.35156250001) "/>
    <path stroke="#333333" id="svg_7" d="m78647.61186,78433.07032l0.10762,0.00413l0.07615,0.00107l0.22438,0.01233l0.1391,0.0072l0.54826,0.04706l0.17971,0.01433l0.23859,0.0296l0.12589,0.01227l0.1533,0.02447l0.03147,0.00307l0.54112,0.08767l0.53299,0.10594l0.17664,0.04581l0.18071,0.03667l0.08629,0.02747l0.09035,0.01834l0.52585,0.14655l0.51772,0.16483l0.18678,0.07221l0.16344,0.05087l0.50552,0.19223l0.67602,0.30099l0.16037,0.08235l0.16444,0.07321l0.49025,0.25111l0.62521,0.36593l0.17964,0.11282l0.1289,0.07928l0.09236,0.06301l0.13803,0.08335l0.22632,0.1555l0.44857,0.32013l0.06495,0.05081l0.08322,0.05894l0.17658,0.14429l0.10656,0.08028l0.42317,0.3526l0.4059,0.36681l0.38863,0.38101l0.50732,0.53237l0.20292,0.23265l0.03348,0.04774l0.35002,0.41855l0.33275,0.43276l0.03854,0.06095l0.07102,0.08635l0.31141,0.45609l0.28907,0.4571l0.28094,0.47537l0.02941,0.05688l0.14604,0.26205l0.25453,0.4855l0.22813,0.49564l0.21086,0.50984l0.28381,0.73936l0.18852,0.51084l0.17125,0.52505l0.14891,0.52605l0.12251,0.53618l0.11337,0.53212l0.10417,0.62654l6.18654,43.36543l0.33194,0.11495l0.51058,0.20543l0.25986,0.10475l0.62121,0.27658l0.52585,0.14655l0.51772,0.16483l0.51872,0.18716l0.50145,0.20137l11.13612,4.95812l0.49838,0.23284l0.48111,0.24704l0.48211,0.26938l0.46484,0.28359l0.23039,0.14636l0.81306,0.362l0.49838,0.23284l0.40803,0.21451l36.90672,-24.64977l0.46116,-0.29821l0.4713,-0.2718l0.48043,-0.26774l0.49057,-0.24133l0.50477,-0.22406l0.50984,-0.21086l0.51084,-0.18852l0.52098,-0.16211l0.53011,-0.15805l0.52705,-0.12657l0.53212,-0.11337l0.54632,-0.0961l0.53412,-0.06869l0.54832,-0.05142l0.54932,-0.02909l0.54525,-0.01995l0.55132,0.01559l0.54726,0.02473l0.53912,0.043l0.54926,0.0694l0.54112,0.08767l0.53299,0.10594l0.53399,0.12828l0.52585,0.14655l0.53092,0.15976l0.50958,0.1831l0.51058,0.20543l0.50245,0.22371l0.48518,0.23791l0.48618,0.26025l0.48211,0.26938l0.46078,0.29272l0.45264,0.31099l0.43537,0.3252l0.4313,0.33433l0.4191,0.36174l0.4059,0.36681l0.47385,0.48463l25.89696,27.0739l0.37643,0.40842l0.35409,0.40942l0.34595,0.42769l0.1481,0.20824l0.37242,0.31906l0.4059,0.36681l0.38863,0.38101l0.38456,0.39014l0.36729,0.40435l0.69191,0.85537l0.31548,0.44696l0.30228,0.45203l0.29008,0.47943l0.91077,1.54392l0.26774,0.48043l0.2454,0.48143l0.23726,0.49971l0.21493,0.50071l0.19766,0.51491l0.17532,0.51591l0.16211,0.52098l0.13571,0.53112l0.12251,0.53618l0.10017,0.53718l0.08696,0.54225l0.05549,0.53919l0.04229,0.54425l0.01588,0.55439l0.00675,0.55032l-0.02066,0.53812l-0.03793,0.55232l-0.0562,0.54419l-0.07854,0.54519l-0.09681,0.53705l-0.11915,0.53806l-0.13742,0.52992l-0.15569,0.52179l-0.17396,0.51365l-0.1963,0.51465l-0.21457,0.50652l-0.23284,0.49838l-0.24704,0.48111l-0.26938,0.48211l-0.28359,0.46484l-0.1677,0.25373l-2.09573,3.18275l-0.31099,0.45264l-0.3252,0.43537l-0.23271,0.30141l-3.14401,3.8654l-2.2755,3.26691l-0.31606,0.43944l-0.3384,0.44044l-0.35767,0.40997l-0.36681,0.4059l-0.23065,0.24759l-1.01432,1.54063l-0.31099,0.45264l-0.32926,0.44451l-0.45422,0.55307l-1.76908,2.0803l-0.92491,1.43814l-0.30186,0.45671l-0.32013,0.44857l-0.33433,0.4313l-0.22965,0.26993l-1.87577,2.197l-2.18815,3.21823l-0.32013,0.44857l-0.33433,0.4313l-0.31399,0.38563l-1.7142,2.00622l-0.97978,1.51222l-0.30186,0.45671l-0.32013,0.44857l-0.34347,0.42724l-0.22458,0.28313l-1.55264,1.81544l-0.28259,0.48718l-0.28359,0.46484l-0.05488,0.07408l0.18858,0.41235l0.07909,0.16657l0.92865,2.14299l0.07502,0.1757l0.91138,2.15719l0.06589,0.17164l0.88498,2.16733l0.07095,0.18484l0.85451,2.1866l0.06589,0.17164l0.83317,2.20994l0.06589,0.17164l0.79763,2.21601l0.18952,0.53318l1.30105,4.06021l43.70617,8.41436l0.53299,0.10594l0.52992,0.13742l0.52585,0.14655l0.52279,0.17803l0.50958,0.1831l0.50652,0.21457l0.50245,0.22371l0.49025,0.25111l0.47705,0.25618l0.47398,0.28765l0.46078,0.29272l0.44857,0.32013l0.43537,0.3252l0.42724,0.34347l0.40997,0.35767l0.40183,0.37594l0.38456,0.39014l0.36729,0.40435l0.35002,0.41855l0.34595,0.42769l0.31548,0.44696l0.31141,0.45609l0.28907,0.4571l0.28094,0.47537l0.25453,0.4855l0.23726,0.49971l0.21899,0.49157l0.19766,0.51491l0.18445,0.51998l0.16211,0.52098l0.14891,0.52605l0.12251,0.53618l0.10423,0.52805l0.08696,0.54225l0.06463,0.54325l0.05142,0.54832l0.01995,0.54525l0.00675,0.55032l-0.00019,0.29547l-1.04109,39.31556l-0.01433,0.17971l-0.12202,3.37189l-0.03386,0.54319l-0.04706,0.54826l-0.07854,0.54519l-0.08767,0.54112l-0.10594,0.53299l-0.13742,0.52992l-0.14655,0.52585l-0.16889,0.52685l-0.1831,0.50958l-0.29898,0.7207l-0.25624,0.57553l-0.23284,0.49838l-0.24704,0.48111l-0.26938,0.48211l-0.28359,0.46484l-0.30186,0.45671l-0.32013,0.44857l-0.33433,0.4313l-0.3526,0.42317l-0.35767,0.40997l-0.38101,0.38863l-0.39014,0.38456l-0.41348,0.36322l-0.41855,0.35002l-0.43682,0.34189l-0.44696,0.31548l-0.45203,0.30228l-0.46623,0.28501l-0.48043,0.26774l-0.4855,0.25453l-0.49564,0.22813l-0.50477,0.22406l-0.51084,0.18852l-0.51998,0.18445l-0.51691,0.15298l-0.53518,0.14484l-0.53212,0.11337l-0.54125,0.1093l-0.38688,0.05762l-43.68524,6.14267l-0.11195,0.39896l-0.16889,0.52685l-0.1831,0.50958l-0.20543,0.51058l-0.45148,1.01404l-0.0112,0.04974l-0.14655,0.52585l-0.16889,0.52685l-0.1831,0.50958l-0.20543,0.51058l-3.8518,8.65128l-0.23284,0.49838l-0.24704,0.48111l-0.26938,0.48211l-0.28359,0.46484l-0.15956,0.23546l-0.35793,0.80392l-0.23284,0.49838l-0.25111,0.49025l-0.26532,0.47298l-0.28359,0.46484l-0.10469,0.16137l24.7512,37.07229l0.28907,0.4571l0.28501,0.46623l0.25453,0.4855l0.25047,0.49464l0.22813,0.49564l0.20172,0.50577l0.18852,0.51084l0.17125,0.52505l0.14891,0.52605l0.13571,0.53112l0.1093,0.54125l0.09103,0.53312l0.07376,0.54732l0.05549,0.53919l0.02909,0.54932l0.00675,0.55032l-0.00239,0.54625l-0.02473,0.54726l-0.04706,0.54826l-0.07447,0.53605l-0.08767,0.54112l-0.10088,0.54619l-0.12422,0.52485l-0.15062,0.53499l-0.16483,0.51772l-0.18716,0.51872l-0.20137,0.50145l-0.21457,0.50652l-0.24198,0.49432l-0.25618,0.47705l-0.27852,0.47805l-0.29272,0.46078l-0.30186,0.45671l-0.32926,0.44451l-0.34347,0.42724l-0.34853,0.41403l-0.37594,0.40183l-0.53544,0.5388l-31.21281,29.53833l-0.40435,0.36729l-0.42262,0.35916l-0.42362,0.33682l-0.45103,0.32462l-0.45203,0.30228l-0.4571,0.28907l-0.4845,0.27687l-0.4855,0.25453l-0.4865,0.2322l-0.50477,0.22406l-0.51491,0.19766l-0.50678,0.17938l-0.53418,0.16718l-0.52198,0.13978l-0.53618,0.12251l-0.54125,0.1093l-0.53818,0.07783l-0.54325,0.06463l-0.54832,0.05142l-0.54525,0.01995l-0.54119,0.01081l-0.55132,-0.01559l-0.54319,-0.03386l-0.54419,-0.0562l-0.54519,-0.07854l-0.54112,-0.08767l-0.53806,-0.11915l-0.52992,-0.13742l-0.52585,-0.14655l-0.51365,-0.17396l-0.51872,-0.18716l-0.61614,-0.26338l-0.76738,-0.34166l-0.48925,-0.22877l-0.49025,-0.25111l-0.48211,-0.26938l-0.46484,-0.28359l-0.45671,-0.30186l-0.44857,-0.32013l-0.52366,-0.39734l-3.94455,-3.21209l-8.75422,-6.34962l-0.50032,-0.37601l-7.13318,-5.63883l-0.72164,-0.41981l-0.46484,-0.28359l-0.45671,-0.30186l-0.44857,-0.32013l-0.34808,-0.27539l-8.13989,-6.42638l-2.63876,-1.74406l-0.45264,-0.31099l-0.43537,-0.3252l-0.85518,0.39644l-0.21531,0.09022l-2.22527,0.99054l-0.21938,0.09936l-2.24961,0.94686l-0.21531,0.09022l-2.25975,0.92046l-0.22445,0.08616l-2.27495,0.88085l-0.22445,0.08616l-2.29422,0.85037l-0.22038,0.07702l-2.30943,0.81077l-0.66621,0.21786l-2.60183,0.7791l-0.05807,0.30254l-0.12828,0.53399l-0.14655,0.52585l-0.09361,0.3086l-0.18109,0.55426l-0.30615,2.35946l-0.08767,0.54112l-0.09681,0.53705l-0.12828,0.53399l-0.08755,0.34415l-0.45393,1.65878l-0.35815,2.69754l-0.08767,0.54112l-0.09681,0.53705l-0.12828,0.53399l-0.08755,0.34415l-0.47327,1.72679l-0.51003,3.60415l-0.08361,0.53199l-0.11001,0.54212l-0.13948,0.58373l-0.57921,2.25978l-0.0246,0.35028l-0.04706,0.54826l-0.06534,0.54012l-0.07854,0.54519l-0.10594,0.53299l-0.10388,0.47918l-0.79004,3.24961l-0.02566,0.42643l-0.043,0.53912l-0.0562,0.54419l-0.08767,0.54112l-0.10088,0.54619l-0.11301,0.47511l-0.91832,3.78359l-0.38669,2.85998l-0.07447,0.53605l-0.11001,0.54212l-0.13442,0.59694l-1.18496,4.72668l-0.14655,0.52585l-0.15976,0.53092l-0.1831,0.50958l-0.20543,0.51058l-0.21457,0.50652l-0.23791,0.48518l-0.25111,0.49025l-0.27852,0.47805l-0.28359,0.46484l-0.31099,0.45264l-0.31606,0.43944l-0.34347,0.42724l-0.3526,0.42317l-0.36681,0.4059l-0.39014,0.38456l-0.39928,0.38049l-0.41348,0.36322l-0.41855,0.35002l-0.44189,0.32868l-0.44696,0.31548l-0.4571,0.28907l-0.46623,0.28501l-0.48043,0.26774l-0.49057,0.24133l-0.49564,0.22813l-0.50984,0.21086l-0.51084,0.18852l-0.51591,0.17532l-0.53011,0.15805l-0.53112,0.13571l-0.54125,0.1093l-0.53312,0.09103l-0.54732,0.07376l-0.53919,0.05549l-0.55339,0.03822l-0.54525,0.01995l-0.57773,-0.00545l-42.88436,-1.26172l-0.54726,-0.02473l-0.54826,-0.04706l-0.54012,-0.06534l-0.54112,-0.08767l-0.53299,-0.10594l-0.53806,-0.11915l-0.52585,-0.14655l-0.52685,-0.16889l-0.50958,-0.1831l-0.51465,-0.1963l-0.50245,-0.22371l-0.48518,-0.23791l-0.49025,-0.25111l-0.46891,-0.27445l-0.47398,-0.28765l-0.45264,-0.31099l-0.43537,-0.3252l-0.4313,-0.33433l-0.4191,-0.36174l-0.4059,-0.36681l-0.38863,-0.38101l-0.38049,-0.39928l-0.35409,-0.40942l-0.34595,-0.42769l-0.32868,-0.44189l-0.31548,-0.44696l-0.29821,-0.46116l-0.28501,-0.46623l-0.2586,-0.47637l-0.25047,-0.49464l-0.22406,-0.50477l-0.20579,-0.49664l-0.18852,-0.51084l-0.17125,-0.52505l-0.15805,-0.53011l-0.12657,-0.52705l-0.12251,-0.53618l-0.11424,-0.75143l-6.16595,-43.80506l-0.42536,-0.10181l-0.52585,-0.14655l-0.52685,-0.16889l-0.50958,-0.1831l-0.48318,-0.19323l-9.44012,-3.97314l-0.50245,-0.22371l-0.48518,-0.23791l-0.48618,-0.26025l-0.47298,-0.26532l-0.46991,-0.29679l-0.38769,-0.26018l-4.38289,-2.10464l-36.60112,24.67637l-0.45203,0.30228l-0.47537,0.28094l-0.48043,0.26774l-0.49057,0.24133l-0.49564,0.22813l-0.50984,0.21086l-0.51084,0.18852l-0.51591,0.17532l-0.52605,0.14891l-0.53112,0.13571l-0.54125,0.1093l-0.53718,0.10017l-0.54732,0.07376l-0.53919,0.05549l-0.54932,0.02909l-0.54525,0.01995l-0.54625,-0.00239l-0.54726,-0.02473l-0.54826,-0.04706l-0.54012,-0.06534l-0.54112,-0.08767l-0.53705,-0.09681l-0.53399,-0.12828l-0.52585,-0.14655l-0.53092,-0.15976l-0.50958,-0.1831l-0.51465,-0.1963l-0.50245,-0.22371l-0.49838,-0.23284l-0.47705,-0.25618l-0.48211,-0.26938l-0.46078,-0.29272l-0.45264,-0.31099l-0.43944,-0.31606l-0.44044,-0.3384l-0.40997,-0.35767l-0.4059,-0.36681l-0.51039,-0.5009l-23.43042,-24.37756l-0.37643,-0.40842l-0.35409,-0.40942l-0.34595,-0.42769l-0.20492,-0.27732l-0.33488,-0.28045l-0.41503,-0.37087l-0.38863,-0.38101l-0.38456,-0.39014l-0.36729,-0.40435l-0.2506,-0.29766l-0.61989,-0.74669l-0.4049,-0.34447l-0.40183,-0.37594l-0.38863,-0.38101l-0.37136,-0.39521l-0.45858,-0.54351l-1.18803,-1.43749l-0.34595,-0.42769l-0.32462,-0.45103l-0.30634,-0.44289l-0.29414,-0.4703l-0.2718,-0.4713l-0.25453,-0.4855l-0.24133,-0.49057l-0.21493,-0.50071l-0.21086,-0.50984l-0.17532,-0.51591l-0.17125,-0.52505l-0.13978,-0.52198l-0.12251,-0.53618l-0.1093,-0.54125l-0.08696,-0.54225l-0.06463,-0.54325l-0.05142,-0.54832l-0.02402,-0.53612l-0.00675,-0.55032l0.01559,-0.55132l0.02473,-0.54726l0.0562,-0.54419l0.07854,-0.54519l0.08767,-0.54112l0.11508,-0.52892l0.12828,-0.53399l0.14655,-0.52585l0.17803,-0.52279l0.1831,-0.50958l0.21457,-0.50652l0.22371,-0.50245l0.24198,-0.49432l0.26532,-0.47298l0.27852,-0.47805l0.29272,-0.46078l0.32013,-0.44857l0.33333,-0.45364l6.66929,-8.51337l6.41263,-8.84658l0.32926,-0.44451l0.39528,-0.46985l1.52216,-1.79617l0.30799,-0.51966l0.28359,-0.46484l0.30186,-0.45671l0.32013,-0.44857l0.33433,-0.4313l0.34853,-0.41403l0.28552,-0.32168l0.98559,-1.08273l1.45948,-2.19625l0.31099,-0.45264l0.3252,-0.43537l0.44915,-0.56627l1.21224,-1.41968l0.28359,-0.46484l0.30186,-0.45671l0.31099,-0.45264l0.40648,-0.51959l3.10947,-3.83699l-0.6225,-1.40463l-0.06995,-0.1625l-0.99861,-2.30549l-0.06995,-0.1625l-0.96307,-2.31156l-0.06589,-0.17164l-0.94073,-2.31256l-0.05675,-0.16757l-0.91432,-2.3227l-0.06589,-0.17164l-0.87878,-2.32876l-0.05675,-0.16757l-0.85644,-2.32977l-0.19152,-0.57786l-0.74982,-2.34797l-3.72065,-0.91219l-10.34421,-1.77043l-0.53705,-0.09681l-0.70149,-0.17002l-2.25978,-0.57921l-0.35028,-0.0246l-0.53912,-0.043l-0.54926,-0.0694l-0.54519,-0.07854l-0.53299,-0.10594l-0.53806,-0.11915l-0.33501,-0.08348l-1.68619,-0.46613l-2.6752,-0.35915l-0.54519,-0.07854l-0.53299,-0.10594l-0.53806,-0.11915l-0.52992,-0.13742l-0.51772,-0.16483l-0.33194,-0.11495l-12.19389,-2.18895l-0.53299,-0.10594l-0.76037,-0.18529l-2.65567,-0.72263l-0.52179,-0.15569l-0.51365,-0.17396l-0.51872,-0.18716l-0.50652,-0.21457l-0.50245,-0.22371l-0.48111,-0.24704l-0.48211,-0.26938l-0.46891,-0.27445l-0.45671,-0.30186l-0.44857,-0.32013l-0.43537,-0.3252l-0.42724,-0.34347l-0.41503,-0.37087l-0.3927,-0.37187l-0.38456,-0.39014l-0.36729,-0.40435l-0.35916,-0.42262l-0.33275,-0.43276l-0.31955,-0.43782l-0.31141,-0.45609l-0.28501,-0.46623l-0.2718,-0.4713l-0.25453,-0.4855l-0.23726,-0.49971l-0.21493,-0.50071l-0.20172,-0.50577l-0.18445,-0.51998l-0.16211,-0.52098l-0.14484,-0.53518l-0.12657,-0.52705l-0.10017,-0.53718l-0.08696,-0.54225l-0.06463,-0.54325l-0.03822,-0.55339l-0.01995,-0.54525l-0.00462,-0.70262l0.87397,-43.04605l0.02473,-0.54726l0.03386,-0.54319l0.0694,-0.54926l0.07447,-0.53605l0.10088,-0.54619l0.11508,-0.52892l0.14655,-0.52585l0.15976,-0.53092l0.17396,-0.51365l0.1963,-0.51465l0.21457,-0.50652l0.24198,-0.49432l0.24704,-0.48111l0.26938,-0.48211l0.28359,-0.46484l0.30186,-0.45671l0.32013,-0.44857l0.33433,-0.4313l0.3526,-0.42317l0.36681,-0.4059l0.38101,-0.38863l0.39928,-0.38049l0.40435,-0.36729l0.41855,-0.35002l0.43276,-0.33275l0.44696,-0.31548l0.46116,-0.29821l0.46623,-0.28501l0.48043,-0.26774l0.4855,-0.25453l0.49564,-0.22813l0.50071,-0.21493l0.51491,-0.19766l0.52505,-0.17125l0.52098,-0.16211l0.53112,-0.13571l0.53212,-0.11337l0.53718,-0.10017l0.32901,-0.05055l43.86501,-6.22683l0.16176,-0.48625l0.1963,-0.51465l0.19423,-0.46084l0.25624,-0.57553l0.0112,-0.04974l0.14655,-0.52585l0.16483,-0.51772l0.18716,-0.51872l0.20543,-0.51058l4.61646,-10.36874l0.22877,-0.48925l0.25111,-0.49025l0.26938,-0.48211l0.28359,-0.46484l0.1677,-0.25373l0.26438,-0.5938l0.23284,-0.49838l0.24704,-0.48111l0.26938,-0.48211l0.07115,-0.11063l-24.74225,-36.77275l-0.29821,-0.46116l-0.28094,-0.47537l-0.2586,-0.47637l-0.25047,-0.49464l-0.22813,-0.49564l-0.20172,-0.50577l-0.19766,-0.51491l-0.16618,-0.51184l-0.15805,-0.53011l-0.13571,-0.53112l-0.1093,-0.54125l-0.09103,-0.53312l-0.07376,-0.54732l-0.05549,-0.53919l-0.03822,-0.55339l-0.01081,-0.54119l0.00646,-0.55539l0.02473,-0.54726l0.043,-0.53912l0.0694,-0.54926l0.08767,-0.54112l0.10594,-0.53299l0.11915,-0.53806l0.14655,-0.52585l0.16483,-0.51772l0.17803,-0.52279l0.20543,-0.51058l0.2105,-0.49738l0.24198,-0.49432l0.26025,-0.48618l0.26532,-0.47298l0.29272,-0.46078l0.31099,-0.45264l0.32013,-0.44857l0.34347,-0.42724l0.3526,-0.42317l0.36681,-0.4059l0.53137,-0.52966l31.38364,-29.92202l0.40435,-0.36729l0.42262,-0.35916l0.42362,-0.33682l0.44189,-0.32868l0.45203,-0.30228l0.46116,-0.29821l0.48043,-0.26774l0.47637,-0.2586l0.49971,-0.23726l0.49564,-0.22813l0.51491,-0.19766l0.51084,-0.18852l0.52098,-0.16211l0.53518,-0.14484l0.52705,-0.12657l0.53718,-0.10017l0.54225,-0.08696l0.54732,-0.07376l0.54425,-0.04229l0.54932,-0.02909l0.54119,-0.01081l0.55132,0.01559l0.54319,0.03386l0.54419,0.0562l0.54926,0.0694l0.53705,0.09681l0.53299,0.10594l0.53399,0.12828l0.53092,0.15976l0.51772,0.16483l0.51465,0.1963l0.50145,0.20137l0.50245,0.22371l0.49025,0.25111l0.48618,0.26025l0.46891,0.27445l0.45671,0.30186l0.45264,0.31099l0.24559,0.18597l35.51449,26.81317l0.4479,-0.19465l0.17977,-0.08416l2.14299,-0.92865l0.1757,-0.07502l2.15313,-0.90225l0.1757,-0.07502l2.16733,-0.88498l0.17164,-0.06589l2.1866,-0.85451l0.18484,-0.07095l2.19674,-0.8281l0.18077,-0.06182l2.22008,-0.80676l0.69668,-0.23713l3.84183,-1.17935l8.37975,-43.57927l0.11001,-0.54212l0.13742,-0.52992l0.14655,-0.52585l0.17396,-0.51365l0.18716,-0.51872l0.20543,-0.51058l0.23284,-0.49838l0.23791,-0.48518l0.26938,-0.48211l0.27445,-0.46891l0.30186,-0.45671l0.31099,-0.45264l0.33433,-0.4313l0.34347,-0.42724l0.36174,-0.4191l0.37187,-0.3927l0.39014,-0.38456l0.40842,-0.37643l0.41855,-0.35002l0.42362,-0.33682l0.44189,-0.32868l0.45203,-0.30228l0.4703,-0.29414l0.4713,-0.2718l0.4855,-0.25453l0.49057,-0.24133l0.50477,-0.22406l0.50577,-0.20172l0.51591,-0.17532l0.52505,-0.17125l0.53112,-0.13571l0.52705,-0.12657l0.54125,-0.1093l0.54225,-0.08696l0.54325,-0.06463l0.54425,-0.04229l0.54932,-0.02909l0.77877,-0.00355l43.23784,0.95937zm-26.20113,121.04233l-1.73526,0.04083l-0.4185,0.02041l-1.70464,0.09187l-0.42871,0.02041l-1.68423,0.1429l-0.43892,0.04083l-1.66381,0.18373l-0.44913,0.06124l-1.6434,0.22456l-0.44913,0.07145l-1.62298,0.2756l-0.45933,0.09187l-1.59236,0.32664l-0.46954,0.09187l-1.57194,0.37767l-0.46954,0.11228l-1.55153,0.4185l-0.46954,0.1327l-1.53111,0.46954l-0.2756,0.08166l-2.18439,0.70431l-0.71452,0.25519l-2.14356,0.81659l-0.71452,0.28581l-2.09252,0.91867l-0.69411,0.32664l-2.0619,1.02074l-0.66348,0.35726l-2.02107,1.13302l-0.64307,0.37767l-1.97003,1.24531l-0.61245,0.39809l-1.93941,1.34738l-0.57162,0.4185l-1.89858,1.45966l-0.54099,0.42871l-1.85775,1.56174l-0.50016,0.44913l-1.81692,1.66381l-0.20415,0.20415l-0.39809,0.38788l-3.01119,3.09285l-0.26539,0.2756l-0.36747,0.4185l-0.35726,0.42871l-3.1643,3.96048l-0.32664,0.42871l-0.32664,0.44913l-0.30622,0.46954l-0.29602,0.47975l-0.87784,1.50049l-0.09187,0.11228l-0.34705,0.43892l-0.32664,0.45933l-0.30622,0.45933l-0.28581,0.47975l-0.2756,0.48996l-0.18373,0.35726l-0.22456,0.34705l-0.29602,0.46954l-0.2756,0.48996l-0.25519,0.50016l-0.23477,0.50016l-0.86763,1.95983l-0.12249,0.18373l-0.29602,0.47975l-0.2756,0.47975l-0.25519,0.50016l-0.24498,0.50016l-0.21436,0.52058l-0.20415,0.52058l-0.18373,0.52058l-0.16332,0.54099l-0.10207,0.37767l-0.96971,2.18439l-0.11228,0.26539l-0.21436,0.51037l-0.18373,0.53079l-0.17353,0.53079l-0.15311,0.54099l-0.12249,0.54099l-0.11228,0.5512l-0.02041,0.15311l-0.8268,2.40895l-0.20415,0.65328l-0.1429,0.54099l-0.1327,0.54099l-0.10207,0.5512l-1.07178,6.06321l-0.07145,0.45933l-0.07145,0.56141l-0.05104,0.5512l-0.34705,4.98122l-0.03062,0.77576l0,0.5512l0.03062,2.09252l0.02041,0.54099l0.11228,2.0619l0.04083,0.56141l0.17353,2.02107l0.06124,0.57162l0.25519,2.00066l0.09187,0.58182l0.32664,1.97003l0.10207,0.58182l0.4083,1.94962l0.1327,0.58182l0.46954,1.919l0.16332,0.58182l0.54099,1.88837l0.18373,0.58182l0.62265,1.85775l0.20415,0.58182l0.08166,0.22456l0.01021,0.03062l0.1327,0.54099l0.15311,0.54099l0.17353,0.53079l0.19394,0.52058l0.21436,0.52058l0.22456,0.51037l0.24498,0.50016l3.76654,7.2779l0.37767,0.6839l0.51037,0.87784l0.18373,0.30622l0.53079,0.85742l0.19394,0.30622l0.5512,0.85742l0.19394,0.28581l0.58182,0.84722l0.19394,0.28581l0.60224,0.83701l0.20415,0.2756l0.62265,0.8268l0.20415,0.2756l0.64307,0.81659l0.21436,0.26539l0.66348,0.80639l0.21436,0.25519l0.69411,0.80639l0.21436,0.24498l0.70431,0.78597l0.48996,0.52058l0.39809,0.38788l6.07342,5.73657l0.48996,0.44913l0.42871,0.35726l0.44913,0.33685l0.44913,0.32664l5.71616,3.95027l0.50016,0.32664l0.47975,0.29602l0.47975,0.26539l0.50016,0.25519l0.08166,0.04083l0.31643,0.20415l0.47975,0.29602l0.48996,0.26539l0.48996,0.25519l0.51037,0.24498l7.78827,3.46032l0.26539,0.11228l0.52058,0.21436l0.52058,0.18373l0.53079,0.17353l0.54099,0.15311l0.10207,0.03062l0.51037,0.19394l0.53079,0.18373l0.53079,0.16332l0.54099,0.1429l5.88969,1.45966l0.72473,0.15311l0.5512,0.10207l0.5512,0.08166l5.75699,0.69411l0.51037,0.05104l0.5512,0.04083l1.09219,0.05104l0.28581,0.01021l1.09219,0.04083l0.28581,0l1.08199,0.02041l0.29602,0l1.07178,-0.01021l0.29602,0l1.07178,-0.03062l0.30622,-0.01021l1.06157,-0.05104l0.29602,-0.02041l1.06157,-0.06124l0.30622,-0.03062l1.05136,-0.09187l0.30622,-0.02041l1.05136,-0.11228l0.30622,-0.04083l1.05136,-0.1327l0.44913,-0.06124l0.5512,-0.09187l5.11392,-1.00033l0.31643,-0.06124l0.5512,-0.1327l0.53079,-0.1429l0.54099,-0.17353l4.72604,-1.58215l0.50016,-0.10207l0.54099,-0.1327l0.54099,-0.15311l0.53079,-0.16332l0.53079,-0.19394l0.52058,-0.20415l0.51037,-0.23477l0.50016,-0.24498l8.76818,-4.49127l0.66348,-0.36747l0.47975,-0.28581l0.46954,-0.30622l0.45933,-0.31643l5.54263,-4.07276l0.46954,-0.35726l0.42871,-0.35726l0.4185,-0.36747l0.4083,-0.38788l5.84886,-5.79782l0.4185,-0.42871l0.36747,-0.4185l0.35726,-0.42871l0.34705,-0.43892l4.05235,-5.43035l0.4083,-0.58182l0.30622,-0.45933l0.28581,-0.47975l0.26539,-0.48996l0.45933,-0.85742l0.08166,-0.11228l0.31643,-0.45933l0.31643,-0.46954l0.28581,-0.46954l0.2756,-0.48996l0.25519,-0.50016l0.23477,-0.51037l3.9911,-8.95191l0.11228,-0.26539l0.20415,-0.52058l0.19394,-0.52058l0.16332,-0.53079l0.15311,-0.54099l0.1327,-0.54099l0.07145,-0.33685l0.4083,-1.11261l0.23477,-0.67369l0.16332,-0.54099l0.1429,-0.54099l0.12249,-0.54099l1.17385,-5.7774l0.1429,-0.81659l0.07145,-0.5512l0.26539,-2.50082l0.06124,-0.60224l0.17353,-2.44978l0.03062,-0.63286l0.06124,-2.40895l0.01021,-0.66348l-0.03062,-2.36812l-0.03062,-0.67369l-0.1327,-2.32729l-0.06124,-0.70431l-0.24498,-2.27626l-0.09187,-0.71452l-0.33685,-2.24563l-0.1327,-0.72473l-0.44913,-2.1946l-0.16332,-0.73493l-0.5512,-2.15377l-0.21436,-0.73493l-0.65328,-2.11294l-0.08166,-0.26539l-0.77576,-2.34771l-0.25519,-0.71452l-0.88805,-2.30688l-0.29602,-0.70431l-1.00033,-2.25584l-0.32664,-0.69411l-1.12282,-2.2048l-0.35726,-0.67369l-1.2351,-2.16397l-0.38788,-0.63286l-1.33717,-2.12314l-0.4185,-0.60224l-1.45966,-2.07211l-0.42871,-0.58182l-1.57194,-2.01086l-0.44913,-0.5512l-1.68423,-1.97003l-0.45933,-0.51037l-1.79651,-1.919l-0.57162,-0.58182l-0.4083,-0.37767l-4.17484,-3.72571l-0.63286,-0.53079l-0.43892,-0.34705l-0.45933,-0.31643l-4.81791,-3.31741l-0.70431,-0.45933l-0.47975,-0.2756l-0.50016,-0.26539l-1.41883,-0.72473l-0.43892,-0.31643l-0.45933,-0.30622l-0.47975,-0.29602l-0.48996,-0.2756l-0.50016,-0.25519l-0.50016,-0.23477l-5.84886,-2.60289l-0.1429,-0.06124l-0.11228,-0.05104l-0.20415,-0.08166l-0.07145,-0.03062l-0.52058,-0.19394l-0.20415,-0.07145l-0.05104,-0.02041l-0.2756,-0.09187l-0.53079,-0.15311l-0.19394,-0.05104l-0.1429,-0.04083l-0.36747,-0.09187l-0.10207,-0.02041l-0.19394,-0.04083l-0.03062,-0.01021l-1.5107,-0.57162l-0.78597,-0.2756l-0.54099,-0.15311l-0.54099,-0.1429l-5.69574,-1.3678l-0.67369,-0.1429l-0.5512,-0.10207l-0.5512,-0.07145l-0.56141,-0.06124l-8.32926,-0.67369l-0.51037,-0.03062l-0.56141,-0.02041l-0.55117,0.01019z" fill="#333333"/>
   </g>
  </g>
 </g>
</svg>