<svg xmlns="http://www.w3.org/2000/svg" viewBox="0 0 512 512" width="512" height="512">
	<style>
		tspan { white-space:pre }
		.shp0 { fill: none;stroke: #333333;stroke-width: 0.132 } 
		.shp1 { fill: #000000;stroke: #000000;stroke-width: 0.132 } 
	</style>
	<g id="Layer">
		<path id="svg_33" class="shp0" d="M230.87 174.43L230.81 174.76L230.69 174.71L230.87 174.43Z" />
		<path id="svg_53" fill-rule="evenodd" class="shp1" d="M285.19 1.05L285.71 1.08L285.75 1.08L285.8 1.08L286.16 1.14L286.15 1.14L286.21 1.15L286.45 1.2L286.56 1.23L286.63 1.24L286.7 1.26L286.8 1.29L286.96 1.35L287.23 1.44L287.4 1.52L287.45 1.54L287.71 1.67L287.81 1.72L288.04 1.85L288.15 1.92L288.16 1.92L288.18 1.94L288.42 2.09L288.62 2.23L288.77 2.35L288.83 2.4L288.95 2.5L289.05 2.6L289.22 2.76L289.43 2.99L289.73 3.35L289.75 3.38L289.82 3.47L289.93 3.63L289.95 3.65L290.09 3.88L290.23 4.12L290.29 4.22L290.43 4.49L290.47 4.56L290.58 4.84L290.92 5.72L291.03 6.02L291.09 6.18L291.1 6.23L291.21 6.66L291.25 6.87L291.33 7.28L301.1 68.9L301.14 69.13L301.2 69.43L301.26 69.73L301.32 70.03L301.39 70.32L301.47 70.61L301.55 70.9L301.64 71.19L301.73 71.48L301.83 71.76L301.93 72.04L302.04 72.32L302.16 72.6L302.28 72.88L302.4 73.15L302.53 73.42L302.67 73.69L302.81 73.95L302.95 74.21L303.1 74.47L303.26 74.73L303.41 74.98L303.58 75.23L303.75 75.47L303.92 75.71L304.1 75.95L304.28 76.18L304.46 76.41L304.65 76.64L304.85 76.86L305.05 77.08L305.25 77.29L305.46 77.5L305.67 77.7L305.88 77.9L306.1 78.1L306.32 78.29L306.55 78.47L306.78 78.65L307.01 78.83L307.24 79L307.48 79.17L307.72 79.33L307.97 79.48L308.21 79.63L308.47 79.77L308.72 79.91L308.97 80.05L309.23 80.18L309.49 80.3L309.75 80.42L310.02 80.53L310.28 80.64L310.55 80.74L310.82 80.83L310.98 80.89L311.29 81.01L311.4 81.05L312.02 81.33L312.37 81.48L312.64 81.59L312.91 81.68L313.18 81.78L313.45 81.87L313.72 81.95L314 82.03L314.47 82.15L314.64 82.2L314.87 82.29L315.04 82.36L329.82 88.89L330.13 89.03L330.29 89.12L330.47 89.22L330.77 89.4L330.99 89.54L331.32 89.75L331.57 89.89L331.82 90.04L332.08 90.17L332.33 90.3L332.59 90.43L332.86 90.54L333.75 90.94L334.11 91.11L334.35 91.23L334.51 91.31L334.77 91.44L335.03 91.57L335.29 91.68L335.56 91.79L335.82 91.9L336.09 92L336.36 92.09L336.63 92.18L336.91 92.26L337.18 92.34L337.46 92.41L337.74 92.48L338.02 92.54L338.3 92.59L338.58 92.63L338.86 92.68L339.14 92.71L339.42 92.74L339.71 92.76L339.99 92.78L340.28 92.79L340.56 92.8L340.85 92.79L341.13 92.79L341.41 92.77L341.7 92.75L341.98 92.73L342.27 92.7L342.55 92.66L342.83 92.61L343.11 92.56L343.39 92.51L343.67 92.45L343.94 92.38L344.22 92.31L344.49 92.23L344.77 92.14L345.04 92.05L345.31 91.95L345.58 91.85L345.84 91.74L346.11 91.63L346.37 91.51L346.63 91.39L346.88 91.25L347.14 91.12L347.39 90.98L347.64 90.83L347.88 90.68L348.13 90.52L348.37 90.36L348.6 90.19L348.84 90.02L397.44 53.43L397.64 53.28L397.83 53.16L398.08 53L398.17 52.94L398.36 52.85L398.67 52.7L398.76 52.66L398.94 52.6L399.27 52.49L399.4 52.45L399.68 52.37L399.88 52.33L400.04 52.31L400.22 52.28L400.49 52.26L400.73 52.24L400.85 52.24L401.26 52.25L401.38 52.26L401.57 52.28L401.79 52.31L401.97 52.34L402.19 52.39L402.47 52.47L402.69 52.53L402.81 52.57L402.98 52.64L403.19 52.73L403.37 52.82L403.62 52.96L403.9 53.11L403.92 53.12L404.14 53.28L404.31 53.4L404.58 53.61L404.66 53.69L404.84 53.85L405.05 54.07L440.61 91.72L440.9 92.03L441.1 92.26L441.13 92.3L441.29 92.52L441.47 92.76L441.65 92.99L441.84 93.22L442.03 93.45L442.22 93.66L442.42 93.88L442.63 94.09L442.83 94.3L443.05 94.5L443.26 94.7L443.48 94.9L443.88 95.25L444.02 95.38L444.29 95.64L444.47 95.83L444.53 95.89L444.93 96.39L444.97 96.44L445.12 96.67L445.25 96.9L446.39 98.84L446.59 99.19L446.71 99.43L446.83 99.69L446.92 99.88L446.98 100.05L447.08 100.33L447.14 100.51L447.19 100.68L447.25 100.95L447.32 101.32L447.34 101.41L447.35 101.52L447.38 101.82L447.39 101.97L447.41 102.4L447.4 102.49L447.4 102.76L447.38 103.04L447.35 103.28L447.32 103.49L447.29 103.66L447.23 103.93L447.18 104.15L447.13 104.33L447.06 104.53L446.96 104.79L446.9 104.96L446.8 105.17L446.69 105.39L446.6 105.56L446.51 105.72L446.5 105.74L443.87 110.24L443.71 110.51L443.53 110.78L443.34 111.06L439.4 116.5L439.28 116.68L439.11 116.92L438.95 117.17L438.79 117.42L435.97 121.99L435.66 122.47L435.66 122.48L435.47 122.71L435.19 123.06L434.98 123.32L434.73 123.63L434.54 123.87L434.37 124.11L434.2 124.35L434.03 124.59L433.87 124.84L433.71 125.1L433.56 125.35L432.32 127.48L432.13 127.79L432.07 127.88L431.84 128.2L429.54 131.24L429.42 131.39L429.25 131.63L429.08 131.88L428.92 132.13L428.76 132.38L428.6 132.63L428.45 132.89L427.36 134.82L427.11 135.24L426.96 135.48L426.92 135.54L426.83 135.65L424.39 138.86L424.13 139.21L423.96 139.46L423.8 139.7L423.64 139.96L423.48 140.21L420.79 144.68L420.56 145.03L420.43 145.22L420.21 145.53L418.09 148.32L417.98 148.47L417.8 148.71L417.64 148.95L417.47 149.2L417.31 149.45L417.15 149.7L417 149.96L415.74 152.16L415.55 152.49L415.51 152.56L415.32 152.82L415.26 152.9L415.12 153.1L413.27 155.53L413.08 155.79L412.91 156.03L412.74 156.28L412.58 156.53L412.42 156.78L412.26 157.03L412.11 157.29L411.97 157.55L411.83 157.82L411.55 158.36L411.47 158.52L411.36 158.71L411.21 158.97L411.07 159.24L410.94 159.5L410.81 159.77L410.68 160.05L410.56 160.32L410.45 160.6L410.34 160.88L410.23 161.16L410.13 161.44L410.04 161.73L409.95 162.02L409.87 162.31L409.79 162.6L409.72 162.9L409.66 163.19L409.59 163.49L409.54 163.79L409.49 164.08L409.44 164.38L409.41 164.68L409.37 164.99L409.35 165.29L409.33 165.59L409.31 165.89L409.3 166.2L409.3 166.5L409.3 166.8L409.3 167.11L409.32 167.41L409.34 167.71L409.36 168.01L409.39 168.32L409.42 168.62L409.47 168.92L409.51 169.22L409.57 169.52L409.62 169.81L409.69 170.11L409.75 170.4L409.83 170.7L409.91 170.99L409.99 171.28L410.09 171.56L410.18 171.85L410.28 172.13L410.39 172.41L410.5 172.69L410.62 172.97L410.74 173.24L411.01 173.83L411.1 174.02L411.12 174.05L412.29 176.75L412.37 176.94L413.58 179.78L413.69 180.07L414.88 182.96L414.94 183.11L414.97 183.19L416.19 186.29L416.22 186.36L417.42 189.49L417.45 189.58L417.49 189.68L418.56 192.61L418.75 193.13L420.57 198.68L420.62 198.83L420.72 199.11L420.82 199.4L420.93 199.68L421.04 199.95L421.17 200.23L421.29 200.5L421.42 200.77L421.56 201.04L421.7 201.3L421.84 201.56L421.99 201.82L422.15 202.08L422.31 202.33L422.47 202.57L422.64 202.82L422.81 203.06L422.99 203.3L423.18 203.53L423.36 203.76L423.55 203.98L423.75 204.2L423.95 204.42L424.15 204.63L424.36 204.84L424.57 205.04L424.78 205.24L425 205.43L425.23 205.63L425.45 205.81L425.68 205.99L425.91 206.16L426.15 206.33L426.39 206.5L426.63 206.66L426.87 206.81L427.12 206.96L427.37 207.11L427.63 207.24L427.88 207.38L428.14 207.51L428.4 207.63L428.66 207.74L428.93 207.86L429.19 207.96L429.46 208.06L429.73 208.16L430 208.24L430.28 208.32L430.55 208.4L430.83 208.47L431.11 208.54L431.39 208.59L431.67 208.65L490.51 219.06L490.84 219.12L490.98 219.16L491.22 219.22L491.47 219.31L491.61 219.35L491.79 219.43L492.01 219.53L492.22 219.64L492.42 219.74L492.62 219.87L492.77 219.96L492.95 220.09L493.17 220.25L493.34 220.39L493.5 220.53L493.66 220.68L493.77 220.8L493.87 220.91L494.07 221.14L494.17 221.27L494.36 221.54L494.46 221.69L494.61 221.92L494.75 222.15L494.77 222.19L494.88 222.42L495.01 222.71L495.08 222.88L495.14 223.04L495.24 223.35L495.31 223.6L495.33 223.65L495.42 224.09L495.46 224.34L495.5 224.69L495.51 224.81L495.53 225.29L495.53 225.52L495.5 281.2L495.5 281.39L495.49 281.69L495.45 286.3L495.44 286.7L495.42 286.91L495.4 287.09L495.35 287.48L495.34 287.57L495.31 287.69L495.22 288.11L495.15 288.37L495.12 288.46L494.94 288.95L494.72 289.54L494.59 289.84L494.5 290.06L494.41 290.23L494.3 290.43L494.16 290.67L494.08 290.8L493.94 291.01L493.79 291.21L493.63 291.42L493.55 291.51L493.35 291.74L493.33 291.75L493.03 292.04L492.89 292.16L492.72 292.3L492.49 292.48L492.38 292.55L492.1 292.73L491.98 292.8L491.64 292.98L491.56 293.01L491.39 293.09L491.13 293.19L490.99 293.24L490.79 293.31L490.51 293.38L490.23 293.45L490.19 293.46L431.8 303.86L431.56 303.9L431.28 303.96L431 304.02L430.72 304.09L430.45 304.17L430.17 304.25L429.9 304.34L429.63 304.43L429.36 304.53L429.09 304.64L428.83 304.75L428.56 304.86L428.31 304.99L428.05 305.11L427.79 305.25L427.54 305.39L427.29 305.53L427.04 305.68L426.79 305.83L426.55 305.99L426.31 306.15L426.08 306.32L425.84 306.5L425.61 306.68L425.39 306.86L425.17 307.05L424.95 307.25L424.73 307.44L424.52 307.65L424.31 307.85L424.11 308.07L423.91 308.28L423.72 308.5L423.52 308.73L423.34 308.96L423.15 309.19L422.98 309.42L422.8 309.66L422.63 309.91L422.47 310.16L422.31 310.41L422.15 310.66L422 310.92L421.86 311.18L421.72 311.44L421.58 311.71L421.45 311.98L421.32 312.25L421.2 312.52L421.09 312.8L420.98 313.08L420.87 313.37L420.77 313.65L420.68 313.94L420.59 314.22L420.51 314.51L420.43 314.8L420.36 315.1L420.27 315.44L420.23 315.59L420.14 315.89L420.08 316.08L419.6 317.28L419.51 317.53L419.41 317.81L419.32 318.1L419.22 318.39L419.14 318.67L419.06 318.97L418.98 319.26L418.91 319.56L418.89 319.67L418.82 319.96L418.77 320.17L418.7 320.38L418.61 320.63L413.95 332.62L413.77 333.07L413.66 333.32L413.57 333.49L413.51 333.6L413.49 333.64L413.36 333.85L413.08 334.37L412.94 334.64L412.81 334.9L412.68 335.18L412.56 335.45L412.44 335.73L412.33 336.01L411.95 336.99L411.78 337.4L411.69 337.61L411.6 337.78L411.48 338.01L411.43 338.09L411.26 338.4L411.12 338.66L410.98 338.93L410.85 339.2L410.73 339.47L410.61 339.75L410.49 340.03L410.38 340.31L410.28 340.59L410.18 340.87L410.09 341.16L410 341.45L409.92 341.74L409.84 342.03L409.77 342.32L409.7 342.62L409.64 342.92L409.58 343.21L409.54 343.51L409.49 343.81L409.45 344.11L409.42 344.41L409.39 344.72L409.37 345.02L409.36 345.32L409.34 345.62L409.34 345.93L409.34 346.23L409.35 346.53L409.36 346.84L409.38 347.14L409.4 347.44L409.43 347.74L409.47 348.04L409.51 348.34L409.56 348.64L409.61 348.94L409.67 349.24L409.73 349.54L409.8 349.83L409.87 350.12L409.95 350.41L410.04 350.7L410.13 350.99L410.23 351.28L410.33 351.56L410.43 351.84L410.55 352.12L410.66 352.4L410.79 352.67L410.91 352.94L411.05 353.21L411.18 353.48L411.32 353.74L411.47 354L411.62 354.26L411.78 354.51L411.94 354.76L446.31 406.7L446.64 407.22L446.66 407.26L446.72 407.37L446.92 407.77L446.98 407.89L447.01 407.97L447.14 408.32L447.18 408.44L447.29 408.79L447.32 408.93L447.35 409.05L447.42 409.43L447.46 409.69L447.48 409.84L447.49 409.94L447.5 410.19L447.51 410.67L447.51 410.85L447.51 410.89L447.48 411.14L447.42 411.58L447.39 411.82L447.37 411.9L447.33 412.07L447.28 412.29L447.2 412.52L447.07 412.9L447 413.09L446.95 413.2L446.88 413.37L446.77 413.58L446.61 413.86L446.48 414.09L446.42 414.17L446.25 414.41L446.14 414.56L446.03 414.69L445.6 415.18L405.1 458.22L404.78 458.56L404.6 458.73L404.47 458.85L404.36 458.93L404.08 459.15L403.89 459.28L403.76 459.37L403.61 459.46L403.33 459.61L403.15 459.7L403.04 459.75L402.78 459.86L402.56 459.94L402.4 459.99L402.13 460.06L401.94 460.11L401.86 460.12L401.42 460.19L401.26 460.21L401.15 460.22L400.79 460.24L400.67 460.24L400.48 460.23L400.27 460.21L399.99 460.18L399.76 460.15L399.66 460.12L399.4 460.06L399.09 459.98L398.99 459.94L398.76 459.86L398.31 459.67L397.49 459.31L397.23 459.18L397.1 459.11L396.9 459L396.71 458.89L396.5 458.74L396.3 458.6L395.9 458.29L390.74 454.04L390.33 453.71L390.09 453.54L378.25 444.86L377.73 444.47L368.16 436.82L367.9 436.62L367.67 436.45L367.43 436.28L367.2 436.11L366.95 435.95L366.71 435.8L366.46 435.65L365.6 435.15L365.36 435L365.12 434.85L365.03 434.78L364.84 434.62L364.82 434.61L353.68 425.72L353.4 425.5L353.17 425.33L352.93 425.16L352.69 424.99L349.14 422.63L348.94 422.49L348.56 422.2L348.38 422.07L348.14 421.9L347.9 421.73L347.66 421.57L347.41 421.42L347.16 421.27L346.91 421.13L346.66 420.99L346.4 420.86L346.14 420.73L345.88 420.61L345.62 420.5L345.36 420.39L345.09 420.28L344.82 420.19L344.55 420.09L344.27 420L344 419.92L343.72 419.85L343.45 419.78L343.17 419.72L342.89 419.66L342.61 419.61L342.33 419.56L342.05 419.52L341.76 419.49L341.48 419.46L341.2 419.44L340.91 419.43L340.63 419.42L340.35 419.42L340.06 419.42L339.78 419.43L339.49 419.44L339.21 419.46L338.93 419.49L338.64 419.52L338.36 419.56L338.08 419.61L337.8 419.66L337.52 419.72L337.24 419.78L336.96 419.85L336.69 419.92L336.41 420L336.14 420.09L335.87 420.18L335.6 420.28L335.33 420.38L335.07 420.49L334.81 420.61L334.54 420.73L334.29 420.86L334.03 420.99L333.18 421.44L333.09 421.48L332.81 421.62L329.86 423.12L329.77 423.17L329.65 423.23L326.86 424.57L326.58 424.71L323.81 426L323.68 426.06L323.64 426.08L320.66 427.41L320.66 427.4L320.36 427.53L317.62 428.71L317.42 428.78L317.4 428.79L314.48 429.98L313.96 430.17L310.61 431.35L310.47 431.4L310.2 431.5L309.93 431.6L309.67 431.71L309.41 431.83L309.15 431.95L308.89 432.08L308.63 432.22L308.38 432.36L308.13 432.5L307.88 432.65L307.64 432.81L307.4 432.97L307.16 433.13L306.92 433.3L306.69 433.48L306.46 433.66L306.24 433.85L306.02 434.03L305.8 434.23L305.58 434.43L305.37 434.63L305.17 434.84L304.96 435.05L304.77 435.27L304.57 435.49L304.38 435.72L304.19 435.95L304.01 436.18L303.83 436.42L303.66 436.66L303.49 436.9L303.33 437.15L303.17 437.4L303.01 437.66L302.87 437.91L302.72 438.17L302.58 438.44L302.45 438.71L302.32 438.98L302.19 439.25L302.07 439.53L301.96 439.8L301.85 440.08L301.75 440.37L301.65 440.65L301.55 440.94L301.47 441.23L301.38 441.51L301.31 441.81L301.23 442.1L301.17 442.4L301.11 442.69L301.05 442.99L301.01 443.29L300.99 443.37L300.96 443.55L300.89 443.85L300.84 444.03L300.67 444.63L300.57 445.02L300.5 445.32L300.43 445.61L300.37 445.91L300.32 446.21L300.26 446.5L300.22 446.8L300.19 447.11L300.15 447.41L299.85 450.53L299.79 450.99L299.77 451.16L299.74 451.32L299.65 451.73L299.14 453.94L299.09 454.16L299.03 454.46L298.97 454.75L298.92 455.05L298.88 455.35L298.84 455.65L298.81 455.95L298.45 459.55L298.39 460.04L298.36 460.22L298.33 460.41L298.27 460.68L297.71 463.11L297.62 463.51L297.57 463.8L297.51 464.1L297.47 464.4L297.43 464.7L297.39 465L296.86 469.94L296.81 470.38L296.77 470.58L296.67 471.08L296.01 474.17L295.95 474.48L295.89 474.77L295.84 475.07L295.8 475.37L295.76 475.67L295.73 475.97L295.7 476.28L295.68 476.58L295.67 476.88L295.65 477.27L295.63 477.62L295.6 477.94L295.57 478.25L295.56 478.34L295.46 478.86L294.56 483.33L294.51 483.61L294.46 483.9L294.41 484.2L294.37 484.5L294.33 484.8L294.3 485.11L294.28 485.41L294.26 485.71L294.25 486.01L294.23 486.42L294.21 486.96L294.2 487.03L294.18 487.2L294.14 487.5L294.08 487.82L292.99 493.2L292.92 493.55L292.87 493.85L292.83 494.15L292.79 494.45L292.76 494.75L292.34 498.8L292.31 499.1L292.28 499.29L292.19 499.79L290.83 506.26L290.75 506.62L290.69 506.84L290.65 506.97L290.53 507.31L290.46 507.51L290.43 507.58L290.27 507.95L290.24 507.99L290.06 508.33L290.02 508.39L289.88 508.63L289.68 508.9L289.54 509.09L289.48 509.17L289.37 509.28L289.14 509.54L288.89 509.78L288.8 509.86L288.64 510L288.53 510.09L288.24 510.3L288.04 510.43L287.95 510.49L287.77 510.59L287.49 510.74L287.39 510.79L287.12 510.9L286.82 511.02L286.67 511.07L286.59 511.1L286.4 511.14L286.18 511.19L285.89 511.24L285.62 511.27L285.35 511.3L285.16 511.31L284.96 511.32L227.56 511.09L227.24 511.09L227.01 511.07L226.86 511.06L226.58 511.02L226.41 510.99L226.14 510.93L226.02 510.9L225.82 510.83L225.52 510.73L225.32 510.66L225.22 510.61L224.81 510.41L224.72 510.36L224.53 510.25L224.34 510.14L224.3 510.1L223.99 509.88L223.85 509.76L223.7 509.63L223.46 509.41L223.27 509.22L223.24 509.19L223.12 509.05L222.96 508.84L222.77 508.59L222.66 508.43L222.49 508.16L222.4 508.01L222.29 507.82L222.22 507.68L222.15 507.51L222.03 507.22L221.97 507.07L221.86 506.74L221.81 506.58L221.73 506.24L221.71 506.17L221.63 505.66L211.86 443.37L211.82 443.14L211.77 442.84L211.71 442.54L211.64 442.25L211.57 441.95L211.49 441.66L211.41 441.37L211.33 441.08L211.23 440.79L211.13 440.51L211.03 440.23L210.92 439.94L210.81 439.67L210.69 439.39L210.57 439.12L210.43 438.85L210.3 438.58L210.16 438.32L210.02 438.06L209.87 437.8L209.71 437.54L209.56 437.29L209.39 437.04L209.23 436.8L209.05 436.55L208.87 436.32L208.69 436.08L208.51 435.85L208.32 435.63L208.12 435.41L207.92 435.19L207.72 434.98L207.52 434.77L207.31 434.56L207.09 434.36L206.87 434.17L206.65 433.98L206.43 433.79L206.2 433.61L205.97 433.43L205.73 433.26L205.25 432.93L205.01 432.78L204.76 432.63L204.51 432.48L204.26 432.34L204 432.21L203.75 432.08L203.49 431.96L203.22 431.84L202.96 431.73L202.7 431.62L202.43 431.52L202.16 431.42L201.88 431.33L201.61 431.25L201.34 431.17L201.06 431.1L200.78 431.04L200.44 430.96L200.3 430.92L200.04 430.84L199.86 430.77L199.57 430.66L186.94 425.4L186.7 425.29L186.51 425.19L186.2 425.03L185.99 424.91L185.84 424.82L185.49 424.58L185.21 424.39L184.96 424.24L184.71 424.09L184.46 423.94L184.21 423.81L183.95 423.67L183.69 423.55L177.74 420.7L177.47 420.57L177.21 420.46L176.94 420.35L176.67 420.24L176.4 420.14L176.13 420.05L175.86 419.96L175.59 419.88L175.31 419.81L175.04 419.74L174.76 419.67L174.48 419.62L174.2 419.56L173.92 419.52L173.63 419.48L173.35 419.44L173.07 419.42L172.78 419.4L172.5 419.38L172.22 419.37L171.93 419.37L171.65 419.37L171.36 419.38L171.08 419.39L170.79 419.41L170.51 419.44L170.23 419.47L169.95 419.51L169.66 419.56L169.39 419.61L169.1 419.67L168.83 419.73L168.55 419.8L168.27 419.87L168 419.95L167.73 420.04L167.46 420.13L167.19 420.23L166.92 420.33L166.66 420.44L166.39 420.56L166.13 420.68L165.87 420.81L165.62 420.94L165.36 421.07L165.11 421.22L164.86 421.37L164.62 421.52L164.37 421.68L164.14 421.84L163.9 422.01L163.67 422.18L115.46 458.81L115.2 459.01L115.09 459.09L114.9 459.21L114.77 459.28L114.48 459.43L114.3 459.52L114.07 459.61L113.89 459.68L113.69 459.75L113.54 459.8L113.3 459.85L113.02 459.92L112.84 459.95L112.69 459.97L112.5 459.99L112.08 460.01L111.96 460.02L111.81 460.01L111.58 460L111.39 459.98L111.06 459.93L110.87 459.9L110.4 459.78L110.27 459.74L110.03 459.65L109.89 459.6L109.63 459.48L109.47 459.41L109.18 459.25L109.1 459.2L109 459.14L108.65 458.9L108.48 458.77L108.39 458.7L108.26 458.59L108.04 458.39L107.7 458.05L75.61 424.23L75.39 423.99L75.23 423.8L75.11 423.64L75.01 423.51L74.86 423.31L74.68 423.07L74.49 422.84L74.31 422.62L74.11 422.4L73.91 422.18L73.71 421.97L73.51 421.76L73.29 421.55L73.08 421.35L72.86 421.15L72.65 420.96L72.35 420.71L72.23 420.61L71.99 420.37L71.77 420.14L71.65 420.01L71.49 419.81L70.7 418.85L70.58 418.7L70.38 418.47L70.19 418.26L69.99 418.04L69.78 417.83L69.57 417.62L69.36 417.42L69.15 417.22L68.93 417.03L68.63 416.78L68.41 416.56L68.24 416.39L68.22 416.37L67.84 415.91L66.39 414.14L66.14 413.83L66.06 413.71L65.87 413.44L65.8 413.33L65.69 413.12L65.56 412.88L65.46 412.67L65.41 412.55L65.29 412.27L65.24 412.12L65.13 411.78L65.12 411.75L65.04 411.43L64.99 411.17L64.94 410.92L64.91 410.68L64.88 410.44L64.87 410.23L64.87 410.01L64.87 409.71L64.87 409.48L64.92 409.07L64.95 408.86L64.98 408.67L65.05 408.32L65.07 408.23L65.1 408.15L65.21 407.81L65.26 407.66L65.42 407.24L65.45 407.18L65.58 406.9L65.72 406.64L65.75 406.59L65.84 406.44L66.19 405.92L74.67 393.73L74.81 393.52L74.98 393.27L83.27 380.38L83.35 380.26L83.6 379.92L85.55 377.34L85.79 377L85.96 376.76L86.13 376.51L86.29 376.26L86.44 376.01L86.59 375.75L86.74 375.49L86.88 375.23L87.28 374.47L87.44 374.17L87.52 374.03L87.65 373.83L87.75 373.68L87.94 373.43L88.05 373.3L89.33 371.71L89.44 371.57L89.62 371.34L89.8 371.1L89.97 370.86L90.14 370.62L90.3 370.37L90.46 370.12L90.61 369.86L92.47 366.7L92.65 366.42L92.77 366.22L93.09 365.78L94.48 363.95L94.65 363.73L94.82 363.48L94.99 363.24L95.15 362.99L95.31 362.74L95.47 362.48L95.62 362.22L95.76 361.96L95.98 361.56L96.25 361.1L96.27 361.07L96.44 360.81L100.43 355.28L100.58 355.06L100.75 354.81L100.91 354.57L101.07 354.31L101.22 354.06L101.37 353.8L101.51 353.54L101.65 353.27L101.91 352.73L102.04 352.46L102.15 352.18L102.27 351.9L102.37 351.62L102.48 351.34L102.57 351.05L102.66 350.77L102.75 350.48L102.83 350.19L102.91 349.89L102.97 349.6L103.04 349.3L103.1 349.01L103.15 348.71L103.2 348.41L103.24 348.11L103.28 347.81L103.31 347.51L103.33 347.2L103.35 346.9L103.36 346.6L103.37 346.29L103.37 345.99L103.37 345.69L103.36 345.38L103.34 345.08L103.32 344.78L103.3 344.48L103.27 344.18L103.23 343.88L103.18 343.58L103.14 343.27L103.08 342.98L103.02 342.68L102.96 342.39L102.88 342.09L102.81 341.8L102.72 341.51L102.64 341.22L102.54 340.93L102.45 340.65L102.34 340.37L102.23 340.09L102.12 339.81L102 339.53L101.16 337.65L101.08 337.46L101.07 337.43L99.66 334.2L99.56 333.97L98.35 331.08L98.32 331.01L98.21 330.74L97 327.79L96.96 327.66L96.85 327.38L95.59 324.21L95.5 323.97L94.35 320.97L94.23 320.63L93.09 317.57L92.89 316.97L91.85 313.79L91.75 313.49L91.65 313.2L91.54 312.92L91.43 312.64L91.31 312.37L91.18 312.09L91.06 311.82L90.92 311.55L90.79 311.29L90.65 311.02L90.5 310.77L90.34 310.51L90.19 310.26L90.02 310.01L89.86 309.76L89.69 309.52L89.51 309.28L89.33 309.05L89.15 308.81L88.76 308.37L88.56 308.15L88.36 307.93L88.16 307.72L87.95 307.52L87.74 307.32L87.52 307.12L87.3 306.93L86.85 306.56L86.62 306.38L86.38 306.21L86.15 306.04L85.91 305.88L85.66 305.72L85.42 305.57L85.17 305.42L84.92 305.28L84.66 305.15L84.4 305.02L84.15 304.89L83.88 304.77L83.62 304.66L83.35 304.55L83.09 304.44L82.82 304.35L82.55 304.26L82.27 304.17L82 304.09L81.72 304.02L81.44 303.95L76.42 302.79L76.27 302.75L75.99 302.69L75.71 302.64L75.43 302.59L61.49 300.44L61.34 300.41L60.78 300.29L57.91 299.59L57.62 299.52L57.34 299.46L57.06 299.41L56.78 299.36L56.5 299.32L56.21 299.29L55.93 299.26L55.65 299.23L55.36 299.22L55.03 299.2L54.64 299.18L54.29 299.14L54.08 299.12L53.88 299.08L53.52 299L53.49 299L51.32 298.42L51.1 298.36L50.82 298.3L50.54 298.24L50.26 298.19L49.98 298.14L49.7 298.1L49.42 298.06L45.82 297.64L45.57 297.61L45.37 297.58L45.12 297.52L44.96 297.48L44.89 297.46L44.55 297.35L44.34 297.28L44.06 297.19L43.79 297.12L43.51 297.04L43.24 296.98L42.96 296.91L42.67 296.86L42.4 296.81L26.09 294.15L25.8 294.1L25.26 293.97L22.07 293.14L21.73 293.04L21.46 292.95L21.22 292.87L20.9 292.73L20.81 292.69L20.78 292.68L20.39 292.46L20.27 292.39L20.16 292.31L19.93 292.15L19.61 291.9L19.56 291.86L19.4 291.72L19.2 291.53L19.08 291.4L18.94 291.25L18.81 291.09L18.73 290.99L18.51 290.68L18.4 290.51L18.26 290.29L18.14 290.08L18.08 289.95L17.99 289.77L17.85 289.44L17.79 289.28L17.68 288.99L17.64 288.84L17.57 288.59L17.51 288.38L17.47 288.16L17.44 287.95L17.42 287.83L17.4 287.64L17.39 287.37L17.37 286.76L17.05 225.58L17.06 224.96L17.06 224.92L17.07 224.8L17.12 224.33L17.15 224.12L17.17 224.03L17.21 223.87L17.3 223.51L17.36 223.32L17.43 223.1L17.48 222.96L17.5 222.91L17.72 222.42L17.82 222.22L17.92 222.05L18.02 221.87L18.18 221.63L18.25 221.52L18.35 221.37L18.53 221.16L18.61 221.07L18.87 220.79L19.05 220.61L19.19 220.47L19.29 220.39L19.39 220.31L19.66 220.11L19.86 219.98L20.13 219.81L20.23 219.74L20.44 219.64L20.64 219.54L20.78 219.48L20.92 219.43L21.29 219.29L21.33 219.28L21.6 219.21L21.89 219.14L22 219.12L80.6 208.6L81 208.52L81.28 208.46L81.56 208.39L81.83 208.32L82.11 208.24L82.38 208.15L82.65 208.06L82.92 207.96L83.19 207.86L83.45 207.75L83.72 207.64L83.98 207.52L84.24 207.39L84.49 207.26L84.75 207.13L85 206.98L85.25 206.84L85.5 206.69L85.74 206.53L85.98 206.37L86.45 206.03L86.68 205.85L86.91 205.67L87.13 205.48L87.35 205.29L87.57 205.09L87.78 204.89L87.99 204.68L88.19 204.47L88.4 204.26L88.59 204.04L88.79 203.81L88.97 203.59L89.16 203.36L89.34 203.12L89.51 202.89L89.69 202.64L89.85 202.4L90.01 202.15L90.17 201.89L90.32 201.64L90.47 201.38L90.61 201.11L90.75 200.85L90.88 200.58L91.01 200.31L91.13 200.04L91.25 199.76L91.36 199.48L91.47 199.2L91.57 198.92L91.67 198.63L91.76 198.34L91.84 198.05L91.96 197.66L92 197.51L92.14 197.16L92.39 196.5L92.48 196.26L92.58 195.97L92.68 195.69L92.77 195.4L92.86 195.11L92.94 194.82L93.01 194.53L93.08 194.24L93.12 194.05L93.18 193.79L93.23 193.61L93.32 193.35L93.39 193.13L99.04 178.6L99.19 178.23L99.3 177.98L99.39 177.81L99.49 177.64L99.57 177.5L99.75 177.17L99.89 176.91L100.03 176.64L100.16 176.37L100.29 176.1L100.41 175.83L100.53 175.55L100.64 175.27L100.97 174.41L101.07 174.19L101.14 174.03L101.21 173.88L101.35 173.62L101.49 173.35L101.62 173.08L101.74 172.81L101.86 172.53L101.97 172.26L102.08 171.97L102.18 171.69L102.28 171.41L102.38 171.12L102.46 170.83L102.54 170.54L102.62 170.25L102.69 169.95L102.76 169.66L102.82 169.36L102.87 169.07L102.92 168.76L102.96 168.47L103 168.16L103.03 167.86L103.06 167.56L103.08 167.26L103.09 166.96L103.1 166.65L103.11 166.35L103.1 166.05L103.09 165.74L103.08 165.44L103.06 165.14L103.03 164.84L103.01 164.53L102.97 164.23L102.93 163.93L102.88 163.63L102.82 163.33L102.77 163.04L102.7 162.74L102.63 162.45L102.56 162.16L102.48 161.87L102.39 161.57L102.3 161.29L102.2 161L102.1 160.72L101.99 160.44L101.88 160.16L101.76 159.89L101.64 159.61L101.51 159.34L101.38 159.07L101.24 158.81L101.09 158.55L100.95 158.29L100.79 158.03L100.64 157.78L100.47 157.53L66.06 105.91L65.89 105.63L65.78 105.46L65.65 105.21L65.52 104.96L65.49 104.89L65.37 104.58L65.26 104.31L65.23 104.21L65.13 103.9L65.1 103.78L65.06 103.59L65 103.25L64.98 103.1L64.93 102.75L64.92 102.61L64.91 102.39L64.91 102.08L64.92 101.85L64.92 101.73L64.94 101.52L64.97 101.31L65.04 100.88L65.07 100.73L65.09 100.64L65.18 100.32L65.24 100.11L65.34 99.82L65.4 99.66L65.44 99.56L65.6 99.21L65.69 99.05L65.7 99.03L65.92 98.66L66.04 98.47L66.19 98.27L66.37 98.02L66.41 97.97L66.68 97.67L107.6 53.85L107.81 53.63L108.05 53.41L108.19 53.28L108.34 53.16L108.64 52.93L108.68 52.9L108.78 52.84L108.79 52.83L108.84 52.8L109.07 52.66L109.39 52.49L109.48 52.44L109.74 52.32L109.89 52.26L110 52.22L110.27 52.14L110.39 52.1L110.66 52.04L110.99 51.97L111.1 51.96L111.28 51.93L111.63 51.91L111.77 51.9L111.89 51.9L112.09 51.91L112.39 51.93L112.62 51.96L112.9 52L113.11 52.04L113.21 52.06L113.46 52.13L113.61 52.18L113.86 52.28L114.12 52.38L114.24 52.43L114.45 52.54L114.74 52.69L114.79 52.72L114.92 52.81L115.22 53.01L115.29 53.07L115.31 53.08L163.88 90.14L164.07 90.28L164.31 90.45L164.55 90.62L164.79 90.78L165.03 90.93L165.28 91.08L165.53 91.23L165.79 91.36L166.04 91.5L166.3 91.62L166.56 91.75L166.82 91.86L167.09 91.98L167.35 92.08L167.62 92.18L167.89 92.27L168.17 92.36L168.44 92.44L168.71 92.52L168.99 92.59L169.27 92.66L169.55 92.72L169.83 92.77L170.11 92.81L170.39 92.85L170.67 92.89L170.96 92.92L171.24 92.94L171.53 92.96L171.81 92.97L172.09 92.97L172.38 92.97L172.66 92.96L172.95 92.95L173.23 92.93L173.51 92.9L173.8 92.87L174.08 92.83L174.36 92.79L174.64 92.74L174.92 92.68L175.2 92.62L175.48 92.55L175.75 92.48L176.03 92.4L176.3 92.31L176.57 92.22L176.84 92.13L177.11 92.02L177.37 91.91L177.64 91.8L177.9 91.68L178.16 91.55L178.75 91.26L179.17 91.05L181.75 89.76L181.89 89.69L184.75 88.32L184.84 88.28L185.07 88.17L187.63 86.97L187.69 86.94L187.77 86.91L190.68 85.61L190.84 85.53L193.44 84.41L193.51 84.38L193.77 84.27L196.6 83.09L197.16 82.86L202.08 81.11L202.39 80.99L202.65 80.89L202.91 80.77L203.18 80.66L203.44 80.53L203.7 80.41L203.95 80.27L204.2 80.13L204.45 79.99L204.7 79.84L204.95 79.68L205.19 79.52L205.42 79.36L205.66 79.19L205.89 79.01L206.12 78.83L206.35 78.65L206.57 78.46L206.79 78.26L207 78.06L207.21 77.86L207.42 77.65L207.62 77.44L207.82 77.22L208.01 77L208.21 76.77L208.39 76.55L208.57 76.31L208.75 76.07L208.92 75.83L209.09 75.59L209.26 75.34L209.41 75.09L209.57 74.84L209.72 74.58L209.87 74.32L210 74.05L210.14 73.78L210.27 73.51L210.39 73.24L210.51 72.97L210.63 72.69L210.74 72.41L210.84 72.13L210.94 71.84L211.03 71.56L211.12 71.27L211.2 70.98L211.28 70.69L211.35 70.39L211.42 70.1L211.48 69.8L211.53 69.5L211.58 69.2L221.28 6.69L221.34 6.32L221.39 6.11L221.46 5.81L221.51 5.64L221.62 5.28L221.64 5.22L221.76 4.94L221.83 4.77L221.94 4.55L222.03 4.39L222.07 4.32L222.25 4.02L222.4 3.81L222.6 3.52L222.69 3.41L222.82 3.25L222.98 3.08L223.08 2.98L223.22 2.85L223.5 2.59L223.62 2.5L223.71 2.43L224.03 2.2L224.14 2.13L224.35 2.01L224.59 1.88L224.75 1.79L224.85 1.75L225.1 1.65L225.31 1.57L225.45 1.53L225.8 1.43L226.02 1.38L226.15 1.35L226.3 1.33L226.57 1.3L226.78 1.28L227.32 1.26L285.13 1.04L285.19 1.05ZM253.47 118.68L250.82 118.77L248.18 118.91L245.56 119.12L242.95 119.37L240.35 119.69L237.77 120.05L235.21 120.48L232.67 120.95L230.14 121.48L227.63 122.06L225.14 122.69L222.67 123.37L220.21 124.1L217.78 124.88L215.37 125.71L212.98 126.6L210.61 127.52L208.26 128.5L205.94 129.52L203.64 130.6L201.36 131.71L199.1 132.87L196.88 134.08L194.67 135.33L192.49 136.63L190.34 137.97L188.22 139.35L186.12 140.77L184.05 142.24L182 143.74L179.99 145.29L178.01 146.88L176.05 148.5L174.13 150.17L172.24 151.87L170.38 153.61L168.55 155.39L166.75 157.21L164.98 159.06L163.25 160.95L161.56 162.87L159.89 164.83L158.27 166.82L156.68 168.84L155.12 170.9L153.6 172.99L152.12 175.11L150.67 177.26L149.27 179.44L147.9 181.65L146.57 183.9L145.28 186.17L144.03 188.47L142.82 190.79L141.66 193.15L140.53 195.53L139.45 197.94L138.41 200.37L137.41 202.83L136.46 205.31L135.55 207.82L134.69 210.35L133.87 212.9L133.09 215.48L132.37 218.07L131.69 220.69L131.06 223.33L130.47 225.99L129.94 228.67L129.45 231.36L129.01 234.08L128.62 236.81L128.29 239.57L128 242.33L127.77 245.12L127.59 247.92L127.46 250.73L127.38 253.56L127.36 256.41L127.39 259.25L127.47 262.08L127.61 264.89L127.8 267.69L128.04 270.48L128.34 273.24L128.68 275.99L129.08 278.73L129.52 281.44L130.02 284.14L130.56 286.81L131.15 289.47L131.79 292.11L132.48 294.72L133.21 297.32L133.99 299.89L134.82 302.44L135.69 304.97L136.6 307.47L137.56 309.95L138.57 312.41L139.62 314.84L140.71 317.24L141.84 319.62L143.01 321.97L144.23 324.3L145.48 326.59L146.78 328.86L148.11 331.1L149.49 333.31L150.9 335.48L152.35 337.63L153.84 339.75L155.36 341.83L156.92 343.89L158.52 345.91L160.16 347.89L161.82 349.84L163.53 351.76L165.26 353.64L167.03 355.49L168.83 357.3L170.67 359.07L172.54 360.81L174.43 362.51L176.36 364.17L178.32 365.79L180.31 367.37L182.33 368.91L184.37 370.41L186.45 371.87L188.55 373.29L190.68 374.66L192.83 376L195.02 377.29L197.22 378.53L199.46 379.73L201.71 380.89L204 382L206.3 383.06L208.63 384.08L210.98 385.05L213.35 385.97L215.74 386.84L218.16 387.67L220.59 388.44L223.05 389.17L225.52 389.84L228.01 390.47L230.52 391.04L233.05 391.56L235.6 392.03L238.16 392.44L240.74 392.8L243.34 393.11L245.95 393.36L248.57 393.55L251.21 393.69L253.86 393.77L256.53 393.8L259.2 393.76L261.85 393.67L264.49 393.53L267.11 393.33L269.72 393.07L272.31 392.76L274.89 392.39L277.45 391.97L280 391.49L282.53 390.97L285.04 390.39L287.53 389.76L290 389.07L292.45 388.34L294.88 387.56L297.3 386.73L299.69 385.85L302.06 384.92L304.4 383.94L306.73 382.92L309.03 381.85L311.31 380.73L313.56 379.57L315.79 378.36L318 377.11L320.17 375.81L322.33 374.48L324.45 373.09L326.55 371.67L328.62 370.21L330.66 368.7L332.68 367.15L334.66 365.56L336.61 363.94L338.54 362.27L340.43 360.57L342.29 358.83L344.12 357.05L345.92 355.23L347.68 353.38L349.41 351.49L351.11 349.57L352.77 347.62L354.4 345.63L355.99 343.6L357.55 341.54L359.07 339.46L360.55 337.33L361.99 335.18L363.4 333L364.77 330.79L366.1 328.55L367.39 326.27L368.63 323.98L369.84 321.65L371.01 319.29L372.13 316.91L373.22 314.51L374.26 312.07L375.25 309.61L376.21 307.13L377.12 304.62L377.98 302.09L378.8 299.54L379.57 296.97L380.3 294.37L380.98 291.75L381.61 289.11L382.2 286.45L382.73 283.78L383.22 281.08L383.65 278.36L384.04 275.63L384.38 272.88L384.66 270.11L384.9 267.32L385.08 264.53L385.21 261.71L385.29 258.88L385.31 256.04L385.28 253.19L385.19 250.36L385.06 247.55L384.87 244.75L384.62 241.97L384.33 239.2L383.99 236.45L383.59 233.72L383.15 231L382.65 228.31L382.11 225.63L381.52 222.97L380.88 220.34L380.19 217.72L379.46 215.12L378.68 212.55L377.85 210L376.98 207.47L376.06 204.97L375.1 202.49L374.1 200.03L373.05 197.6L371.96 195.2L370.83 192.82L369.66 190.47L368.44 188.15L367.19 185.85L365.89 183.58L364.55 181.35L363.18 179.14L361.77 176.96L360.32 174.81L358.83 172.69L357.3 170.61L355.74 168.56L354.14 166.54L352.51 164.55L350.84 162.6L349.14 160.68L347.4 158.8L345.64 156.95L343.83 155.14L342 153.37L340.13 151.63L338.23 149.94L336.31 148.28L334.35 146.65L332.36 145.07L330.34 143.53L328.29 142.03L326.22 140.57L324.12 139.15L321.99 137.78L319.83 136.45L317.65 135.16L315.44 133.91L313.21 132.71L310.95 131.56L308.67 130.45L306.37 129.38L304.04 128.36L301.69 127.39L299.32 126.47L296.92 125.6L294.51 124.77L292.07 124L289.62 123.27L287.15 122.6L284.65 121.97L282.14 121.4L279.61 120.88L277.07 120.42L274.5 120L271.92 119.64L269.33 119.34L266.72 119.09L264.09 118.89L261.46 118.75L258.8 118.67L256.14 118.65L253.47 118.68Z" />
	</g>
</svg>