<svg xmlns="http://www.w3.org/2000/svg" xmlns:xlink="http://www.w3.org/1999/xlink" width="24" height="24" viewBox="0 0 24 24">
  <defs>
    <clipPath id="clip-icon-valign-mid">
      <rect width="24" height="24"/>
    </clipPath>
  </defs>
  <g id="icon-valign-mid" clip-path="url(#clip-icon-valign-mid)">
    <g id="Group_52" data-name="Group 52" transform="translate(-0.872 -0.594)">
      <path id="Path_121" data-name="Path 121" d="M3969.671,2420.332v-2.586h4.632v2.586a.736.736,0,0,1-.735.737h-3.161a.736.736,0,0,1-.736-.737h0Z" transform="translate(-3956.21 -2403.818)" fill="#494a4a"/>
      <path id="Path_122" data-name="Path 122" d="M3969.671,2413v-2.586a.736.736,0,0,1,.736-.736h3.161a.736.736,0,0,1,.735.736V2413Z" transform="translate(-3956.21 -2401.74)" fill="#494a4a"/>
      <path id="Path_48" data-name="Path 48" d="M3973.8,2415.7h0a.731.731,0,0,1-.728.736h-14.546a.73.73,0,0,1-.727-.736h0a.731.731,0,0,1,.727-.737h14.546A.732.732,0,0,1,3973.8,2415.7Z" transform="translate(-3952.929 -2403.109)" fill="#969595"/>
      <path id="Path_119" data-name="Path 119" d="M3961.638,2422.648v-4.9h4.633v4.9a.737.737,0,0,1-.737.737h-3.159A.737.737,0,0,1,3961.638,2422.648Z" transform="translate(-3953.99 -2403.799)" fill="#494a4a"/>
      <path id="Path_120" data-name="Path 120" d="M3961.638,2412.17v-4.9a.737.737,0,0,1,.737-.736h3.159a.737.737,0,0,1,.737.736v4.9h-4.633Z" transform="translate(-3953.99 -2400.93)" fill="#494a4a"/>
    </g>
  </g>
</svg>
