<svg xmlns="http://www.w3.org/2000/svg" width="16" height="15" viewBox="0 0 16 15">
    <g fill-rule="evenodd" opacity=".64" transform="matrix(0 1 1 0 1 1)">
        <path stroke="#F8F8F8" d="M-.5.498c0-.274.113-.523.295-.704C.927-.61 1.058-.357 1.207-.21c.18.18.293.429.293.707v13.004c0 .274-.113.523-.295.704-.183.183-.435.294-.705.294-.277 0-.527-.111-.707-.291-.18-.18-.293-.429-.293-.707V.498z"/>
        <rect width="12" height="4" x="2" y="2" rx="1"/>
        <rect width="8" height="4" x="2" y="8" rx="1"/>
    </g>
</svg>
