<svg xmlns="http://www.w3.org/2000/svg" width="12" height="16" viewBox="0 0 12 16">
    <g fill-rule="evenodd" opacity=".637">
        <path d="M5.99 1C6.549 1 7 1.456 7 2.002v9.996C7 12.55 6.557 13 5.99 13H4.01C3.451 13 3 12.544 3 11.998V2.002C3 1.45 3.443 1 4.01 1h1.98z" transform="translate(1 1)"/>
        <path stroke="#F8F8F8" d="M1.5 13.502c0 .274-.113.523-.295.704-1.132.403-1.263.151-1.412.003-.18-.18-.293-.429-.293-.707V.498c0-.274.113-.523.295-.704C-.022-.39.23-.5.5-.5c.277 0 .527.111.707.291.18.18.293.429.293.707v13.004zM10.5-.5v15h-2v-15h2z" transform="translate(1 1)"/>
    </g>
</svg>
