<svg xmlns="http://www.w3.org/2000/svg" xmlns:xlink="http://www.w3.org/1999/xlink" width="24" height="24" viewBox="0 0 24 24">
  <defs>
    <clipPath id="clip-icon-nodetype-0">
      <rect width="24" height="24"/>
    </clipPath>
  </defs>
  <g id="icon-nodetype-0" clip-path="url(#clip-icon-nodetype-0)">
    <g id="Group_88" data-name="Group 88" transform="translate(32.583 -6.168)">
      <g id="Group_31" data-name="Group 31">
        <g id="Group_86" data-name="Group 86">
          <rect id="Rectangle_61" data-name="Rectangle 61" width="4.247" height="1.064" transform="matrix(0.939, -0.344, 0.344, 0.939, -27.055, 19.136)" fill="#848484"/>
          <path id="Path_145" data-name="Path 145" d="M-27.677,21.913a1.7,1.7,0,0,1-1.7-1.695,1.7,1.7,0,0,1,1.7-1.7,1.7,1.7,0,0,1,1.7,1.695v.01A1.7,1.7,0,0,1-27.677,21.913Zm0-2.268a.573.573,0,0,0-.574.572.574.574,0,0,0,.572.574.573.573,0,0,0,.574-.572h0A.573.573,0,0,0-27.677,19.645Z" fill="#848484"/>
        </g>
        <g id="Group_87" data-name="Group 87">
          <rect id="Rectangle_60" data-name="Rectangle 60" width="1.065" height="5.518" transform="translate(-19.783 18.089) rotate(-66.796)" fill="#848484"/>
          <path id="Path_145-2" data-name="Path 145-2" d="M-13.478,21.913a1.7,1.7,0,0,1-1.7-1.695,1.7,1.7,0,0,1,1.695-1.7,1.7,1.7,0,0,1,1.7,1.695v.01A1.7,1.7,0,0,1-13.478,21.913Zm0-2.268a.573.573,0,0,0-.574.572.574.574,0,0,0,.572.574.574.574,0,0,0,.574-.572h0A.573.573,0,0,0-13.478,19.645Z" fill="#848484"/>
        </g>
        <g id="Path_57" data-name="Path 57">
          <path id="Path_140" data-name="Path 140" d="M-21.164,16.109a1.221,1.221,0,0,0-1.22,1.223,1.221,1.221,0,0,0,1.223,1.219,1.22,1.22,0,0,0,1.219-1.221,1.222,1.222,0,0,0-1.222-1.221m0-1.686a2.907,2.907,0,0,1,2.907,2.907,2.908,2.908,0,0,1-2.908,2.908,2.908,2.908,0,0,1-2.907-2.908,2.908,2.908,0,0,1,2.907-2.907Z" fill="#494a4a"/>
        </g>
      </g>
      <path id="Path_20" data-name="Path 20" d="M-20.948,18.807" fill="#fff" stroke="#494a4a" stroke-miterlimit="10" stroke-width="1.5"/>
    </g>
  </g>
</svg>
