<svg xmlns="http://www.w3.org/2000/svg" width="22.528" height="13.798" viewBox="0 0 22.528 13.798">
  <g id="Group_51" data-name="Group 51" transform="translate(-12.736 -17.101)">
    <path id="Exclusion_4" data-name="Exclusion 4" d="M-874.25-1136.2c-3.1,0-5.857-1.726-7.625-3.174A20.762,20.762,0,0,1-885-1142.55l0-.007a21.219,21.219,0,0,1,3.121-3.218c1.768-1.471,4.525-3.225,7.625-3.225s5.865,1.754,7.639,3.225a21.1,21.1,0,0,1,3.139,3.225l0,.007a21.171,21.171,0,0,1-3.135,3.167C-868.385-1137.928-871.15-1136.2-874.25-1136.2Zm.014-10.4a4,4,0,0,0-4,4,4,4,0,0,0,4,4,4,4,0,0,0,4-4A4,4,0,0,0-874.236-1146.6Z" transform="translate(898.236 1166.601)" fill="#6e6e6e" stroke="#707070" stroke-linecap="round" stroke-linejoin="round" stroke-width="1"/>
    <rect id="Rectangle_56" data-name="Rectangle 56" width="2" height="22" rx="1" transform="translate(13.974 19.366) rotate(-60)" fill="#5b5b5b"/>
  </g>
</svg>
