<svg xmlns="http://www.w3.org/2000/svg" xmlns:xlink="http://www.w3.org/1999/xlink" width="24" height="24" viewBox="0 0 24 24">
  <defs>
    <clipPath id="clip-icon-ungroup">
      <rect width="24" height="24"/>
    </clipPath>
  </defs>
  <g id="icon-ungroup" clip-path="url(#clip-icon-ungroup)">
    <g id="Group_6" data-name="Group 6" transform="translate(-4019.902 -2409.417)">
      <g id="Group_5" data-name="Group 5" transform="translate(4027.676 2417.831)">
        <g id="Path_69" data-name="Path 69" transform="translate(1.707 1.104)">
          <path id="Path_123" data-name="Path 123" d="M4033.573,2421.915h6.233a1.3,1.3,0,0,1,1.3,1.3v6.232a1.3,1.3,0,0,1-1.3,1.3h-6.233a1.3,1.3,0,0,1-1.3-1.3v-6.232A1.3,1.3,0,0,1,4033.573,2421.915Z" transform="translate(-4032.275 -2421.915)" fill="none"/>
          <path id="Path_124" data-name="Path 124" d="M4033.573,2422.954a.26.26,0,0,0-.26.26v6.23a.26.26,0,0,0,.26.259h6.231a.261.261,0,0,0,.26-.259v-6.23a.261.261,0,0,0-.26-.26h-6.231m0-1.039h6.231a1.3,1.3,0,0,1,1.3,1.3v6.23a1.3,1.3,0,0,1-1.3,1.3h-6.231a1.3,1.3,0,0,1-1.3-1.3v-6.23A1.3,1.3,0,0,1,4033.573,2421.915Z" transform="translate(-4032.275 -2421.915)" fill="#5d5d5d"/>
        </g>
        <g id="Rectangle_40" data-name="Rectangle 40" transform="translate(0.603 0)">
          <rect id="Rectangle_50" data-name="Rectangle 50" width="3.31" height="3.31" rx="1" fill="#fff"/>
          <path id="Path_125" data-name="Path 125" d="M4033.236,2423.526h-2.012a.65.65,0,0,1-.65-.649v-2.012a.651.651,0,0,1,.65-.65h2.012a.651.651,0,0,1,.65.65v2.012A.65.65,0,0,1,4033.236,2423.526Zm-1.687-.974h1.363v-1.362h-1.363Z" transform="translate(-4030.574 -2420.215)" fill="#5d5d5d"/>
        </g>
        <g id="Rectangle_41" data-name="Rectangle 41" transform="translate(8.93 0)">
          <rect id="Rectangle_51" data-name="Rectangle 51" width="3.31" height="3.31" rx="1" fill="#fff"/>
          <path id="Path_126" data-name="Path 126" d="M4046.062,2423.526h-2.011a.65.65,0,0,1-.65-.649v-2.012a.65.65,0,0,1,.65-.65h2.011a.65.65,0,0,1,.649.65v2.012A.649.649,0,0,1,4046.062,2423.526Zm-1.948-.713H4046v-1.883h-1.882Z" transform="translate(-4043.401 -2420.215)" fill="#5d5d5d"/>
        </g>
        <g id="Rectangle_42" data-name="Rectangle 42" transform="translate(0 8.276)">
          <rect id="Rectangle_52" data-name="Rectangle 52" width="3.31" height="3.31" rx="1" fill="#fff"/>
          <path id="Path_127" data-name="Path 127" d="M4032.307,2436.273H4030.3a.649.649,0,0,1-.648-.649v-2.012a.648.648,0,0,1,.648-.649h2.012a.649.649,0,0,1,.649.649v2.012A.65.65,0,0,1,4032.307,2436.273Zm-1.948-.714h1.883v-1.882h-1.883Z" transform="translate(-4029.647 -2432.962)" fill="#5d5d5d"/>
        </g>
        <g id="Rectangle_43" data-name="Rectangle 43" transform="translate(8.93 8.276)">
          <rect id="Rectangle_53" data-name="Rectangle 53" width="3.31" height="3.31" rx="1" fill="#fff"/>
          <path id="Path_128" data-name="Path 128" d="M4046.062,2436.273h-2.011a.651.651,0,0,1-.65-.649v-2.012a.65.65,0,0,1,.65-.649h2.011a.649.649,0,0,1,.649.649v2.012A.65.65,0,0,1,4046.062,2436.273Zm-1.948-.714H4046v-1.882h-1.882Z" transform="translate(-4043.401 -2432.962)" fill="#5d5d5d"/>
        </g>
      </g>
      <g id="Group_4" data-name="Group 4" transform="translate(4024.031 2413.417)">
        <path id="Path_129" data-name="Path 129" d="M4034.1,2415.991a1.332,1.332,0,0,0-.247-.024h-6.232a1.361,1.361,0,0,0-.207.02,1.3,1.3,0,0,0-1.09,1.278v6.231a1.3,1.3,0,0,0,1.3,1.3h6.232a1.3,1.3,0,0,0,1.3-1.3v-6.231A1.3,1.3,0,0,0,4034.1,2415.991Z" transform="translate(-4024.837 -2414.312)" fill="#5d5d5d"/>
        <g id="Rectangle_36" data-name="Rectangle 36" transform="translate(0 0)">
          <rect id="Rectangle_54" data-name="Rectangle 54" width="3.31" height="3.31" rx="1" fill="#fff"/>
          <path id="Path_130" data-name="Path 130" d="M4026.694,2416.728h-2.013a.65.65,0,0,1-.649-.65v-2.012a.65.65,0,0,1,.649-.65h2.013a.649.649,0,0,1,.649.65v2.012A.65.65,0,0,1,4026.694,2416.728Zm-1.948-.714h1.882v-1.883h-1.882Z" transform="translate(-4024.031 -2413.417)" fill="#5d5d5d"/>
        </g>
        <g id="Rectangle_37" data-name="Rectangle 37" transform="translate(8.713 0)">
          <rect id="Rectangle_55" data-name="Rectangle 55" width="3.31" height="3.31" rx="1" fill="#fff"/>
          <path id="Path_131" data-name="Path 131" d="M4040.114,2416.728H4038.1a.65.65,0,0,1-.649-.65v-2.012a.65.65,0,0,1,.649-.65h2.013a.65.65,0,0,1,.649.65v2.012A.65.65,0,0,1,4040.114,2416.728Zm-1.948-.714h1.882v-1.883h-1.882Z" transform="translate(-4037.452 -2413.417)" fill="#5d5d5d"/>
        </g>
        <g id="Rectangle_38" data-name="Rectangle 38" transform="translate(0 8.276)">
          <rect id="Rectangle_56" data-name="Rectangle 56" width="3.31" height="3.31" rx="1" fill="#fff"/>
          <path id="Path_132" data-name="Path 132" d="M4026.694,2429.475h-2.013a.649.649,0,0,1-.649-.649v-2.012a.65.65,0,0,1,.649-.649h2.013a.649.649,0,0,1,.649.649v2.012A.649.649,0,0,1,4026.694,2429.475Zm-1.948-.714h1.882v-1.882h-1.882Z" transform="translate(-4024.031 -2426.165)" fill="#5d5d5d"/>
        </g>
        <g id="Rectangle_39" data-name="Rectangle 39" transform="translate(8.713 8.276)">
          <rect id="Rectangle_57" data-name="Rectangle 57" width="3.31" height="3.31" rx="1" fill="#fff"/>
          <path id="Path_133" data-name="Path 133" d="M4040.114,2429.475H4038.1a.649.649,0,0,1-.649-.649v-2.012a.649.649,0,0,1,.649-.649h2.013a.65.65,0,0,1,.649.649v2.012A.65.65,0,0,1,4040.114,2429.475Zm-1.948-.714h1.882v-1.882h-1.882Z" transform="translate(-4037.452 -2426.165)" fill="#5d5d5d"/>
        </g>
      </g>
    </g>
  </g>
</svg>
