<svg xmlns="http://www.w3.org/2000/svg" xmlns:xlink="http://www.w3.org/1999/xlink" width="24" height="24" viewBox="0 0 24 24">
  <defs>
    <clipPath id="clip-icon-group">
      <rect width="24" height="24"/>
    </clipPath>
  </defs>
  <g id="icon-group" clip-path="url(#clip-icon-group)">
    <g id="Group_57" data-name="Group 57" transform="translate(-4050.179 -2405.415)">
      <g id="Group_7" data-name="Group 7" transform="translate(4057.699 2412.936)">
        <path id="Subtraction_1" data-name="Subtraction 1" d="M4062.3,2420.676h-1.9a.722.722,0,0,1-.721-.719v-4.32a.723.723,0,0,1,.721-.72h4.321a.722.722,0,0,1,.719.72v1.9h-2.415a.722.722,0,0,0-.721.72Z" transform="translate(-4059.679 -2414.916)" fill="#9d9d9d"/>
        <path id="Path_42" data-name="Path 42" d="M4065.32,2419.836a.72.72,0,0,0-.719.719v4.322a.72.72,0,0,0,.719.719h4.32a.721.721,0,0,0,.72-.719v-4.322a.722.722,0,0,0-.72-.719Z" transform="translate(-4061.452 -2416.687)" fill="#3d3c3c"/>
      </g>
      <g id="Rectangle_45" data-name="Rectangle 45" transform="translate(4055.068 2410.304)">
        <rect id="Rectangle_58" data-name="Rectangle 58" width="14" height="14" rx="3" transform="translate(0.111 0.111)" fill="none"/>
        <path id="Path_134" data-name="Path 134" d="M4067.7,2424.855h-9.6a1.922,1.922,0,0,1-1.921-1.92v-9.6a1.922,1.922,0,0,1,1.921-1.92h9.6a1.922,1.922,0,0,1,1.92,1.92v9.6A1.922,1.922,0,0,1,4067.7,2424.855Zm-9.6-12.416a.9.9,0,0,0-.9.9v9.6a.9.9,0,0,0,.9.9h9.6a.9.9,0,0,0,.9-.9v-9.6a.9.9,0,0,0-.9-.9Z" transform="translate(-4055.787 -2411.024)" fill="#5d5d5d"/>
      </g>
      <rect id="Rectangle_46" data-name="Rectangle 46" width="3" height="3" rx="0.5" transform="translate(4054.179 2409.415)" fill="#070203"/>
      <rect id="Rectangle_47" data-name="Rectangle 47" width="3" height="3" rx="0.5" transform="translate(4067.179 2409.415)" fill="#070203"/>
      <rect id="Rectangle_48" data-name="Rectangle 48" width="3" height="3" rx="0.5" transform="translate(4054.179 2422.415)" fill="#070203"/>
      <rect id="Rectangle_49" data-name="Rectangle 49" width="3" height="3" rx="0.5" transform="translate(4067.179 2422.415)" fill="#070203"/>
    </g>
  </g>
</svg>
