<svg xmlns="http://www.w3.org/2000/svg" width="17" height="17" viewBox="0 0 17 17">
    <path fill-opacity=".25" fill-rule="evenodd" stroke="#000" d="M11.5 15.005c0 .41-.169.784-.44 1.055-.272.272-.648.44-1.055.44h-8.01c-.41 0-.784-.169-1.055-.44-.272-.272-.44-.648-.44-1.055v-8.01c0-.41.169-.784.44-1.055.272-.272.648-.44 1.055-.44H5.5v5.505l6 .494v3.506zm5-13.01v8.01c0 .41-.169.784-.44 1.055-.272.272-.648.44-1.055.44H11.5V5.995l-6-.496V1.995c0-.41.169-.784.44-1.055C6.211.668 6.587.5 6.994.5h8.01c.41 0 .784.169 1.055.44.272.272.44.648.44 1.055z" opacity=".64"/>
</svg>
