<?xml version="1.0"?><svg fill="#000000" xmlns="http://www.w3.org/2000/svg" viewBox="0 0 30 30" width="30px" height="30px">    <path d="M 15 2 C 11.145666 2 8 5.1456661 8 9 L 8 11 L 6 11 C 4.895 11 4 11.895 4 13 L 4 25 C 4 26.105 4.895 27 6 27 L 24 27 C 25.105 27 26 26.105 26 25 L 26 13 C 26 11.895 25.105 11 24 11 L 10 11 L 10 9 C 10 6.2263339 12.226334 4 15 4 C 17.184344 4 19.022854 5.3946656 19.708984 7.3339844 A 1.0001 1.0001 0 1 0 21.59375 6.6660156 C 20.631881 3.9473344 18.037656 2 15 2 z"/></svg>