<?xml version="1.0" encoding="utf-8"?>
<!-- Generator: Adobe Illustrator 23.0.6, SVG Export Plug-In . SVG Version: 6.00 Build 0)  -->
<svg version="1.1" id="圖層_1" xmlns="http://www.w3.org/2000/svg" xmlns:xlink="http://www.w3.org/1999/xlink" x="0px" y="0px"
	 viewBox="0 0 512 512" style="enable-background:new 0 0 512 512;" xml:space="preserve">
<style type="text/css">
	.st0{fill:#7C7B7C;}
</style>
<g>
	<path class="st0" d="M306.1,39H101.7c-31.8,0-57.5,25.7-57.5,57.5v317.8c0,31.8,25.8,57.5,57.5,57.5h203.5v-33.5H101.7
		c-13.3,0-24-10.7-24-24V96.5c0-13.2,10.8-24,24-24h167.6v89.4c0,9.8,7.9,17.7,17.7,17.7h87v92.5h33.5V146.5c0-9.3-3.5-18.2-9.7-25
		l-64.3-70.4C326.5,43.4,316.5,39,306.1,39z"/>
	<path class="st0" d="M465.5,363.1L383,295.8c-7.2-4.1-16.2,1-16.2,9.3V337h-95c-7.1,0-12.9,5.8-12.9,12.9v45.7
		c0,7.1,5.8,12.9,12.9,12.9h95v31.9c0,8.3,9,13.5,16.2,9.3l82.6-67.3C473,378.1,473,367.4,465.5,363.1z"/>
</g>
</svg>
