<svg xmlns="http://www.w3.org/2000/svg" xmlns:xlink="http://www.w3.org/1999/xlink" width="24" height="24" viewBox="0 0 24 24">
  <defs>
    <clipPath id="clip-icon-halign-mid">
      <rect width="24" height="24"/>
    </clipPath>
  </defs>
  <g id="icon-halign-mid" clip-path="url(#clip-icon-halign-mid)">
    <g id="Group_76" data-name="Group 76" transform="translate(-0.601 24.751) rotate(-90)">
      <path id="Path_121" data-name="Path 121" d="M3969.671,2420.378v-2.633h4.055v2.633a.7.7,0,0,1-.644.75h-2.767a.7.7,0,0,1-.644-.75h0Z" transform="translate(-3955.957 -2403.958)" fill="#494a4a"/>
      <path id="Path_122" data-name="Path 122" d="M3969.671,2413.009v-2.594a.7.7,0,0,1,.644-.738h2.767a.7.7,0,0,1,.644.738v2.594Z" transform="translate(-3955.957 -2401.647)" fill="#494a4a"/>
      <path id="Path_48" data-name="Path 48" d="M3973.559,2415.611h0a.683.683,0,0,1-.717.645h-14.325a.682.682,0,0,1-.716-.645h0a.682.682,0,0,1,.716-.645h14.325A.684.684,0,0,1,3973.559,2415.611Z" transform="translate(-3952.929 -2403.01)" fill="#969595"/>
      <path id="Path_119" data-name="Path 119" d="M3961.638,2422.8v-5.054h4.056v5.054a.71.71,0,0,1-.645.76h-2.765A.709.709,0,0,1,3961.638,2422.8Z" transform="translate(-3953.907 -2403.958)" fill="#494a4a"/>
      <path id="Path_120" data-name="Path 120" d="M3961.638,2412.292v-5.008a.705.705,0,0,1,.645-.752h2.765a.706.706,0,0,1,.645.752v5.008h-4.056Z" transform="translate(-3953.907 -2400.93)" fill="#494a4a"/>
    </g>
  </g>
</svg>
