<svg width="32" height="32" viewBox="0 0 30 30" fill="none" xmlns="http://www.w3.org/2000/svg">
<path d="M15 19.4241C17.1291 19.4241 18.855 17.6909 18.855 15.553C18.855 13.415 17.1291 11.6819 15 11.6819C12.8709 11.6819 11.1449 13.415 11.1449 15.553C11.1449 17.6909 12.8709 19.4241 15 19.4241Z" fill="currentColor"/>
<path d="M22.8919 10.0228H19.8409C19.6536 10.0228 19.4746 9.93713 19.359 9.78782L18.241 8.3721C18.0235 8.0237 17.6407 7.81079 17.2304 7.81079H12.7696C12.3593 7.81079 11.9765 8.0237 11.759 8.3721L10.641 9.78782C10.5254 9.93713 10.3464 10.0228 10.1591 10.0228H7.10812C6.22145 10.0228 5.5 10.7445 5.5 11.6377V20.5771C5.5 21.4675 6.2187 22.1919 7.10812 22.1919H22.8946C23.7813 22.1919 24.5028 21.4702 24.5028 20.5771V11.6377C24.5028 10.7473 23.7841 10.0228 22.8946 10.0228H22.8919ZM15 20.6684C12.1858 20.6684 9.9058 18.3789 9.9058 15.553C9.9058 12.7271 12.1858 10.4376 15 10.4376C17.8142 10.4376 20.0942 12.7271 20.0942 15.553C20.0942 18.3789 17.8142 20.6684 15 20.6684ZM22.0217 12.9262C21.5646 12.9262 21.1957 12.5557 21.1957 12.0967C21.1957 11.6377 21.5646 11.2671 22.0217 11.2671C22.4788 11.2671 22.8478 11.6377 22.8478 12.0967C22.8478 12.5557 22.4788 12.9262 22.0217 12.9262Z" fill="currentColor"/>
<path d="M9.56158 8.29468H7.77173C7.42955 8.29468 7.15216 8.57322 7.15216 8.91682C7.15216 9.26042 7.42955 9.53896 7.77173 9.53896H9.56158C9.90376 9.53896 10.1811 9.26042 10.1811 8.91682C10.1811 8.57322 9.90376 8.29468 9.56158 8.29468Z" fill="currentColor"/>
</svg>
