<svg xmlns="http://www.w3.org/2000/svg" width="32" height="32" viewBox="0 0 32 32" fill="none">
<path d="M24.5636 14.4218C24.1356 11.3236 21.483 9.0022 18.3391 9.0022C16.5266 9.0022 14.8146 9.77895 13.6222 11.1369C13.0973 10.9273 12.5443 10.8217 11.9736 10.8217C9.8406 10.8217 8.02114 12.3153 7.60018 14.3937C5.53765 14.7459 4 16.5601 4 18.6631C4 21.0533 5.94452 22.9978 8.33465 22.9978H23.6671C26.0572 22.9978 28.0018 21.0533 28.0018 18.6631C28.0018 16.6059 26.5645 14.8428 24.5636 14.4218ZM9.41788 15.2849C9.41788 13.8776 10.5627 12.7327 11.9701 12.7327C12.4685 12.7327 12.9511 12.8771 13.3686 13.1501C13.5253 13.2523 13.7067 13.3069 13.8917 13.3069C14.214 13.3069 14.5117 13.1466 14.6896 12.8789C15.5033 11.6495 16.8666 10.915 18.3373 10.915C20.7486 10.915 22.7089 12.8754 22.7089 15.2867C22.7089 15.8133 23.1369 16.2431 23.6653 16.2431C25.0004 16.2431 26.0872 17.3298 26.0872 18.6649C26.0872 20 25.0004 21.0867 23.6653 21.0867H8.33465C6.99956 21.0867 5.91281 20 5.91281 18.6649C5.91281 17.3298 6.99956 16.2431 8.33465 16.2431H8.46323C8.98987 16.2431 9.41964 15.8151 9.41964 15.2867L9.41788 15.2849Z" fill="currentColor"/>
</svg>