<svg width="32" height="32" viewBox="0 0 32 32" fill="none" xmlns="http://www.w3.org/2000/svg">
  <g>
    <path
      d="M25.0717 3H6.92826C4.76348 3 3 4.76348 3 6.92826V25.0717C3 27.2365 4.76348 29 6.92826 29H25.0717C27.2365 29 29 27.2365 29 25.0717V6.92826C29 4.76348 27.2365 3 25.0717 3ZM27.8696 25.0717C27.8696 26.6148 26.6148 27.8696 25.0717 27.8696H6.92826C5.38522 27.8696 4.13043 26.6148 4.13043 25.0717V6.92826C4.13043 5.38522 5.38522 4.13043 6.92826 4.13043H25.0717C26.6148 4.13043 27.8696 5.38522 27.8696 6.92826V25.0717Z"
      fill="currentColor" />
    <path
      d="M9.58479 13.5156H13.9907C14.6209 13.5156 15.1296 13.0041 15.1296 12.3767V8.8102C15.1296 8.17998 14.618 7.66846 13.9878 7.66846H9.58196C9.4237 7.66846 9.2937 7.79846 9.2937 7.95672V8.51063C9.2937 8.66889 9.4237 8.79889 9.58196 8.79889L13.9991 8.80737V10.0254H10.2715C10.1133 10.0254 9.98327 10.1554 9.98327 10.3137V10.8676C9.98327 11.0258 10.1133 11.1558 10.2715 11.1558H13.9907V12.3824H9.58196C9.4237 12.3824 9.2937 12.5124 9.2937 12.6706V13.2245C9.2937 13.3828 9.4237 13.5128 9.58196 13.5128L9.58479 13.5156Z"
      fill="currentColor" />
    <path
      d="M17.6363 13.5156H19.7276C21.3102 13.5156 22.6272 12.3174 22.7261 10.7856C22.7798 9.96889 22.5 9.18889 21.9433 8.59259C21.3922 8.00476 20.615 7.66846 19.8096 7.66846H17.6392C17.0118 7.66846 16.5002 8.17998 16.5002 8.8102V12.3767C16.5002 13.0041 17.0118 13.5156 17.6392 13.5156H17.6363ZM17.6363 8.80172H19.8068C20.307 8.80172 20.7733 9.00237 21.1152 9.36976C21.4572 9.73433 21.6296 10.2119 21.5957 10.715C21.5363 11.6532 20.7139 12.388 19.7276 12.388L17.6279 12.3795L17.6363 8.80454V8.80172Z"
      fill="currentColor" />
    <path
      d="M25.4222 18.7243C25.3007 18.7243 25.1848 18.7497 25.0746 18.7864L23.4157 16.339C23.4892 16.2006 23.5316 16.048 23.5316 15.8812C23.5316 15.3358 23.0879 14.8921 22.5425 14.8921C21.997 14.8921 21.5533 15.3358 21.5533 15.8812C21.5533 15.9575 21.5646 16.031 21.5788 16.1017C20.779 16.8308 18.9392 18.1308 15.9972 18.1308C13.0553 18.1308 11.2155 16.828 10.4157 16.1017C10.4327 16.031 10.4411 15.9575 10.4411 15.8812C10.4411 15.3358 9.99745 14.8921 9.45202 14.8921C8.90658 14.8921 8.46289 15.3358 8.46289 15.8812C8.46289 16.048 8.5081 16.2006 8.57876 16.339L6.91984 18.7864C6.80963 18.7497 6.69658 18.7243 6.57223 18.7243C5.98723 18.7243 5.51245 19.199 5.51245 19.784C5.51245 20.369 5.98723 20.8438 6.57223 20.8438C6.71636 20.8438 6.85202 20.8156 6.97636 20.7619C7.5331 21.474 8.55615 22.5621 10.1359 23.4438C10.1444 23.4495 10.1529 23.4551 10.1614 23.458C10.1614 23.458 10.1642 23.458 10.167 23.458C11.6196 24.2606 13.5357 24.888 15.9916 24.888C18.4475 24.888 20.3635 24.2606 21.8161 23.458C21.8161 23.458 21.819 23.458 21.8218 23.458C21.8331 23.4523 21.8388 23.4467 21.8501 23.441C23.4298 22.5593 24.4529 21.4712 25.0068 20.759C25.1311 20.8099 25.2668 20.841 25.4109 20.841C25.9959 20.841 26.4707 20.3662 26.4707 19.7812C26.4707 19.1962 25.9959 18.7214 25.4109 18.7214L25.4222 18.7243ZM23.0681 17.8425C22.7064 18.2664 21.932 19.069 20.7648 19.7756L20.129 18.3851C21.1944 17.8934 21.9575 17.2999 22.4125 16.8732L23.0681 17.8397V17.8425ZM19.072 18.7949L19.7616 20.3012C18.8629 20.7054 17.7946 21.0134 16.5653 21.0869V19.2499C17.5064 19.2019 18.3429 19.0323 19.072 18.7977V18.7949ZM15.4348 21.084C14.2366 21.0049 13.1711 20.6799 12.2611 20.2532L12.9281 18.7949C13.6601 19.0295 14.4938 19.199 15.4348 19.2471V21.0812V21.084ZM9.58767 16.8732C10.0455 17.2971 10.8057 17.8934 11.8711 18.3851L11.2607 19.7162C10.1218 19.021 9.32484 18.2438 8.94049 17.8256L9.58484 16.8732H9.58767ZM7.63767 19.7501L8.29049 18.7864C8.78506 19.3008 9.63006 20.0751 10.7831 20.7619L10.1557 22.1325C8.78223 21.248 7.97397 20.2362 7.63767 19.7501ZM11.1448 22.6921L11.7864 21.2904C12.8235 21.7708 14.0472 22.1353 15.4348 22.2173V23.7519C13.694 23.6756 12.2781 23.2488 11.1448 22.6921ZM16.5653 22.2201C17.9868 22.1467 19.2105 21.8019 20.2392 21.3412L20.8581 22.6921C19.7248 23.2488 18.309 23.6756 16.5681 23.7519V22.2201H16.5653ZM21.8444 22.1325L21.2453 20.8212C22.4153 20.1345 23.2433 19.346 23.7266 18.809L24.3625 19.7473C24.0261 20.2362 23.2179 21.2451 21.8444 22.1297V22.1325Z"
      fill="currentColor" />
  </g>
  <defs>
</defs>
</svg>
