<svg xmlns="http://www.w3.org/2000/svg" xmlns:xlink="http://www.w3.org/1999/xlink" width="32" height="32" viewBox="0 0 32 32">
<path d="M24.3265 7.63388C24.8444 7.6186 24.9964 7.78045 24.9892 8.30378C24.9595 10.5131 24.9649 12.4661 24.9865 14.6763C24.9919 15.206 24.8156 15.3489 24.2959 15.3211C20.5283 15.0819 17.5187 12.0921 17.2552 8.32626C17.2121 7.70672 17.4225 7.6168 17.9521 7.63298L24.3256 7.63478L24.3265 7.63388Z" fill="currentColor"/>
<path d="M18.0025 24.2401C17.4117 24.2608 17.2031 24.1205 17.2534 23.4704C17.5259 19.8188 20.3961 16.8982 24.0423 16.5628C24.7419 16.4981 25.0234 16.6222 24.9982 17.427L24.9919 23.5019C25 24.0576 24.8453 24.259 24.2752 24.2401H18.0016H18.0025Z" fill="currentColor"/>
<path d="M7 8.37301V23.7096C7.02158 24.0954 7.35158 24.3903 7.73734 24.3687C7.74363 24.3687 7.74903 24.3687 7.75532 24.3678C12.7926 24.429 16.8327 20.3358 16.8327 16.0422C16.8327 11.7486 13.1927 7.65546 7.75532 7.7166C7.37047 7.68513 7.03237 7.97107 7.0009 8.35593C7.0009 8.36132 7.0009 8.36672 7 8.37301Z" fill="currentColor"/>
</svg>
