<svg width="32" height="32" viewBox="0 0 32 32" fill="none" xmlns="http://www.w3.org/2000/svg">
<path d="M18.7267 7.89851L24.2737 13.4455C24.3693 13.5664 24.508 13.6453 24.6606 13.6659C24.8133 13.6865 24.9681 13.6471 25.0923 13.5559L26.7827 11.8654C26.8739 11.7413 26.9133 11.5866 26.8925 11.434C26.8718 11.2814 26.7926 11.1429 26.6716 11.0477L21.1213 5.49733C21.0258 5.37694 20.8874 5.29831 20.7351 5.27774C20.5829 5.25718 20.4285 5.29642 20.3045 5.38716L18.614 7.07766C18.5223 7.20225 18.4828 7.3577 18.5039 7.51097C18.5249 7.66424 18.6048 7.80324 18.7267 7.89851Z" fill="currentColor"/>
<path d="M10.1894 12.8964L7.86988 22.6765C7.7914 23.0015 7.83977 23.3443 8.00503 23.6349L14.3953 17.2446C14.2444 16.9597 14.2008 16.6302 14.2723 16.3158C14.3439 16.0014 14.5257 15.7231 14.785 15.5315C15.0443 15.34 15.3639 15.248 15.6854 15.272C16.0069 15.296 16.3091 15.4346 16.537 15.6626C16.765 15.8905 16.9036 16.1927 16.9276 16.5142C16.9516 16.8357 16.8595 17.1551 16.6679 17.4144C16.4763 17.6737 16.198 17.8555 15.8836 17.9271C15.5692 17.9986 15.2397 17.955 14.9548 17.8041L8.57648 24.1824C8.86525 24.3328 9.19936 24.3715 9.51487 24.2911L19.0904 21.8374C19.2682 21.7916 19.4346 21.7098 19.5798 21.5974C19.7249 21.485 19.8456 21.3442 19.9344 21.1835L22.7623 15.905C23.0508 15.3799 23.1859 14.7604 22.7631 14.3376L17.6045 9.19174C17.1768 8.76412 16.5079 8.89447 15.9836 9.1918L10.8385 12.0397C10.6774 12.1303 10.5366 12.2532 10.4249 12.4006C10.3133 12.548 10.233 12.7167 10.1894 12.8964Z" fill="currentColor"/>
</svg>
