<svg width="32" height="32" viewBox="0 0 32 32" fill="none" xmlns="http://www.w3.org/2000/svg">
  <path d="M10.999 6.99896C10.2079 6.99896 9.43457 7.23355 8.77678 7.67307C8.11899 8.11259 7.60627 8.7373 7.30352 9.46819C7.00077 10.1991 6.92156 11.0033 7.0759 11.7793C7.23024 12.5552 7.61121 13.2679 8.17062 13.8273C8.73002 14.3867 9.44272 14.7677 10.2186 14.922C10.9945 15.0763 11.7988 14.9971 12.5297 14.6944C13.2606 14.3916 13.8853 13.8789 14.3248 13.2211C14.7643 12.5634 14.9989 11.79 14.9989 10.9989C14.9989 9.93806 14.5775 8.92066 13.8274 8.17052C13.0773 7.42039 12.0598 6.99896 10.999 6.99896ZM19.0001 6.99896C18.4696 6.99896 17.9609 7.20968 17.5859 7.58474C17.2108 7.95981 17.0001 8.46851 17.0001 8.99894V12.9989C17.0001 13.5293 17.2108 14.038 17.5859 14.4131C17.9609 14.7881 18.4696 14.9989 19.0001 14.9989H23C23.5304 14.9989 24.0391 14.7881 24.4142 14.4131C24.7893 14.038 25 13.5293 25 12.9989V8.99894C25 8.46851 24.7893 7.95981 24.4142 7.58474C24.0391 7.20968 23.5304 6.99896 23 6.99896H19.0001ZM20.8177 17.0011C20.6064 16.9948 20.399 17.0585 20.2277 17.1823L17.0709 19.4773C16.9075 19.5961 16.7858 19.7635 16.7232 19.9556C16.6606 20.1477 16.6604 20.3547 16.7225 20.547L17.9292 24.2635C17.9918 24.456 18.1137 24.6238 18.2775 24.7427C18.4413 24.8616 18.6385 24.9256 18.8409 24.9255H22.741C22.9434 24.9256 23.1406 24.8616 23.3044 24.7427C23.4682 24.6238 23.5901 24.456 23.6527 24.2635L24.8606 20.547C24.9227 20.3547 24.9225 20.1477 24.8599 19.9556C24.7973 19.7635 24.6756 19.5961 24.5122 19.4773L21.3566 17.1835C21.1997 17.0703 21.0122 17.0071 20.8188 17.0023L20.8177 17.0011ZM11.0083 17.0011C10.8216 17.0001 10.6384 17.0513 10.4793 17.149C10.3202 17.2467 10.1917 17.387 10.1082 17.554L7.10822 23.5539C7.0321 23.7062 6.99611 23.8754 7.00366 24.0454C7.01122 24.2155 7.06207 24.3808 7.15139 24.5258C7.24072 24.6707 7.36559 24.7904 7.51413 24.8736C7.66266 24.9567 7.82996 25.0006 8.0002 25.001H14.0013C14.1718 25.0012 14.3395 24.9578 14.4886 24.8748C14.6376 24.7919 14.7629 24.6722 14.8526 24.5272C14.9424 24.3822 14.9936 24.2167 15.0013 24.0463C15.009 23.8759 14.973 23.7064 14.8967 23.5539L11.8968 17.554C11.8142 17.3884 11.6874 17.2489 11.5303 17.1511C11.3733 17.0533 11.1921 17.001 11.0071 17L11.0083 17.0011Z" fill="currentColor"/>
</svg>
