<svg width="32" height="32" viewBox="0 0 32 32" fill="none" xmlns="http://www.w3.org/2000/svg">
  <path
    d="M24.5837 7.41666H21.404V5.71749C21.404 5.02921 20.8484 4.47357 20.1601 4.47357H11.8363C11.148 4.47357 10.5924 5.02921 10.5924 5.71749V7.41308H7.4127C5.53069 7.41666 4 8.94736 4 10.8294V21.9672C4 23.8492 5.53069 25.3835 7.4127 25.3835H10.5924V27.0791C10.5924 27.7674 11.148 28.323 11.8363 28.323H20.1601C20.8484 28.323 21.404 27.7674 21.404 27.0791V25.3835H24.5837C26.4657 25.3835 28 23.8528 28 21.9672V10.8294C28 8.94736 26.4693 7.41308 24.5837 7.41308V7.41666ZM26.2076 21.9708C26.2076 22.867 25.4799 23.5947 24.5837 23.5947H24.0747V23.4262C24.0747 23.1896 23.8811 22.9961 23.6445 22.9961H19.6726C19.436 22.9961 19.2424 23.1896 19.2424 23.4262V23.5947H7.4127C6.51651 23.5947 5.79238 22.867 5.79238 21.9708V10.8329C5.79238 9.93675 6.52009 9.20905 7.4127 9.20905H24.5837C25.4799 9.20905 26.2076 9.93675 26.2076 10.8329V21.9708Z"
    fill="currentColor" />
  <path
    d="M23.2538 10.2594H8.74626C7.78912 10.2594 7.01123 11.0373 7.01123 11.9944V20.0099C7.01123 20.9671 7.78912 21.745 8.74626 21.745H23.2574C24.2145 21.745 24.9924 20.9671 24.9924 20.0099V11.9944C24.9924 11.0373 24.2145 10.2594 23.2574 10.2594H23.2538ZM18.0523 16.8518L16.6399 15.4394V20.2501H15.206V15.5935L13.9478 16.8518C13.7613 17.0382 13.4638 17.0382 13.2774 16.8518L12.9333 16.5076C12.7469 16.3212 12.7469 16.0237 12.9333 15.8373L15.4928 13.2778C15.629 13.1415 15.8082 13.0663 15.9982 13.0663C16.1882 13.0663 16.3711 13.1415 16.5037 13.2778L19.0632 15.8373C19.2496 16.0237 19.2496 16.3212 19.0632 16.5076L18.7191 16.8518C18.5327 17.0382 18.2351 17.0382 18.0487 16.8518H18.0523ZM8.44514 20.0135V11.998C8.44514 11.8331 8.58136 11.6969 8.74626 11.6969H10.5924V20.3146H8.74626C8.58136 20.3146 8.44514 20.1784 8.44514 20.0135ZM23.5549 20.0135C23.5549 20.1784 23.4187 20.3146 23.2538 20.3146H21.4076V11.6969H23.2538C23.4187 11.6969 23.5549 11.8331 23.5549 11.998V20.0135Z"
    fill="currentColor" />
</svg>
