<svg width="32" height="32" viewBox="0 0 32 32" fill="none" xmlns="http://www.w3.org/2000/svg">
<path d="M6.5464 24.6139V21.5001H5V24.6139C5.002 25.2462 5.25331 25.8519 5.69904 26.299C6.14478 26.746 6.74874 26.9981 7.3791 27.0001H10.5V25.4502H7.3791C7.26923 25.4503 7.16039 25.4288 7.05885 25.3867C6.95731 25.3446 6.86505 25.2829 6.78731 25.205C6.70957 25.1271 6.64788 25.0347 6.6058 24.9329C6.56373 24.8311 6.54204 24.722 6.54204 24.6118L6.5464 24.6139Z" fill="currentColor"/>
<path d="M25.4554 24.609C25.4558 24.719 25.4345 24.8281 25.3924 24.9299C25.3504 25.0317 25.2885 25.1242 25.2104 25.2023C25.1323 25.2803 25.0394 25.3424 24.9371 25.3848C24.8348 25.4272 24.7252 25.4491 24.6143 25.4494H21.5V27.0001H24.5969C25.2336 26.9981 25.8437 26.7461 26.294 26.2991C26.7442 25.8521 26.998 25.2465 27 24.6144V21.5001H25.4391L25.4554 24.609Z" fill="currentColor"/>
<path d="M24.6068 5H21.5V6.54977H24.5937C24.7046 6.54948 24.8144 6.5709 24.917 6.61281C25.0195 6.65471 25.1127 6.71628 25.1912 6.79398C25.2698 6.87169 25.3321 6.96401 25.3747 7.06566C25.4173 7.16732 25.4393 7.2763 25.4395 7.38641V10.5H27V7.38859C27.0032 6.76016 26.7551 6.15614 26.3103 5.70913C25.8656 5.26212 25.2603 5.00863 24.6275 5.00433L24.6068 5Z" fill="currentColor"/>
<path d="M6.54211 7.39047C6.54197 7.28028 6.56346 7.17114 6.60541 7.06929C6.64735 6.96745 6.70895 6.8749 6.78659 6.79693C6.86422 6.71897 6.95637 6.65711 7.05786 6.6149C7.15935 6.5727 7.26818 6.55099 7.37804 6.55099H10.5V5H7.3791C6.74874 5.002 6.14478 5.25404 5.69904 5.7011C5.25331 6.14815 5.002 6.7539 5 7.38612V10.5H6.54646L6.54211 7.39047Z" fill="currentColor"/>
<rect x="8.90005" y="8.89999" width="5.40002" height="5.40002" stroke="currentColor" stroke-width="1.2"/>
<rect x="8.90005" y="17.7" width="5.40002" height="5.40002" stroke="currentColor" stroke-width="1.2"/>
<rect x="17.7" y="8.89999" width="5.40002" height="5.40002" stroke="currentColor" stroke-width="1.2"/>
<rect x="10.5" y="10.5" width="2.20001" height="2.20001" fill="currentColor"/>
<rect x="10.5" y="19.3" width="2.20001" height="2.20001" fill="currentColor"/>
<rect x="17.1" y="17.1" width="2.20001" height="2.20001" fill="currentColor"/>
<rect x="19.3" y="19.3" width="2.20001" height="2.20001" fill="currentColor"/>
<rect x="17.1" y="21.5001" width="2.20001" height="2.20001" fill="currentColor"/>
<rect x="21.5" y="17.1" width="2.20001" height="2.20001" fill="currentColor"/>
<rect x="21.5" y="21.5001" width="2.20001" height="2.20001" fill="currentColor"/>
<rect x="19.3" y="10.5" width="2.20001" height="2.20001" fill="currentColor"/>
</svg>
