<svg width="32" height="32" viewBox="0 0 32 32" fill="none" xmlns="http://www.w3.org/2000/svg">
<path d="M25.8902 8.94165C25.0973 7.84717 24.1468 6.89684 23.0603 6.11202C20.8951 4.53971 18.3295 3.7095 15.6438 3.7095C8.67315 3.7095 3 9.38211 3 16.3548C3 19.0402 3.83028 21.6056 5.40008 23.7705C6.19031 24.8597 7.1434 25.81 8.22998 26.5975C10.3978 28.1698 12.9607 29 15.6438 29C22.6171 29 28.2902 23.3274 28.2902 16.3548C28.2902 13.6746 27.46 11.1093 25.8902 8.94165ZM15.6438 5.31118C17.6701 5.31118 19.619 5.85308 21.3303 6.88616L19.8459 8.37039C18.5564 7.68967 17.1175 7.33463 15.6438 7.33463C10.6701 7.33463 6.62281 11.3815 6.62281 16.3548C6.62281 17.8283 6.98055 19.2671 7.65866 20.5565L6.17429 22.0407C5.14378 20.3296 4.60183 18.3835 4.60183 16.3548C4.60183 10.2657 9.55416 5.31118 15.6438 5.31118ZM7.11137 23.3674L9.22311 21.2559C9.48741 20.9916 9.5328 20.5832 9.33524 20.2655C8.60641 19.0963 8.22197 17.7429 8.22197 16.3548C8.22197 12.2625 11.5511 8.93631 15.6411 8.93631C17.0294 8.93631 18.3829 9.32072 19.5522 10.0495C19.8699 10.247 20.2784 10.199 20.5427 9.93736L22.6545 7.82582C23.2098 8.28229 23.717 8.78949 24.1735 9.34741L22.0618 11.459C21.7975 11.7232 21.7521 12.1317 21.9497 12.4493C22.6785 13.6186 23.0629 14.972 23.0629 16.3574C23.0629 20.4497 19.7338 23.7785 15.6411 23.7785C14.2529 23.7785 12.8993 23.3941 11.73 22.6654C11.4123 22.4678 11.0038 22.5159 10.7395 22.7775L8.63043 24.8864C8.07513 24.4299 7.56789 23.9227 7.11137 23.3674ZM15.6438 27.3983C13.6175 27.3983 11.6712 26.8564 9.95995 25.8233L11.4416 24.3418C12.7311 25.0225 14.1701 25.3775 15.6438 25.3775C20.6201 25.3775 24.6674 21.3306 24.6674 16.3548C24.6674 14.8839 24.3097 13.445 23.6316 12.1557L25.1159 10.6715C26.1491 12.3853 26.6884 14.3313 26.6884 16.3548C26.6884 22.4438 21.7334 27.3983 15.6438 27.3983Z" fill="black"/>
<path d="M30.1991 3.70951H28.2902V1.80084C28.2902 1.35771 27.9325 1 27.4893 1C27.0461 1 26.6884 1.35771 26.6884 1.80084V3.70951H24.7796C24.3364 3.70951 23.9786 4.06721 23.9786 4.51034C23.9786 4.95347 24.3364 5.31118 24.7796 5.31118H26.6884V7.21985C26.6884 7.66298 27.0461 8.02069 27.4893 8.02069C27.9325 8.02069 28.2902 7.66298 28.2902 7.21985V5.31118H30.1991C30.6423 5.31118 31 4.95347 31 4.51034C31 4.06721 30.6423 3.70951 30.1991 3.70951Z" fill="black"/>
</svg>
