<svg xmlns="http://www.w3.org/2000/svg" width="107" height="80.994" viewBox="0 0 107 80.994">
  <g id="Group_46" data-name="Group 46" transform="translate(-4629.455 -941.963)">
    <rect id="Rectangle_61" data-name="Rectangle 61" width="13.449" height="46.269" rx="2" transform="translate(4672.791 966.247)" fill="#393a3a"/>
    <rect id="Rectangle_62" data-name="Rectangle 62" width="13.449" height="30.046" rx="3" transform="translate(4655.958 982.47)" fill="#393a3a"/>
    <rect id="Rectangle_63" data-name="Rectangle 63" width="13.449" height="19.932" rx="3" transform="translate(4639.124 992.584)" fill="#393a3a"/>
    <path id="Path_87" data-name="Path 87" d="M4635.825,1014.522V944.027a2.064,2.064,0,0,0-2.064-2.064h-2.242a2.064,2.064,0,0,0-2.064,2.064v76.865a2.064,2.064,0,0,0,2.064,2.064H4710.4a2.064,2.064,0,0,0,2.064-2.064v-2.242a2.064,2.064,0,0,0-2.064-2.064H4637.89A2.064,2.064,0,0,1,4635.825,1014.522Z" transform="translate(0)" fill="#474645"/>
    <circle id="Ellipse_25" data-name="Ellipse 25" cx="12.613" cy="12.613" r="12.613" transform="translate(4697.855 949.831)" fill="#5f5e5e"/>
    <path id="Path_88" data-name="Path 88" d="M4928.405,1180.977h46.044c0-22.539-11.839-32.4-26.695-32.4-13.421,0-18.555,9.417-19.349,11.077Z" transform="translate(-237.994 -168.972)" fill="#5f5e5e"/>
  </g>
</svg>
