<?xml version="1.0" encoding="UTF-8" standalone="yes"?>
<svg xmlns="http://www.w3.org/2000/svg" xmlns:xlink="http://www.w3.org/1999/xlink" width="60px" height="60px" viewBox="0 0 60 60" version="1.1" fill="#000000">
  <g id="surface34855">
    <path style=" stroke:none;fill-rule:nonzero;fill:#000000;fill-opacity:1;" d="M 14.953125 5.957031 C 13.296875 5.984375 11.976562 7.34375 12 9 L 12 12 L 9 12 C 7.34375 12 6 13.34375 6 15 C 6 16.65625 7.34375 18 9 18 L 12 18 L 12 43 C 12 45.726562 14.273438 48 17 48 L 42 48 L 42 51 C 42 52.65625 43.34375 54 45 54 C 46.65625 54 48 52.65625 48 51 L 48 48 L 51 48 C 52.082031 48.015625 53.089844 47.445312 53.632812 46.511719 C 54.179688 45.578125 54.179688 44.421875 53.632812 43.488281 C 53.089844 42.554688 52.082031 41.984375 51 42 L 20.828125 42 L 42 20.828125 L 42 38 L 48 38 L 48 14.828125 L 53.414062 9.414062 C 54.003906 8.839844 54.183594 7.960938 53.863281 7.199219 C 53.539062 6.441406 52.785156 5.957031 51.960938 5.980469 C 51.441406 5.996094 50.949219 6.214844 50.585938 6.585938 L 45.171875 12 L 22 12 L 22 18 L 39.171875 18 L 18 39.171875 L 18 9 C 18.011719 8.1875 17.695312 7.40625 17.121094 6.835938 C 16.546875 6.261719 15.765625 5.945312 14.953125 5.957031 Z M 14.953125 5.957031 "/>
  </g>
</svg>
