<svg width="1em" height="1em" viewBox="0 0 30 30" fill="none" xmlns="http://www.w3.org/2000/svg">
  <g>
    <path
      d="M26.2251 27.2H3.77501C3.23553 27.2 2.80005 26.7645 2.80005 26.225V3.77495C2.80005 3.23547 3.23553 2.79999 3.77501 2.79999H26.2251C26.7646 2.79999 27.2 3.23547 27.2 3.77495V26.225C27.2 26.7645 26.7646 27.2 26.2251 27.2ZM4.74997 25.2501H25.2501V4.74991H4.74997V25.2501ZM20.3233 23.5146C20.2193 23.5146 20.1153 23.4886 20.0211 23.4399L15 20.801L9.979 23.4399C9.76126 23.5536 9.49477 23.5341 9.29328 23.3911C9.09179 23.2449 8.99429 22.9979 9.03329 22.7542L9.992 17.1644L5.92967 13.2061C5.75093 13.0338 5.68918 12.7738 5.76393 12.5398C5.83867 12.3058 6.04342 12.1336 6.28716 12.0979L11.8997 11.2821L14.4086 6.1961C14.5191 5.97511 14.7433 5.83211 14.9903 5.83211C15.2373 5.83211 15.4648 5.97186 15.572 6.1961L18.0809 11.2821L23.6934 12.0979C23.9372 12.1336 24.1419 12.3058 24.2167 12.5398C24.2947 12.7738 24.2297 13.0338 24.0509 13.2061L19.9886 17.1644L20.9473 22.7542C20.9896 22.9979 20.8888 23.2449 20.6873 23.3911C20.5736 23.4724 20.4403 23.5146 20.3038 23.5146H20.3233ZM15 19.4166C15.104 19.4166 15.208 19.4426 15.3023 19.4913L19.4589 21.6752L18.6659 17.0474C18.6301 16.8362 18.6984 16.6217 18.8544 16.4722L22.218 13.1931L17.5707 12.5171C17.3595 12.4878 17.1775 12.3546 17.08 12.1629L15 7.95103L12.9201 12.1629C12.8259 12.3546 12.6439 12.4878 12.4294 12.5171L7.78209 13.1931L11.1457 16.4722C11.2985 16.6217 11.3699 16.8362 11.3342 17.0474L10.5412 21.6752L14.6978 19.4913C14.7921 19.4426 14.8961 19.4166 15 19.4166Z"
      fill="currentColor"
    />
  </g>
</svg>
