<svg width="1em" height="1em" viewBox="0 0 30 30" fill="none" xmlns="http://www.w3.org/2000/svg">
  <path
    d="M11.2002 5.13399H9.85515C9.29695 5.13399 8.84635 4.68339 8.84635 4.12519C8.84635 3.56699 9.29695 3.1164 9.85515 3.1164H11.2002C11.7584 3.1164 12.209 3.56699 12.209 4.12519C12.209 4.68339 11.7584 5.13399 11.2002 5.13399ZM21.036 4.12519C21.036 3.56699 20.5854 3.1164 20.0272 3.1164H16.8158C16.2576 3.1164 15.807 3.56699 15.807 4.12519C15.807 4.68339 16.2576 5.13399 16.8158 5.13399H20.0272C20.5854 5.13399 21.036 4.68339 21.036 4.12519ZM28 5.47025V4.12519C28 3.56699 27.5494 3.1164 26.9912 3.1164H25.6461C25.0879 3.1164 24.6374 3.56699 24.6374 4.12519C24.6374 4.68339 25.0879 5.13399 25.6461 5.13399H25.9824V5.47025C25.9824 6.02845 26.433 6.47905 26.9912 6.47905C27.5494 6.47905 28 6.02845 28 5.47025ZM28 20.777V17.9928C28 17.4346 27.5494 16.984 26.9912 16.984C26.433 16.984 25.9824 17.4346 25.9824 17.9928V20.777C25.9824 21.3352 26.433 21.7858 26.9912 21.7858C27.5494 21.7858 28 21.3352 28 20.777ZM28 13.1236V10.3394C28 9.78117 27.5494 9.33057 26.9912 9.33057C26.433 9.33057 25.9824 9.78117 25.9824 10.3394V13.1236C25.9824 13.6818 26.433 14.1324 26.9912 14.1324C27.5494 14.1324 28 13.6818 28 13.1236ZM28 26.9912V25.6461C28 25.0879 27.5494 24.6374 26.9912 24.6374C26.433 24.6374 25.9824 25.0879 25.9824 25.6461V25.9824H25.6461C25.0879 25.9824 24.6374 26.433 24.6374 26.9912C24.6374 27.5494 25.0879 28 25.6461 28H26.9912C27.5494 28 28 27.5494 28 26.9912ZM21.7858 26.9912C21.7858 26.433 21.3352 25.9824 20.777 25.9824H17.9928C17.4346 25.9824 16.984 26.433 16.984 26.9912C16.984 27.5494 17.4346 28 17.9928 28H20.777C21.3352 28 21.7858 27.5494 21.7858 26.9912ZM14.1324 26.9912C14.1324 26.433 13.6818 25.9824 13.1236 25.9824H10.3394C9.78117 25.9824 9.33057 26.433 9.33057 26.9912C9.33057 27.5494 9.78117 28 10.3394 28H13.1236C13.6818 28 14.1324 27.5494 14.1324 26.9912ZM6.47905 26.9912C6.47905 26.433 6.02845 25.9824 5.47025 25.9824H5.13399V25.6461C5.13399 25.0879 4.68339 24.6374 4.12519 24.6374C3.56699 24.6374 3.1164 25.0879 3.1164 25.6461V26.9912C3.1164 27.5494 3.56699 28 4.12519 28H5.47025C6.02845 28 6.47905 27.5494 6.47905 26.9912ZM5.13399 20.1348V16.9873C5.13399 16.4291 4.68339 15.9785 4.12519 15.9785C3.56699 15.9785 3.1164 16.4291 3.1164 16.9873V20.1348C3.1164 20.693 3.56699 21.1436 4.12519 21.1436C4.68339 21.1436 5.13399 20.693 5.13399 20.1348ZM5.13399 11.4759V10.1309C5.13399 9.57269 4.68339 9.12209 4.12519 9.12209C3.56699 9.12209 3.1164 9.57269 3.1164 10.1309V11.4759C3.1164 12.0341 3.56699 12.4847 4.12519 12.4847C4.68339 12.4847 5.13399 12.0341 5.13399 11.4759ZM4.35385 2C3.05251 2 2 3.05251 2 4.35385C2 5.6552 3.05251 6.70771 4.35385 6.70771C5.6552 6.70771 6.70771 5.6552 6.70771 4.35385C6.70771 3.05251 5.6552 2 4.35385 2ZM9.85851 24.5701L15.2354 21.7455L20.6123 24.5701C20.8376 24.6878 21.1133 24.6676 21.3218 24.5197C21.5303 24.3683 21.6311 24.1128 21.5908 23.8606L20.5652 17.8751L24.9131 13.6348C25.0947 13.4565 25.1619 13.1875 25.0846 12.9454C25.0039 12.7033 24.7954 12.5251 24.5432 12.4881L18.5341 11.6138L15.8474 6.16968C15.7331 5.94102 15.501 5.79307 15.2455 5.79307C14.9899 5.79307 14.7545 5.93766 14.6436 6.16968L11.9568 11.6138L5.94775 12.4881C5.69555 12.5251 5.4837 12.7033 5.40636 12.9454C5.32902 13.1875 5.39291 13.4565 5.57786 13.6348L9.92576 17.8751L8.90016 23.8606C8.85644 24.1128 8.96068 24.3683 9.16917 24.5197C9.28686 24.6037 9.42473 24.6474 9.56596 24.6474C9.67356 24.6474 9.78117 24.6205 9.87869 24.5701H9.85851ZM14.9193 20.3903L10.4369 22.7475L11.2944 17.7574C11.3313 17.5388 11.2607 17.3169 11.0993 17.1622L7.47439 13.628L12.4847 12.8983C12.7033 12.8681 12.8916 12.7302 12.9925 12.5318L15.232 7.99224L17.4715 12.5318C17.5691 12.7302 17.7574 12.8681 17.9793 12.8983L22.9897 13.628L19.3647 17.1622C19.2067 17.3169 19.1327 17.5388 19.1697 17.7574L20.0272 22.7475L15.5447 20.3903C15.4472 20.3399 15.3396 20.313 15.232 20.313C15.1244 20.313 15.0168 20.3399 14.9193 20.3903Z"
    fill="currentColor"
  />
</svg>
