<svg width="1em" height="1em" viewBox="0 0 30 30" fill="none" xmlns="http://www.w3.org/2000/svg">
  <path
    d="M6.11313 4.42937C6.11313 5.70457 5.08177 6.73593 3.80657 6.73593C2.53136 6.73593 1.5 5.70457 1.5 4.42937C1.5 3.15417 2.53136 2.1228 3.80657 2.1228C5.08177 2.1228 6.11313 3.15417 6.11313 4.42937ZM9.74433 24.6645L15.0132 21.8967L20.282 24.6645C20.5028 24.7799 20.773 24.7601 20.9773 24.6151C21.1816 24.4668 21.2804 24.2164 21.2409 23.9693L20.2359 18.104L24.4965 13.9489C24.6777 13.7743 24.7403 13.5106 24.6645 13.2734C24.5854 13.0362 24.3811 12.8615 24.134 12.8253L18.2457 11.9685L15.6129 6.63379C15.5009 6.40972 15.2735 6.26474 15.0231 6.26474C14.7726 6.26474 14.542 6.40642 14.4332 6.63379L11.8005 11.9685L5.91213 12.8253C5.665 12.8615 5.45741 13.0362 5.38162 13.2734C5.30583 13.5106 5.36844 13.7743 5.54967 13.9489L9.81023 18.104L8.80522 23.9693C8.76239 24.2164 8.86453 24.4668 9.06883 24.6151C9.18416 24.6975 9.31926 24.7403 9.45765 24.7403C9.5631 24.7403 9.66854 24.714 9.7641 24.6645H9.74433ZM14.7034 20.5687L10.3111 22.8786L11.1513 17.9887C11.1876 17.7745 11.1184 17.557 10.9602 17.4054L7.4081 13.9423L12.3178 13.2273C12.532 13.1976 12.7165 13.0625 12.8154 12.8681L15.0099 8.41973L17.2044 12.8681C17.3 13.0625 17.4845 13.1976 17.702 13.2273L22.6117 13.9423L19.0596 17.4054C18.9047 17.557 18.8322 17.7745 18.8684 17.9887L19.7087 22.8786L15.3163 20.5687C15.2208 20.5193 15.1153 20.493 15.0099 20.493C14.9044 20.493 14.799 20.5193 14.7034 20.5687ZM16.3444 4.08338C16.664 3.64184 16.5685 3.02236 16.1269 2.70274L15.5931 2.31392C15.2471 2.06349 14.7759 2.06349 14.4299 2.31392L13.8961 2.70274C13.4546 3.02236 13.3557 3.64184 13.6787 4.08338C13.9884 4.50845 14.5749 4.61389 15.0099 4.33381C15.1746 4.43925 15.3592 4.48868 15.5437 4.48868C15.8501 4.48868 16.15 4.34699 16.3444 4.08009V4.08338ZM22.6973 8.69652C23.017 8.25497 22.9214 7.6355 22.4799 7.31587L21.2113 6.39324C20.7697 6.07362 20.1502 6.16918 19.8306 6.61072C19.511 7.05226 19.6065 7.67174 20.0481 7.99136L21.3167 8.91399C21.4913 9.0425 21.6956 9.10181 21.8966 9.10181C22.2031 9.10181 22.5029 8.96012 22.6973 8.69322V8.69652ZM28.2496 13.1251L28.4539 12.4991C28.5857 12.0905 28.4407 11.6456 28.0947 11.3952L27.5609 11.0064C27.1194 10.6868 26.4999 10.7823 26.1803 11.2239C25.8705 11.6489 25.9496 12.2387 26.3516 12.5683C26.2198 13.0724 26.5032 13.5963 27.004 13.7578C27.1062 13.7907 27.2083 13.8072 27.3105 13.8072C27.7257 13.8072 28.1145 13.5403 28.2496 13.1251ZM25.8244 20.5918L26.3088 19.0991C26.4768 18.5785 26.1934 18.0216 25.6728 17.8536C25.1522 17.6855 24.5953 17.9689 24.4273 18.4895L23.9429 19.9822C23.7748 20.5028 24.0582 21.0597 24.5788 21.2278C24.681 21.2607 24.7831 21.2772 24.8853 21.2772C25.3005 21.2772 25.6893 21.0103 25.8244 20.5951V20.5918ZM23.6793 27.1919L23.8836 26.5658C24.0516 26.0452 23.7682 25.4883 23.2476 25.3203C22.7468 25.1588 22.2097 25.4158 22.0218 25.9002C21.5012 25.9299 21.0926 26.3615 21.0926 26.8887C21.0926 27.4159 21.5342 27.8773 22.0812 27.8773H22.7402C23.1685 27.8773 23.5475 27.6005 23.6793 27.1952V27.1919ZM16.7892 26.8854C16.7892 26.3384 16.3477 25.8969 15.8007 25.8969H14.2289C13.682 25.8969 13.2404 26.3384 13.2404 26.8854C13.2404 27.4324 13.682 27.874 14.2289 27.874H15.8007C16.3477 27.874 16.7892 27.4324 16.7892 26.8854ZM8.93703 26.8854C8.93703 26.3582 8.52514 25.9299 8.00781 25.8969C7.81999 25.4125 7.28289 25.1555 6.78204 25.317C6.26141 25.485 5.97803 26.0452 6.14608 26.5625L6.35038 27.1886C6.48218 27.5972 6.86112 27.8707 7.28948 27.8707H7.9485C8.49548 27.8707 8.93703 27.4291 8.93703 26.8821V26.8854ZM5.45082 21.2245C5.97144 21.0564 6.25482 20.4962 6.08677 19.9789L5.60239 18.4862C5.43434 17.9656 4.87747 17.6855 4.35685 17.8503C3.83622 18.0183 3.55284 18.5785 3.72089 19.0958L4.20527 20.5885C4.34037 21.007 4.72919 21.2706 5.14437 21.2706C5.24652 21.2706 5.34867 21.2541 5.45082 21.2212V21.2245ZM3.02563 13.7578C3.52648 13.5963 3.80986 13.0691 3.67806 12.5683C4.08006 12.2387 4.15914 11.6489 3.8494 11.2239C3.52978 10.7823 2.9103 10.6868 2.46876 11.0064L1.93495 11.3952C1.58897 11.6456 1.44398 12.0938 1.57579 12.4991L1.78008 13.1251C1.91518 13.5436 2.304 13.8072 2.71918 13.8072C2.82133 13.8072 2.92348 13.7907 3.02563 13.7578ZM8.71296 8.9107L9.98157 7.98807C10.4231 7.66845 10.522 7.04897 10.199 6.60743C9.87942 6.16588 9.25995 6.06703 8.8184 6.38995L7.54979 7.31258C7.10825 7.6322 7.0094 8.25168 7.33232 8.69322C7.52673 8.96012 7.82658 9.10181 8.13302 9.10181C8.33402 9.10181 8.53832 9.03921 8.71296 8.91399V8.9107Z"
    fill="currentColor"
  />
</svg>
