<svg width="1em" height="1em" viewBox="0 0 30 30" fill="none" xmlns="http://www.w3.org/2000/svg">
<path d="M14.2685 13.9004C13.6611 13.9004 13.1709 14.3906 13.1709 14.998C13.1709 15.6053 13.6611 16.0955 14.2685 16.0955H15.7319C16.3392 16.0955 16.8294 15.6053 16.8294 14.998C16.8294 14.3906 16.3392 13.9004 15.7319 13.9004H14.2685Z" fill="currentColor"/>
<path d="M2.56098 13.9004H1.09756C0.490244 13.9004 0 14.3906 0 14.998C0 15.6053 0.490244 16.0955 1.09756 16.0955H2.56098C3.16829 16.0955 3.65854 15.6053 3.65854 14.998C3.65854 14.3906 3.16829 13.9004 2.56098 13.9004Z" fill="currentColor"/>
<path d="M22.3168 13.9004H20.8534C20.2461 13.9004 19.7559 14.3906 19.7559 14.998C19.7559 15.6053 20.2461 16.0955 20.8534 16.0955H22.3168C22.9242 16.0955 23.4144 15.6053 23.4144 14.998C23.4144 14.3906 22.9242 13.9004 22.3168 13.9004Z" fill="currentColor"/>
<path d="M28.9028 13.9004H27.4394C26.832 13.9004 26.3418 14.3906 26.3418 14.998C26.3418 15.6053 26.832 16.0955 27.4394 16.0955H28.9028C29.5101 16.0955 30.0003 15.6053 30.0003 14.998C30.0003 14.3906 29.5101 13.9004 28.9028 13.9004Z" fill="currentColor"/>
<path d="M19.6313 21.0239C19.2728 20.8374 18.8301 20.9764 18.6435 21.3349C17.6008 23.3435 16.1337 24.4922 14.6191 24.4922C11.8825 24.4922 9.54106 20.7422 9.21911 16.0886C9.78984 16.0483 10.2398 15.58 10.2398 14.9983C10.2398 14.4166 9.78618 13.9483 9.21911 13.9081C9.54106 9.25077 11.8825 5.50443 14.6191 5.50443C16.0569 5.50443 17.4508 6.54345 18.4825 8.36906L16.2874 7.87882C15.8923 7.79467 15.5008 8.0398 15.413 8.43492C15.3252 8.83004 15.574 9.2215 15.9691 9.30931L20.352 10.2861C20.4033 10.2971 20.4581 10.3044 20.5094 10.3044C20.674 10.3044 20.835 10.2496 20.9667 10.1435C21.1386 10.0044 21.2411 9.79589 21.2411 9.57272V5.09467C21.2411 4.69224 20.9118 4.36297 20.5094 4.36297C20.1069 4.36297 19.7776 4.69224 19.7776 5.09467V7.69224C18.4825 5.36906 16.6167 4.04102 14.6191 4.04102C10.9825 4.04102 8.08862 8.29224 7.75203 13.9008H7.68252C7.0752 13.9008 6.58496 14.391 6.58496 14.9983C6.58496 15.6057 7.0752 16.0959 7.68252 16.0959H7.75203C8.08862 21.7081 10.9825 25.9557 14.6191 25.9557C16.6972 25.9557 18.6398 24.5178 19.9423 22.0081C20.1289 21.6496 19.9898 21.2069 19.6313 21.0203V21.0239Z" fill="currentColor"/>
</svg>
