<svg xmlns="http://www.w3.org/2000/svg" viewBox="0 0 80 80">
<path d="M40.35 57.44c-.73 11.7 6.22 14.63 9.51 13.9 3.29-.73 1.1-7.31 1.1-7.31 4.75 2.93 2.19 9.14 2.19 9.14 0 0 9.87-1.46 12.07-12.07 2.12-10.26-4.64-18.45-5.08-18.97.2.26 1.1 1.64 1.42 6.17.37 5.12-10.67 10.34-6.58-9.87C59.39 16.6 42.47 3.7 42.47 3.7c2.93 10.24 4.93 16.9 3.1 23.48-1.83 6.58-7.97 18.17-12.15 13.85-5.15-5.32 2.9-13.22 2.9-13.22-10.24 6.22-13.16 15.36-13.9 21.21-.73 5.85 3.29 14.26-1.1 12.07-4.39-2.19-2.19-8.78-2.19-8.78l.37-1.1c0 0-4.75 2.93-5.12 8.78-.32 5.16 3.27 8.39 3.27 8.39 3.54 2.66 6.65 2.66 6.65 2.66-1.5-1.2-2.54-4.42-2.86-5.54.33.79 1.68 2.79 7.21 5.83 7.31 4.02 5.85-1.83 5.85-1.83-4.39-19.75 13.9-27.79 13.9-27.79 0 0-7.31 4.02-8.05 15.72Z"/>
</svg>