<svg xmlns="http://www.w3.org/2000/svg" viewBox="0 0 80 80">
<path d="M20.04 43.24c-1.58 3.57-2.26 7.62-1.67 11.9 1.37 9.86 9.45 17.67 19.36 18.67 13.08 1.32 24.11-8.91 24.11-21.72 0-1.37-.14-2.7-.38-3.99h.02C57.76 19.96 33.65 7.52 27.31 4.72c-.25-.11-.46.21-.27.4 2.23 2.14 6.37 7.71 3.65 17.89-.12.44-.68.52-.94.15-1.5-2.19-5.84-3.25-5.84-3.25 0 0 5.51 8.44-2.25 20.29-.84 1.28-1.36 2.27-1.63 3.03ZM29.15 52.4c.09-.2.17-.4.25-.6.06-.12.24-.44.61-1 3.42-5.23 6.42-6.8 5.93-13.44.88.68 2.29 1.82 2.99 2.37.19.15.47.06.53-.18.34-1.54 1.32-6.13 1.38-8.28 5.26 5.92 9.18 13.74 10.69 22.79.03.32.08.64.14.96.38 2.07.24 3.64-.33 5.48-.62 1.97-1.6 3.82-3.09 5.25-2.22 2.14-5.13 3.32-8.23 3.32h0c-.42 0-.85-.02-1.28-.07-5.33-.54-9.74-4.79-10.48-10.11-.31-2.25 0-4.43.91-6.49ZM38.93 66.93c.36.03.72.05 1.07.05h0c2.6 0 5.04-.95 6.91-2.67 1.25-1.15 2.08-2.64 2.59-4.23.48-1.48.6-2.75.28-4.41-.05-.26-.09-.52-.12-.78-1.26-7.29-3.55-14.56-7.97-19.32-.23 1.92-1.05 5.89-1.35 7.13-.1.4-.49.57-.9.27-.59-.43-1.66-1.59-2.4-2.14.41 5.34-2.57 7.23-5.44 11.44-.31.46-.46.71-.51.81-.06.16-.13.32-.21.48-.77 1.66-1.02 3.41-.76 5.23.62 4.29 4.32 7.71 8.79 8.14Z"/>
</svg>