<svg xmlns="http://www.w3.org/2000/svg" viewBox="0 0 80 80">
<path d="M36.23 76.52c0 0-4.98-9.85-2.64-19.23 1.51-6.03 4.9-12.44 4.9-12.44 0 3.64 3.77 9.8 4.9 16.21 1.35 7.67-2.78 15.14-2.78 15.14 0 0 9.09-.57 14.84-8.36 6.41-8.67 2.01-19.04-.64-22.94-3.13-4.58-3.58-11.15-3.58-11.15 0 0-3.02 8.59-.6 14.2 2.56 5.94-.38 10.56-.38 10.56 0 0 .67-4.24-2.89-10.56-3.84-6.81-3.07-11-1.13-18.54 2.43-9.45-5.62-16.09-5.62-16.09.91.91 3.78 11.8-4.18 19.35-9.25 8.77-9.63 14.8-9.63 14.8-1.88-3.77-1.13-7.92-1.13-7.92-15.08 28.65 10.56 36.94 10.56 36.94ZM33.7 17.58c1.78 5.79 1.02 6.17 1.29 10.02 0 0 5.39-5.36 2.73-13.29-1.94-5.8.53-10.84.53-10.84 0 0-7.26 5.29-4.56 14.11Z"/>
</svg>