<svg xmlns="http://www.w3.org/2000/svg" viewBox="0 0 80 80">
<path d="M6.57 14.23c10.69-1.83 15.68 3.19 17.93 7.33.13.23-.16.47-.37.3-1.61-1.32-3.6-3.05-7.06-2.69-10.81 1.12-10.36 11.11-10.03 13.87.03.23.33.28.45.07 4.63-8.17 11.76-8.21 16.44-7.11.26.06.23.45-.04.47-2 .19-4.36.63-6.78 2.92-6.53 6.17-.75 14.26 1.33 16.76.17.2.48.03.42-.22-2.51-10.46 4.9-15.38 9.02-17.26.06-.03.14-.03.2 0 2.96 1.22 4.87 3.27 6.09 5.58.05.1.17.15.28.12l3.74-1.15-3.32 2.03c-.1.06-.14.18-.09.29.68 1.64 1.06 3.36 1.26 4.95.02.15.16.24.31.2l4.18-1.28-4.22 2.58c-.08.05-.12.13-.11.22.06 1.14.04 2.16 0 3 0 .11-.09.2-.21.22-10.3 1.48-18.14 7.91-18.48 15.68 0 .16.15.29.31.25.61-.16 1.21-.36 1.76-.64.17-.09.34-.18.51-.28.37-.21.72-.44 1.03-.7.25-.17.44-.39.67-.58.21-.2.39-.41.59-.61.17-.21.35-.42.5-.63.14-.21.29-.42.42-.62.12-.2.23-.4.34-.59.09-.19.18-.36.26-.52.04-.08.08-.16.12-.23.03-.08.06-.15.09-.22.05-.14.1-.26.14-.35.08-.19.13-.29.13-.29 0 0 .04.1.13.29.09.19.17.46.35.79.08.16.17.34.26.53.12.18.22.38.34.58.13.2.28.41.42.62.15.21.33.41.5.63.19.2.38.41.59.61.22.19.42.41.67.58.46.38.99.69 1.54.98.55.28 1.16.48 1.76.64.16.03.31.06.46.09l.11.02h.1c0 0 .2.03.2.03l.2.03c0 0 .08 0 .13.01h.16c0 0 .31.02.31.02h.16c0 0 .08.01.08.01h0c.63-.02 1.26-.08 1.86-.22.61-.16 1.21-.36 1.76-.64.55-.29 1.09-.6 1.54-.98.25-.17.44-.39.67-.58.21-.2.39-.41.59-.61.17-.21.35-.42.5-.63.14-.21.29-.42.42-.62.12-.2.23-.4.34-.59.09-.19.18-.36.26-.52.04-.08.08-.16.12-.23.03-.08.06-.15.09-.22.05-.14.1-.26.14-.35.08-.19.13-.29.13-.29h0c0 0 .04.1.13.29.09.19.17.46.35.79.08.16.17.34.26.53.12.18.22.38.34.58.13.2.28.41.42.62.15.21.33.41.5.63.19.2.38.41.59.61.22.19.42.41.67.58.46.38.99.69 1.54.98.55.28 1.16.48 1.76.64.16.03.31.06.46.09l.11.02h.1c0 0 .2.03.2.03l.2.03c0 0 .08 0 .13.01h.16c0 0 .31.02.31.02h.16c0 0 .08.01.08.01h0c.63-.02 1.26-.08 1.86-.22.61-.16 1.21-.36 1.76-.64.55-.29 1.09-.6 1.54-.98.25-.17.44-.39.67-.58.21-.2.39-.41.59-.61.17-.21.35-.42.5-.63.14-.21.29-.42.42-.62.12-.2.23-.4.34-.59.09-.19.18-.36.26-.52.04-.08.08-.16.12-.23.03-.08.06-.15.09-.22.05-.14.1-.26.14-.35.08-.19.13-.29.13-.29 0 0 .04.1.13.29.09.19.17.46.35.79.08.16.17.34.26.53.12.18.22.38.34.58.13.2.28.41.42.62.15.21.33.41.5.63.19.2.37.4.57.6 0 0 0 0 .01.01.22.19.42.41.67.58.46.38.99.69 1.54.98.2.1.4.19.61.27-.36-6.68-6.27-12.35-14.5-14.7-.11-.03-.19-.14-.18-.26.72-5.72 4.95-10.85 6-12.05.07-.08.19-.11.29-.06 3.63 1.63 5.42 6.14 6.01 7.91.07.22.39.22.46 0 1.62-5.34-.75-7.95-3.24-9.22-.21-.11-.16-.42.07-.45 3.19-.45 6.75-.23 8.11-.12.21.02.34-.23.21-.4-2.84-3.47-6.17-4.07-9.15-2.93-.23.09-.42-.18-.27-.38 2.12-2.73 5.65-3.83 7.17-4.19.23-.05.25-.37.03-.46-4.62-1.87-7.41.07-9.06 2.59-.12.19-.41.11-.44-.11-.12-1.03-.37-2.15-1.23-2.95-4.13-3.82-8.42-1.33-9.99-.17-.2.15-.07.45.17.43 5.55-.35 7.57 3.41 8.29 5.78.06.21-.16.38-.35.27-.71-.38-1.61-.53-2.95-.33-5.33.81-6.84 5.91-7.48 8.19 5.25-5.78 9.22-4.37 11.48-4.06v.03c-1.42.61-2.65 1.6-3.71 2.79-.1.11-.07.28.05.36.89.64 1.44 1.45 1.44 1.45-.57-.67-1.44-.79-2.29-.69-.07 0-.13.05-.18.1-.64.88-1.19 1.81-1.68 2.75-.06.12 0 .26.11.33 1.26.64 2.07 1.83 2.07 1.83-.68-.81-1.8-.82-2.82-.6-.08.02-.14.07-.17.15-.54 1.25-.95 2.43-1.25 3.37-.03.11-.14.17-.25.16-.62-.07-1.25-.13-1.89-.17-.13 0-.23-.13-.22-.26.27-2.91-.03-5.41-.7-7.54-1.93-5.96-6.77-9.16-9.8-10.56-.2-.09-.18-.4.03-.46 5.16-1.44 11.72.43 13.66 1.06.21.07.39-.16.29-.35-2.8-5.03-10.51-6.28-14.34-4.06-.2.11-.43-.09-.33-.3 2.11-4.74 6.92-11.47 17.17-10.86.25.02.37-.31.15-.44-2.78-1.71-12.15-6.67-17.59 0-1.02 1.25-1.78 2.5-2.36 3.73-.08.17-.31.19-.41.03-.68-1.09-1.52-2.27-2.71-3.38-7.02-6.5-16.29-.03-18.89 2.03-.2.16-.04.46.2.42ZM75.28 58.99c-.02-.08-.04-.16-.06-.23-.04-.14-.08-.26-.11-.36-.06-.2-.1-.3-.1-.3 0 0-.04.1-.13.29-.04.1-.09.21-.14.35-.03.07-.05.14-.09.22-.04.07-.08.15-.12.23-.08.16-.16.33-.26.52-.11.18-.22.38-.34.59-.13.2-.28.41-.42.62-.15.21-.33.41-.5.63-.19.2-.38.41-.59.61-.23.19-.42.41-.67.58-.45.39-1 .69-1.54.98-.55.28-1.16.48-1.76.64-.61.14-1.23.2-1.86.22h0c0 0-.08 0-.08 0h-.16c0 0-.31-.02-.31-.02h-.16c-.05 0-.1-.01-.13-.02l-.2-.03-.2-.02h-.1c0 0-.11-.03-.11-.03-.15-.03-.31-.07-.46-.09-.39-.11-.78-.23-1.16-.38-.21-.08-.41-.17-.61-.27-.55-.29-1.08-.6-1.54-.98-.25-.17-.44-.39-.67-.58 0 0 0 0-.01-.01-.2-.19-.38-.4-.57-.6-.17-.21-.35-.42-.5-.63-.14-.21-.29-.42-.42-.62-.12-.2-.23-.4-.34-.58-.09-.19-.18-.37-.26-.53-.18-.33-.26-.6-.35-.79-.08-.19-.13-.29-.13-.29 0 0-.04.1-.13.29-.04.1-.09.21-.14.35-.03.07-.05.14-.09.22-.04.07-.08.15-.12.23-.08.16-.16.33-.26.52-.11.18-.22.38-.34.59-.13.2-.28.41-.42.62-.15.21-.33.41-.5.63-.19.2-.38.41-.59.61-.23.19-.42.41-.67.58-.45.39-1 .69-1.54.98-.55.28-1.16.48-1.76.64-.61.14-1.23.2-1.86.22h0c0 0-.08 0-.08 0h-.16c0 0-.31-.02-.31-.02h-.16c-.05 0-.1-.01-.13-.02l-.2-.03-.2-.02h-.1c0 0-.11-.03-.11-.03-.15-.03-.31-.07-.46-.09-.61-.16-1.21-.36-1.76-.64-.55-.29-1.08-.6-1.54-.98-.25-.17-.44-.39-.67-.58-.21-.2-.39-.41-.59-.61-.17-.21-.35-.42-.5-.63-.14-.21-.29-.42-.42-.62-.12-.2-.23-.4-.34-.58-.09-.19-.18-.37-.26-.53-.18-.33-.26-.6-.35-.79-.08-.19-.13-.29-.13-.29h0c0 0-.04.1-.13.29-.04.1-.09.21-.14.35-.03.07-.05.14-.09.22-.04.07-.08.15-.12.23-.08.16-.16.33-.26.52-.11.18-.22.38-.34.59-.13.2-.28.41-.42.62-.15.21-.33.41-.5.63-.19.2-.38.41-.59.61-.23.19-.42.41-.67.58-.45.39-1 .69-1.54.98-.55.28-1.16.48-1.76.64-.61.14-1.23.2-1.86.22h0c0 0-.08 0-.08 0h-.16c0 0-.31-.02-.31-.02h-.16c-.05 0-.1-.01-.13-.02l-.2-.03-.2-.02h-.1c0 0-.11-.03-.11-.03-.15-.03-.31-.07-.46-.09-.61-.16-1.21-.36-1.76-.64-.55-.29-1.08-.6-1.54-.98-.25-.17-.44-.39-.67-.58-.21-.2-.39-.41-.59-.61-.17-.21-.35-.42-.5-.63-.14-.21-.29-.42-.42-.62-.12-.2-.23-.4-.34-.58-.09-.19-.18-.37-.26-.53-.18-.33-.26-.6-.35-.79-.08-.19-.13-.29-.13-.29 0 0-.04.1-.13.29-.04.1-.09.21-.14.35-.03.07-.05.14-.09.22-.04.07-.08.15-.12.23-.08.16-.16.33-.26.52-.11.18-.22.38-.34.59-.13.2-.28.41-.42.62-.15.21-.33.41-.5.63-.19.2-.38.41-.59.61-.23.19-.42.41-.67.58-.31.26-.67.49-1.03.7-.17.1-.34.19-.51.28-.55.28-1.16.48-1.76.64-.11.02-.21.04-.32.06-.51.1-1.02.14-1.54.16h0c0 0-.08 0-.08 0h-.16c0 0-.31-.02-.31-.02h-.16c-.05 0-.1-.01-.13-.02l-.2-.03-.2-.02h-.1c0 0-.11-.03-.11-.03-.15-.03-.31-.07-.46-.09-.61-.16-1.21-.36-1.76-.64-.55-.29-1.08-.6-1.54-.98-.25-.17-.44-.39-.67-.58-.21-.2-.39-.41-.59-.61-.17-.21-.35-.42-.5-.63-.14-.21-.29-.42-.42-.62-.12-.2-.23-.4-.34-.58-.09-.19-.18-.37-.26-.53-.18-.33-.26-.6-.35-.79-.08-.19-.13-.29-.13-.29 0 0-.04.1-.1.3-.03.1-.07.22-.11.37-.02.07-.04.15-.06.24-.01.09-.03.18-.04.27-.03.2-.05.41-.07.66 0 .24 0 .5 0 .79.01.28.07.58.11.9.05.32.16.64.25.99.05.17.13.34.2.51.08.17.14.36.23.53.19.34.37.71.62 1.04.47.71 1.11 1.35 1.84 1.93.74.58 1.62 1.04 2.56 1.37.24.07.48.14.72.21l.18.05.2.04.41.07.41.06c.08.01.13.02.18.02h.15c0 0 .31.03.31.03h.16c0 0 .08.01.08.01h.18c1.02-.01 2.04-.17 2.99-.49.94-.34 1.82-.8 2.56-1.38.74-.58 1.37-1.23 1.84-1.93.02-.02.03-.05.05-.07.23-.32.4-.66.58-.97.09-.17.16-.36.23-.53.07-.17.14-.33.2-.5.05.17.13.33.2.51.08.17.14.36.23.53.17.32.35.65.57.97.02.02.03.05.05.07.47.71 1.11 1.35 1.84 1.93.74.58 1.62 1.04 2.56 1.37.24.07.48.14.72.21l.18.05.2.04.41.07.41.06c.08.01.13.02.18.02h.15c0 0 .31.03.31.03h.16c0 0 .08.01.08.01h.18c1.02-.01 2.04-.17 2.99-.49.94-.34 1.82-.8 2.56-1.38.74-.58 1.37-1.23 1.84-1.93.02-.02.03-.05.05-.07.23-.32.4-.66.58-.97.09-.17.16-.36.23-.53.07-.17.14-.33.2-.5.05.17.13.33.2.51.08.17.14.36.23.53.17.32.35.65.57.97.02.02.03.05.05.07.47.71 1.11 1.35 1.84 1.93.74.58 1.62 1.04 2.56 1.37.24.07.48.14.72.21l.18.05.2.04.41.07.41.06c.08.01.13.02.18.02h.15c0 0 .31.03.31.03h.16c0 0 .08.01.08.01h.18c1.02-.01 2.04-.17 2.99-.49.94-.34 1.82-.8 2.56-1.38.74-.58 1.37-1.23 1.84-1.93.02-.02.03-.05.05-.07.23-.32.4-.66.58-.97.09-.17.16-.36.23-.53.07-.17.14-.33.2-.5.05.17.13.33.2.51.08.17.14.36.23.53.17.32.35.65.57.97.02.02.03.05.05.07.47.71 1.11 1.35 1.84 1.93.74.58 1.62 1.04 2.56 1.37.24.07.48.14.72.21l.18.05.2.04.41.07.41.06c.08.01.13.02.18.02h.15c0 0 .31.03.31.03h.16c0 0 .08.01.08.01h.18c1.02-.01 2.04-.17 2.99-.49.94-.34 1.82-.8 2.56-1.38.74-.58 1.37-1.23 1.84-1.93.25-.34.44-.7.62-1.04.09-.17.16-.36.23-.53.07-.17.15-.34.2-.51.09-.35.2-.67.25-.99.04-.32.1-.61.11-.9 0-.29.01-.55 0-.78-.02-.25-.04-.47-.07-.67-.01-.1-.03-.19-.04-.28Z"/>
</svg>