<svg xmlns="http://www.w3.org/2000/svg" viewBox="0 0 80 80">
<path d="M70.86 21.6c0-3.96-3.08-7.18-6.87-7.18-3.79 0-6.87 3.22-6.87 7.18 0 3.96 3.08 7.18 6.87 7.18 3.79 0 6.87-3.22 6.87-7.18ZM59.11 21.6c0-2.86 2.19-5.18 4.87-5.18 2.68 0 4.87 2.33 4.87 5.18 0 2.85-2.19 5.18-4.87 5.18-2.68 0-4.87-2.33-4.87-5.18ZM71.6 62.36c0-.55-.45-1-1-1h-7.46c-9.44 0-12.93-2.06-12.98-2.09-3.42-2.07-5.4-4.72-5.88-7.88-.59-3.87 1.23-7.07 1.53-7.41.39-.38.39-1.01.01-1.4-.38-.4-1.02-.41-1.41-.03-.6.58-2.66 4.21-2.17 8.67.44 3.92 2.82 7.3 6.87 9.75.15.1 3.89 2.38 14.03 2.38h7.46c.55 0 1-.45 1-1ZM62.56 67.85c.55-.04.97-.51.93-1.06-.04-.55-.52-.96-1.06-.93-14.9.95-20.18-6.21-20.24-6.3-.32-.45-.94-.56-1.39-.25-.45.32-.57.94-.25 1.39.22.31 5.21 7.24 19.17 7.24.91 0 1.85-.03 2.84-.09ZM21.83 50.18c2.33-8.42 5.45-17.47 10.82-20.82 8.48-5.28 16.13-3.26 22.73 6.02.22.31.27.71.12.89-.06.07-.13.12-.27.12-.01 0-.03 0-.04 0-.92 0-2.63-1.29-3.56-2.23-.21-.21-.49-.31-.78-.29-.29.02-.56.17-.73.4-.54.73-1.1 1.1-1.71 1.13-1.18.05-2.25-1.05-2.37-1.18-.21-.22-.52-.34-.83-.31-.31.03-.59.21-.75.47-1.36 2.21-4.37.84-4.49.78-.26-.13-.57-.13-.84-.01-2.62 1.17-6.28 4.47-7.98 9.91-1.27 4.06-1.77 10.58 3.06 18.57.19.31.52.48.86.48.18 0 .35-.05.52-.14.47-.29.62-.9.34-1.37-4.44-7.35-4.01-13.27-2.86-16.94 1.33-4.26 4.16-7.27 6.5-8.49.95.36 2.3.62 3.61.36-.7.54-1.45 1.21-2.23 2.13-.07.07-1.75 1.71-2.88 4.63-1.04 2.68-1.81 6.99.42 12.34.16.38.53.62.92.62.13 0 .26-.02.38-.08.51-.21.75-.8.54-1.31-3.75-8.99 1.77-14.53 2.07-14.83 1.47-1.71 2.68-2.44 3.85-3.14.35-.21.68-.41 1-.63.4.11.83.17 1.28.14.9-.05 1.73-.42 2.47-1.11 1.02.88 2.77 2.18 4.33 2.1.69-.03 1.28-.32 1.72-.84.75-.89.74-2.26-.02-3.34-9.12-12.83-18.85-10.65-25.41-6.56-5.96 3.71-9.25 13.19-11.69 21.98-1.22 4.4-7.06 10.11-14.36 11.67-.54.12-.88.65-.77 1.19.11.54.65.89 1.19.77 7.29-1.56 14.27-7.31 15.87-13.09Z"/>
</svg>