<svg xmlns="http://www.w3.org/2000/svg" viewBox="0 0 80 80">
<path d="M42.53 34.36c-1.03-.78-1.9-1.04-2.46-.85-.77.25-1.18 1.34-1.15 3.06.12 6.73-.91 9.38-3.66 9.47-.03 0-.06 0-.09 0-4 0-5.81-8.33-5.89-8.69-.68-1.76-1.26-1.96-1.47-1.96-.58 0-1.33 1.22-1.64 2.04-1.55 3.14-3.45 4.89-5.68 5.24-2.52.4-4.69-1.11-5.61-1.89-4.61 6.7-9.42 13.59-11.32 16.29-.35.5 0 1.19.62 1.19h57.28c-8.97-7.91-15.15-17.12-18.93-23.9ZM39.76 32.56c.56-.19 1.19-.13 1.86.12-1.79-3.36-2.92-5.94-3.44-7.2-.21-.51-.71-.85-1.26-.85h-10.62c-.52 0-.98.29-1.22.75-.8 1.59-5.05 7.9-9.64 14.57.75.64 2.71 2.07 4.89 1.73 1.89-.3 3.54-1.87 4.92-4.66.09-.23 1.05-2.64 2.56-2.64.94 0 1.73.88 2.43 2.68.49 2.28 2.28 7.97 4.93 7.97.02 0 .04 0 .06 0 1.48-.04 2.82-1.1 2.69-8.45-.05-2.96 1.13-3.79 1.83-4.03ZM66.09 41.79c-.04.26-.06.57-.06.95-.02 3.68-.95 5.58-2.76 5.64-.03 0-.05 0-.08 0-2.71 0-3.23-4.87-3.25-5.08-.12-.58-.4-1.36-.99-1.5-.64-.16-1.53.44-2.08 1.12-.4.49-.97.78-1.61.82-.73.04-1.5-.22-2.08-.76l-1.16-1.07c-.39.74-.79 1.46-1.21 2.09-.12.18-.11.41.03.57l4.01 4.89c1.17 1.36 2.4 2.68 3.66 3.96l5.01 4.82h13.39c.76 0 1.14-.93.59-1.46-5.3-5.08-9.05-10.78-11.41-15ZM62.13 35.54h-6.4c-.57 0-1.07.35-1.27.87-.39 1.02-1.11 2.8-1.97 4.57l1.37 1.26c.37.34.88.52 1.33.5.26-.02.62-.11.91-.46.7-.85 1.92-1.74 3.09-1.45.6.15 1.39.67 1.73 2.32.13 1.22.76 4.23 2.27 4.23.01 0 .03 0 .04 0 1.54-.05 1.79-2.94 1.79-4.65 0-.95.13-1.67.38-2.18-.99-1.86-1.67-3.34-2.03-4.19-.22-.5-.71-.82-1.25-.82Z"/>
</svg>