<svg xmlns="http://www.w3.org/2000/svg" viewBox="0 0 80 80">
<path d="M74.57 36.52c.49-.25.69-.85.45-1.34-.3-.59-1.15-1.98-2.13-3.59-.89-1.45-2.23-3.64-2.37-3.98-.09-.38-.39-.67-.77-.75l-5.9-1.19c-.36-.07-.74.06-.97.35-.02.03-2.2 2.71-3.35 4-.03-.05-.08-.11-.1-.15-.59-.93-1.76-3.31-2.79-5.4-.92-1.86-1.78-3.61-2.29-4.47-.02-.03-1.96-2.99-2.84-3.14-.35-.06-.82-.16-1.32-.26-1.64-.34-2.76-.56-3.4-.49-.19.02-.36.09-.51.21-.03.02-2.42 1.88-4.08 3.07-.41-.91-.85-1.85-1.33-2.82-.37-.75-1.44-2.46-1.48-2.54-.16-.25-.41-.42-.71-.46-.54-.08-5.34-.76-6.99-.52-.42.06-.85.12-6.51 6.71-.05.06-.09.12-.13.19-.69 1.32-1.4 2.7-2.07 3.97-.74-.85-1.68-1.99-2.25-2.68-.72-.87-1.94-1.16-2.98-.7l-4.37 1.94c-.63.28-1.13.78-1.39 1.42-.76 1.79-3.92 7.92-5.45 10.86-.48.92-.82 1.59-.95 1.84-.25.49-.05 1.09.45 1.34.14.07.3.11.45.11.37 0 .72-.2.9-.55.12-.25.47-.91.94-1.82 1.65-3.19 4.73-9.14 5.51-11 .07-.17.2-.29.36-.37l4.37-1.94c.22-.1.47-.04.62.15.7.85 1.99 2.41 2.77 3.27 0 0 .02.01.03.02-.84 1.57-1.48 2.75-1.68 3.05-1.26 1.23-5.65 6.49-7.15 8.43-1.03.76-2.87 2.5-4.51 4.05-.91.85-1.76 1.66-2.24 2.07-.42.36-.47.99-.11 1.41.36.42.99.47 1.41.11.51-.44 1.34-1.22 2.31-2.13 1.58-1.49 3.54-3.34 4.42-3.96.08-.06.15-.13.21-.21 1.51-1.97 6.04-7.38 7.08-8.37.15-.14.45-.42 5.03-9.28 2.2-2.55 4.7-5.34 5.41-5.96 1.13-.08 3.9.22 5.76.47.37.61.93 1.54 1.14 1.97 2.42 4.92 3.98 9.17 4.91 11.72.75 2.04.9 2.43 1.22 2.72.92.81 2.06 1.27 3.07 1.67.93.37 1.89.75 2.08 1.24 1.03 2.69 3.45 8.98 3.96 11.46.1.47.51.8.98.8.07 0 .13 0 .2-.02.54-.11.89-.64.78-1.18-.47-2.33-2.31-7.27-4.05-11.79-.5-1.3-1.88-1.85-3.21-2.38-.86-.34-1.74-.69-2.39-1.23-.14-.29-.46-1.15-.76-1.99-.63-1.73-1.56-4.25-2.84-7.23 1.39-.99 3.47-2.58 4.21-3.15.59.05 1.83.31 2.55.45.4.08.78.16 1.1.22.45.5 1.58 1.98 1.74 2.23.47.8 1.32 2.52 2.22 4.35 1.11 2.24 2.25 4.56 2.89 5.58 1.28 2.03 8.92 10.95 10.57 12.81.2.22.47.34.75.34.24 0 .47-.08.66-.25.41-.37.45-1 .09-1.41-1.76-1.99-6.64-7.7-9.08-10.81.07-.05.15-.09.21-.16.88-.98 2.41-2.84 3.12-3.7l4.81.97c.34.65 1.03 1.78 2.33 3.91.88 1.44 1.79 2.92 2.05 3.43.18.35.53.55.9.55.15 0 .3-.03.45-.11ZM21.19 45.02l4.38-5.32c.07-.08.12-.18.16-.28l4.46-11.6c.06-.15.13-.28.24-.39.34-.39 3.36-3.8 4.31-4.82.38-.4.36-1.04-.04-1.41-.4-.38-1.03-.36-1.41.04-.96 1.02-3.8 4.23-4.36 4.87-.26.29-.46.63-.6 1l-4.4 11.45-4.28 5.19c-.35.43-.29 1.06.14 1.41.19.15.41.23.64.23.29 0 .57-.12.77-.36ZM42.34 38.73c.1 1.14 1.05 2.56 3.32 5.98l1.26 1.9c.19.29.51.45.84.45.19 0 .38-.05.55-.17.46-.3.59-.92.28-1.39l-1.26-1.91c-1.77-2.66-2.94-4.42-3-5.06-.16-1.73-1.7-3.36-3.19-4.94-.72-.76-1.4-1.48-1.79-2.09-.3-.46-.92-.59-1.38-.29-.46.3-.6.92-.29 1.38.49.75 1.23 1.54 2.01 2.37 1.14 1.21 2.56 2.71 2.65 3.75ZM74 52.57c0-.55-.45-1-1-1H7.04c-.55 0-1 .45-1 1 0 .55.45 1 1 1h65.96c.55 0 1-.45 1-1ZM43.93 59.06H10.89c-.55 0-1 .45-1 1 0 .55.45 1 1 1h33.04c.55 0 1-.45 1-1 0-.55-.45-1-1-1ZM66.95 61.06c.55 0 1-.45 1-1 0-.55-.45-1-1-1h-14.85c-.55 0-1 .45-1 1 0 .55.45 1 1 1h14.85ZM36.38 67.16c0 .55.45 1 1 1h24.53c.55 0 1-.45 1-1 0-.55-.45-1-1-1h-24.53c-.55 0-1 .45-1 1ZM15.25 66.16c-.55 0-1 .45-1 1 0 .55.45 1 1 1h14.85c.55 0 1-.45 1-1 0-.55-.45-1-1-1h-14.85Z"/>
</svg>