<svg xmlns="http://www.w3.org/2000/svg" viewBox="0 0 80 80">
<path d="M75.32 45.53l-8.13-5.9c-2.22-1.5-2.67-.7-4.54-2.39-7.72-6.98-2.54-2.82-8.27-5.01-2.29-.87-4.67-6.21-6.78-6.73-2.32-.58-2.67 1.9-2.69 1.97-.05.12-.1.33-.13.43l-4.44-4.06c-1.16-1.04-.27-.5-1.62-1.04-1.14 1.34-2.15 3.55-3.2 4.23-1.42-.74-1.46-.88-2.97-.6-.41 1.51.05.51-1.06 1.9-6.07 7.55-7.43 3.74-9.76 6.77-5.1 6.61 1.14-2.28-7.25 5-2.07 1.79-2.34 1.16-4.37 2.58-1.75 1.22-2.98 1.2-4.47 2.44-1.21 1.02-2.58 2.42-3.2 3.84l75.16.06-2.26-3.49ZM16.9 43.56c1.25-1.66 3.12-4.03 6.12-3.49-.58 2.35-3.27 3.06-6.12 3.49ZM29.22 36.58c-1.17-1.64-.5-.08-.81-2.39 3.29 1.13 1.12 1.25 5.8 1.64-.85 1.46-.43.07-.7 1.86l1.42 2.02c-1.7-.57-4.58-1.53-5.71-3.12ZM42.71 40.19c-.64-3.03-.2-5.85-.71-8.03-.51-2.16-1.35-3.05-1.54-6 7.28 6.18 4.11 7.84 2.25 14.03ZM51.88 34.13c-2.11-2.8-4.53-1.21-5.15-6.62 3.22.58 9.54 9.06 10.69 13.46-1.98-1.68-3.81-4.53-5.54-6.84Z"/>
</svg>