<svg xmlns="http://www.w3.org/2000/svg" viewBox="0 0 80 80">
<path d="M70.5 35.83c.02-.21.03-.42.03-.62 0-2.98-1.81-5.54-4.39-6.64.08-.14.13-.29.13-.47 0-3.86-2.89-7.05-6.63-7.53.03-.24.04-.47.04-.71 0-4.18-3.4-7.59-7.59-7.59-2.92 0-5.57 1.72-6.82 4.32-.83-.5-1.75-.84-2.75-.98.02-.21.03-.41.03-.62 0-3.98-3.24-7.22-7.22-7.22-3.98 0-7.22 3.24-7.22 7.22 0 .18 0 .37.03.56-1.52.05-4.12.42-5.82 2.73-1.32-1.66-3.36-2.73-5.64-2.73-3.98 0-7.22 3.24-7.22 7.22 0 .2.01.41.03.62-3.52.47-6.25 3.5-6.25 7.15 0 3.98 3.24 7.22 7.22 7.22h5.22v11.43c0 .55.45 1 1 1 .55 0 1-.45 1-1v-11.43h5.22c3.98 0 7.22-3.24 7.22-7.22 0-.19-.01-.37-.03-.55h4.24v11.43c0 .55.45 1 1 1 .55 0 1-.45 1-1v-7.11c4.31 2 6.55 3.99 6.5 5.8-.13 4.42-13.24 9.2-20.28 11.76-5.78 2.11-8.78 4.96-8.92 8.49-.2 4.9 5.4 9.25 10.26 11.49.14.06.28.09.42.09.38 0 .74-.21.91-.58.23-.5.01-1.1-.49-1.33-5.57-2.57-9.23-6.42-9.1-9.59.11-2.6 2.74-4.92 7.61-6.69 11.29-4.12 21.43-8.25 21.59-13.58.09-2.88-2.7-5.51-8.5-8.05v-2.13h3.5c1.27.45 10.56 3.95 10.56 10 0 .08.03.14.04.21-.36.85-.56 1.79-.56 2.77 0 .38.04.75.09 1.11 0 0 0 0 0 0-.94 2.05-5.04 6.32-10.84 8.99-2.87 1.32-4.28 2.92-4.2 4.76.22 4.95 11.57 9.41 24.21 13.92l.39.14c.11.04.22.06.34.06.41 0 .8-.25.94-.66.19-.52-.09-1.09-.61-1.28l-.39-.14c-7.37-2.63-22.71-8.11-22.88-12.12-.05-1.18 1.62-2.21 3.04-2.85 4.92-2.26 8.89-5.68 10.85-8.37 1.24 2.19 3.59 3.67 6.28 3.67h5.22v11.43c0 .55.45 1 1 1 .55 0 1-.45 1-1v-11.43h5.22c3.98 0 7.22-3.24 7.22-7.22 0-3.65-2.73-6.68-6.25-7.15ZM22.91 35.77h-5.22v-3.13l4.22-2.81c.46-.31.58-.93.28-1.39-.31-.46-.93-.58-1.39-.28l-3.11 2.07v-5.9c0-.55-.45-1-1-1-.55 0-1 .45-1 1v4.35l-3.11-2.07c-.46-.31-1.08-.18-1.39.28-.31.46-.18 1.08.28 1.39l4.22 2.81v4.68h-5.22c-2.88 0-5.22-2.34-5.22-5.22 0-2.88 2.34-5.22 5.22-5.22h-.02c.07.01.14.02.21.02.32.03.62-.13.82-.37.2-.25.27-.57.19-.88-.13-.5-.19-.92-.19-1.32 0-2.88 2.34-5.22 5.22-5.22 2.88 0 5.22 2.34 5.22 5.22 0 .4-.06.82-.19 1.32-.08.31-.01.63.19.88.2.25.5.4.82.37.07 0 .14-.01.19-.02 2.88 0 5.22 2.34 5.22 5.22 0 2.88-2.34 5.22-5.22 5.22ZM36.34 28v-3.13l4.22-2.81c.46-.31.58-.93.28-1.39-.31-.46-.93-.58-1.39-.28l-3.11 2.07v-5.9c0-.55-.45-1-1-1-.55 0-1 .45-1 1v5.77l-3.71-2.47c-.46-.31-1.08-.18-1.39.28-.31.46-.18 1.08.28 1.39l4.66 3.11c0 0 .1.05.16.07v3.29h-4.68c-.92-2.43-3.12-4.24-5.78-4.6.02-.21.03-.42.03-.62 0-.88-.17-1.72-.46-2.5.01-.02.04-.04.05-.06 1.33-2.7 4.19-2.67 5.41-2.66h.19c.07.01.15.02.22.02.33-.02.61-.13.81-.38.2-.25.26-.57.18-.88-.13-.5-.19-.92-.19-1.32 0-2.88 2.34-5.22 5.22-5.22 2.88 0 5.22 2.34 5.22 5.22 0 .4-.06.82-.19 1.32-.08.3-.01.63.18.88.2.25.5.4.81.38.08 0 .15-.01.2-.02 2.88 0 5.22 2.34 5.22 5.22 0 2.88-2.34 5.22-5.22 5.22h-5.22ZM51.23 22.43v5.08c0 0 0 0 0 0v8.29c-1.67-2.89-4.81-4.95-7.3-6.22 2.82-.98 4.85-3.66 4.85-6.81 0-1.88-.73-3.59-1.91-4.87 0 0 0 0 0 0 .82-2.16 2.92-3.61 5.23-3.61 3.08 0 5.59 2.51 5.59 5.59 0 .43-.07.88-.21 1.42-.08.31-.01.63.19.88.2.25.49.41.82.37.07 0 .15-.01.2-.02 3.07 0 5.56 2.48 5.58 5.55-.31-.04-.63-.07-.96-.07-3.98 0-7.22 3.24-7.22 7.22 0 .2.01.41.03.62-1.06.14-2.04.52-2.9 1.07v-8.74l4.06-1.77c.51-.22.74-.81.52-1.32-.22-.51-.81-.74-1.32-.52l-3.26 1.42v-3.55c0-.55-.45-1-1-1-.55 0-1 .45-1 1ZM69.53 48.2h-5.22v-3.13l4.22-2.81c.46-.31.58-.93.28-1.39-.31-.46-.93-.58-1.39-.28l-3.11 2.07v-5.9c0-.55-.45-1-1-1-.55 0-1 .45-1 1v11.43h-5.22c-2.88 0-5.22-2.34-5.22-5.22 0-2.88 2.34-5.22 5.22-5.22h-.02c.07.01.14.02.21.02.31.02.62-.13.82-.37.2-.25.27-.57.19-.88-.13-.5-.19-.92-.19-1.32 0-2.88 2.34-5.22 5.22-5.22 2.88 0 5.22 2.34 5.22 5.22 0 .4-.06.82-.19 1.32-.08.31-.01.63.19.88.2.25.5.39.82.37.07 0 .14-.01.19-.02 2.88 0 5.22 2.34 5.22 5.22 0 2.88-2.34 5.22-5.22 5.22Z"/>
</svg>