<svg xmlns="http://www.w3.org/2000/svg" viewBox="0 0 80 80">
<path d="M63.99 58.34c-3.85-.16-6.79-3.42-9.26-6.44 1.85.14 3.74-.87 4.67-2.5-1.96-.37-3.75-1.25-4.86-2.93 1.79-.26 2.19-1.38 2.81-2.41-3 1-5.22.1-6.99-2.56 1.59.22 3-.29 3.73-1.72-1.49-.04-3.75-1.47-4.59-2.73 2.36 0 4.53-2.69 4.53-2.69 0 0-3.92 0-5.58-1.53-.5-.46-1.59-1.36-2.55-2.94 1.31.21 3.81-1.22 4.73-2.19-1.59-.33-5.33-1.65-6.26-3 1.63-.32 2.83-.75 3.57-2.01-1.99-1.22-5.53-3.15-6.42-5.33 1.54.07 2.85-.19 4.22-1.13-1.87-.89-3.51-2.26-4.74-3.94 1.1-.38 1.95-.56 2.9-1.26-3.38-1.49-4.91-5.63-7.14-8.6-1.33 2.83-3.88 7.06-6.48 8.74 1.33.92 2.97 1.38 4.58 1.28-1.27 1.65-2.94 2.97-4.83 3.82.88.83 1.98 1.4 3.16 1.63-1.99 2.03-3.29 3.05-6.16 3.89 1.4 1.46 2.01 1.79 4.37 1.88-1.43 2.47-3.09 2.86-5.93 3.6.48 2.42 2.24 2.51 4.65 2.79-2.46 2.22-4.12 3.07-7.56 3.6.5 1.9 1.9 3.07 3.63 3.93-1.39 1.31-5.08 2.4-7.05 2.66 1.45 2.55 3.52 3.9 5.59 3.9-1.37 1.92-3 3.37-6.07 3.26.69.98 1.77 1.66 2.93 1.86-1.38 1.9-3.85 3.6-5.87 4.28 1.77 1.77 4.53 1.31 7 1.02-1.78 1.67-4.25 3.47-8.67 5.46 2.66 2.28 6.5 2.48 9.18 1.27.32 1.39 2.68 3.8 2.68 3.8 0 0 1-.91 2.81-2.95 1.07 1.81 2.68 3.67 2.68 3.67 0 0 1.86-.4 3.63-1.43-.37 4.26-.87 10.13-.87 10.09 2.57 1.1 5.44 1.24 8.75 0l-.88-8.76c.93.42 1.9.74 2.91.94.51-1.51 1.03-3.03 1.54-4.54 1.46 1.59 3.06 3.04 4.79 4.32-.05-1.15.09-2.3.39-3.41 2.24 1.47 4.91 2.27 7.58 2.29-1.15-1.31-2.12-2.78-2.88-4.35 2.7.62 5.34-1.04 7.63-2.62Z"/>
</svg>