<svg xmlns="http://www.w3.org/2000/svg" viewBox="0 0 80 80">
<path d="M46.54 45.92c2.92 1.15 5.41 1.63 7.56 1.63 6.53 0 9.94-4.46 12.83-8.23 1.61-2.11 3.14-4.11 4.96-4.99.36-.17.58-.55.56-.95-.02-.4-.27-.75-.65-.89-10.41-3.89-19.83-3.47-24.58 1.1-2.91 2.8-3.72 6.78-2.29 11.21-2.5 2.84-4.62 6.33-5.97 10.61-.1-.59-.22-1.19-.35-1.78-.47-11.54 1.97-21.18 4.97-28.49 8.54-1.18 8.79-6.36 8.97-10.56.09-2.12.18-4.13 1.29-5.38.29-.32.34-.79.12-1.17-.22-.38-.65-.56-1.08-.47-6.01 1.3-9.91 3.63-11.6 6.9-1.42 2.75-1.29 6.15.38 10.1-2.51 6.15-4.62 13.89-5.04 22.95-1-2.36-2.26-4.67-3.78-6.92.07-.08.14-.16.18-.27 1.99-5.17 1.88-9.42-.33-12.64-4.29-6.25-15.16-7.05-24.15-7.05-.42 0-.79.26-.94.65-.15.39-.03.83.28 1.11 1.3 1.13 2.17 3.69 3.08 6.41 1.98 5.87 4.55 13.5 13.76 13.5 1.79 0 3.86-.31 6.2-.96 2.54 3.66 4.6 7.87 5.68 12.58.12 2.8.42 5.71.91 8.72-4.41.43-9.49 3.13-15.14 8.04-.42.36-.46.99-.1 1.41.36.42.99.46 1.41.1 3.99-3.47 9.85-7.62 15.07-7.62 5.22 0 11.08 4.14 15.07 7.62.19.17.42.25.66.25.28 0 .56-.12.75-.34.36-.42.32-1.05-.1-1.41-5.85-5.09-11.09-7.8-15.61-8.08 0-.04-.01-.09-.02-.13 0-.04.03-.07.03-.1.68-6.52 3.02-12.02 6.98-16.46ZM65.34 38.11c-3.68 4.81-7.48 9.78-17.28 6.25 2.12-2.03 4.61-3.82 7.49-5.33 5.05-2.66 9.99-3.77 12.49-4.2-.94.98-1.81 2.11-2.71 3.29ZM48.6 35.04c3.57-3.43 10.34-4.11 18.24-2.02-4.43.88-13.4 3.4-20.3 10.1-.74-3.22-.05-6.07 2.05-8.08ZM50.56 14.51c-.17 3.89-.32 7.29-6.04 8.48 2.2-4.85 4.54-8.5 6.19-10.77-.08.76-.12 1.53-.15 2.29ZM43.07 15.39c1.02-1.98 3.14-3.56 6.3-4.73-1.7 2.3-4.19 6.1-6.54 11.23-.75-2.54-.67-4.73.24-6.49ZM12.87 28.18c-.5-1.47-.96-2.83-1.5-4.03 2.91 1.6 11.72 6.89 18.3 15.48-11.93 2.98-14.52-4.66-16.81-11.45ZM31.49 38.68c-2.07-2.76-4.51-5.41-7.34-7.92-4.56-4.06-8.91-6.74-11.2-8.03 6.08.24 14.81 1.31 18.1 6.11 1.69 2.46 1.82 5.77.44 9.85Z"/>
</svg>