<svg xmlns="http://www.w3.org/2000/svg" viewBox="0 0 80 80">
<path d="M66.48 16.28c-.21-.04-.44-.16-.61-.11-.35.11-.67.33-1.02.48-.51.23-1.03.46-1.56.63-.18.06-.43-.08-.65-.13.07-.19.11-.4.22-.56.24-.35.54-.67.77-1.02.08-.12.04-.33.05-.5-.18.08-.4.11-.53.24-.5.48-.89 1.11-1.46 1.46-.67.42-5.55 3.4-6.53 3.49.16-1.26 1.13-2.34.95-5.89-.01-.24-.25-.47-.39-.7-.09.22-.26.45-.26.67.03 1.44-.39 2.77-.98 4.05-2.51 5.4-7.67 7.91-8.35 8.47-.03-.89-.21.38.9-3.8.07-.27.1-.57.06-.84-.17-1.34-.36-2.68-.55-4.02-.07-.53-.11-1.08-.25-1.59-.05-.19-.36-.31-.55-.46-.08.2-.23.41-.23.61.02.59.12 1.18.15 1.77.13 2.52-.17 4.96-.96 7.39-.86 2.65-1.9 5.2-3.29 7.61-.56.97-2.33 3.84-3.48 4.95 0-.34-.03-.68-.01-1.02.13-2.89-.07-5.8.25-8.68.31-2.84 1.5-5.42 2.52-8.08.78-2.03 1.88-3.93 2.23-6.13.16-1.01.53-2.04 1.41-2.75 1.04-.84 2.08-1.7 3.12-2.55 1.42-1.17 2.45-2.6 2.47-4.55 0-.18-.13-.36-.2-.54-.11.15-.3.3-.32.46-.15 1.41-1.13 2.1-2 3.08-1.01 1.14-2.38 1.92-3.48 2.98-.35.34-2.13 2.54-1.81 3-.67-.97-.56-3.04-.7-4.21-.25-2.09-.63-4.07.08-6.12.07-.21-.03-.48-.06-.72-.17.14-.39.26-.51.44-1.72 2.74-.71 5.14-.23 8.12.42 2.63.05 5.34-.96 7.8-.44 1.07-.91 2.13-1.4 3.18-.09.2-.3.36-.45.54-.13-.2-.3-.38-.37-.59-.45-1.35-.84-2.72-1.34-4.06-.33-.9-.35-1.78-.15-2.69.35-1.59.45-2.89.39-4.53 0-.26-.02-.53-.16-.75-.14-.22-.45-.35-.67-.2-.08.06.2 2.47.18 2.76-.02.64.1 1.55-.12 2.15-.55-.93-.57-2.08-1.17-3-.58-.88-1.33-1.63-1.79-2.59-.6-1.24-.69-2.7-.4-4.12.12-.58.24-1.16.31-1.75.02-.17-.09-.37-.15-.55-.13.14-.35.26-.37.42-.22 1.38-.41 2.76-.62 4.14-.03.22-.09.44-.14.66-.22-.09-.47-.14-.64-.29-.47-.4-.89-.86-1.36-1.26-.11-.1-.32-.08-.48-.11 0 .17-.05.36 0 .51.05.14.19.26.31.36.74.62 1.5 1.21 2.22 1.85.24.21.37.55.55.83-.24.09-.49.16-.72.26-.1.04-.19.13-.29.19.1.02.21.05.31.05.5 0 1.03-.11 1.37.45.33.55.75 1.05 1.05 1.62.4.76.83 1.53 1.04 2.35.25.95.28 1.97.42 2.95.32 2.18.66 4.36.98 6.54.16 1.11.38 2.23.41 3.34.04 1.4-.03 2.8-.15 4.19-.07.84-.26 3.44-.92 4.38-3.3-4.78-3.71-16.76-3.74-21.59 0-1.08-.44-1.77-.94-2.69-.19-.34-1.96-2.26-1.93-2.38-.13.78.44 1.49.96 2.09.44.5.9 1.07.94 1.76.01.22-.37 1.16-.16 1.29-.95-.57-1.72-1.45-2.14-2.48-.12 0-.23 0-.35 0 0 .91.64 1.68 1.22 2.38.82.99 1.29 2.08 1.29 3.36 0 2.13.42 4.18.25 6.31-.67-.65.05-1.68-5.75-6.56-1.64-1.38-2.79-3.11-3.76-4.99-.29-.56-.5-1.17-.72-1.76-.13-.35-.19-.81-.69-.69-.47.12-.6.47-.39.95 1 2.26 1.72 4.28 3.79 5.86-1.8-.12-3.1-.53-4.77-1.23-.49-.2-1.03-.4-1.39-.75-.27-.26-.44-.32-.61-.07-.13.19-.2.61-.09.73.25.26.61.44.95.58 9.15 3.66 12.33 3.38 16.71 24.29.15.72.21 3.1.71 3.59-2.32-2.25-8.46-5.99-7.88-13.31.09-1.18-.29-2.28-.95-3.25-.19-.28-.66-1.11-1.03-1.16-.63-.09-.65.55-.36.99.21.31.52.53.75.83.64.82.51 1.97.49 3.02-.03 1.64.29 3.28.93 4.79-1.01-.37-1.73-1.14-2.66-1.63-.83-.44-1.59-.96-2.03-1.83-.2-.41-.48-.78-.71-1.17-.41-.69-.75-1.43-1.23-2.08-1.17-1.6-2.96-2.38-4.62-3.3-.42-.23-.86-.47-1.32-.61-.2-.06-.47.13-.71.2.15.16.28.35.46.47.75.51 1.57.94 2.27 1.51.93.75 2.02 1.14 2.87 2.05.43.46.79.97 1.09 1.51.11.2.5 1.55.62 1.59-.68-.26-2.44-1.78-2.96-1.12-.33.42.08.63.35.82.37.26.78.46 1.17.7.08.05.13.16.19.24-.11.06-.21.15-.33.17-.42.08-.86.1-1.27.21-.13.03-.25.26-.28.42-.01.06.22.24.35.25.32.02.64-.04.96-.04 1.05 0 2.14-.16 3.12.1 1.09.29 2.07.98 3.09 1.5.71.36 1.48 1.51-.11 2.26-5.01 2.36-5.88.3-7.45.52.81 1.37 2.68 1.55 4.24 1.49 6.45-.25 1.69-5.86 11.71 5.6 2.25 2.58 2.39 12.39 2.35 13.07-1.54-.72-3.4-.77-4.33-2.45-1.14-2.06-1.51-4.29-.99-6.62.1-.45.28-.87.38-1.32.03-.13-.11-.29-.17-.43-.85.37-.63-.34-.65-.7-.03-.42.06-.85.06-1.28 0-.13-.11-.26-.17-.39-.12.09-.29.16-.33.28-.16.47-.43 2.16-.06 2.57-.41-.45-.8-.99-1.29-1.37-.48-.37-1.07-.53-1.49-.99-.48-.53-.5-1.33-.64-2.01-.15-.73-.54-.85-.77-.66-.18.97-.41 1.6.1 2.46.48.8 1.28 1.53 2.13 1.91.44.2.91.66 1.06 1.1.31.93.49 1.93.58 2.91.13 1.41.35 2.77 1.04 4.03.14.26.17.59.25.88-2.52-.36-7.48-3.74-8.88-5.51-1.06-1.34-2.05-2.75-3.07-4.12-.06-.08-.16-.12-.24-.18-.03.09-.11.21-.08.28.25.55.48 1.12.79 1.64.42.71.9 1.39 1.35 2.08.32.5.19.58-.39.57-1.61-.03-3.23 0-4.84.07-.3.01-.58.34-.87.52.31.06.62.19.93.18.94-.03 1.88-.1 2.81-.19 1.22-.13 2.27.21 3.2 1.01.38.33.85.56 1.3.81 15.54 8.71 13.19 2.83 13.32 21 0 .44.2.69.7.69.16 0 .4.17.48.32.3.6.84.88 1.36.54.42-.28.7-.53 1.01.08.03.05.39-.02.56-.1 2.66-1.41-.46-6.28.36-8.13.47-1.06 1.22-2.05 2.04-2.88 1.09-1.1 2.35-2.04 3.57-3.01 1.62-1.29 3.21-2.62 4.92-3.78 2.42-1.64 4.64-3.41 5.8-6.21.14-.33.41-.63.68-.88 1.12-1.07 2.13-2.3 3.69-2.79.08-.03.13-.2.17-.31 0-.02-.11-.11-.17-.12-2.05-.53-4.27 2.66-5.28 3.94-.14.17-.26.35-.4.53-.07-.22-.15-.44-.22-.67-.41-1.3-.77-2.63-1.26-3.9-.32-.84-1.12-1.21-1.96-1.41-.17-.04-.38.1-.57.16.12.13.21.29.35.4.4.31.95.52 1.2.92.89 1.45 1.53 3 1.59 4.77.09 2.55-2.57 3.77-4.33 4.96-1.16.78-2.3 1.59-3.45 2.38-.08.06-.2.07-.29.1.04-.11.06-.23.14-.31.81-.88 1.75-1.68 2.1-2.85.22-.71.52-2.7-.22-3.26-.16-.12-.41.04-.46.24-.05.2.04.4.1.6.53 1.66-.6 3.31-1.74 4.42-1.2 1.17-2.65 2.05-3.81 3.25-.58.6-2.91 2.18-2.85 3.1-.16-2.54-.6-5.05-.81-7.61-.21-2.68 1.94-4.33 2.85-5.26 1.77-1.81 3.55-3.6 4.83-5.81 1.04-1.8 1.74-3.75 2.23-5.77.34-1.41 2.77-.85 3.94-1.08 1.39-.27 2.79-.53 4.13-.99 1.15-.39 2.18-1.08 3.49-1.08.87 0 1.73-.33 2.6-.53.09-.02.15-.13.23-.2-.1 0-.2 0-.3 0-.85.11-1.7.23-2.55.33-.14.02-.29-.09-.44-.13.07-.13.12-.28.22-.39.75-.8 1.52-1.58 2.27-2.38.13-.13.19-.33.28-.5-.19.04-.41.03-.56.13-.97.65-1.94 1.31-2.88 2-1.34.98-2.88 1.54-4.39 2.18-1.5.64-3.06.81-4.64.92-.94.06-1.1-.24-.61-1.05.15-.25.35-.48.56-.69.5-.48 1.09-.89 1.54-1.42.7-.83 1.61-1.09 2.62-1.27.57-.1 1.12-.32 1.66-.55.44-.19.85-.47 1.25-.74.26-.17.49-.4.73-.6-.36-.03-.73-.1-1.09-.08-.17 0-.33.16-.5.25-.76.4-1.52.8-2.29 1.17-.17.08-.4.02-.6.03.07-.16.11-.35.21-.49.57-.85 1.2-1.66 1.73-2.53.4-.66.7-1.39.99-2.1.06-.13-.1-.36-.15-.54-.16.07-.39.09-.47.21-.39.58-.74 1.18-1.1 1.78-.36.62-.61 1.34-1.08 1.85-1.03 1.12-2.17 2.15-3.28 3.2-.1.1-.28.11-.42.16-.03-.12-.08-.24-.1-.37-.02-.13.02-.29-.04-.4-.09-.16-.24-.29-.37-.43-.11.13-.29.25-.32.4-.07.28-.04.59-.1.88-.02.1-.17.18-.25.27-.08-.1-.22-.2-.22-.3.01-.43.1-.86.1-1.28 0-.26-.1-.52-.16-.78-.21.24-.45.45-.6.72-.08.14 0 .37 0 .55 0 .48.07.97-.03 1.43-.44 2.05-.85 4.12-1.43 6.13-.31 1.09-.76 2.23-1.45 3.11-1.84 2.34-3.85 4.56-5.8 6.82-1.2 1.39-1.6-13.19 1.73-14.49.65-.25 1.35-.39 1.98-.68.54-.25.98-.2 1.44.12.46.32.91.68 1.39.96.21.12.51.08.77.12-.11-.22-.16-.51-.33-.65-.43-.36-.94-.62-1.38-.97-.89-.7-.88-.74-.25-1.66.09-.13.2-.26.26-.41.07-.18.1-.38.14-.57-.15.09-.33.16-.45.28-.56.54-1.09 1.12-1.69 1.62-.2.17-.58.12-.88.17.03-.24 0-.52.1-.72.52-1 1.03-2.02 1.65-2.96.29-.43.83-.69 1.27-1.02.1-.08.25-.11.35-.19.07-.06.1-.18.15-.27-.09 0-.19-.03-.28 0-.59.15-.45-.16-.27-.45 1.79-2.94 8.06-9.35 16-12.92 1.63-.74 3.53-.81 5.2-1.59.18-.08.27-.35.41-.53Z"/>
</svg>