<svg xmlns="http://www.w3.org/2000/svg" viewBox="0 0 80 80">
<path d="M77.56 40.51c-3.3-3.74-6.73-5.64-10.2-5.65h-.04c-1.59 0-2.97.4-4.09.92.4-1.1.68-2.41.59-3.89-.2-3.47-2.28-6.79-6.19-9.89-.24-.2-.6-.19-.84.02-.24.21-.3.55-.14.83 1.38 2.41 2.19 6.14 2.65 9.4-.22-.33-.46-.65-.74-.97-2.31-2.59-6-3.91-10.98-3.91h0c-.32 0-.58.22-.64.53 0 .05 0 .1 0 .15-2.25-1.91-4.66-3.16-7.24-3.72-1.48-.32-2.88-.38-4.18-.29 5.26-2.45 12.47-5.29 17.81-5.44.32 0 .58-.24.63-.55.05-.31-.13-.62-.42-.72-7.35-2.7-13.49-2.78-18.27-.22-1.18.63-2.19 1.38-3.05 2.18 2.59-5.03 6.26-11.15 10.11-14.39.24-.2.31-.55.15-.82-.15-.27-.48-.4-.78-.3-7.44 2.44-12.3 6.2-14.46 11.17-1.17 2.7-1.35 5.32-1.16 7.46-1.4-1.49-3.33-3.01-5.9-3.94-5.09-1.85-11.17-.9-18.05 2.82-.28.15-.41.48-.31.77.09.3.38.49.7.46 4.99-.58 11.95.97 17.39 2.55-1.17.08-2.4.3-3.67.72-5.14 1.71-9.31 6.22-12.4 13.42-.12.29-.03.63.24.8.11.08.24.11.37.11.17 0 .34-.07.46-.19 3.78-3.78 10.8-7.06 16.19-9.19-.96.88-1.88 1.94-2.66 3.23-2.8 4.64-3.05 10.78-.74 18.25.09.28.34.46.63.46.02 0 .05 0 .07 0 .31-.03.56-.29.58-.6.41-5.07 3.34-11.7 5.97-16.74-.13.96.1 1.92.67 2.71.59.81 1.45 1.34 2.44 1.5.2.03.4.05.6.05.6 0 1.18-.15 1.71-.42 2.27 10.35 2.4 26.31 1.37 35.54h0c0 .06 0 .11 0 .17v1.41h14.66v-.58c.02-.06.04-.12.04-.19.01-4.61 1.06-17.54 10.44-31.95.14-.05.27-.12.4-.2.03.04.06.09.09.13.57.64 1.37.97 2.16.97.39 0 .78-.09 1.14-.24.44 3.49.71 7.9-.13 10.89-.09.3.06.62.34.76.09.05.19.07.29.07.2 0 .39-.09.52-.26 3.03-3.96 4.22-7.7 3.56-11.11-.1-.52-.24-1.01-.41-1.47 2.52 2.34 5.38 5.36 6.63 8.06.11.24.35.38.6.38.05 0 .11 0 .16-.02.31-.08.51-.36.5-.67-.26-4.98-1.77-8.6-4.49-10.77-.33-.26-.67-.49-1-.69 3.28.29 7.05.9 9.53 2.15.1.05.2.07.3.07.2 0 .39-.09.52-.26.19-.25.18-.6-.03-.84ZM57.57 32.14c1.45 1.63 1.95 3.53 2.11 4.87-1.83-2.02-5.49-5.8-9.13-8.14 3.09.41 5.44 1.51 7.02 3.27ZM55.74 34.83c-.47-.14-.96-.26-1.49-.33-.63-.09-1.28-.09-1.93-.05-1.4-2.2-2.9-4.07-4.48-5.58 2.64 1.21 5.58 3.71 7.91 5.96ZM39.41 25.61c4.21.91 8 3.86 11.29 8.76-6.7-4.01-16.95-6.49-20.97-7.37 1.9-.96 5.51-2.3 9.68-1.39ZM36.35 32.39c-.21 1.32-1.45 2.22-2.77 2.01-.64-.1-1.2-.45-1.58-.97-.38-.52-.53-1.16-.43-1.81.1-.64.44-1.2.97-1.58.42-.3.91-.46 1.42-.46.13 0 .26.01.39.03 1.32.21 2.22 1.45 2.01 2.78ZM35.9 18.26c2.12-1.13 4.56-1.7 7.28-1.7 2.15 0 4.48.35 6.98 1.05-7.7 1.29-17.11 6.04-20.74 7.99.83-1.97 2.72-5.33 6.48-7.34ZM28.45 15.45c1.72-3.94 5.34-7.09 10.78-9.36-5.11 5.66-9.45 14.91-11.18 18.86-.09-.15-.2-.3-.31-.46-.49-2.15-.81-5.55.7-9.03ZM5.51 21.08c5.39-2.39 10.16-2.85 14.21-1.39 3.36 1.22 5.54 3.55 6.8 5.36.08.31.15.58.23.84-4.13-1.48-13.7-4.62-21.24-4.8ZM6.36 36.94c2.75-5.22 6.19-8.55 10.27-9.91 1.49-.5 2.93-.68 4.27-.68 2.29 0 4.26.55 5.52 1.03-3.91 1.3-13.83 4.87-20.06 9.57ZM25.65 31.26c0 0 0 .01-.01.02-2.49 4.39-6.12 11.47-7.48 17.57-1.29-5.75-.83-10.53 1.39-14.21 2.2-3.65 5.67-5.36 7.67-6.08-.42.7-.97 1.62-1.58 2.7ZM31.04 36.22c-.07.46-.28.88-.58 1.22-.1.06-.19.13-.24.23-.05.04-.1.09-.15.13-.52.38-1.16.54-1.8.43-.64-.1-1.2-.45-1.58-.97-.38-.52-.53-1.16-.43-1.8.1-.64.45-1.2.97-1.58.42-.3.91-.46 1.42-.46.13 0 .26.01.39.03.64.1 1.2.45 1.58.97.38.52.53 1.16.43 1.8ZM30.26 31.41c-.06.36-.04.72 0 1.07-.32-.16-.67-.28-1.03-.34-.68-.1-1.36-.01-1.98.24-.15-.21-.26-.43-.34-.67.95-1.67 1.71-2.92 2.08-3.52.37.08.83.18 1.34.3.04.1.09.2.17.28.26.24.44.53.58.85-.43.51-.72 1.12-.83 1.79ZM38.58 74.69h-5.47c.98-9.68.78-26.23-1.6-36.46.43-.51.72-1.12.83-1.8h0c.06-.36.04-.72 0-1.07.25.12.51.21.78.28 3.29 7.09 6.17 23.69 5.46 39.06ZM34.57 35.69c1.54-.26 2.82-1.47 3.08-3.09h0c.13-.81-.02-1.6-.37-2.28 3.95 1.17 8.44 2.77 12.01 4.76-1.93.67-3.92 1.86-5.94 3.58-.24.2-.3.55-.15.82.12.21.34.33.57.33.07 0 .14-.01.21-.03 2.61-.88 6.38-.95 9.65-.78-.4.47-.64 1.06-.68 1.69-.04.72.19 1.41.64 1.97-3.68 4.04-10.41 16.08-13.61 28.79.2-14.23-2.41-28.77-5.42-35.75ZM45.13 74.69h-4.54c2.77-13.57 10.2-27.09 14.04-31.22.2.09.4.15.62.2-8.6 13.62-9.99 25.84-10.12 31.03ZM56.71 42.16c-.28.19-.6.29-.95.26-.42-.03-.81-.21-1.09-.53-.28-.32-.42-.72-.4-1.14.02-.42.21-.81.53-1.09.32-.28.74-.42 1.14-.4.42.02.81.21 1.09.53.04.05.07.11.1.16-.44.66-.58 1.46-.42 2.21ZM50.98 37.59c-1.49 0-2.99.07-4.4.26 1.44-.93 2.85-1.55 4.22-1.87.6.39 1.16.78 1.67 1.19.12.1.27.15.41.15.14 0 .3-.05.42-.16.24-.2.3-.55.15-.82-.12-.21-.24-.41-.36-.62.32 0 .64.03.95.07 2.16.3 3.77 1.42 4.76 2.34-1.82-.23-4.78-.54-7.83-.54ZM59.44 43.13c-.42-.02-.81-.21-1.09-.53-.58-.65-.52-1.65.13-2.23.43-.38 1.01-.49 1.55-.31.13.7.3 1.65.45 2.73-.3.23-.66.36-1.04.34ZM61.17 37.02c0 0-.02.02-.03.02-.19-2.73-.71-7.94-2.1-12.02 2.16 2.24 3.33 4.56 3.47 6.92.13 2.15-.64 3.92-1.34 5.07ZM62.32 52.39c.35-4.31-.44-9.52-.93-12.2.96.93 2.17 2.47 2.58 4.62.45 2.33-.11 4.87-1.65 7.58ZM67.44 41.11c1.84 1.48 3.06 3.77 3.64 6.83-2.53-3.51-6.5-6.96-8.61-8.68 1.35.09 3.27.48 4.97 1.85ZM62.32 37.81c1.11-.77 2.88-1.64 5.04-1.64 2.37.01 4.74 1.05 7.1 3.1-4.16-1.18-9.41-1.42-12.14-1.46Z"/>
</svg>