<svg xmlns="http://www.w3.org/2000/svg" viewBox="0 0 80 80">
<path d="M31.54 40.41c-.31-8.16-8.69-16.93-16.43-22.42l-.03-.02c-.26-.14-.76-.27-1.25.4l-.04.1c-.27 1.42-.58 2.84-.92 4.34-2.02 9.1-4.31 19.38 6.68 27.48.72.53 1.55.93 2.42 1.13l2.04.31c1.99.33 3.34 3.88 4.23 7.92.25 1.14.49 2.21.78 3.09 0 0 2.05-2.34-.96-9.29-.45-1.04-.73-1.61-1.08-2.67 3.28-2.77 4.7-6.59 4.56-10.38ZM26.73 31.88c.06.14.11.28.17.41.31.67.57 1.18 1.19 1.96-.83 1.22-3.21 4.17-5.81 5.75-.48-.9-.9-2.64-.9-2.64 0 0 1.77-1.94 3.43-3.54.67-.64 1.35-1.29 1.93-1.94ZM25.54 29.95c-.38 1.1-1.6 2.26-2.78 3.39-.65.62-1.31 1.26-1.85 1.89-.49-1.05-.68-2.31-.68-2.31 0 0 1.15-1.35 2.13-2.47.58-.66 1.18-1.34 1.61-2.02l1.57 1.51ZM22.95 26.84c-.93 1.48-1.97 2.75-3.24 3.97-.09-.32-.12-.64-.16-.97-.07-.64-.23-1.22-.61-1.98.94-.86 1.64-1.75 2.18-2.79l1.84 1.77ZM19.14 23.17c.23.23.46.45.68.67-.04.55-.68 1.18-1.29 1.79-.07.06-.13.13-.2.19l-.02-.05c-.62-1.58-1.26-3.21-2.22-4.82.97.17 2.03 1.21 3.05 2.22ZM14.74 22.1c.72.42 1.03 1.57 1.37 2.63.15.49.3.96.49 1.35-.6-.02-1.22-.39-1.88-.77-.19-.11-.38-.22-.57-.33.27-.82.58-1.93.59-2.87ZM13.98 26.77l.04-.09c2.38.93 4.19 2.05 4.11 4.55-.89-.11-1.87-.26-2.89-.39-.6-.07-2.1-.36-2.1-.36.26-1.85.33-2.41.84-3.71ZM12.91 32.28c0 0 3.84-.02 5.73.79.01.96.4 2.14.7 2.97-2.04.2-4.54-.3-6.52-.8-.12-.9.09-2.96.09-2.96ZM12.93 37.45c-.03-.12-.06-.24-.07-.48.91.05 1.79.23 2.69.4 1.33.26 2.7.53 4.06.39.25.47.7 2.33.95 2.74-1.96.66-3.88.87-6.21.85-.81-1.25-1.12-2.59-1.42-3.9ZM18.4 46.96c-1.37-1.17-2.32-2.44-3.33-3.89.73-.13 1.31-.17 2.03-.23 1.26-.11 2.55-.23 3.84-.68.45.7.72 1.39 1.01 2.12.27.7.39 1.12.83 1.84-1.08.12-3.76.73-4.39.84ZM20.21 48.64c.28-.05.57-.12.85-.18 1.42-.33 2.66-.62 3.25.98-1.22.28-2.63.33-4.1-.8ZM22.65 41.95c1.34-.65 2.65-2.12 3.92-3.55.7-.79 1.43-1.6 2.14-2.26.54.78.91 3.41 1.08 3.92l-5.45 5.66c-.46-1.21-.97-2.49-1.7-3.77ZM26.1 49.02c-.45-.03-.66-.49-.94-1.23-.07-.18-.08-.22-.15-.39 1.1-.45 2.1-1.8 3.13-2.96.49-.55.99-1.12 1.48-1.59.06 1.9-1.1 3.93-3.52 6.18ZM34.45 70.52c1.39-.76 2.41-2.43 3.31-3.9.36-.58.69-1.13 1.03-1.6 7.17-1.37 13.7-5.2 19.96-11.72 5.77-6 8.32-15.25 9.73-21.68 1.26-5.72 2.62-13.87-.11-18.49l-.08-.13h-.16c-7.25.58-14.09 3.78-19.76 9.27-12.49 12.07-12.27 31.68-11.02 42.34-.26.75-.9 1.55-1.52 2.32-.88 1.11-1.8 2.25-1.76 3.39l.02.41.35-.2ZM43.3 62.3c-1.27.42-2.57.86-3.77 1.42.12-.53.5-1.09.87-1.64.41-.61.83-1.23.96-1.87 2.75.08 5.65-.04 8.53-1.13-1.86 1.65-4.26 2.45-6.59 3.22ZM42.22 58.7c.42-.55.65-1.08.88-1.61.2-.46.39-.89.69-1.32.58-.09 1.15-.18 1.73-.27 4.07-.63 8.27-1.27 12.39-3.16-4.62 5.81-10.95 6.71-15.69 6.35ZM49.04 53.56c-1.57.24-3.06.46-4.39.81-.01-.6.38-1.23.79-1.91.26-.43.53-.88.7-1.32.59-.12 1.18-.24 1.77-.35 4.62-.91 9.39-1.86 14.04-4.28-2.31 5.45-7.92 6.3-12.9 7.04ZM47.01 49.18c.85-1.24 1.38-2.44 1.78-3.49l.68-.11c4.85-.8 9.85-1.62 14.73-4.38-.77 6.42-13.45 7.73-17.19 7.98ZM52.38 43.68c-.9.14-1.76.27-2.51.42.1-.62.52-1.3.93-1.95.35-.56.71-1.14.9-1.72h.05c4.57-1.01 9.29-2.04 13.89-4.63-.65 5.95-7.92 7.06-13.25 7.88ZM56.75 37.85c-1.51.35-2.94.68-4.13 1.12.55-2.26 2.51-2.77 4.76-3.35 1.08-.28 2.21-.57 3.26-1.08 1.35-.65 2.45-1.36 3.52-2.05.98-.63 1.9-1.23 2.95-1.74-.39 4.78-5.67 6.01-10.35 7.1ZM67.99 26.33c-.13.79-.26 1.61-.3 2.42l-.96.61c-3.98 2.56-8.08 5.2-12.18 5.54 1.59-4 4.64-5.63 7.86-7.36 1.98-1.06 4.03-2.16 5.88-3.86-.02.88-.16 1.77-.3 2.64ZM68.43 17.59c.07 0 .09.02.11.03.25.21.17 1.28.11 2.05-.05.65-.1 1.27-.02 1.71-2.37 2.8-4.85 4.08-7.25 5.33-.95.49-1.93 1-2.9 1.6 1.1-3.65 4.29-6.18 7.66-8.85.76-.6 1.55-1.23 2.31-1.86ZM65.94 14.03c-.86 1.02-1.99 2.45-3.04 3.84.63-1.82 1.55-3.5 3.04-3.84ZM67.74 14.42c.3.39.42.77.37 1.16-.14 1.16-1.76 2.29-3.34 3.39-.66.46-1.32.92-1.9 1.4 1.16-2.13 2.8-4.5 4.87-5.96ZM62.64 15.25c-.72 1.62-1.31 3.25-1.89 4.83-.96 2.64-1.96 5.37-3.52 8.02-.04.04-.07.07-.09.1-.02-.06-.05-.12-.09-.18.02-.32.05-.65.07-1 .27-4.14.68-10.34 5.52-11.77ZM57.72 17.3c-1.22 2.62-1.39 5.22-1.56 7.74-.22 3.26-.43 6.35-2.68 9.58-1.33-5.96-.84-13.34 4.24-17.32ZM49.39 26.96c.29-3.42 1.65-5.75 4.39-7.5-.18.66-.38 1.32-.57 1.98-1.41 4.82-2.88 9.8-.51 14.6-.19.32-.36.64-.51.95-.14.27-.27.54-.43.81-2.01-1.55-2.67-7.2-2.37-10.84ZM46.19 28.6c.11-.8.21-1.56.28-2.27l2.32-2.51c-.8 4.55-1.15 10.29 1.98 15.97-.6.72-.95 1.42-1.29 2.11-.19.38-.38.77-.61 1.15-4.22-2.84-3.33-9.54-2.68-14.46ZM44.78 28.74c-.04.74-.09 1.49-.15 2.22-.33 4.56-.68 9.28 3.26 13.78-.15.58-.52 1.18-.87 1.77-.44.73-.9 1.49-.99 2.25-.09.11-.15.13-.2.12-4.83-7.69-5.17-14.11-1.05-20.14ZM40.59 37.83c.05.27.1.55.15.84.61 3.52 1.37 7.88 4.45 11.48-.43.7-.75 1.39-1.06 2.07-.18.38-.36.78-.56 1.17-2.66-4.61-4.97-9.99-2.99-15.55ZM38.97 45.54c.21.53.42 1.22.65 1.98.68 2.2 1.6 5.19 3.28 7.23-.37.63-.68 1.25-.98 1.86-.27.55-.55 1.11-.87 1.67-3.58-4.31-3.15-8.82-2.09-12.75ZM38.99 57.27c.45.8.91 1.63 1.41 2.3-.42.56-.69 1.11-.95 1.65-.28.57-.54 1.11-.97 1.66-.73-2.08-.74-4.23-.75-6.32 0-.46 0-.91-.01-1.37.42.52.84 1.29 1.29 2.08Z"/>
</svg>