<svg xmlns="http://www.w3.org/2000/svg" viewBox="0 0 80 80">
<path d="M48.68 34.44c9.85 0 12.68-9.33 14.84-16.43 1.1-3.64 2.15-7.08 3.82-8.75.03-.03.04-.06.06-.08.02-.03.05-.06.07-.09.05-.08.09-.16.11-.25 0-.02.02-.04.02-.06.03-.11.03-.23.01-.34 0-.03-.01-.05-.02-.08-.01-.06-.02-.12-.04-.17-.01-.03-.04-.06-.05-.09 0-.02 0-.04-.02-.06 0-.02-.03-.02-.04-.04-.06-.08-.12-.15-.2-.21-.02-.01-.03-.03-.05-.04-.09-.07-.2-.11-.31-.14-.03 0-.07 0-.1-.01-.05 0-.1-.02-.16-.02-8.94 0-20.98 2.68-25.49 10.25-2.56 4.3-2.28 9.4.84 15.16.03.05.07.08.1.12-1.32 2.6-2.41 5.38-3.15 8.31-.85-2.31-2.12-4.58-3.79-6.8 1.62-4.75 1.09-8.05-.04-10.25 2.87-5.38 3.45-9.83 1.72-13.23-2.35-4.6-8.01-5.41-8.25-5.44-.05 0-.11 0-.16 0-.02 0-.04 0-.06 0-.12.01-.23.04-.33.09-.01 0-.02 0-.04 0-.01 0-.02.02-.03.03-.1.06-.2.12-.27.22 0 0 0 0 0 0 0 0 0 0 0 0-4.35 5.11-3.14 9.89-1.8 12.56-3.36-.54-7.39-.36-11.87.6-.4.09-.71.41-.78.82-.07.41.12.81.48 1.02 1.39.82 2.09 3.15 2.82 5.61 1.04 3.5 2.22 7.46 5.85 9.36 1.37.72 2.96 1.08 4.82 1.08 1.86 0 4.04-.39 6.47-1.12 2.12 2.84 3.73 6.06 4.3 9.6h-17.2c-.55 0-1 .45-1 1v7.86c0 .55.45 1 1 1h1.76l2.15 13.96c.27 1.78 1.78 3.07 3.58 3.07h21.71c1.8 0 3.3-1.29 3.58-3.07l2.15-13.96h1.76c.55 0 1-.45 1-1v-7.86c0-.55-.45-1-1-1h-17.27c.53-4.18 1.9-8.11 3.76-11.74 1.73.42 3.3.63 4.72.63ZM35.05 12.04c1.31 2.59.88 6.1-1.24 10.43-.15-.17-.32-.34-.49-.5.09-5.39-1.89-10.93-3.1-13.79 1.57.56 3.72 1.69 4.82 3.87ZM28.25 8.63c1.01 2.34 2.79 7.08 3.05 11.81-.81-.48-1.71-.87-2.69-1.19-.79-.98-3.81-5.37-.37-10.62ZM23.31 34.22c-2.88-1.51-3.88-4.89-4.86-8.16-.35-1.16-.7-2.28-1.12-3.3 3.14 1.65 9.99 5.65 15 11.5-3.93 1.09-6.89 1.08-9.02-.04ZM33.64 32.71c-1.7-1.96-3.7-3.86-6.02-5.69-4.19-3.31-8.23-5.49-10.09-6.42 6.81-.92 12.25.25 14.88 3.27 1.83 2.11 2.24 5.14 1.24 8.84ZM51.58 69.07c-.12.8-.8 1.37-1.6 1.37h-21.71c-.81 0-1.48-.58-1.6-1.37l-2.1-13.66h29.12l-2.1 13.66ZM56.46 47.55v5.86H21.77v-5.86h34.69ZM61.61 17.43c-2.55 8.42-5.19 17.11-16.66 14.57 5.35-9.33 13.69-16.42 18.48-20-.67 1.64-1.24 3.51-1.82 5.43ZM42.87 18.83c2.32-3.9 8.98-8.38 20.32-9.15-2.48 1.78-6.23 4.71-10.13 8.62-3.26 3.27-6.92 7.59-9.83 12.67-2.25-4.66-2.39-8.74-.37-12.14Z"/>
</svg>