<svg xmlns="http://www.w3.org/2000/svg" viewBox="0 0 80 80">
<path d="M69.36 7.37l.09-.56-.56-.02c-3.51-.08-6.53 1.72-9.41 3.49-2.15 1.32-4.38 2.69-6.81 3.21-1.1.23-2.35.03-3.56-.18-1.36-.22-2.77-.46-3.99-.07-1.07.34-1.98.98-2.85 1.59-.9.63-1.74 1.22-2.67 1.42-1.35.29-2.76-.37-4.11-1-1.22-.57-2.36-1.11-3.46-.96-2.42.33-3.86 1.99-5.25 3.59-.85.98-1.73 1.99-2.84 2.74-.64.43-1.78.9-2.88 1.36-1.27.53-2.48 1.03-3.14 1.54-2.9 2.21-4.24 5.65-3.89 9.94.59 7.13 5.92 15.32 12.21 18.85-1.7 5.07-4.35 9.91-6.92 14.6-1 1.82-2.03 3.71-3 5.58l-1.82 3.54 2.64-2.98c4.53-5.11 7.02-11.01 9.43-16.71.4-.95.8-1.89 1.21-2.83 1.33.79 2.67 1.69 4.07 2.64 4.92 3.32 10 6.76 15.85 6.08 2.36-.28 10.29-1.52 13.05-5.98.77-1.24.63-2.59.46-4.15-.09-.9-.19-1.83-.14-2.87.06-1.15.5-2.05.93-2.92.44-.89.9-1.81.85-2.9-.03-.75-.37-1.47-.72-2.23-.35-.75-.71-1.53-.76-2.33-.07-1.17.61-2.34 1.34-3.58.69-1.18 1.4-2.39 1.46-3.68.07-1.64-.17-3.09-.4-4.49-.3-1.79-.58-3.47-.16-5.33.58-2.63 1.76-4.9 2.91-7.08 1.11-2.12 2.16-4.14 2.67-6.41l.63-1.04-.48.27.02-.11ZM26.19 41.69c-1.96-4.27-3.98-8.68-4.44-11.57l-.29-1.86-.67 1.76c-.72 1.89-.02 4.25.76 6.31.62 1.63 1.6 3.4 2.54 5.1 1.92 3.45 3.9 7.01 2.66 9.22-11.08-8.29-12.36-18.55-9.69-23.25.96-1.68 2.46-2.41 4.37-3.32.83-.4 1.69-.81 2.6-1.34.96-.56 1.83-1.58 2.75-2.65 1.4-1.63 2.98-3.48 5.13-3.96.12-.03.24-.04.36-.04.76 0 1.68.46 2.65.94 1.29.64 2.75 1.37 4.27 1.2 1.77-.2 2.9-.95 4.09-1.74.9-.59 1.82-1.21 3.07-1.69.75-.14 1.54.06 2.46.29 1.29.32 2.74.68 4.5.23 2.56-.66 5.35-2.29 7.81-3.74.51-.3 1.02-.6 1.52-.88-2.97 2.28-5.68 4.65-8.33 6.96-2.27 1.98-4.6 4.02-7.07 5.97-.07-.82.31-1.64.69-2.44.48-1.01.97-2.06.39-3.02l-.39-.65-.44.61c-1.51 2.08-2.16 4.51-1.93 7.23-1.35.93-2.45 2.16-3.52 3.35-.98 1.09-1.9 2.12-2.91 2.79-.19-1.46.04-3 .27-4.49.25-1.63.48-3.16.13-4.47l-.42-1.56-.54 1.52c-1.02 2.89-2 6.33-.67 10.52-2.26 2.76-4.21 5.37-5.91 7.93-.28-2.57-.29-5.25-.31-7.85-.02-2.86-.04-5.56-.39-7.95l-.16-1.08-.71.83c-1.47 1.7-1.07 3.74-.7 5.71.14.71.28 1.45.32 2.14.07 1.14-.02 2.27-.12 3.47-.19 2.35-.38 4.78.7 7.3-.6.67-.92 1.42-1.24 2.14-.23.53-.45 1.03-.77 1.49-.73-1.74-1.6-3.64-2.44-5.49ZM61.58 25.3c0 .96.21 1.96.4 2.93.24 1.23.49 2.5.35 3.67-.12 1.07-.7 2.15-1.32 3.29-1.26 2.33-2.67 4.95-.14 7.95-1.61 2.18-1.4 4.53-1.19 6.81.12 1.24.22 2.41.05 3.55-.32 2.11-2.57 3.94-6.7 5.44-7.62 2.76-13.43.12-17.64-2.5l-.59-.36c-2.4-1.48-4.87-3.01-6.06-4.93.9-.93 2.49-.63 3.9-.36.39.07.76.14 1.1.19 1.34.17 2.7.4 4.14.64 5.07.85 10.32 1.74 15.04.05l3.91-1.4-4.13.43c-4.51.47-8.72-.18-12.8-.8-3.19-.49-6.5-1.01-9.94-.98.13-1 .68-1.88 1.26-2.8.29-.46.59-.94.84-1.44 4.77 1.23 10.59.45 16.22-.31 2.99-.4 5.82-.78 8.29-.82l1.83-.03-1.59-.9c-2.84-1.62-5.92-.77-9.18.13-1.5.41-3.05.84-4.58 1.02-2.08.24-4.15-.14-6.14-.5-1.33-.24-2.6-.47-3.85-.52.55-.77 1.07-1.55 1.59-2.31 1.33-1.97 2.71-4.01 4.42-5.89 5.38.83 14.05-.5 19.54-4.21l2.7-1.82-3.12.93c-.86.26-1.72.52-2.59.78-5.2 1.59-10.57 3.23-15.05 2.72.88-1.03 1.91-2.02 2.9-2.98 1.06-1.03 2.15-2.08 3.09-3.19 3.42.9 9.43.87 12.46-1.54l1.38-1.1-1.75.21c-1.04.13-2.12.34-3.17.54-2.59.5-5.06.98-7.1.35 2.31-1.83 4.56-3.84 6.73-5.79 3.73-3.34 7.58-6.78 11.88-9.44-3.01 5.01-5.44 9.56-5.39 15.32Z"/>
</svg>