<svg xmlns="http://www.w3.org/2000/svg" viewBox="0 0 80 80">
<path d="M60.81 18.17c-3.07-3.07-.95-9.58-4.02-6.51-6.29 6.29-10.78 14.33-13.51 20.15 2.13-5.88 4.56-14.43 4.69-23.08.06-4.04-3.32 1.24-7.85 1.37-4.96.14-7.85-6.84-7.85-2.08 0 8.89 2.51 17.76 4.7 23.8-2.73-5.82-7.22-13.86-13.51-20.15-3.07-3.07-1.42 3.32-4.49 6.38-3.07 3.07-9.69 1.66-6.62 4.73 6.29 6.29 14.33 10.78 20.15 13.51-6.04-2.18-14.91-4.7-23.8-4.7-4.34 0 1.35 3.52 1.35 7.86 0 4.34-5.69 7.86-1.35 7.86 8.89 0 17.76-2.51 23.8-4.7-5.82 2.73-13.86 7.22-20.15 13.51-3.07 3.07 3.6 1.74 6.67 4.81 3.07 3.07 1.38 9.37 4.45 6.3 6.29-6.29 10.78-14.33 13.51-20.15-2.18 6.04-4.7 14.91-4.7 23.8 0 4.34 3.52-2.83 7.86-2.83 4.34 0 7.86 7.17 7.86 2.83 0-8.89-2.51-17.76-4.7-23.8 2.73 5.82 7.22 13.86 13.51 20.15 3.07 3.07.52-4.67 3.59-7.74 3.07-3.07 10.59-.3 7.52-3.37-6.29-6.29-14.33-10.78-20.15-13.51 6.04 2.18 14.91 4.7 23.8 4.7 4.34 0-2.93-3.52-2.93-7.86 0-4.34 7.27-7.86 2.93-7.86-8.89 0-17.76 2.51-23.8 4.7 5.82-2.73 13.86-7.22 20.15-13.51 3.07-3.07-4.02-1.53-7.09-4.6ZM40 45.15c-3.23 0-5.86-2.62-5.86-5.86 0-3.24 2.62-5.85 5.86-5.85 3.24 0 5.85 2.62 5.85 5.85 0 3.23-2.62 5.86-5.85 5.86Z"/>
</svg>