<svg xmlns="http://www.w3.org/2000/svg" viewBox="0 0 80 80">
<path d="M35.41 48.16c-3.13 1.37-13.88 6.63-17.58 15.8-.02.04 0 .08.02.11.03.03.07.05.11.04.1-.02 10.31-1.93 17.52-6.82 5.27-3.57 8.6-6.2 10.04-7.38.96 2.77 3.02 8.04 6.64 14.16 2.26 3.81 5.34 8.29 9.37 12.7l1.31-1.11c-3.95-4.31-6.97-8.69-9.18-12.41-3.49-5.89-5.53-11.06-6.48-13.79 3.55.66 16.46 2.46 26.53-4.03.9-.58 1.78-1.23 2.62-1.95.03-.02.04-.06.04-.1 0-.04-.03-.07-.06-.09-.13-.06-13.11-5.92-26.39-.39 1.5-1.03 4.15-3.07 6.85-6.16 3.77-4.31 8.41-11.62 9.11-21.92 0-.04-.01-.08-.05-.1-.03-.02-.07-.03-.11-.01-.14.05-13.13 5.11-19.35 21.21.55-2.42 1.22-6.18 1.29-10.42.11-6.72-1.32-16.02-8.74-22.22-.03-.02-.06-.03-.1-.02-.03 0-.06.03-.08.06-.06.13-5.46 12.96.82 34-.96-1.68-3.22-5.28-6.59-8.75-7.66-7.87-15.08-8.99-19.96-8.55-.04 0-.07.03-.09.06-.02.03-.02.07 0 .11.07.13 6.93 12.47 18.3 18.71-1.72-.56-4.56-1.32-7.97-1.57-5.2-.38-12.81.38-19.57 6.13-.03.02-.04.06-.04.09 0 .03.02.07.05.09.1.08 10.55 7.68 31.73 4.52Z"/>
</svg>