<svg xmlns="http://www.w3.org/2000/svg" viewBox="0 0 80 80">
<path d="M6.63 42.93c1.68 1.35 3.45 2.38 6.04 2.1 2.38 2.04 5.78 3.66 8.28 5.59-2 0-4.36-.03-6.15-.25-.22-.03-.38-.2-.44-.41-.28-.91-1.12-1.38-1.93-1.99-1.34-1.01-2.81-1.66-4.42-2.28-.83-.32-1.89-.77-2.69-.69-1.83.18-.96 1.97-.28 2.97 1.19 1.75 3.2 3.38 5.53 3.59 1.42.13 2.07-.33 3.06-.38.58-.03 1.6.12 2.26.18 2.03.17 4.47.31 6.53.19 2.92 1.82 5.71 3.28 9.02 4.72.11 6.04 1.38 10.65 3.33 14.94.21.46.8 2.09 1.51 1.64.49-.31-.44-1.6-.76-2.35-1.05-2.44-1.86-5.06-2.49-7.88 1.38-3.45 3.37-6.58 5.46-9.6 2.07-3 4.31-6.53 6.55-9.32 2.17-2.72 4.86-5.1 7.52-7.49 1.29-1.16 2.64-2.2 4.27-3.04 1.78-.91 3.49-1.1 6-1.23 1.22 1.06 1.82 2.75 2.69 4.15-.62.44-.89 1.04-.76 2.21.13 1.2.6 2.74 1.24 4.08.51 1.07 1.53 2.73 2.76 2.56 1.43-.21.88-3.88.62-5.32-.4-2.24-1.17-3.94-3.11-3.94-.7-1.42-1.46-2.78-2.35-4.01.47-.1.84-.32 1.31-.41 1 .8 2.09 1.5 3.25 2.14-.45 2.29 1.96 3.14 3.52 3.87 1.45.68 3.42 1.85 4.56.69.18-.89-.64-1.78-1.31-2.56-1.46-1.69-3.49-4.4-6.29-2.83-1.03-.51-2.01-1.08-2.83-1.8.67-.3 1.26-.68 1.87-1.04 1.14 2.12 4.18.28 5.74-.76 1.38-.92 2.8-1.73 2.76-3.32-.74-.97-2.4-.37-3.73-.21-2.59.31-5.09.92-5.18 3.52-1.03.51-1.97 1.13-3.18 1.59-1.27.48-2.63.49-4.15.62-2.93.25-5.11 1.49-6.77 2.69.36-1.33.78-2.77 1.45-4.15.46-.95 1.4-2.88 2.28-3.32 1.06-.53 2.51-.3 3.94-.69 1.23 1.07 3.64.38 5.32-.21.98-.34 3.01-1.07 2.9-2.21-.11-1.16-2.75-.97-4.08-.83-2.28.24-3.68 1.01-4.42 2.35-.93.15-1.86.31-2.76.48 1.34-1.59 2.79-3.06 4.08-4.7 1.53.47 2.84-.35 3.73-1.17 1.23-1.12 2.9-3.92 3.46-5.6.13-.38.24-.96.21-1.24-.25-2.09-3.35-.37-4.28.14-2.32 1.27-5.54 4.09-4.01 7.53-1.25 1.51-2.67 3.22-4.01 4.42.19-1.1.52-2.06.69-3.18.34-.12.71-.21.97-.41 1.3-1.02 2.1-5.47 2.07-7.6-.01-1-.28-1.95-1.11-1.93-.47 0-1.05.72-1.38 1.17-1.61 2.17-3.13 5.83-1.38 8.64-.41 1.54-.83 3.08-1.04 4.84-1.98 2.26-3.07 5.41-3.87 8.84-1.19.95-2.38 2.27-3.45 3.11-.56-4.55-.34-9.89-.62-14.72 1.29-.81 2.02-2.18 3.04-3.25 1.71.34 2.51-1.17 3.46-2.56.81-1.19 1.49-2.26 1.66-3.52.12-.86-.06-1.79-.69-1.87-.34-.04-1.02.46-1.45.83-1.93 1.65-4.53 3.23-3.87 6.7-.69.81-1.35 2.02-2.21 2.42.04-1.53-.13-2.86-.14-4.35 3.19-1.07 2.22-10-.41-10.71-1.97-.53-2.45 3.08-2.56 4.7-.14 2.1.41 4.01 1.04 5.04.26.43.95.92 1.04 1.24.15.57.04 1.4.07 2.07.09 2.21.2 4.33.21 6.43-.84-.98-1.6-2.04-2.35-3.11.42-.46.72-.9.76-1.59.11-2.12-1.36-3.85-2.63-5.32-1.07-1.25-2.58-3.31-4.15-2.14-.28 4.61 1.04 9.33 5.32 9.6.93 1.47 2.03 2.76 3.11 4.08.28 3.54-.22 7.87.69 10.78-3.25 3.05-5.66 6.82-8.22 10.5-2.55 3.67-5.22 7.37-7.19 11.54-1.17-5.26 1.42-8.57 3.04-11.88.41 0 .74-.02 1.04-.14 1.56-.62 2.83-2.94 3.45-4.97.3-.96.59-2.25.83-3.39.23-1.12.55-3.04-.35-3.39-.49-.19-1.4.18-1.8.48-.58.45-1.08 1.34-1.59 2.07-1.47 2.14-3.67 5.99-2.56 9.12-.67 1.61-1.55 3.01-2.28 4.56.34-4.59 1.23-8.63 1.87-12.92 2.5-.62 3.13-3.05 3.66-6.01.42-2.35.77-4.95.69-7.05-.05-1.27-.34-3.29-1.38-3.39-1.13-.1-1.71 1.56-2.21 2.69-1.13 2.55-1.7 4.8-2.42 7.46-.34 1.28-.68 3.04-.48 4.49.14 1.03 1.12 1.38 1.24 1.93.11.5-.29 1.77-.41 2.49-.46 2.58-.88 5.16-1.24 7.53-.44-1.38-.69-3.26-.9-4.98-.07-.6-.31-1.37-.21-1.8.08-.33.58-.61.76-.97.36-.73.43-2.06.35-3.11-.18-2.19-1.62-5.17-2-7.29-.15-.84-.51-1.66-1.17-2.21-1.29-1.07-1.97.3-2.07 1.41-.2 2.11.06 4.55.21 6.84.19 3.08.82 5.12 3.04 5.53.19 1.7.34 3.11.62 4.63.4 2.18 1.57 3.61 1.04 5.94-.48-1.99-1.53-3.71-2.42-5.46-2.24-4.41-4.09-9.07-6.7-13.13-.46-.71-1.52-1.84-1.59-2.42-.05-.45.21-1.15.35-1.73.4-1.77.63-3.73.76-5.6.5-.06.91-.25 1.17-.55.53-.6.99-2.08 1.11-3.32.2-2.17.05-6.65-1.66-6.56-.97.05-1.59 2.18-1.93 3.25-.58 1.8-.92 4.14-.41 5.74.17.54.75 1 .83 1.45.13.74-.34 1.65-.21 2.49-1.16-1.86-2.02-4.02-2.56-6.5 2.2-1.04 1.31-4.88.55-7.19-.35-1.08-1.05-3.37-2.49-3.18-1.24.17-1.39 3.05-1.38 4.42.02 2.66 1.08 4.95 2.42 6.22.45 2.22 1.36 4.18 2.28 6.01.28.55.85 1.37.9 1.87.08.77-.43 1.5-.48 2.35-.92-1.01-1.77-2.1-2.63-3.18.57-.45.74-1.34.55-2.28-.32-1.64-1.41-3.23-2.69-4.7-.71-.81-2.93-3.5-4.42-2.76-.83.41-.53 1.82-.28 2.9.23.99.61 1.91.97 2.63 1.27 2.58 2.05 5.43 5.25 4.98 3.04 3.28 5.63 7.07 7.74 11.33 1.05 2.12 1.96 4.34 3.04 6.5 1.07 2.13 2.38 4.2 2.97 6.5-2.25-.75-4.05-1.94-5.94-3.04-1-2.16-1.64-4.67-3.18-6.29.37-.31.4-.91.35-1.59-.18-2.27-1.66-4.02-2.9-5.53-.62-.76-1.94-2.46-3.18-1.87-.67.32-.46 1.7-.21 2.63.88 3.24 1.6 7.04 5.32 7.05 1.13 1.26 1.8 2.99 2.42 4.77-3.38-2.1-6.76-4.2-9.74-6.7.42-2.27-1.28-3.84-2.63-5.18-1.26-1.26-2.54-2.37-4.28-2.69-1.75-.33-2.93.64-2.69 2.42.22 1.67 1.53 3.17 2.83 4.21Z"/>
</svg>