<svg xmlns="http://www.w3.org/2000/svg" viewBox="0 0 80 80">
<path d="M29.93 48.81c-5.62-4.8-17.62-5.67-22.48-3.68-.25.1-.45.31-.55.56-.1.25-.09.54.02.79 1.66 3.58 6.25 10.27 12.92 12.64 1.65.59 3.33.88 5.03.88 2.3 0 4.64-.55 6.99-1.63 2.54 2.36 4.58 5.15 5.62 8.43v5.16c0 .55.45 1 1 1 .55 0 1-.45 1-1v-.91c.52-3.67 2.81-7.14 5.93-10.28 1.1.13 2.19.22 3.23.22 11.95 0 20.28-8.13 23.21-16.52.01-.04 0-.08.01-.12.02-.08.03-.16.03-.24 0-.06-.02-.11-.03-.17-.01-.05 0-.1-.02-.15-.01-.03-.03-.05-.05-.08-.01-.02 0-.05-.02-.07-.02-.03-.05-.05-.07-.08-.05-.07-.1-.12-.16-.18-.04-.04-.09-.07-.14-.1-.07-.04-.14-.07-.22-.09-.03 0-.06-.03-.09-.04-8.88-1.64-17.52.62-23.1 6.03-3.38 3.28-5.09 7.24-4.57 10.61 0 .04.02.07.03.1-1.58 1.66-2.94 3.42-3.98 5.26v-21.75c.38.24.74.56 1.05.83.53.46 1.03.91 1.61.91.16 0 .32-.03.5-.11.78-.35.78-1.29.78-1.59 0-1.65-.17-3.3-.44-4.88.93 1.31 1.97 2.59 3.14 3.76.18.18.65.65 1.25.65.13 0 .27-.02.42-.08.82-.31.88-1.18.94-2.09.05-.79.12-1.87.6-2.35.48-.48 1.54-.52 2.31-.55.84-.03 1.71-.07 2.03-.87.31-.79-.33-1.44-.57-1.68-1.17-1.17-2.46-2.21-3.76-3.14 1.58.27 3.23.44 4.88.44.31 0 1.24 0 1.59-.78.35-.79-.21-1.43-.82-2.1-.52-.58-1.24-1.38-1.24-2.05 0-.67.72-1.47 1.24-2.05.6-.67 1.17-1.3.82-2.1-.35-.78-1.28-.78-1.59-.78-1.65 0-3.3.17-4.88.44 1.31-.93 2.59-1.97 3.76-3.14.21-.21.86-.86.62-1.68-.25-.85-1.12-1.03-2.03-1.21-.74-.15-1.66-.34-2.13-.82-.47-.48-.6-1.34-.7-2.03-.11-.78-.22-1.59-1.02-1.86-.8-.27-1.46.38-1.71.63-1.17 1.17-2.21 2.46-3.14 3.77.25-1.46.42-2.98.44-4.51 0-.29.02-1.19-.7-1.61-.73-.42-1.45.02-2.15.44-.6.37-1.35.82-2.1.84-.02 0-.03 0-.05 0-.81 0-1.54-.62-2.13-1.11-.56-.47-1.19-1.01-1.95-.65-.78.36-.78 1.32-.78 1.72 0 1.65.17 3.3.44 4.88-.93-1.31-1.97-2.59-3.14-3.76-.24-.24-.89-.89-1.71-.65-.82.24-.99 1.07-1.16 1.86-.14.67-.32 1.5-.79 1.98-.47.48-1.33.68-2.02.84-.84.2-1.7.4-1.94 1.24-.23.82.42 1.48.64 1.7 1.17 1.17 2.46 2.21 3.76 3.14-1.58-.27-3.23-.44-4.88-.44-.31 0-1.25 0-1.66.75-.42.75.05 1.49.5 2.19.37.59.84 1.32.84 1.99 0 .67-.46 1.4-.84 1.99-.45.71-.91 1.44-.5 2.19.41.75 1.35.75 1.66.75 1.65 0 3.3-.17 4.88-.44-1.31.93-2.59 1.97-3.76 3.14-.21.21-.87.87-.64 1.69.24.85 1.11 1.06 1.96 1.27.69.17 1.55.38 2.02.86.47.48.65 1.3.79 1.96.16.79.33 1.6 1.14 1.84.12.04.25.05.36.05.64 0 1.14-.5 1.35-.71 1.17-1.17 2.21-2.46 3.14-3.76-.27 1.58-.44 3.23-.44 4.88 0 .31 0 1.24.78 1.59.8.36 1.43-.2 2.1-.8.31-.27.67-.59 1.05-.83v18.65c-1.15-1.89-2.66-3.69-4.51-5.37.46-3.04-.57-5.75-3.04-7.87ZM20.52 57.22c-5-1.78-8.73-6.29-10.74-9.66 3.44.85 13.25 3.64 20.4 9.34-3.3 1.31-6.54 1.43-9.66.32ZM22.25 49.8c-3.73-1.72-7.24-2.87-9.74-3.58 5.03-.27 12.25.8 16.12 4.11 1.6 1.37 2.4 2.93 2.46 4.75-2.48-1.94-5.43-3.71-8.84-5.28ZM47.36 58.94c7.19-6.32 17.26-11.05 21.69-12.95-2.87 5.82-9.89 13.59-21.69 12.95ZM49.39 50.62c4.34-4.22 10.74-6.33 17.62-5.94-5.14 2.27-14.75 7.01-21.64 13.35.2-2.39 1.64-5.1 4.01-7.4ZM50.81 35.93c-.96.07-2.1.29-2.9 1.09-.8.8-1.05 2.08-1.14 3.08-2.43-2.67-4.26-5.84-5.48-8.34.49-.34.91-.76 1.25-1.25 2.48 1.21 5.62 3.02 8.28 5.42ZM38.49 30.64c-1.62 0-2.93-1.31-2.93-2.93 0-1.62 1.31-2.93 2.93-2.93 1.62 0 2.93 1.32 2.93 2.93 0 1.61-1.31 2.93-2.93 2.93ZM53.07 24.81c-.63.75-1.32 1.74-1.32 2.9 0 1.16.69 2.16 1.32 2.9-3.6-.17-7.12-1.12-9.74-2.02.05-.29.09-.58.09-.88 0-.3-.04-.59-.09-.88 2.62-.9 6.14-1.85 9.74-2.02ZM46.95 15.13c.14.83.41 1.87 1.18 2.65.88.88 2.13 1.15 3.07 1.35-2.74 2.58-6.06 4.51-8.67 5.78-.34-.49-.76-.91-1.25-1.25 1.25-2.56 3.14-5.82 5.66-8.53ZM38.52 14.03c1.17-.03 2.14-.56 2.88-1.01-.16 3.64-1.12 7.21-2.03 9.85-.29-.05-.58-.09-.88-.09-.3 0-.59.04-.88.09-.92-2.67-1.89-6.28-2.03-9.95.72.55 1.7 1.13 2.94 1.11ZM25.71 19.07c.88-.21 2.05-.5 2.9-1.36.85-.86 1.1-1.88 1.28-2.73 2.59 2.74 4.52 6.07 5.79 8.68-.49.34-.91.76-1.25 1.25-2.62-1.28-5.98-3.23-8.73-5.84ZM23.38 30.63c.47-.75 1.06-1.75 1.06-2.92 0-1.17-.59-2.17-1.06-2.92 3.78.1 7.52 1.1 10.27 2.04-.05.29-.09.58-.09.88 0 .3.04.59.09.88-2.75.95-6.49 1.94-10.27 2.04ZM29.9 40.43c-.18-.81-.47-1.88-1.27-2.68-.86-.86-2.06-1.16-2.94-1.38 2.75-2.62 6.12-4.57 8.75-5.86.34.49.76.91 1.25 1.25-1.27 2.61-3.2 5.94-5.79 8.67ZM35.58 42.33c.17-3.61 1.12-7.14 2.02-9.77.29.05.58.09.88.09.3 0 .59-.04.88-.09.91 2.63 1.85 6.17 2.02 9.77-.75-.62-1.74-1.31-2.9-1.31-1.16 0-2.16.68-2.9 1.31Z"/>
</svg>