<svg xmlns="http://www.w3.org/2000/svg" viewBox="0 0 80 80">
<path d="M18.03 5.23c-1.38-1.11-3.25-1.54-5.11-1.19-1.77.33-3.25 1.31-4.04 2.68-.35.61-.53 1.34-.54 2.24-.05 3.96 3.78 8.77 8.04 10.09.87.27 1.68.4 2.43.4.19 0 .36-.02.54-.04-.33.75-.61 1.59-.81 2.57-1.59 7.8 3.03 18.09 9.7 21.58 1.45.76 2.86 1.18 4.18 1.3-.92.89-1.71 2.07-2.38 3.63-3.41 7.89-.81 20.13 5.47 25.69 2.25 1.99 4.59 3.04 6.73 3.04.5 0 .99-.06 1.47-.17 1.64-.4 3.91-1.7 5.44-5.64 2.86-7.36 3.38-13.95 1.59-20.02.56.26 1.25.46 2.12.46.71 0 1.52-.13 2.46-.46 6.1-2.15 10.26-6.02 12.37-11.49.94-2.45.71-5.28-.62-7.77-1.27-2.36-3.3-4-5.58-4.5-.59-.13-1.23-.14-1.9-.06 2.1-3.54 2.59-7.15 1.43-10.74-.54-1.68-1.86-3.07-3.61-3.81-1.67-.7-3.43-.7-4.85 0-.63.31-1.18.83-1.69 1.57-2.23 3.27-1.69 9.4 1.13 12.85.87 1.06 1.82 1.8 2.76 2.18-4.23 3.09-7.5 9.07-7.46 14.45 0 .29.02.56.04.83-1.37-1.34-3.12-2.29-5.11-2.71-1.25-.26-2.51-.31-3.74-.15.64-.98 1.2-2.29 1.49-4.09 1.21-7.32.4-13.37-2.45-18.4.07 0 .13.02.21.02.65 0 1.43-.18 2.33-.73 3.64-2.21 5.8-5.27 6.42-9.09.28-1.75-.26-3.58-1.48-5.04-1.16-1.38-2.73-2.18-4.32-2.2-.7 0-1.43.2-2.22.63-3.44 1.88-5.72 7.46-4.86 11.8-1.41-.9-3.09-1.38-4.88-1.38-.05 0-.09 0-.14 0-2.09.03-4.11.69-5.81 1.84 0-.04 0-.07 0-.11-.14-4.26-1.74-7.64-4.76-10.06ZM13.95 12.48l-1.96-2.71c-.55-.75.62-1.52 1.16-.77l1.96 2.71c.54.75-.62 1.52-1.16.77ZM60.78 40.2l3.1-1.24c.86-.35 1.34 1.02.48 1.36l-3.1 1.24c-.86.35-1.34-1.02-.48-1.36ZM60.08 31.3l-1.59 2.94c-.44.82-1.64.1-1.2-.72l1.59-2.94c.44-.82 1.64-.1 1.2.72ZM56.57 24.04l1.59-2.94c.44-.82 1.64-.1 1.2.72l-1.59 2.94c-.44.82-1.64.1-1.19-.72ZM55.86 39.8l2.13-2.57c.59-.72 1.66.25 1.07.97l-2.13 2.57c-.59.72-1.67-.25-1.07-.97ZM54.36 20.61l-1.91-2.74c-.53-.76.65-1.51 1.18-.75l1.91 2.74c.53.76-.65 1.51-1.18.75ZM53.66 46.37l2.75-1.9c.77-.53 1.53.69.77 1.22l-2.75 1.9c-.77.53-1.53-.69-.77-1.22ZM51.71 39.06c.02-.93 1.41-.84 1.39.09l-.07 3.34c-.02.93-1.41.84-1.39-.09l.07-3.34ZM47.79 58.92c.63-.69 1.65.34 1.02 1.02l-2.26 2.46c-.63.69-1.65-.34-1.02-1.02l2.26-2.46ZM43.69 53.18l1.3-3.08c.36-.86 1.67-.24 1.31.62l-1.3 3.08c-.36.86-1.67.24-1.31-.62ZM42.82 70.89l2.26-2.46c.63-.69 1.65.34 1.02 1.02l-2.26 2.46c-.63.69-1.65-.34-1.02-1.02ZM40.38 58.31c.23-.9 1.61-.48 1.38.42l-.83 3.24c-.23.9-1.61.48-1.38-.42l.83-3.24ZM41.01 12.88c.8-.48 1.46.74.67 1.22l-2.86 1.73c-.8.48-1.46-.74-.67-1.22l2.86-1.73ZM37.32 9.83l.78-3.25c.22-.9 1.56-.52 1.34.38l-.78 3.25c-.22.9-1.56.52-1.34-.38ZM38.63 48.19l.88 3.22c.25.9-1.16 1.22-1.41.32l-.88-3.22c-.25-.9 1.16-1.22 1.41-.32ZM37.93 67.38c.65.67-.39 1.59-1.04.93l-2.33-2.39c-.65-.67.39-1.59 1.04-.93l2.33 2.39ZM36.06 34.83l-.37 3.32c-.1.92-1.53.7-1.43-.22l.37-3.32c.1-.93 1.53-.7 1.43.22ZM32.85 26.1l1.3-3.08c.36-.86 1.67-.24 1.31.62l-1.3 3.08c-.36.86-1.67.24-1.31-.62ZM33.62 55.56l1.77 2.83c.49.79-.72 1.47-1.21.69l-1.77-2.83c-.49-.79.72-1.47 1.21-.69ZM18.57 15.07l-.41-3.32c-.11-.92 1.28-1.03 1.39-.11l.41 3.31c.11.92-1.28 1.03-1.39.11ZM29.05 38.6l-2.13-2.57c-.59-.72.52-1.56 1.11-.84l2.13 2.57c.6.72-.52 1.56-1.11.84ZM30.08 28.77l.73 3.26c.2.91-1.22 1.16-1.42.26l-.73-3.26c-.2-.91 1.22-1.16 1.42-.26ZM27.98 18.86l.88 3.22c.25.9-1.16 1.22-1.41.32l-.88-3.22c-.25-.9 1.16-1.22 1.41-.32ZM23.05 25.77l1.77 2.83c.49.79-.72 1.47-1.21.69l-1.77-2.83c-.49-.79.72-1.47 1.21-.69Z"/>
</svg>