<svg xmlns="http://www.w3.org/2000/svg" viewBox="0 0 80 80">
<path d="M7.96 31c.13.09.57.09 1.84.08 3.2-.04 9.87-.11 12.39 2.28.47.45.71 1.05.63 1.56-.09.52-.36.94-.82 1.26-1.74 1.23-5.64.57-6.4.42-2.05-.38-5-1.57-6.26-2.07-.39-.16-.58-.23-.65-.25-.04-.01-.08 0-.11.03-.03.03-.04.07-.04.11.06.36.84 5.35 1.13 7.54.32 2.41 1.37 4.79 2.19 6.36.01.03.04.05.06.06.98.39 2.83.51 4.78.63 3.33.21 7.11.44 8.06 2.04.33.55.3 1.23-.09 2.07-.71 1.53-2.81.98-5.04.41-1.55-.4-3.14-.82-4.34-.52-.03 0-.06.03-.08.06-.02.03-.02.07 0 .1.79 1.86 5.15 7.52 14.43 9.08 3.94.66 8.1-.23 11.64-2.43.93-.58 1.82-1.25 2.65-2 1.66-1.51 2.83-3.18 3.21-4.53 2.32 3.18 7.75 10.82 13.63 20.45.21.34.65.44.98.24 0 0 0 0 0 0 .33-.21.44-.65.23-.98-6.12-10.03-11.77-17.91-13.95-20.89 3.65-.62 7.37-2.75 9.42-5.81 2.38-3.54 2.37-7.07 1.6-10.29-.28-1.18-2.11-5.82-3.05-7.53-1.47 3.84-5.22 9.63-10.24 11.19-1.63.51-2.45-1.2-2.38-2.17.05-.79.79-1.64 1.43-2.33 1.43-1.51 3.34-2.75 4.95-4.14 1.92-1.64 3.96-3.79 4.3-6.39-2.13-3.25-4.83-6.17-8.33-7.9.5 2.69.26 5.12-.58 7.43-.57 1.57-1.66 3.32-3.3 4.55-1.77 1.34-3.97.99-3.78-1.06.28-2.94 3.05-4.53 4.41-7.36 1.14-2.36 1.02-4.28.09-5.79-.61-.32-5.88-2.35-7.96-2.85-1.53-.37-3.06-.78-4.59-1.18-.01 1.36.78 4.5.84 6.39.04 1.25.22 3.07-.97 4.35-1.69 1.81-3.34.01-2.95-1.48.72-2.76.56-5.74-.49-8.15-.45-1.03-1.13-1.88-2.02-2.56-4.07-.48-10.34-2.28-12.87-3.03 1.46 2.17 6.42 9.31 12.54 15.01 2.2 2.05 4.91 4.97 7.89 8.49 1-3.48 2.7-5.71 2.78-5.82.14-.19.35-.31.58-.33.23-.03.46.03.65.18.19.14.3.35.33.58.03.23-.03.46-.18.65-.02.02-1.96 2.61-2.78 6.41 5.63 6.83 11.14 14.5 13.45 18.74.22.41.09.92-.31 1.16-.25.14-.49.16-.71.1-.23-.07-.41-.22-.52-.42-.75-1.38-1.88-3.2-3.29-5.26-4.67-.11-13.13 3.67-13.22 3.7-.44.2-.96 0-1.16-.44-.2-.44-.01-.95.43-1.16.33-.15 7.63-3.42 12.76-3.82-2.63-3.74-5.88-7.98-9.03-11.78l-.1-.13c-1.34-1.6-2.69-3.17-3.96-4.58-2.43-.87-7.63-.14-9.46.21-.48.09-.94-.22-1.03-.7-.05-.23 0-.46.13-.66.13-.2.33-.33.56-.37.21-.04 4.42-.85 7.84-.61-1.03-1.09-1.99-2.04-2.86-2.85-6.13-5.71-11.14-12.84-12.73-15.21-.04.63-.08 1.27-.17 1.91-.2 1.43-.52 2.86-.82 4.25-.1.45-.2.9-.3 1.36 0 .02 0 .05 0 .07.1.26 1.53 1.1 2.03 1.26.49.16 1.06.37 1.55.68.58.36 1.08 1.08.91 1.89-.1.45-.36.82-.73 1.03-.38.21-.85.24-1.3.07-.64-.23-1.36-.65-2.07-1.05-.41-.23-.84-.48-1.25-.69-.04-.02-.08-.02-.12 0-.04.02-.06.07-.05.11.08.96-.04 2.13-.19 3.49-.28 2.56-.63 5.75.21 9.52 0 .03.02.05.05.07ZM35.69 19.14c-.07 1.26-.71 2.25-1.41 2.2-.71-.04-1.22-1.09-1.15-2.35.07-1.26.71-2.25 1.41-2.2.71.04 1.22 1.09 1.15 2.35ZM37.19 51.56c0 0 .04-.03.07-.04.48-.3 1.12-.48 1.8-.5.71-.02 1.38.13 1.89.42.49.28.77.66.78 1.07.01.41-.24.81-.71 1.12-.49.32-1.15.52-1.86.54-.71.02-1.38-.13-1.89-.42-.49-.28-.77-.66-.78-1.07-.01-.41.24-.81.71-1.12ZM25.55 40.51c2.49.07 4.49 1.17 4.46 2.45-.04 1.28-2.09 2.27-4.59 2.2-1.22-.03-2.36-.31-3.21-.79-.82-.46-1.27-1.05-1.25-1.66.02-.61.49-1.17 1.34-1.58.87-.43 2.03-.65 3.25-.61Z"/>
</svg>