<svg xmlns="http://www.w3.org/2000/svg" viewBox="0 0 80 80">
<path d="M58.43 50.01c.19 1.33.29 2.7.29 4.07 0 .55.45 1 1 1 .55 0 1-.45 1-1 0-1.47-.11-2.93-.31-4.36-.08-.55-.58-.94-1.13-.85-.55.08-.93.59-.85 1.13ZM55.89 41.89c.65 1.28 1.2 2.64 1.63 4.05.13.43.53.71.96.71.1 0 .2-.01.29-.04.53-.16.83-.72.66-1.25-.47-1.52-1.06-2.99-1.76-4.37-.25-.49-.85-.69-1.34-.44-.49.25-.69.85-.44 1.34ZM59.56 57.3c-.55-.09-1.05.3-1.13.84-.2 1.39-.51 2.76-.91 4.06-.16.53.13 1.09.66 1.25.1.03.2.04.29.04.43 0 .82-.28.96-.71.43-1.4.76-2.87.98-4.36.08-.55-.3-1.05-.84-1.13ZM20.76 54.08c0-1.37.1-2.74.29-4.07.08-.55-.3-1.05-.84-1.13-.55-.09-1.05.3-1.13.84-.21 1.42-.31 2.89-.31 4.36 0 .55.45 1 1 1 .55 0 1-.45 1-1ZM21.06 58.15c-.08-.55-.59-.94-1.13-.85-.55.08-.93.59-.85 1.13.22 1.49.54 2.96.97 4.36.13.43.53.71.96.71.1 0 .2-.01.29-.04.53-.16.83-.72.66-1.25-.4-1.31-.71-2.67-.91-4.06ZM20.71 46.61c.1.03.2.04.29.04.43 0 .82-.28.96-.71.44-1.42.98-2.78 1.63-4.05.25-.49.05-1.09-.44-1.34-.49-.25-1.09-.05-1.34.44-.7 1.38-1.29 2.85-1.76 4.37-.16.53.13 1.09.66 1.25ZM52.2 41.81c.16.39.53.63.93.63.12 0 .25-.02.37-.07.51-.2.76-.78.56-1.3-.62-1.57-1.37-3.05-2.21-4.38-.29-.47-.91-.61-1.38-.31-.47.29-.61.91-.31 1.38.78 1.23 1.46 2.59 2.04 4.04ZM55.44 53.08c-.55 0-1 .45-1 1 0 1.38-.08 2.76-.23 4.1-.06.55.33 1.04.88 1.11.04 0 .08 0 .11 0 .5 0 .93-.38.99-.89.16-1.41.24-2.87.24-4.33 0-.55-.45-1-1-1ZM54.69 61.53c-.54-.13-1.08.2-1.21.74-.34 1.42-.77 2.79-1.29 4.07-.21.51.04 1.09.56 1.3.12.05.25.07.37.07.4 0 .77-.24.93-.63.55-1.38 1.01-2.84 1.38-4.35.13-.54-.2-1.08-.74-1.21ZM53.49 45.89c.32 1.31.56 2.68.72 4.09.06.51.49.89.99.89.04 0 .08 0 .11 0 .55-.06.94-.56.88-1.11-.17-1.49-.43-2.95-.76-4.33-.13-.54-.67-.87-1.21-.74-.54.13-.87.67-.74 1.21ZM27.79 67.65c-.63-1.06-1.41-2.38-1.77-5.27-.07-.55-.56-.93-1.11-.87-.55.07-.94.57-.87 1.11.4 3.31 1.34 4.89 2.03 6.05.21.36.4.67.51.95.16.39.53.63.93.63.12 0 .25-.02.37-.07.51-.21.76-.79.56-1.3-.17-.42-.4-.81-.65-1.22ZM24.17 50.86c0 0 .08 0 .11 0 .5 0 .93-.38.99-.89.16-1.4.4-2.78.72-4.09.13-.54-.2-1.08-.73-1.21-.54-.13-1.08.2-1.21.73-.34 1.39-.6 2.85-.77 4.34-.06.55.33 1.04.88 1.11ZM25.99 42.37c.12.05.25.07.37.07.4 0 .77-.24.93-.63.58-1.46 1.27-2.82 2.04-4.05.3-.47.16-1.08-.31-1.38-.47-.3-1.08-.16-1.38.31-.84 1.33-1.58 2.8-2.21 4.38-.2.51.05 1.09.56 1.3ZM24.4 59.28c.55-.06.94-.56.88-1.11-.15-1.33-.23-2.71-.23-4.1 0-.55-.45-1-1-1-.55 0-1 .45-1 1 0 1.46.08 2.92.24 4.33.06.51.49.89.99.89.04 0 .08 0 .12 0ZM51.07 58.79c-.56-.05-1.03.36-1.08.92-.06.76-.14 1.02-.24 1.38-.09.3-.18.64-.29 1.24-.1.54.27 1.06.81 1.16.06.01.12.02.18.02.48 0 .9-.34.98-.82.09-.51.17-.79.24-1.04.12-.42.23-.81.31-1.76.04-.55-.37-1.03-.92-1.08ZM48.89 43.69c.23.68.41 1.22.57 2.14.08.49.51.83.98.83.06 0 .11 0 .17-.01.54-.09.91-.61.81-1.16-.19-1.07-.41-1.73-.65-2.43-.11-.33-.23-.67-.35-1.09-.16-.53-.71-.83-1.24-.68-.53.16-.83.71-.68 1.24.13.45.26.82.38 1.17ZM52.06 51.92c-.02-.23-.05-.5-.08-.86-.04-.55-.53-.95-1.08-.92-.55.04-.96.53-.92 1.08.03.37.06.65.08.88.06.64.09.96.09 1.97 0 .55.45 1 1 1 .55 0 1-.45 1-1 0-1.1-.04-1.48-.1-2.16ZM49.51 66.6c-.53-.15-1.08.15-1.24.68-.39 1.36-.64 1.91-1.15 3l-.1.22c-.23.5 0 1.1.49 1.33.13.06.28.09.42.09.38 0 .74-.22.91-.58l.1-.22c.53-1.15.82-1.78 1.25-3.29.15-.53-.15-1.08-.68-1.24ZM29.33 54.08c0-1.02.03-1.34.09-1.98.02-.24.05-.51.08-.88.04-.55-.37-1.03-.92-1.08-.54-.03-1.03.37-1.08.92-.03.35-.05.62-.08.85-.06.68-.1 1.05-.1 2.16 0 .55.45 1 1 1 .55 0 1-.45 1-1ZM31.79 69.25c-.32-.55-.58-.99-.82-1.83-.15-.53-.7-.84-1.24-.68-.53.15-.84.71-.68 1.24.31 1.08.67 1.69 1.02 2.28.18.31.38.64.58 1.08.17.37.53.58.91.58.14 0 .28-.03.42-.09.5-.23.72-.83.49-1.33-.24-.52-.47-.91-.67-1.26ZM28.05 62.68c.09.48.51.83.98.83.06 0 .12 0 .18-.02.54-.1.91-.62.81-1.16-.11-.61-.2-.94-.29-1.25-.1-.36-.18-.62-.24-1.38-.05-.55-.53-.96-1.08-.92-.55.05-.96.53-.92 1.08.08.95.19 1.35.31 1.76.07.25.15.54.24 1.05ZM29.05 41.96c-.12.42-.24.77-.35 1.09-.24.7-.46 1.37-.65 2.44-.09.54.27 1.06.81 1.16.06 0 .12.01.17.01.48 0 .9-.34.98-.83.16-.92.34-1.46.57-2.14.12-.35.24-.72.37-1.17.16-.53-.15-1.09-.68-1.24-.54-.16-1.09.15-1.24.68ZM45.82 42.44c.06 0 .12 0 .18-.02.54-.1.91-.62.81-1.16-.19-1.06-.4-1.67-.63-2.32-.11-.33-.23-.67-.36-1.1-.15-.53-.71-.84-1.24-.69-.53.15-.84.71-.69 1.24.14.48.27.85.39 1.21.21.6.39 1.11.55 2.01.09.48.51.82.98.82ZM46.88 54.13c-.55 0-1 .45-1 1 0 1.13-.02 1.58-.07 2.4l-.04.7c-.03.55.4 1.02.95 1.05.02 0 .03 0 .05 0 .53 0 .97-.42 1-.95l.04-.7c.04-.86.07-1.33.07-2.51 0-.55-.45-1-1-1ZM47.42 63.67c.06-.55-.34-1.04-.89-1.1-.57-.06-1.04.34-1.1.89-.09.85-.19 1.27-.32 1.81-.09.36-.18.74-.27 1.27-.1.54.26 1.06.81 1.16.06.01.12.02.18.02.47 0 .9-.34.98-.82.09-.49.17-.84.25-1.17.13-.56.26-1.09.36-2.06ZM45.44 46.82c.05.49.1.84.15 1.17.08.57.14 1.03.19 1.93.03.53.47.95 1 .95.02 0 .04 0 .05 0 .55-.03.98-.5.95-1.05-.05-.98-.12-1.5-.2-2.09-.04-.31-.09-.66-.14-1.12-.06-.55-.55-.95-1.1-.88-.55.06-.95.55-.88 1.1ZM34.05 63.45c-.06-.55-.56-.95-1.1-.89-.55.06-.95.55-.89 1.1.11.97.23 1.5.36 2.06.08.33.16.68.25 1.17.09.48.51.82.98.82.06 0 .12 0 .18-.02.54-.1.9-.62.81-1.16-.1-.53-.19-.92-.27-1.27-.13-.54-.23-.97-.32-1.81ZM32.66 50.87c0 0 .04 0 .05 0 .53 0 .97-.41 1-.95.05-.9.11-1.35.19-1.93.04-.33.09-.69.15-1.17.06-.55-.34-1.04-.88-1.1-.55-.06-1.04.34-1.1.88-.05.46-.1.81-.14 1.12-.08.6-.15 1.11-.2 2.09-.03.55.39 1.02.95 1.05ZM34.9 37.16c-.53-.15-1.08.15-1.24.69-.12.43-.24.78-.36 1.1-.23.65-.44 1.26-.63 2.32-.1.54.26 1.06.81 1.16.06.01.12.02.18.02.47 0 .9-.34.98-.82.16-.9.34-1.42.55-2.01.12-.36.26-.74.39-1.21.15-.53-.15-1.08-.69-1.24ZM31.71 58.34c.03.54.47.95 1 .95.02 0 .03 0 .05 0 .55-.03.98-.5.95-1.05l-.04-.7c-.04-.83-.07-1.27-.07-2.4 0-.55-.45-1-1-1-.55 0-1 .45-1 1 0 1.18.03 1.65.07 2.51l.04.7ZM36.89 55.08c.55 0 1-.45 1-1 0-1.08 0-1.41.03-2.11l.02-.8c.01-.55-.42-1.01-.98-1.02h-.02c-.54 0-.99.43-1 .98l-.02.8c-.02.71-.03 1.05-.03 2.16 0 .55.45 1 1 1ZM38.3 67.88c-.04-.55-.52-.96-1.07-.92-.55.04-.96.52-.92 1.07.07.95.15 1.41.23 1.89.05.31.11.63.16 1.12.06.51.49.89.99.89.04 0 .08 0 .11 0 .55-.06.94-.56.88-1.11-.06-.55-.12-.9-.18-1.23-.08-.45-.14-.84-.21-1.7ZM37.07 63.5c0 0 .03 0 .05 0 .55-.03.98-.49.95-1.05l-.06-1.07c-.03-.6-.06-1.06-.08-2.02-.01-.55-.46-.98-1-.98h-.02c-.55.01-.99.47-.98 1.02.02 1 .05 1.47.08 2.1l.05 1.05c.03.54.47.95 1 .95ZM37.03 46.65c0 0 .03 0 .04 0 .53 0 .98-.42 1-.96.04-.95.09-1.54.14-2.2.03-.35.06-.73.09-1.19.04-.55-.38-1.03-.93-1.07-.54-.04-1.03.38-1.07.93-.03.45-.06.82-.09 1.16-.06.68-.11 1.29-.15 2.28-.02.55.41 1.02.96 1.04ZM42.57 58.39h-.02c-.54 0-.99.43-1 .98-.02.94-.04 1.4-.07 1.98-.02.31-.04.65-.06 1.11-.02.55.4 1.02.96 1.04.01 0 .03 0 .04 0 .53 0 .97-.42 1-.96.02-.45.04-.79.05-1.09.03-.6.06-1.07.08-2.05.01-.55-.43-1.01-.98-1.02ZM41.42 45.7c.02.54.47.96 1 .96.01 0 .03 0 .04 0 .55-.02.98-.49.96-1.04-.04-.98-.09-1.59-.15-2.27-.03-.35-.06-.72-.09-1.17-.04-.55-.5-.98-1.07-.93-.55.04-.97.52-.93 1.07.03.46.06.84.09 1.2.05.66.1 1.24.15 2.19ZM43.55 51.12c-.01-.54-.46-.98-1-.98h-.02c-.55.01-.99.47-.98 1.02l.02.8c.02.7.03 1.03.03 2.11 0 .55.45 1 1 1 .55 0 1-.45 1-1 0-1.11 0-1.45-.03-2.16l-.02-.8ZM42.25 66.96c-.54-.04-1.03.37-1.07.92-.06.85-.13 1.25-.21 1.7-.06.33-.12.69-.18 1.23-.06.55.33 1.04.88 1.11.04 0 .08 0 .11 0 .5 0 .93-.38.99-.89.06-.5.11-.82.16-1.12.08-.48.16-.94.23-1.89.04-.55-.37-1.03-.92-1.07ZM65.51 50.16c.39 0 .76-.23.92-.62.21-.51-.03-1.1-.54-1.31l-1.56-.65.65-1.57c.21-.51-.03-1.1-.54-1.31-.42-.17-.87-.03-1.14.3-.97-2.51-2.35-4.86-4.06-6.94.54-.02.97-.45.97-.99 0-.54-.45-1-1-1h-1.69v-1.69c0-.55-.45-1-1-1-.55 0-1 .45-1 1h0c-1.04-.82-2.15-1.58-3.33-2.25-.06-.03-.13-.06-.19-.08v-.8h.82c.55 0 1-.45 1-1 0-.37-.21-.68-.51-.86 1.02-1.27 1.87-2.68 2.49-4.19.07.01.14.03.21.03.13 0 .26-.02.38-.08.51-.21.75-.8.54-1.31l-.31-.76.76-.31c.51-.21.75-.8.54-1.31-.16-.39-.54-.62-.93-.61.1-.76.16-1.53.16-2.31 0-.36-.01-.72-.03-1.07-.03-.44-.08-.86-.14-1.29.07.01.13.04.2.04.39 0 .76-.23.92-.62.21-.51-.03-1.1-.54-1.31l-.75-.31.31-.76c.21-.51-.03-1.09-.54-1.31-.3-.12-.62-.08-.88.08-.7-1.46-1.65-2.78-2.77-3.93.55 0 .99-.45.99-1 0-.55-.45-1-1-1h-.82v-.82c0-.55-.45-1-1-1-.55 0-1 .45-1 1v.51c-2.44-1.54-5.34-2.44-8.44-2.44h-3.74c-3.11 0-6.01.9-8.44 2.44v-.51c0-.55-.45-1-1-1-.55 0-1 .45-1 1v.82h-.82c-.55 0-1 .45-1 1 0 .55.44.99.99 1-1.12 1.15-2.06 2.47-2.77 3.93-.26-.15-.58-.2-.88-.08-.51.21-.75.8-.54 1.31l.31.76-.76.31c-.51.21-.75.8-.54 1.31.16.38.53.62.92.62.07 0 .13-.03.2-.04-.06.43-.12.86-.14 1.29-.02.35-.03.71-.03 1.07 0 .78.05 1.55.16 2.31-.4 0-.77.23-.93.61-.21.51.03 1.1.54 1.31l.76.31-.31.76c-.21.51.03 1.09.54 1.31.12.05.25.08.38.08.07 0 .14-.02.21-.03.63 1.5 1.47 2.91 2.49 4.19-.3.17-.51.48-.51.86 0 .55.45 1 1 1h.82v.8c-.07.02-.13.04-.19.08-1.18.67-2.29 1.43-3.33 2.27h0c0-.57-.45-1.01-1-1.01-.55 0-1 .45-1 1v1.69h-1.69c-.55 0-1 .45-1 1 0 .55.43.97.97.99-1.72 2.08-3.09 4.43-4.06 6.94-.27-.33-.73-.48-1.15-.3-.51.21-.75.8-.54 1.31l.65 1.56-1.56.65c-.51.21-.75.8-.54 1.31.16.38.53.62.92.62.13 0 .26-.02.38-.08l.5-.21c-.23 1.38-.37 2.78-.37 4.2 0 1.42.13 2.74.35 4.07l-.23-.09c-.51-.21-1.09.03-1.31.54-.21.51.03 1.1.54 1.31l1.5.62c0 0 .02.08.03.12l-.61 1.47c-.21.51.03 1.1.54 1.31.12.05.25.08.38.08.21 0 .41-.07.58-.19 1.02 2.58 2.46 4.98 4.27 7.1h-.13c-.55 0-1 .45-1 1 0 .55.45 1 1 1h1.69v1.69c0 .55.45 1 1 1 .55 0 1-.45 1-1v-.26c1.01.8 2.08 1.53 3.22 2.17.15.08.32.13.49.13h23.87c.17 0 .34-.04.49-.13 1.14-.64 2.21-1.38 3.22-2.17v.26c0 .55.45 1 1 1 .55 0 1-.45 1-1v-1.69h1.69c.55 0 1-.45 1-1 0-.55-.45-1-1-1h-.13c1.81-2.12 3.25-4.52 4.27-7.1.17.12.37.19.58.19.13 0 .26-.02.38-.08.51-.21.75-.8.54-1.31l-.61-1.47c0 0 .02-.08.03-.12l1.5-.62c.51-.21.75-.8.54-1.31-.21-.51-.8-.75-1.31-.54l-.23.09c.22-1.34.35-2.7.35-4.07 0-1.37-.13-2.82-.37-4.2l.5.21c.12.05.25.08.38.08ZM24.37 18.58c0-.32 0-.64.03-.95.42-6.88 6.34-12.27 13.48-12.27h2.01c.09.42.17.86.25 1.52.06.51.49.89.99.89.04 0 .08 0 .11 0 .55-.06.94-.56.88-1.11-.06-.53-.12-.92-.19-1.28 6.99.16 12.75 5.48 13.16 12.25.02.31.03.63.03.95 0 5.43-2.9 10.47-7.58 13.21h-12.3c-.02-.25-.13-.49-.33-.66-.8-.7-1.54-1.58-2.2-2.62-.29-.47-.91-.61-1.38-.31-.47.29-.61.91-.31 1.38.52.83 1.09 1.56 1.71 2.22h-.77c-4.68-2.75-7.58-7.79-7.58-13.21ZM51.41 74.14h-1.56c.71-.81 1.38-1.7 1.99-2.68.29-.47.15-1.08-.31-1.38-.47-.29-1.08-.15-1.38.31-.92 1.46-1.96 2.71-3.08 3.74h-2.26c.36-.88.71-1.86 1.01-2.94.15-.53-.16-1.08-.69-1.24-.53-.15-1.08.16-1.24.69-.38 1.34-.81 2.5-1.27 3.49h-5.77c-.46-.99-.89-2.15-1.27-3.49-.15-.53-.7-.83-1.24-.69-.53.15-.84.71-.69 1.24.31 1.08.65 2.05 1.01 2.94h-6.6c-7.15-4.14-11.58-11.81-11.58-20.06 0-8.25 4.43-15.92 11.58-20.06h4.1c-.55.85-1.06 1.77-1.53 2.8-.23.5 0 1.1.5 1.33.13.06.28.09.41.09.38 0 .74-.22.91-.58.64-1.4 1.37-2.61 2.15-3.63h2.48c-.14.67-.27 1.38-.4 2.45-.06.55.33 1.04.88 1.11.04 0 .08 0 .11 0 .5 0 .93-.38.99-.89.14-1.2.29-1.9.46-2.67h1.19c.17.78.32 1.48.46 2.67.06.51.49.89.99.89.04 0 .08 0 .11 0 .55-.06.94-.56.88-1.11-.12-1.07-.26-1.78-.4-2.45h2.48c.78 1.01 1.51 2.22 2.16 3.63.17.37.53.58.91.58.14 0 .28-.03.42-.09.5-.23.72-.82.49-1.33-.47-1.02-.98-1.95-1.53-2.79h4.1c7.15 4.14 11.59 11.81 11.59 20.06 0 8.25-4.43 15.92-11.59 20.06ZM50.57 15.63c.13.88.19 1.79.19 2.7 0 .55.45 1 1 1 .55 0 1-.45 1-1 0-1.01-.07-2.01-.21-2.99-.08-.55-.59-.93-1.13-.84-.55.08-.92.59-.84 1.13ZM49.86 11.77c.05.18.11.4.2.71.13.43.53.71.96.71.1 0 .2-.01.29-.04.53-.16.82-.72.66-1.25-.08-.28-.14-.48-.19-.64-.13-.5-.22-.77-.57-1.46-.25-.49-.85-.69-1.34-.44-.49.25-.69.85-.44 1.34.28.54.32.69.42 1.08ZM51.8 21.25c-.55-.09-1.05.3-1.13.84-.13.92-.34 1.83-.6 2.7-.16.53.14 1.09.66 1.25.1.03.2.04.29.04.43 0 .82-.28.96-.71.3-.97.52-1.97.67-2.99.08-.55-.3-1.05-.85-1.13ZM29.71 21.87c-.54.13-.87.67-.74 1.2.25 1.03.56 2.03.94 2.98.16.39.53.63.93.63.12 0 .25-.02.37-.07.51-.21.76-.79.56-1.3-.34-.86-.63-1.77-.85-2.7-.13-.54-.67-.87-1.2-.74ZM29.78 14.15c0 0 .08 0 .11 0 .5 0 .93-.38.99-.89.11-.94.27-1.86.48-2.72.13-.54-.2-1.08-.73-1.21-.53-.13-1.08.2-1.21.73-.23.94-.41 1.94-.52 2.97-.06.55.33 1.04.88 1.11ZM29.64 20.29c0 0 .08 0 .12 0 .55-.06.94-.56.88-1.11-.1-.88-.15-1.8-.15-2.73 0-.55-.45-1-1-1-.55 0-1 .45-1 1 0 1 .06 2 .17 2.96.06.51.49.89.99.89ZM47.36 20.46c-.54-.03-1.03.37-1.08.92-.04.48-.08.63-.15.87-.06.21-.13.45-.2.88-.1.54.27 1.06.81 1.16.06.01.12.02.17.02.48 0 .9-.34.98-.83.06-.33.11-.51.16-.67.1-.35.17-.62.22-1.25.04-.55-.36-1.03-.92-1.08ZM45.56 10.69c.15.45.27.8.37 1.39.08.49.51.83.98.83.06 0 .11 0 .17-.01.54-.09.91-.61.81-1.16-.13-.75-.28-1.2-.45-1.69-.07-.22-.15-.45-.23-.73-.16-.53-.71-.83-1.24-.68-.53.16-.83.71-.68 1.24.09.31.18.56.26.8ZM46.28 15.7l.05.6c.04.41.06.63.06 1.3 0 .55.45 1 1 1 .55 0 1-.45 1-1 0-.76-.03-1.03-.07-1.49l-.05-.58c-.04-.55-.53-.95-1.08-.92-.55.04-.96.53-.92 1.08ZM44.8 29.88c.13.06.28.09.42.09.38 0 .74-.22.91-.58l.07-.16c.35-.76.56-1.22.86-2.25.15-.53-.15-1.08-.68-1.24-.54-.15-1.08.16-1.24.68-.26.89-.41 1.23-.75 1.97l-.07.16c-.23.5 0 1.1.49 1.33ZM35.84 25.14c-.54.09-.92.6-.83 1.15.11.67.22 1.04.33 1.42.06.21.13.44.21.76.11.46.52.77.97.77.08 0 .16 0 .23-.03.54-.13.87-.67.74-1.21-.09-.36-.16-.62-.24-.86-.1-.35-.19-.62-.27-1.17-.09-.54-.6-.91-1.15-.83ZM35.27 17.91h0c.55 0 1-.45 1-1 0-.6.02-.91.05-1.29.02-.22.04-.47.06-.8.03-.55-.39-1.02-.94-1.05-.58-.07-1.02.39-1.05.94-.02.31-.04.54-.05.75-.04.43-.06.77-.06 1.45 0 .55.45 1 1 1ZM35.47 12.19c0 0 .08 0 .12 0 .5 0 .93-.37.99-.88.07-.59.17-.92.29-1.33.07-.25.15-.51.22-.85.12-.54-.21-1.07-.75-1.2-.54-.12-1.08.21-1.2.75-.07.29-.13.52-.2.74-.13.44-.26.89-.35 1.64-.07.55.32 1.05.87 1.11ZM35.68 23.58c.55-.06.95-.55.89-1.1l-.05-.48c-.06-.55-.09-.84-.13-1.6-.03-.55-.5-1.02-1.05-.94-.55.03-.97.5-.94 1.05.04.8.08 1.12.14 1.71l.05.47c.05.51.49.9.99.9.03 0 .07 0 .11 0ZM41.65 21.16c-.6 0-1.01.43-1.02.98-.01.63-.03.93-.05 1.32l-.04.76c-.02.55.4 1.02.96 1.04.01 0 .03 0 .04 0 .53 0 .97-.42 1-.96l.04-.74c.02-.41.04-.73.05-1.39.01-.55-.43-1.01-.98-1.02ZM40.55 12.94c.02.54.47.96 1 .96.02 0 .03 0 .05 0 .55-.02.98-.49.95-1.04-.03-.67-.06-1.08-.1-1.54-.02-.24-.04-.49-.06-.8-.04-.55-.5-.98-1.07-.93-.55.04-.97.52-.93 1.07.02.32.04.58.06.82.04.44.07.83.1 1.46ZM41.61 15.6c-.55.01-.99.47-.98 1.02v.53c.03.47.03.69.03 1.43 0 .55.45 1 1 1 .55 0 1-.45 1-1 0-.76 0-.99-.02-1.48v-.53c-.03-.55-.5-1.01-1.04-.98ZM41.01 30.94c0 0 .08 0 .11 0 .5 0 .93-.38.99-.89.04-.33.07-.54.11-.74.06-.34.11-.65.16-1.3.04-.55-.37-1.03-.92-1.07-.57-.04-1.03.37-1.07.92-.04.56-.09.83-.13 1.11-.04.23-.08.47-.12.85-.06.55.33 1.04.88 1.11Z"/>
</svg>