<svg xmlns="http://www.w3.org/2000/svg" viewBox="0 0 80 80">
<path d="M67.64 20.24c-1.02-1.67-2.73-2.81-4.67-3.12-.02-4.38-3.6-7.94-7.98-7.94-2.49 0-4.79 1.13-6.29 3.07-1.08-.33-2.25-.42-3.38-.27-1.18-3.62-4.61-6.16-8.49-6.16-4.92 0-8.93 4-8.93 8.93 0 .39.03.78.08 1.16-1.99.48-3.74 1.71-4.85 3.46-2.32.29-4.38 1.63-5.58 3.66-.07.11-.11.24-.13.36-3.03.19-5.46 2.64-5.6 5.68-1.31.27-2.48 1.06-3.21 2.19-2.68.1-4.84 2.31-4.84 5.02 0 2.71 2.25 5.02 5.02 5.02.47 0 .92-.06 1.37-.19.27.28.57.51.89.72v6.73c0 .55.45 1 1 1 .55 0 1-.45 1-1v-5.97c.69.1 1.41.07 2.09-.12.94.97 2.24 1.54 3.61 1.54 1.27 0 2.45-.47 3.36-1.29.03.03.06.06.09.08v3.58c0 .55.45 1 1 1 .55 0 1-.45 1-1v-2.23c.71.3 1.49.46 2.28.46 1.83 0 3.55-.85 4.68-2.25 1.04.82 2.34 1.27 3.7 1.27 1.58 0 3.08-.62 4.2-1.71 2.89.42 5.48-1.43 6.25-4.03 1.78-.17 3.08-.94 3.88-2.32.08.07.16.14.24.2-.02.08-.05.15-.05.23v6.36c0 .55.45 1 1 1 .55 0 1-.45 1-1v-5.47c.72.26 1.48.4 2.27.4 1.9 0 3.69-.82 4.94-2.21.54.18 1.1.26 1.67.29-.03.09-.06.18-.06.28v4.02c0 .55.45 1 1 1 .55 0 1-.45 1-1v-4.02c0-.15-.04-.29-.1-.42 1.33-.31 2.55-1.01 3.47-2.04.66.22 1.34.32 2.04.32 3.66 0 6.64-2.98 6.64-6.64 0-3.66-2.96-6.62-6.61-6.64ZM38.93 39.86c-.37-.1-.77.03-1.02.33-.76.92-1.88 1.44-3.08 1.44-1.2 0-2.34-.54-3.1-1.47-.22-.26-.55-.41-.89-.36-.34.04-.63.25-.78.56-.68 1.39-2.05 2.25-3.6 2.25-1.42 0-2.74-.76-3.46-1.99-.18-.3-.5-.49-.85-.5h-.02c-.34 0-.66.18-.85.47-.56.89-1.52 1.42-2.56 1.42-.98 0-1.91-.48-2.48-1.29-.28-.4-.8-.54-1.24-.33-1.31.6-2.92.16-3.74-1.01-.28-.4-.8-.54-1.24-.33-.4.19-.83.28-1.26.28-1.67 0-3.02-1.36-3.02-3.02 0-1.66 1.36-3.02 3.02-3.02.1 0 .2 0 .29.01.42.04.82-.18 1-.57.5-1.05 1.57-1.73 2.76-1.73h0c.29 0 .56-.12.75-.34.19-.22.28-.5.24-.79-.02-.16-.03-.33-.03-.5 0-2.2 1.79-3.98 3.98-3.98 1.38 0 2.64.7 3.37 1.86.26.41.78.58 1.23.39.8-.33 1.72-.4 2.56-.17.26.07.55.03.78-.12.23-.15.4-.38.45-.65.44-2.15 2.36-3.71 4.56-3.71 2.57 0 4.66 2.09 4.66 4.65 0 .39-.05.78-.15 1.16-.07.28-.02.58.15.82.17.24.43.39.72.42 1.3.13 2.46.9 3.09 2.05.17.3.48.5.82.52 1.96.1 3.49 1.72 3.49 3.68 0 2.33-2.16 4.18-4.6 3.57ZM67.6 31.52c-.67 0-1.32-.15-1.94-.43-.44-.2-.96-.06-1.24.33-1.26 1.8-3.73 2.49-5.74 1.56-.44-.2-.96-.06-1.24.33-.87 1.24-2.29 1.99-3.8 1.99-1.6 0-3.07-.82-3.93-2.18-.21-.34-.61-.52-1-.46-.4.06-.72.36-.81.74-.37 1.46-1.09 2.21-2.4 2.43-.21-2.63-2.2-4.78-4.8-5.17-.79-1.18-1.97-2.03-3.32-2.41.02-.2.03-.41.03-.62 0-3.67-2.99-6.65-6.66-6.65-2.81 0-5.31 1.79-6.25 4.37-.71-.07-1.43 0-2.11.18-.75-.9-1.74-1.55-2.85-1.88.98-1.37 2.53-2.23 4.23-2.32.35-.02.66-.21.82-.52.95-1.73 2.69-2.89 4.65-3.08.29-.03.55-.18.72-.42.17-.24.22-.54.15-.82-.14-.56-.22-1.14-.22-1.73 0-3.82 3.11-6.93 6.93-6.93 3.27 0 6.13 2.32 6.79 5.52.06.27.22.5.45.65.23.14.52.19.78.12 1.27-.33 2.64-.24 3.84.26.45.19.97.02 1.23-.39 1.1-1.75 3-2.8 5.07-2.8 3.3 0 5.98 2.68 5.98 5.98 0 .25-.02.5-.05.75-.04.29.08.57.27.78.19.21.49.34.78.34 1.78 0 3.42 1.04 4.19 2.66.18.38.58.6 1 .57.15-.01.3-.02.45-.02 2.56 0 4.64 2.08 4.64 4.64 0 2.56-2.08 4.64-4.64 4.64ZM17.61 55.2c.55 0 1-.45 1-1v-6.94c0-.55-.45-1-1-1-.55 0-1 .45-1 1v6.94c0 .55.45 1 1 1ZM16.61 65.71c0 .55.45 1 1 1 .55 0 1-.45 1-1v-6.94c0-.55-.45-1-1-1-.55 0-1 .45-1 1v6.94ZM23.18 61.37c.55 0 1-.45 1-1v-6.94c0-.55-.45-1-1-1-.55 0-1 .45-1 1v6.94c0 .55.45 1 1 1ZM22.18 72.5c0 .55.45 1 1 1 .55 0 1-.45 1-1v-6.94c0-.55-.45-1-1-1-.55 0-1 .45-1 1v6.94ZM28.75 55.2c.55 0 1-.45 1-1v-6.94c0-.55-.45-1-1-1-.55 0-1 .45-1 1v6.94c0 .55.45 1 1 1ZM66.78 48.5c.55 0 1-.45 1-1v-6.94c0-.55-.45-1-1-1-.55 0-1 .45-1 1v6.94c0 .55.45 1 1 1ZM65.78 59c0 .55.45 1 1 1 .55 0 1-.45 1-1v-6.94c0-.55-.45-1-1-1-.55 0-1 .45-1 1v6.94ZM13.04 60.51v-6.94c0-.55-.45-1-1-1-.55 0-1 .45-1 1v6.94c0 .55.45 1 1 1 .55 0 1-.45 1-1ZM61.21 54.67c.55 0 1-.45 1-1v-6.94c0-.55-.45-1-1-1-.55 0-1 .45-1 1v6.94c0 .55.45 1 1 1ZM60.21 65.8c0 .55.45 1 1 1 .55 0 1-.45 1-1v-6.94c0-.55-.45-1-1-1-.55 0-1 .45-1 1v6.94ZM27.75 65.71c0 .55.45 1 1 1 .55 0 1-.45 1-1v-6.94c0-.55-.45-1-1-1-.55 0-1 .45-1 1v6.94ZM33.61 58.4c.55 0 1-.45 1-1v-6.94c0-.55-.45-1-1-1-.55 0-1 .45-1 1v6.94c0 .55.45 1 1 1ZM32.61 69.53c0 .55.45 1 1 1 .55 0 1-.45 1-1v-6.94c0-.55-.45-1-1-1-.55 0-1 .45-1 1v6.94ZM39.22 46.26c-.55 0-1 .45-1 1v6.94c0 .55.45 1 1 1 .55 0 1-.45 1-1v-6.94c0-.55-.45-1-1-1ZM39.22 57.77c-.55 0-1 .45-1 1v6.94c0 .55.45 1 1 1 .55 0 1-.45 1-1v-6.94c0-.55-.45-1-1-1ZM43.79 60.37c0 .55.45 1 1 1 .55 0 1-.45 1-1v-6.94c0-.55-.45-1-1-1-.55 0-1 .45-1 1v6.94ZM43.79 72.5c0 .55.45 1 1 1 .55 0 1-.45 1-1v-6.94c0-.55-.45-1-1-1-.55 0-1 .45-1 1v6.94ZM50.36 55.2c.55 0 1-.45 1-1v-6.94c0-.55-.45-1-1-1-.55 0-1 .45-1 1v6.94c0 .55.45 1 1 1ZM44.81 48.63c.55 0 1-.45 1-1v-4.02c0-.55-.45-1-1-1-.55 0-1 .45-1 1v4.02c0 .55.45 1 1 1ZM55.79 48.11c.55 0 1-.45 1-1v-4.02c0-.55-.45-1-1-1-.55 0-1 .45-1 1v4.02c0 .55.45 1 1 1ZM49.36 65.71c0 .55.45 1 1 1 .55 0 1-.45 1-1v-6.94c0-.55-.45-1-1-1-.55 0-1 .45-1 1v6.94ZM54.79 60c0 .55.45 1 1 1 .55 0 1-.45 1-1v-6.94c0-.55-.45-1-1-1-.55 0-1 .45-1 1v6.94ZM54.79 72.12c0 .55.45 1 1 1 .55 0 1-.45 1-1v-6.94c0-.55-.45-1-1-1-.55 0-1 .45-1 1v6.94Z"/>
</svg>