<svg xmlns="http://www.w3.org/2000/svg" viewBox="0 0 80 80">
<path d="M36.31 9.99c.26-.35.24-.84-.05-1.16-.29-.33-.78-.4-1.15-.17-3.51 2.08-5.92 5.44-6.79 9.47-1.4 6.47 1.93 13.23 7.91 16.08 1.96.93 4.14 1.43 6.3 1.43 1.97 0 3.89-.39 5.69-1.16 3.83-1.64 6.78-4.85 8.08-8.81.13-.4-.03-.84-.4-1.07-.38-.24-.87-.16-1.17.18-3.52 4.07-9.36 5.24-14.2 2.87-4.83-2.37-7.46-7.91-6.27-13.16.37-1.64 1.06-3.15 2.05-4.48ZM39.72 29.27c4.12 2.02 8.92 1.84 12.8-.37-1.31 1.69-3.04 3.03-5.02 3.88-3.34 1.43-7.16 1.35-10.48-.23-5.22-2.49-8.13-8.39-6.91-14.04.44-2.06 1.34-3.92 2.64-5.48-.1.34-.2.68-.27 1.03-1.38 6.07 1.67 12.47 7.25 15.21ZM47.18 21.14c.02.49.42.88.92.88.5 0 .89-.39.91-.88.13-3.32.81-4.44 3.02-4.98.41-.1.7-.47.7-.89 0-.42-.29-.79-.7-.89-2.22-.54-2.9-1.66-3.02-4.98-.02-.49-.42-.88-.91-.88-.49 0-.9.39-.92.88-.13 3.32-.81 4.44-3.03 4.98-.41.1-.7.47-.7.89 0 .42.29.79.7.89 2.22.54 2.9 1.66 3.02 4.98ZM48.1 13.74c.35.62.81 1.13 1.4 1.53-.59.4-1.05.9-1.4 1.53-.35-.62-.81-1.13-1.4-1.53.59-.4 1.05-.9 1.4-1.53ZM22.71 26.49c-.02-.49-.42-.88-.91-.88-.49 0-.9.39-.92.88-.13 3.32-.81 4.44-3.02 4.98-.41.1-.7.47-.7.89 0 .42.29.79.7.89 2.22.54 2.9 1.66 3.02 4.98.02.49.42.88.92.88.5 0 .89-.39.91-.88.13-3.32.81-4.44 3.02-4.98.41-.1.7-.47.7-.89 0-.42-.29-.79-.7-.89-2.22-.54-2.9-1.66-3.02-4.98ZM21.79 33.89c-.35-.62-.81-1.13-1.4-1.53.59-.4 1.05-.9 1.4-1.53.35.62.81 1.13 1.4 1.53-.59.4-1.05.9-1.4 1.53ZM13.87 19.37c-.03-.49-.43-.87-.91-.87-.48 0-.89.38-.91.87-.05.9-.22 1.09-1.12 1.25-.44.08-.76.46-.76.9 0 .44.32.83.76.9.9.16 1.07.34 1.12 1.24.03.49.43.87.91.87.48 0 .89-.38.91-.87.05-.9.22-1.09 1.12-1.24.44-.08.76-.46.76-.9 0-.44-.32-.82-.76-.9-.9-.16-1.07-.35-1.12-1.25ZM63.92 30.22c-.03-.49-.43-.87-.91-.87-.48 0-.89.38-.91.87-.05.9-.22 1.09-1.12 1.24-.44.08-.76.46-.76.9 0 .44.32.83.76.9.9.16 1.07.34 1.12 1.25.03.49.43.87.91.87.48 0 .89-.38.91-.87.05-.9.22-1.09 1.12-1.25.44-.08.76-.46.76-.9 0-.44-.32-.83-.76-.9-.9-.16-1.07-.34-1.12-1.25ZM72.7 55.23c-2.54-2.06-6.45-2.87-9.51-1.97-.23.07-.63.2-1.01.38-.77-1.26-2.26-2.3-3.84-2.66-.31-.07-.62-.1-.91-.12 1.16-2.36 1.07-5.3-.37-7.63-1.45-2.36-4.1-4.12-6.92-4.6-2.62-.45-5.18-.16-7.4.82-1.64.73-3.47 2.2-4.04 4.26-1.01-.76-2.37-1.17-3.9-1.19-2.92 0-5.56 1.41-6.45 3.45-.11.24-.21.52-.29.82-1.3-.69-3.03-.67-3.84-.55-.71.11-1.37.34-1.96.64-.99-.96-2.71-1.48-3.34-1.6-3.45-.66-6.55.99-7.53 3.99-.27.84-.39 2.23-.14 3.46-2.01-.35-4.51.21-5.87 2.35-2.28 3.56-1.63 8.63 1.5 11.79 2.47 2.48 6.21 4.03 9.76 4.03.72 0 1.42-.06 2.1-.18 2.57-.47 4.76-1.95 6.01-4.08.19-.32.34-.65.47-.99.41 1.08 1.06 2.05 1.94 2.86 1.73 1.59 4.18 2.46 6.91 2.46.4 0 .8-.02 1.21-.06 1.81-.17 4.32-1.39 5.62-3.38.47-.72.75-1.48.85-2.29 2.17 1.76 4.82 2.42 7.45 1.73 1.64-.43 3.07-1.35 4.05-2.57.51 2 1.65 3.42 3.4 4.21.99.45 2.1.69 3.19.69 1.46 0 2.79-.42 3.84-1.17 1.03.76 2.28 1.22 3.67 1.33v.05c.26.02.53.02.78.02 2.29 0 4.14-.66 5.51-1.98 1.63-1.58 2.13-3.68 2.28-4.93.03-.08.06-.15.07-.24.21-2.67-1.02-5.35-3.27-7.18ZM72.49 66.42c-1.01.97-2.45 1.45-4.22 1.48-.04 0-.08-.03-.13-.03-2.46.1-4.42-1.19-5.24-3.34-.69-1.82-.08-3.63 1.52-4.51.97-.53 2.38-.51 3.61.04.99.44 1.71 1.22 1.93 2.08.24.92-.15 1.95-.94 2.5-.77.53-1.8.2-2.47-.36-.2-.17-.39-.82-.22-1.24.04-.11.14-.36.73-.31.22.01.43-.05.6-.19.17-.14.27-.35.28-.57.02-.22-.05-.43-.2-.6-.14-.16-.34-.27-.56-.28-1.12-.07-2 .42-2.37 1.34-.41 1.03-.09 2.46.7 3.12 1.15.96 2.97 1.47 4.45.45 1.36-.93 2.02-2.68 1.61-4.27-.35-1.34-1.41-2.52-2.85-3.16-1.68-.75-3.67-.75-5.07.01-2.35 1.28-3.26 3.91-2.27 6.53.27.71.64 1.34 1.09 1.89-1.6.96-3.71.77-5.15.12-1.9-.86-2.8-2.76-2.75-5.8 0-.43-.33-.8-.75-.83-.42-.03-.82.27-.88.7-.29 1.97-1.92 3.62-4.15 4.21-2.71.71-5.48-.37-7.44-2.88 0 0-.01 0-.02-.01-.04-.05-.09-.08-.14-.12-.04-.03-.07-.06-.11-.09 0 0-.01-.01-.02-.01-.05-.02-.1-.03-.14-.04-.05-.01-.09-.03-.14-.04-.06 0-.11 0-.17.01-.05 0-.1 0-.15.02 0 0-.02 0-.03 0-.05.02-.08.05-.12.07-.04.02-.09.03-.12.06 0 0 0 .01-.02.02-.05.04-.08.08-.11.13-.03.04-.07.07-.09.12-.02.05-.03.1-.05.15-.01.05-.04.1-.04.15 0 .05 0 .1.01.15 0 .06 0 .11.02.16 0 0 0 .02 0 .03.4 1.21.27 2.34-.39 3.36-1.01 1.55-3.02 2.52-4.4 2.65-2.71.25-5.21-.46-6.85-1.98-1.29-1.19-1.97-2.82-1.95-4.7.02-1.64 1.42-3.1 3.13-3.25.93-.1 1.98.42 2.52 1.23.41.61.48 1.26.18 1.77-.3.53-.93.81-1.68.76-.45-.03-.84.31-.87.76-.01.22.06.43.2.6.14.16.35.26.56.28 1.39.1 2.59-.49 3.21-1.58.61-1.06.52-2.37-.24-3.5-.87-1.3-2.49-2.09-4.03-1.96-1.78.16-3.32 1.29-4.09 2.8-.06-.16-.11-.32-.17-.47-.92-2.09-2.64-3.55-4.73-4-2.08-.45-4.4.37-5.78 2.03-1.21 1.47-1.49 3.31-.75 5.06.8 1.91 2.94 3.1 4.97 2.77 1.76-.29 2.89-1.59 3.02-3.49.02-.22-.06-.43-.2-.6-.14-.17-.34-.27-.55-.28-.22-.03-.43.05-.6.19-.17.14-.27.35-.29.57-.08 1.11-.66 1.82-1.65 1.98-1.11.18-2.6-.38-3.19-1.78-.67-1.59.03-2.8.5-3.38 1-1.2 2.67-1.79 4.17-1.47 1.57.34 2.87 1.45 3.57 3.05.75 1.71.67 3.62-.21 5.1-1.01 1.71-2.8 2.91-4.9 3.29-3.56.65-7.74-.71-10.39-3.38-2.61-2.63-3.16-6.82-1.28-9.75 1.25-1.96 4-2.13 5.69-1.06.37.23.85.13 1.11-.22.25-.36.18-.85-.16-1.12-.64-.51-.81-2.66-.44-3.79.72-2.2 3.05-3.38 5.66-2.89.55.11 1.62.49 2.27.96-.67.64-1.16 1.41-1.4 2.29-.47 1.72 0 3.5 1.19 4.53.75.65 2.13 1.12 3.27 1.12.69 0 1.25-.16 1.68-.47.37-.27.45-.78.18-1.15-.13-.18-.32-.29-.53-.33-.22-.03-.43.02-.61.15-.56.4-2.26 0-2.92-.57-.72-.62-.98-1.73-.68-2.85.38-1.39 1.72-2.46 3.41-2.72 1.03-.16 2.49.02 3.15.59.1.08.17.17.23.27.03.29.08.55.17.79.13.37.52.6.91.53.39-.07.68-.4.68-.8 0-.3-.04-.6-.13-.88 0-.52.15-1.2.38-1.74.62-1.43 2.69-2.46 4.92-2.46h.02c1.9.02 3.36.8 3.9 2.08.16.39.61.6 1 .47.41-.12.65-.53.56-.95-.63-3.04 2.77-4.64 3.16-4.82 1.93-.85 4.16-1.1 6.46-.7 2.33.4 4.6 1.91 5.8 3.84 1.34 2.17 1.2 5.15-.33 7.07-.13.16-.27.31-.42.46-.07.06-.14.12-.21.18-1.18 1.03-2.9 1.63-4.68 1.58-1.71-.04-3.44-1-4.32-2.39-.47-.74-.89-1.93-.25-3.38.73-1.66 2.7-2.27 4.19-2 .8.14 2.16.66 2.28 2.52.07 1.12-1.11 2.17-2.17 2.33-1.05.15-1.24-.62-1.3-.87-.11-.44-.53-.71-.99-.6-.21.05-.39.18-.51.37-.11.19-.15.41-.1.62.37 1.52 1.6 2.35 3.14 2.11 1.79-.27 3.7-2 3.57-4.06-.13-2.14-1.48-3.65-3.62-4.04-2.1-.38-4.91.52-5.98 2.95-.73 1.65-.6 3.4.36 4.93 1.18 1.86 3.4 3.09 5.67 3.15 2.05.02 3.99-.59 5.44-1.68.11-.05.21-.12.29-.22.06-.07.12-.13.19-.19.04-.03.08-.06.12-.1.64-.46 1.48-.38 1.97-.27 1.43.33 2.81 1.46 3.07 2.53.05.21.19.39.37.51.19.11.41.15.62.09.23-.06.43-.21.53-.42.24-.14.82-.39 1.08-.47 2.53-.74 5.9-.04 8.01 1.67 1.74 1.41 2.72 3.43 2.67 5.45-.04.8-.31 2.99-1.85 4.47Z"/>
</svg>