<svg xmlns="http://www.w3.org/2000/svg" viewBox="0 0 80 80">
<path d="M11.26 25.05c.76.23 1.5.26 2.25.33 0 0 0 0 0 0-.07.12-.1.25-.13.38-.43.06-.85.18-1.23.43-.63.41-1.04 1.02-1.57 1.55-.45.45-1.07 1.04-1.71.81.16.45 1.34 1.14 2.86.61.69-.24 1.19-.72 1.81-1.09.39-.24.77-.47 1.18-.64l2.66 1.51c-.93.05-1.85.2-2.76.49-1.48.47-2.85 1.21-3.5 2.55-.92 1.89.25 3.24.25 3.24-.13-2.36 1.54-2.73 1.71-2.6.25.18-.07.79.14 1.08.4.55 1.68-.21 2.08-.57 1-.9 1.76-1.93 2.99-2.61.34-.19.7-.34 1.07-.44l5.43 3.09c-1.06-.11-2.15-.45-2.84-.58-2.23-.42-3.54.81-4.05 1.87-.15.3-.16.47.17.32.48-.21 1.32-.19 2.72.22 2.41.7 3.04.45 5.23-.54.23-.1.43-.18.63-.24l3.49 1.98c-1.06-.11-2.15-.45-2.84-.58-2.23-.42-3.54.81-4.05 1.87-.15.3-.16.47.18.32.48-.21 1.32-.19 2.72.22 2.41.7 3.04.45 5.23-.54.23-.1.43-.18.63-.24l2.98 1.7c0 0 0 0 0 0l2.04 1.16-1.63.96-3.12 1.83c-.26-.07-.55-.16-.88-.3-2.2-.96-2.83-1.2-5.23-.47-1.4.43-2.24.46-2.72.26-.34-.14-.32.03-.17.33.52 1.05 1.85 2.26 4.08 1.82.78-.16 2.07-.59 3.25-.65l-3.64 2.13c-.26-.07-.55-.16-.88-.3-2.2-.96-2.83-1.2-5.23-.47-1.4.43-2.24.46-2.72.26-.34-.14-.32.03-.17.33.52 1.05 1.85 2.26 4.08 1.82.78-.16 2.07-.59 3.25-.65l-5.55 3.25c-.46-.1-.91-.26-1.34-.49-1.23-.67-2.01-1.69-3.02-2.57-.41-.36-1.7-1.11-2.09-.55-.21.3.12.9-.13 1.08-.17.13-1.84-.22-1.75-2.58 0 0-1.15 1.37-.21 3.25.67 1.33 2.05 2.05 3.54 2.51 1.02.31 2.06.46 3.11.46l-2.75 1.61c-.5-.17-.95-.43-1.42-.71-.62-.37-1.13-.84-1.82-1.07-1.52-.51-2.7.2-2.85.65.64-.24 1.27.34 1.72.79.54.52.96 1.13 1.59 1.53.42.27.88.38 1.35.42.02.09.04.18.09.27.02.04.06.06.09.1-.8.09-1.59.12-2.4.38-1.09.35-1.97 1-2.72 1.8-.28.3-.83 1.06-1.03 1.54.51.07 1.45-.04 1.85-.14 1.06-.26 2.07-.71 2.9-1.49.63-.59 1.04-1.28 1.52-1.94.09.07.19.13.3.16-.25.49-.42 1.01-.39 1.58.04.75.36 1.41.56 2.14.17.61.36 1.45-.16 1.89.47.09 1.66-.59 1.96-2.17.14-.71-.02-1.39-.04-2.11-.02-.76-.02-1.49.25-2.22l3.1-1.82c-.78 1.16-1.35 2.41-1.64 3.79-.33 1.52-.37 3.07.46 4.31 1.18 1.74 2.93 1.41 2.93 1.41-2.1-1.07-1.59-2.7-1.4-2.79.28-.12.65.45 1.01.42.68-.07.66-1.56.55-2.09-.28-1.32-.79-2.49-.77-3.9 0-.75.18-1.46.52-2.12l5.64-3.31c-.49 1.3-1.9 2.53-2.54 3.28-1.47 1.72-1.07 3.47-.4 4.44.19.28.32.38.37.01.06-.52.5-1.24 1.55-2.25 1.81-1.74 1.91-2.41 2.15-4.79.07-.69.22-1.16.4-1.58l3.79-2.22c-.49 1.3-1.9 2.53-2.54 3.28-1.47 1.72-1.07 3.47-.4 4.45.19.28.32.38.37.01.06-.52.5-1.24 1.55-2.25 1.81-1.74 1.91-2.41 2.15-4.79.07-.69.22-1.16.4-1.58l4.85-2.84.02 2.68c0 0 0 0 0 0l.02 3.49c-.22.25-.49.5-.86.77-1.93 1.42-2.45 1.85-3.02 4.3-.33 1.42-.73 2.17-1.14 2.49-.29.22-.14.29.2.31 1.17.07 2.89-.47 3.61-2.62.28-.82.57-2.34 1.22-3.43l.03 4.34c-.22.25-.49.5-.86.77-1.93 1.42-2.45 1.85-3.02 4.3-.33 1.42-.73 2.17-1.14 2.48-.29.22-.14.29.2.31 1.17.07 2.89-.47 3.61-2.62.28-.82.57-2.34 1.22-3.43l.04 6.51c-.35.44-.76.83-1.25 1.13-1.2.73-2.47.9-3.74 1.33-.52.17-1.81.92-1.52 1.54.16.33.84.35.87.65.02.22-1.11 1.49-3.11.23 0 0 .61 1.68 2.71 1.8 1.49.08 2.8-.75 3.94-1.81.86-.81 1.55-1.74 2.11-2.76l.02 3.36c-.43.41-.94.71-1.48 1-.63.35-1.29.56-1.83 1.04-1.2 1.07-1.17 2.44-.86 2.8.11-.67.93-.93 1.54-1.1.72-.2 1.46-.26 2.12-.61.47-.25.81-.62 1.09-1.04.11.05.23.08.35.09-.32.75-.7 1.45-.88 2.28-.24 1.11-.12 2.21.2 3.26.12.4.5 1.25.82 1.66.31-.41.69-1.27.8-1.67.31-1.05.42-2.15.16-3.26-.19-.83-.58-1.53-.91-2.27.13-.01.24-.04.35-.1.29.42.63.79 1.11 1.03.67.34 1.4.39 2.13.58.61.16 1.44.41 1.56 1.08.31-.36.32-1.73-.9-2.78-.55-.48-1.22-.68-1.85-1.02-.54-.29-1.05-.57-1.49-.98l-.02-3.36c.57 1.01 1.27 1.93 2.14 2.73 1.15 1.05 2.48 1.86 3.96 1.76 2.1-.15 2.69-1.84 2.69-1.84-1.98 1.29-3.13.03-3.11-.18.03-.3.72-.33.87-.66.28-.62-1.02-1.35-1.54-1.52-1.28-.41-2.55-.56-3.76-1.28-.49-.29-.91-.68-1.26-1.11l-.04-6.51c.66 1.08.97 2.59 1.26 3.41.75 2.14 2.47 2.66 3.65 2.57.33-.02.49-.09.19-.31-.42-.31-.82-1.05-1.17-2.47-.6-2.44-1.13-2.86-3.08-4.26-.37-.27-.64-.52-.86-.76l-.03-4.34c.66 1.08.97 2.6 1.26 3.41.75 2.14 2.47 2.66 3.65 2.57.33-.02.49-.09.19-.31-.42-.31-.82-1.05-1.17-2.47-.6-2.44-1.13-2.86-3.08-4.26-.37-.27-.64-.52-.86-.76l-.04-5.43 5.18 2.95c.05.2.09.41.11.66.27 2.38.38 3.05 2.21 4.76 1.07 1 1.52 1.71 1.58 2.23.05.36.18.26.37-.02.65-.98 1.03-2.74-.46-4.44-.46-.53-1.31-1.29-1.95-2.14l3.49 1.98c.05.2.09.41.11.66.27 2.38.38 3.05 2.21 4.76 1.07 1 1.52 1.71 1.58 2.23.05.36.18.26.37-.02.65-.98 1.03-2.74-.46-4.44-.46-.53-1.31-1.29-1.95-2.14l5.43 3.09c.1.37.16.76.17 1.15.03 1.4-.45 2.59-.72 3.91-.11.53-.11 2.03.57 2.09.36.03.72-.55 1-.43.2.09.73 1.71-1.36 2.8 0 0 1.76.31 2.91-1.44.82-1.25.76-2.8.4-4.31-.21-.93-.55-1.8-.99-2.62l2.66 1.51c.06.44.06.88.05 1.34-.01.72-.16 1.4-.02 2.11.32 1.57 1.53 2.24 1.99 2.14-.52-.43-.34-1.27-.18-1.89.19-.73.5-1.39.53-2.15.02-.45-.09-.87-.26-1.26.1-.09.2-.18.27-.31 0 0 0 0 0 0 .44.6.84 1.22 1.42 1.75.84.77 1.85 1.21 2.92 1.45.4.09 1.34.19 1.85.12-.2-.48-.76-1.23-1.05-1.53-.75-.79-1.65-1.43-2.74-1.77-.77-.24-1.54-.26-2.3-.34.03-.12.04-.25.03-.37.49-.04.96-.16 1.39-.44.63-.41 1.04-1.02 1.57-1.55.45-.45 1.07-1.04 1.71-.81-.16-.45-1.34-1.14-2.86-.62-.69.24-1.19.72-1.81 1.09-.53.33-1.04.63-1.62.81l-2.93-1.67c1.17.02 2.33-.13 3.47-.49 1.48-.47 2.85-1.21 3.5-2.55.92-1.89-.25-3.24-.25-3.24.13 2.36-1.54 2.73-1.72 2.6-.25-.18.07-.79-.14-1.08-.4-.55-1.68.21-2.09.57-1 .9-1.76 1.93-2.99 2.61-.5.28-1.04.47-1.59.56l-5.7-3.24c1.28-.04 2.76.46 3.63.62 2.23.42 3.54-.81 4.05-1.87.15-.3.16-.47-.17-.32-.48.2-1.32.19-2.72-.22-2.41-.7-3.04-.45-5.22.54-.43.19-.79.31-1.12.38l-3.79-2.15c1.28-.04 2.76.46 3.63.62 2.23.42 3.54-.81 4.05-1.87.15-.3.16-.47-.17-.32-.48.2-1.32.19-2.72-.22-2.41-.7-3.04-.45-5.23.54-.43.19-.79.31-1.12.38l-3.07-1.75c0 0 0 0 0 0l-2.28-1.3 2.43-1.42 2.44-1.43c.46.05.94.15 1.58.43 2.2.96 2.83 1.2 5.23.47 1.4-.43 2.24-.46 2.72-.26.34.14.32-.03.17-.33-.52-1.06-1.85-2.26-4.08-1.82-.97.19-2.73.82-4.1.62l3.79-2.22c.46.05.94.15 1.58.43 2.2.96 2.83 1.2 5.23.47 1.4-.43 2.24-.46 2.72-.26.34.14.32-.03.17-.33-.52-1.05-1.85-2.26-4.08-1.82-.97.19-2.73.82-4.11.62l5.64-3.31c.74.03 1.44.22 2.1.58 1.23.67 2.01 1.69 3.02 2.58.41.36 1.7 1.11 2.09.55.21-.3-.12-.9.13-1.08.18-.13 1.84.22 1.75 2.58 0 0 1.15-1.37.21-3.25-.67-1.33-2.05-2.05-3.53-2.51-1.35-.41-2.72-.53-4.11-.41l3.1-1.82c.77.11 1.41.47 2.06.86.62.37 1.13.84 1.82 1.07 1.52.51 2.7-.2 2.85-.65-.64.24-1.27-.34-1.72-.79-.54-.53-.96-1.13-1.59-1.53-.54-.34-1.14-.44-1.76-.44 0-.18-.01-.36-.11-.52-.03-.04-.07-.07-.1-.11.26-.49.43-1.02.4-1.6-.04-.75-.36-1.41-.56-2.14-.17-.61-.36-1.45.16-1.89-.47-.09-1.66.59-1.96 2.17-.14.71.02 1.39.04 2.11.02.54.02 1.06-.07 1.58l-2.75 1.61c.51-.92.89-1.89 1.11-2.94.33-1.52.37-3.07-.46-4.31-1.18-1.74-2.93-1.41-2.93-1.41 2.1 1.07 1.59 2.7 1.4 2.79-.28.12-.65-.45-1.01-.42-.68.07-.66 1.56-.54 2.09.28 1.32.78 2.49.77 3.89 0 .49-.08.96-.23 1.41l-5.55 3.25c.63-1.01 1.64-1.92 2.16-2.52 1.47-1.72 1.07-3.48.41-4.44-.19-.28-.32-.38-.37-.01-.06.51-.5 1.24-1.55 2.25-1.81 1.74-1.91 2.41-2.15 4.79-.04.36-.09.65-.16.91l-3.64 2.13c.63-1.01 1.64-1.92 2.16-2.52 1.47-1.72 1.07-3.48.41-4.44-.19-.28-.32-.38-.37-.01-.06.52-.5 1.24-1.55 2.25-1.81 1.74-1.91 2.41-2.15 4.79-.04.36-.09.65-.16.91l-5.09 2.98v-2.15c0 0-.01 0-.01 0l-.02-3.49c.22-.25.49-.5.86-.77 1.93-1.42 2.45-1.85 3.02-4.3.33-1.42.73-2.17 1.14-2.49.29-.22.14-.29-.2-.31-1.17-.07-2.89.47-3.61 2.62-.28.82-.57 2.34-1.22 3.43l-.03-4.34c.22-.25.49-.5.86-.77 1.93-1.42 2.45-1.85 3.02-4.3.33-1.42.73-2.17 1.14-2.48.29-.22.14-.29-.2-.31-1.17-.07-2.89.47-3.61 2.62-.28.82-.57 2.34-1.22 3.43l-.04-6.51c.35-.44.76-.83 1.25-1.13 1.2-.73 2.47-.9 3.74-1.33.51-.17 1.81-.92 1.52-1.54-.15-.33-.84-.35-.87-.65-.03-.22 1.11-1.49 3.11-.23 0 0-.61-1.68-2.71-1.8-1.49-.08-2.8.75-3.94 1.81-.87.81-1.55 1.74-2.11 2.76l-.02-3.36c.43-.41.94-.71 1.47-1 .63-.35 1.29-.56 1.84-1.04 1.2-1.07 1.17-2.44.86-2.8-.11.67-.93.93-1.54 1.1-.73.2-1.46.27-2.12.61-.47.25-.81.62-1.09 1.04-.11-.05-.23-.08-.35-.09.32-.75.7-1.45.88-2.28.24-1.11.12-2.21-.2-3.26-.12-.4-.51-1.25-.82-1.66-.31.41-.69 1.27-.8 1.67-.31 1.05-.41 2.15-.16 3.26.19.83.58 1.53.91 2.27-.13.01-.24.04-.35.1-.29-.42-.63-.79-1.11-1.03-.67-.34-1.4-.39-2.13-.58-.61-.16-1.44-.41-1.56-1.08-.31.36-.32 1.73.9 2.78.55.48 1.22.67 1.85 1.02.54.29 1.05.58 1.49.98l.02 3.36c-.57-1.01-1.27-1.93-2.14-2.73-1.15-1.05-2.48-1.86-3.96-1.76-2.1.15-2.69 1.84-2.69 1.84 1.98-1.29 3.13-.03 3.11.18-.03.31-.71.34-.87.66-.28.62 1.02 1.35 1.54 1.52 1.28.41 2.55.56 3.76 1.28.49.29.91.67 1.26 1.11l.04 6.51c-.66-1.08-.97-2.6-1.26-3.42-.75-2.14-2.48-2.66-3.65-2.57-.33.02-.49.09-.19.31.42.31.82 1.05 1.17 2.47.6 2.44 1.13 2.86 3.08 4.26.37.27.64.52.87.76l.03 4.34c-.66-1.08-.97-2.6-1.26-3.42-.75-2.14-2.48-2.66-3.65-2.57-.33.02-.49.09-.19.31.42.31.82 1.05 1.17 2.47.6 2.44 1.13 2.86 3.08 4.26.37.27.64.52.87.76l.04 5.84-5.05-2.87c-.11-.32-.2-.68-.25-1.15-.27-2.38-.38-3.05-2.21-4.76-1.07-1-1.52-1.71-1.58-2.23-.05-.36-.18-.27-.37.02-.65.98-1.03 2.74.46 4.44.58.66 1.77 1.68 2.38 2.8l-3.79-2.15c-.11-.32-.19-.68-.25-1.15-.27-2.38-.38-3.05-2.21-4.76-1.07-1-1.52-1.71-1.58-2.23-.05-.36-.18-.27-.37.02-.65.98-1.03 2.74.46 4.44.58.66 1.77 1.68 2.38 2.8l-5.7-3.24c-.21-.52-.32-1.08-.34-1.65-.03-1.4.45-2.59.72-3.9.11-.53.11-2.03-.57-2.09-.36-.03-.72.55-1 .43-.2-.09-.73-1.71 1.36-2.81 0 0-1.76-.31-2.92 1.45-.82 1.25-.75 2.8-.4 4.32.27 1.16.74 2.23 1.35 3.24l-2.93-1.67c-.15-.59-.15-1.18-.14-1.8 0-.72.16-1.4.01-2.11-.32-1.57-1.53-2.24-1.99-2.14.52.43.34 1.27.18 1.89-.19.73-.5 1.39-.53 2.15-.02.52.12.98.34 1.43-.11.05-.21.12-.3.21-.46-.62-.87-1.27-1.47-1.82-.84-.76-1.85-1.21-2.92-1.45-.4-.09-1.34-.19-1.85-.12.2.48.76 1.23 1.04 1.53.75.79 1.65 1.43 2.74 1.77ZM67.68 24.68c1.08-.35 1.97-1 2.72-1.8.28-.3.83-1.06 1.03-1.54-.52-.06-1.44.04-1.85.14-1.06.26-2.07.71-2.9 1.49-.68.64-1.11 1.41-1.65 2.12.89-.12 1.77-.12 2.66-.4Z"/>
</svg>