<svg xmlns="http://www.w3.org/2000/svg" viewBox="0 0 80 80">
<path d="M9.46 47.37c-.85-.23-1.72.28-1.95 1.12-.23.85.28 1.72 1.12 1.95l6.07 1.63-2.87 1.66c-.76.44-1.02 1.41-.58 2.17.44.76 1.41 1.02 2.17.58l2.87-1.66-1.63 6.07c-.23.85.28 1.72 1.12 1.95.84.23 1.72-.28 1.95-1.12l2.45-9.14 2.3-1.33-1.63 6.07c-.23.85.28 1.72 1.12 1.95.85.23 1.72-.28 1.95-1.12l2.54-9.14 11.08-6.35v12.69l-6.79 6.69c-.62.62-.67 1.63-.05 2.25.62.62 1.7.62 2.32 0l4.51-4.44v2.66l-6.79 6.69c-.62.62-.67 1.63-.05 2.25.62.62 1.7.62 2.32 0l4.51-4.44v3.52c0 .88.78 1.59 1.66 1.59.88 0 1.66-.71 1.66-1.59v-3.52l4.28 4.44c.62.62 1.55.62 2.17 0 .62-.62.74-1.63.12-2.25l-6.57-6.69v-2.66l4.28 4.44c.62.62 1.55.62 2.17 0 .62-.62.74-1.63.12-2.25l-6.57-6.69v-12.69l10.83 6.35 2.37 9.14c.23.85 1.06 1.35 1.91 1.12.85-.23 1.33-1.1 1.1-1.95l-1.64-6.07 2.3 1.33 2.45 9.14c.23.85 1.1 1.35 1.95 1.12.85-.23 1.35-1.1 1.12-1.95l-1.63-6.07 2.87 1.66c.76.44 1.73.18 2.17-.58.44-.76.18-1.73-.58-2.17l-2.87-1.66 6.07-1.63c.85-.23 1.35-1.1 1.12-1.95-.23-.85-1.1-1.35-1.95-1.12l-9.14 2.45-2.3-1.33 6.07-1.63c.85-.23 1.35-1.1 1.12-1.95-.23-.85-1.1-1.35-1.95-1.12l-9.14 2.45-10.99-6.35 10.99-6.34 9.14 2.45c.85.23 1.72-.28 1.95-1.12.23-.85-.28-1.72-1.12-1.95l-6.07-1.63 2.3-1.33 9.14 2.45c.85.23 1.72-.28 1.95-1.12.23-.85-.28-1.72-1.12-1.95l-6.07-1.63 2.87-1.66c.76-.44 1.02-1.41.58-2.17-.44-.76-1.41-1.02-2.17-.58l-2.87 1.66 1.63-6.07c.23-.85-.28-1.72-1.12-1.95-.85-.23-1.72.28-1.95 1.12l-2.45 9.14-2.3 1.33 1.63-6.07c.23-.85-.28-1.72-1.12-1.95-.85-.23-1.72.28-1.95 1.12l-2.29 9.14-10.83 6.35v-12.69l6.53-6.69c.62-.62.54-1.63-.08-2.25-.62-.62-1.51-.62-2.13 0l-4.32 4.44v-2.66l6.53-6.69c.62-.62.54-1.63-.08-2.25-.62-.62-1.51-.62-2.13 0l-4.32 4.44v-3.12c0-.88-.78-1.59-1.66-1.59-.88 0-1.66.71-1.66 1.59v3.12l-4.54-4.44c-.62-.62-1.68-.62-2.3 0-.62.62-.55 1.63.07 2.25l6.76 6.69v2.66l-4.54-4.44c-.62-.62-1.68-.62-2.3 0-.62.62-.55 1.63.07 2.25l6.76 6.69v12.69l-11.08-6.35-2.5-9.14c-.23-.85-1.12-1.35-1.97-1.12-.85.23-1.36 1.1-1.14 1.95l1.62 6.07-2.31-1.33-2.45-9.14c-.23-.85-1.1-1.35-1.95-1.12-.85.23-1.35 1.1-1.13 1.95l1.63 6.07-2.87-1.66c-.76-.44-1.73-.18-2.17.58-.44.76-.18 1.73.58 2.17l2.87 1.66-6.07 1.63c-.85.23-1.35 1.1-1.12 1.95.23.85 1.1 1.35 1.95 1.12l9.14-2.45 2.3 1.33-6.07 1.63c-.85.23-1.35 1.1-1.12 1.95.23.85 1.1 1.35 1.95 1.12l9.14-2.45 10.99 6.34-10.99 6.35-9.14-2.45c-.85-.23-1.72.28-1.95 1.12-.23.85.28 1.72 1.12 1.95l6.07 1.63-2.3 1.33-9.14-2.45Z"/>
</svg>