<svg xmlns="http://www.w3.org/2000/svg" viewBox="0 0 80 80">
<path d="M71.36 28.55v-.02c.03-1.16-.35-2.3-1.08-3.2-2.19-2.73-4.1-3.13-5.82-2.94-.39-3.86-3.65-6.88-7.61-6.88-2.81 0-5.26 1.52-6.59 3.77-1.24-1.37-3.03-2.23-5.02-2.23-3.61 0-6.57 2.84-6.75 6.4 0 0 .05 3.22.98 3.22.36 0 .72-.03 1.09-.03 7.53 0 13.93 4.86 16.23 11.62.16 0 .31-.01.47-.01 3.03 0 5.79 1.19 7.82 3.13 1.11 1.06 2.92.94 3.74-.36.02-.04.05-.08.07-.12.8.26 1.67.37 2.58.28 3.14-.3 5.65-3 5.73-6.14.09-3.41-2.51-6.23-5.83-6.49ZM4.04 53.36c-.01.2-.02.4-.02.6 0 4.86 3.94 8.8 8.8 8.8h50.43c3.02 0 5.54-2.12 6.17-4.95.1-.44.15-.9.15-1.37 0-2.12-1.05-3.99-2.65-5.13-.02-2.36-.77-4.55-2.02-6.36-2.05-2.95-5.46-4.88-9.32-4.88-.16 0-.31 0-.47.01-2.3-6.76-8.7-11.62-16.23-11.62-1.87 0-3.66.3-5.35.86-3.47 1.14-6.45 3.35-8.55 6.25-.55-.07-1.11-.11-1.68-.11-6.32 0-11.63 4.29-13.19 10.12-3.35 1.08-5.83 4.11-6.08 7.76v.02Z"/>
</svg>