<svg xmlns="http://www.w3.org/2000/svg" viewBox="0 0 80 80">
<path d="M44.81 29.79c-2.67-1.56-6.27-1.56-8.95 0-2.38 1.39-3.66 3.77-3.61 6.7-.05 2.94 1.24 5.32 3.61 6.71 1.31.77 2.86 1.17 4.47 1.17 1.61 0 3.16-.41 4.47-1.17 2.38-1.39 3.66-3.77 3.61-6.7.05-2.94-1.24-5.32-3.61-6.71ZM45.59 40.05c-1.06 1.81-2.88 2.81-5.13 2.81h-.14c0 0-.12 0-.12 0-2.25 0-4.07-1-5.13-2.81-1.24-2.13-1.24-4.99 0-7.12 1.06-1.81 2.88-2.81 5.13-2.81h.26c2.25 0 4.07 1 5.13 2.81 1.25 2.13 1.25 4.99 0 7.12ZM55.76 31.02c.92-.46 1.88-.94 2.82-1.29l.06-.04c.36-.25 2.57-1.22 4.97-2.26 8.27-3.6 12-5.35 12.19-6.23l.07-.3-.28-.12c-.69-.29-1.34-.06-1.91.19-2.45 1.13-6.36 2.85-10.5 4.68l-.29.13c-4.39 1.94-9.38 4.14-12.12 5.41-.58.25-1.2.6-1.42 1.31l-.15.48h.55c2.09 0 4.09-1 6.02-1.97ZM77.68 37.73l-1.4-.36c-4.26-1.11-9.85-1.39-14.8-1.65h-.07c-2.1-.11-4.09-.21-5.95-.37-.46.02-.97-.02-1.45-.06h-.06c-1.17-.09-2.38-.19-3.48.37l-.69.35.71.31c1.95.86 4.16.92 6.3.98 1.07.03 2.28.06 3.43.22 1.48 0 3.37.2 5.41.41 2.24.23 4.78.49 7.01.49 1.49 0 2.68-.12 3.65-.36l1.41-.35ZM74.42 50.74c-1.36-1.32-3.14-2.08-4.87-2.8-.87-.37-1.77-.75-2.61-1.2-3.81-1.76-7.8-3.52-12.23-5.41-.45-.15-.93-.38-1.4-.6-1.08-.51-2.3-1.07-3.52-.98l-.66.06.39.53c.72.97 1.92 1.48 3.08 1.97.5.21.98.42 1.41.66 2.93 1.37 5.34 2.48 7.6 3.49 1.45.54 2.91 1.24 4.34 1.92 2.61 1.24 5.3 2.53 8.15 2.99l1.16.19-.84-.82ZM58.09 53.3c-2.19-2.29-4.53-4.64-7.19-7.22-.26-.21-.51-.48-.81-.79-.7-.74-1.42-1.5-2.41-1.63l-.48-.07.06.48c.12 1 .87 1.73 1.59 2.43.29.29.57.55.8.85 2.31 2.42 5.43 5.61 8.73 9l.52.54c4.12 4.22 8.37 8.58 11.33 11.7l.05.05c.62.62 1.32 1.31 2.28 1.51l.71.15-.29-.66c-.92-2.04-5.9-7.07-9.9-11.11l-.19.17h0c0 0 0 0 0 0h0c0 0 .18-.18.18-.18-2.15-2.17-4.18-4.22-4.98-5.21ZM44.74 45.87l-.47-.32-.1.56c-.12.67-.05 1.39.21 2.26 1.17 3.92 7.01 23.47 7.09 23.65.28.64.61 1.1 1.03 1.45l.53.44.07-.69c.1-1.01-1.8-7.98-3.61-14.03-1.14-3.82-3.89-12.76-4.74-13.34ZM36.12 45.29c-1.45 1.54-5.77 11.44-8.94 18.7-1.54 3.52-2.99 6.85-3.57 7.96-.26.74-.5 1.53-.29 2.33l.09.36.36-.1c.76-.21 2.8-4.35 9.07-18.45 1.4-3.16 2.62-5.88 2.91-6.39.11-.36.26-.73.4-1.08.4-1 .81-2.02.6-3.15l-.13-.72-.5.53ZM10.15 66.28c.82-.88 3.51-3.27 6.91-6.3 6.73-5.99 15.94-14.19 16.81-16.23l.27-.63-.68.13c-1.13.22-1.96.97-2.77 1.7-.29.26-.59.54-.95.82-.38.46-2.99 2.81-6 5.53l-.11.1c-10.81 9.73-15.97 14.56-16.03 15.65l-.02.44.43-.05c.83-.09 1.5-.61 2.13-1.14ZM39.61 65.49c-.01 3.02-.03 6.14.71 8.8l.45 1.63.27-1.67c.71-4.4.54-9.04.37-13.54-.09-2.37-.18-4.81-.14-7.16v-.02c-.02-.86-.07-2.58-.1-3.46-.02-.24-.02-.52-.02-.81 0-.25.03-.52.05-.81.08-.77.16-1.57-.31-2.14l-.08-.09h-1.29l-.03.21c-.13.8-.15 2.56-.09 3.77.03.58.05 1.13 0 1.65.01 3.21.04 6.02.09 8.63.13 1.55.12 3.2.12 4.94h.25c0 0-.25.07-.25.07ZM6.18 35.54h.05c5.2.41 12.05.92 18.96 1.19.43-.02.92.01 1.52.07.46.04.93.08 1.38.08.86 0 1.5-.15 2.03-.48l.45-.28-.41-.33c-.91-.72-2.16-.75-3.37-.78-.51-.01-1.04-.02-1.54-.11-2.8-.2-5.38-.36-7.88-.5-3.06-.17-6.5-.3-9.48-.41-.21 0-.43-.01-.67-.03-.91-.05-1.94-.11-2.71.37l-.46.29.45.32c.47.33.99.52 1.69.59ZM28.12 30.98c-.53-.18-1.03-.34-1.48-.56-2.76-1.05-5.34-2.02-7.69-2.87-3.1-1.12-6.44-2.28-9.3-3.27-.2-.06-.42-.14-.66-.23-.89-.32-1.89-.69-2.78-.47l-.55.14.34.45c.24.32.51.52.74.67l.06.03c4.63 2.01 9.5 3.77 14.21 5.47l.14.05c1.11.4 2.21.8 3.31 1.2.77.27 2.33.82 3.11 1.09.22.07.46.16.73.26.63.24 1.34.5 2.02.5.27 0 .51-.04.74-.12l.46-.17-.29-.39c-.7-.97-1.92-1.37-3.12-1.77ZM33.1 29.81l.39-.03-.06-.39c-.15-1-1.1-1.85-1.95-2.6-.41-.36-.79-.7-1.07-1.05-1.68-1.66-3.32-3.22-4.9-4.67-.93-.7-2.48-2.23-4.29-4.01-3.13-3.08-6.68-6.58-8.63-7.4l-.73-.31.24.76c.15.49.4.87.6 1.15l.03.04c1.77 1.9 5.68 5.6 8.82 8.57l.08.08c1.68 1.59 3.27 3.09 4.25 4.06 1.52 1.43 3.3 3.02 5 4.53.11.09.23.2.37.33.48.45 1.03.96 1.73.96.04 0 .07 0 .11 0ZM30.34 14.49c1.01 2.62 2.15 5.6 2.55 6.79.56 1.49 1.23 3.14 2.05 5.06.04.08.07.16.11.26.19.48.45 1.13 1.14 1.24l.26.04.12-.24c.41-.8.06-1.62-.25-2.36-.14-.34-.28-.67-.35-1.01-.65-1.94-1.39-3.91-2.2-5.87-.25-.44-.75-1.8-1.32-3.38l-.03-.08c-1.6-4.4-2.91-7.82-3.89-8.38l-.4-.23-.14.43c-.15.44-.16.92-.03 1.47v.02c.4 1.14 1.35 3.61 2.36 6.23ZM39.5 25.55v.16c0 .41.01 1.1.71 1.39l.15.02.1-.05c.4-.2.64-.54.64-.89.21-2.65.28-4.69.22-6.67-.04-.19-.02-1.7 0-3.03v-.09c.12-7.96-.04-9.8-.89-9.88l-.15.02-.08.08c-.4.36-.62.87-.63 1.46.02 1.75 0 4.34-.05 7.59-.04 3.76-.09 7.64-.02 9.9ZM44.6 27.86c.12 0 .23-.03.33-.1h0c.7-.55 8.54-18.17 8.61-18.33 0-.03.94-2.58.35-2.94-.06-.03-.16-.07-.29-.02-.44.16-1.35 1.36-1.68 2.23-.1.25-5.21 11.52-8.28 18.2-.1.23-.01.49.25.69.18.14.46.27.72.27ZM57.99 20.55c1.12-1.29 2.24-2.58 3.33-3.82 2.53-2.84 4.71-5.3 5.81-6.3.09-.11.2-.23.35-.39.47-.5 1.12-1.19 1.02-2.06l-.06-.16-.11-.06c-.77-.44-2.51 1.09-11.34 11-1.99 2.24-4.25 4.77-4.58 4.96l-.12.09c-.44.48-.93.96-1.4 1.42l-.07.07c-.22.21-.44.43-.66.64-1.04.98-2.11 2-2.76 3.23l-.05.17v.06c.02.11.08.19.33.51.07.08.14.17.18.22l.12.34.37-.15c1.85-.78 5.64-5.15 9.64-9.77ZM6.07 47.9c2.95 0 9.85-2.28 15.4-4.11 3.14-1.04 5.86-1.94 7.26-2.23h.04c.13-.06.29-.11.5-.17.66-.19 1.56-.46 1.92-1.25l.02-.11c0-.14-.07-.28-.19-.36-.6-.44-3.99.44-14.5 3.76-1.72.54-3.87 1.22-4.07 1.25l-.11.02c-.63.19-1.32.36-2.03.54-1.68.41-3.41.84-4.89 1.75l-.07.07-.03.06c-.03.07-.08.17-.11.31l-.09.39.4.05c.17.02.36.03.57.03Z"/>
</svg>