<svg xmlns="http://www.w3.org/2000/svg" viewBox="0 0 80 80">
<path d="M67.73 56.64c.22-.36.2-.81-.06-1.14-.26-.33-.69-.46-1.09-.34-2.9.92-5.92 1.39-8.98 1.39-16.33 0-29.61-13.28-29.61-29.61 0-5.52 1.53-10.91 4.43-15.58.22-.36.2-.81-.06-1.14-.26-.33-.69-.46-1.09-.34-13.17 4.19-22.03 16.29-22.03 30.13 0 17.43 14.18 31.61 31.61 31.61 11.01 0 21.06-5.6 26.88-14.97ZM40.86 69.61c-16.33 0-29.61-13.28-29.61-29.61 0-12.06 7.19-22.72 18.13-27.3-2.22 4.4-3.39 9.27-3.39 14.24 0 17.43 14.18 31.61 31.61 31.61 2.34 0 4.66-.26 6.93-.77-5.58 7.45-14.25 11.83-23.68 11.83ZM41.72 27.19c-.1-.46-.51-.78-.98-.78-.47 0-.87.32-.98.78-1.01 4.47-1.57 5.04-6.05 6.05-.46.1-.78.51-.78.98 0 .47.32.87.78.98 4.47 1.01 5.04 1.57 6.05 6.05.1.46.51.78.98.78.47 0 .87-.32.98-.78 1.01-4.47 1.58-5.04 6.05-6.05.46-.1.78-.51.78-.98 0-.47-.32-.87-.78-.98-4.47-1.01-5.04-1.58-6.05-6.05ZM40.75 37.52c-.7-1.65-1.65-2.6-3.31-3.31 1.65-.7 2.6-1.66 3.31-3.31.7 1.65 1.65 2.6 3.31 3.31-1.65.7-2.6 1.65-3.31 3.31ZM59.2 33.98c-.47 0-.87.32-.98.78-1.01 4.47-1.58 5.04-6.05 6.05-.46.1-.78.51-.78.98 0 .47.32.87.78.98 4.47 1.01 5.04 1.58 6.05 6.05.1.46.51.78.98.78.47 0 .87-.32.98-.78 1.01-4.47 1.57-5.04 6.05-6.05.46-.1.78-.51.78-.98 0-.47-.32-.87-.78-.98-4.47-1.01-5.04-1.58-6.05-6.05-.1-.46-.51-.78-.98-.78ZM62.51 41.78c-1.65.7-2.6 1.65-3.31 3.31-.7-1.65-1.65-2.6-3.31-3.31 1.65-.7 2.6-1.65 3.31-3.31.7 1.65 1.65 2.6 3.31 3.31ZM59.51 20.06c-4.47-1.01-5.04-1.58-6.05-6.05-.1-.46-.51-.78-.98-.78-.47 0-.87.32-.98.78-1.01 4.47-1.57 5.04-6.05 6.05-.46.1-.78.51-.78.98 0 .47.32.87.78.98 4.47 1.01 5.04 1.58 6.05 6.05.1.46.51.78.98.78.47 0 .87-.32.98-.78 1.01-4.47 1.57-5.04 6.05-6.05.46-.1.78-.51.78-.98 0-.47-.32-.87-.78-.98ZM52.48 24.34c-.7-1.65-1.65-2.6-3.31-3.31 1.65-.7 2.6-1.65 3.31-3.31.7 1.65 1.65 2.6 3.31 3.31-1.65.7-2.6 1.65-3.31 3.31Z"/>
</svg>