<svg width="32" height="32" viewBox="0 0 32 32" fill="none" xmlns="http://www.w3.org/2000/svg">
  <path
    d="M24.575 18.689C24.179 18.689 23.857 19.01 23.857 19.406L23.869 21.457C23.826 21.478 23.752 21.512 23.629 21.559L15.719 24.503L15.639 13.185L23.857 10.435V13.502C23.857 13.898 24.179 14.219 24.575 14.219C24.971 14.219 25.292 13.897 25.292 13.502V9.50602C25.292 8.55902 24.473 8.26202 24.123 8.13602L15.834 5.13502C15.328 4.95302 14.772 4.95402 14.264 5.14102L6.187 8.12902C5.893 8.22702 5 8.52602 5 9.50502V21.533C5 22.42 5.665 22.695 6.159 22.899L14.042 25.899C14.37 26.024 14.712 26.087 15.059 26.087C15.4 26.087 15.736 26.026 16.056 25.907L24.135 22.899C24.539 22.745 25.292 22.458 25.292 21.533V19.405C25.292 19.009 24.971 18.688 24.575 18.688V18.689ZM6.435 10.024L14.205 13.154L14.284 24.457L6.689 21.568C6.562 21.515 6.482 21.479 6.435 21.459V10.024ZM7.844 9.04502L14.759 6.48702C14.947 6.41702 15.155 6.41702 15.345 6.48502L22.932 9.23102L14.94 11.905L7.843 9.04502H7.844Z"
    fill="currentColor" />
  <path
    d="M25.827 16.184L24.514 15.61C23.545 15.186 22.779 14.419 22.355 13.45L21.781 12.137C21.667 11.876 21.409 11.707 21.124 11.707C20.839 11.707 20.58 11.876 20.466 12.137L19.892 13.45C19.468 14.419 18.702 15.186 17.732 15.61L16.419 16.184C16.158 16.299 15.99 16.557 15.99 16.842C15.99 17.127 16.159 17.385 16.42 17.499L17.732 18.073C18.702 18.497 19.468 19.263 19.892 20.233L20.466 21.545C20.58 21.807 20.838 21.976 21.124 21.976C21.41 21.976 21.667 21.807 21.781 21.546L22.355 20.234C22.778 19.264 23.545 18.498 24.513 18.074L25.827 17.5C26.088 17.386 26.257 17.128 26.257 16.843C26.257 16.558 26.089 16.3 25.827 16.185V16.184ZM23.758 16.841C22.603 17.396 21.677 18.321 21.123 19.477C20.568 18.322 19.644 17.396 18.487 16.841C19.642 16.287 20.567 15.362 21.123 14.206C21.678 15.362 22.603 16.288 23.758 16.841Z"
    fill="currentColor" />
</svg>
