<svg width="32" height="32" viewBox="0 0 32 32" fill="none" xmlns="http://www.w3.org/2000/svg">
  <path
    d="M6.514 13.014H11.501C12.335 13.014 13.015 12.335 13.015 11.5V6.514C13.015 5.68 12.336 5 11.501 5H6.514C5.679 5 5 5.679 5 6.514V11.501C5 12.335 5.679 13.015 6.514 13.015V13.014ZM6.614 11.4V6.614H11.4V11.4H6.614Z"
    fill="currentColor" />
  <path
    d="M20.486 13.014H25.473C26.308 13.014 26.987 12.335 26.987 11.5V6.514C26.987 5.68 26.308 5 25.473 5H20.486C19.651 5 18.972 5.679 18.972 6.514V11.501C18.972 12.335 19.651 13.015 20.486 13.015V13.014ZM20.587 11.4V6.614H25.373V11.4H20.587Z"
    fill="currentColor" />
  <path
    d="M11.501 18.987H6.514C5.68 18.987 5 19.666 5 20.501V25.488C5 26.323 5.679 27.002 6.514 27.002H11.501C12.335 27.002 13.015 26.323 13.015 25.488V20.501C13.015 19.666 12.336 18.987 11.501 18.987ZM11.4 20.601V25.387H6.614V20.601H11.4Z"
    fill="currentColor" />
  <path
    d="M26.459 21.371L25.245 20.84C24.383 20.463 23.699 19.78 23.321 18.917L22.79 17.701C22.532 17.116 21.571 17.115 21.311 17.702L20.78 18.917C20.403 19.78 19.72 20.463 18.858 20.84L17.644 21.371C17.35 21.499 17.16 21.789 17.16 22.11C17.16 22.431 17.35 22.721 17.643 22.849L18.858 23.38C19.72 23.757 20.403 24.44 20.78 25.303L21.312 26.518C21.441 26.812 21.732 27.001 22.051 27.001C22.37 27.001 22.66 26.812 22.79 26.517L23.32 25.303C23.698 24.44 24.382 23.757 25.244 23.38L26.457 22.849C26.751 22.721 26.941 22.431 26.941 22.11C26.941 21.789 26.752 21.499 26.459 21.371ZM24.172 22.11C23.275 22.6 22.54 23.335 22.05 24.232C21.56 23.334 20.825 22.6 19.929 22.11C20.826 21.62 21.56 20.885 22.05 19.989C22.54 20.885 23.275 21.62 24.172 22.11Z"
    fill="currentColor" />
  <path
    d="M16.024 15.968H5.807C5.362 15.968 5 16.33 5 16.775C5 17.22 5.362 17.582 5.807 17.582H15.217V20.601C15.217 21.046 15.579 21.409 16.024 21.409C16.469 21.409 16.831 21.047 16.831 20.601V16.775C16.831 16.33 16.469 15.968 16.024 15.968Z"
    fill="currentColor" />
  <path
    d="M15.499 14.908H20.39C20.834 14.908 21.197 14.546 21.197 14.101C21.197 13.656 20.835 13.294 20.39 13.294H16.307V5.807C16.307 5.362 15.945 5 15.5 5C15.055 5 14.693 5.362 14.693 5.807V14.101C14.693 14.546 15.055 14.908 15.5 14.908H15.499Z"
    fill="currentColor" />
  <path
    d="M26.193 15.221H19.231C18.787 15.221 18.424 15.583 18.424 16.028C18.424 16.473 18.786 16.835 19.231 16.835H26.193C26.637 16.835 27 16.473 27 16.028C27 15.583 26.638 15.221 26.193 15.221Z"
    fill="currentColor" />
  <path
    d="M15.889 22.391C15.444 22.391 15.082 22.753 15.082 23.198V25.972C15.082 26.417 15.444 26.78 15.889 26.78C16.334 26.78 16.696 26.418 16.696 25.972V23.198C16.696 22.754 16.334 22.391 15.889 22.391Z"
    fill="currentColor" />
  <path
    d="M12.361 13.294H5.95995C5.51495 13.294 5.15295 13.656 5.15295 14.101C5.15295 14.546 5.51495 14.908 5.95995 14.908H12.36C12.805 14.908 13.167 14.546 13.167 14.101C13.167 13.656 12.806 13.294 12.361 13.294Z"
    fill="currentColor" />
  <path
    d="M9.49095 8.138H8.52495C8.31895 8.138 8.15295 8.307 8.15295 8.516V9.498C8.15295 9.707 8.31995 9.876 8.52495 9.876H9.49095C9.69695 9.876 9.86295 9.707 9.86295 9.498V8.516C9.86295 8.307 9.69595 8.138 9.49095 8.138Z"
    fill="currentColor" />
  <path
    d="M23.463 8.13702H22.497C22.291 8.13702 22.125 8.30602 22.125 8.51502V9.49702C22.125 9.70602 22.292 9.87502 22.497 9.87502H23.463C23.669 9.87502 23.835 9.70602 23.835 9.49702V8.51502C23.835 8.30602 23.668 8.13702 23.463 8.13702Z"
    fill="currentColor" />
  <path
    d="M9.49095 22.125H8.52495C8.31895 22.125 8.15295 22.294 8.15295 22.503V23.485C8.15295 23.694 8.31995 23.863 8.52495 23.863H9.49095C9.69695 23.863 9.86295 23.694 9.86295 23.485V22.503C9.86295 22.294 9.69595 22.125 9.49095 22.125Z"
    fill="currentColor" />
</svg>
