<svg width="32" height="32" viewBox="0 0 32 32" fill="none" xmlns="http://www.w3.org/2000/svg">
<path d="M14.0225 16.4443C14.8649 16.5306 15.5203 17.2447 15.5205 18.1094V25.3262C15.5201 26.2484 14.7747 26.9997 13.8516 27H6.66895C5.74556 26.9999 5.00036 26.2485 5 25.3262V18.1094C5.0002 17.1869 5.74552 16.4356 6.66895 16.4355H13.8516L14.0225 16.4443ZM25.5029 16.4443C26.3451 16.5308 26.9998 17.2448 27 18.1094V25.3262C26.9996 26.2484 26.2542 26.9997 25.3311 27H18.1484C17.2251 26.9999 16.4799 26.2484 16.4795 25.3262V18.1094C16.4797 17.1869 17.2251 16.4357 18.1484 16.4355H25.3311L25.5029 16.4443ZM6.83496 25.1611H13.6846V18.2754H6.83496V25.1611ZM18.3154 25.1611H25.1641V18.2754H18.3154V25.1611ZM14.0225 5.00879C14.8648 5.09503 15.5202 5.8092 15.5205 6.67383V13.8906C15.5201 14.8128 14.7747 15.5651 13.8516 15.5654H6.66895C5.74556 15.5653 5.00036 14.8129 5 13.8906V6.67383C5.00029 5.75142 5.74558 5.00008 6.66895 5H13.8516L14.0225 5.00879ZM21.876 5.00977C22.1861 5.05618 22.4538 5.26042 22.5811 5.55273L23.1455 6.84961C23.5398 7.75548 24.2595 8.47796 25.1592 8.87305L26.4512 9.44043C26.785 9.58735 27.0009 9.91785 27.001 10.2822C27.0009 10.6466 26.7853 10.9781 26.4512 11.125L25.1602 11.6924C24.2595 12.088 23.5392 12.8107 23.1455 13.7158L22.5811 15.0127C22.4356 15.3467 22.1062 15.5653 21.7402 15.5654C21.3742 15.5653 21.0449 15.3465 20.8994 15.0127L20.334 13.7158L20.252 13.5371C19.8698 12.7669 19.2458 12.1434 18.4775 11.7646L18.3213 11.6924L17.0303 11.125C16.6959 10.9781 16.4805 10.6467 16.4805 10.2822C16.4806 9.91773 16.696 9.58726 17.0303 9.44043L18.3213 8.87305C19.2216 8.47745 19.9402 7.75455 20.334 6.84961L20.8994 5.55273L20.9121 5.52344L20.9443 5.46289L20.9619 5.43262C21.1277 5.16682 21.4205 5.00008 21.7402 5L21.876 5.00977ZM6.83496 13.7256H13.6846V6.83984H6.83496V13.7256ZM21.7402 8.13477C21.2313 9.0298 20.4917 9.7703 19.5996 10.2812C20.4914 10.7918 21.23 11.5339 21.7393 12.4287C22.2481 11.5341 22.9873 10.7931 23.8789 10.2822C22.9874 9.77148 22.2492 9.02959 21.7402 8.13477Z" fill="currentColor"/>
</svg>
