<svg width="32" height="32" viewBox="0 0 32 32" fill="none" xmlns="http://www.w3.org/2000/svg">
<path d="M16.83,21.752v3.511c0,0.16-0.13,0.29-0.29,0.29H6.736c-0.16,0-0.29-0.13-0.29-0.29V10.375c0-0.16,0.13-0.29,0.29-0.29h9.804c0.16,0,0.29,0.13,0.29,0.29v3.154l1.229-1.387c0.174-0.197,0.271-0.451,0.271-0.714v-1.052c0-0.989-0.801-1.79-1.79-1.79H6.736c-0.988,0-1.79,0.801-1.79,1.79v14.888c0,0.989,0.801,1.79,1.79,1.79h9.803c0.989,0,1.79-0.801,1.79-1.79v-2.032c0-0.189-0.087-0.368-0.236-0.485L16.83,21.752z" fill="currentColor"/>
<path d="M11.667,15.936c-1.124,0-2.039-0.915-2.039-2.039s0.915-2.04,2.039-2.04s2.039,0.915,2.039,2.04S12.792,15.936,11.667,15.936z M11.667,12.857c-0.573,0-1.039,0.466-1.039,1.04c0,0.573,0.466,1.039,1.039,1.039s1.039-0.466,1.039-1.039C12.706,13.324,12.24,12.857,11.667,12.857z" fill="currentColor"/>
<path d="M11.667,12.853c-0.414,0-0.75-0.336-0.75-0.75v-3.74c0-0.414,0.336-0.75,0.75-0.75s0.75,0.336,0.75,0.75v3.74C12.417,12.517,12.082,12.853,11.667,12.853z" fill="currentColor"/>
<path d="M16.997,9.113c-0.414,0-0.75-0.336-0.75-0.75c0-1.057-0.859-1.916-1.915-1.916c-1.056,0-1.915,0.859-1.915,1.916c0,0.414-0.336,0.75-0.75,0.75s-0.75-0.336-0.75-0.75c0-1.884,1.532-3.416,3.415-3.416c1.883,0,3.415,1.532,3.415,3.416C17.747,8.777,17.411,9.113,16.997,9.113z" fill="currentColor"/>
<path d="M19.439,27.054c-0.349,0-0.66-0.244-0.733-0.599c-0.084-0.405,0.178-0.803,0.583-0.886l4.829-0.995c0.192-0.04,0.351-0.27,0.392-0.571l1.033-7.604c0.037-0.272-0.021-0.562-0.163-0.795l-3.952-6.577c-0.156-0.261-0.384-0.41-0.586-0.37l-3.693,0.761c-0.4,0.084-0.803-0.177-0.886-0.583C16.179,8.43,16.44,8.034,16.846,7.95l3.693-0.761c0.828-0.176,1.683,0.247,2.175,1.066l3.951,6.575c0.314,0.522,0.447,1.168,0.364,1.772l-1.033,7.601c-0.128,0.945-0.746,1.667-1.574,1.839l-4.83,0.995C19.541,27.049,19.49,27.054,19.439,27.054z" fill="currentColor"/>
<path d="M14.047,17.454c0,0.298,0.175,0.566,0.448,0.684l1.367,0.598c1.01,0.441,1.809,1.241,2.251,2.25l0.598,1.368c0.118,0.272,0.386,0.449,0.683,0.449c0.297,0,0.566-0.175,0.684-0.448l0.598-1.368c0.441-1.009,1.24-1.809,2.251-2.25l1.366-0.598c0.272-0.118,0.449-0.387,0.449-0.684c0-0.297-0.175-0.565-0.448-0.683l-1.368-0.598c-1.011-0.441-1.81-1.241-2.251-2.25l-0.598-1.367c-0.118-0.272-0.387-0.449-0.684-0.449c-0.297,0-0.565,0.175-0.683,0.448l-0.599,1.369c-0.441,1.009-1.24,1.809-2.25,2.25l-1.367,0.598C14.222,16.889,14.047,17.158,14.047,17.454z M16.647,17.454c1.205-0.577,2.171-1.542,2.747-2.747c0.578,1.206,1.543,2.17,2.747,2.747c-1.204,0.578-2.17,1.543-2.747,2.747C18.817,18.997,17.852,18.031,16.647,17.454z" fill="currentColor"/>
</svg>
