<svg width="32" height="32" viewBox="0 0 32 32" fill="none" xmlns="http://www.w3.org/2000/svg">
<path d="M16.5398 26.3028H6.73648C6.16227 26.3028 5.69678 25.8371 5.69678 25.2627V10.3757C5.69678 9.80122 6.16227 9.33551 6.73648 9.33551H16.5407C17.1149 9.33551 17.5804 9.80122 17.5804 10.3757V25.2627C17.5804 25.8371 17.114 26.3028 16.5398 26.3028Z" stroke="currentColor" stroke-width="1.5" stroke-miterlimit="10"/>
<path d="M11.6675 15.4362C12.5173 15.4362 13.2062 14.747 13.2062 13.8968C13.2062 13.0467 12.5173 12.3575 11.6675 12.3575C10.8178 12.3575 10.1289 13.0467 10.1289 13.8968C10.1289 14.747 10.8178 15.4362 11.6675 15.4362Z" stroke="currentColor" stroke-miterlimit="10"/>
<path d="M11.6675 12.1028V8.36316" stroke="currentColor" stroke-width="1.5" stroke-miterlimit="10" stroke-linecap="round"/>
<path d="M16.997 8.36313C16.997 6.8907 15.804 5.69714 14.3322 5.69714C12.8605 5.69714 11.6675 6.8907 11.6675 8.36313" stroke="currentColor" stroke-width="1.5" stroke-miterlimit="10" stroke-linecap="round"/>
<path d="M16.9971 8.68481L20.6904 7.92349C21.2033 7.81752 21.7449 8.09918 22.0701 8.64112L26.0227 15.2169C26.2512 15.5961 26.3469 16.0618 26.2865 16.5006L25.2533 24.1035C25.1679 24.7291 24.7823 25.2022 24.2694 25.3082L19.4407 26.3038" stroke="currentColor" stroke-width="1.5" stroke-miterlimit="10" stroke-linecap="round"/>
</svg>
