<svg width="32" height="32" viewBox="0 0 32 32" fill="none" xmlns="http://www.w3.org/2000/svg">
  <path
    d="M23.669 22.323V7.438C23.669 6.645 23.023 6 22.231 6H7.438C6.646 6 6 6.645 6 7.438V22.323C6 23.116 6.646 23.761 7.438 23.761H22.23C23.023 23.761 23.668 23.115 23.668 22.323H23.669ZM22.267 7.438L22.231 22.359L7.402 22.323V7.438C7.402 7.418 7.419 7.402 7.439 7.402L22.267 7.438Z"
    fill="currentColor" />
  <path
    d="M10.237 15.522L11.504 16.076C12.438 16.485 13.177 17.224 13.584 18.157L14.139 19.424C14.251 19.679 14.503 19.844 14.781 19.844C15.059 19.844 15.31 19.679 15.424 19.424L15.978 18.157C16.385 17.224 17.124 16.486 18.056 16.076L19.325 15.522C19.58 15.41 19.745 15.158 19.745 14.88C19.745 14.602 19.58 14.35 19.324 14.238L18.057 13.684C17.124 13.276 16.386 12.537 15.978 11.604L15.423 10.336C15.311 10.081 15.059 9.91602 14.781 9.91602C14.503 9.91602 14.252 10.081 14.138 10.336L13.584 11.603C13.176 12.536 12.438 13.274 11.504 13.683L10.237 14.237C9.98202 14.349 9.81702 14.601 9.81702 14.879C9.81702 15.157 9.98202 15.409 10.237 15.521V15.522ZM12.257 14.88C13.361 14.347 14.245 13.462 14.78 12.358C15.315 13.462 16.2 14.347 17.303 14.88C16.199 15.414 15.314 16.299 14.78 17.402C14.246 16.298 13.361 15.414 12.257 14.88Z"
    fill="currentColor" />
  <path
    d="M25.392 9.454C25.006 9.454 24.692 9.768 24.692 10.155L24.724 25.076H9.79304C9.40604 25.076 9.09204 25.39 9.09204 25.777C9.09204 26.164 9.40604 26.477 9.79304 26.477H24.724C25.479 26.477 26.093 25.832 26.093 25.039V10.154C26.093 9.768 25.779 9.454 25.392 9.454Z"
    fill="currentColor" />
</svg>
