<svg width="32" height="32" viewBox="0 0 32 32" fill="none" xmlns="http://www.w3.org/2000/svg">
<g clip-path="url(#clip0_9492_13802)">
<path d="M26.947 15.7404C26.8411 15.458 26.5732 15.2534 26.2534 15.2534H23.0751C22.664 15.2534 22.3275 15.5878 22.3275 16C22.3275 16.9168 21.581 17.6634 20.6642 17.6634C19.7473 17.6634 18.9997 16.9168 18.9997 16C18.9997 15.5888 18.6654 15.2534 18.2532 15.2534H16.7445V13.4302C16.7445 13.019 16.4101 12.6836 15.9979 12.6836C15.0811 12.6836 14.3345 11.937 14.3345 11.0202C14.3345 10.1034 15.0811 9.35681 15.9979 9.35681C16.4091 9.35681 16.7445 9.02247 16.7445 8.61025V5.74655C16.7445 5.42675 16.541 5.15886 16.2575 5.05295L6.54087 5C5.69256 5 5 5.69256 5 6.54191V8.56664L5.06749 8.86983C5.17963 9.12318 5.42675 9.30281 5.72267 9.31216C6.66962 9.34331 7.40995 10.093 7.40995 11.0192C7.40995 11.936 6.66339 12.6826 5.74655 12.6826C5.42675 12.6826 5.15886 12.8871 5.05295 13.1695L5 25.456C5 26.3064 5.69256 26.9979 6.54191 26.9979H25.4571C26.3074 26.9979 26.999 26.3064 26.999 25.456V15.7394H26.946L26.947 15.7404ZM25.5069 25.4571C25.5069 25.484 25.4851 25.5069 25.4571 25.5069H16.7455V24.4821C18.1545 24.1415 19.1555 22.8851 19.1555 21.4149C19.1555 19.9321 18.1254 18.6945 16.7455 18.357V16.7466H17.5969C17.9365 18.1556 19.1928 19.1565 20.6642 19.1565C22.1355 19.1565 23.3918 18.1556 23.7314 16.7466H25.5059V25.4581L25.5069 25.4571ZM6.49311 16.7455H8.20219C8.51057 18.1639 9.77317 19.2313 11.2829 19.2313C12.7926 19.2313 14.0552 18.1649 14.3646 16.7455H15.2545V19.0039C15.2545 19.415 15.5888 19.7504 16.001 19.7504C16.9189 19.7504 17.6655 20.497 17.6655 21.4149C17.6655 22.3327 16.9189 23.0783 16.001 23.0783C15.5899 23.0783 15.2545 23.4126 15.2545 23.8248V25.5079H6.54191C6.51491 25.5079 6.49207 25.4861 6.49207 25.4581V16.7466L6.49311 16.7455ZM8.90202 11.0202C8.90202 9.55824 7.90108 8.28837 6.49207 7.92496V6.54295C6.49207 6.51595 6.51388 6.49311 6.54191 6.49311H15.2534V7.95403C13.8444 8.2946 12.8435 9.55097 12.8435 11.0212C12.8435 12.4915 13.8444 13.7479 15.2534 14.0884V15.2545H13.6928C13.2817 15.2545 12.9463 15.5888 12.9463 16.001C12.9463 16.0145 12.9536 16.026 12.9536 16.0384C12.9536 16.0519 12.9463 16.0623 12.9463 16.0758C12.9463 16.9926 12.1997 17.7392 11.2829 17.7392C10.3661 17.7392 9.6195 16.9926 9.6195 16.0758C9.6195 16.0623 9.61223 16.0509 9.61223 16.0384C9.61223 16.0249 9.6195 16.0145 9.6195 16.001C9.6195 15.5899 9.28516 15.2545 8.87295 15.2545H6.49311V14.0791C7.872 13.7416 8.90306 12.504 8.90306 11.0212L8.90202 11.0202Z" fill="currentColor"/>
<path d="M15.189 10.9205C15.189 11.2185 15.3644 11.4864 15.6365 11.6048L17.004 12.2029C18.0142 12.6442 18.8127 13.4437 19.255 14.4529L19.8531 15.8204C19.9715 16.0924 20.2394 16.269 20.5363 16.269C20.8333 16.269 21.1022 16.0935 21.2206 15.8214L21.8187 14.4529C22.2599 13.4437 23.0584 12.6442 24.0697 12.2029L25.4362 11.6048C25.7082 11.4864 25.8847 11.2175 25.8847 10.9205C25.8847 10.6236 25.7093 10.3557 25.4372 10.2373L24.0697 9.63926C23.0584 9.19797 22.2599 8.39846 21.8187 7.38921L21.2206 6.02174C21.1022 5.7497 20.8333 5.57318 20.5363 5.57318C20.2394 5.57318 19.9715 5.74866 19.8531 6.0207L19.254 7.38921C18.8127 8.39846 18.0142 9.19797 17.004 9.63926L15.6365 10.2373C15.3644 10.3557 15.189 10.6246 15.189 10.9205ZM17.7889 10.9205C18.9944 10.3432 19.9601 9.37864 20.5363 8.17314C21.1147 9.37864 22.0793 10.3432 23.2837 10.9205C22.0793 11.4989 21.1136 12.4635 20.5363 13.668C19.959 12.4635 18.9944 11.4979 17.7889 10.9205Z" fill="currentColor"/>
</g>
<defs>
<clipPath id="clip0_9492_13802">
<rect width="22" height="22" fill="white" transform="translate(5 5)"/>
</clipPath>
</defs>
</svg>
