<svg xmlns="http://www.w3.org/2000/svg" xmlns:xlink="http://www.w3.org/1999/xlink" width="24" height="24" viewBox="0 0 24 24">
  <g id="icon-setting">
    <path id="Path_136" data-name="Path 136" d="M3161.289-460.147v-1.661a.544.544,0,0,0-.541-.548h-1.217a.544.544,0,0,1-.524-.409,6.982,6.982,0,0,0-.671-1.669.552.552,0,0,1,.088-.658l.886-.9a.552.552,0,0,0,0-.775l-1.161-1.174a.538.538,0,0,0-.767,0l-.853.861a.537.537,0,0,1-.663.082,6.856,6.856,0,0,0-1.741-.754.547.547,0,0,1-.4-.528v-.942a.545.545,0,0,0-.541-.548h-1.643a.545.545,0,0,0-.542.548v.9a.545.545,0,0,1-.409.53,6.868,6.868,0,0,0-1.865.781.536.536,0,0,1-.659-.083l-.8-.811a.537.537,0,0,0-.766,0l-1.162,1.174a.551.551,0,0,0,0,.775l.828.838a.552.552,0,0,1,.087.66,7.009,7.009,0,0,0-.682,1.688.544.544,0,0,1-.524.409h-1.217a.546.546,0,0,0-.542.548v1.661a.546.546,0,0,0,.542.548h1.215a.541.541,0,0,1,.524.407,7,7,0,0,0,.767,1.835.552.552,0,0,1-.082.669l-.834.844a.551.551,0,0,0,0,.775l1.161,1.174a.539.539,0,0,0,.768,0l.868-.879a.537.537,0,0,1,.65-.089,6.838,6.838,0,0,0,1.725.7.547.547,0,0,1,.409.531v.9a.545.545,0,0,0,.542.548h1.643a.545.545,0,0,0,.541-.548v-.942a.548.548,0,0,1,.4-.529,6.844,6.844,0,0,0,1.6-.674.536.536,0,0,1,.65.09l.918.929a.538.538,0,0,0,.767,0l1.16-1.174a.551.551,0,0,0,0-.775l-.891-.9a.552.552,0,0,1-.082-.668,7,7,0,0,0,.754-1.816.542.542,0,0,1,.523-.408h1.215A.544.544,0,0,0,3161.289-460.147Zm-4.661-.923v.26l-.005.084-.006.084-.008.084-.009.084-.012.084-.013.084-.014.084-.016.084-.017.084-.021.084-.021.084-.022.084-.024.084-.026.08-.027.079-.029.078-.031.077-.033.077-.033.076-.034.076-.037.074-.038.074-.039.073-.042.073-.041.071-.045.073-.044.069-.046.068-.048.067-.048.066-.05.066-.05.065-.053.064-.053.063-.055.062-.056.061-.057.06-.049.049-.021.02-.054.049-.06.056-.062.055-.063.054-.063.053-.064.051-.067.051-.065.049-.069.048-.068.047-.07.045-.071.044-.071.043-.072.041-.073.04-.074.039-.075.038-.076.036-.077.034-.077.033-.079.032-.078.03-.083.029-.084.027-.082.026-.084.024-.083.023-.083.021-.083.019-.083.018-.083.016-.083.015-.083.012-.083.012-.083.009-.087.008-.089.006-.089,0h-.358l-.09,0-.087-.006-.087-.008-.089-.009-.083-.011-.083-.013-.083-.014-.083-.016-.083-.018-.084-.02-.083-.021-.083-.023-.083-.023-.083-.026-.083-.027-.083-.029-.08-.03-.077-.032-.077-.033-.078-.035-.076-.036-.076-.037-.073-.039-.074-.04-.073-.041-.071-.042-.072-.044-.07-.045-.067-.047-.069-.048-.067-.049-.065-.051-.065-.051-.064-.053-.063-.054-.062-.055-.061-.057-.06-.057-.059-.058-.058-.06-.056-.06L3149-458.2l-.055-.062-.052-.064-.051-.065-.05-.066-.049-.066-.048-.067-.047-.068-.044-.069-.044-.071-.043-.071-.041-.072-.039-.072-.038-.074-.037-.074-.034-.075-.035-.076-.032-.077-.031-.077-.029-.078-.028-.079-.026-.08-.025-.084-.023-.084-.022-.084-.02-.084-.02-.084-.015-.084-.015-.084-.013-.084-.011-.084-.01-.084-.008-.084-.007-.084,0-.07c0-.01,0-.02,0-.029v-.33l0-.084.007-.084.007-.084.01-.084.011-.084.013-.084.015-.084.016-.084.017-.084.02-.084.021-.084.023-.084.024-.084.027-.08.021-.059a.414.414,0,0,1,.015-.04l.027-.06.031-.078.031-.077.034-.076.035-.075.021-.055c.006-.014.012-.027.02-.041l.028-.054.04-.073.04-.072.042-.072.043-.071.045-.07.046-.068.047-.068.049-.067.051-.066.051-.065.053-.064.053-.062.054-.061.056-.061.056-.06.059-.059.059-.058.061-.056.062-.055.063-.054.063-.053.065-.051.067-.051.065-.049.068-.048.069-.046.07-.045.07-.044.072-.043.072-.041.073-.041.074-.039.075-.038.075-.036.078-.035.077-.034.079-.032.078-.03.084-.029.083-.028.083-.026.083-.024.083-.023.083-.021.082-.019.083-.018.084-.016.082-.014.083-.013.084-.011.087-.01.087-.008.089-.007.089,0h.089v0h.279l.087,0,.089.006.088.007.083.009.084.011.083.012.083.014.083.016.083.018.083.019.083.021.083.023.083.023.083.026.083.027.084.029.079.03.079.032.077.033.08.035.076.035.075.037.073.039.07.038.072.041.072.042.071.044.07.045.069.047.068.048.067.049.065.051.066.051.063.052.063.054.062.055.061.056.059.057.058.058.058.06.055.061.055.061.054.062.053.066.052.064.049.066.05.066.048.067.046.068.045.069.044.071.042.072.041.072.028.047a.246.246,0,0,1,.016.029l.031.06.036.074.035.075.033.076.032.077.031.078.03.078.028.079.027.08.024.084.023.084.022.084.02.084.019.1.016.084.015.084.013.084.011.084.011.084.008.084.006.084.005.084Z" transform="translate(-3140.289 472.976)" fill="#5b5b5b"/>
  </g>
</svg>
