<svg width="1em" height="1em" viewBox="0 0 24 24" fill="none" xmlns="http://www.w3.org/2000/svg">
<path fill-rule="evenodd" clip-rule="evenodd" d="M13.5963 8.42311C13.7691 8.30746 13.9723 8.24565 14.1802 8.24547C14.4591 8.2457 14.7265 8.35654 14.9238 8.55366C15.1211 8.75078 15.2322 9.01811 15.2326 9.297C15.2326 9.50493 15.171 9.7082 15.0555 9.88111C14.94 10.054 14.7758 10.1888 14.5837 10.2684C14.3916 10.348 14.1803 10.3689 13.9763 10.3284C13.7724 10.2879 13.585 10.1878 13.4379 10.0409C13.2908 9.89388 13.1906 9.7066 13.1499 9.50268C13.1092 9.29876 13.1299 9.08736 13.2094 8.89521C13.2888 8.70305 13.4235 8.53876 13.5963 8.42311ZM15.6458 7.10263C15.212 6.81264 14.702 6.65777 14.1802 6.65759C13.4802 6.65759 12.8089 6.93567 12.3139 7.43066C11.8189 7.92564 11.5408 8.59699 11.5408 9.297C11.541 9.81877 11.6959 10.3288 11.9859 10.7626C12.0028 10.7879 12.0201 10.8128 12.0379 10.8375L10.7702 12.2993C10.4291 12.1445 10.0573 12.0634 9.67938 12.0634C8.97937 12.0634 8.30803 12.3414 7.81304 12.8364C7.49944 13.15 7.27291 13.5344 7.14899 13.952H4.16156C3.74735 13.952 3.41156 14.2878 3.41156 14.702C3.41156 15.1162 3.74735 15.452 4.16156 15.452H7.14856C7.22353 15.7053 7.33648 15.9472 7.4848 16.1691C7.77482 16.6032 8.18704 16.9415 8.66933 17.1413C9.15162 17.341 9.68231 17.3933 10.1943 17.2915C10.7063 17.1896 11.1766 16.9382 11.5457 16.5691C11.9149 16.2 12.1662 15.7297 12.2681 15.2177C12.3699 14.7057 12.3176 14.175 12.1179 13.6927C12.0584 13.5491 11.9866 13.4116 11.9037 13.2818L13.2263 11.7565C13.6932 11.9374 14.2024 11.9818 14.6943 11.8839C15.2061 11.7821 15.6761 11.5308 16.0451 11.1618C16.3566 10.8503 16.5842 10.4667 16.7089 10.0468H19.8384C20.2526 10.0468 20.5884 9.71097 20.5884 9.29675C20.5884 8.88254 20.2526 8.54675 19.8384 8.54675H16.7092C16.6832 8.45884 16.6525 8.37207 16.6172 8.2868C16.4176 7.80471 16.0796 7.39262 15.6458 7.10263ZM9.67938 13.6512C9.47153 13.6518 9.26848 13.7139 9.09591 13.8297C8.92334 13.9456 8.78897 14.11 8.70979 14.3022C8.63061 14.4944 8.61016 14.7057 8.65103 14.9095C8.6919 15.1133 8.79226 15.3004 8.93942 15.4472C9.08659 15.594 9.27396 15.6939 9.47786 15.7343C9.68176 15.7746 9.89305 15.7537 10.085 15.674C10.277 15.5943 10.4411 15.4595 10.5565 15.2867C10.672 15.1138 10.7336 14.9106 10.7336 14.7028C10.7331 14.4236 10.6218 14.156 10.4241 13.9588C10.2265 13.7616 9.95858 13.651 9.67938 13.6512Z" fill="currentColor"/>
</svg>
