<svg width="1em" height="1em" viewBox="0 0 24 24" fill="none" xmlns="http://www.w3.org/2000/svg">
<path fill-rule="evenodd" clip-rule="evenodd" d="M11.1527 10.1314C11.3357 10.0091 11.5509 9.94381 11.771 9.94381C12.0661 9.94412 12.3488 10.0615 12.5575 10.2701C12.7661 10.4787 12.8835 10.7615 12.8838 11.0566C12.8838 11.2767 12.8185 11.4919 12.6962 11.6749C12.5739 11.8579 12.4002 12.0005 12.1968 12.0847C11.9935 12.1689 11.7698 12.1911 11.5539 12.1482C11.3381 12.1052 11.1396 11.9992 10.984 11.8436C10.8283 11.688 10.7226 11.4898 10.6797 11.2739C10.6368 11.0581 10.6587 10.8341 10.7429 10.6307C10.8271 10.4274 10.9697 10.2537 11.1527 10.1314ZM13.3236 8.73152C12.864 8.42445 12.3237 8.2605 11.771 8.2605C11.4039 8.2605 11.0403 8.33302 10.7011 8.47356C10.362 8.61409 10.0538 8.8199 9.79428 9.07956C9.53473 9.33922 9.32895 9.64747 9.18856 9.98671C9.05746 10.3035 8.98578 10.6415 8.97699 10.9838L6.17462 12.0099C6.01649 11.8692 5.83519 11.755 5.63753 11.673C5.28909 11.5285 4.90547 11.4907 4.53548 11.5641C4.1655 11.6376 3.82572 11.8192 3.55892 12.0858C3.29212 12.3525 3.11037 12.6922 3.0367 13.0622C2.96304 13.4321 3.0008 13.8157 3.1451 14.1642C3.28941 14.5127 3.53387 14.8106 3.8475 15.0202C4.16112 15.2298 4.52985 15.3415 4.90707 15.3415C5.41258 15.3412 5.89718 15.1405 6.25472 14.7831C6.61227 14.4258 6.81352 13.941 6.81405 13.4355C6.81411 13.3101 6.8018 13.1856 6.77764 13.0638L9.20937 12.1734C9.27541 12.3248 9.35503 12.4707 9.44766 12.6092C9.75492 13.0687 10.1916 13.4268 10.7023 13.6382C11.213 13.8495 11.7749 13.9046 12.317 13.7966C12.859 13.6886 13.357 13.4222 13.7477 13.0313C13.9375 12.8414 14.0979 12.6263 14.2251 12.3932L17.1943 13.666C17.1676 13.9705 17.2144 14.278 17.3321 14.5622C17.4764 14.9107 17.7209 15.2085 18.0345 15.4181C18.3481 15.6277 18.7169 15.7394 19.0941 15.7394C19.5996 15.7391 20.0842 15.5384 20.4417 15.1811C20.7993 14.8237 21.0005 14.3389 21.0011 13.8334C21.0013 13.4562 20.8894 13.0876 20.68 12.7738C20.4706 12.4601 20.173 12.2154 19.8245 12.071C19.4761 11.9265 19.0925 11.8886 18.7225 11.9621C18.3525 12.0355 18.0127 12.2171 17.7459 12.4838C17.7193 12.5104 17.6935 12.5378 17.6685 12.5659L14.5604 11.2335C14.5875 10.8088 14.5173 10.3817 14.3532 9.98556C14.1416 9.47492 13.7832 9.03858 13.3236 8.73152ZM4.90707 12.7904C4.77974 12.7904 4.65528 12.8284 4.5494 12.8991C4.44352 12.9698 4.36087 13.0703 4.31209 13.1879C4.26332 13.3055 4.25046 13.4348 4.27523 13.5597C4.3 13.6846 4.36129 13.7995 4.45125 13.8896C4.54122 13.9797 4.65599 14.0411 4.78084 14.0661C4.9057 14.091 5.03498 14.0783 5.15267 14.0297C5.27036 13.9811 5.37109 13.8989 5.44198 13.7931C5.51286 13.6874 5.55091 13.5628 5.55111 13.4355C5.55111 13.2646 5.48313 13.1008 5.36239 12.9799C5.24164 12.859 5.07796 12.7907 4.90707 12.7904ZM18.7364 13.297C18.8423 13.2263 18.9667 13.1884 19.0941 13.1884C19.265 13.1887 19.4287 13.2569 19.5494 13.3778C19.6701 13.4988 19.7381 13.6625 19.7381 13.8334C19.7379 13.9607 19.6999 14.0853 19.629 14.1911C19.5581 14.2968 19.4574 14.3791 19.3397 14.4276C19.222 14.4762 19.0927 14.489 18.9679 14.464C18.843 14.4391 18.7282 14.3776 18.6383 14.2875C18.5483 14.1974 18.487 14.0826 18.4622 13.9577C18.4375 13.8328 18.4503 13.7035 18.4991 13.5858C18.5479 13.4682 18.6305 13.3677 18.7364 13.297Z" fill="currentColor"/>
</svg>
