<svg width="1em" height="1em" viewBox="0 0 24 24" fill="none" xmlns="http://www.w3.org/2000/svg">
<path fill-rule="evenodd" clip-rule="evenodd" d="M11.3818 9.86988C11.5494 9.75791 11.7464 9.69815 11.948 9.69815C12.2181 9.6986 12.477 9.8061 12.668 9.9971C12.859 10.1881 12.9665 10.447 12.9669 10.7171C12.9669 10.9187 12.9072 11.1157 12.7952 11.2832C12.6832 11.4508 12.5241 11.5814 12.3379 11.6585C12.1517 11.7357 11.9468 11.7558 11.7492 11.7165C11.5515 11.6772 11.3699 11.5802 11.2274 11.4377C11.0849 11.2951 10.9879 11.1136 10.9486 10.9159C10.9092 10.7183 10.9294 10.5134 11.0065 10.3272C11.0837 10.141 11.2143 9.98184 11.3818 9.86988ZM13.3681 8.59069C12.9478 8.30967 12.4536 8.15959 11.948 8.15942C11.2696 8.15942 10.6191 8.4289 10.1394 8.90856C9.65973 9.38822 9.39026 10.0388 9.39026 10.7171C9.39034 10.9517 9.42269 11.1839 9.48542 11.4074L4.7345 14.4593C4.386 14.6832 4.28497 15.1472 4.50884 15.4957C4.73272 15.8442 5.19672 15.9452 5.54522 15.7213L10.2966 12.6691C10.4972 12.8386 10.7238 12.9771 10.969 13.0787C11.4362 13.2721 11.9502 13.3226 12.4461 13.2239C12.8779 13.138 13.2791 12.9423 13.6116 12.6571L18.4592 15.7241C18.8092 15.9456 19.2725 15.8414 19.494 15.4913C19.7154 15.1413 19.6112 14.678 19.2612 14.4565L14.4137 11.3896C14.4294 11.3321 14.4431 11.274 14.4548 11.2153C14.5535 10.7194 14.5029 10.2054 14.3095 9.7382C14.1161 9.27104 13.7885 8.8717 13.3681 8.59069Z" fill="currentColor"/>
</svg>
