<svg width="1em" height="1em" viewBox="0 0 24 24" fill="none" xmlns="http://www.w3.org/2000/svg">
<path fill-rule="evenodd" clip-rule="evenodd" d="M19.197 11.1391C18.8412 11.1381 18.4936 11.0316 18.1982 10.8332C18.152 10.8021 18.1073 10.769 18.0644 10.734L14.0627 12.1777C14.0864 12.4418 14.0725 12.7094 14.0203 12.9724C13.9126 13.5146 13.6465 14.0128 13.2556 14.4038C12.8648 14.7948 12.3669 15.0612 11.8247 15.1691C11.2825 15.277 10.7204 15.2218 10.2096 15.0103C9.69882 14.7988 9.26234 14.4404 8.95517 13.9808C8.91633 13.9227 8.87978 13.8632 8.84555 13.8027L6.67476 14.6111L6.67481 14.6251C6.67428 15.1121 6.48065 15.5788 6.13623 15.923C5.79181 16.2672 5.32484 16.4608 4.83789 16.4611C4.47453 16.4611 4.11926 16.3534 3.81714 16.1515C3.51503 15.9496 3.27964 15.6625 3.14063 15.3268C3.00162 14.9911 2.96542 14.6216 3.03638 14.2653C3.10734 13.9089 3.2823 13.5817 3.53931 13.3248C3.79632 13.068 4.12382 12.8929 4.48023 12.8222C4.83664 12.7514 5.20586 12.7879 5.54151 12.9271C5.7786 13.0255 5.99134 13.1719 6.16693 13.3559L8.48458 12.49C8.48412 12.4693 8.48389 12.4485 8.48389 12.4277C8.48389 11.6867 8.77837 10.9761 9.30228 10.4519C9.82619 9.92781 10.5367 9.633 11.2778 9.63269C11.8306 9.63246 12.371 9.79642 12.8308 10.1034C13.1458 10.3137 13.4133 10.5846 13.6186 10.8987L17.4117 9.52696C17.3928 9.34696 17.401 9.16417 17.437 8.98478C17.507 8.63595 17.679 8.31561 17.9309 8.06437C18.1828 7.81314 18.5035 7.64221 18.8525 7.57316C19.2016 7.50411 19.5632 7.54005 19.8918 7.67644C20.2205 7.81282 20.5014 8.04362 20.699 8.33952C20.8965 8.63542 21.0019 8.98324 21.0019 9.33903C20.9998 9.81664 20.8089 10.274 20.4707 10.6112C20.1325 10.9485 19.6746 11.1383 19.197 11.1391ZM19.197 8.67106C19.0659 8.67126 18.9377 8.71015 18.8288 8.78312C18.7199 8.8561 18.6352 8.95981 18.5852 9.08098C18.5352 9.20214 18.5221 9.33549 18.5478 9.46403C18.5735 9.59258 18.6367 9.71052 18.7295 9.80314C18.8222 9.89577 18.9403 9.9588 19.0688 9.9843C19.1974 10.0098 19.3308 9.99667 19.4519 9.94645C19.573 9.89624 19.6765 9.81132 19.7493 9.70231C19.8221 9.59331 19.8608 9.46499 19.8608 9.33391C19.8606 9.15798 19.7905 8.98946 19.666 8.86516C19.5415 8.74085 19.3729 8.67106 19.197 8.67106ZM4.83789 13.9301C4.70087 13.9311 4.56714 13.9725 4.45362 14.0492C4.34009 14.126 4.25194 14.2347 4.19995 14.3615C4.14797 14.4882 4.13465 14.6275 4.16162 14.7619C4.1886 14.8962 4.25467 15.0197 4.35156 15.1166C4.44846 15.2135 4.57171 15.2796 4.70606 15.3065C4.84041 15.3335 4.97966 15.3202 5.10645 15.2682C5.23324 15.2162 5.34196 15.1278 5.4187 15.0143C5.49545 14.9008 5.53685 14.767 5.53784 14.63C5.5385 14.5377 5.52097 14.4462 5.48609 14.3607C5.4512 14.2752 5.39979 14.1975 5.33472 14.132C5.26965 14.0664 5.19219 14.0144 5.10694 13.9789C5.02168 13.9434 4.93024 13.9252 4.83789 13.9252V13.9301ZM10.6254 11.452C10.8185 11.3227 11.0455 11.2535 11.2778 11.2533C11.432 11.2531 11.5849 11.2834 11.7274 11.3422C11.87 11.4011 11.9994 11.4874 12.1086 11.5964C12.2178 11.7053 12.3044 11.8348 12.3636 11.9773C12.4228 12.1197 12.4532 12.2724 12.4534 12.4266C12.4536 12.6589 12.385 12.8862 12.2562 13.0795C12.1273 13.2728 11.944 13.4233 11.7294 13.5124C11.5149 13.6015 11.2787 13.6251 11.0508 13.58C10.8229 13.5349 10.6137 13.4232 10.4493 13.2591C10.2849 13.095 10.1729 12.886 10.1273 12.6582C10.0818 12.4304 10.1048 12.1943 10.1934 11.9796C10.2821 11.7649 10.4324 11.5812 10.6254 11.452Z" fill="currentColor"/>
</svg>
