<svg width="1em" height="1em" viewBox="0 0 24 24" fill="none" xmlns="http://www.w3.org/2000/svg">
<path fill-rule="evenodd" clip-rule="evenodd" d="M11.2908 10.9359C11.5009 10.7953 11.7481 10.7203 12.001 10.7201C12.3404 10.7204 12.6658 10.8551 12.9058 11.0951C13.1458 11.3351 13.2807 11.6607 13.281 12.0001C13.2808 12.253 13.2056 12.5001 13.0649 12.7103C12.9243 12.9205 12.7246 13.0841 12.491 13.1808C12.2573 13.2775 12.0002 13.3027 11.7522 13.2533C11.5042 13.2039 11.2762 13.0823 11.0974 12.9034C10.9186 12.7246 10.7969 12.4969 10.7476 12.2489C10.6982 12.0009 10.7234 11.7438 10.8201 11.5101C10.9167 11.2765 11.0806 11.0765 11.2908 10.9359ZM13.5532 9.67566C13.0937 9.36876 12.5536 9.20496 12.001 9.20496C11.2592 9.20628 10.5482 9.50202 10.0242 10.027C9.56011 10.4919 9.27617 11.1029 9.21727 11.7518H6.70651C6.65382 11.6017 6.58228 11.458 6.493 11.3243C6.28358 11.0105 5.98598 10.7659 5.63753 10.6214C5.28909 10.4769 4.90547 10.439 4.53548 10.5125C4.1655 10.586 3.82572 10.7676 3.55892 11.0342C3.29212 11.3009 3.11037 11.6406 3.0367 12.0105C2.96304 12.3805 3.0008 12.7641 3.1451 13.1126C3.28941 13.4611 3.53387 13.759 3.8475 13.9685C4.16112 14.1781 4.52985 14.2898 4.90707 14.2898C5.41258 14.2896 5.89718 14.0888 6.25472 13.7315C6.45881 13.5275 6.61197 13.282 6.70595 13.0148H9.39664C9.47047 13.2042 9.5651 13.386 9.67944 13.5565C9.98716 14.0155 10.424 14.3728 10.9348 14.5836C11.4456 14.7944 12.0075 14.849 12.5493 14.7406C13.0912 14.6322 13.5886 14.3658 13.979 13.9747C14.253 13.7002 14.4657 13.373 14.6053 13.0148H17.3584C17.3688 13.0438 17.3799 13.0726 17.3917 13.1011C17.5338 13.4439 17.7745 13.7371 18.0831 13.9431C18.3918 14.1492 18.7547 14.259 19.1259 14.2588C19.623 14.2583 20.0995 14.0605 20.4511 13.709C20.8026 13.3575 21.0003 12.8809 21.0009 12.3838C21.0011 12.0127 20.8912 11.6497 20.6852 11.3411C20.4791 11.0324 20.186 10.7918 19.8431 10.6497C19.5003 10.5075 19.1232 10.4704 18.7592 10.5427C18.3952 10.6151 18.0606 10.7937 17.7982 11.0562C17.601 11.2534 17.4511 11.4913 17.3581 11.7518H14.785C14.7599 11.4705 14.6921 11.193 14.5828 10.9293C14.3711 10.4189 14.0127 9.98256 13.5532 9.67566ZM4.5494 11.8474C4.65528 11.7767 4.77974 11.7388 4.90707 11.7388V11.74C5.07786 11.74 5.24161 11.8077 5.36239 11.9285C5.48316 12.0493 5.55111 12.213 5.55111 12.3838C5.55091 12.5112 5.51286 12.6357 5.44198 12.7415C5.37109 12.8473 5.27036 12.9295 5.15267 12.9781C5.03498 13.0266 4.9057 13.0394 4.78084 13.0144C4.65599 12.9895 4.54122 12.928 4.45125 12.8379C4.36129 12.7478 4.3 12.633 4.27523 12.5081C4.25046 12.3832 4.26332 12.2539 4.31209 12.1363C4.36087 12.0186 4.44352 11.9182 4.5494 11.8474ZM19.1259 11.7708C19.0046 11.7706 18.886 11.8063 18.785 11.8735C18.6841 11.9408 18.6053 12.0364 18.5587 12.1484C18.5122 12.2604 18.5 12.3837 18.5236 12.5027C18.5471 12.6217 18.6054 12.7311 18.691 12.8169C18.7767 12.9027 18.8858 12.9611 19.0048 12.9849C19.1237 13.0086 19.2472 12.9966 19.3593 12.9502C19.4713 12.9038 19.567 12.8252 19.6344 12.7244C19.7018 12.6235 19.7379 12.5051 19.7379 12.3838C19.7377 12.2215 19.6732 12.0658 19.5585 11.9509C19.4438 11.8361 19.2882 11.7713 19.1259 11.7708Z" fill="currentColor"/>
</svg>
