<svg width="32" height="32" viewBox="0 0 32 32" fill="none" xmlns="http://www.w3.org/2000/svg">
<path d="M27.8182 6H4.1818C3.67896 6 3.27271 6.40625 3.27271 6.90909V25.0909C3.27271 25.5938 3.67896 26 4.1818 26H27.8182C28.321 26 28.7272 25.5938 28.7272 25.0909V6.90909C28.7272 6.40625 28.321 6 27.8182 6ZM26.6818 23.9545H5.31816V22.821L9.25282 18.1534L13.517 23.2102L20.1505 15.3466L26.6818 23.0909V23.9545ZM26.6818 20.267L20.3238 12.7273C20.2329 12.6193 20.0682 12.6193 19.9772 12.7273L13.517 20.3864L9.42611 15.5369C9.3352 15.429 9.17043 15.429 9.07952 15.5369L5.31816 19.9972V8.04545H26.6818V20.267ZM10.0909 14.4091C10.4192 14.4091 10.7443 14.3444 11.0476 14.2188C11.3509 14.0932 11.6265 13.909 11.8587 13.6769C12.0908 13.4447 12.2749 13.1691 12.4006 12.8658C12.5262 12.5625 12.5909 12.2374 12.5909 11.9091C12.5909 11.5808 12.5262 11.2557 12.4006 10.9524C12.2749 10.6491 12.0908 10.3735 11.8587 10.1413C11.6265 9.90918 11.3509 9.72503 11.0476 9.59939C10.7443 9.47376 10.4192 9.40909 10.0909 9.40909C9.42785 9.40909 8.79196 9.67248 8.32312 10.1413C7.85428 10.6102 7.59089 11.246 7.59089 11.9091C7.59089 12.5721 7.85428 13.208 8.32312 13.6769C8.79196 14.1457 9.42785 14.4091 10.0909 14.4091ZM10.0909 11.1136C10.5312 11.1136 10.8863 11.4688 10.8863 11.9091C10.8863 12.3494 10.5312 12.7045 10.0909 12.7045C9.65055 12.7045 9.29543 12.3494 9.29543 11.9091C9.29543 11.4688 9.65055 11.1136 10.0909 11.1136Z" fill="black"/>
</svg>
