<svg width="1em" height="1em" viewBox="0 0 14 14" fill="none" xmlns="http://www.w3.org/2000/svg">
<path fill-rule="evenodd" clip-rule="evenodd" d="M10.4475 4.04087C11.1552 4.74855 11.1552 5.89594 10.4475 6.60363L4.60033 12.4508C3.89264 13.1585 2.74525 13.1585 2.03756 12.4508L1.67145 12.0847C0.963762 11.377 0.963762 10.2296 1.67145 9.52193L1.77549 9.41789C1.77809 9.41526 1.78071 9.41263 1.78333 9.41001L3.97998 7.21335C3.9826 7.21074 3.98521 7.20814 3.98784 7.20555L7.51863 3.67476C8.22632 2.96707 9.37371 2.96707 10.0814 3.67476L10.4475 4.04087ZM7.07896 7.77552C7.02772 7.70717 6.97102 7.64162 6.90886 7.57946L6.54275 7.21335C6.48061 7.15121 6.41508 7.09452 6.34675 7.04329L8.61696 4.77308C8.71806 4.67199 8.88197 4.67199 8.98307 4.77308L9.34918 5.13919C9.45027 5.24029 9.45027 5.40421 9.34918 5.5053L7.07896 7.77552Z" fill="black" fill-opacity="0.85"/>
<path fill-rule="evenodd" clip-rule="evenodd" d="M11.5722 5.89537C11.5722 5.52239 11.8745 5.22003 12.2475 5.22003L13.148 5.22003C13.5209 5.22003 13.8233 5.52239 13.8233 5.89537C13.8233 6.26834 13.5209 6.5707 13.148 6.5707L12.2475 6.5707C11.8745 6.5707 11.5722 6.26834 11.5722 5.89537Z" fill="black" fill-opacity="0.85"/>
<path fill-rule="evenodd" clip-rule="evenodd" d="M10.3259 7.935C10.0622 8.19874 10.0622 8.62634 10.3259 8.89007L10.9626 9.52678C11.2264 9.79052 11.654 9.79052 11.9177 9.52678C12.1814 9.26305 12.1814 8.83545 11.9177 8.57171L11.281 7.935C11.0173 7.67127 10.5897 7.67127 10.3259 7.935Z" fill="black" fill-opacity="0.85"/>
<path fill-rule="evenodd" clip-rule="evenodd" d="M4.59552 2.20453C4.33178 2.46826 4.33178 2.89586 4.59552 3.15959L5.23223 3.79631C5.49596 4.06004 5.92356 4.06004 6.1873 3.79631C6.45103 3.53257 6.45103 3.10497 6.1873 2.84124L5.55058 2.20453C5.28685 1.94079 4.85925 1.94079 4.59552 2.20453Z" fill="black" fill-opacity="0.85"/>
<path fill-rule="evenodd" clip-rule="evenodd" d="M8.14055 2.46388C7.76757 2.46388 7.46521 2.16152 7.46521 1.78855L7.46521 0.8881C7.46521 0.515123 7.76757 0.212765 8.14055 0.212765C8.51352 0.212765 8.81588 0.515123 8.81588 0.8881L8.81588 1.78855C8.81588 2.16152 8.51352 2.46388 8.14055 2.46388Z" fill="black" fill-opacity="0.85"/>
<path fill-rule="evenodd" clip-rule="evenodd" d="M10.8693 3.25288C10.6056 2.98914 10.6056 2.56155 10.8693 2.29781L11.506 1.6611C11.7697 1.39736 12.1973 1.39736 12.4611 1.6611C12.7248 1.92483 12.7248 2.35243 12.4611 2.61617L11.8244 3.25288C11.5606 3.51661 11.133 3.51661 10.8693 3.25288Z" fill="black" fill-opacity="0.85"/>
</svg>
