<svg xmlns="http://www.w3.org/2000/svg" viewBox="0 0 80 80">
<path d="M23.42 59.12c7.28-.6 13.39-5.03 19.74-8.5l35.02-5.71c-1.76.06-35.47 4.92-25.26-2.49 6.9-5.02 14.96-8.39 22.27-12.83l-35.95 15.62c-1.6.65-3.26.88-5.44.59.99-.91.46-2.27-.31-2.73.78-.3 1.3-.91 1.03-1.84.77-.33 1.32-1.23 1.07-2.02.95-.45 1.37-1.22 1.23-2.13.45-.67.66-1.15.68-1.67.03-.64.33-1.23.89-1.53 1.65-.9 3.47-2.14 4.83-3.28 2.58-2 12.48-7.78 20.08-11-12.07 3-22.74 7.44-34.54 11.95-.44.19-.85.36-1.23.52 5.39-6.66 8.61-14.31 15.41-21.89-3.05 2.47-6.12 4.9-9.2 7.33-5.49 4.34-10.99 8.69-16.29 13.26-3.93 3.59-3.47 5.65-2.48 10.06.06.25.12.5.17.73-2.46-.47-4.72-2.02-7.38-1.2-1.82.56-3.36 2.21-4.39 5.65-.75.79-1.24 1.42-1.56 2.48.65-.01 3.66-.06 4.13-.07 2.25.7 2.82 1.85 4.23 3.47 3.62 3.94 6.51 7.68 13.24 7.22Z"/>
</svg>