<svg xmlns="http://www.w3.org/2000/svg" viewBox="0 0 80 80">
<path d="M17.53 16.92c0 .82.66 1.48 1.48 1.48.82 0 1.48-.66 1.48-1.48 0-.82-.66-1.48-1.48-1.48-.82 0-1.48.66-1.48 1.48ZM62.7 14.28c-5.1-.52-10 1.07-13.78 4.49-3.63 3.28-5.73 7.93-5.85 12.8l-7.91-.24c-.55 0-1.11-.13-1.6-.38-.83-.41-1.45-1.11-1.78-1.97l-1.51-6.43c-.97-4.15-3.23-7.86-6.44-10.61 3.02-1.13 4.57-3.67 5.01-5.18.15-.53-.15-1.08-.68-1.24-.53-.16-1.08.14-1.24.67-.05.18-1.37 4.33-6.43 4.33-.55 0-1 .45-1 1 0 .55.44 1 1 1h.85c3.52 2.54 6 6.25 6.99 10.49l1.52 6.49c0 0 .02.07.03.11.49 1.38 1.48 2.49 2.79 3.14.77.38 1.63.58 2.46.58h0l17.74.54h.03c.54 0 .98-.43 1-.97 0-.14-.02-.27-.07-.39.1-.16.17-.33.17-.53 0-3.77 3.07-6.83 6.83-6.83.55 0 1-.45 1-1 0-.55-.45-1-1-1-4.83 0-8.75 3.89-8.83 8.7l-2.47-.07c.11-6.14 5.13-11.1 11.3-11.1.55 0 1-.45 1-1 0-.55-.45-1-1-1-7.25 0-13.15 5.83-13.3 13.04l-2.47-.07c.09-4.33 1.97-8.46 5.19-11.38 3.36-3.03 7.71-4.44 12.24-3.98 7.94.81 14.14 7.72 14.12 15.74 0 3.06-.85 5.91-2.5 8.49-.12.19-.31.2-.41.2-.07 0-.31-.04-.43-.29-.76-1.55-1.72-2.74-2.85-3.52-1.92-1.32-4.16-1.52-5.84-.52-1.61.96-2.4 2.85-2.16 5.18 0 .08.02.19.04.34.89 6.91-2.03 12.31-8.23 15.21-3.55 1.66-7 4.09-10.28 7.21l-1.24 1.18c-.09-.03-.17-.05-.27-.05-.22 0-.4.08-.57.2h-3.28l-.5-.67c-2.87-3.82-6.69-6.85-11.06-8.77l-1.31-.58c-6.26-2.75-10.2-9.19-9.81-16l.99-12.71c.15.01.29.03.43.03 2.03 0 3.11-1.44 3.59-2.08l-.77-.63-.83-.56c-.58.77-1.14 1.39-2.27 1.27-.77-.09-1.41-.47-1.79-1.09-.42-.67-.5-1.54-.21-2.38l.27-.77c.18-.52-.09-1.08-.6-1.27l-3.75-1.36 3.3-1.47c.24-.11.44-.31.53-.56l1.02-2.72c.32-.86-.06-1.8-.88-2.21-.81-.4-1.22-.82-1.26-1.07-.03-.15.11-.39.37-.65 2.63-2.63 2.75-4.19 2.75-4.47 0-.55-.45-1.02-1-1.02h0c-.55 0-1 .43-.99.98 0 .01-.14 1.08-2.16 3.1-.94.94-1.03 1.82-.93 2.4.16.94.9 1.78 2.17 2.44l-.8 2.13-5.19 2.31c-.37.17-.61.54-.59.95.02.41.28.77.66.9l5.16 1.86c-.42 1.37-.26 2.79.46 3.94.36.57.83 1.04 1.39 1.38l-1.03 13.21c-.44 7.66 3.98 14.88 11 17.97l1.31.58c4.05 1.78 7.6 4.6 10.26 8.14l.79 1.05v5.13l-.38.93-.87.7h-6.67c-.55 0-1 .45-1 1 0 .55.45 1 1 1h7.02c.23 0 .45-.08.62-.22l1.28-1.02 1.28 1.02c.18.14.4.22.62.22h2.26c.38 0 .71-.22.88-.54l.4.32c.18.14.4.22.62.22h2.26c.55 0 1-.45 1-1 0-.55-.45-1-1-1h-1.9l-.87-.7-.38-.93v-4.86c.07-.04.15-.08.21-.14l1.68-1.6c3.12-2.97 6.4-5.28 9.75-6.85 7.05-3.3 10.37-9.44 9.36-17.28-.01-.1-.02-.18-.03-.18 0-.03 0-.07 0-.1-.16-1.55.26-2.71 1.19-3.26.98-.59 2.43-.41 3.69.45.85.58 1.58 1.5 2.19 2.74.4.82 1.21 1.36 2.11 1.41.9.06 1.73-.37 2.21-1.12 1.86-2.91 2.81-6.12 2.81-9.57.02-9.03-6.97-16.82-15.92-17.73ZM40.54 73.99l-.87-.7-.38-.93v-4.71h2.16v4.91c0 .13.03.26.08.38l.43 1.04h-1.41ZM24.16 33.84c-.55 0-1 .45-1 1v1.5c0 6.96 4.69 13.11 11.41 14.95l.13.04c1.53.41 3.08.61 4.62.61 5.87 0 11.57-2.87 15.1-7.85l.37-.53c.32-.45.21-1.08-.24-1.39-.45-.32-1.08-.21-1.39.24l-.37.53c-3.97 5.62-11.03 8.22-17.57 6.47l-.13-.03c-5.85-1.6-9.94-6.95-9.94-13.02v-1.5c0-.55-.45-1-1-1ZM24.73 4.61c.18-.52-.09-1.08-.61-1.26-.52-.19-1.09.09-1.28.6-.04.11-1.01 2.65-4.83 3.79-.53.16-.83.71-.67 1.24.13.43.53.71.96.71.09 0 .19-.01.29-.04 4.85-1.44 6.1-4.9 6.15-5.04Z"/>
</svg>