<svg xmlns="http://www.w3.org/2000/svg" viewBox="0 0 80 80">
<path d="M16.35 26.54c-1.07 0-1.93.87-1.93 1.93 0 1.06.87 1.93 1.93 1.93 1.06 0 1.93-.87 1.93-1.93 0-1.06-.87-1.93-1.93-1.93ZM28.98 26.54c-1.07 0-1.93.87-1.93 1.93 0 1.06.87 1.93 1.93 1.93 1.06 0 1.93-.87 1.93-1.93 0-1.06-.87-1.93-1.93-1.93ZM37.58 29.35c1.14-5.27-.39-8.99-4.3-10.47-5.57-2.11-9 1-10.51 2.68-2.64-3.51-5.9-4.62-9.72-3.27-3.28 1.15-5.37 4.22-5.47 8-.18 7.33 6.3 15 13.6 16.09.31.05.65.07.98.07.07 0 .14 0 .21 0 8.17-.23 13.83-6.76 15.2-13.1ZM22.32 40.45c-.3.01-.58 0-.84-.05-6.27-.94-12.05-7.78-11.9-14.07.07-2.98 1.62-5.28 4.13-6.16.85-.3 1.63-.43 2.33-.43 2.75 0 4.45 1.97 5.55 3.62.15.22.26.38.33.46.31.36.83.45 1.24.22.23-.13.38-.31.66-.64 1.04-1.24 3.82-4.52 8.75-2.65 3.68 1.39 3.69 5.21 3.05 8.17-1.2 5.58-6.16 11.32-13.3 11.52ZM71.24 26.6c-2.22 0-4.36 0-6.48-.01-6.27-.02-12.2-.03-18.76.07-2.3.03-2.98-.52-3.39-2.72-1.65-8.99-10-15.53-19.85-15.55h-.04c-9.69 0-18.26 6.96-19.51 15.85-1.55 11.02 2.5 20.99 12.4 30.46 4.2 4.01 9.49 6.83 16.67 8.87 0 0 .01 0 .02 0 .12.03.2.14.2.25 0 .83.02 1.58.03 2.19 0 .16-.07.27-.13.33-.08.09-.16.15-.33.13-1.24 0-3.1 0-5.06-.01-3.49 0-6.78 1.34-9.27 3.77l-.04.04c-.38.36-.41.96-.07 1.36l.62.75c.19.23.47.36.77.36h27.78c1.09 0 1.99-.75 2.18-1.83.19-1.06-.38-2.06-1.38-2.43-.4-.15-.83-.28-1.27-.41-.56-.17-1.14-.34-1.64-.56-.75-.33-1.12-1.16-.87-1.94l.19-.6.14-.32c.55-.07 1.49-.2 2.63-.4.02 0 .03 0 .05 0 0 0 0 0 .01 0 1.57-.28 3.52-.69 5.48-1.3 17.88-5.3 22.44-17.97 24.55-29.67.43-2.4.22-3.96-.7-5.06-.92-1.1-2.45-1.6-4.95-1.6ZM43.89 69.34c.61.27 1.26.46 1.88.65.39.12.78.23 1.14.36.05.02.13.05.1.2-.03.19-.17.19-.21.19h-26.58c1.95-1.48 4.32-2.28 6.8-2.28h0c1.95 0 3.82 0 5.05.01h0c.67 0 1.29-.26 1.75-.73.46-.47.71-1.1.7-1.77-.01-.52-.02-1.17-.03-1.87 1.51.29 3.72.58 6.46.58.34 0 .69 0 1.04-.02l-.09.29c-.56 1.75.29 3.64 1.97 4.38ZM74.92 32.91c-2.87 15.94-9.58 24.08-23.16 28.11-1.9.59-3.78.99-5.29 1.25-7.9 1.18-13.52-.59-13.58-.61 0 0-.01 0-.02 0-.01 0-.02 0-.03-.01-6.86-1.95-11.9-4.61-15.85-8.4C7.6 44.26 3.74 34.86 5.2 24.52c1.12-7.93 8.81-14.13 17.53-14.13h.03c8.89.02 16.41 5.87 17.89 13.91.58 3.15 2.15 4.42 5.39 4.36 6.54-.1 12.46-.08 18.72-.07 2.11 0 4.26.01 6.48.01 1.81 0 2.92.29 3.42.88.49.58.58 1.71.26 3.43ZM64.25 37.36c-6.57.34-10.14-1.22-10.17-1.24-.5-.23-1.1 0-1.33.5-.23.5 0 1.1.5 1.33.16.07 4 1.77 11.1 1.41.2-.01.36 0 .48 0l-1.75 2.43c-9.31.88-14.81-2.71-14.88-2.76-.46-.31-1.08-.19-1.39.27-.31.46-.19 1.08.26 1.39.22.15 4.89 3.25 13.03 3.25.47 0 .95-.02 1.44-.04-.54.75-1.14 1.44-1.77 2.11-12.49.93-17.92-3.77-17.99-3.83-.41-.37-1.04-.34-1.41.07-.37.41-.34 1.04.06 1.41.22.2 5.04 4.48 16.08 4.48.32 0 .67-.01 1-.02-1.26 1.02-2.64 1.89-4.09 2.61-13.98-1.44-18.17-5.54-18.24-5.61-.38-.4-1.01-.41-1.41-.04-.4.38-.42 1.01-.04 1.41.16.17 3.82 3.92 15.74 5.75-.39.11-.78.23-1.18.32-5.76 1.27-11.68.25-16.68-2.87l-3.83-2.39c-.47-.29-1.09-.15-1.38.32-.29.47-.15 1.08.32 1.38l3.83 2.39c3.92 2.44 8.35 3.7 12.86 3.7 1.76 0 3.54-.19 5.3-.58 1.81-.4 3.55-1.03 5.2-1.81.08-.02.15-.06.22-.1 2.51-1.22 4.78-2.86 6.74-4.87.06-.05.12-.11.17-.18.78-.82 1.53-1.68 2.2-2.61l3.33-4.63c.65-.91.52-1.59.3-2-.58-1.06-2.15-.98-2.66-.95ZM26.83 30.76h-8.25c-.38 0-.6.42-.39.73l4.03 5.97c.18.27.59.28.78 0l4.22-5.97c.22-.31 0-.74-.39-.74Z"/>
</svg>