<svg xmlns="http://www.w3.org/2000/svg" viewBox="0 0 80 80">
<path d="M63.12 21.23c-8.34 3.9-16.56 1.87-25.73 2.81-10.43 3.86-15.25-6.5-24.89-6.44.91-1.73 1.06-5.39-1.66-3.29l-.54-1.66c-.65 1.74-1.84 1.87-2.82.27.1 1.57.09 3.82-1.21 1.24.01 2.54-4.84 8.54.25 9.43-.62.99-1.89 2.48-1.13 3.69.65-1.4 1.49-1.09 2.44-1.95 1.27 4.79 3.74 11.52 6.16 3.12 1.61 7.82 3.31 8.16 4.94 8.49 5.88 3.07 6.47 12.82 14.18 11.97.64 3.68.88 4.42 3.91 6.72-2.09 3.29-3.48 9.3-8.06 7.38-.43-.05-.73 0-1.03.59 1.26-.08 1.69.42 2.75.75-1.29.27-6.3-1.18-6.96 1.67 1.75-.43 6.91-1.03 7.89-.25-.54.48-.58.73-.6 1.43 5.84-1.49 2.01-3.92 7.84-1.6.12-1.39-1.55-1.93-2.38-2.56-.72-2.09 1.55-5.91 3.65-6.44 3.42 1.04-1.54 11.53-1.65 10.81-1.18.06-4.8-1.28-5.06.49.46-.4 1.26-.04 1.22.49-2.07-.68-7.08-2.11-7.43.92.79-1.04 1.99.01 2.74.14 1.29-.09 3.26-.6 5.07.71-.65.43-1.16.77-1.16 1.64 2.32.66 8.07-3.95 10.2-1.2-.54-5.68-5.29 1.87-.68-9.58.49-3.35 4.43-2.92 5.61-5.79.77-1.96 1.75-2.34 3.26-3.24 2.18-1.66 3.96-4.23 5.57-6.49 1.35-2.12.55-2.28.7-4.21.62-.89 1.12-3.71 2.74-3.74 5.77-.57 3.93-5.48 10.18-7.37 2.86-3.98.79-7.19 4.4-10.36-2.4-1.98-9.97.56-12.69 1.44Z"/>
</svg>