<svg xmlns="http://www.w3.org/2000/svg" viewBox="0 0 80 80">
<path d="M70.51 16.05l-8.53-5.4c-.21-.25-.43-.49-.66-.72-5.35-5.47-14.56-3.94-18.34 2.71-2.89 5.08-6.67 12.53-7.83 18.47h-12.93c-1.48 0-2.63 1.31-2.4 2.77 1.33 8.25 8.48 14.56 17.11 14.56h5.92c.67 0 1.21.54 1.21 1.21 0 .67-.54 1.21-1.21 1.21h-5.92c-10.91 0-19.75-8.84-19.75-19.75 0-1.34 1.08-2.42 2.42-2.42h11.67c-3.01-4.62-11.81-3.74-20.54-4.55-1.35-.13-2.51.97-2.51 2.32v10.48c0 12.55 8.55 23.44 20.11 26.57l5.7 9.87h23.81c.93 0 1.69-.76 1.69-1.69 0-.93-.76-1.69-1.69-1.69h-10.1l-2.8-4.86c-1.46.52-2.97.93-4.52 1.21l2.1 3.64h-5.22l-3.24-5.61c.51.02 1.03.03 1.55.02 14.6-.28 26.36-12.2 26.36-26.87v-16.94l8.36-3.01c.68-.25.79-1.17.17-1.56ZM54.86 18.23c-1.43 0-2.6-1.16-2.6-2.6 0-1.44 1.16-2.6 2.6-2.6 1.44 0 2.6 1.16 2.6 2.6 0 1.44-1.16 2.6-2.6 2.6Z"/>
</svg>