<svg xmlns="http://www.w3.org/2000/svg" viewBox="0 0 80 80">
<path d="M21.31 7.54c-.9 0-1.64.73-1.64 1.64 0 .91.73 1.64 1.64 1.64.91 0 1.64-.73 1.64-1.64 0-.91-.73-1.64-1.64-1.64ZM33.78 12.79c0-8.6-7.67-11.38-11.38-11.38-3.71 0-7.58 1.81-8.83 4.93-.08.07-.15.14-.21.24-.77 1.35-4.11 5.61-9.21 7.35-.27.09-.49.29-.6.55-.11.26-.11.56.01.81.68 1.48 2.37 2.81 6.28 2.81 2.7 0 6.45-.64 11.66-2.31h.43c-.45 1.77-1.96 4-3.67 6.53-2.98 4.39-6.69 9.85-6.69 15.98 0 5.69 2.67 11.74 7.13 16.19 3.44 3.43 9.47 7.44 19.12 8.18 0 0 0 .02 0 .03v6.17l-7.82-1.28c-.6-.1-1.21.07-1.68.47-.46.4-.73.97-.73 1.58v5.82c0 .62.27 1.2.75 1.6.38.31.85.48 1.33.48.12 0 .25-.01.37-.03l.93-.17c3.08-.56 8.58-1.55 11.09-2 1.21-.22 2.1-1.27 2.12-2.5l.18-10.12c0-.15-.03-.29-.09-.42 6.07-1.64 14.53-7.05 20.79-11.3 1.92-1.31 4.37-1.59 6.54-.76l3.6 1.37c.31.12.66.08.93-.12.27-.19.43-.5.43-.84l-.21-11.44c0-.36-.21-.69-.53-.86-.32-.17-.71-.15-1.01.04l-5.2 3.38c-1.51.98-3.59.16-5.61-.63l-.65-.25c-2.32-.89-4.85-2.36-7.79-4.07-5.93-3.45-13.27-7.72-23.45-9.87.08-1.45.35-2.84.65-4.41.5-2.56 1.06-5.46 1.06-9.77ZM6.18 15.3c3.21-1.41 5.65-3.61 7.21-5.4.39 1.12 1.22 2.02 1.97 2.84.69.75 1.33 1.47 1.65 2.29-6.76 1.72-9.64 1.03-10.83.27ZM42.16 72.82c0 .28-.21.51-.48.56-2.51.45-8.01 1.44-11.09 2l-.93.17-.09-.08v-5.82l.09-.08 8.99 1.47c.29.05.59-.04.81-.23.22-.19.35-.47.35-.76v-7.27c.4.01.8.03 1.21.03.41 0 .85-.04 1.31-.1l-.18 10.1ZM54.51 38.57c2.35 1.37 4.44 2.58 6.42 3.5l-7.22 5.41c-3.94 2.95-8.93 3.9-13.69 2.6-6.88-1.88-11.68-8.17-11.68-15.3v-1.74c0-.55-.45-1-1-1-.55 0-1 .45-1 1v1.74c0 8.03 5.41 15.11 13.15 17.23 1.57.43 3.17.64 4.75.64 3.8 0 7.53-1.22 10.67-3.57l7.73-5.79c.13-.1.22-.23.29-.37l.29.11c2.25.89 5.06 1.99 7.43.45l3.69-2.4.15 8.15-2.21-.84c-2.78-1.06-5.91-.7-8.38.97-4.17 2.83-16.87 11.46-22.88 11.46-20 0-27.46-13.8-27.46-22.51 0-5.51 3.37-10.48 6.34-14.85 2.24-3.3 4.17-6.15 4.17-8.65 0-.55-.45-1-1-1h-1.74c-.1 0-.21.02-.31.05-.73.24-1.41.44-2.08.64-.44-1.27-1.33-2.24-2.14-3.11-.9-.97-1.68-1.82-1.68-2.83 0-3.17 3.77-5.14 7.25-5.14 1.98 0 9.38 1.59 9.38 9.38 0 4.12-.54 6.92-1.02 9.39-.38 1.96-.71 3.65-.71 5.61 0 .48.34.89.81.98 10.28 2.02 17.7 6.34 23.65 9.8Z"/>
</svg>