<svg xmlns="http://www.w3.org/2000/svg" viewBox="0 0 80 80">
<path d="M74.74 46.35c-10.03-3.66-19.11-6.58-27.73-13.07-4.22-3.18-7.06-5.32-13.89-7.66-1.12-.97-.96-3.14-.77-5.7.38-5.11.55-11-4.77-13.61-2.24-1.1-5.31-.55-7.47.6-1.44 1-3.29 2.77-3.65 5.87-1.09 1.08-4.14 2.61-5.48 3.72-1.01.84-1.51 1.46-.93 1.57.33.05.99.45 1.34.59 1.98.43 4.68-.64 6.78-1.2 2.2-.64 4.61-.67 4.98.24.13.23.16.5.07.83-.74 2.71-6.11 5.12-6.77 10.81-.46 3.98 3.75 11.73 5.33 15.71 2.38 5.97 3.36 8.45 12.75 14.45-.54 2.9-3.32 4.35-5.09 6.75-2.24.02-4.31.24-6.5.73.73 1.34.41 1.14-.25 2.32 1.41.51 1.02.8 1.2 2.05 3.11-.6 5.59-.73 7.82-3.31.68-.25 2.16.52 2.78.84.18-.42.22-.85.11-1.29-1.3-2.66 2.18-3.73 4.7-6.97l8.98 1.59-3.27 6.37c-1.33.11-7.6.33-8.18 1.31.33.12.74.25 1.02.45.56.38-.23 1.29-.48 1.68 1.62.18 2.04.59 2.07 2.24 1.13-.47 1.5-.05 2.47-.21 1.68-.6 4.97-2.23 6.66-1.94l1.1.25c.18-.12.05-.87-.03-1.07-.64-1.52-1.47-.55-.82-3.06.59-2.28 2.08-3.93 3.13-5.73.97-.77 3.09-1.21 5.66-1.74 4.72-.97 8.97-3.56 11.93-7.37 2.08-2.69 4.2-4.9 5.39-6.04.32-.3.2-.84-.22-.99Z"/>
</svg>