<svg xmlns="http://www.w3.org/2000/svg" viewBox="0 0 80 80">
<path d="M71.13 20.44l-4.08-7.03c-.44-.9-1.04-1.64-1.73-2.26 0-.09 0-.19-.03-.28l-2.06-6.82c-.17-.57-.59-1.02-1.15-1.23-.56-.21-1.17-.15-1.68.16l-2.58 1.6c-.17-.24-.31-.46-.44-.66-.48-.75-.94-1.46-1.95-1.64-.12-.05-.24-.07-.38-.07-1.12 0-1.79.96-2.21 1.71l-2.57 4.89c-1.58.68-3.57 1.8-5.54 4.15-1.32 1.57-2.34 3.5-3.04 5.72-1.15 3.64-3.79 6.69-7.23 8.39-4.73 2.33-11.47 6.16-16.7 11.18-8.82 8.46-11.76 19.86-8.26 32.1 1.22 4.41 5.27 7.48 9.84 7.48h16.5c2.29 0 4.14-1.86 4.14-4.14 0-2.28-1.86-4.14-4.14-4.14h-3.09c.75-.49 1.48-1.1 2.16-1.87 1.36-1.55 2.23-3.47 2.63-5.7l3.75 8.79 1.53 4.15c.15.39.52.65.94.65h13.42c1.37 0 2.48-1.11 2.48-2.48 0-1.54-.91-2.93-2.31-3.55-1.86-.82-3.02-2.66-2.97-4.69l.36-14.08c0-.47.08-.93.2-1.41l4.35-18.34c.29-1.22 2.89-1.7 4.11-1.75.03 0 .07 0 .1 0 1.67-.23 3.23-.95 4.49-2.08 2.39-2.15 3.61-3.74 3.61-4.74 0-.04 0-.08 0-.11-.03-.28-.16-1.23-.47-1.86ZM61.36 4.74l1.44 4.76c-.86-.39-1.74-.65-2.57-.8l-1.39-2.39 2.52-1.57ZM66.67 25.66c-.95.85-2.12 1.4-3.38 1.58-.74.03-5.23.34-5.93 3.28l-4.34 18.31c-.16.6-.25 1.23-.26 1.85l-.36 14.08c-.07 2.84 1.56 5.42 4.16 6.57.68.3 1.12.98 1.12 1.72 0 .26-.22.48-.48.48h-5.67c0 0-.02 0-.04 0-.1 0-.29 0-.5-.01-.11-1.34-.47-2.67-1.06-3.88l-1.29-2.68-.38-21.76c-.01-.55-.5-.98-1.02-.98-.55 0-.99.47-.98 1.02l.39 21.96c0 .08.02.2.04.28.02.06.04.12.06.17l1.37 2.86c.45.95.74 1.98.85 3.03h-4.52l-1.31-3.54-4.27-10.02c-.83-1.95-1.25-3.84-1.26-5.67v-9.68c0-.55-.45-1-1-1-.55 0-1 .45-1 1v9.73c0 .49.03.98.09 1.48-.06.16-.1.32-.08.5.57 4.31-.18 7.67-2.21 9.99-2.59 2.96-6.34 3.19-7.43 3.19h-2.72c-2.32 0-4.34-1.65-4.8-3.91l-.52-2.49c-.11-.54-.64-.89-1.18-.78-.54.11-.89.64-.78 1.18l.52 2.49c.66 3.19 3.5 5.51 6.76 5.51h12.58c1.18 0 2.14.96 2.14 2.14 0 1.18-.96 2.14-2.14 2.14h-16.5c-3.68 0-6.93-2.47-7.92-6.02-3.33-11.67-.67-22.08 7.72-30.11 5.04-4.83 11.6-8.55 16.2-10.82 3.93-1.94 6.93-5.43 8.25-9.58.63-1.97 1.52-3.67 2.67-5.04 1.83-2.19 3.69-3.14 5.1-3.73.22-.09.39-.25.5-.46l2.73-5.18c.22-.4.38-.57.44-.63.17.03.26.15.66.77.14.21.29.45.44.65l2.59 4.46c.16.27.43.45.74.49 2.05.26 4.65 1.36 5.81 3.74l3.04 5.25h-.24c-.89 0-1.49.91-1.14 1.73l.77 1.8c.16.38.47.61.8.7-.47.52-1.08 1.14-1.86 1.83ZM60.92 15.76c-.84 0-1.51.68-1.51 1.51 0 .83.68 1.51 1.51 1.51.83 0 1.51-.68 1.51-1.51 0-.83-.68-1.51-1.51-1.51Z"/>
</svg>