<svg xmlns="http://www.w3.org/2000/svg" viewBox="0 0 80 80">
<path d="M48.86 20.73c-.05-1.42.72-2.8 1.96-3.5.01 0 .02-.01.04-.02.72-.4.57-1.45-.24-1.6-1.64-.31-3.41.19-4.66 1.5-1.85 1.94-1.85 5.14 0 7.08 1.88 1.97 5.41 2.15 6.98.41-2.08.07-3.99-1.54-4.07-3.86ZM56.65 71.72c.28 1.04 1.22 1.77 2.3 1.77h0c1.32 0 2.39-1.07 2.39-2.39v-23.45c-2.22 3.39-5.34 6.12-9.03 7.86l4.34 16.2ZM33.14 51.42c-1.83 2.56-4.17 4.68-6.84 6.23v13.45c0 1.32 1.07 2.39 2.39 2.39h0c1.08 0 2.03-.73 2.3-1.77l5.22-19.48-3.07-.82ZM8.2 49.22c-.69.28-1.26 1.03-1.24 1.77l.67 20.11c0 1.32 1.07 2.39 2.39 2.39 1.08 0 2.03-.73 2.3-1.77l3.54-13.21c6.69-.2 12.88-3.8 16.36-9.53l9.36 2.51v19.61c0 1.32 1.07 2.39 2.39 2.39h0c1.08 0 2.03-.73 2.3-1.77l4.81-17.96c6.91-3.1 11.72-10.04 11.72-18.11v-5.26c3.76 1.01 7.76-.07 10.51-2.82 1.34-1.34 1.34-3.51 0-4.85l-12.86-12.86c-2.98-2.98-7.18-4.73-11.78-4.44-7.56.48-13.75 6.66-14.23 14.22-.54 8.54 5.94 15.69 14.23 16.22.55.04.99.47.99 1.02v.07c0 .58-.48 1.06-1.05 1.02-6.76-.41-12.49-4.7-14.98-10.67l-17.07 5.73-5.22-3.14c-.85-.51-1.99-.35-2.57.46-.13.18-.11.91-.09 1.05.26 1.8.79 5.03 4.43 5.03 0 0-5.33 3.01-3.8 10.51.2.99-.08 1.86-1.11 2.28ZM65.52 21.03c.61 0 1.1.49 1.1 1.1 0 .61-.49 1.1-1.1 1.1-.61 0-1.1-.49-1.1-1.1 0-.61.49-1.1 1.1-1.1ZM49.66 30.84c-5.63 0-10.19-4.56-10.19-10.19 0-5.63 4.56-10.19 10.19-10.19 5.63 0 10.19 4.56 10.19 10.19 0 5.63-4.56 10.19-10.19 10.19Z"/>
</svg>