<svg xmlns="http://www.w3.org/2000/svg" viewBox="0 0 80 80">
<path d="M65.1 22.91l-11.52-10.35c0 0-.09-.05-.13-.07-2.12-2.19-6.29-3.95-9.44-3.95h-8.42c-3.19 0-7.42 1.79-9.52 4.01 0 0 0 0-.01 0l-11.51 10.34c-2.44 2.13-4.56 4.28-6.3 6.39-4.36 5.29-5.1 12.37-1.95 18.46 2.89 5.58 8.39 8.92 14.56 8.92.36 0 .73-.02 1.1-.04-.74 3.61.05 7.31 2.26 10.34 2.5 3.44 6.37 5.41 10.62 5.41h9.89c4.25 0 8.12-1.97 10.62-5.41 2.21-3.03 3-6.73 2.26-10.34.38.03.76.04 1.14.04 6.17 0 11.67-3.33 14.56-8.92 3.16-6.09 2.41-13.16-1.95-18.46-1.74-2.11-3.85-4.26-6.28-6.38ZM27.47 13.98c1.71-1.87 5.43-3.44 8.12-3.44h8.42c2.69 0 6.41 1.58 8.12 3.44 3.31 3.61 5.39 8.8 6.37 15.87.51 3.67.14 8.73-4.2 12.63-.3-.79-.76-1.51-1.37-2.13-.39-.39-1.02-.39-1.41 0-.39.39-.39 1.02 0 1.41.77.77 1.19 1.78 1.19 2.87 0 2.38-2.2 2.88-4.05 2.88-1.08 0-2.1-.42-2.87-1.19-.04-.04-.08-.08-.13-.11l-4.84-3.41v-2.82c1.8-.49 4.63-2.12 4.63-4.8 0-2.02-1.48-4.19-5.64-4.19h-.02c-1.15 0-3.25.2-4.55 1.5-.69.69-1.06 1.62-1.06 2.67 0 2.53 2.74 4.29 4.63 4.81v2.82l-4.85 3.41c0 0-.09.07-.13.11-.77.76-1.78 1.19-2.87 1.19-1.85 0-4.05-.5-4.05-2.88 0-1.08.42-2.1 1.19-2.87.39-.39.39-1.02 0-1.41-.39-.39-1.02-.39-1.41 0-.55.55-.97 1.18-1.27 1.87-4.41-4.35-4.64-8.88-4.3-12.41.62-6.41 2.88-12.03 6.36-15.83ZM43.87 47.41c0 0-.1.05-.15.1-1.05 1.05-2.44 1.63-3.92 1.63-1.48 0-2.88-.58-3.92-1.63-.04-.04-.1-.06-.15-.1l4.07-2.86 4.07 2.86ZM36.17 35.17c0-.53.15-.93.48-1.26.57-.57 1.74-.91 3.16-.91h.02c2.33 0 3.62.78 3.62 2.19 0 1.78-2.92 2.96-3.62 2.96-.89 0-3.65-1.34-3.65-2.98ZM22 54.62c-5.87.44-11.2-2.55-13.92-7.8-2.78-5.37-2.12-11.6 1.71-16.26 1.67-2.03 3.71-4.1 6.08-6.16l6-5.39c-1.43 3.15-2.39 6.74-2.76 10.61-.37 3.89-.16 9.63 5.79 14.87 0 .05 0 .1 0 .15 0 .97.25 1.79.68 2.49l-3 7.44c-.13.02-.31.04-.57.06ZM53.75 65.79c-2.12 2.91-5.4 4.58-9.01 4.58h-9.89c-3.6 0-6.89-1.67-9.01-4.58-2.12-2.92-2.71-6.56-1.6-9.99 0-.02 0-.03 0-.05 0 0 .01-.01.02-.02l2.87-7.11c.99.57 2.27.89 3.82.89 1.18 0 2.31-.34 3.28-.96.05.14.12.26.23.37 1.43 1.43 3.32 2.21 5.34 2.21 2.02 0 3.91-.79 5.34-2.21.11-.11.18-.24.23-.37.97.63 2.1.96 3.28.96 1.57 0 2.86-.33 3.85-.91l2.79 6.92c0 0 0 .09.02.14l.05.14c1.11 3.43.52 7.08-1.6 9.99ZM71.55 46.83c-2.72 5.25-8.05 8.24-13.92 7.8-.26-.02-.44-.04-.57-.06l-3.02-7.48c.39-.66.62-1.44.64-2.33 5.88-4.56 6.4-10.76 5.79-15.18-.57-4.17-1.54-7.71-2.89-10.72l6.19 5.56c2.36 2.06 4.4 4.13 6.07 6.15 3.84 4.66 4.5 10.9 1.72 16.26ZM31.11 23.89c-.961 0-1.74.779-1.74 1.74 0 .961.779 1.74 1.74 1.74.961 0 1.74-.779 1.74-1.74 0-.961-.779-1.74-1.74-1.74ZM48.48 23.89c-.961 0-1.74.779-1.74 1.74 0 .961.779 1.74 1.74 1.74.961 0 1.74-.779 1.74-1.74 0-.961-.779-1.74-1.74-1.74Z"/>
</svg>