<svg xmlns="http://www.w3.org/2000/svg" viewBox="0 0 80 80">
<path d="M53.04 59.38c2.52-8.24 6.32-20.68 6.34-30.37.01-5.02-1.39-8.98-4.18-11.77-1.77-1.78-3.81-2.78-5.55-3.35.23-.92.28-2.15.5-2.81.88-2.76 5.23-2.23 7.22-1.62.21.06.42-.11.37-.33-.22-.9-1.75-2.87-5.22-2.49-2.55.28-4.06-1.75-6.38-2.52-2.99-.99-5.93-.76-8.45 1.39-.91.77-1.82 1.57-2.57 2.49-3.05 3.73-5.57 7.78-7.33 12.28-3.59 9.16-3.85 18.59-1.54 28.02 1.01 4.1 2.17 7.57 3.42 11.28.96 2.86.42 6.01-1.45 8.38-1.34 1.7-2.9 3.63-4.13 5.02-.82.93-.16 2.39 1.08 2.38 4.33-.03 12.09-.23 16.12-.23.02 0 .03-.03.05-.05l3.69-1.72 4.98 4.59c.22.22.61-.03.62-.4l.03-1.12c0-.29.2-.48.43-.4 0 0 1.14.48 1.25.31.17-.25-.52-1.41-.52-1.41-.11-.28.03-.51.32-.51 0 0 2.06.11 2.07-.48 0-.37-2.46-2.06-3.94-3.04.35-.18.65-.42.91-.7l5.73 2.04c.29.1.54-.29.39-.62l-.45-1.03c-.12-.27-.02-.52.22-.55 0 0 1.23-.04 1.27-.25.05-.29-1.07-1.06-1.07-1.06-.22-.21-.18-.48.07-.59 0 0 1.92-.77 1.68-1.31-.19-.42-6-.82-7.63-.92-.11-.29-.11-.43 0-.86.36-1.4.97-3.4 1.67-5.71ZM40.2 8.54c1.2.01 2.33.76 2.65 1.75.39 1.19-.13 2.17-1.36 2.46-.95.22-1.67.65-2.15 1.53-.13.24-.58.51-.81.46-1.08-.27-2.14-.62-3.18-1.02-.19-.07-.38-.52-.34-.76.29-1.81 3.41-4.42 5.21-4.41ZM51.13 58.79c-.71 2.34-1.33 4.36-1.7 5.8-.3 1.17-.1 1.73.26 2.51.06.14.13.29.21.48.13.32.13.67 0 .98-.13.31-.38.55-.74.7l-8.17 3.8c-.76-2.39-2.39-6.27-3.63-8.62-.43-.81-.56-1.75-.29-2.63 1.74-5.71-2.24-14.99-4.4-20.09-.19-.45.42-.81.72-.42 2.63 3.45 5.4 11.24 7.91 16.69.29.63 1.21.5 1.32-.19.51-3.39 2.46-13.37-1.77-23.95-.31-.78-.44-1.63-.31-2.46.87-5.39 2.02-8.98 3.08-14.63.17-.91.7-1.2 1.6-1.32.67-.09 1.23-.13 1.72-.15 3.13.47 10.5 2.76 10.48 13.73-.02 9.39-3.77 21.66-6.25 29.79Z"/>
</svg>