<svg xmlns="http://www.w3.org/2000/svg" viewBox="0 0 80 80">
<path d="M13.01 63.03c5.78.04 11.56 0 17.34-.02.05 0 .1 0 .15 0 1.33-.01 1.83-1.71.73-2.46-4.31-2.96-9.51-3.2-14.33-4.17 4.88-.69 10.29-.18 14.78 2.13 1.62.83 1.73 1.22 3.07.05.57-.5 1.19-.93 1.83-1.37.51-.36.74-1.01.53-1.6-1.09-3.15-.51-8.55.56-9.14 2.87-.5-3.76 6.62 5.2 15.06.67.63 1.64 1.43 2.5 1.45 5.03.12 10.07.07 15.82.07.53 0 .84-.6.52-1.02-.95-1.23-2.72-2.72-7.62-2.24-1.79-.04-2.75-.66-3.52-2.17-2.64-5.18-1.79-11.06 2.38-16.1 4.38-5.28 9.96-8.95 15.99-12.04 2.97-1.52 3.39-3.21.59-5.04-2.36-1.54-5.37-2.06-8.05-3.14-1.39-.56-2.92-1.1-3.99-2.09-3.18-2.94-8.39-3.17-10.43.47-1.68 2.99-4.04 3.48-6.74 4.18-2.46.64-4.91 1.38-7.28 2.31-7.74 3.02-15.29 9.21-19.19 18.77-.38-.02-.76-.06-1.13-.06-5.61-.09-8.48 2.73-8.47 7.96.02 6.59 3.06 10.19 8.74 10.22ZM52.21 19.66c2.5-.07 4.51 1.86 4.54 4.37.03 2.58-1.81 4.41-4.42 4.41-2.58 0-4.47-1.89-4.42-4.42.04-2.37 1.94-4.28 4.3-4.35ZM55.2 43.56c.04-.61-.73-.92-1.12-.45-2.94 3.64-4.24 7.62-2.55 12.38.65 1.82 1.26 2.91 3.35 2.87 3.54-.06 7.3.59 8.56 3.75.17.43.58.71 1.04.71h9.51c.89 0 1.4-1.07.8-1.72-1.61-1.75-4.77-2.07-7.26-2.22-8.22-.49-12.91-5.8-12.33-15.32ZM52.33 26.12c.79 0 1.43-.93 1.43-2.08 0-1.15-.64-2.08-1.43-2.08-.79 0-1.43.93-1.43 2.08 0 1.15.64 2.08 1.43 2.08Z"/>
</svg>