<svg xmlns="http://www.w3.org/2000/svg" viewBox="0 0 80 80">
<path d="M32.5 55.62 25.45 55.62 27.8 64.4 32.5 64.4 32.5 55.62ZM58.27 64.4v-9.53c-2.29.49-4.66.75-7.05.75l2.35 8.79h4.7ZM63.47 27.91c2.53-2.53 2.94-6.39 1.21-9.34-.52-.89-1.75-1.04-2.48-.31l-5.76 2.91c-2.34-1.19-4.98-1.87-7.78-1.87h-22.7c-6.31 0-11.82 3.41-14.8 8.49-.45.77-1.28 1.29-2.24 1.29-1.43 0-2.59-1.16-2.59-2.59 0-.39.32-.71.71-.71.39 0 .71.32.71.71 0 .65.53 1.18 1.18 1.18.65 0 1.18-.53 1.18-1.18 0-1.71-1.41-3.1-3.13-3.07-2.03.04-3.32 2.11-2.9 4.1.47 2.24 2.46 3.92 4.85 3.92.22 0 .44-.01.65-.04-.49 1.6-.76 3.3-.76 5.06 0 1.61.22 3.16.64 4.64l6.25 23.31h4.7c0 0 0-10.81 0-10.81h17.53c0 0 2.9 10.81 2.9 10.81h4.7c0 0 0-10.81 0-10.81h5.7c9.58 0 18.16-4.27 23.95-11.02.56-.66.85-1.51.85-2.38v-1.83c0-1.17-.43-3.14-1.94-3.57-4.48-1.27-8.31-2.97-10.6-6.89ZM60.88 36.3c-1.03 0-1.86-.83-1.86-1.86 0-1.03.83-1.86 1.86-1.86 1.03 0 1.86.83 1.86 1.86 0 1.03-.83 1.86-1.86 1.86ZM73.32 36.82c.45 0 .81.96.81 2.14 0 1.18-.36 2.14-.81 2.14-.45 0-.81-.96-.81-2.14 0-1.18.36-2.14.81-2.14ZM70.33 36.82c.45 0 .81.96.81 2.14 0 1.18-.36 2.14-.81 2.14-.45 0-.81-.96-.81-2.14 0-1.18.36-2.14.81-2.14Z"/>
</svg>