<svg xmlns="http://www.w3.org/2000/svg" viewBox="0 0 80 80">
<path d="M56.64 64.59c.25 0 .45-.2.45-.45v-12.07c0-.46-.6-.62-.83-.22l-3.4 5.89c-.06.1-.08.22-.04.34l1.75 6.51h2.09ZM44.12 49.63c.1-.29-.12-.59-.42-.59h-4.79c-.22 0-.4.16-.44.37l-2.03 12.28c-.01.09 0 .18.03.26l1.09 2.38c.07.16.23.26.4.26h3.29l-1.25-2.49c-.05-.11-.06-.23-.02-.34l4.12-12.13ZM75.92 29.48c0 0-.03 0-.04 0l-6.31-7.49c-.02-.06-.05-.14-.08-.19l-.42-6.01c-.04-.55-.74-.76-1.07-.33-1.04 1.36-1.86 2.71-2.98 4.18-.16.21-.48.24-.67.05-.77-.76-2.62-2.58-3.67-3.62-.28-.28-.76-.06-.74.34.08 1.76.24 3.21.27 5.74l-4.9 4.9c-.08.08-.2.13-.31.13h-19.69c-2.25 0-4.4.89-5.99 2.48l-1.18.04c-4.37.16-6.13 1.62-8.88 6l-11.88 19.02c0 0-.02.03-.03.04l-4.45 5.5c-.68.85.06 2.09 1.13 1.88l6.09-1.18c5.67-1.09 10.46-4.81 12.95-9.97v-.02c.47-.97.72-2.03.84-3.1l.99-8.82c.18-.44.83-.32.86.15l1.02 22.55c.02.06.03.13.05.19l1.29 2.41c.08.14.23.24.39.24h2.62c.32 0 .54-.33.41-.63l-1.02-2.25c-.05-.12-.05-.26 0-.37l6.26-13.25c.07-.16.23-.26.4-.26h10.69c.29 0 .51.28.43.56l-4.19 15.64c-.08.28.14.56.43.56h1.78c.16 0 .31-.08.39-.22l12.95-22.44 5.46-8.72c.07-.11.18-.18.31-.2l9.35-1.16c.27.34.68.57 1.15.57.81 0 1.47-.66 1.47-1.47 0-.81-.66-1.47-1.47-1.47ZM68.96 27.57c-.71 0-1.28-.57-1.28-1.28 0-.71.57-1.28 1.28-1.28.71 0 1.28.57 1.28 1.28 0 .71-.57 1.28-1.28 1.28Z"/>
</svg>