<svg xmlns="http://www.w3.org/2000/svg" viewBox="0 0 80 80">
<path d="M70.06 22.84c-2.53-.06-5.01-.04-7.63-.03-.98 0-1.98.01-2.98.02-2.38-8.44-5.63-10.92-14.05-10.94-2.06 0-3.1-.56-3.98-2.11-.7-1.25-2.81-4.15-7.16-4.15h0c-4.4 0-7.7 2.46-9.07 6.76-.57 1.79-1.46 2.39-3.25 3.03C6.03 21.16-.57 36.5 5.54 53.59c4.45 12.45 16.63 20.79 29.01 20.79 2.2 0 4.41-.26 6.58-.81 2.78-.71 4.58-3.29 4.27-6.14-.04-.4-.08-.81-.11-1.21-.77-10.29 5.94-19.33 14.94-20.14 10.7-.97 13.39-7.35 14.7-14.11.08-.41.22-.82.37-1.26.46-1.34 1.03-3.01-.18-5.01-1.04-1.71-2.97-2.8-5.05-2.85ZM60.04 44.08c-10.09.91-17.6 10.91-16.76 22.28.03.43.07.85.12 1.28.2 1.85-.96 3.53-2.77 3.99-13.41 3.4-28.31-4.99-33.21-18.71-5.7-15.97.41-30.29 15.21-35.62 2.22-.8 3.67-1.76 4.48-4.3 1.41-4.43 4.67-5.36 7.16-5.36h0c3.29 0 4.88 2.19 5.41 3.13 1.55 2.75 3.76 3.13 5.71 3.13 7.74.02 10.16 2.03 12.32 10.2.12.44.51.74.97.74 1.27 0 2.52 0 3.75-.02 1.52 0 2.98-.01 4.44 0-.16 2.23.19 6.9 5.48 9.34-1.55 5.65-4.55 9.24-12.32 9.94ZM73.4 30.05c-.17.49-.34.99-.44 1.53-.04.19-.08.38-.12.57-4.01-2.07-4.13-5.73-3.96-7.32.38 0 .76 0 1.14.01 1.4.03 2.69.76 3.38 1.89.72 1.19.42 2.08 0 3.32ZM49.53 23.8c-1.1543 0-2.09.9357-2.09 2.09 0 1.1543.9357 2.09 2.09 2.09 1.1543 0 2.09-.9357 2.09-2.09 0-1.1543-.9357-2.09-2.09-2.09ZM34.06 10.48c-2.23 0-4.04 1.81-4.04 4.04 0 2.23 1.81 4.04 4.04 4.04 2.23 0 4.04-1.81 4.04-4.04 0-2.23-1.81-4.04-4.04-4.04ZM34.06 16.56c-1.12 0-2.04-.91-2.04-2.04 0-1.13.91-2.04 2.04-2.04 1.13 0 2.04.91 2.04 2.04 0 1.13-.91 2.04-2.04 2.04Z"/>
</svg>