<svg xmlns="http://www.w3.org/2000/svg" viewBox="0 0 80 80">
<path d="M76.75 45.18c-2.69-1.55-4.58-4.18-5.19-7.22l-.06-.29c-.28-1.4-.79-2.76-1.47-4.02v-1.04c.7-.81 2.41-3.09 2.41-5.89 0-3.39-2.74-6.88-2.86-7.03-.17-.21-.41-.34-.68-.37-.26-.03-.53.05-.74.22l-3.51 2.88c-.76-1.55-1.63-2.65-1.69-2.73-.18-.22-.44-.36-.72-.38-.28 0-.56.09-.76.29l-3.86 3.83c-.58.57-.99 1.26-1.23 2.01-7.8-1.92-14.42-2.86-20.19-2.86-.67 0-16.57.06-24.24 5.56-1.94 1.39-3.59 3.06-4.96 4.97-2.55-3.87-2.37-6.76-1.81-9.1 0 0 0 0 0 0 .86 1.04 1.78 1.55 2.62 1.78 2.06.55 3.93-.58 4.86-1.95.66-.97.86-2.25.53-3.34-.3-.97-.98-1.71-1.92-2.08-1.29-.52-2.82-.38-4.29.39-.61.32-1.17.72-1.67 1.19-.53-1.52-.98-3.64-1.19-6.58-.04-.55-.5-.97-1.07-.92-.55.04-.96.52-.92 1.07.28 3.78.93 6.44 1.75 8.29-.29.54-.51 1.12-.65 1.71-.64 2.74-.91 6.5 2.59 11.38-.49.85-.94 1.75-1.33 2.69-.57 1.36-.85 2.82-.85 4.33 0 1.83.45 3.66 1.29 5.29l3.71 7.1-1.26 3.87c-.06.2-.07.4 0 .6l2.02 6.62v1.08c0 .55.45 1 1 1h9.44c.55 0 1-.45 1-1v-1.12c0-.15-.03-.29-.09-.42l-1.19-2.57v-5.85l.48-.29.53-.21c.13.14.3.24.49.29l1.3.32c5.95 1.45 12.06 1.91 18.15 1.39l5.59-.48.52 5.45c.01.12.04.24.1.35l1.43 2.89v.26c0 .55.45 1 1 1h9.11c.55 0 1-.45 1-1v-1.37c0-.15-.03-.29-.1-.43l-1.18-2.49.39-7.96c1.84.44 3.73.68 5.61.68 5.57 0 10-1.72 13.57-5.3.19-.19.29-.44.29-.71v-1.89c0-.77-.42-1.49-1.11-1.88ZM7.92 20.57c.93-.49 1.89-.6 2.62-.3.38.15.62.42.74.81.16.51.05 1.17-.26 1.63-.54.79-1.58 1.45-2.69 1.15-.4-.11-1.25-.5-2.1-1.9.46-.57 1.04-1.05 1.69-1.39ZM65.46 24.35l3.15-2.59c.72 1.1 1.84 3.12 1.84 4.95 0 2.2-1.47 4.06-1.95 4.62-.85-1.03-1.83-1.94-2.93-2.71.16-.6.26-1.24.26-1.91 0-.79-.15-1.59-.39-2.35 0 0 .01 0 .02-.01ZM15.89 65.52c0 0-.02-.06-.04-.08l-1.11-1.63v-5.49l2.81-1.09v5.4c0 .15.03.29.09.42l1.15 2.47h-2.9ZM57.27 65.52h-2.81v-.37c0-.15-.03-.29-.1-.43l-1.18-2.49.54-9.6c.87.41 1.77.76 2.68 1.07l-.42 8.68c0 .16.02.33.09.48l1.19 2.52v.14ZM75.86 48.52c-4.13 3.96-8.73 4.42-11.86 4.42-2.05 0-4.1-.3-6.07-.86-.13-.07-.27-.12-.43-.13 0 0 0 0 0 0-1.15-.35-2.26-.8-3.33-1.33-.12-.06-.26-.1-.4-.1l-.91-.04c-.54-.04-1.01.4-1.04.94l-.62 10.96c0 .17.02.33.09.48l1.19 2.52v.14h-2.43l-1.42-2.87-1.22-12.81c-.02-.22-.12-.43-.27-.59l-3.28-3.48c-.38-.4-1.01-.42-1.41-.04-.4.38-.42 1.01-.04 1.41l3.04 3.23.5 5.21-5.57.48c-5.88.51-11.77.06-17.51-1.34l-.16-.04c0 0 .05-.03.07-.05 2.18-1.64 3.49-4.25 3.49-6.97 0-.55-.45-1-1-1-.55 0-1 .45-1 1 0 2.09-.99 4.08-2.65 5.34l-2.43 1.46-5.78 2.24c-.38.15-.64.52-.64.93v6.48c0 .2.06.4.17.56l.57.84h-2.09v-.23c0-.1-.01-.2-.04-.29l-1.97-6.46 1.29-3.97c.08-.26.06-.53-.06-.77l-3.9-7.47c-.7-1.34-1.07-2.85-1.07-4.36 0-1.25.24-2.45.7-3.57 1.5-3.6 3.71-6.42 6.78-8.62 7.14-5.13 22.91-5.19 23.07-5.19 5.68 0 12.23.94 19.98 2.87 0 0 0 0 0 0l.43 4.26c.06.55.54.94 1.1.89.55-.06.95-.55.89-1.1l-.43-4.26c-.09-.9.22-1.77.86-2.41l3.01-2.99c.72 1.12 1.78 3.07 1.78 4.86 0 2.62-2.1 4.79-2.12 4.8-.19.19-.29.44-.29.7v1.7c0 .55.45 1 1 1 .55 0 1-.45 1-1v-1.32c.33-.39.89-1.11 1.39-2.06.97.73 1.83 1.58 2.56 2.56.27.37.52.74.74 1.13.03.07.06.14.11.2.63 1.13 1.08 2.33 1.34 3.61l.06.29c.72 3.61 2.96 6.72 6.15 8.56.02.01.1.07.1.14v1.47ZM64.51 39.9c-.7566 0-1.37.6134-1.37 1.37 0 .7566.6134 1.37 1.37 1.37.7566 0 1.37-.6134 1.37-1.37 0-.7566-.6134-1.37-1.37-1.37Z"/>
</svg>