<svg xmlns="http://www.w3.org/2000/svg" viewBox="0 0 80 80">
<path d="M77.37 31.1c-.81-8.35-8.22-14.9-16.86-14.9h-.96c-1.73-1.94-4.17-3.06-6.78-3.06h-3.32c-2.7 0-5.12 1.19-6.79 3.06h-14.42c-6.1 0-11.74 2.29-16.01 6.05-1.8-.83-2.84-3.39-3.22-4.8l.35-.43c1.35-1.66 1.9-3.82 1.5-5.92l-.23-1.21c-.14-.72-.66-1.32-1.36-1.55-.7-.23-1.47-.07-2.02.42l-2.17 1.97c-1.7 1.54-2.61 3.7-2.52 5.91.25 5.65 3.79 9.21 5.4 10.54-2.01 3.1-3.31 6.69-3.62 10.56-.59 7.33 2.34 14.58 7.86 19.47v10.53c0 1.91 1.55 3.46 3.46 3.46h13.98c1.83 0 3.32-1.49 3.32-3.32v-4.76h9.11c.79 0 1.58-.04 2.36-.12v4.74c0 1.91 1.55 3.46 3.46 3.46h6.85c1.91 0 3.46-1.55 3.46-3.46v-3.16l4.64-1.65c.96-.34 1.72-1.04 2.13-1.97.42-.93.43-1.96.05-2.9l-2.71-6.64c.45-.77.87-1.56 1.23-2.38 2.2-.36 4.3-1.17 6.19-2.37v18.12c0 .36.19.69.5.87.31.18.69.18 1 0l.5-.29c1.11-.64 2.5-.66 3.63-.03l.59.33c.31.17.69.17.99-.01.31-.18.49-.51.49-.86v-31.4c0-.07 0-.14-.02-.21.02-.78 0-1.44-.06-2.08ZM4.56 16.56c-.07-1.61.61-3.2 1.86-4.34l2.23-1.95.23 1.21c.29 1.52-.1 3.08-1.08 4.28l-.66.81c-.19.23-.27.54-.21.83.04.21.95 4.48 3.77 6.31-.56.58-1.09 1.19-1.59 1.83-1.4-1.21-4.35-4.3-4.56-8.98ZM30.96 67.89c0 .73-.59 1.32-1.32 1.32h-3.99c.21-.45.34-.94.34-1.46v-4.69c.59.05 1.17.07 1.74.07h3.24v4.76ZM63.19 58.81c.18.43.17.91-.02 1.33-.19.43-.54.75-.98.9l-3.97 1.41v-5.82c1.02-.97 1.95-2.06 2.78-3.2l2.19 5.37ZM75.45 63.19c-1.2-.41-2.5-.41-3.7 0v-18.47c0-.39-.22-.74-.57-.9-.35-.16-.76-.11-1.06.13-2.13 1.75-4.68 2.86-7.38 3.2-.36.05-.66.28-.8.61-1.2 2.92-3.06 5.59-5.39 7.73-.21.19-.32.46-.32.74v11.53c0 .81-.66 1.46-1.46 1.46h-6.85c-.81 0-1.46-.66-1.46-1.46v-5.87c0-.29-.13-.57-.35-.76-.22-.19-.51-.28-.8-.23-1.06.16-2.14.24-3.21.24h-14.35c-.84 0-1.7-.05-2.62-.17-.28-.04-.57.05-.78.24-.21.19-.34.46-.34.75v5.79c0 .81-.66 1.46-1.46 1.46h-6.86c-.81 0-1.46-.66-1.46-1.46v-10.99c0-.29-.13-.57-.35-.76-5.34-4.55-8.08-11.14-7.51-18.09.9-11.05 10.52-19.7 21.91-19.7h13.07c-.61 1.22-.96 2.59-.96 4.04v11.02c0 4.79 3.89 10.16 9.1 10.16h3.32c.55 0 1-.45 1-1 0-.55-.45-1-1-1h-3.32c-4 0-7.1-4.38-7.1-8.16v-11.02c0-3.92 3.19-7.1 7.1-7.1h3.32c2.16 0 4.19.98 5.55 2.68.01.01.03.02.04.03.05.06.12.11.19.16.04.03.08.06.12.08.07.03.14.05.21.07.06.01.11.03.16.03.02 0 .04.01.06.01h1.41c7.62 0 14.16 5.75 14.87 13.09.06.61.07 1.27.04 2.06 0 .09 0 .19.03.28v29.56ZM66.04 29.8c-.95 0-1.72.77-1.72 1.72 0 .95.77 1.72 1.72 1.72.95 0 1.72-.77 1.72-1.72 0-.95-.77-1.72-1.72-1.72Z"/>
</svg>