<svg xmlns="http://www.w3.org/2000/svg" viewBox="0 0 80 80">
<path d="M35.34 69.85h8.46c13.29 0 24.16-10.87 24.16-24.16 0-2.11-.3-4.16-.82-6.12l.03.02-5.69-31.08c-.68-2.37-3.73-3.03-5.33-1.15l-12.07 14.19c-.09 0-.18-.01-.28-.01h-8.46c-.26 0-.5.03-.76.04l-11.71-13.76c-1.6-1.88-4.65-1.22-5.33 1.15l-5.69 31.08h.03c-.44 1.81-.7 3.69-.7 5.65 0 13.29 10.87 24.16 24.16 24.16ZM26.91 51.77l-8 4.18c-.09.05-.18.07-.28.07-.22 0-.42-.12-.53-.32-.15-.29-.04-.66.25-.81l8-4.18c.29-.15.65-.04.81.25.15.29.04.66-.25.81ZM60.69 55.7c-.11.2-.32.32-.53.32-.09 0-.19-.02-.28-.07l-8-4.18c-.29-.15-.41-.52-.25-.81.15-.29.52-.41.81-.25l8 4.18c.29.15.41.52.25.81ZM62.4 46.83c.33 0 .6.27.6.6 0 .33-.27.6-.6.6h-10.38c-.33 0-.6-.27-.6-.6 0-.33.27-.6.6-.6h10.38ZM60.99 40.53c.1.32-.08.65-.39.75l-8.26 2.59c-.06.02-.12.03-.18.03-.26 0-.49-.16-.57-.42-.1-.32.08-.65.39-.75l8.26-2.59c.31-.1.65.08.75.39ZM56.39 17c.28-.33.81-.18.88.24l2.68 14.61-9.81-7.48 6.24-7.37ZM44.33 40.22c.99 0 1.78.8 1.78 1.78 0 .98-.8 1.78-1.78 1.78-.98 0-1.78-.8-1.78-1.78 0-.98.8-1.78 1.78-1.78ZM34.8 40.22c.99 0 1.78.8 1.78 1.78 0 .98-.8 1.78-1.78 1.78-.98 0-1.78-.8-1.78-1.78 0-.98.8-1.78 1.78-1.78ZM32.78 47.48c.3-.13.66 0 .79.31l.26.59c.25.56.75.95 1.36 1.04.6.09 1.21-.14 1.6-.61l2.25-2.68c.11-.14.35-.25.53-.25.21 0 .4.09.53.25l2.25 2.68c.4.47 1 .7 1.6.61.61-.09 1.12-.47 1.36-1.04l.26-.59c.13-.3.49-.44.79-.31.3.13.44.49.31.79l-.26.59c-.41.94-1.27 1.6-2.29 1.74-1.02.15-2.03-.24-2.69-1.03l-1.86-2.22-1.86 2.22c-.57.68-1.39 1.06-2.26 1.06-.14 0-.29 0-.43-.03-1.02-.15-1.88-.8-2.29-1.74l-.26-.59c-.13-.3 0-.66.31-.79ZM21.32 16.25c.07-.42.61-.57.88-.24l6.24 7.37-9.81 7.48 2.68-14.61ZM17.81 40.53c.1-.32.44-.49.75-.39l8.26 2.59c.32.1.49.44.39.75-.08.26-.32.42-.57.42-.06 0-.12 0-.18-.03l-8.26-2.59c-.32-.1-.49-.44-.39-.75ZM16.39 46.83h10.38c.33 0 .6.27.6.6 0 .33-.27.6-.6.6h-10.38c-.33 0-.6-.27-.6-.6 0-.33.27-.6.6-.6Z"/>
</svg>