<svg xmlns="http://www.w3.org/2000/svg" viewBox="0 0 80 80">
<path d="M4.1 51.53c.06.01.12.02.18.02.21 0 .41-.06.58-.18.14-.1 3.5-2.52 3.18-6.35-.07-.85 0-1.97.15-3.16.32 1.6.74 3.33 1.12 4.82.34 1.33.28 2.73-.16 4.03-1.08 3.18-1.63 5.33-1.63 6.38v8.3c0 .16.04.31.11.45l1.08 2.16v.36c0 .55.45 1 1 1h9.5c.55 0 1-.45 1-1v-1.78c0-.16-.04-.31-.11-.45l-1.08-2.16v-11.4c.29-.39.56-.79.82-1.2l1.7 1.14c3.71 2.49 8.04 3.8 12.5 3.8 4.46 0 8.74-1.3 12.44-3.76.11.38.2.76.33 1.13l.99 2.98v11.71c0 .55.45 1 1 1h9.5c.55 0 1-.45 1-1v-19.42l1.57-3.39 4.9-4.54 2.4 2.17c.9.81 2.06 1.26 3.27 1.26.2 0 .4-.06.57-.18l2.17-1.51c1.07-.75 1.73-1.92 1.79-3.21.15-2.8.06-7.28-1.49-10.98 1.05-.36 1.92-1.12 2.6-2.29.57-.98.8-2.13.64-3.25l-1.28-9.29c-.07-.48-.46-.84-.94-.86-.5-.03-.91.3-1.02.77l-1.97 8.29c-.3 1.17-1.25 2.31-1.91 2.31h-.43l-3.09-.73c-2.05-.91-3.88-1.78-5.49-2.56-2.08-1-3.87-1.86-5.39-2.42-.03-.01-.07-.02-.1-.03l-.5-.13-.58-2.45c-.11-.47-.53-.8-1.02-.77-.48.02-.88.39-.94.86l-.23 1.69c-5.61-1.22-11.32-1-16.58.69 0 0-.1.03-.1.03-2.2.71-4.12 1.75-6.15 2.84-4.3 2.32-8.74 4.69-16.59 4.57-2.55-.25-5.39.72-7.41 2.55-1.45 1.32-3.19 3.68-3.19 7.45v8.18c-.51.9-1.67 3.64.68 7.11.15.22.38.38.65.42ZM18.2 67.36h-2.75v-.78c0-.16-.04-.31-.11-.45l-1.08-2.16v-6.93c.99-.64 1.9-1.38 2.75-2.2v9.36c0 .16.04.31.11.45l1.08 2.16v.54ZM57.29 67.36h-2.75v-8.17l2.75-5.93v14.11ZM74.44 22.39l.74-3.12.55 4c.09.68-.04 1.38-.39 1.98-.5.86-1.08 1.32-1.81 1.47-.29-.46-.61-.9-.96-1.31.94-.79 1.6-2.03 1.86-3.02ZM53.73 25.55l.55-4.01.75 3.15c.52 1.95 1.77 3.11 3.34 3.11h4.41c.29 0 .52.23.52.52v.1c0 .35-.29.64-.64.64h-5.88c-1.1 0-2.12-.59-2.68-1.54-.35-.59-.48-1.3-.39-1.98ZM4.58 44.88c.13-.17.2-.38.2-.6v-8.46c0-3.04 1.38-4.92 2.53-5.97 1.62-1.46 3.87-2.24 5.95-2.04 8.43.12 13.34-2.48 17.66-4.8 1.95-1.05 3.8-2.05 5.82-2.7l-.31-.95.4.92c4.98-1.6 10.39-1.79 15.7-.61l-.77 5.61c-.15 1.12.07 2.28.64 3.25.91 1.56 2.6 2.54 4.4 2.54h5.88c1.45 0 2.64-1.18 2.64-2.64v-.1c0-1.39-1.13-2.52-2.52-2.52h-4.41c-.88 0-1.28-1.14-1.4-1.61l-.85-3.57c1.31.53 2.84 1.26 4.59 2.1 1.65.79 3.52 1.69 5.63 2.62.06.02.11.04.17.06l4.22 1c0 0 .04 0 .06 0 3.3 3.4 3.32 10.22 3.18 13.01-.04.68-.38 1.29-.94 1.68l-1.89 1.32c-.6-.06-1.18-.31-1.63-.73l-8.09-7.31c-.41-.37-1.04-.34-1.41.07-.37.41-.34 1.04.07 1.41l4.2 3.8-4.92 4.55c-.1.09-.17.19-.23.31l-1.7 3.66c-.03.05-.06.11-.08.17l-4.72 10.18c-.06.13-.09.28-.09.42v8.4h-2.75v-10.87c0-.11-.02-.21-.05-.32l-1.04-3.13c-.85-2.55-1.28-5.2-1.28-7.88v-2.27c0-.55-.45-1-1-1-.55 0-1 .45-1 1v2.27c0 1.79.2 3.57.55 5.32l-.59.39c-3.37 2.25-7.3 3.43-11.35 3.43-4.05 0-8.01-1.2-11.39-3.46l-1.69-1.13c.52-.56 1.18-1 1.92-1.24l4.81-1.53c.53-.17.82-.73.65-1.26-.17-.53-.73-.82-1.26-.65l-4.81 1.53c-1.58.5-2.9 1.57-3.71 3.02-1.38 2.46-3.38 4.54-5.77 6.01-.33.2-.53.56-.53.95v7.65c0 .16.04.31.11.45l1.08 2.16v.54h-2.83c0 0-.01-.03-.02-.04l-1.08-2.16v-8.06c0-.38.15-1.7 1.52-5.74.57-1.67.64-3.46.2-5.17-1.05-4.11-1.62-7.1-1.62-8.41v-5.02c0-.55-.45-1-1-1-.55 0-1 .45-1 1v1.7c0 0-.06.09-.07.14-.07.29-1.8 7.17-1.51 10.59.14 1.66-.78 3-1.51 3.79-1.11-2.41 0-4.02.05-4.09ZM69.35 34.53c.81 0 1.47-.66 1.47-1.47 0-.81-.66-1.47-1.47-1.47-.81 0-1.47.66-1.47 1.47 0 .81.66 1.47 1.47 1.47Z"/>
</svg>