<svg xmlns="http://www.w3.org/2000/svg" viewBox="0 0 80 80">
<path d="M27.11 66.75c2.01.45 3.91.05 5.83-.58 1.76-.57 3.59-1.24 5.4-1.3 3.31-.11 6.63.14 9.75 1.6.96.45 2.24.53 3.32.37 2.36-.34 4.31-1.58 5.82-3.43 1.97-2.41 1.97-5.56-.03-7.95-.69-.82-1.49-1.55-2.3-2.27-3.25-2.92-6.55-5.73-8.81-9.63-1.3-2.25-3.68-3.33-6.24-3.48-2.95.11-5.2 1.33-7 3.49-3.03 3.63-6.02 7.29-9.96 10.02-1.06.73-1.7 1.82-2.06 3.07-1.18 4.06 1.98 9.13 6.26 10.08ZM26 33.42c3.86 2.91 9.19 1.44 11.16-3.1 1.02-2.35 1.29-4.83 1.28-7.36-.08-1.19-.12-2.39-.26-3.58-.27-2.38-.93-4.64-2.41-6.57-1.17-1.53-2.75-2.01-4.5-1.2-1.06.5-2.1 1.18-2.94 1.99-2.24 2.2-3.73 4.9-4.7 7.88-.68 2.09-.87 4.22-.48 6.39.38 2.13 1.01 4.15 2.85 5.53ZM49.66 34.85c3.43-.19 5.86-2.21 6.74-5.6.91-3.52.36-6.87-1.12-10.13-1.28-2.82-3-5.26-5.61-6.99-2.12-1.4-4.16-1.04-5.66 1-.33.44-.61.93-.85 1.42-1.35 2.8-1.74 5.78-1.68 9.25-.12 1.89.16 4.14 1 6.29 1.25 3.22 3.88 4.94 7.18 4.76ZM65.64 48.47c3.27-4.97 1.98-12.59-.92-16.37-1.79-2.32-4.03-2.43-6.15-.39-.27.26-.53.54-.77.84-2.77 3.5-4.27 7.46-4.35 11.94-.04 2.25.43 4.3 2.3 5.78 3.23 2.55 7.57 1.72 9.88-1.8ZM19.8 30.34c-1.21-.95-2.58-1.14-3.91-.3-.67.42-1.3 1.01-1.78 1.65-1.88 2.54-2.48 5.48-2.54 8.03-.01 3.27.62 5.79 1.79 7.66 1.69 2.7 4.08 3.75 7.16 3.15 2.71-.52 4.35-2.35 4.93-5.43.57-3-.23-5.79-1.28-8.53-.93-2.42-2.29-4.6-4.37-6.22Z"/>
</svg>