<svg xmlns="http://www.w3.org/2000/svg" viewBox="0 0 80 80">
<path d="M78.07 36.94c-2.71-16.12-10.92-17.39-19.61-18.72l-.84-.13c-1.02-.16-2.01.31-2.53 1.2-.47.8-.88 1.63-1.26 2.47-.16-.12-.35-.2-.57-.2h-2.25c-.28 0-.56-.05-.82-.16-3.76-1.5-7.72-2.27-11.78-2.27-2.59 0-5.19.32-7.7.95-4.13 1.03-7.95 2.85-11.36 5.4-9.73 7.3-17.18 13.87-17.26 26.4-.06 8.85 6.27 16.41 14.73 17.6.81.11 1.57.17 2.3.17 4.2 0 7.14-1.72 8.95-3.29 2.95-2.57 4.79-6.44 4.79-10.11 0-2.47-.78-4.67-2.01-6.48.08-.14.13-.3.13-.47v-2.8c0-.14-.02-.28-.03-.43l4.04-1.52c.3 2.46 1.02 4.87 2.13 7.08l1.35 2.69v2.19c0 .55.45 1 1 1h8.49c.55 0 1-.45 1-1 0-2.28-1.65-4.2-3.88-4.56l-1.28-4.1c-.5-1.59-.79-3.23-.88-4.89h2.83v.41c0 2.16.74 4.29 2.08 5.99l3.99 5.07v2.08c0 .55.45 1 1 1h7.99c.55 0 1-.45 1-1 0-2.14-1.44-3.99-3.52-4.51l-3.18-4.87c-.67-1.03-1.07-2.19-1.2-3.41 1.78.29 3.58.45 5.38.45h1.52c3.65 0 7.26-.59 10.73-1.74 1.55-.52 3.02-1.24 4.38-2.14l1.7-1.13c.28-.19.45-.5.45-.83v-1.21c0 0-.01-.05-.02-.08 0-.03 0-.06 0-.08ZM56.84 53.42c.14.21.35.36.59.42l.37.09c.84.21 1.51.81 1.82 1.58h-5.79v-1.42c0-.22-.08-.44-.21-.62l-4.2-5.34c-1.06-1.35-1.65-3.04-1.65-4.76v-.41h2.52l.8.2c.27.07.55.12.82.18.07 1.74.59 3.43 1.55 4.89l3.39 5.19ZM67.36 38.11h8.24l-.77.52c-1.21.81-2.53 1.45-3.91 1.91-3.26 1.09-6.66 1.64-10.1 1.64h-1.52c-2.61 0-5.21-.32-7.74-.95l-.92-.23c-.08-.02-.16-.03-.24-.03h-8.49c-.55 0-1 .45-1 1 0 2.21.33 4.39.99 6.49l1.48 4.72c.12.38.45.65.85.7l.4.04c.99.1 1.79.74 2.15 1.6h-6.29v-1.42c0-.16-.04-.31-.11-.45l-1.45-2.9c-1.36-2.72-2.08-5.77-2.08-8.82v-1.65c0-1.86 1.51-3.37 3.37-3.37h7.75c.55 0 1-.45 1-1 0-.55-.45-1-1-1h-7.75c-2.96 0-5.37 2.41-5.37 5.37v1.65c0 .18.01.37.02.55l-4.21 1.58c-.59-2.12-1.92-3.99-3.83-5.22-.46-.3-1.08-.17-1.38.29-.3.46-.17 1.08.29 1.38 2.04 1.32 3.26 3.56 3.26 5.99v1.12c-2.1-1.91-4.78-3.02-7.33-3.02-2.15 0-3.8.59-5.09 1.45 1.49-2.61 3.23-3.3 3.35-3.35.52-.18.79-.75.61-1.27-.18-.52-.75-.8-1.27-.62-.22.08-5.51 2.01-6.61 11.49-.13.62-.18 1.14-.18 1.49 0 4.67 2.36 7.36 6.47 7.36 3.26 0 6.9-2.82 6.9-6.87 0-.55-.45-1-1-1-.55 0-1 .45-1 1 0 3.02-2.85 4.87-4.9 4.87-2.97 0-4.47-1.8-4.47-5.36 0-.07.31-7.19 7.19-7.19 3.76 0 9.21 3.43 9.21 9.64 0 3.11-1.57 6.4-4.1 8.6-1.81 1.58-4.96 3.32-9.66 2.66-7.47-1.05-13.06-7.76-13-15.6.08-11.63 6.87-17.62 16.46-24.81 3.19-2.39 6.77-4.1 10.64-5.06 2.36-.59 4.79-.89 7.22-.89 3.8 0 7.51.71 11.03 2.12.5.2 1.02.3 1.56.3h2.1c-.85 2.46-1.29 5.05-1.29 7.67v5.88c0 .55.45 1 1 1 .55 0 1-.45 1-1v-5.88c0-3.84 1.03-7.62 2.98-10.93.1-.17.29-.26.5-.24l.84.13c8.07 1.24 15.08 2.32 17.73 15.91h-8.52c-.55 0-1 .45-1 1 0 .55.45 1 1 1ZM67.2 29.27c-.9831 0-1.78.7969-1.78 1.78 0 .9831.7969 1.78 1.78 1.78.9831 0 1.78-.7969 1.78-1.78 0-.9831-.7969-1.78-1.78-1.78Z"/>
</svg>