<svg xmlns="http://www.w3.org/2000/svg" viewBox="0 0 80 80">
<path d="M6.52 38c1.81-.66 2.68.03 5.77-1.16 6.16 7.07 7.15 10.38 16.32 12.25.52.35.71 1.12.99 1.87-.62 1.82-1.14 3.35-1.76 5.17-3.1 1.98-2.51 1.94-3.91 5.38-2.03 2.96-4.84 5.52-8.1 8.25-1.18.62-2.7 1.53-2.85 3.14 1.11-.01 2.09-.19 3.07-.45.38-.58 1.05-1.54 1.43-2.11 1.38-.01 1.05.14 1.83-1.02.87-.82 1.74-1.65 2.61-2.47-1.03 2.31-.75 2.31-2.77 3.82-1.23.84-2.28 1.15-2.75 2.31.37.51.38.52.75 1.03 3.06-.09 2.36-1.63 3.7-2.39 1.96-.63 1.55-.33 2.52-2.15.82-1.97 1.64-3.95 2.46-5.92 2.99-2.12 5.97-4.26 8.95-6.4 6.44-2.42 5.58-3.36 10.61-7.06 6.16-1.92 8.19-3.63 13.39-6.98 3.49 1.42 4.71 1.61 8.43 2.15-2.92 2.88-11.51 6.32-12.9 8.55-.81.62-2.26 1.32-1.93 3.11.87-.36 1.92-.53 2.61-1.08 0 0 .77-1.29.79-1.78.01-.49 1.22-.15 1.22-.15 3.51-1.9 6.87-3.79 10.38-5.69-.94 1.27-1.67 2.75-2.81 3.82-1.01.71-2.3 1.2-2.23 2.93-1.87.82-2.35 2.94-1.96 4.81.73-.58 2.14-.96 2.87-1.54-.03-.99.53-1.5.5-2.49 3.99-1.86 7.66-8.27 11.52-11.13 4.12-5.2-3.08-5.69-9.65-7.15 2.24-6.93 5.37-10.38-.91-14.95.28-2.49-2.54-6.26-2.19-10.07-.3-1.55-1.33-1.98-1.54-3.81-1.06.02-.42 1.79-.77 4.24.05 1.65.39 3.62 1.33 5.45.25.99 1.35 2.17.74 2.97-11.84 1.67-15.46 5.18-24.9 11.04-.74.46-1.6.7-2.47.7-2.47-.02-3.14.2-4.85 1.08-1.72.89-3.75 1.05-5.56.36-1.89-.71-2.19-1.72-4.77-4.65 2.08-.54 3.29-.82 4.93-1.91.56-.37 1.14-.71 1.73-1.04 4.37-2.44-4.94-2.41-7.68-1.12-2.32.71-2.27.84-4.59 1.08 3.05-3.68 4.61-3.24 7.71-4.19 4.92-1.34 7.68-8 6.55-13.27-.35 1.22-.59 2.98-.93 4.2-1.39 4.76-2.69 6.4-6.77 7.87-3.74 1.29-3.91.49-7.33 3.72-.35.43-.71.86-1.06 1.28 1.3-7.26 4.94-2.7 8.8-8.37 1.79-3.02 3-6.48 2.02-9.75-.93 4.16-.82 5-3.02 8.41-2.33 3.48-3.36 3.2-5.47 3.79-3.43.91-3.39 4.05-3.69 7.49-2.12 1.32-2.14.86-2.92 3.2-1.39 1.71-3.27 3.16-4.82 5.11-1.38 1.72-.01 2.9 3.32 1.66Z"/>
</svg>