<svg xmlns="http://www.w3.org/2000/svg" viewBox="0 0 80 80">
<path d="M72.57 47.46c-7.88-2.65 1.5-9.79-1.71-14.73 3.68 3.75 3.62.97.29-1.95-2.2-1.93-5.01-3.02-7.93-3.31-9.92-.99-28.34 1-32.44 7.33-3.22 4.97-7.84 6.57-7.22 4.03.06-.24-.21-.43-.43-.31-7.15 3.91-6.26 1.72-.34-1.34 10.28-2.8 6.49-9.09 11.1-10.98.25-.1.29-.43.06-.59-2.28-1.54-3.22-5.67-.63-8.02.11-.1.02-.3-.13-.26-2.84.73-5.56 7.56-4.74-2.42.1-1.18-.28-.95-.69-.1-2.53 5.19-7.72 6.56-10.33 2.3-.09-.15-.32-.06-.28.11.33 1.51 2.22 3.47 1.7 5.27-.05.18.13.33.31.25 14.84-6.43 12.2 13.54 2.12 12.52 1.86-.85 1.54-5.37 3.5-5.51.15-.01.19-.21.06-.29-1.94-1.22-4.45-3.46-3.23-5.64.11-.19-.06-.41-.27-.35-2.53.82-4.08-.17-6.44-3.86-.27-.19-.2 1.11-.3 2.18-.07.81-.69 1.46-1.49 1.58-1.89.28-4.33-.5-5.77-1.7-.16-.13-.39.02-.34.23.58 2.28 1.43 3.35-1.91 3.37-.15 0-.19.22-.04.26 3.8 1.01 9.42-1.65 12.19-.82 4.08.65 6.48 7.3 2.74 10.32-2.32-3.26-9.89-1.72-10.95-3.7-.32.66 1.5 3.32-.66 2.58-4.18-1.48-3.16-1.45-1.14 1.46.71 2.11 7.7-1.44 9.42 1.88.27.52.03 1.16-.51 1.4-6.74 3-12.22-2.99-9.67 1.58-4.16-.99-1.91.75.44 1.33-.64.58-1.45 1.09-2.31 1.36-.13.04-.14.22-.01.27 1.58.57 2.71 1.04.52 1.85.66-.25 2.01-.09 2.27.72.05.15.22.21.33.1 1.3-1.26 3.29-3.36 4.94-4.2.75-.38 1.71-.27 2.2.42 1.35 1.91-3.93 4.18-5.2 5.5-1.99 2.07 1.96 4.37 3.99 3.16.38-.23.81-.34 1.25-.42 3.07-.53 5.19-1.94 6.49.19.52-.1.4-.8.6-1.19.37.73 0 1.49 1.1 2.2-.19-.7.27-.5.4-.75.3.64.11 1.24.91 1.92-.28-1.31.13-.98.2-1.47.6 1.26 1.44 1.03 1.29 1.63.24-.45.43-.53.64-.79.25.55.15 1.15.75 1.65.5-.86.85-1.74 1.91-1.47.32-.82.2-2.11 1.34-1.54.73-2.5 4.11-3.88 4.37-.38-2.17 12.21-15.31 17.64-4.85 15.8 1.1-1.59 2.14-1.3 2.79-1.56-1.12-7.33 5.1-10.84 7.44-17.7 2.99.8 1.57 6.2 3.6 8.45 4.65 3.52-3.88 12.54 3.45 8.91 2.64-5.09-4.77-11.52-.8-17.97.7-.05 1.97.84 3.05.41-.58-1.11 1.91.31 2.56-.14-.52-.23-.27-.43-.4-.65 2.7.31 4.69-.19 7.3-1.15.31.3 1.36.42 1.3-.43 6.88 6.42 2.61 14.09-2.53 19.8 8.2 1.56 6.23-10.11 10.52-15.01 9.33 5.31.06 18.04 2.63 15.63-.43 2.43 2.66.74 3.36.4 3.43-1.83.28-6.07-.05-8.98-1.12-1.95 1.94-7.71-1.72-8.66Z"/>
</svg>