<svg xmlns="http://www.w3.org/2000/svg" viewBox="0 0 80 80">
<path d="M17.36 9.83c-2.24 1.52 5.87 3.61 7.99 5.89 1.91 4.2 10.44 12.02 8.77 16.39-1.04.06-7.97-6.39-11.26-4.34-1.57 1.67-9.98 8.24-4.68 6.83 5.86-3.71 7.4-6.35 12.43-.34.97.56 4.18 2.31 2.18 2.66-8.64-2.69-15.37 2.21-19.28 10.03-.5 1.89-7.33 11.89-.67 5.2 3.88-4 7.82-12.2 12.28-12.61.59 0 7.46-.04 3.65.86-8.39 4.66-10.57 15.25-15.38 23.02-5.5 12.67.28 8.73 3.22-.69 1.73-4.62 6.92-7.52 7.67-12.4.08-1.43.22-1.87 1.61-2.39 5.54-7.33 2.18 3.59 4.64 8.36-.11.65-1.44 11.29 1.7 7.47 1.01-5.27.08-8.49.35-14.03-.95-3.48.16-5.29 2.95-6.63 1.23 4.06 6.33 5.91 9.33-.04 2.72.89 3.33 3.71 2.31 6.51-.09 5.55-1.23 8.7-.57 14.03 2.94 3.91 2.19-6.56 2.19-7.34 2.76-4.62.13-15.73 5.18-8.04 1.34.61 1.45 1.06 1.44 2.49.44 4.92 5.42 8.14 6.84 12.88 2.48 10.49 7.08 13.28 3.17.9-4.3-8.07-5.77-18.77-13.84-23.97-3.73-1.15 3.11-.65 3.7-.62 4 .34 6.26 7.06 9.85 10.93 1.5 3.55 6.96 7.82 3.15 1.69-1.6-2.08-.92-2.58-1.89-4.46-3.38-8.06-9.78-13.39-18.58-11.27-1.97-.48 1.35-2.02 2.35-2.51 5.88-6.33 6.28-4.4 12.64.32 3.08 1.43 2.01-.95-.23-2.61-1.57-1.17-1.82-2.94-4-4.5-3.83-2.83-16.77 9.94-10.75.93 1.11-1.57 3.26-5.59 4.15-8.33.39-5.9 13.6-5.73 11.32-10.77-11.45 5.41-12.19 3.97-15.99 14.25 4.36-15.4-18.09-13.56-13.73-.48-3.62-7.57-8.98-12.94-16.22-13.23Z"/>
</svg>