<svg xmlns="http://www.w3.org/2000/svg" viewBox="0 0 80 80">
<path d="M72.17 10.57c-.58-.31-1.74-.27-3.42.13-2.07.08-4.67.36-6.49 1.69-5.73-3.28-10-3.41-12.69-.38-1.48-.5-2.96-1.59-4.4-2.65-1.67-1.22-3.25-2.38-4.71-2.55-.49-.06-.89.05-1.19.32-.61.57-.65 1.73-.6 2.69.32 2.08 1.24 3.39 2.89 4.14 1.42.64 3.69.9 5.97.7-1.07 1.97-1.35 3.08-.82 5.12.72 2.3.03 2.57-.84 2.92-.74.29-1.57.63-1.6 2.24-.04 0-.09 0-.14 0-1.08 0-2.51-.18-4.25-.53-1.33-.27-2.49-.61-3.61-.93-3.25-.94-5.82-1.68-9.7 0-1.08 0-1.96 0-2.73-.03-3.59-.07-4.34-.09-9.06 3.21-.6.15-1.12.25-1.57.34-2.04.41-2.89.58-4.26 3.35-.03.06-.08.15-.14.27-.8 1.5-1.68 3.31-1.34 3.99.08.15.21.24.38.27 1.89.29 5.28-2.74 6.26-3.94l2.46-3.41c3.46-1.89 4.21-1.96 7.79-2.33l.15-.02c-4.19 4.05-4.8 5.25-3.97 11.32.1.7-.58 2.59-1.11 4.1-.33.93-.62 1.74-.72 2.21-.04.19-.08.38-.11.58-.22 1.2-.47 2.56-1.54 3.18-1.8 1.04-1.86 1.17-2.03 2.6-.02.19-.05.41-.08.66-.16 1.16-1.39 7.93-1.56 8.24-1 2.02-2.5 8.28-2.16 10.46.33 1.69.82 2.34 2.4 3.13l.1.05.05-.11c.09-.21.17-.43.24-.65.11-.33.23-.66.39-.96.15.2.28.41.41.61.2.31.4.63.65.92l.12.15.06-.18c.31-.92.42-1.92.34-3.04.09-2.3.2-4.57.52-6.99.94-7.12 2.47-11.69 7.9-15.46 1.63-1.13 3.31-2.3 4.66-4.55-.02 1.32-.21 4.35-2.93 4.97-.75.26-.67 3.43-.05 5.38.51 1.42.81 2.88.94 4.47.11 1.39.13 3.35-.15 4.68-.32 1.54.18 2.04.63 2.48.26.26.49.48.54.89.35 2.71.66 3.29 3.42 3.8l.13.02v-.14c-.03-.36-.06-.72-.09-1.07-.02-.24-.05-.47-.06-.71.25.2.48.43.71.68.3.32.62.65 1.02.89l.14.08.03-.16c.25-1.49-.01-2.68-.9-4.11-1.23-1.99-2.12-3.43-1.96-6.05.07-1.18-.03-2.2-.14-3.18-.19-1.8-.35-3.36.61-5.38 2.81-1.49 4.68-2.49 5.93-5.54.61.46 1.28.66 1.93.85.54.16 1.06.31 1.47.61 1.73 4.4 1.5 14.26.08 19.29-.47 1.67-.5 2.58-.54 3.84-.01.36-.02.76-.05 1.21-.15 2.71.58 4.08 2.87 5.42l.12.07.54-1.93c.69 1.05 1.16 1.65 1.4 1.76l.1.05.04-.11c.36-.9.48-3.74.19-4.61-.72-2.08-.4-6.77.13-8.95 1.11-3.51 1.21-3.94.9-7.6.18-2.45.48-4.18 1.1-6.33 1.49.45 3.02.49 4.33.11 2.76 2.28 3.03 4.36 3.3 6.57.22 1.76.45 3.58 1.95 5.55.34.68.47 2.02.6 3.32.14 1.41.26 2.63.64 2.95 1.85 1.45 1.85 1.48 2.08 3.02.31 2.04 1.17 2.46 3.1 2.67h.11c0 0 .17-1.73.17-1.73.2.23.41.45.62.67.27.29.55.59.82.9l.17.19.02-.25c.33-3.58-1.26-6.08-2.94-8.73-.44-.69-.89-1.4-1.32-2.15-.03-2.85-.07-5.79-2.05-8.17-.75-2.05-.77-4.46-.8-7.01-.02-2.68-.05-5.45-.96-7.93.8-2.11 1.49-3.94 2.07-5.79.6-1.91 1.05-3.76 1.47-5.98 2.46-3.03 3.06-3.78 3.12-7.85 1.9.25 5.33-1.7 7.43-3.74.49-.48 1.62-1.68 1.51-2.51-.04-.26-.18-.46-.44-.6Z"/>
</svg>