<svg xmlns="http://www.w3.org/2000/svg" viewBox="0 0 80 80">
<path d="M69.68 22.89c-.93-2.78-3.56-4.79-6.65-4.79-.01 0-.02 0-.03 0-.33-3.21-3.04-5.71-6.33-5.71-2.12 0-4 1.05-5.16 2.65-2.46-2.8-6.06-4.58-10.08-4.58h-2.14c-4.03 0-7.64 1.79-10.1 4.6-1.15-1.61-3.04-2.66-5.17-2.66-3.29 0-6 2.5-6.33 5.71-.01 0-.02 0-.03 0-3.1 0-5.72 2.01-6.65 4.79-4.9.25-8.79 4.29-8.79 9.25 0 4.96 4.15 9.28 9.28 9.28 5.13 0 9.28-4.15 9.28-9.28 0-.24-.02-.48-.04-.72 2.33-1.14 3.94-3.53 3.94-6.3 0-.01 0-.02 0-.03.41-.04.81-.12 1.19-.24v1.17c0 1.59.29 3.11.8 4.52-1.73 1.56-2.83 3.81-2.83 6.33 0 2.8 1.36 5.28 3.45 6.83.28.15 7.82 4.12 19.44 1.48.4-.09.81.16.9.57.09.4-.16.81-.57.9-3.05.69-5.83.96-8.28.96-5.53 0-9.43-1.34-11.19-2.09l-5.6 13.17c-.48 1.33-.68 2.67-.65 3.97h-4.06c-2.91 0-5.29 2.38-5.29 5.29h0c0 2.91 2.38 5.29 5.29 5.29h10.07v-1.01c0-2.09 1.43-3.87 3.47-4.32l.49-.11-2.29-12.11c-.08-.41.19-.8.6-.88.4-.08.8.19.88.6l2.43 12.83c.08.4-.18.78-.58.87l-1.2.27c-1.35.3-2.3 1.48-2.3 2.86v1.01h1.66c.22 0 .43-.03.64-.06.35.03.69.06 1.05.06h7.41c0 0 0 0 0 0v-17.55c0-.41.34-.75.75-.75.41 0 .75.34.75.75v17.55c0 0 0 0 0 0h6.7c.2 0 .38-.03.58-.04.12.01.23.04.35.04h2.71v-1.01c0-1.38-.94-2.56-2.3-2.86l-1.2-.27c-.4-.09-.65-.47-.58-.87l2.43-12.83c.08-.41.48-.67.88-.6.41.08.67.47.6.88l-2.29 12.11.49.11c2.04.45 3.47 2.23 3.47 4.32v1.01h9.02c2.91 0 5.29-2.38 5.29-5.29h0c0-2.91-2.38-5.29-5.29-5.29h-3.3c.03-1.3-.17-2.65-.65-3.97l-6.01-14.12c2.88-1.37 4.87-4.29 4.87-7.69 0-2.51-1.1-4.77-2.83-6.33.51-1.42.8-2.93.8-4.52v-1.16c.38.11.77.19 1.17.23 0 .01 0 .02 0 .03 0 2.77 1.61 5.16 3.94 6.3-.02.24-.04.48-.04.72 0 5.12 4.15 9.28 9.28 9.28 5.13 0 9.28-4.15 9.28-9.28 0-5.13-3.9-9-8.79-9.25ZM44.6 21.68c.81 0 1.47.66 1.47 1.47 0 .81-.66 1.47-1.47 1.47-.81 0-1.47-.66-1.47-1.47 0-.81.66-1.47 1.47-1.47ZM36.11 21.68c.81 0 1.47.66 1.47 1.47 0 .81-.66 1.47-1.47 1.47-.81 0-1.47-.66-1.47-1.47 0-.81.66-1.47 1.47-1.47ZM42.71 35.82h-4.71c-2.3 0-4.18-1.88-4.18-4.18 0-2.3 1.88-4.18 4.18-4.18h4.71c2.3 0 4.18 1.88 4.18 4.18 0 2.3-1.88 4.18-4.18 4.18Z"/>
</svg>