<svg xmlns="http://www.w3.org/2000/svg" viewBox="0 0 80 80">
<path d="M17.4 65.84c2.67.18 5.39-.22 7.77-1.45 6.6-3.4 8.02-10.71 5.49-16.84-2.45-5.95-9.59-8.62-14.47-5.42-2.85 1.88-4.5 5.5-3.94 8.66.57 3.22 2.35 4.98 6.44 5.83.29.06.76.24.73.93-.13 1.06-.67 1.08-.98 1.06-1.99-.1-4.91-1.55-6.35-3-3.73-3.78-2.12-11.48 2.36-15 5.27-4.15 14.61-1.62 17.76 4.93 1.6 3.32 2 6.71 1.11 10.31-.16.63.41 1.19 1.01.99 4.56-1.51 8.01-2.68 11.98-5.59 2.03-1.49 2.64-4.04 1.82-6.58-4.04-12.51-14.66-20.82-27.27-18.9-11.55 1.76-19.85 12.26-18.33 24.7 1.19 9.73 6.86 14.82 14.87 15.35ZM75.78 15.52c-.59.18-1.15.5-1.69.8-4.22 2.38-7.37 5.91-9.95 10.06-.25.4-.76.89-1.15.88-2.14-.03-3.89.87-5.48 2.23-3.51 3.01-5.98 6.83-7.78 11.12-.29.7-.28 1.73-.02 2.45.68 1.92 1.08 3.8.47 5.82-.68 2.25-2.28 3.56-4.14 4.67-4.19 2.51-7.3 3.82-11.89 5.32-.42.14-.99.23-1.19.55-1.87 2.62-3.05 3.61-4.53 4.58-.72.47-.37 1.62.48 1.57 6.9-.38 13.75-1.03 20.31-3.28 5.06-1.74 8.27-5.51 9.01-11.32.39-3.05 1.28-6.04 2.04-9.03.83-3.27 2.27-5.86 5.88-6.77 2.48-.62 3.07-3.71 1.33-5.69-.56-.64-1.27-1.13-1.99-1.69-.25-.2-.32-.57-.15-.85 2.56-4.18 5.81-7.68 10.21-9.94.24-.12.5-.23.71-.37.43-.28.46-.41.38-.79-.21-.41-.64-.41-.88-.34ZM62.43 25.96c1.69-4.08 3.98-8.64 7.06-11.78.22-.22.54-.8.28-1.06-.51-.42-.91-.05-1.12.17-.95.97-1.86 1.99-2.68 3.08-2.18 2.89-4.26 6.91-5.42 10.35.12.12.48.03.88-.04.54-.15.82-.26 1.01-.73Z"/>
</svg>