<svg xmlns="http://www.w3.org/2000/svg" viewBox="0 0 80 80">
<path d="M72.07 29.67c-1.09-1.02-2.31-2.53-3.15-3.75-2.33-3.37-1.78-8.27 1.46-11.27.71-.66 1.4-1.3.59-2.19-.79-.87-1.64-.29-2.33.3-2.85 2.44-4.04 5.61-3.85 9.28.19 3.81 2.06 6.8 4.84 9.3 2.35 2.11 4.74 4.96 5.42 8.12.84 3.92-1.16 7.94-4.41 9.44-.81.37-1.76.06-2.22-.7-5.36-9.04-19.26-16.84-28.43-16-.45.04-.75.48-.68.93.57 3.31.32 6.47-1.29 9.39-.59 1.07-1.28 1.43-2.09.83 0 0-.01 0-.02-.01-.21-.17-.39-.47-.11-1.14 1.13-1.83 4.48-8.2-2.12-13.94-3.69-3.32-8.76-3.5-13.34-.81-4.55 2.67-5.76 8.41-3.54 13.4.42.95.21 1.43-.42 2.13-2.88 3.23-5.74 6.5-8.36 9.94-.55-.68-1.39-1.12-2.33-1.12-1.67 0-3.02 1.35-3.02 3.02 0 1.67 1.35 3.02 3.02 3.02.77 0 1.46-.29 1.99-.76 2.35 3.15 6.08 3.61 9.6 3.62 12.5.03 24.99.02 37.49.02 2.71 0 5.42.05 8.13-.01 3.01-.07 5.39-1.91 5.97-4.78.24-1.19.51-2.99 1.54-3.46.04-.02.08-.04.13-.06 7.56-3.54 9.61-13.4 4.28-19.83-.8-.96-1.72-1.91-2.77-2.9ZM16.85 52.05c-2.05-1.71-.62-4.03 1.13-4.01 1.19.01 2.19 1.03 2.17 2.21-.03 1.56-1.58 2.65-3.3 1.8Z"/>
</svg>