<svg xmlns="http://www.w3.org/2000/svg" viewBox="0 0 80 80">
<path d="M62.42 29.11c2 0 6.9-.47 11.26-4.56 2.95-2.77 3.16-5.78 3.02-7.32-.1-1.11-.85-2.07-1.91-2.46l-7.69-2.81c-.03-.06-.06-.12-.09-.19-1-2.16-3.64-7.91-11.6-7.91-3.71 0-6.82 1.31-9.01 3.78-2.58 2.91-3.67 7.24-3.07 12.18 0 .06.04.11.05.16 0 .03-.03.05-.03.08-1.87 8.09-8.02 12.37-13.97 16.5-3.24 2.25-6.58 4.57-9.14 7.47-3.91 4.42-5.37 10.67-3.92 16.71l.97 4.03c-1.12-.7-2.57-1.92-3.65-3.91-2.13-3.91-2.2-9.3-.21-16.02.29-.96.06-2-.58-2.7-.68-.75-1.75-1.05-2.93-.82-1.36.26-2.55 1.27-3.11 2.63-4.51 11.04-1.85 19.06 1.18 23.85 2.45 3.87 8.31 7.02 13.08 7.02h20.04c.16 0 .32-.02.47-.04.06.01.13.04.19.04h11.17c1.44 0 2.7-.92 3.06-2.23.39-1.42-.27-2.92-1.58-3.57l-1.92-.96c-.53-.26-.86-.79-.88-1.38l-.08-2.93c.44-4.65 3.14-7.06 6-9.62 4.87-4.35 9.9-8.85 3.95-23.76-.04-.09-.1-.16-.15-.24.17-.32.3-.66.41-1.02.16 0 .38.02.65.02ZM72.15 15.92l1.96.71c.34.12.57.42.6.76.06.66.01 1.48-.26 2.37-1.08-.22-2.33-.67-2.69-1.56-.3-.74.06-1.69.38-2.29ZM56.23 52.62c-3.03 2.71-6.16 5.51-6.66 10.98 0 .04 0 .08 0 .12l.08 2.99c.03 1.33.79 2.52 1.98 3.12l1.92.96c.46.23.69.74.55 1.25-.12.44-.6.76-1.14.76h-8.91c.04-.1.08-.21.1-.31.33-1.47-.45-2.91-1.85-3.44l-1.51-.57c3.93-2.47 6.16-7.03 5.57-11.8-.68-5.47-5.16-9.88-10.64-10.49-3.45-.38-6.9.71-9.46 3.01-2.57 2.3-4.04 5.59-4.04 9.03 0 .55.45 1 1 1 .55 0 1-.45 1-1 0-2.88 1.23-5.62 3.37-7.54 2.17-1.94 4.98-2.84 7.91-2.51 4.57.51 8.31 4.19 8.88 8.75.58 4.66-2.06 9.08-6.44 10.75-.39.15-.64.52-.64.94 0 .42.26.79.65.93l3.66 1.37c.46.17.71.65.6 1.13-.09.43-.55.75-1.07.75h-20.04c-4.09 0-9.3-2.79-11.39-6.09-2.77-4.39-5.2-11.78-1.02-22.03.3-.74.93-1.28 1.63-1.42.48-.09.86-.02 1.06.2.17.19.23.49.14.79-2.16 7.28-2.03 13.2.4 17.6 2.47 4.47 6.41 5.63 6.57 5.68.03 0 .06 0 .09 0 .06.01.12.03.18.03.03 0 .06 0 .08 0 .03 0 .05 0 .07 0 .03 0 .05 0 .08 0 .04-.01.08-.04.12-.06.06-.02.12-.05.18-.08.06-.04.11-.08.16-.13.04-.04.08-.08.11-.13.05-.06.08-.13.11-.21.01-.03.04-.06.05-.1 0-.02 0-.03 0-.05.02-.07.02-.15.02-.23 0-.06 0-.11 0-.17 0-.02 0-.04 0-.06l-1.46-6.08c-1.3-5.41 0-10.99 3.47-14.92 2.4-2.71 5.5-4.87 8.78-7.15 5.48-3.8 11.11-7.72 13.81-14.56 1.62 4.43 4.41 9.57 10.66 9.57 2.07 0 3.74-.5 4.94-1.4 5 13.03.77 16.83-3.7 20.83ZM57.38 20.17c1.39 2.34 2.71 4.56 2.62 7.31-.09 3.07-2.78 3.71-5.02 3.71-6.18 0-8.29-6.56-9.68-10.96 0-.09-.01-.17-.04-.25.04-.13.07-.28.05-.43-.53-4.36.39-8.13 2.58-10.61 1.8-2.03 4.4-3.1 7.52-3.1 6.68 0 8.85 4.73 9.78 6.75.12.26.22.47.3.63.12.22.31.38.54.47l4.22 1.54c-.44.9-.9 2.33-.36 3.71.51 1.29 1.74 2.19 3.66 2.67-.33.49-.74.98-1.26 1.47-4.22 3.97-9.11 4.05-10.32 4.01-.04-3.12-1.48-5.57-2.89-7.95-1.41-2.38-2.74-4.62-2.66-7.45.02-.55-.42-1.01-.97-1.03-.54.03-1.01.42-1.03.97-.1 3.41 1.44 6.01 2.94 8.53ZM61.74 16.47c.81 0 1.47-.66 1.47-1.47 0-.81-.66-1.47-1.47-1.47-.81 0-1.47.66-1.47 1.47 0 .81.66 1.47 1.47 1.47Z"/>
</svg>