<svg xmlns="http://www.w3.org/2000/svg" viewBox="0 0 80 80">
<path d="M7.73 35.48c.1 1.7.12 2.33.14 3.29.03.99.04 1.98.05 2.96.15 0 1.19-1.96 1.38-2.76.22-.93-.08-3.49.12-4.24.18-.66.7-1.05 1.23-1.21.94-.28 1.89.34 1.97 1.33.08.89-.13 1.92-.37 2.76-.53 1.87-1.43 3.64-1.83 5.53-.53 2.53.14 4.83 2.32 6.47 1.89 1.43 3.95 1.43 6.08.59 1.83-.73 3.29-1.88 4.27-3.61.36-.63.75-1.25 1.04-1.73 0 2.08.17 4.23-.05 6.34-.18 1.72.11 5.14-.92 6.55-1.58 2.15-3.06.38-3.7-.98-.48-1.03-.86-2.14-1.52-3.05-1.54-2.14-4.68-2.43-6.7-.75-2.19 1.83-2.77 4.22-1.59 7.07.73 1.77 1.62 3.47 2.48 5.28 1.03-1.48.74-2.97-.04-4.39-.77-1.38-.82-2.69-.09-4.07.94-1.76 2.21-1.9 3.38-.26.66.92 1.14 1.97 1.71 2.96 2.66 4.61 6.7 4.97 10.09.86 2.25-2.74 3.23-6 3.56-9.48.05-.52.72-4.6.75-4.75.59 1.64-.18 3.9 1.52 7.38 1.54 3.94 5.99 5.82 1.71 7.52-.74.18-1.49.32-2.24.43-2.95.44-3.85 1.48-3.73 4.46.03.71.2 2.45.44 3.11.69 1.97 2.94 6.65 6.22 5.41 1.58-.6 2.38-2.4 1.9-3.85-.43-1.32-1.09-2.25-2.93-3.01 1.96 2.56 1.02 5.41-.24 4.2-.8-.93-1.74-2.46-2.04-3.57-.92-3.45.13-3.85 3.64-3.32 2.4.36 4.54-.85 4.95-3.23.3-1.73.15-3.59-.08-5.35-.22-1.73-.86-3.41-1.18-5.14-.22-1.17-.1-2.34 1.09-3.28 1.81 2.96 4.77 6.54 5.28 10.56 2.06-4.06 1.32-7.07-.21-9.4 1.94 1.35 3.04 4.01 2.33 6.15-.69 2.05-1.68 4.02-2.68 5.95-1.36 2.64-1.25 5.12.46 6.72 2.15 2 5.29 2.51 7.95 1.27 1.46-.69 2.88-1.49 4.37-2.09.66-.26 1.49-.28 2.2-.17.98.16 1.58 1.35 1.16 2.19-.45.92-1.05.95-1.95.38-1.17-.74-2.46.08-2.63 1.17.96.39 1.81.78 2.69 1.07.43.14.94.17 1.39.09 2.21-.42 3.37-1.97 3.28-4.3-.09-2.55-1.24-3.93-3.55-4.24-1.91-.26-3.72.11-5.33 1.16-1.85 1.21-7.71 1.13-2.96-5.29 1.65-2.62 1.72-5.29.08-7.94-.77-1.25-1.42-2.33-2.23-3.56-.2-.3-.52-1.23-.41-1.3 1.02 1.11 2.02 2.24 3.05 3.34 2.58 2.73 5.45 4.9 9.42 5.06 3.14.13 5.67-1.43 6.9-4.31 1.06-2.47 1.33-5.06.97-7.7-.34-2.51-1.76-4.28-4.06-5.3-1.75-.78-3.85-.32-4.77 1.06-.5.74-.73 1.67-1.27 2.38-.51.67-1.25 1.17-2.03 1.87 1.41.57 2.66.52 3.64-.49 5.03-5.2 6.71 2.37 4.6 4.81-.78 1.25-2.71 1.97-4.18 1.72-1.8-.31-2.89-1.53-3.9-2.89-1.66-2.26-3.2-4.64-5.06-6.72-1.73-1.92-3.74-3.63-5.79-5.21-1.19-.92-1.45-2.4.43-2.98.72-.22 1.7-1.11 1.73-1.74.09-1.74 1.17-2.12 2.46-2.62 6.02-2.3 8.46-8.1 7.53-14.03-1-6.34-8.62-9.33-14.4-5.89-4.6 2.74-6.53 7.24-7.8 12.13-.11.44-.13 1 .04 1.4.56 1.3.03 1.98-1.1 2.61-1.48.83-1.72 1.93-1.26 3.49.22.75.27 1.73-.03 2.43-.99 2.33-4.5 2.48-5.07 2.63-4.58 1.21-8.05 3.73-9.83 8.31-1.85 5.98-5.76 6.4-5.37 4.35.42-2.2.89-4.38 1.3-6.58.34-1.86.2-3.58-.74-5.18-1.23-2.1-3.27-2.6-4.75-2-2.28.93-2.76 1.85-2.74 5.14Z"/>
</svg>