<?xml version="1.0" encoding="UTF-8"?>
<svg id="_圖層_1" xmlns="http://www.w3.org/2000/svg" version="1.1" viewBox="0 0 300 300">
  <!-- Generator: Adobe Illustrator 29.6.1, SVG Export Plug-In . SVG Version: 2.1.1 Build 9)  -->
  <defs>
    <style>
      .st0 {
        fill: #fff;
      }
    </style>
  </defs>
  <path class="st0" d="M206.4,106.8c-14.3-14.3-33.3-22.1-53.5-22.1s-9.9.5-14.6,1.4v-18.9h-61v93.1c0,20.2,7.9,39.2,22.1,53.5s33.3,22.1,53.5,22.1,39.2-7.9,53.5-22.1,22.1-33.3,22.1-53.5-7.9-39.2-22.1-53.5h0ZM131.3,87.7v72.5c0,11.9,9.7,21.6,21.6,21.6s21.6-9.7,21.6-21.6-9.7-21.6-21.6-21.6-10.8,2.2-14.6,5.7v-13c4.4-2.2,9.4-3.5,14.6-3.5,17.9,0,32.4,14.5,32.4,32.4s-14.6,32.4-32.4,32.4-32.4-14.6-32.4-32.4v-86.1h10.8v13.6h0ZM138.3,160.2c0-8.1,6.5-14.6,14.6-14.6s14.6,6.5,14.6,14.6-6.5,14.6-14.6,14.6-14.6-6.5-14.6-14.6ZM113.5,95.7v64.6c0,21.7,17.7,39.4,39.4,39.4s39.4-17.7,39.4-39.4-17.7-39.4-39.4-39.4-10.1,1-14.6,2.8v-11.8c4.6-1.4,9.5-2.2,14.6-2.2,27.9,0,50.5,22.7,50.5,50.5s-22.6,50.5-50.5,50.5-50.5-22.6-50.5-50.5v-86.1h11.1s0,21.5,0,21.5ZM201.4,208.7c-13,13-30.2,20.1-48.5,20.1s-35.6-7.1-48.5-20.1c-13-13-20.1-30.2-20.1-48.5v-86.1h11.1v86.1c0,31.7,25.8,57.5,57.5,57.5s57.5-25.8,57.5-57.5-25.8-57.5-57.5-57.5-9.9.7-14.6,1.9v-11.4c4.7-1,9.6-1.6,14.6-1.6,18.3,0,35.6,7.2,48.5,20.1,13,13,20.1,30.2,20.1,48.5s-7.1,35.6-20.1,48.5h0Z"/>
</svg>