<svg xmlns="http://www.w3.org/2000/svg" xmlns:xlink="http://www.w3.org/1999/xlink" width="32" height="32" viewBox="0 0 32 32">
  <g id="icon-cursor_1" data-name="icon-cursor – 1">
    <g id="Group_67" data-name="Group 67" transform="translate(1.975 1.68)">
      <g id="Group_66" data-name="Group 66" transform="translate(13.012 10.958)">
        <path id="Path_154" data-name="Path 154" d="M15.781,20.708a.952.952,0,1,1,0-1.9.952.952,0,0,1,0,1.9Zm.783-6.154c-.04.738-.083,1.472-.124,2.209-.02.239-.02.457-.02.693a.7.7,0,0,1-.684.692.683.683,0,0,1-.684-.671c-.06-1.148-.124-2.276-.185-3.425-.02-.3-.04-.608-.064-.91a1.031,1.031,0,0,1,.7-1.04.9.9,0,0,1,1.056.541,1.183,1.183,0,0,1,.084.478C16.628,13.6,16.585,14.079,16.564,14.554Z" transform="translate(-14.804 -12.074)" fill="#494a4a"/>
      </g>
      <path id="Path_155" data-name="Path 155" d="M19.951,22.32H8.009a2.986,2.986,0,0,1-2.583-4.48L11.41,7.483a2.935,2.935,0,0,1,2.578-1.5h0a2.942,2.942,0,0,1,2.584,1.5l5.978,10.354a3,3,0,0,1-2.6,4.482ZM13.991,6.844h0A2.087,2.087,0,0,0,12.156,7.91L6.172,18.269a2.125,2.125,0,0,0,.006,2.139A2.094,2.094,0,0,0,8.009,21.46H19.951a2.139,2.139,0,0,0,1.858-3.191L15.83,7.913A2.094,2.094,0,0,0,13.991,6.844Z" transform="translate(0 0)" fill="#494a4a"/>
    </g>
  </g>
</svg>
