<svg width="32" height="32" viewBox="4 4 24 24" fill="none" xmlns="http://www.w3.org/2000/svg">
  <g clip-path="url(#clip0_9381_2084)">
    <path
      d="M14.9819 19.298H16.3619C16.6079 20.164 17.3989 20.79 18.3389 20.79C19.2789 20.79 20.0699 20.163 20.3159 19.298H25.3359C25.6419 19.298 25.8959 19.052 25.8959 18.738C25.8959 18.424 25.6419 18.178 25.3359 18.178H20.3089C20.0699 17.32 19.2789 16.686 18.3389 16.686C17.3989 16.686 16.6079 17.32 16.3689 18.178H14.9809C14.6749 18.178 14.4209 18.432 14.4209 18.738C14.4209 19.044 14.6749 19.298 14.9809 19.298H14.9819ZM17.4069 18.738C17.4069 18.529 17.4739 18.335 17.5939 18.178C17.7659 17.954 18.0339 17.805 18.3399 17.805C18.6459 17.805 18.9149 17.954 19.0859 18.178C19.2049 18.335 19.2729 18.529 19.2729 18.738C19.2729 18.947 19.2059 19.141 19.0859 19.298C18.9139 19.522 18.6459 19.671 18.3399 19.671C18.0339 19.671 17.7649 19.522 17.5939 19.298C17.4749 19.141 17.4069 18.947 17.4069 18.738Z"
      fill="currentColor" />
    <path
      d="M25.3369 23.253H23.9569C23.7109 22.387 22.9199 21.761 21.9799 21.761C21.0399 21.761 20.2489 22.388 20.0029 23.253H14.9829C14.6769 23.253 14.4229 23.507 14.4229 23.813C14.4229 24.119 14.6769 24.373 14.9829 24.373H20.0029C20.2489 25.239 21.0399 25.865 21.9799 25.865C22.9199 25.865 23.7109 25.238 23.9569 24.373H25.3369C25.6429 24.373 25.8969 24.119 25.8969 23.813C25.8969 23.507 25.6429 23.253 25.3369 23.253ZM22.9109 23.812C22.9109 24.021 22.8439 24.215 22.7239 24.372C22.5519 24.596 22.2839 24.745 21.9779 24.745C21.6719 24.745 21.4029 24.596 21.2319 24.372C21.1129 24.215 21.0449 24.021 21.0449 23.812C21.0449 23.603 21.1119 23.409 21.2319 23.252C21.4039 23.028 21.6719 22.879 21.9779 22.879C22.2839 22.879 22.5529 23.028 22.7239 23.252C22.8429 23.409 22.9109 23.603 22.9109 23.812Z"
      fill="currentColor" />
    <path
      d="M12.195 25.419C12.097 25.419 11.998 25.4 11.903 25.359C8.16598 23.778 5.75098 20.134 5.75098 16.078C5.75098 10.524 10.27 6.00598 15.824 6.00598C21.378 6.00598 25.896 10.525 25.896 16.078C25.896 16.492 25.56 16.828 25.146 16.828C24.732 16.828 24.396 16.492 24.396 16.078C24.396 11.351 20.55 7.50598 15.824 7.50598C11.098 7.50598 7.25098 11.352 7.25098 16.078C7.25098 19.531 9.30698 22.632 12.487 23.978C12.869 24.139 13.048 24.58 12.885 24.96C12.764 25.246 12.487 25.418 12.195 25.418V25.419Z"
      fill="currentColor" />
    <path
      d="M13.046 25.937H6.50098C6.08698 25.937 5.75098 25.601 5.75098 25.187C5.75098 24.773 6.08698 24.437 6.50098 24.437H11.546V19.789C11.546 19.375 11.882 19.039 12.296 19.039C12.71 19.039 13.046 19.375 13.046 19.789V25.937Z"
      fill="currentColor" />
  </g>
  <defs>
    <clipPath id="clip0_9381_2084">
      <rect width="32" height="32" fill="white" />
    </clipPath>
  </defs>
</svg>
