<svg width="32" height="32" viewBox="4 4 24 24" fill="none" xmlns="http://www.w3.org/2000/svg">
  <g clip-path="url(#clip0_9381_2091)">
    <path
      d="M15.55 25.099H8.706C7.214 25.099 6 23.885 6 22.394V8.706C6 7.214 7.214 6 8.706 6H22.394C23.885 6 25.099 7.214 25.099 8.706V11.791C25.099 12.205 24.763 12.541 24.349 12.541C23.935 12.541 23.599 12.205 23.599 11.791V8.706C23.599 8.041 23.058 7.5 22.394 7.5H8.706C8.041 7.5 7.5 8.041 7.5 8.706V22.394C7.5 23.058 8.041 23.599 8.706 23.599H15.55C15.964 23.599 16.3 23.935 16.3 24.349C16.3 24.763 15.964 25.099 15.55 25.099Z"
      fill="currentColor" />
    <path
      d="M23.85 11.361H6.75C6.336 11.361 6 11.025 6 10.611C6 10.197 6.336 9.86102 6.75 9.86102H23.85C24.264 9.86102 24.6 10.197 24.6 10.611C24.6 11.025 24.264 11.361 23.85 11.361Z"
      fill="currentColor" />
    <path
      d="M22.9351 21.599C21.7681 21.599 20.8201 20.651 20.8201 19.484C20.8201 18.317 21.7681 17.369 22.9351 17.369C24.1021 17.369 25.0501 18.317 25.0501 19.484C25.0501 20.651 24.1021 21.599 22.9351 21.599ZM22.9351 18.568C22.4301 18.568 22.0191 18.979 22.0191 19.484C22.0191 19.989 22.4301 20.4 22.9351 20.4C23.4401 20.4 23.8511 19.989 23.8511 19.484C23.8511 18.979 23.4401 18.568 22.9351 18.568Z"
      fill="currentColor" />
    <path
      d="M22.975 25.691C22.5321 25.691 22.1151 25.518 21.8011 25.205C21.488 24.893 21.3141 24.476 21.3141 24.031C21.3141 23.964 21.3021 23.928 21.2821 23.9C21.2591 23.867 21.2291 23.845 21.1961 23.833C21.1231 23.803 21.0861 23.797 21.0491 23.805C21.0151 23.812 20.9811 23.829 20.9541 23.855C20.7761 24.033 20.5981 24.154 20.3961 24.239C19.9831 24.409 19.5231 24.407 19.1201 24.241C18.9121 24.153 18.7321 24.033 18.5801 23.881C18.4261 23.726 18.3051 23.544 18.2211 23.341C18.1371 23.14 18.0941 22.926 18.0941 22.706C18.0941 22.486 18.1371 22.272 18.2211 22.069C18.3051 21.868 18.4261 21.686 18.5801 21.531C18.6321 21.479 18.6481 21.447 18.6551 21.412C18.6621 21.374 18.657 21.338 18.642 21.305C18.624 21.264 18.6021 21.237 18.5731 21.217C18.5431 21.197 18.5081 21.187 18.4701 21.187C17.9461 21.187 17.5301 21.014 17.2151 20.702C16.9001 20.388 16.7271 19.971 16.7271 19.527C16.7271 19.083 16.9001 18.666 17.2131 18.352C17.5291 18.039 17.9451 17.866 18.3881 17.866C18.4551 17.866 18.4911 17.854 18.5191 17.834C18.5501 17.812 18.5741 17.781 18.5861 17.747C18.6161 17.675 18.621 17.637 18.614 17.6C18.608 17.568 18.5901 17.533 18.5641 17.506C18.3821 17.325 18.2611 17.144 18.1781 16.942C18.0951 16.741 18.0521 16.527 18.0521 16.307C18.0521 16.085 18.0951 15.871 18.1781 15.67C18.2611 15.47 18.3821 15.288 18.5381 15.132C18.6941 14.976 18.8761 14.855 19.0781 14.772C19.4761 14.606 19.9471 14.606 20.3491 14.772C20.5491 14.855 20.7311 14.976 20.8871 15.132C20.9381 15.183 20.972 15.2 21.01 15.207C21.041 15.212 21.0791 15.209 21.114 15.194C21.1451 15.18 21.1761 15.17 21.2101 15.161C21.2221 15.15 21.2331 15.138 21.2421 15.124C21.2621 15.094 21.2721 15.059 21.2721 15.022C21.2721 14.497 21.4451 14.079 21.7581 13.765C22.3851 13.138 23.4801 13.138 24.107 13.765C24.4201 14.078 24.5931 14.496 24.5931 14.94C24.5931 15.018 24.6041 15.053 24.6231 15.084C24.6431 15.113 24.6701 15.136 24.7021 15.149C24.7441 15.169 24.7811 15.17 24.8141 15.167C24.8541 15.159 24.8861 15.143 24.9131 15.117C25.0911 14.937 25.2721 14.815 25.4771 14.731C25.8791 14.563 26.3421 14.563 26.7481 14.731C26.9511 14.815 27.1331 14.937 27.2881 15.094C27.4411 15.247 27.5621 15.428 27.6461 15.628C27.7291 15.831 27.7721 16.045 27.7721 16.266C27.7721 16.487 27.7291 16.7 27.6461 16.901C27.5621 17.103 27.4411 17.284 27.2861 17.44C27.2341 17.492 27.217 17.526 27.2111 17.563C27.2041 17.596 27.2091 17.634 27.2241 17.667C27.2381 17.697 27.2481 17.729 27.2571 17.762C27.2691 17.776 27.2811 17.787 27.2951 17.796C27.3231 17.815 27.3581 17.825 27.3961 17.825C27.9211 17.825 28.3391 17.998 28.6531 18.311C28.9671 18.624 29.1391 19.041 29.1391 19.485C29.1391 19.929 28.9661 20.346 28.6531 20.66C28.3401 20.974 27.9221 21.146 27.4781 21.146C27.4001 21.146 27.3651 21.157 27.3341 21.176C27.3051 21.196 27.2811 21.223 27.2691 21.254C27.2671 21.257 27.2661 21.26 27.2651 21.263C27.2501 21.297 27.2451 21.333 27.2521 21.367C27.2591 21.407 27.2751 21.439 27.3011 21.466C27.4801 21.643 27.602 21.824 27.687 22.028C27.771 22.233 27.8141 22.447 27.8141 22.666C27.8141 22.885 27.771 23.098 27.687 23.301C27.601 23.507 27.4791 23.69 27.3241 23.843C27.1731 23.995 26.9921 24.115 26.7901 24.2C26.3801 24.367 25.9241 24.368 25.5181 24.2C25.3161 24.116 25.1361 23.996 24.9811 23.843C24.9261 23.789 24.8941 23.773 24.8601 23.766C24.8231 23.759 24.7861 23.762 24.7521 23.779C24.7521 23.779 24.6661 23.847 24.6651 23.848C24.6441 23.878 24.635 23.912 24.635 23.947C24.635 24.476 24.4621 24.893 24.1491 25.207C23.8391 25.516 23.4121 25.693 22.9741 25.693L22.975 25.691ZM21.0841 22.502C21.2901 22.502 21.4921 22.545 21.6821 22.628C21.9251 22.716 22.1661 22.9 22.3391 23.146C22.5111 23.384 22.6071 23.67 22.6131 23.97C22.6131 24.127 22.6511 24.217 22.7181 24.284C22.8551 24.421 23.0961 24.42 23.2291 24.284C23.2961 24.218 23.3341 24.125 23.3341 24.03C23.3341 23.654 23.4201 23.372 23.5811 23.129C23.7391 22.888 23.9661 22.698 24.2351 22.583C24.4991 22.467 24.7971 22.43 25.0921 22.484C25.3821 22.536 25.6501 22.674 25.8631 22.884C25.9291 22.951 25.9701 22.978 26.0151 22.996C26.1021 23.033 26.203 23.032 26.291 22.996C26.3341 22.978 26.3731 22.952 26.4061 22.918C26.4401 22.885 26.4681 22.845 26.4851 22.8C26.5041 22.757 26.5121 22.71 26.5121 22.663C26.5121 22.615 26.503 22.568 26.4851 22.523C26.4671 22.481 26.441 22.442 26.409 22.41C26.1621 22.158 26.0241 21.89 25.9721 21.598C25.9181 21.31 25.9531 21.012 26.0731 20.74C26.1871 20.475 26.3751 20.251 26.6171 20.091C26.8581 19.932 27.1381 19.846 27.4291 19.844C27.5751 19.844 27.6651 19.807 27.7331 19.739C27.8011 19.672 27.8381 19.581 27.8381 19.484C27.8381 19.389 27.8001 19.296 27.7331 19.23C27.6661 19.162 27.5751 19.125 27.4781 19.125C27.0981 19.123 26.8181 19.037 26.5771 18.878C26.3351 18.717 26.1471 18.492 26.0331 18.227C26.0121 18.176 25.9961 18.123 25.9871 18.07C25.9071 17.834 25.8871 17.58 25.9321 17.33C25.9871 17.033 26.1251 16.767 26.3321 16.555C26.4001 16.486 26.4281 16.446 26.4451 16.403C26.4631 16.362 26.4711 16.314 26.4711 16.266C26.4711 16.217 26.4621 16.169 26.4451 16.126C26.4271 16.085 26.4001 16.045 26.3661 16.011C26.3321 15.976 26.2941 15.95 26.2501 15.932C26.1601 15.895 26.0611 15.895 25.975 15.932C25.9291 15.951 25.8911 15.976 25.8591 16.008C25.6071 16.255 25.3391 16.393 25.0471 16.445C24.7591 16.5 24.4571 16.463 24.1861 16.342C23.9271 16.232 23.7011 16.043 23.5401 15.8C23.3811 15.559 23.2951 15.279 23.2931 14.988C23.2931 14.842 23.2561 14.752 23.1881 14.684C23.0541 14.547 22.8131 14.549 22.6791 14.684C22.6111 14.751 22.5741 14.842 22.5741 14.939C22.5721 15.32 22.486 15.601 22.326 15.841C22.167 16.081 21.9421 16.27 21.6771 16.384C21.6261 16.406 21.5731 16.421 21.5181 16.43C21.2821 16.51 21.0291 16.531 20.7791 16.485C20.4841 16.43 20.2171 16.293 20.0061 16.086C19.9361 16.016 19.8971 15.989 19.8541 15.972C19.7681 15.937 19.6611 15.937 19.5791 15.972C19.534 15.99 19.495 16.016 19.4611 16.051C19.426 16.085 19.3991 16.124 19.3821 16.167C19.3651 16.21 19.3561 16.258 19.3561 16.306C19.3561 16.355 19.3651 16.402 19.3821 16.445C19.3991 16.488 19.426 16.527 19.4611 16.561C19.7031 16.809 19.8411 17.075 19.8951 17.367C19.949 17.664 19.9131 17.963 19.7931 18.233C19.7061 18.473 19.5231 18.713 19.2801 18.888C19.0371 19.063 18.751 19.159 18.451 19.165C18.294 19.165 18.2021 19.203 18.1331 19.272C18.0671 19.338 18.0291 19.429 18.0291 19.526C18.0291 19.621 18.0671 19.714 18.1341 19.78C18.2011 19.848 18.2931 19.885 18.3891 19.885C18.7691 19.887 19.0491 19.973 19.2901 20.132C19.5331 20.293 19.722 20.52 19.8361 20.787C19.9531 21.052 19.9881 21.351 19.9341 21.643C19.8821 21.933 19.7441 22.202 19.5351 22.415C19.4681 22.482 19.441 22.521 19.423 22.565C19.404 22.61 19.3961 22.657 19.3961 22.704C19.3961 22.751 19.4051 22.798 19.423 22.841C19.442 22.887 19.4681 22.926 19.5011 22.959C19.5331 22.992 19.5761 23.021 19.6231 23.04C19.6971 23.071 19.8101 23.073 19.8951 23.038C19.936 23.02 19.977 22.993 20.01 22.959C20.258 22.717 20.5251 22.579 20.8171 22.524C20.9071 22.508 20.997 22.501 21.0861 22.501L21.0841 22.502Z"
      fill="currentColor" />
  </g>
  <defs>
    <clipPath id="clip0_9381_2091">
      <rect width="32" height="32" fill="white" />
    </clipPath>
  </defs>
</svg>
