<svg xmlns="http://www.w3.org/2000/svg" width="16" height="15.999" viewBox="0 0 16 15.999">
  <g id="Group_41" data-name="Group 41" transform="translate(-5344.953 -845.196)">
    <path id="Path_83" data-name="Path 83" d="M5359.945,861.194h-.5a2.265,2.265,0,0,1-.9-.665q-1.438-1.439-2.88-2.873c-.068-.068-.109-.108-.216-.038a6.625,6.625,0,0,1-5.37.916,6.767,6.767,0,1,1,8.4-7.016,6.581,6.581,0,0,1-1.07,4.121c-.094.143-.066.207.04.312q1.574,1.563,3.139,3.136a1.206,1.206,0,0,1,.082,1.656A1.459,1.459,0,0,1,5359.945,861.194Zm-8.228-4.924a4.3,4.3,0,0,0,4.306-4.27,4.3,4.3,0,1,0-8.6-.024A4.3,4.3,0,0,0,5351.717,856.27Z" fill="#707070"/>
  </g>
</svg>
