<svg width="1em" height="1em" viewBox="0 0 24 24" fill="none" xmlns="http://www.w3.org/2000/svg">
<path d="M10.6979 19.6486L6.05297 16.9823C5.23294 16.5126 4.72686 15.641 4.72452 14.6956L4.71046 9.34081C4.70811 8.39543 5.20951 7.52151 6.02719 7.04706L10.6592 4.35736C11.4757 3.88291 12.4844 3.88057 13.3044 4.35033L17.9493 7.0166C18.7693 7.48754 19.2754 8.35911 19.2777 9.30332L19.2906 14.6581C19.293 15.6023 18.7916 16.4774 17.9739 16.9519L13.3431 19.6416C12.5265 20.116 11.5179 20.1184 10.6979 19.6486Z" fill="#FFD24B"/>
<path d="M13.4439 11.378L12.0006 9.0116L10.5574 11.378C10.3524 11.7154 9.89198 11.7856 9.59443 11.5268L7.86182 10.0156L8.56119 13.4655C8.59633 13.6378 8.74745 13.7619 8.92434 13.7619H15.0781C15.2538 13.7619 15.4061 13.6378 15.4413 13.4655L16.1406 10.0156L14.408 11.5268C14.1105 11.7868 13.6512 11.7154 13.4451 11.378H13.4439Z" fill="#231F20"/>
<path d="M12.0076 9.63945C12.3667 9.63945 12.6578 9.34836 12.6578 8.98928C12.6578 8.6302 12.3667 8.33911 12.0076 8.33911C11.6485 8.33911 11.3574 8.6302 11.3574 8.98928C11.3574 9.34836 11.6485 9.63945 12.0076 9.63945Z" fill="#231F20"/>
<path d="M16.041 10.8355C16.4001 10.8355 16.6912 10.5444 16.6912 10.1853C16.6912 9.82625 16.4001 9.53516 16.041 9.53516C15.682 9.53516 15.3909 9.82625 15.3909 10.1853C15.3909 10.5444 15.682 10.8355 16.041 10.8355Z" fill="#231F20"/>
<path d="M7.95901 10.8355C8.31808 10.8355 8.60917 10.5444 8.60917 10.1853C8.60917 9.82625 8.31808 9.53516 7.95901 9.53516C7.59993 9.53516 7.30884 9.82625 7.30884 10.1853C7.30884 10.5444 7.59993 10.8355 7.95901 10.8355Z" fill="#231F20"/>
<path d="M14.9386 14.3253H9.06132C8.81158 14.3253 8.60913 14.5278 8.60913 14.7775V14.7787C8.60913 15.0284 8.81158 15.2309 9.06132 15.2309H14.9386C15.1883 15.2309 15.3908 15.0284 15.3908 14.7787V14.7775C15.3908 14.5278 15.1883 14.3253 14.9386 14.3253Z" fill="#231F20"/>
</svg>
