<svg height="1em" viewBox="0 0 101 28" fill="none" xmlns="http://www.w3.org/2000/svg">
<path d="M39.337 14.7328H48.8348V12.247H39.337V14.7328ZM100.65 3.11489H97.7217L93.4384 9.97934L94.9041 12.3269L100.65 3.11489ZM35.0751 24.8882H37.5609V3.11181H35.0751V24.8882ZM51.6832 24.8882H54.169V3.11181H51.6832V24.8882ZM39.337 5.59764H48.8348V3.11181H39.337V5.59764ZM84.1342 24.8882H87.0656L91.3458 18.0268L89.8802 15.6792L84.1342 24.8851V24.8882ZM55.942 24.8882H65.4397V22.4024H55.942V24.8882ZM87.0594 3.11489H84.1311L97.7217 24.8882H100.653L87.0594 3.11489ZM79.2117 17.7503C79.2117 20.319 77.1284 22.4024 74.5596 22.4024H74.4059C71.8371 22.4024 69.7538 20.319 69.7538 17.7503V3.11181H67.268V17.7503C67.268 21.6926 70.4636 24.8882 74.4059 24.8882H74.5596C78.5019 24.8882 81.6975 21.6926 81.6975 17.7503V3.11181H79.2117V17.7503ZM20.6671 19.1821L15.5787 22.1197L7.77398 17.612V20.7492L15.5787 25.2538L23.3834 20.7492V7.25077L20.6671 5.68368V19.1821ZM16.7801 16.9391L12.8624 19.2037L15.5787 20.7707L19.4964 18.5092V5.00768L11.6917 0.5L8.97542 2.07016L16.7801 6.57784V16.9391ZM6.60328 11.064L10.521 8.80249L7.80471 7.23233L3.88699 9.49693V22.9954L11.6917 27.5L14.408 25.9329L6.60328 21.4283V11.064ZM15.6094 10.388V7.25077L7.80471 2.74616L0 7.25077V20.7523L2.71629 22.3194V8.82093L7.80471 5.88341L15.6094 10.388Z" fill="currentColor"/>
</svg>
