<svg xmlns="http://www.w3.org/2000/svg" width="1em" height="1em" viewBox="0 0 79 22" fill="none">
  <path d="M13.2135 9.229H4.09277V11.7404H13.2135V9.229Z" fill="#FFC109"/>
  <path d="M62.9718 0H60.1597L56.0464 6.93806L57.4539 9.30662L62.9718 0Z" fill="#FFC109"/>
  <path d="M2.38714 0H0V22H2.38714V0Z" fill="#FFC109"/>
  <path d="M18.3359 0H15.9487V22H18.3359V0Z" fill="#FFC109"/>
  <path d="M13.2135 0H4.09277V2.51136H13.2135V0Z" fill="#FFC109"/>
  <path d="M73.2372 0H70.8501V14.6398H73.2372V0Z" fill="#FFC109"/>
  <path d="M79.0001 6.06577H65.0845V8.57712H79.0001V6.06577Z" fill="#FFC109"/>
  <path d="M47.1113 21.9969H49.9263L54.0367 15.0681L52.6292 12.6965L47.1113 21.9969Z" fill="#FFC109"/>
  <path d="M29.1593 19.4886H20.0386V22H29.1593V19.4886Z" fill="#FFC109"/>
  <path d="M49.9204 0H47.1084L60.1595 21.9969H62.9745L49.9204 0Z" fill="#FFC109"/>
  <path d="M42.3845 14.7888C42.3845 17.3839 40.3839 19.4886 37.9171 19.4886H37.7696C35.3028 19.4886 33.3022 17.3839 33.3022 14.7888V0H30.915V14.7888C30.915 18.7716 33.9838 22 37.7696 22H37.9171C41.7029 22 44.7717 18.7716 44.7717 14.7888V0H42.3845V14.7888Z" fill="#FFC109"/>
</svg>