<svg width="1em" height="1em" viewBox="0 0 24 24" fill="none" xmlns="http://www.w3.org/2000/svg">
<path fill-rule="evenodd" clip-rule="evenodd" d="M7.34002 11.1445C7.5093 11.0308 7.70846 10.9699 7.91234 10.9694C8.04801 10.969 8.18241 10.9955 8.30785 11.0472C8.43329 11.0988 8.5473 11.1748 8.64335 11.2706C8.7394 11.3664 8.8156 11.4802 8.8676 11.6055C8.9196 11.7308 8.94636 11.8651 8.94636 12.0008C8.94636 12.2047 8.88593 12.404 8.77271 12.5736C8.65949 12.7431 8.49856 12.8753 8.31024 12.9535C8.12193 13.0316 7.91468 13.0522 7.71467 13.0126C7.51466 12.973 7.33088 12.875 7.18653 12.731C7.04218 12.5871 6.94374 12.4035 6.90365 12.2036C6.86356 12.0037 6.88362 11.7964 6.96128 11.6079C7.03895 11.4194 7.17075 11.2581 7.34002 11.1445ZM9.34987 9.8484C8.9244 9.56395 8.42414 9.41204 7.91234 9.41187C7.57232 9.41175 7.23562 9.47864 6.92146 9.60871C6.60731 9.73877 6.32186 9.92947 6.08143 10.1699C5.841 10.4103 5.65031 10.6958 5.52024 11.0099C5.48769 11.0885 5.4591 11.1686 5.43453 11.2497L2.49979 11.2505C2.08558 11.2506 1.74988 11.5865 1.75 12.0007C1.75012 12.4149 2.086 12.7506 2.50021 12.7505L5.43438 12.7497C5.50794 12.9927 5.61727 13.2249 5.75993 13.4383C6.04438 13.8638 6.44859 14.1954 6.92146 14.3912C7.39434 14.587 7.91464 14.6381 8.4166 14.5382C8.91855 14.4384 9.37963 14.1919 9.74152 13.83C10.1034 13.4681 10.3499 13.007 10.4498 12.5051C10.5497 12.0031 10.4985 11.4828 10.3027 11.0099C10.1069 10.5371 9.77535 10.1328 9.34987 9.8484Z" fill="currentColor"/>
<path fill-rule="evenodd" clip-rule="evenodd" d="M15.3764 11.1432C15.546 11.0299 15.7454 10.9694 15.9494 10.9694C16.223 10.9694 16.4853 11.0781 16.6788 11.2715C16.8722 11.4649 16.9809 11.7273 16.9809 12.0008C16.9809 12.2048 16.9204 12.4042 16.807 12.5738C16.6937 12.7435 16.5326 12.8757 16.3441 12.9537C16.1557 13.0318 15.9483 13.0522 15.7482 13.0124C15.5481 12.9726 15.3643 12.8744 15.2201 12.7301C15.0759 12.5859 14.9776 12.4021 14.9378 12.202C14.898 12.002 14.9184 11.7946 14.9965 11.6061C15.0746 11.4176 15.2068 11.2565 15.3764 11.1432ZM17.3867 9.84882C16.9614 9.56427 16.4612 9.41221 15.9494 9.41187C15.6093 9.41164 15.2725 9.47844 14.9583 9.60846C14.644 9.73847 14.3585 9.92915 14.118 10.1696C13.8774 10.41 13.6867 10.6955 13.5565 11.0097C13.4264 11.3239 13.3595 11.6607 13.3596 12.0008C13.3598 12.5126 13.5117 13.0128 13.7961 13.4383C14.0805 13.8637 14.4847 14.1953 14.9575 14.3911C15.4303 14.5869 15.9506 14.6381 16.4525 14.5383C16.9544 14.4385 17.4155 14.1921 17.7774 13.8303C18.0797 13.5281 18.3015 13.1567 18.4247 12.7501L21.5 12.7509C21.9143 12.7511 22.2501 12.4154 22.2503 12.0012C22.2504 11.5869 21.9147 11.2511 21.5005 11.2509L18.4248 11.2501C18.4003 11.1691 18.3717 11.0892 18.3392 11.0105C18.1435 10.5376 17.8121 10.1334 17.3867 9.84882Z" fill="currentColor"/>
</svg>
