<svg width="1em" height="1em" viewBox="0 0 24 24" fill="none" xmlns="http://www.w3.org/2000/svg">
<path fill-rule="evenodd" clip-rule="evenodd" d="M11.3819 9.64429C11.5495 9.53232 11.7465 9.47256 11.948 9.47256C12.2181 9.47301 12.4771 9.58052 12.668 9.77151C12.859 9.96251 12.9665 10.2214 12.967 10.4915C12.967 10.6931 12.9072 10.8901 12.7953 11.0577C12.6833 11.2252 12.5242 11.3558 12.338 11.433C12.1518 11.5101 11.9469 11.5303 11.7492 11.4909C11.5516 11.4516 11.37 11.3546 11.2275 11.2121C11.085 11.0696 10.9879 10.888 10.9486 10.6903C10.9093 10.4927 10.9295 10.2878 11.0066 10.1016C11.0837 9.9154 11.2143 9.75626 11.3819 9.64429ZM13.3682 8.3651C12.9479 8.08409 12.4536 7.93401 11.948 7.93384C11.2697 7.93384 10.6191 8.20331 10.1395 8.68297C9.73393 9.0885 9.47864 9.61618 9.40941 10.1795C7.21502 10.8781 5.28334 12.499 4.30032 15.0461C4.15118 15.4326 4.34355 15.8667 4.72998 16.0159C5.11642 16.165 5.55058 15.9726 5.69972 15.5862C6.47269 13.5833 7.96715 12.2794 9.68098 11.6747C9.72341 11.7559 9.77032 11.835 9.82158 11.9117C10.1026 12.3321 10.5019 12.6597 10.9691 12.8531C11.4363 13.0465 11.9503 13.097 12.4462 12.9984C12.9421 12.8997 13.3976 12.6562 13.7551 12.2986C13.946 12.1077 14.1044 11.8889 14.2256 11.6509C15.9725 12.2451 17.5055 13.5579 18.3017 15.5898C18.4528 15.9754 18.888 16.1656 19.2736 16.0145C19.6593 15.8633 19.8494 15.4282 19.6983 15.0425C18.6915 12.4731 16.715 10.8431 14.4821 10.1567C14.4531 9.93658 14.3954 9.71998 14.3095 9.51262C14.1161 9.04545 13.7885 8.64612 13.3682 8.3651Z" fill="currentColor"/>
</svg>
