<svg xmlns="http://www.w3.org/2000/svg" xmlns:xlink="http://www.w3.org/1999/xlink" width="24" height="24" viewBox="0 0 24 24">
  <g id="icon-eyeopen">
    <path id="Path_116" data-name="Path 116" d="M733.931,238.873c-.125-.168-3.107-4.134-6.948-4.134s-6.807,3.966-6.932,4.134a.313.313,0,0,0,0,.371c.125.167,3.089,4.07,6.93,4.07s6.821-3.9,6.946-4.069A.313.313,0,0,0,733.931,238.873Zm-6.513,2.288a2.177,2.177,0,1,1,1.709-1.708A2.18,2.18,0,0,1,727.418,241.16Zm.818.363-.442.179c-.024.007-.048.012-.071.019C727.746,241.715,727.771,241.71,727.794,241.7Zm-1.765-5.29.048-.015Zm-.935.574-.892,1.868c0,.014,0,.029,0,.043C724.2,238.882,724.2,238.868,724.2,238.853Zm.592-1.543c-.021.026-.041.053-.06.08C724.753,237.362,724.773,237.336,724.794,237.31Zm-.3.461c-.014.026-.025.053-.038.08C724.473,237.824,724.485,237.8,724.5,237.771Zm1.641,3.918.045.015Zm.462.107.013,0H726.6Zm.572.018h0Zm1.527-.585.08-.065C728.755,241.185,728.728,241.206,728.7,241.228Zm.722-.848" transform="translate(-714.992 -227.026)" fill="#919191"/>
  </g>
</svg>
