<svg width="1em" height="1em" viewBox="0 0 16 17" fill="none" xmlns="http://www.w3.org/2000/svg">
<path d="M8.2182 0.961426C6.67917 0.961496 5.17473 1.41794 3.8951 2.27303C2.61548 3.12812 1.61816 4.34345 1.02925 5.76535C0.440336 7.18724 0.286286 8.75184 0.586579 10.2613C0.886872 11.7707 1.62802 13.1572 2.7163 14.2455C3.80458 15.3337 5.19112 16.0748 6.70058 16.375C8.21005 16.6752 9.77464 16.5211 11.1965 15.9321C12.6184 15.3432 13.8337 14.3458 14.6887 13.0661C15.5437 11.7865 16.0001 10.282 16.0001 8.74297C15.9999 6.67917 15.18 4.69996 13.7206 3.24067C12.2612 1.78138 10.282 0.961521 8.2182 0.961426Z" fill="#2B97E8"/>
<path d="M7.78119 0.475586C6.24216 0.475657 4.73771 0.932096 3.45809 1.78719C2.17847 2.64228 1.18115 3.85761 0.592236 5.27951C0.00332388 6.70141 -0.150726 8.266 0.149567 9.77545C0.44986 11.2849 1.19101 12.6714 2.27929 13.7596C3.36757 14.8479 4.75411 15.589 6.26357 15.8892C7.77304 16.1894 9.33763 16.0353 10.7595 15.4463C12.1814 14.8573 13.3967 13.8599 14.2517 12.5803C15.1067 11.3006 15.5631 9.79616 15.5631 8.25713C15.5629 6.19333 14.7429 4.21412 13.2836 2.75483C11.8242 1.29554 9.84499 0.475681 7.78119 0.475586Z" fill="#9FD9FF"/>
<path d="M7.78117 1.6438C6.473 1.64373 5.19419 2.03159 4.10646 2.75832C3.01873 3.48506 2.17093 4.51803 1.67028 5.7266C1.16964 6.93518 1.03863 8.26508 1.29382 9.54811C1.54901 10.8311 2.17895 12.0097 3.10396 12.9347C4.02898 13.8597 5.20752 14.4897 6.49056 14.7449C7.77359 15 9.10349 14.869 10.3121 14.3684C11.5206 13.8677 12.5536 13.0199 13.2803 11.9322C14.0071 10.8445 14.3949 9.56567 14.3949 8.2575C14.3949 7.38898 14.2238 6.52896 13.8914 5.72655C13.5591 4.92414 13.0719 4.19505 12.4578 3.58091C11.8436 2.96677 11.1145 2.47961 10.3121 2.14724C9.50971 1.81487 8.64969 1.6438 7.78117 1.6438Z" fill="#00547F"/>
<path d="M7.78099 2.12891C4.12778 2.12891 1.16693 4.60498 1.16693 8.25747C1.16051 9.13011 1.32685 9.99539 1.65635 10.8034C1.98586 11.6115 2.47201 12.3464 3.08681 12.9657C3.7016 13.585 4.43288 14.0766 5.23849 14.412C6.04411 14.7474 6.90815 14.9201 7.78081 14.9201C8.65347 14.9201 9.5175 14.7474 10.3231 14.412C11.1287 14.0766 11.86 13.585 12.4748 12.9657C13.0896 12.3464 13.5758 11.6115 13.9053 10.8034C14.2348 9.99539 14.4011 9.13011 14.3947 8.25747C14.3947 4.60498 11.4335 2.12891 7.78099 2.12891Z" fill="#2B97E8"/>
<path d="M10.7162 10.4174L9.25147 11.2637L6.65179 10.4446L6.54712 10.8733L8.91281 12.3612L11.4996 10.8668V6.97821L10.7173 6.52808L10.7162 10.4174Z" fill="#00547F"/>
<path d="M9.59523 9.769L8.11909 10.0012L8.4674 10.4242L8.75927 10.5921L9.24977 10.8743L10.3769 10.2227V6.33372L8.12873 5.03406L6.99805 5.06442L7.10201 5.34665L9.59451 6.78385L9.59523 9.769Z" fill="#00547F"/>
<path d="M6.66389 8.07565L7.79136 7.42403L7.44268 7.00391L5.94975 7.4326L5.5332 11.0933L5.63145 11.372L8.12967 12.8127L8.91132 12.3626L8.56301 11.9396L6.66353 11.0629L6.66389 8.07565Z" fill="#00547F"/>
<path d="M9.26019 7.88229V6.97845L8.91187 6.55547L7.00882 5.68201L4.76067 6.97845L4.41235 10.4437L4.55525 10.7474L5.74524 11.4362L5.54304 7.43073L7.00775 6.58441L9.26019 7.88229Z" fill="#00547F"/>
<path d="M10.368 9.99444L8.90324 10.8408L6.65259 9.5411V10.4449L8.90324 11.7414L11.1514 10.4449V6.55523L10.369 6.1051L10.368 9.99444Z" fill="#9FD9FF"/>
<path d="M9.24693 9.34635L8.1191 10.0008L8.90147 10.451L10.0286 9.79934V5.91035L7.78115 4.60962L6.99878 5.06332L9.24693 6.36013V9.34635Z" fill="#9FD9FF"/>
<path d="M6.3157 7.65379L7.44317 7.00217L6.6608 6.54883L5.53369 7.2033V11.093L7.78184 12.3894L8.56421 11.9393L6.31606 10.6397L6.3157 7.65379Z" fill="#9FD9FF"/>
<path d="M8.91165 7.45907V6.55524L6.66099 5.25879L4.41284 6.55524V10.4446L5.19521 10.8979V7.00894L6.65992 6.16262L8.91165 7.45907Z" fill="#9FD9FF"/>
</svg>
