<svg width="1em" height="1em" viewBox="0 0 30 30" fill="none" xmlns="http://www.w3.org/2000/svg">
  <path
    d="M17.2857 16.226C17.2857 17.4896 16.2637 18.5116 15.0001 18.5116C13.7365 18.5116 12.7145 17.4896 12.7145 16.226C12.7145 14.9624 13.7365 13.9404 15.0001 13.9404C16.2637 13.9404 17.2857 14.9624 17.2857 16.226ZM15.0001 3.18834C15.2319 3.26018 15.4899 3.24712 15.7217 3.12957C16.2082 2.89122 16.4074 2.30349 16.1658 1.81699L15.8784 1.23253C15.7152 0.899489 15.3723 0.687256 15.0001 0.687256C14.6279 0.687256 14.2851 0.899489 14.1218 1.23253L13.8312 1.81699C13.5929 2.30349 13.792 2.88795 14.2753 3.12957C14.4157 3.19814 14.5626 3.23079 14.7095 3.23079C14.8075 3.23079 14.9054 3.21447 15.0001 3.18834ZM17.8081 7.35791C18.2946 7.11956 18.4938 6.53184 18.2522 6.04533L17.8343 5.19966C17.5959 4.71316 17.0082 4.51725 16.5217 4.75561C16.0352 4.99396 15.836 5.58168 16.0776 6.06819L16.4956 6.91386C16.6653 7.25996 17.0147 7.45913 17.3739 7.45913C17.5208 7.45913 17.6677 7.42648 17.8081 7.35791ZM20.9492 10.6818C21.0276 10.1463 20.6553 9.65003 20.1198 9.57167L19.9827 9.55208L19.9207 9.42801C19.6823 8.94477 19.0946 8.74559 18.6081 8.98395C18.1216 9.2223 17.9257 9.81003 18.164 10.2965L18.4546 10.881C18.5983 11.1683 18.8726 11.3708 19.1925 11.4165L19.839 11.5112C19.888 11.5177 19.9337 11.521 19.9827 11.521C20.4627 11.521 20.8806 11.1683 20.9492 10.6818ZM25.6118 11.3577C25.6902 10.8222 25.3179 10.3259 24.7824 10.2476L23.8486 10.1104C23.3131 10.0321 22.8168 10.4043 22.7385 10.9398C22.6601 11.4752 23.0323 11.9715 23.5678 12.0499L24.5016 12.187C24.5506 12.1936 24.5963 12.1968 24.6453 12.1968C25.1253 12.1968 25.5432 11.8442 25.6118 11.3577ZM29.2361 13.0099L29.703 12.5527C29.9707 12.2915 30.0654 11.903 29.9511 11.5471C29.8369 11.1912 29.5299 10.9332 29.161 10.881L28.5145 10.7863C27.979 10.7047 27.4827 11.0802 27.4043 11.6156C27.3652 11.8736 27.4337 12.1217 27.5741 12.3209C27.5774 12.5625 27.6688 12.8041 27.8517 12.9903C28.0443 13.1862 28.299 13.2874 28.5537 13.2874C28.8084 13.2874 29.0467 13.196 29.2361 13.0099ZM25.8599 16.3011L26.5358 15.6448C26.9244 15.2661 26.9309 14.6457 26.5521 14.2604C26.1734 13.8718 25.553 13.8653 25.1677 14.2441L24.4919 14.9004C24.1033 15.2791 24.0968 15.8995 24.4755 16.2848C24.6682 16.4807 24.9228 16.5819 25.1775 16.5819C25.4322 16.5819 25.6706 16.4905 25.8599 16.3044V16.3011ZM22.2846 20.2976C22.8168 20.2062 23.176 19.7001 23.0846 19.1679L23.0617 19.0307L23.1597 18.9361C23.5482 18.5573 23.5548 17.9369 23.176 17.5516C22.7973 17.1631 22.1801 17.1566 21.7916 17.5353L21.3247 17.9924C21.0929 18.2177 20.9884 18.541 21.0439 18.861L21.1549 19.5042C21.2365 19.9809 21.6512 20.3172 22.1181 20.3172C22.1736 20.3172 22.2291 20.3139 22.2846 20.3041V20.2976ZM23.0813 24.9439C23.6135 24.8525 23.9727 24.3464 23.8813 23.8142L23.7213 22.8869C23.6299 22.3546 23.1238 21.9955 22.5915 22.0869C22.0593 22.1783 21.7002 22.6844 21.7916 23.2166L21.9516 24.1439C22.0332 24.6206 22.4479 24.957 22.9148 24.957C22.9703 24.957 23.0258 24.9537 23.0813 24.9439ZM24.2404 29.1298C24.5408 28.911 24.6943 28.5388 24.629 28.1731L24.518 27.5299C24.4265 26.9977 23.9205 26.6385 23.3882 26.7299C23.1303 26.7724 22.9148 26.916 22.7711 27.1087C22.5426 27.187 22.3434 27.3503 22.2193 27.5789C21.9679 28.0588 22.1508 28.6498 22.6307 28.9012L23.2087 29.2049C23.3523 29.28 23.5091 29.3159 23.6658 29.3159C23.8682 29.3159 24.0707 29.2539 24.2404 29.1298ZM20.6161 26.7365C20.8676 26.2565 20.6847 25.6655 20.2047 25.4141L19.3689 24.9765C18.8889 24.7251 18.2979 24.908 18.0465 25.388C17.7951 25.8679 17.9779 26.4589 18.4579 26.7103L19.2938 27.1479C19.4407 27.223 19.5942 27.2621 19.7476 27.2621C20.1003 27.2621 20.4398 27.0728 20.6161 26.7397V26.7365ZM14.8793 24.9537L15.0001 24.8884L15.1209 24.9537C15.6009 25.2051 16.1919 25.0223 16.4433 24.5423C16.6947 24.0623 16.5119 23.4713 16.0319 23.2199L15.454 22.9163C15.1666 22.7661 14.8271 22.7661 14.543 22.9163L13.9651 23.2199C13.4851 23.4713 13.3023 24.0656 13.5537 24.5423C13.73 24.8753 14.0696 25.0647 14.4222 25.0647C14.5757 25.0647 14.7324 25.0288 14.876 24.9504L14.8793 24.9537ZM10.7065 27.1479L11.5424 26.7103C12.0223 26.4589 12.2052 25.8679 11.9538 25.388C11.7023 24.908 11.1114 24.7251 10.6314 24.9765L9.79551 25.4141C9.31553 25.6655 9.13269 26.2565 9.3841 26.7365C9.56042 27.0695 9.89999 27.2621 10.2526 27.2621C10.4061 27.2621 10.5628 27.2262 10.7065 27.1479ZM6.79159 29.2049L7.36952 28.9012C7.84949 28.6498 8.03234 28.0588 7.78092 27.5789C7.66011 27.347 7.45768 27.1838 7.22912 27.1087C7.08545 26.916 6.86669 26.7756 6.61201 26.7299C6.07653 26.6385 5.5737 26.9977 5.48227 27.5299L5.37126 28.1731C5.30922 28.5421 5.45942 28.911 5.75981 29.1298C5.92959 29.2539 6.13203 29.3159 6.33447 29.3159C6.4912 29.3159 6.64792 29.28 6.79159 29.2049ZM8.04866 24.1439L8.20866 23.2166C8.30008 22.6844 7.94091 22.1783 7.4087 22.0869C6.87648 21.9955 6.37039 22.3546 6.27896 22.8869L6.11897 23.8142C6.02755 24.3464 6.38671 24.8525 6.91893 24.9439C6.97444 24.9537 7.02994 24.957 7.08545 24.957C7.55236 24.957 7.96704 24.6206 8.04866 24.1439ZM8.84536 19.5009L8.95637 18.8577C9.01188 18.541 8.90413 18.2145 8.67557 17.9892L8.20866 17.5321C7.8201 17.1566 7.19973 17.1631 6.82424 17.5516C6.44549 17.9402 6.45528 18.5606 6.84383 18.9361L6.94179 19.0307L6.91893 19.1679C6.82751 19.7001 7.18667 20.2062 7.71889 20.2976C7.77439 20.3074 7.8299 20.3107 7.88541 20.3107C8.35232 20.3107 8.76699 19.9744 8.84862 19.4977L8.84536 19.5009ZM5.52472 16.288C5.90347 15.8995 5.89368 15.2791 5.50839 14.9036L4.83251 14.2473C4.44396 13.8686 3.82359 13.8784 3.4481 14.2637C3.06934 14.6522 3.07914 15.2726 3.46442 15.6481L4.14031 16.3044C4.32968 16.4905 4.57783 16.5819 4.82272 16.5819C5.0676 16.5819 5.33208 16.4839 5.52472 16.2848V16.288ZM2.14858 12.9968C2.33142 12.8107 2.42285 12.5691 2.42611 12.3274C2.56651 12.1283 2.63182 11.8801 2.5959 11.6222C2.51754 11.0867 2.02124 10.7177 1.48576 10.7928L0.83926 10.8875C0.4703 10.9398 0.163378 11.201 0.0490988 11.5536C-0.0651807 11.9062 0.029508 12.2981 0.297249 12.5593L0.764162 13.0164C0.953539 13.2025 1.20169 13.2939 1.44657 13.2939C1.69146 13.2939 1.95593 13.196 2.14858 12.9968ZM5.4986 12.1903L6.43243 12.0532C6.96791 11.9748 7.34013 11.4785 7.26177 10.943C7.1834 10.4075 6.68711 10.0353 6.15162 10.1137L5.2178 10.2508C4.68232 10.3292 4.31009 10.8255 4.38845 11.361C4.46029 11.8475 4.87822 12.2001 5.35493 12.2001C5.40064 12.2001 5.44962 12.2001 5.4986 12.1903ZM10.1612 11.5112L10.8077 11.4165C11.1277 11.3708 11.402 11.1683 11.5456 10.881L11.8329 10.2965C12.0713 9.81003 11.8721 9.22557 11.3889 8.98395C10.9057 8.74559 10.3179 8.94477 10.0763 9.42801L10.0143 9.55208L9.87714 9.57167C9.34165 9.65003 8.96943 10.1463 9.04779 10.6818C9.11963 11.1683 9.53756 11.521 10.0143 11.521C10.06 11.521 10.109 11.521 10.1579 11.5112H10.1612ZM13.5014 6.91386L13.9194 6.06819C14.1577 5.58168 13.9585 4.99723 13.4753 4.75561C12.9888 4.51725 12.4011 4.71642 12.1627 5.19966L11.7448 6.04533C11.5064 6.53184 11.7056 7.11629 12.1888 7.35791C12.3292 7.42648 12.4762 7.45913 12.6231 7.45913C12.9855 7.45913 13.3316 7.25996 13.5014 6.91386Z"
    fill="currentColor"
  />
</svg>
