<svg width="1em" height="1em" viewBox="0 0 30 30" fill="none" xmlns="http://www.w3.org/2000/svg">
<path d="M16.8814 10.1889V13.1097C16.8814 13.1908 16.9466 13.2559 17.0276 13.2559H17.8946V14.311C17.8946 14.4225 17.8382 14.5281 17.7441 14.5889L15.9407 15.7729V9.20472H17.3229C17.4517 9.20472 17.5371 9.06866 17.4778 8.95287L15.3487 4.71064C15.2647 4.54274 15.0245 4.54274 14.9391 4.71064L12.81 8.95143C12.7521 9.06722 12.836 9.20327 12.9649 9.20327H14.3471V17.7326L12.2629 16.4531C12.1645 16.3923 12.1037 16.2852 12.1037 16.1695V14.0823C12.7174 13.7813 13.1357 13.143 13.1168 12.4092C13.0908 11.4713 12.3222 10.6912 11.3843 10.6521C10.3509 10.6101 9.49841 11.4351 9.49841 12.4598C9.49841 13.1734 9.91236 13.7885 10.5116 14.0823V16.9785C10.5116 17.1464 10.5984 17.3013 10.7417 17.3881L14.3471 19.6012V21.5247C13.538 21.8706 12.9996 22.7289 13.1385 23.6914C13.2688 24.5888 14.0099 25.3009 14.9101 25.4008C16.1332 25.5368 17.168 24.583 17.168 23.3875C17.168 22.5509 16.6614 21.833 15.9378 21.5233V17.6776L19.2667 15.4921C19.4028 15.4038 19.4838 15.2518 19.4838 15.0897V13.2559H20.3508C20.4318 13.2559 20.497 13.1908 20.497 13.1097V10.1889C20.497 10.0442 20.3797 9.92695 20.235 9.92695H17.1391C16.9943 9.92695 16.8771 10.0442 16.8771 10.1889H16.8814Z" fill="currentColor"/>
</svg>
