<svg width="1em" height="1em" viewBox="0 0 30 30" fill="none" xmlns="http://www.w3.org/2000/svg">
<g>
<path d="M15.0005 22.0001C16.2469 22.0001 17.2574 20.9848 17.2574 19.7324C17.2574 18.4801 16.2469 17.4648 15.0005 17.4648C13.754 17.4648 12.7436 18.4801 12.7436 19.7324C12.7436 20.9848 13.754 22.0001 15.0005 22.0001Z" fill="currentColor"/>
<path d="M10.8036 17.6097C10.9027 17.7132 11.0685 17.7112 11.1637 17.6037C12.1087 16.5498 13.4766 15.8873 14.9995 15.8873C16.5224 15.8873 17.8903 16.5498 18.8353 17.6037C18.9314 17.7102 19.0963 17.7132 19.1954 17.6097L21.1314 15.5836C21.2227 15.488 21.2227 15.3391 21.1334 15.2415C19.6095 13.5783 17.4262 12.5352 14.9985 12.5352C12.5709 12.5352 10.3875 13.5783 8.86363 15.2415C8.77434 15.3391 8.77434 15.488 8.8656 15.5836L10.8016 17.6097H10.8036Z" fill="currentColor"/>
<path d="M7.72092 14.3848C7.81708 14.4854 7.97703 14.4873 8.07417 14.3877C9.82966 12.5756 12.2838 11.4497 14.999 11.4497C17.7142 11.4497 20.1683 12.5756 21.9238 14.3877C22.02 14.4873 22.1809 14.4854 22.2771 14.3848L24.2631 12.3075C24.3544 12.2118 24.3564 12.06 24.2641 11.9644C21.9267 9.52127 18.6395 8 15 8C11.3604 8 8.07319 9.52127 5.73385 11.9644C5.64259 12.06 5.64357 12.2118 5.73483 12.3075L7.72092 14.3848Z" fill="currentColor"/>
</g>
</svg>
