<svg width="1em" height="1em" viewBox="0 0 32 32" fill="none" xmlns="http://www.w3.org/2000/svg">
  <g>
    <path
      d="M8.10435 12.9426H13.527C14.3026 12.9426 14.9287 12.3131 14.9287 11.5409V7.15131C14.9287 6.37566 14.2991 5.74609 13.5235 5.74609H8.10088C7.90609 5.74609 7.74609 5.90609 7.74609 6.10088V6.78262C7.74609 6.9774 7.90609 7.1374 8.10088 7.1374L13.5374 7.14783V8.64696H8.94957C8.75479 8.64696 8.59479 8.80696 8.59479 9.00175V9.68349C8.59479 9.87827 8.75479 10.0383 8.94957 10.0383H13.527V11.5478H8.10088C7.90609 11.5478 7.74609 11.7078 7.74609 11.9026V12.5844C7.74609 12.7791 7.90609 12.9391 8.10088 12.9391L8.10435 12.9426Z"
      fill="currentColor" />
    <path
      d="M18.0139 12.9426H20.5878C22.5356 12.9426 24.1565 11.4678 24.2782 9.58262C24.3443 8.5774 23.9999 7.6174 23.3147 6.88349C22.6365 6.16001 21.6799 5.74609 20.6886 5.74609H18.0173C17.2452 5.74609 16.6156 6.37566 16.6156 7.15131V11.5409C16.6156 12.3131 17.2452 12.9426 18.0173 12.9426H18.0139ZM18.0139 7.14088H20.6852C21.3008 7.14088 21.8747 7.38783 22.2956 7.84001C22.7165 8.2887 22.9286 8.87653 22.8869 9.49566C22.8139 10.6504 21.8017 11.5548 20.5878 11.5548L18.0034 11.5444L18.0139 7.14435V7.14088Z"
      fill="currentColor" />
    <path
      d="M27.5965 19.3532C27.4469 19.3532 27.3043 19.3845 27.1687 19.4298L25.1269 16.4176C25.2174 16.2472 25.2696 16.0593 25.2696 15.8541C25.2696 15.1828 24.7235 14.6367 24.0522 14.6367C23.3809 14.6367 22.8348 15.1828 22.8348 15.8541C22.8348 15.948 22.8487 16.0385 22.8661 16.1254C21.8817 17.0228 19.6174 18.6228 15.9965 18.6228C12.3756 18.6228 10.1113 17.0193 9.12695 16.1254C9.14782 16.0385 9.15825 15.948 9.15825 15.8541C9.15825 15.1828 8.61216 14.6367 7.94086 14.6367C7.26955 14.6367 6.72347 15.1828 6.72347 15.8541C6.72347 16.0593 6.77912 16.2472 6.86608 16.4176L4.82434 19.4298C4.68868 19.3845 4.54955 19.3532 4.39651 19.3532C3.67651 19.3532 3.09216 19.9376 3.09216 20.6576C3.09216 21.3776 3.67651 21.9619 4.39651 21.9619C4.5739 21.9619 4.74086 21.9272 4.8939 21.8611C5.57912 22.7376 6.83825 24.0767 8.7826 25.1619C8.79303 25.1689 8.80347 25.1758 8.8139 25.1793C8.8139 25.1793 8.81738 25.1793 8.82086 25.1793C10.6087 26.1672 12.9669 26.9393 15.9896 26.9393C19.0122 26.9393 21.3704 26.1672 23.1583 25.1793C23.1583 25.1793 23.1617 25.1793 23.1652 25.1793C23.1791 25.1724 23.1861 25.1654 23.2 25.1585C25.1443 24.0732 26.4035 22.7341 27.0852 21.8576C27.2383 21.9202 27.4052 21.9585 27.5826 21.9585C28.3026 21.9585 28.8869 21.3741 28.8869 20.6541C28.8869 19.9341 28.3026 19.3498 27.5826 19.3498L27.5965 19.3532ZM24.6991 18.268C24.2539 18.7898 23.3009 19.7776 21.8643 20.6472L21.0817 18.9358C22.393 18.3306 23.3322 17.6002 23.8922 17.075L24.6991 18.2645V18.268ZM19.7809 19.4402L20.6296 21.2941C19.5235 21.7915 18.2087 22.1706 16.6956 22.2611V20.0002C17.8539 19.9411 18.8835 19.7324 19.7809 19.4437V19.4402ZM15.3043 22.2576C13.8296 22.1602 12.5183 21.7602 11.3983 21.235L12.2191 19.4402C13.12 19.7289 14.1461 19.9376 15.3043 19.9967V22.2541V22.2576ZM8.10782 17.075C8.67129 17.5967 9.60695 18.3306 10.9183 18.9358L10.1669 20.5741C8.76521 19.7185 7.78434 18.7619 7.31129 18.2472L8.10434 17.075H8.10782ZM5.70782 20.6158L6.51129 19.4298C7.11999 20.0628 8.15999 21.0158 9.57912 21.8611L8.80695 23.548C7.11651 22.4593 6.12173 21.2141 5.70782 20.6158ZM10.0243 24.2367L10.8139 22.5115C12.0904 23.1028 13.5965 23.5515 15.3043 23.6524V25.5411C13.1617 25.4472 11.4191 24.9219 10.0243 24.2367ZM16.6956 23.6558C18.4452 23.5654 19.9513 23.1411 21.2174 22.5741L21.9791 24.2367C20.5843 24.9219 18.8417 25.4472 16.6991 25.5411V23.6558H16.6956ZM23.193 23.548L22.4556 21.9341C23.8956 21.0889 24.9148 20.1185 25.5096 19.4576L26.2922 20.6124C25.8783 21.2141 24.8835 22.4558 23.193 23.5445V23.548Z"
      fill="currentColor" />
  </g>
</svg>
