<svg width="1em" height="1em" viewBox="0 0 32 32" fill="none" xmlns="http://www.w3.org/2000/svg">
  <path
    d="M27.5966 19.3532C27.4471 19.3532 27.3045 19.3845 27.1688 19.4298L25.1271 16.4176C25.2175 16.2472 25.2697 16.0593 25.2697 15.8541C25.2697 15.1828 24.7236 14.6367 24.0523 14.6367C23.381 14.6367 22.8349 15.1828 22.8349 15.8541C22.8349 15.948 22.8488 16.0385 22.8662 16.1254C21.8818 17.0228 19.6175 18.6228 15.9966 18.6228C12.3758 18.6228 10.1114 17.0193 9.12707 16.1254C9.14794 16.0385 9.15837 15.948 9.15837 15.8541C9.15837 15.1828 8.61228 14.6367 7.94098 14.6367C7.26968 14.6367 6.72359 15.1828 6.72359 15.8541C6.72359 16.0593 6.77924 16.2472 6.8662 16.4176L4.82446 19.4298C4.68881 19.3845 4.54968 19.3532 4.39663 19.3532C3.67663 19.3532 3.09229 19.9376 3.09229 20.6576C3.09229 21.3776 3.67663 21.9619 4.39663 21.9619C4.57402 21.9619 4.74098 21.9272 4.89402 21.8611C5.57924 22.7376 6.83837 24.0767 8.78272 25.1619C8.79315 25.1689 8.80359 25.1758 8.81402 25.1793C8.81402 25.1793 8.8175 25.1793 8.82098 25.1793C10.6088 26.1672 12.9671 26.9393 15.9897 26.9393C19.0123 26.9393 21.3705 26.1672 23.1584 25.1793C23.1584 25.1793 23.1618 25.1793 23.1653 25.1793C23.1758 25.1758 23.1862 25.1654 23.1966 25.1619C25.1445 24.0767 26.4036 22.7376 27.0853 21.8611C27.2384 21.9237 27.4053 21.9619 27.5827 21.9619C28.3027 21.9619 28.8871 21.3776 28.8871 20.6576C28.8871 19.9376 28.3027 19.3532 27.5827 19.3532H27.5966ZM24.6992 18.268C24.254 18.7898 23.301 19.7776 21.8645 20.6472L21.0819 18.9358C22.3932 18.3306 23.3323 17.6002 23.8923 17.075L24.6992 18.2645V18.268ZM19.781 19.4402L20.6297 21.2941C19.5236 21.7915 18.2088 22.1706 16.6958 22.2611V20.0002C17.854 19.9411 18.8836 19.7324 19.781 19.4437V19.4402ZM15.3045 22.2576C13.8297 22.1602 12.5184 21.7602 11.3984 21.235L12.2192 19.4402C13.1201 19.7289 14.1462 19.9376 15.3045 19.9967V22.2541V22.2576ZM8.10794 17.075C8.67141 17.5967 9.60707 18.3306 10.9184 18.9358L10.1671 20.5741C8.76533 19.7185 7.78446 18.7619 7.31142 18.2472L8.10446 17.075H8.10794ZM5.70794 20.6158L6.51142 19.4298C7.12011 20.0628 8.16011 21.0158 9.57924 21.8611L8.80707 23.548C7.11663 22.4593 6.12185 21.2141 5.70794 20.6158ZM10.0245 24.2367L10.814 22.5115C12.0905 23.1028 13.5966 23.555 15.3045 23.6524V25.5411C13.1618 25.4472 11.4192 24.9219 10.0245 24.2367ZM16.6958 23.6558C18.4453 23.5654 19.9514 23.1411 21.2175 22.5741L21.9792 24.2367C20.5845 24.9219 18.8418 25.4472 16.6992 25.5411V23.6558H16.6958ZM23.1932 23.548L22.4558 21.9341C23.8958 21.0889 24.9149 20.1185 25.5097 19.4576L26.2923 20.6124C25.8784 21.2141 24.8836 22.4558 23.1932 23.5445V23.548Z"
    fill="currentColor"
  />
  <path
    d="M16.0001 16.9394C16.9601 16.9394 17.7392 16.1603 17.7392 15.2003C17.7392 14.4872 17.3079 13.8751 16.6958 13.6072V4.5394C16.6958 4.15679 16.3827 3.84375 16.0001 3.84375C15.6175 3.84375 15.3045 4.15679 15.3045 4.5394V13.6072C14.6923 13.8751 14.261 14.4872 14.261 15.2003C14.261 16.1603 15.0401 16.9394 16.0001 16.9394Z"
    fill="currentColor"
  />
  <path
    d="M18.5425 13.7175C18.6712 13.8218 18.8277 13.874 18.9808 13.874C19.1825 13.874 19.3842 13.7871 19.5199 13.6166L20.7895 12.0618C21.0329 11.7627 20.9877 11.3245 20.6886 11.0845C20.3929 10.841 19.9547 10.8862 19.7112 11.1853L18.4416 12.7401C18.1982 13.0392 18.2434 13.4775 18.5425 13.7175Z"
    fill="currentColor"
  />
  <path
    d="M12.4766 13.6171C12.6157 13.7841 12.814 13.8745 13.0157 13.8745C13.1688 13.8745 13.3253 13.8223 13.454 13.718C13.7531 13.4745 13.7949 13.0363 13.5549 12.7406L12.2853 11.1858C12.0418 10.8867 11.6035 10.845 11.3079 11.085C11.0088 11.3284 10.967 11.7667 11.207 12.0623L12.4766 13.6171Z"
    fill="currentColor"
  />
</svg>
