<svg width="1em" height="1em" viewBox="0 0 30 30" fill="none" xmlns="http://www.w3.org/2000/svg">
<path d="M13.8488 20.9744H6.65987C5.19361 20.9744 4 19.7808 4 18.3146V10.1895C4 8.72327 5.19361 7.52966 6.65987 7.52966H19.8593C21.3255 7.52966 22.5191 8.72327 22.5191 10.1895V12.289C22.5191 12.707 22.1798 13.0463 21.7618 13.0463C21.3437 13.0463 21.0044 12.707 21.0044 12.289V10.1895C21.0044 9.55941 20.4924 9.0444 19.8593 9.0444H6.65987C6.02974 9.0444 5.51473 9.55638 5.51473 10.1895V18.3146C5.51473 18.9447 6.02671 19.4597 6.65987 19.4597H13.8488C14.2669 19.4597 14.6062 19.799 14.6062 20.2171C14.6062 20.6351 14.2669 20.9744 13.8488 20.9744Z" fill="currentColor"/>
<path d="M19.9411 12.9585C19.9411 12.9585 19.9411 12.9585 19.9441 12.9585V10.6106C19.9441 10.3471 19.729 10.132 19.4654 10.132H7.05068C6.78711 10.132 6.57202 10.3471 6.57202 10.6106V17.8935C6.57202 18.157 6.78711 18.3721 7.05068 18.3721H14.4911C14.5123 15.379 16.9449 12.9615 19.9411 12.9615V12.9585Z" fill="currentColor"/>
<path d="M25.7788 23.1769L23.6431 21.0411C24.1732 20.2989 24.4883 19.3931 24.4883 18.4115C24.4883 15.9061 22.4495 13.8673 19.9441 13.8673C17.4387 13.8673 15.3999 15.9061 15.3999 18.4115C15.3999 20.9169 17.4387 22.9557 19.9441 22.9557C20.9226 22.9557 21.8314 22.6406 22.5737 22.1105L24.7094 24.2463C24.8579 24.3947 25.0518 24.4674 25.2457 24.4674C25.4395 24.4674 25.6334 24.3947 25.7819 24.2463C26.0788 23.9494 26.0788 23.4707 25.7819 23.1738L25.7788 23.1769ZM16.9116 18.4115C16.9116 16.7423 18.2718 15.382 19.9411 15.382C21.6103 15.382 22.9705 16.7423 22.9705 18.4115C22.9705 20.0807 21.6103 21.441 19.9411 21.441C18.2718 21.441 16.9116 20.0807 16.9116 18.4115Z" fill="currentColor"/>
</svg>
