<svg width="1em" height="1em" viewBox="0 0 30 30" fill="none" xmlns="http://www.w3.org/2000/svg">
<path d="M15.9343 17.2885C16.1011 17.4927 16.3462 17.5948 16.5913 17.5948C16.7819 17.5948 16.9759 17.5302 17.1324 17.3974L22.4661 12.9759C22.6602 12.816 22.7725 12.5743 22.7725 12.3224C22.7725 12.0705 22.6602 11.8289 22.4661 11.6689L17.078 7.19635C16.7172 6.89682 16.1794 6.94447 15.8799 7.30867C15.5803 7.66947 15.628 8.20726 15.9922 8.50679L19.6717 11.5634H12.9458C9.79394 11.5634 7.22751 14.1298 7.22751 17.2817C7.22751 20.4336 9.79394 23 12.9458 23H16.5028C16.9725 23 17.3537 22.6188 17.3537 22.1491C17.3537 21.6793 16.9725 21.2981 16.5028 21.2981H12.9458C10.7334 21.2981 8.92939 19.4975 8.92939 17.2817C8.92939 15.0658 10.73 13.2652 12.9458 13.2652H19.4606L16.0466 16.0938C15.6859 16.3933 15.6348 16.9311 15.9343 17.2919V17.2885Z" fill="currentColor"/>
</svg>
