<svg width="1em" height="1em" viewBox="0 0 24 24" fill="currentColor" xmlns="http://www.w3.org/2000/svg">
  <path d="M21.559,12.168l-2.224-2.188c-.291-.286-.749-.294-1.05-.019l-2.39,2.189c-.01.01-.02.02-.028.029-.287.292-.302.765-.027,1.076.285.321.771.346,1.085.057l1.04-.953c-.135,1.4-.736,2.699-1.727,3.706-1.133,1.152-2.639,1.785-4.241,1.787s-3.108-.635-4.241-1.787c-.215-.219-.408-.454-.583-.699-.149-.209-.38-.342-.635-.342h0c-.636,0-.99.734-.617,1.258.222.312.47.61.746.89,1.424,1.447,3.316,2.243,5.329,2.244v-.003c2.014-.001,3.906-.797,5.33-2.244,1.289-1.31,2.052-3.013,2.184-4.843l.98.965c.306.3.797.295,1.088-.018.296-.31.287-.805-.017-1.106Z"/>
  <path d="M2.441,11.341l2.224,2.188c.291.286.749.294,1.05.019l2.39-2.189c.01-.01.02-.02.028-.029.287-.292.302-.765.027-1.076-.285-.321-.771-.346-1.085-.057l-1.04.953c.135-1.4.736-2.699,1.727-3.706,1.133-1.152,2.639-1.785,4.241-1.787s3.108.635,4.241,1.787c.215.219.408.454.583.699.149.209.38.342.635.342h0c.636,0,.99-.734.617-1.258-.222-.312-.47-.61-.746-.89-1.424-1.447-3.316-2.243-5.329-2.244v.003c-2.014.001-3.906.797-5.33,2.244-1.289,1.31-2.052,3.013-2.184,4.843l-.98-.965c-.306-.3-.797-.295-1.088.018-.296.31-.287.805.017,1.106Z"/>
</svg>