<svg width="1em" height="1em" viewBox="0 0 30 30" fill="none" xmlns="http://www.w3.org/2000/svg">
<path d="M21.9112 8.69039L17.7418 8.68086V7.59006C17.7418 7.40473 17.7053 7.22121 17.6343 7.05C17.5634 6.87879 17.4594 6.72324 17.3283 6.59224C17.1972 6.46123 17.0416 6.35734 16.8703 6.28652C16.6991 6.21569 16.5155 6.1793 16.3301 6.17944H13.5767C13.2028 6.18 12.8443 6.3288 12.5799 6.59322C12.3154 6.85764 12.1666 7.21612 12.1661 7.59006V8.00838C12.1661 8.22019 12.1608 8.48812 12.1544 8.6745L8.09098 8.68827C7.93434 8.68855 7.78418 8.7509 7.67342 8.86166C7.56266 8.97242 7.50028 9.12257 7.5 9.27921V9.49101C7.50028 9.64765 7.56266 9.7978 7.67342 9.90857C7.78418 10.0193 7.93434 10.0817 8.09098 10.082H21.9091C22.0658 10.082 22.2161 10.0197 22.327 9.90887C22.4378 9.79805 22.5 9.64773 22.5 9.49101V9.27921C22.4992 9.1233 22.4369 8.97402 22.3266 8.86378C22.2164 8.75354 22.0671 8.69122 21.9112 8.69039ZM16.3736 7.72881V8.50824C16.3737 8.52989 16.3696 8.55134 16.3614 8.57138C16.3532 8.59141 16.3411 8.60964 16.3259 8.62499C16.3106 8.64035 16.2925 8.65253 16.2725 8.66085C16.2525 8.66917 16.2311 8.67345 16.2095 8.67345H13.7854C13.7637 8.67345 13.7421 8.66917 13.7221 8.66087C13.702 8.65256 13.6838 8.6404 13.6685 8.62506C13.6532 8.60972 13.641 8.5915 13.6327 8.57146C13.6244 8.55141 13.6201 8.52994 13.6201 8.50824V7.73092C13.6201 7.68711 13.6375 7.64507 13.6685 7.61409C13.6995 7.58311 13.7415 7.56571 13.7854 7.56571H16.2095C16.2311 7.56571 16.2525 7.56998 16.2725 7.5783C16.2925 7.58661 16.3106 7.5988 16.3259 7.61416C16.3411 7.62951 16.3532 7.64774 16.3614 7.66777C16.3696 7.68781 16.3737 7.70928 16.3736 7.73092V7.72881Z" fill="currentColor"/>
<path d="M20.5006 10.5044L19.9796 10.4589C19.8796 10.4501 19.7801 10.4804 19.7021 10.5436C19.6439 10.5905 19.6014 10.6541 19.5803 10.7258L18.5901 21.7862C18.5457 22.4852 18.2237 22.4852 18.1178 22.4852L11.8505 22.5042C11.4957 22.4767 11.4577 21.8868 11.4566 21.8688L10.4421 10.8359C10.4341 10.7361 10.3868 10.6436 10.3107 10.5786C10.273 10.5446 10.2284 10.5191 10.18 10.5037C10.1316 10.4884 10.0805 10.4836 10.0301 10.4896L9.50797 10.5362C9.45842 10.5397 9.41007 10.5531 9.36571 10.5754C9.32135 10.5978 9.28185 10.6287 9.24955 10.6665C9.21691 10.7051 9.19223 10.7497 9.17696 10.7979C9.1617 10.8461 9.15616 10.8968 9.16061 10.9471L10.1794 22.4714C10.1711 22.8183 10.2998 23.1544 10.5377 23.407C10.7756 23.6595 11.1035 23.8082 11.4502 23.8206L18.5457 23.7899C18.8152 23.8037 19.08 23.7152 19.287 23.5421C19.4604 23.3753 19.5981 23.1751 19.692 22.9536C19.7859 22.732 19.8341 22.4938 19.8334 22.2533L20.8364 10.9217C20.8459 10.8221 20.8162 10.7227 20.7534 10.6447C20.6907 10.5668 20.6 10.5164 20.5006 10.5044Z" fill="currentColor"/>
<path d="M13.1499 21.028C13.1714 21.0294 13.1931 21.0294 13.2146 21.028C13.2888 21.0198 13.3606 20.9971 13.426 20.961C13.4914 20.925 13.549 20.8764 13.5955 20.8181C13.6421 20.7597 13.6766 20.6928 13.6972 20.621C13.7178 20.5492 13.7241 20.4741 13.7155 20.4L12.7878 12.2391C12.7829 12.1624 12.7624 12.0875 12.7277 12.019C12.693 11.9504 12.6447 11.8896 12.5858 11.8403C12.5269 11.7909 12.4585 11.754 12.3849 11.7319C12.3114 11.7097 12.234 11.7027 12.1577 11.7113C12.0813 11.72 12.0075 11.744 11.9407 11.782C11.8739 11.82 11.8155 11.8711 11.769 11.9324C11.7226 11.9936 11.6891 12.0636 11.6705 12.1382C11.6519 12.2128 11.6487 12.2904 11.661 12.3662L12.5876 20.5271C12.604 20.6649 12.6701 20.7919 12.7737 20.8842C12.8774 20.9765 13.0112 21.0276 13.1499 21.028Z" fill="currentColor"/>
<path d="M15.6408 20.4604V12.2996C15.6408 12.149 15.5809 12.0046 15.4745 11.8982C15.368 11.7917 15.2237 11.7319 15.0731 11.7319C14.9226 11.7319 14.7782 11.7917 14.6717 11.8982C14.5653 12.0046 14.5055 12.149 14.5055 12.2996V20.4604C14.5055 20.6109 14.5653 20.7553 14.6717 20.8618C14.7782 20.9682 14.9226 21.028 15.0731 21.028C15.2237 21.028 15.368 20.9682 15.4745 20.8618C15.5809 20.7553 15.6408 20.6109 15.6408 20.4604Z" fill="currentColor"/>
<path d="M16.992 21.028C17.1329 21.0279 17.2688 20.9754 17.3731 20.8806C17.4775 20.7859 17.5428 20.6557 17.5565 20.5155L18.3423 12.3546C18.3498 12.28 18.3424 12.2046 18.3206 12.1328C18.2989 12.0611 18.2632 11.9943 18.2155 11.9363C18.1679 11.8784 18.1093 11.8304 18.0431 11.7951C17.9769 11.7599 17.9044 11.738 17.8297 11.7309C17.68 11.7184 17.5313 11.7649 17.4154 11.8604C17.2995 11.956 17.2255 12.093 17.2091 12.2424L16.4233 20.4032C16.4089 20.5533 16.4546 20.7031 16.5505 20.8194C16.6465 20.9358 16.7847 21.0093 16.9348 21.0238L16.992 21.028Z" fill="currentColor"/>
</svg>
