<svg width="1em" height="1em" viewBox="0 0 30 30" fill="none" xmlns="http://www.w3.org/2000/svg">
<path d="M14.064 17.2885C13.8972 17.4927 13.6521 17.5948 13.407 17.5948C13.2164 17.5948 13.0224 17.5302 12.8658 17.3974L7.53214 12.9827C7.33812 12.8228 7.2258 12.5811 7.2258 12.3292C7.2258 12.0773 7.33812 11.8357 7.53214 11.6757L12.9237 7.19635C13.2845 6.89682 13.8223 6.94447 14.1218 7.30867C14.4213 7.66947 14.3737 8.20726 14.0095 8.50679L10.33 11.5634H17.0559C20.2077 11.5634 22.7742 14.1298 22.7742 17.2817C22.7742 20.4336 20.2077 23 17.0559 23H13.4989C13.0292 23 12.648 22.6188 12.648 22.1491C12.648 21.6793 13.0292 21.2981 13.4989 21.2981H17.0559C19.2683 21.2981 21.0723 19.4975 21.0723 17.2817C21.0723 15.0658 19.2717 13.2652 17.0559 13.2652H10.5411L13.955 16.0938C14.3158 16.3933 14.3669 16.9311 14.0674 17.2919L14.064 17.2885Z" fill="currentColor"/>
</svg>
