<?xml version="1.0" encoding="iso-8859-1"?>
<!-- Generator: Adobe Illustrator 27.8.1, SVG Export Plug-In . SVG Version: 6.00 Build 0)  -->
<svg version="1.0" id="Layer_1" xmlns="http://www.w3.org/2000/svg" xmlns:xlink="http://www.w3.org/1999/xlink" x="0px" y="0px"
	 viewBox="0 0 50 50" enable-background="new 0 0 50 50" width="50px" height="50px" xml:space="preserve">
<g>
	<rect x="0.961" y="0.962" opacity="0.5" fill="#91AFDC" width="48.077" height="48.077"/>
	<path fill="#0080C7" d="M49.038,0.962v48.077H0.962V0.962H49.038 M50,0h-0.962H0.962H0v0.962v48.077V50h0.962h48.077H50v-0.962
		V0.962V0L50,0z"/>
	<g>
		<path fill="#0080C7" d="M33.854,12.432h-0.248c-0.311,0-0.563,0.252-0.563,0.563v4.239H17.072v-4.239
			c0-0.311-0.252-0.563-0.563-0.563h-0.248c-0.311,0-0.563,0.252-0.563,0.563v4.926c0,0.379,0.308,0.687,0.687,0.687h3.079v4.129
			c0,0.379,0.308,0.687,0.687,0.687h9.813c0.379,0,0.687-0.308,0.687-0.687v-4.129h3.079c0.379,0,0.687-0.308,0.687-0.687v-4.926
			C34.417,12.684,34.165,12.432,33.854,12.432z M29.277,22.051h-8.438v-3.442h8.438V22.051z"/>
		<circle fill="#0080C7" cx="22.395" cy="27.78" r="1.508"/>
		<path fill="#0080C7" d="M27.422,29.288c0.833,0,1.508-0.675,1.508-1.508c0-0.833-0.675-1.508-1.508-1.508
			s-1.508,0.675-1.508,1.508C25.914,28.613,26.589,29.288,27.422,29.288z"/>
		<path fill="#0080C7" d="M21.39,31.946c0-0.833-0.675-1.508-1.508-1.508c-0.833,0-1.508,0.675-1.508,1.508
			c0,0.833,0.675,1.508,1.508,1.508C20.715,33.454,21.39,32.779,21.39,31.946z"/>
		<path fill="#0080C7" d="M26.417,31.946c0-0.833-0.675-1.508-1.508-1.508c-0.833,0-1.508,0.675-1.508,1.508
			c0,0.833,0.675,1.508,1.508,1.508C25.742,33.454,26.417,32.779,26.417,31.946z"/>
		<path fill="#0080C7" d="M31.444,31.946c0-0.833-0.675-1.508-1.508-1.508c-0.833,0-1.508,0.675-1.508,1.508
			c0,0.833,0.675,1.508,1.508,1.508C30.769,33.454,31.444,32.779,31.444,31.946z"/>
		<path fill="#0080C7" d="M17.368,34.604c-0.833,0-1.508,0.675-1.508,1.508c0,0.833,0.675,1.508,1.508,1.508
			s1.508-0.675,1.508-1.508C18.876,35.279,18.201,34.604,17.368,34.604z"/>
		<path fill="#0080C7" d="M22.395,34.604c-0.833,0-1.508,0.675-1.508,1.508c0,0.833,0.675,1.508,1.508,1.508
			c0.833,0,1.508-0.675,1.508-1.508C23.903,35.279,23.228,34.604,22.395,34.604z"/>
		<path fill="#0080C7" d="M27.422,34.604c-0.833,0-1.508,0.675-1.508,1.508c0,0.833,0.675,1.508,1.508,1.508
			s1.508-0.675,1.508-1.508C28.931,35.279,28.255,34.604,27.422,34.604z"/>
		<path fill="#0080C7" d="M32.45,34.604c-0.833,0-1.508,0.675-1.508,1.508c0,0.833,0.675,1.508,1.508,1.508
			c0.833,0,1.508-0.675,1.508-1.508C33.958,35.279,33.283,34.604,32.45,34.604z"/>
	</g>
</g>
</svg>
