<svg width="100" height="50" viewBox="0 0 100 50" fill="none" xmlns="http://www.w3.org/2000/svg">
  <g>
    <path
      d="M99.9354 27.7415C99.9354 27.7415 99.9295 27.6886 99.9236 27.6651L99.7297 26.8247C99.7238 26.7895 99.712 26.7542 99.7003 26.7189L91.7431 4.62209C91.6197 4.27536 91.2847 4.04028 90.9144 4.04028H77.2861C76.8042 4.04028 76.4163 4.42228 76.4046 4.90418L76.2988 10.3109L5.15985 10.0993C4.67795 10.0993 4.29008 10.4872 4.27833 10.9691V10.9808V11.0455H2.29196C1.80418 11.0455 1.41044 11.4392 1.41044 11.927V19.9312C1.41044 20.419 1.80418 20.8127 2.29196 20.8127H3.94922C4.04325 21.2711 4.5134 22.4406 6.78773 22.4406C9.30889 22.4406 9.83192 21.0302 9.88481 20.8656C9.88481 20.848 9.88481 20.8304 9.89069 20.8069H77.3213L77.5035 21.4533H65.9556C65.9321 21.4533 65.9086 21.4533 65.885 21.4592C65.8557 21.4592 65.8204 21.4592 65.791 21.4709C65.791 21.4709 65.7851 21.4709 65.7793 21.4709C65.7675 21.4709 65.7558 21.4768 65.7499 21.4827C65.5207 21.5356 65.3385 21.6766 65.221 21.8647C65.221 21.8647 65.221 21.8706 65.221 21.8764C65.1975 21.9117 65.1798 21.9528 65.1622 21.994C65.1622 21.994 65.1622 22.0057 65.1563 22.0116C65.1505 22.0234 65.1446 22.041 65.1387 22.0527C65.1269 22.0821 65.1152 22.1174 65.1093 22.1468C65.1093 22.1526 65.1093 22.1644 65.1093 22.1703C65.1093 22.1938 65.1093 22.2173 65.1034 22.2408C65.1034 22.2584 65.0976 22.2819 65.0976 22.2996L65.0388 23.7864L3.40856 24.0626C2.92666 24.0626 2.53879 24.4505 2.53291 24.9324C2.53291 24.9383 2.53291 24.9441 2.53291 24.95V25.0088H0.922661C0.434885 25.0088 0.0411377 25.4025 0.0411377 25.8903V33.8945C0.0411377 34.3823 0.434885 34.7761 0.922661 34.7761H2.85614C2.94429 35.2227 3.39093 36.4216 5.69464 36.4216C8.2158 36.4216 8.73883 35.0111 8.79173 34.8466C8.7976 34.8231 8.79173 34.7996 8.80348 34.7761H64.5863L64.4511 38.073C64.4511 38.1846 64.4629 38.2963 64.4981 38.4021L66.9546 45.3602C66.984 45.4366 67.0252 45.5071 67.0663 45.5718C67.078 45.5894 67.0898 45.6012 67.0957 45.6129C67.1427 45.6717 67.2015 45.7305 67.2661 45.7775C67.272 45.7833 67.2837 45.7892 67.2955 45.7951C67.3543 45.8362 67.4189 45.8656 67.4894 45.8891C67.507 45.8891 67.5188 45.9009 67.5364 45.9068C67.6011 45.9244 67.6716 45.942 67.7421 45.9479C67.7598 45.9479 67.7715 45.9479 67.7891 45.9479H98.3545C98.8246 45.9479 99.2125 45.5777 99.236 45.1075L99.9706 30.0041C99.9824 29.816 99.9941 29.6456 100 29.4869C100.035 28.9463 100.071 28.435 99.9765 27.7298L99.9354 27.7415ZM98.0254 27.2655L98.1958 28.0177C98.2134 28.1705 98.2252 28.3057 98.2311 28.4408H69.3406C69.2936 28.1 69.2348 27.7533 69.1408 27.4124C69.1291 27.3654 69.1114 27.3243 69.0938 27.2831L67.3014 23.234H81.4586C81.9111 23.234 82.2814 22.8873 82.3284 22.4465C82.3284 22.4171 82.3401 22.3877 82.3401 22.3583C82.3401 22.2408 82.3166 22.1233 82.2696 22.0175L78.2381 5.81508H90.2915L98.0254 27.2772V27.2655ZM76.1812 16.1583L5.44781 16.3522V11.8565L76.2635 12.068L76.1812 16.1583ZM3.16761 19.0497V12.8085H4.27245V16.9458C4.27245 17.1045 4.33709 17.2514 4.44288 17.363C4.55454 17.4747 4.70146 17.5335 4.86013 17.5335L76.334 17.3337L76.8159 19.0497H3.16761ZM77.9384 16.5344L78.0677 9.97L80.9297 21.4592H79.3312L77.9443 16.5285L77.9384 16.5344ZM64.7391 30.1275L3.69652 30.3214L3.67301 25.8257L64.933 25.5553L64.7449 30.1275H64.7391ZM1.76305 33.0189V26.7777H2.49765L2.52116 30.9209C2.52116 31.2441 2.78561 31.5027 3.10884 31.5027L64.6862 31.3087L64.6157 33.0248H1.76305V33.0189ZM66.6667 26.1548L67.4483 27.9237C67.6011 28.5349 67.6657 29.1637 67.6305 29.7984L67.0839 40.5765L66.173 37.9907L66.6667 26.1606V26.1548ZM97.473 44.1966H68.6707L69.3994 29.8865C69.3994 29.7984 69.3994 29.7102 69.3994 29.6221H98.1841C98.1782 29.722 98.1723 29.816 98.1664 29.9336L97.473 44.1966Z"
      fill="currentColor"
    />
  </g>
</svg>
