<svg width="100" height="50" viewBox="0 0 100 50" fill="none" xmlns="http://www.w3.org/2000/svg">
  <g>
    <path
      d="M99.9277 11.4187L97.0161 4.51653C96.8774 4.17896 96.5459 3.96195 96.1842 3.96195H96.1782L87.2325 4.04031C84.8152 1.76169 82.5366 1.43015 80.4268 1.41809H80.3906C78.3833 1.41809 76.7918 2.14749 76.2071 2.46095H74.0611C72.4094 2.5152 71.674 3.49175 71.4992 4.05839C71.4751 4.13073 71.463 4.2091 71.463 4.28143L71.2942 8.25997H71.1676C70.8843 6.26468 70.3659 4.71546 70.3418 4.63709C70.2152 4.26938 69.8716 4.02223 69.4858 4.02223H66.2005L66.0438 3.25666C66.0076 3.06979 65.9111 2.901 65.7665 2.77441L65.025 2.09927C64.8562 1.94856 64.6392 1.86417 64.4162 1.86417L51.1845 1.87623C50.9374 1.87623 50.7083 1.9787 50.5335 2.15352C50.3647 2.32833 50.2743 2.56946 50.2803 2.81058L50.3948 6.34304C50.4129 6.83132 50.8108 7.21711 51.299 7.21711H51.3111L57.4537 7.14478L57.6647 13.7094L51.3111 13.9083C50.8168 13.9264 50.425 14.3363 50.437 14.8306L50.5576 19.9846C50.5576 20.2257 50.6661 20.4548 50.8409 20.6176C51.0157 20.7863 51.2689 20.8707 51.4919 20.8647L57.8154 20.6718L57.8817 24.0114L51.6487 24.1922C51.1604 24.2043 50.7686 24.6082 50.7686 25.0964V28.5264C50.7746 28.7675 50.8711 28.9966 51.0398 29.1654C51.2086 29.3342 51.4317 29.4246 51.6788 29.4306L64.9708 29.3583C65.1817 29.3583 65.3867 29.2799 65.5495 29.1473L66.4537 28.3878H69.7329L69.6787 30.371L6.53445 30.8834C5.23238 30.8955 4.0991 31.7334 3.7133 32.9691L0.0482208 44.1452C-3.96965e-06 44.2899 -0.0120602 44.4466 0.0180803 44.5913L0.379766 46.5082C0.602805 47.7138 1.65169 48.5758 2.86937 48.5758H2.89951L94.5024 47.961C95.6658 47.955 96.6243 47.0749 96.7388 45.9235L96.9859 43.4821C96.998 43.3555 96.9859 43.2289 96.9437 43.1084L94.8038 36.6884L96.4796 36.6161C96.9257 36.598 97.2873 36.2544 97.3356 35.8144L99.9879 11.8708C100.006 11.7201 99.9879 11.5634 99.9216 11.4187H99.9277ZM97.8721 11.1957L74.5253 11.8286L73.3438 6.07781L86.9371 5.84874L95.5814 5.7764L97.8721 11.2017V11.1957ZM91.5185 22.3778C91.3075 24.0897 89.4991 41.746 89.3062 43.675C85.6471 43.7112 80.1796 43.7654 73.7356 43.8257L74.8508 22.5707C74.8568 22.2873 75.104 15.6444 82.9345 14.5834C85.9304 14.1796 88.203 14.71 89.6799 16.1749C91.3979 17.8748 91.7415 20.5814 91.5185 22.3778ZM3.74344 38.6777L72.2165 38.1593L71.9151 43.8438C45.4036 44.103 4.4849 44.4948 2.9839 44.4948C2.4896 44.4948 2.13997 44.3863 1.92899 44.1874L3.73741 38.6717L3.74344 38.6777ZM73.392 12.2928V20.4729C73.0665 21.6484 73.0424 22.4863 73.0424 22.5044L73.0243 22.8902L71.1917 22.9926C71.2942 20.2318 71.3123 16.2834 70.9747 11.9431H73.3197L73.392 12.2928ZM71.3123 26.8506C71.2219 26.7542 71.1074 26.6878 70.9868 26.6396C71.023 26.2056 71.0893 25.3677 71.1435 24.2103L72.964 24.1078L72.5782 31.4681H71.451C71.463 31.4139 71.469 31.3536 71.4751 31.2933L71.5715 27.5137C71.5775 27.2726 71.4871 27.0314 71.3183 26.8566L71.3123 26.8506ZM74.5976 17.6698V13.0342L82.5004 12.8232C78.2265 13.4562 75.8816 15.572 74.5976 17.6698ZM74.0913 4.26938H76.4422C76.611 4.26938 76.7738 4.22115 76.9184 4.13676C76.9305 4.1247 78.4013 3.23255 80.3846 3.23255H80.4147C82.1689 3.23857 83.6337 3.50984 85.1829 4.67929L73.2473 4.87821L73.2594 4.56475C73.3438 4.46228 73.5668 4.28746 74.0913 4.26938ZM72.1623 10.0624C72.4456 10.0624 72.6988 9.92976 72.8615 9.7248L73.0725 10.7375H70.8723C70.8542 10.5145 70.8301 10.2914 70.8059 10.0624H72.1683H72.1623ZM62.1677 8.05502H64.9044C65.1817 11.3403 65.5012 16.9404 65.23 23.1252L62.3847 23.294C62.6499 17.0308 62.439 11.7201 62.1677 8.05502ZM64.3318 3.90166L64.5789 5.10728C64.585 5.14948 64.6091 5.17962 64.6211 5.22182C64.6573 5.50514 64.7176 6.05972 64.7899 6.84337H62.0954C62.0954 6.84337 62.0773 6.84337 62.0652 6.84337C61.9447 5.44486 61.8301 4.36583 61.7457 3.65451H64.0665L64.3318 3.89564V3.90166ZM52.3419 19.0261L52.2635 15.6806L57.7129 15.5118L57.7732 18.8634L52.3419 19.0322V19.0261ZM52.577 25.9705L58.8221 25.7897C59.3164 25.7776 59.7082 25.3617 59.7022 24.8674L59.5093 14.5593V14.5473L59.238 6.19837C59.22 5.70406 58.804 5.31224 58.3218 5.32429L52.1791 5.39663L52.1249 3.68465H60.5401C60.8777 6.40332 61.8241 15.7167 60.9259 27.58L52.583 27.6222V25.9765L52.577 25.9705ZM64.6332 27.5499L62.1315 27.5619C62.2099 26.5191 62.2762 25.5003 62.3244 24.4997L65.1637 24.3309C65.1094 25.2592 65.0431 26.1935 64.9647 27.1339C64.9647 27.1761 64.9708 27.2123 64.9768 27.2545L64.6332 27.5438V27.5499ZM66.2186 26.5733C66.2969 25.5968 66.3572 24.6262 66.4054 23.6678C66.4054 23.6678 66.4054 23.6678 66.4054 23.6617C66.737 16.9163 66.3512 10.8099 66.0618 7.48235C66.0618 7.47029 66.0618 7.46427 66.0618 7.45221C66.0618 7.4281 66.0498 7.40399 66.0498 7.37987C65.9955 6.75898 65.9413 6.23454 65.8991 5.83065H68.8107C69.0096 6.548 69.323 7.83198 69.4617 9.24255C69.4677 9.30283 69.4918 9.35709 69.5159 9.41737C70.4443 17.6397 69.9017 25.0603 69.7751 26.5673H66.2186V26.5733ZM5.43733 33.5116C5.58804 33.0234 6.04014 32.6918 6.55253 32.6858L70.0826 32.1674C70.1368 32.4507 70.3719 32.6617 70.6673 32.6617H72.5059L72.2828 36.9537L4.14129 37.4661L5.44336 33.5056L5.43733 33.5116ZM94.4843 46.1525L2.8754 46.7674C2.50768 46.7855 2.21833 46.5203 2.15202 46.1706L2.03749 45.5678C2.32081 45.6462 2.63427 45.7004 2.9839 45.7004C5.20827 45.7004 93.3028 44.8384 94.1829 44.8264C94.4119 44.8264 94.7194 44.7721 95.0449 44.6214L94.9304 45.7366C94.9062 45.9657 94.7133 46.1465 94.4783 46.1465L94.4843 46.1525ZM95.0328 43.1084C94.7314 43.5725 94.2854 43.6208 94.1829 43.6208C94.0864 43.6208 92.9953 43.6328 91.1266 43.6509C91.2291 42.6623 91.5366 39.6482 91.8922 36.1821L92.8929 36.1459L92.8688 36.3027C92.8507 36.4413 92.8627 36.586 92.9049 36.7186L95.0328 43.1023V43.1084ZM95.6236 34.8439L95.0871 34.868L92.0067 34.9765C92.5674 29.5572 93.1882 23.5352 93.3088 22.5948C93.5982 20.28 93.128 17.0369 90.9458 14.8788C89.704 13.6551 88.0825 12.9378 86.1113 12.7147L98.1072 12.3892L95.6176 34.8378L95.6236 34.8439Z"
      fill="currentColor" />
    <path
      d="M82.7596 16.6631C80.8246 16.9464 79.0885 17.8265 77.8709 19.1346C76.623 20.4789 76.0624 22.1246 76.3036 23.7521C76.7376 26.7059 79.7094 28.7856 83.2118 28.7856C83.6397 28.7856 84.0798 28.7555 84.5259 28.6892C86.4609 28.4058 88.197 27.5257 89.4147 26.2176C90.6625 24.8673 91.2231 23.2277 90.982 21.6001C90.4937 18.2847 86.8045 16.0724 82.7596 16.6691V16.6631ZM88.5346 25.3978C87.5038 26.507 86.0208 27.2545 84.3511 27.5016C80.9633 28.0019 77.8889 26.2417 77.4971 23.5834C77.3103 22.3235 77.7563 21.0335 78.757 19.9605C79.7878 18.8513 81.2707 18.1038 82.9405 17.8567C83.3263 17.8024 83.7121 17.7723 84.0858 17.7723C86.9974 17.7723 89.4508 19.4179 89.7944 21.7749C89.9813 23.0348 89.5352 24.3248 88.5346 25.3978Z"
      fill="currentColor" />
    <path
      d="M85.0503 21.9859C84.556 21.6966 83.9532 21.5881 83.3444 21.6785C82.7356 21.7689 82.187 22.0462 81.8012 22.4682C81.3853 22.9143 81.1984 23.493 81.2768 24.0475C81.3551 24.6021 81.7048 25.1025 82.2352 25.4099C82.615 25.6329 83.0671 25.7535 83.5313 25.7535C83.6699 25.7535 83.8025 25.7414 83.9412 25.7234C84.55 25.6329 85.0986 25.3556 85.4844 24.9337C85.9003 24.4876 86.0872 23.9089 86.0088 23.3543C85.9304 22.7997 85.5808 22.2994 85.0503 21.992V21.9859ZM84.5982 24.1078C84.3993 24.3248 84.0979 24.4755 83.7664 24.5238C83.4348 24.572 83.0972 24.5177 82.8501 24.367C82.7235 24.2947 82.5125 24.1319 82.4764 23.8667C82.4402 23.6015 82.5969 23.3845 82.6934 23.282C82.8923 23.065 83.1937 22.9143 83.5252 22.866C83.6036 22.854 83.682 22.848 83.7603 22.848C84.0135 22.848 84.2546 22.9082 84.4475 23.0228C84.5741 23.0951 84.7851 23.2579 84.8213 23.5231C84.8574 23.7883 84.7007 24.0053 84.6043 24.1078H84.5982Z"
      fill="currentColor" />
  </g>
</svg>
