<svg width="1em" height="1em" viewBox="0 0 30 30" fill="none" xmlns="http://www.w3.org/2000/svg">
    <rect width="30" height="30" />
    <g>
        <path
            d="M22.4916 18.2294C22.4916 18.2294 22.4916 18.2045 22.4916 18.1879V8.38354C22.4916 7.2047 21.5236 6.25 20.3283 6.25H9.6633C8.46801 6.25 7.5 7.2047 7.5 8.38354V21.6165C7.5 22.7953 8.46801 23.75 9.6633 23.75H17.0286C17.1128 23.75 17.197 23.7334 17.2727 23.7002C17.3485 23.667 17.4242 23.6172 17.4832 23.5591L22.3232 18.6195C22.3737 18.5697 22.4158 18.5033 22.4411 18.4369C22.4495 18.4203 22.4579 18.3954 22.4579 18.3788C22.4747 18.329 22.4832 18.2792 22.4916 18.2211V18.2294ZM8.76263 21.6165V8.38354C8.76263 7.89374 9.16667 7.49526 9.6633 7.49526H20.3283C20.8249 7.49526 21.229 7.89374 21.229 8.38354V17.5652H17.0202C16.6751 17.5652 16.3889 17.8475 16.3889 18.1879V18.2377H11.4226C11.0774 18.2377 10.7912 18.5199 10.7912 18.8603C10.7912 19.2007 11.0774 19.4829 11.4226 19.4829H16.3889V22.5047H9.6633C9.16667 22.5047 8.76263 22.1063 8.76263 21.6165Z"
            fill="currentColor" />
        <path
            d="M11.4309 15.6226H18.5689C18.914 15.6226 19.2002 15.3404 19.2002 15C19.2002 14.6596 18.914 14.3774 18.5689 14.3774H11.4309C11.0858 14.3774 10.7996 14.6596 10.7996 15C10.7996 15.3404 11.0858 15.6226 11.4309 15.6226Z"
            fill="currentColor" />
        <path
            d="M11.4309 11.7623H18.5689C18.914 11.7623 19.2002 11.4801 19.2002 11.1397C19.2002 10.7993 18.914 10.5171 18.5689 10.5171H11.4309C11.0858 10.5171 10.7996 10.7993 10.7996 11.1397C10.7996 11.4801 11.0858 11.7623 11.4309 11.7623Z"
            fill="currentColor" />
    </g>
</svg>