<svg width="1em" height="1em" viewBox="0 0 30 30" fill="none" xmlns="http://www.w3.org/2000/svg">
<path fill-rule="evenodd" clip-rule="evenodd" d="M16.2283 8.20755C16.2283 7.81678 16.5451 7.5 16.9358 7.5H20.4368C21.5738 7.5 22.5 8.42148 22.5 9.56321V13.2C22.5 13.5908 22.1832 13.9075 21.7925 13.9075C21.4017 13.9075 21.0849 13.5908 21.0849 13.2V9.56321C21.0849 9.20494 20.7942 8.91509 20.4368 8.91509H16.9358C16.5451 8.91509 16.2283 8.59831 16.2283 8.20755Z" fill="currentColor"/>
<path fill-rule="evenodd" clip-rule="evenodd" d="M7.5 9.56321C7.5 8.42623 8.42148 7.5 9.56321 7.5H13.2C13.5908 7.5 13.9075 7.81678 13.9075 8.20755C13.9075 8.59831 13.5908 8.91509 13.2 8.91509H9.56321C9.20494 8.91509 8.91509 9.20584 8.91509 9.56321V13.2C8.91509 13.5908 8.59831 13.9075 8.20755 13.9075C7.81678 13.9075 7.5 13.5908 7.5 13.2V9.56321Z" fill="currentColor"/>
<path fill-rule="evenodd" clip-rule="evenodd" d="M21.7925 16.2283C22.1832 16.2283 22.5 16.5451 22.5 16.9358V20.4368C22.5 21.5737 21.5785 22.5 20.4368 22.5H16.9358C16.5451 22.5 16.2283 22.1832 16.2283 21.7924C16.2283 21.4017 16.5451 21.0849 16.9358 21.0849H20.4368C20.7951 21.0849 21.0849 20.7941 21.0849 20.4368V16.9358C21.0849 16.5451 21.4017 16.2283 21.7925 16.2283Z" fill="currentColor"/>
<path fill-rule="evenodd" clip-rule="evenodd" d="M8.20755 16.2283C8.59831 16.2283 8.91509 16.5451 8.91509 16.9358V20.4368C8.91509 20.795 9.20584 21.0849 9.56321 21.0849H13.2C13.5908 21.0849 13.9075 21.4017 13.9075 21.7924C13.9075 22.1832 13.5908 22.5 13.2 22.5H9.56321C8.42623 22.5 7.5 21.5785 7.5 20.4368V16.9358C7.5 16.5451 7.81678 16.2283 8.20755 16.2283Z" fill="currentColor"/>
</svg>
