<svg width="1em" height="1em" viewBox="0 0 30 30" fill="none" xmlns="http://www.w3.org/2000/svg">
<path d="M13.2087 18.01V10.57C13.2087 9.9775 13.6887 9.5 14.2787 9.5C14.8712 9.5 15.3487 9.98 15.3487 10.57V14.975C15.3487 14.975 15.6162 14.56 16.2937 14.56C16.8012 14.56 17.1387 14.9825 17.3062 15.235C17.3062 15.235 17.5587 14.8975 18.1512 14.8975C18.5737 14.8975 18.9962 15.15 19.1312 15.565C19.1312 15.565 19.4587 15.285 19.9237 15.32C20.4187 15.3575 20.8687 15.9525 20.9362 16.5025C21.0087 17.0875 20.8937 18.615 20.7137 20.2725C20.5462 21.825 19.2312 23 17.6712 23H15.0437C14.3812 23 13.7537 22.705 13.3312 22.1925L10.0137 18.0625C9.64375 17.5675 9.74125 16.8675 10.2337 16.4925C10.7012 16.1375 11.3612 16.2025 11.7512 16.6425L13.2037 18.0075L13.2087 18.01Z" fill="currentColor"/>
<path d="M23.3862 7H6.61125C5.66625 7 4.90125 7.765 4.90125 8.71V12.9725C4.90125 13.265 5.13625 13.5 5.42875 13.5H12.3337V10.57C12.3337 10.46 12.3462 10.3525 12.3637 10.25H7.96125C7.54875 10.25 7.21375 9.915 7.21375 9.5025V8H18.3562V9.5025C18.3562 9.915 18.0212 10.25 17.6087 10.25H16.1962C16.2137 10.355 16.2262 10.4625 16.2262 10.57V13.5H24.5712C24.8637 13.5 25.0987 13.265 25.0987 12.9725V8.71C25.0987 7.765 24.3337 7 23.3887 7H23.3862ZM22.7487 9.91C22.4037 9.91 22.1237 9.63 22.1237 9.285C22.1237 8.94 22.4037 8.66 22.7487 8.66C23.0937 8.66 23.3737 8.94 23.3737 9.285C23.3737 9.63 23.0937 9.91 22.7487 9.91Z" fill="currentColor"/>
</svg>
