<svg width="1em" height="1em" viewBox="0 0 32 32" fill="currentColor" xmlns="http://www.w3.org/2000/svg">
  <path d="M16,29.163c-.37,0-.728-.077-1.063-.23l-8.286-3.77c-.203-.091-.374-.239-.49-.43-.108-.181-.164-.383-.164-.588,0-.446.251-.836.654-1.019l7.241-3.292.738,1.112c.617.922,2.129.926,2.756-.008l.73-1.101,7.233,3.288c.403.183.654.572.654,1.019s-.251.836-.654,1.019l-8.286,3.769c-.336.153-.693.23-1.063.23ZM13.53,21.099l-6.467,2.939c-.045.021-.067.057-.067.107l.066.107,8.288,3.77c.41.188.889.188,1.299,0l8.287-3.77c.056-.025.067-.072.067-.107s-.012-.082-.066-.106h0s-6.459-2.937-6.459-2.937l-.26.392c-.501.746-1.327,1.19-2.213,1.19s-1.711-.442-2.207-1.183l-.268-.403Z"/>
  <path d="M18.372,16.448c-.337-.232-.802-.141-1.03.202l-.594.898v-3.553c0-.419-.332-.757-.743-.757s-.743.338-.743.757v3.548l-.594-.898c-.228-.348-.693-.439-1.03-.202-.342.232-.431.707-.198,1.05l1.952,2.942c.139.207.366.333.614.333s.475-.126.614-.333l1.951-2.942c.228-.348.139-.818-.198-1.05v.005Z"/>
  <path d="M15.148,3.522l-8.291,3.77c-.48.217-.48.908,0,1.125l8.286,3.77c.545.247,1.164.247,1.709,0l8.286-3.77c.481-.217.481-.908,0-1.125l-8.286-3.77c-.545-.247-1.164-.247-1.709,0h.005Z"/>
</svg>