<svg width="24" height="24" viewBox="0 0 24 24" fill="none" xmlns="http://www.w3.org/2000/svg">
<path d="M10.3427 17.0939C10.446 17.0939 10.5502 17.058 10.6346 16.9853C10.8232 16.8236 10.8447 16.5399 10.6831 16.3522L9.56954 15.0545C9.40789 14.8669 9.12412 14.8444 8.93643 15.006C8.74785 15.1677 8.7263 15.4515 8.88794 15.6392L10.0015 16.9368C10.0904 17.0401 10.2161 17.093 10.3427 17.093V17.0939Z" fill="#494949"/>
<path d="M7.27326 17.9086L9.50843 18.4133C9.54166 18.4205 9.57488 18.4241 9.60811 18.4241C9.81376 18.4241 9.99875 18.2822 10.0454 18.0739C10.1002 17.8323 9.94846 17.5916 9.70689 17.5369L7.47172 17.0322C7.23016 16.9774 6.98949 17.1292 6.93471 17.3716C6.87993 17.6132 7.03169 17.8539 7.27326 17.9086Z" fill="#494949"/>
<path d="M15.0636 15.0068C14.875 14.8452 14.5921 14.8667 14.4305 15.0553L13.317 16.353C13.1553 16.5416 13.1769 16.8244 13.3655 16.9861C13.4499 17.0588 13.554 17.0947 13.6573 17.0947C13.7839 17.0947 13.9096 17.0417 13.9986 16.9385L15.1121 15.6408C15.2737 15.4523 15.2522 15.1694 15.0636 15.0077V15.0068Z" fill="#494949"/>
<path d="M13.9555 18.0736C14.0022 18.2819 14.188 18.4238 14.3928 18.4238C14.4251 18.4238 14.4592 18.4202 14.4925 18.413L16.7276 17.9083C16.9692 17.8535 17.121 17.6129 17.0662 17.3713C17.0114 17.1297 16.7716 16.978 16.5292 17.0319L14.294 17.5365C14.0524 17.5913 13.9007 17.832 13.9555 18.0736Z" fill="#494949"/>
<path d="M17.9759 19.102H12.4486V14.5966H12.8239C13.0017 14.5966 13.1625 14.4916 13.2343 14.3299L14.0318 12.5312C14.0318 12.5312 14.0318 12.5294 14.0327 12.5276C14.0399 12.5105 14.0452 12.4917 14.0506 12.4737C14.0533 12.4629 14.0587 12.4522 14.0605 12.4414C14.0623 12.4306 14.0632 12.4198 14.0641 12.409C14.0668 12.3902 14.0695 12.3704 14.0695 12.3516C14.0695 12.3507 14.0695 12.3498 14.0695 12.348V8.46226H15.3797C15.6276 8.46226 15.8287 8.2611 15.8287 8.01325V4.44901C15.8287 4.20116 15.6276 4 15.3797 4C15.1318 4 14.9307 4.20116 14.9307 4.44901V7.56513H9.06843V4.44901C9.06843 4.20116 8.86727 4 8.61942 4C8.37156 4 8.17041 4.20116 8.17041 4.44901V8.01414C8.17041 8.262 8.37156 8.46315 8.61942 8.46315H9.92963V12.3489C9.92963 12.3489 9.92963 12.3507 9.92963 12.3525C9.92963 12.3713 9.93322 12.3911 9.93502 12.4099C9.93681 12.4207 9.93681 12.4315 9.93861 12.4423C9.9413 12.4531 9.94579 12.4638 9.94849 12.4746C9.95387 12.4926 9.95836 12.5114 9.96645 12.5285C9.96645 12.5294 9.96645 12.5303 9.96734 12.5321L10.7648 14.3308C10.8366 14.4933 10.9974 14.5975 11.1752 14.5975H11.5506V19.1029H6.02414C5.77629 19.1029 5.57513 19.304 5.57513 19.5519C5.57513 19.7997 5.77629 20.0009 6.02414 20.0009H17.9759C18.2237 20.0009 18.4249 19.7997 18.4249 19.5519C18.4249 19.304 18.2237 19.1029 17.9759 19.1029V19.102ZM13.1733 8.46405V11.9008H10.8276V8.46405H13.1733ZM11.0683 12.7988H12.9317L12.5321 13.6995H11.467L11.0674 12.7988H11.0683Z" fill="#494949"/>
</svg>
