<svg width="32" height="32" viewBox="0 0 32 32" fill="none" xmlns="http://www.w3.org/2000/svg">
<path d="M15.1481 12.1084L6.85662 15.8781C6.37617 16.0951 6.37617 16.7865 6.85662 17.0035L15.1431 20.7732C15.688 21.0205 16.3071 21.0205 16.8519 20.7732L25.1384 17.0035C25.6189 16.7865 25.6189 16.0951 25.1384 15.8781L16.8519 12.1084C16.3071 11.8611 15.688 11.8611 15.1431 12.1084H15.1481Z" fill="currentColor"/>
<path d="M20.9035 20.652L25.1434 22.5798C25.6238 22.7968 25.6238 23.4882 25.1434 23.7052L16.8569 27.4749C16.312 27.7222 15.6929 27.7222 15.1481 27.4749L6.85662 23.7052C6.37617 23.4882 6.37617 22.7968 6.85662 22.5798L11.0965 20.652L15.1431 22.494C15.688 22.7413 16.3071 22.7413 16.8519 22.494L20.8986 20.652H20.9035Z" fill="currentColor"/>
<path d="M18.3725 5.54287C18.0357 5.31074 17.5701 5.40157 17.3423 5.74473L16.7479 6.64301V3.09029C16.7479 2.67143 16.4161 2.33331 16.005 2.33331C15.5938 2.33331 15.262 2.67143 15.262 3.09029V6.63796L14.6676 5.73969C14.4398 5.39148 13.9742 5.30064 13.6374 5.53783C13.2956 5.76997 13.2065 6.24434 13.4393 6.5875L15.3908 9.52959C15.5295 9.7365 15.7573 9.86266 16.005 9.86266C16.2526 9.86266 16.4804 9.7365 16.6191 9.52959L18.5706 6.5875C18.7985 6.23929 18.7093 5.76997 18.3725 5.53783V5.54287Z" fill="currentColor"/>
</svg>
