<svg width="24" height="24" viewBox="0 0 24 24" fill="none" xmlns="http://www.w3.org/2000/svg">
<path d="M6.77903 12.81C7.17217 12.5925 7.48167 12.2914 7.70751 11.9066C7.93336 11.5246 8.04768 11.0924 8.04768 10.6101C8.04768 10.1277 7.93336 9.7262 7.70751 9.35815C7.48167 8.99011 7.16938 8.70013 6.77346 8.48822C6.37474 8.27632 5.9342 8.17036 5.44347 8.17036H2V15.8241H3.77053V13.1334H4.72689L6.24369 15.8241H8.36554L6.64798 12.8685C6.6926 12.8462 6.73721 12.8295 6.77903 12.8072V12.81ZM3.77053 9.7262H5.11446C5.34867 9.7262 5.54663 9.76523 5.71114 9.84609C5.87564 9.92695 6.00111 10.0413 6.08755 10.1918C6.17399 10.3424 6.2186 10.5153 6.2186 10.7104C6.2186 10.9056 6.17956 11.0813 6.10428 11.2346C6.029 11.388 5.91747 11.5051 5.77527 11.5887C5.63307 11.6724 5.46856 11.7142 5.27896 11.7142H3.77053V9.72341V9.7262Z" fill="#494949"/>
<path d="M11.48 12.6901H14.522V11.1817H11.48V9.75966H15.0127V8.17316H9.67603V15.8269H15.1214V14.2431H11.48V12.6901Z" fill="#494949"/>
<path d="M22 9.81264V8.17316H18.59H17.5946H16.7302V15.8269H18.59V12.8964H21.5511V11.3434H18.59V9.81264H22Z" fill="#494949"/>
</svg>
