<svg width="32" height="32" viewBox="0 0 32 32" fill="none" xmlns="http://www.w3.org/2000/svg">
<path d="M17.467 18.5905C17.1038 18.9362 16.6179 19.1697 16.1085 19.2416L14.0943 19.52C14.0377 19.5289 13.9811 19.5334 13.9292 19.5334C13.5943 19.5334 13.2736 19.3942 13.0519 19.1518C12.8302 18.9093 12.7311 18.586 12.783 18.2717L13.0755 16.3544C13.1509 15.8694 13.3915 15.4069 13.7594 15.0612L19.5613 9.53827H9.18396C7.97642 9.53827 7 10.4677 7 11.6172V22.5059C7 23.6554 7.97642 24.5849 9.18396 24.5849H20.6226C21.8302 24.5849 22.8066 23.6554 22.8066 22.5059V13.5256L17.4717 18.604L17.467 18.5905Z" fill="currentColor"/>
<path d="M22.6557 7.84991L14.4198 15.6898C14.1934 15.9053 14.0519 16.1792 14.0047 16.4801L13.7123 18.3974C13.6934 18.5366 13.816 18.6533 13.9576 18.6309L15.9717 18.3525C16.2877 18.3076 16.5755 18.1684 16.8019 17.9573L25.0377 10.1175L22.6557 7.84991Z" fill="currentColor"/>
<path d="M26.4434 6.39062C25.7642 5.81139 24.7028 5.90119 24.0613 6.51635L23.3255 7.21681L25.7076 9.48436L26.5142 8.71654C27.1934 8.06995 27.1698 7.01027 26.4481 6.39062H26.4434Z" fill="currentColor"/>
</svg>
