<svg width="1em" height="1em" viewBox="0 0 32 32" fill="currentColor" xmlns="http://www.w3.org/2000/svg">
  <path d="M25.143,23.583l-4.24-1.928h-.003l-2.604-1.185-.496.748c-.407.607-1.077.967-1.796.967s-1.389-.359-1.792-.961l-.502-.757-2.614,1.188h0s-4.24,1.928-4.24,1.928c-.24.109-.36.336-.36.563,0,.114.03.227.09.326s.15.183.27.237l.219.1,8.067,3.67c.273.124.565.186.857.185.292,0,.584-.061.857-.185l8.286-3.77c.48-.217.48-.908,0-1.125Z"/>
  <path d="M18.372,16.448c-.337-.232-.802-.141-1.03.202l-.594.898v-3.553c0-.419-.332-.757-.743-.757s-.743.338-.743.757v3.548l-.594-.898c-.228-.348-.693-.439-1.03-.202-.342.232-.431.707-.198,1.05l1.952,2.942c.139.207.366.333.614.333s.475-.126.614-.333l1.951-2.942c.228-.348.139-.818-.198-1.05v.005Z"/>
  <path d="M15.997,12.871c-.361,0-.723-.077-1.06-.229l-8.288-3.77c-.402-.182-.653-.573-.653-1.019s.251-.835.654-1.018l6.19-2.814h-.011l2.107-.956c.641-.291,1.369-.304,2.016-.044l.253.112,8.14,3.703c.402.182.653.571.653,1.017s-.251.836-.654,1.019l-8.286,3.769c-.337.153-.699.229-1.062.229ZM15.421,3.947l-8.357,3.8c-.056.025-.067.072-.067.107s.012.083.066.107l8.288,3.77c.411.187.884.187,1.295,0l8.286-3.769c.056-.025.067-.073.067-.108s-.012-.082-.066-.107l-8.288-3.771c-.388-.176-.829-.185-1.224-.03Z"/>
</svg>