<svg width="24" height="24" viewBox="0 0 24 24" fill="none" xmlns="http://www.w3.org/2000/svg">
<path d="M15.1184 15.9951L11.8945 7.93555H13.9325L15.4868 12.0459C15.5789 12.2839 15.6557 12.4911 15.7171 12.6677C15.7862 12.8442 15.8437 13.0093 15.8898 13.1628C15.9435 13.3163 15.9896 13.4736 16.028 13.6348C16.074 13.7883 16.1239 13.9649 16.1776 14.1645H15.8207C15.8821 13.9035 15.9435 13.6732 16.0049 13.4736C16.0663 13.2664 16.1354 13.0553 16.2122 12.8404C16.2889 12.6178 16.3849 12.353 16.5 12.0459L17.9968 7.93555H20.0002L16.7533 15.9951H15.1184Z" fill="#494949"/>
<path d="M7.45411 16.0642C6.78632 16.0642 6.19144 15.9299 5.66949 15.6612C5.14753 15.3849 4.73688 15.0088 4.43752 14.5329C4.14584 14.057 4 13.512 4 12.898V7.93555H5.98036V12.7943C5.98036 13.086 6.0456 13.3508 6.17609 13.5888C6.30658 13.819 6.48312 14.0033 6.70572 14.1414C6.92832 14.2719 7.17779 14.3372 7.45411 14.3372C7.7458 14.3372 8.00294 14.2719 8.22553 14.1414C8.45581 14.0033 8.64003 13.819 8.77819 13.5888C8.91636 13.3508 8.98544 13.086 8.98544 12.7943V7.93555H10.8967V12.898C10.8967 13.512 10.747 14.057 10.4477 14.5329C10.156 15.0088 9.74918 15.3849 9.22723 15.6612C8.70527 15.9299 8.11423 16.0642 7.45411 16.0642Z" fill="#494949"/>
</svg>
