<svg width="108" height="80" viewBox="0 0 108 80" fill="none" xmlns="http://www.w3.org/2000/svg">
<path d="M96.2559 22.3207H94.868V21.5532C94.868 20.2915 94.0479 19.3032 93.007 19.3032H14.9825C13.9416 19.3032 13.1215 20.2915 13.1215 21.5532V22.3207H11.7337C10.2301 22.3207 9 23.5509 9 25.0544V57.9633C9 59.4668 10.2301 60.6969 11.7337 60.6969H96.2664C97.7699 60.6969 99 59.4668 99 57.9633V25.0439C99 23.5404 97.7699 22.3102 96.2664 22.3102L96.2559 22.3207ZM15.1612 21.5532C15.1612 21.4691 15.1717 21.3955 15.1928 21.3535H92.7862C92.7862 21.3535 92.8178 21.4691 92.8178 21.5532V22.3207H15.1717V21.5532H15.1612ZM96.9287 57.9633C96.9287 58.3418 96.6238 58.6467 96.2453 58.6467H11.7126C11.3341 58.6467 11.0292 58.3418 11.0292 57.9633V25.0439C11.0292 24.6654 11.3341 24.3605 11.7126 24.3605H96.2453C96.6238 24.3605 96.9287 24.6654 96.9287 25.0439V57.9528V57.9633Z" fill="black"/>
<path d="M87.4241 25.0334H70.9381C69.1507 25.0334 67.6998 26.4844 67.6998 28.2718V38.3232C67.6998 40.1105 69.1507 41.5615 70.9381 41.5615H87.4241C89.2115 41.5615 90.6624 40.1105 90.6624 38.3232V28.2718C90.6624 26.4844 89.2115 25.0334 87.4241 25.0334ZM88.6227 38.3232C88.6227 38.9855 88.0865 39.5218 87.4241 39.5218H70.9381C70.2757 39.5218 69.7396 38.9855 69.7396 38.3232V28.2718C69.7396 27.6094 70.2757 27.0732 70.9381 27.0732H87.4241C88.0865 27.0732 88.6227 27.6094 88.6227 28.2718V38.3232Z" fill="black"/>
<path d="M28.0094 49.5205H21.333C19.7139 49.5205 18.3891 50.8453 18.3891 52.4644C18.3891 54.0836 19.7139 55.4084 21.333 55.4084H28.0094C29.6286 55.4084 30.9533 54.0836 30.9533 52.4644C30.9533 50.8453 29.6286 49.5205 28.0094 49.5205ZM28.0094 53.3581H21.333C20.8389 53.3581 20.4393 52.9586 20.4393 52.4644C20.4393 51.9703 20.8389 51.5707 21.333 51.5707H28.0094C28.5036 51.5707 28.9031 51.9703 28.9031 52.4644C28.9031 52.9586 28.5036 53.3581 28.0094 53.3581Z" fill="black"/>
</svg>
