<svg width="108" height="80" viewBox="0 0 108 80" fill="none" xmlns="http://www.w3.org/2000/svg">
<path d="M94.4792 27.6003C95.5252 27.6003 96.3751 26.7613 96.3751 25.7262C96.3751 24.6911 95.5252 23.8521 94.4792 23.8521C93.4331 23.8521 92.5833 24.6911 92.5833 25.7262C92.5833 26.7613 93.4331 27.6003 94.4792 27.6003Z" fill="black"/>
<path d="M98.7832 20.583H9.20592C6.88503 20.583 5 22.4463 5 24.7453V56.3224C5 58.0331 6.4056 59.4169 8.13809 59.4169H99.8619C101.594 59.4169 103 58.0331 103 56.3224V24.7453C103 22.4463 101.115 20.583 98.7941 20.583H98.7832ZM100.625 24.7453V29.714H73.6458V22.9257H77.4703C77.4485 23.0129 77.4376 23.1109 77.4376 23.209C77.4376 23.8736 77.9824 24.4294 78.6689 24.4294H90.404C91.0796 24.4294 91.6353 23.8845 91.6353 23.209C91.6353 23.1109 91.6244 23.0129 91.6026 22.9257H98.7941C99.8074 22.9257 100.636 23.7429 100.636 24.7453H100.625ZM65.3538 23.209V24.048C65.3538 24.048 65.332 24.0916 65.3102 24.0916H19.0125C19.0125 24.0916 18.9689 24.0698 18.9689 24.048V23.209C18.9689 23.209 18.9907 23.1654 19.0125 23.1654H65.3102C65.3102 23.1654 65.3538 23.1872 65.3538 23.209ZM19.0125 26.4342H65.3102C66.6395 26.4342 67.7291 25.3664 67.7182 24.048V23.209C67.7182 23.1109 67.7182 23.0237 67.6965 22.9257H71.2704V29.714H15.4058V22.9257H16.6044C16.5935 23.0129 16.5826 23.1109 16.5826 23.209V24.048C16.5826 25.3664 17.6613 26.4342 19.0016 26.4342H19.0125ZM9.20592 22.9257H13.0414V29.714H7.36446V24.7453C7.36446 23.7429 8.19257 22.9257 9.20592 22.9257ZM99.851 57.0742H8.1272C7.70225 57.0742 7.36446 56.7364 7.36446 56.3115V32.0458H100.625V56.3115C100.625 56.7255 100.276 57.0742 99.8619 57.0742H99.851Z" fill="black"/>
</svg>
