<svg width="108" height="80" viewBox="0 0 108 80" fill="none" xmlns="http://www.w3.org/2000/svg">
<path d="M98.5529 24.6292C97.5529 24.6292 96.7529 25.4292 96.7529 26.4174C96.7529 27.4056 97.5647 28.2056 98.5529 28.2056C99.5412 28.2056 100.353 27.4056 100.353 26.4174C100.353 25.4292 99.5412 24.6292 98.5529 24.6292Z" fill="#040000"/>
<path d="M100.612 21.5H7.37647C4.95294 21.5 3 23.2765 3 25.4647V55.5471C3 57.1823 4.45885 58.5 6.25885 58.5H101.741C103.541 58.5 105 57.1823 105 55.5471V25.4647C105 23.2765 103.035 21.5 100.624 21.5H100.612ZM11.7882 30.1941V23.7353H14.0706C14.0588 23.8176 14.0471 23.9118 14.0471 24.0059V24.8059C14.0471 26.0529 15.3059 27.0765 16.8588 27.0765H70.8706C72.4235 27.0765 73.6824 26.0529 73.6824 24.8059V24.0059C73.6824 23.9118 73.6823 23.8294 73.6588 23.7353H76.6823V30.1941H11.7882ZM70.9176 23.9941V24.7941C70.9176 24.7941 70.8941 24.8412 70.8588 24.8412H16.8588C16.8588 24.8412 16.8 24.8176 16.8 24.7941V23.9941C16.8 23.9941 16.8235 23.9471 16.8588 23.9471H70.8588C70.8588 23.9471 70.9176 23.9706 70.9176 23.9941ZM7.37647 23.7235H9.54117V30.1824H5.45882V25.4529C5.45882 24.5 6.31765 23.7235 7.37647 23.7235ZM38.0353 56.0647C38.0353 55.8059 38.2471 55.6059 38.4941 55.6059H69.4941C69.753 55.6059 69.9529 55.8176 69.9529 56.0647C69.9529 56.1353 69.9412 56.1941 69.9059 56.2529H38.0706C38.0706 56.2529 38.0235 56.1353 38.0235 56.0647H38.0353ZM102.541 55.5353C102.541 55.9353 102.176 56.2529 101.741 56.2529H71.8941C71.8941 56.1941 71.8941 56.1235 71.8941 56.0647C71.8941 54.7353 70.8118 53.6647 69.4941 53.6647H38.4941C37.1647 53.6647 36.0941 54.7471 36.0941 56.0647C36.0941 56.1235 36.0941 56.1941 36.0941 56.2529H6.24707C5.81178 56.2529 5.44708 55.9235 5.44708 55.5353V32.4294H102.518V55.5588L102.541 55.5353ZM102.541 30.1824H78.9412V23.7235H82.3647C82.3412 23.8059 82.3294 23.9 82.3294 23.9941C82.3294 24.6294 82.847 25.1588 83.5059 25.1588H94.6941C95.3412 25.1588 95.8706 24.6412 95.8588 23.9941C95.8588 23.9 95.847 23.8059 95.8235 23.7235H100.624C101.682 23.7235 102.541 24.5 102.541 25.4529V30.1824Z" fill="#040000"/>
</svg>
