<svg width="108" height="80" viewBox="0 0 58 80" fill="none" xmlns="http://www.w3.org/2000/svg">
  <path
    d="M55.3511 61.4844H28.9867V35.2978H32.1511C32.6667 35.2978 33.0844 34.88 33.0844 34.3644V29.8578C33.0844 29.6889 33.04 29.5289 32.9511 29.3778L32.2222 28.1422C32.7022 28.1067 33.0844 27.7067 33.0844 27.2178V12.9156C33.0844 12.4 32.6667 11.9822 32.1511 11.9822H20.6489V1.78667C20.6489 0.8 19.8756 0 18.9244 0H12.6667C11.7156 0 10.9422 0.8 10.9422 1.78667V58.4178H8.26667C7.75111 58.4178 7.33333 58.8356 7.33333 59.3511V61.4844H2.10667C0.942222 61.4844 0 62.4267 0 63.5911V77.8933C0 79.0578 0.942222 80 2.10667 80H55.3511C56.5156 80 57.4578 79.0578 57.4578 77.8933V63.5911C57.4578 62.4267 56.5156 61.4844 55.3511 61.4844ZM25.8667 61.4844H24.2578V59.3511C24.2578 58.8356 23.84 58.4178 23.3244 58.4178H20.6489V35.2978H25.8667V61.4844ZM31.2178 33.4222H18.7911V30.1067L19.9467 28.1511H30.0533L31.2089 30.1067V33.4222H31.2178ZM31.2178 26.2756H18.7911V13.8489H31.2178V26.2756ZM12.8178 1.87556H18.7822V11.9822H17.8578C17.3422 11.9822 16.9244 12.4 16.9244 12.9156V27.2089C16.9244 27.6978 17.3067 28.0978 17.7867 28.1333L17.0578 29.3689C16.9689 29.5111 16.9244 29.68 16.9244 29.8489V34.3556C16.9244 34.8711 17.3422 35.2889 17.8578 35.2889H18.7822V58.4089H12.8178V1.87556ZM9.20889 60.2933H22.3911V61.4844H9.20889V60.2933ZM55.5822 77.8933C55.5822 78.0178 55.4756 78.1244 55.3511 78.1244H2.10667C1.98222 78.1244 1.87556 78.0178 1.87556 77.8933V63.5911C1.87556 63.4667 1.98222 63.36 2.10667 63.36H55.3511C55.4756 63.36 55.5822 63.4667 55.5822 63.5911V77.8933Z"
    fill="black" />
  <path
    d="M49.4757 68.5869C48.2668 68.5869 47.2891 69.5558 47.2891 70.7469C47.2891 71.938 48.2668 72.9069 49.4757 72.9069C50.6846 72.9069 51.6624 71.938 51.6624 70.7469C51.6624 69.5558 50.6846 68.5869 49.4757 68.5869Z"
    fill="black" />
  <path
    d="M43.4843 69.2002C42.622 69.2002 41.9287 69.8935 41.9287 70.738C41.9287 71.5824 42.6309 72.2758 43.4843 72.2758C44.3376 72.2758 45.0487 71.5824 45.0487 70.738C45.0487 69.8935 44.3465 69.2002 43.4843 69.2002Z"
    fill="black" />
  <path
    d="M38.142 69.2002C37.2798 69.2002 36.5864 69.8935 36.5864 70.738C36.5864 71.5824 37.2886 72.2758 38.142 72.2758C38.9953 72.2758 39.7064 71.5824 39.7064 70.738C39.7064 69.8935 39.0042 69.2002 38.142 69.2002Z"
    fill="black" />
</svg>
