<svg width="50" height="50" viewBox="0 0 50 50" fill="none" xmlns="http://www.w3.org/2000/svg">
<path d="M36,25C36,31.07422 31.07422,36 25,36C18.92578,36 14,31.07422 14,25C14,18.92578 18.92578,14 25,14C31.07422,14 36,18.92578 36,25Z"/>
<path d="M25.0059 44L28.5946 37.8378H21.4054L25.0059 44Z"/>
<path d="M12.1622 38.8648L18.3243 36.9477L13.8159 31.6757L12.1622 38.8648Z"/>
<path d="M6 24.9941L12.1622 28.5946V21.4054L6 24.9941Z"/>
<path d="M12.1622 12.1621L13.8054 18.3243L18.3243 13.8054L12.1622 12.1621Z"/>
<path d="M25.0059 6L21.4054 12.1622H28.5946L25.0059 6Z"/>
<path d="M38.8649 12.1621L31.6757 13.8054L36.9478 18.3243L38.8649 12.1621Z"/>
<path d="M44 25.0059L37.8378 21.4054V28.5946L44 25.0059Z"/>
<path d="M38.8649 38.8648L36.9478 31.6757L31.6757 36.9477L38.8649 38.8648Z"/>
</svg>
