<svg width="50" height="50" viewBox="0 0 50 50" fill="none" xmlns="http://www.w3.org/2000/svg">
<path fill-rule="evenodd" clip-rule="evenodd" d="M23.9729 35L23.9544 35H13.2032L13.1892 35L13.1752 35H12.1622V34.9272C8.67819 34.4288 6 31.4326 6 27.8108C6 23.8403 9.21871 20.6216 13.1892 20.6216C13.8969 20.6216 14.5807 20.7239 15.2266 20.9144C16.8217 17.6977 20.1391 15.4865 23.9729 15.4865C28.5248 15.4865 32.3487 18.6036 33.4263 22.8197C33.8548 22.7254 34.3 22.6757 34.7568 22.6757C37.8101 22.6757 40.3448 24.8964 40.8337 27.8108H40.9189V27.8472C42.6609 28.0963 44 29.5945 44 31.4054C44 33.2163 42.6609 34.7144 40.9189 34.9636V35H40.4054H34.7775C34.7706 35 34.7637 35 34.7568 35C34.7498 35 34.7429 35 34.736 35H23.9914L23.9729 35Z"/>
</svg>
