<svg width="1em" height="1em" viewBox="4 4 16 16" fill="currentColor" xmlns="http://www.w3.org/2000/svg" >
  <path d="M18.058,7.947l-3.753-3.753c-.105-.105-.246-.164-.394-.164h-7.409c-.309,0-.558.249-.558.558v14.51c0,.309.249.558.558.558h11.162c.309,0,.558-.249.558-.558v-10.755c0-.148-.059-.291-.164-.396ZM16.934,8.6h-3.282v-3.282l3.282,3.282ZM16.966,18.401H7.199V5.286h5.267v3.767c0,.194.077.381.215.518s.324.215.518.215h3.767v8.615ZM12.641,11.146c0-.077-.063-.14-.14-.14h-.837c-.077,0-.14.063-.14.14v1.883h-1.884c-.077,0-.14.063-.14.14v.837c0,.077.063.14.14.14h1.884v1.884c0,.077.063.14.14.14h.837c.077,0,.14-.063.14-.14v-1.884h1.884c.077,0,.14-.063.14-.14v-.837c0-.077-.063-.14-.14-.14h-1.884v-1.883Z"/>
</svg>