<svg width="32" height="32" viewBox="0 0 32 32" fill="none" xmlns="http://www.w3.org/2000/svg">
<path d="M21.4632 7.94801V8.31193H12.4632C10.7053 8.31193 9.27368 9.76758 9.27368 11.5443V23.4037H8.91579C7.86316 23.4037 7 22.5367 7 21.4557V7.94801C7 6.86697 7.86316 6 8.91579 6H19.5368C20.6 6 21.4632 6.86697 21.4632 7.94801Z" fill="currentColor"/>
<path d="M23.0842 9.59631H12.4632C11.4105 9.59631 10.5368 10.4633 10.5368 11.5443V25.052C10.5368 26.133 11.4105 27 12.4632 27H23.0842C24.1474 27 25 26.133 25 25.052V11.5443C25 10.4633 24.1474 9.59631 23.0842 9.59631ZM20.421 18.8226H18.2842V20.9954C18.2842 21.2844 18.0526 21.5199 17.7789 21.5199C17.5053 21.5199 17.2632 21.2844 17.2632 20.9954V18.8226H15.1263C14.8526 18.8226 14.621 18.5871 14.621 18.3089C14.621 18.0306 14.8526 17.7844 15.1263 17.7844H17.2632V15.6116C17.2632 15.3333 17.4947 15.0978 17.7789 15.0978C18.0632 15.0978 18.2842 15.3333 18.2842 15.6116V17.7844H20.421C20.7053 17.7844 20.9368 18.0199 20.9368 18.3089C20.9368 18.5978 20.7053 18.8226 20.421 18.8226Z" fill="currentColor"/>
</svg>
