<svg width="1em" height="1em" viewBox="90 200 520 520" fill="currentColor" stroke="currentColor" stroke-width="8" stroke-linejoin="round" stroke-linecap="round" >
  <path d="M237.686,477.07C177.289,477.165 128.372,526.083 128.311,586.445L128.311,638.658C128.311,659.168 144.946,675.794 165.482,675.829L250.316,675.829C258.949,675.829 265.938,682.818 265.938,691.451C265.938,700.084 258.949,707.074 250.316,707.074L165.482,707.074C127.706,707.048 97.101,676.408 97.066,638.658L97.066,586.445C97.101,549.179 111.928,513.41 138.294,487.078C164.66,460.712 200.394,445.877 237.686,445.816L369.085,445.816C377.692,445.816 384.708,452.831 384.708,461.438C384.708,470.071 377.692,477.061 369.085,477.061L237.686,477.061L237.686,477.07zM317.33,702.48C314.406,699.548 312.754,695.586 312.754,691.434L312.754,612.517C312.754,608.399 314.398,604.402 317.33,601.47L475.13,443.705C503.019,415.877 548.182,415.903 576.045,443.766C603.908,471.629 603.933,516.792 576.105,544.715L418.34,702.48C415.408,705.404 411.412,707.057 407.294,707.057L328.377,707.057C324.225,707.057 320.262,705.412 317.33,702.48L317.33,702.48zM497.231,465.79L485.329,477.692L542.153,534.482L554.021,522.614C569.704,506.896 569.704,481.473 554.021,465.79C538.122,450.626 513.13,450.626 497.231,465.79L497.231,465.79zM344.008,675.803L400.832,675.803L520.094,556.54L463.27,499.751L344.008,619.013L344.008,675.803zM304.303,207.075C347.823,207.075 387.034,233.286 403.695,273.51C420.356,313.7 411.144,359.995 380.383,390.756C349.579,421.551 303.325,430.739 263.101,414.104C222.911,397.443 196.701,358.197 196.701,314.677C196.762,255.292 244.884,207.136 304.303,207.075L304.303,207.075zM227.955,314.677C227.955,345.559 246.544,373.387 275.073,385.229C303.602,397.037 336.439,390.506 358.29,368.655C380.106,346.839 386.637,313.976 374.829,285.473C363.013,256.944 335.185,238.329 304.303,238.329C262.133,238.39 227.99,272.532 227.955,314.677L227.955,314.677z" />
</svg>