<svg width="1em" height="1em" viewBox="0 0 24 24" fill="none" xmlns="http://www.w3.org/2000/svg">
<path d="M10.145 13.2834H8.24089C8.05015 13.283 7.86725 13.2072 7.73221 13.0725C7.59716 12.9378 7.5209 12.7552 7.51997 12.5645V8.24436C7.52044 8.05331 7.59668 7.87033 7.73177 7.73524C7.86686 7.60015 8.04984 7.52391 8.24089 7.52344H12.5619C12.7527 7.52414 12.9353 7.60037 13.0701 7.73546C13.2049 7.87055 13.2806 8.05355 13.2808 8.24436V10.1476H10.8659C10.6748 10.1476 10.4914 10.2233 10.3561 10.3583C10.2208 10.4933 10.1446 10.6763 10.1441 10.8674L10.145 13.2834Z" fill="currentColor"/>
<path d="M11.3875 10.6684C11.1967 10.6686 11.0139 10.7445 10.879 10.8795C10.7442 11.0145 10.6685 11.1976 10.6685 11.3884V15.7102C10.6685 15.901 10.7442 16.0838 10.879 16.2187C11.0139 16.3536 11.1968 16.4292 11.3875 16.4292H15.7076C15.8985 16.4292 16.0816 16.3535 16.2167 16.2187C16.3519 16.0839 16.4281 15.9011 16.4285 15.7102V11.3884C16.4281 11.1974 16.3518 11.0145 16.2167 10.8795C16.0816 10.7446 15.8986 10.6686 15.7076 10.6684H11.3875Z" fill="currentColor"/>
<path d="M16.8017 18.7199H7.20185C6.6927 18.7194 6.20454 18.5171 5.84443 18.1572C5.48432 17.7973 5.28155 17.3091 5.28084 16.8V7.19995C5.28155 6.6908 5.48432 6.20269 5.84443 5.84275C6.20454 5.4828 6.6927 5.2805 7.20185 5.28003H16.8017C17.3107 5.2805 17.7989 5.483 18.1589 5.84296C18.5189 6.20293 18.7213 6.69088 18.7218 7.19995V16.8C18.7213 17.3091 18.5189 17.7972 18.1589 18.1572C17.7989 18.5172 17.3107 18.7194 16.8017 18.7199ZM7.20185 6.3039C6.96405 6.3039 6.73583 6.39829 6.56752 6.56627C6.3992 6.73425 6.30454 6.96215 6.30406 7.19995V16.8C6.30454 17.0378 6.3992 17.2657 6.56752 17.4337C6.73583 17.6017 6.96405 17.696 7.20185 17.696H16.8017C17.0392 17.6958 17.2672 17.6012 17.4351 17.4332C17.6031 17.2653 17.6975 17.0376 17.6977 16.8V7.19995C17.6975 6.96239 17.6031 6.73469 17.4351 6.5667C17.2672 6.39872 17.0392 6.30414 16.8017 6.3039H7.20185Z" fill="currentColor"/>
<path d="M6.22222 4H4.44444C4.19898 4 4 4.19898 4 4.44444V6.22222C4 6.46768 4.19898 6.66667 4.44444 6.66667H6.22222C6.46768 6.66667 6.66667 6.46768 6.66667 6.22222V4.44444C6.66667 4.19898 6.46768 4 6.22222 4Z" fill="currentColor"/>
<path d="M19.5556 4H17.7778C17.5323 4 17.3333 4.19898 17.3333 4.44444V6.22222C17.3333 6.46768 17.5323 6.66667 17.7778 6.66667H19.5556C19.801 6.66667 20 6.46768 20 6.22222V4.44444C20 4.19898 19.801 4 19.5556 4Z" fill="currentColor"/>
<path d="M6.22222 17.3333H4.44444C4.19898 17.3333 4 17.5323 4 17.7778V19.5556C4 19.801 4.19898 20 4.44444 20H6.22222C6.46768 20 6.66667 19.801 6.66667 19.5556V17.7778C6.66667 17.5323 6.46768 17.3333 6.22222 17.3333Z" fill="currentColor"/>
<path d="M19.5556 17.3333H17.7778C17.5323 17.3333 17.3333 17.5323 17.3333 17.7778V19.5556C17.3333 19.801 17.5323 20 17.7778 20H19.5556C19.801 20 20 19.801 20 19.5556V17.7778C20 17.5323 19.801 17.3333 19.5556 17.3333Z" fill="currentColor"/>
</svg>
