<svg width="1em" height="1em" viewBox="0 0 50 50" fill="currentColor" xmlns="http://www.w3.org/2000/svg" stroke="currentColor" stroke-width="1" stroke-linecap="round" stroke-linejoin="round">
<path d="M24.376 47.367 8.551 38.234C8.18 38.019 7.953 37.622 7.956 37.192L8.01 30.917C8.01 30.813 8.023 30.712 8.048 30.616L.616 26.327C.277 26.129.056 25.777.028 25.385 0 24.993.166 24.613.473 24.368L7.276 19.01.473 13.651C.166 13.407 0 13.027.028 12.635.056 12.243.277 11.891.616 11.693L16.44 2.56C16.862 2.316 17.391 2.354 17.774 2.656L25.025 8.356 32.276 2.656C32.66 2.354 33.188 2.316 33.61 2.56L49.435 11.693C49.773 11.891 49.994 12.243 50.022 12.635 50.05 13.027 49.884 13.407 49.578 13.651L42.774 19.01 49.578 24.368C49.884 24.613 50.05 24.993 50.022 25.385 49.994 25.777 49.773 26.129 49.435 26.327L42.001 30.617C42.027 30.714 42.04 30.815 42.04 30.917L42.093 37.204 42.094 37.204C42.098 37.634 41.871 38.031 41.499 38.246L25.674 47.367C25.493 47.472 25.288 47.527 25.079 47.527 25.061 47.527 25.043 47.527 25.025 47.526 25.007 47.527 24.989 47.527 24.971 47.527 24.762 47.527 24.557 47.472 24.376 47.367L24.376 47.367zM33.61 35.459C33.429 35.565 33.224 35.62 33.015 35.62 32.747 35.62 32.487 35.53 32.276 35.364L26.223 30.605 26.263 44.282 39.706 36.543 39.668 31.963 33.61 35.459zM25.069 11.276 11.609 19.026 25.025 26.769 38.469 19.01 25.069 11.276zM10.344 36.502 23.787 44.241 23.827 30.605 17.774 35.364C17.564 35.53 17.303 35.62 17.035 35.62 16.827 35.62 16.621 35.565 16.44 35.459L10.382 31.963 10.344 36.502zM46.702 12.877 33.116 5.025 27.175 9.708 40.769 17.559 46.702 12.877zM3.342 25.142 16.934 32.995 22.888 28.297 9.302 20.445 3.342 25.142zM3.33 12.877 9.284 17.575 22.905 9.722 16.952 5.025 3.33 12.877zM27.145 28.297 33.098 32.995 46.72 25.142 40.766 20.444 27.145 28.297z" ></path>
</svg>