<svg width="1em" height="1em" fill="currentColor" xmlns="http://www.w3.org/2000/svg" viewBox="4 4 16 16">
  <path d="M11.106,4.195h-6.26c-.36,0-.65.291-.65.65v6.26c0,.089.073.163.163.163h6.748c.089,0,.163-.073.163-.163v-6.748c0-.089-.073-.163-.163-.163ZM9.967,9.967h-4.472v-4.472h4.472v4.472ZM7.163,8.463h1.138c.089,0,.163-.073.163-.163v-1.138c0-.089-.073-.163-.163-.163h-1.138c-.089,0-.163.073-.163.163v1.138c0,.089.073.163.163.163ZM11.106,12.732h-6.748c-.089,0-.163.073-.163.163v6.26c0,.36.291.65.65.65h6.26c.089,0,.163-.073.163-.163v-6.748c0-.089-.073-.163-.163-.163ZM9.967,18.504h-4.472v-4.472h4.472v4.472ZM7.163,17h1.138c.089,0,.163-.073.163-.163v-1.138c0-.089-.073-.163-.163-.163h-1.138c-.089,0-.163.073-.163.163v1.138c0,.089.073.163.163.163ZM19.155,4.195h-6.26c-.089,0-.163.073-.163.163v6.748c0,.089.073.163.163.163h6.748c.089,0,.163-.073.163-.163v-6.26c0-.36-.291-.65-.65-.65ZM18.504,9.967h-4.472v-4.472h4.472v4.472ZM15.699,8.463h1.138c.089,0,.163-.073.163-.163v-1.138c0-.089-.073-.163-.163-.163h-1.138c-.089,0-.163.073-.163.163v1.138c0,.089.073.163.163.163ZM19.642,12.732h-.976c-.089,0-.163.073-.163.163v2.724h-1.585v-2.724c0-.089-.073-.163-.163-.163h-3.862c-.089,0-.163.073-.163.163v6.748c0,.089.073.163.163.163h.976c.089,0,.163-.073.163-.163v-4.959h1.585v2.073c0,.089.073.163.163.163h3.862c.089,0,.163-.073.163-.163v-3.862c0-.089-.073-.163-.163-.163ZM16.756,18.504h-.976c-.089,0-.163.073-.163.163v.976c0,.089.073.163.163.163h.976c.089,0,.163-.073.163-.163v-.976c0-.089-.073-.163-.163-.163ZM19.642,18.504h-.976c-.089,0-.163.073-.163.163v.976c0,.089.073.163.163.163h.976c.089,0,.163-.073.163-.163v-.976c0-.089-.073-.163-.163-.163Z"/>
</svg>