<svg width="1em" height="1em" viewBox="0 0 50 50" fill="currentColor" xmlns="http://www.w3.org/2000/svg">
  <path
    d="M50 38.329 50 45C50 47.761 47.761 50 45 50L38.329 50C37.002 50 35.73 49.472 34.792 48.535 33.855 47.597 33.329 46.325 33.329 45L33.329 38.329C33.329 35.566 35.566 33.329 38.329 33.329L40 33.329 40 20 43.327 20 43.327 33.329 45 33.329C47.758 33.337 49.992 35.571 50 38.329L50 38.329zM46.671 38.329C46.671 37.405 45.924 36.656 45 36.656L38.329 36.656C37.884 36.652 37.455 36.827 37.142 37.142 36.827 37.455 36.652 37.884 36.656 38.329L36.656 45C36.652 45.445 36.827 45.872 37.142 46.187 37.455 46.502 37.884 46.677 38.329 46.671L45 46.671C45.445 46.677 45.872 46.502 46.187 46.187 46.502 45.872 46.677 45.445 46.671 45L46.671 38.329zM0 11.671 0 5C0 2.239 2.239 0 5 0L11.671 0C14.429.009 16.663 2.242 16.671 5L16.671 11.671C16.671 12.998 16.145 14.27 15.208 15.208 14.27 16.145 12.998 16.671 11.671 16.671L10 16.671 10 30 6.673 30 6.673 16.671 5 16.671C2.239 16.671 0 14.434 0 11.671L0 11.671zM3.329 11.671C3.324 12.116 3.498 12.545 3.813 12.858 4.128 13.173 4.555 13.348 5 13.344L11.656 13.344C12.1 13.348 12.53 13.173 12.843 12.858 13.158 12.545 13.332 12.116 13.329 11.671L13.329 5C13.329 4.083 12.59 3.337 11.671 3.329L5 3.329C4.555 3.324 4.128 3.498 3.813 3.813 3.498 4.128 3.324 4.555 3.329 5L3.329 11.671zM50 5 50 11.671C50 12.998 49.472 14.27 48.535 15.208 47.597 16.145 46.325 16.671 45 16.671L38.329 16.671C37.002 16.671 35.73 16.145 34.792 15.208 33.855 14.27 33.329 12.998 33.329 11.671L33.329 10 20 10 20 6.673 33.329 6.673 33.329 5C33.329 2.239 35.566 0 38.329 0L45 0C47.758.009 49.992 2.242 50 5L50 5zM46.671 5C46.671 4.557 46.495 4.131 46.182 3.818 45.869 3.505 45.443 3.329 45 3.329L38.329 3.329C37.884 3.324 37.455 3.498 37.142 3.813 36.827 4.128 36.652 4.555 36.656 5L36.656 11.671C36.652 12.116 36.827 12.545 37.142 12.858 37.455 13.173 37.884 13.348 38.329 13.344L45 13.344C45.445 13.348 45.872 13.173 46.187 12.858 46.502 12.545 46.677 12.116 46.671 11.671L46.671 5zM16.671 40 30 40 30 43.327 16.671 43.327 16.671 45C16.671 46.325 16.145 47.597 15.208 48.535 14.27 49.472 12.998 50 11.671 50L5 50C2.239 50 0 47.761 0 45L0 38.329C0 35.566 2.239 33.329 5 33.329L11.671 33.329C14.429 33.337 16.663 35.571 16.671 38.329L16.671 40zM13.344 38.344C13.344 37.42 12.595 36.671 11.671 36.671L5 36.671C4.559 36.668 4.133 36.841 3.818 37.151 3.505 37.462 3.329 37.886 3.329 38.329L3.329 45C3.324 45.445 3.498 45.872 3.813 46.187 4.128 46.502 4.555 46.677 5 46.671L11.656 46.671C12.1 46.677 12.53 46.502 12.843 46.187 13.158 45.872 13.332 45.445 13.329 45L13.344 38.344z" />
</svg>
