
<svg width="1em" height="1em" viewBox="4 4 16 16" fill="currentColor" xmlns="http://www.w3.org/2000/svg">
  <path d="M9.449,5.965l2.941.591c.033.007.066.01.1.01.232,0,.441-.164.489-.401.055-.271-.121-.535-.392-.589l-2.941-.591c-.264-.056-.534.12-.589.392-.055.271.121.535.392.589Z"/>
  <path d="M10.243,18.307l-2.957.506c-.153.026-.271.122-.343.246v-1.19c0-.194-.077-.38-.214-.517-.137-.137-.323-.214-.516-.214h-.633v-.117c0-.276-.224-.5-.5-.5s-.5.224-.5.5v.117h-.632c-.194,0-.379.077-.516.214-.137.137-.214.323-.214.517v2.263c0,.194.077.38.214.517.137.137.322.214.516.215h2.265c.194,0,.379-.078.516-.215.137-.137.214-.323.214-.517v-.567c.089.147.25.242.426.242.028,0,.057-.002.085-.007l2.957-.506c.272-.047.455-.306.409-.577-.047-.273-.31-.454-.577-.409ZM4.58,17.945h1.559v2.118h-2.118v-2.118h.559Z"/>
  <path d="M5.08,11.52c-.276,0-.5.224-.5.5v3c0,.276.224.5.5.5s.5-.224.5-.5v-3c0-.276-.224-.5-.5-.5Z"/>
  <path d="M15.171,17.463l-2.957.506c-.272.047-.455.306-.409.577.042.244.254.416.492.416.028,0,.057-.002.085-.007l2.957-.506c.272-.047.455-.306.409-.577-.047-.273-.31-.456-.577-.409Z"/>
  <path d="M14.352,6.949l2.531.508v1.265c0,.194.077.38.214.517.137.137.322.214.516.215h.835l.262,1.631c.04.246.252.421.493.421.026,0,.054-.002.08-.006.272-.044.458-.3.415-.573l-.236-1.473h.22c.103,0,.199-.03.29-.075.371-.146.636-.503.636-.927v-1.724c0-.552-.448-1-1-1h-1.994c-.194,0-.379.077-.516.214-.132.132-.204.309-.21.495l-2.338-.47c-.268-.056-.534.12-.589.392-.055.271.121.535.392.589ZM19.803,6.536v2.118h-2.118v-2.118h2.118Z"/>
  <path d="M3.948,6.863h.664c-.017.05-.032.102-.032.158v3c0,.276.224.5.5.5s.5-.224.5-.5v-3c0-.056-.015-.107-.032-.158h.665c.194,0,.379-.078.516-.215.137-.137.214-.323.214-.517v-.67l.545.109c.033.007.066.01.1.01.232,0,.441-.164.489-.401.055-.271-.121-.535-.392-.589l-.742-.149v-.573c0-.194-.077-.38-.214-.517-.137-.137-.323-.214-.516-.214h-2.265c-.194,0-.379.077-.516.214-.137.137-.214.323-.214.517v2.263c0,.194.077.38.214.517.137.137.322.214.516.215ZM6.139,3.945v2.118h-2.118v-2.118h2.118Z"/>
  <path d="M21.452,15.837c-.137-.137-.323-.214-.516-.214h-.484l-.437-2.722c-.045-.273-.305-.459-.573-.415-.272.044-.458.3-.415.573l.412,2.564h-.767c-.194,0-.379.077-.516.214-.137.137-.214.323-.214.517v.636l-.798.137c-.272.047-.455.306-.409.577.042.244.254.416.492.416.028,0,.057-.002.085-.007l.63-.108v.612c0,.194.077.38.214.517.137.137.322.214.516.215h2.265c.194,0,.38-.078.516-.215.137-.137.214-.323.214-.517v-2.263c0-.194-.077-.38-.214-.517ZM18.744,16.852v-.422h2.118v2.118h-2.118v-1.696Z"/>
  <path d="M7.604,7.938v8.683c0,.146.064.286.177.382.091.077.206.118.323.118.027,0,.055-.002.082-.007l8.957-1.484c.131-.021.247-.095.324-.202s.108-.242.087-.373l-.935-5.638c-.034-.206-.192-.37-.397-.409l-8.022-1.56c-.147-.029-.298.01-.414.105-.115.095-.182.236-.182.386ZM8.604,8.545l7.086,1.378.796,4.803-7.882,1.306v-7.487Z"/>
</svg>