<svg width="32" height="32" viewBox="0 0 32 32" fill="none" xmlns="http://www.w3.org/2000/svg">
<path d="M24.9899 9.28682H21.513V8.27015C21.513 6.46738 20.0245 5.0105 18.2063 5.0105H13.7937C11.9649 5.0105 10.487 6.47786 10.487 8.27015V9.28682H7.0101C6.4572 9.28682 6 9.73751 6 10.2825C6 10.8276 6.4572 11.2782 7.0101 11.2782H8.25412L10.1467 25.1868C10.285 26.2244 11.1887 27 12.252 27H19.7374C20.8006 27 21.7044 26.2244 21.8426 25.1868L23.7352 11.2782H24.9793C25.5322 11.2782 25.9894 10.8276 25.9894 10.2825C25.9894 9.73751 25.5322 9.28682 24.9793 9.28682H24.9899ZM12.0712 8.27015C12.0712 7.33732 12.8368 6.58268 13.7831 6.58268H18.1956C19.1419 6.58268 19.9075 7.33732 19.9075 8.27015V9.28682H12.0606V8.27015H12.0712ZM13.092 23.6565C13.092 23.6565 13.0494 23.6565 13.0282 23.6565C12.7624 23.6565 12.5391 23.4679 12.4965 23.1954L11.2525 13.7623C11.21 13.4793 11.4226 13.2173 11.7097 13.1753C11.9968 13.1334 12.2626 13.343 12.3052 13.626L13.5492 23.0591C13.5917 23.3421 13.3791 23.6041 13.092 23.646V23.6565ZM16.5263 23.2163C16.5263 23.5098 16.2924 23.7404 15.9947 23.7404C15.697 23.7404 15.4631 23.5098 15.4631 23.2163V13.7832C15.4631 13.4898 15.697 13.2592 15.9947 13.2592C16.2924 13.2592 16.5263 13.4898 16.5263 13.7832V23.2163ZM19.4928 23.2163C19.4609 23.4783 19.227 23.6775 18.9612 23.6775C18.9399 23.6775 18.9187 23.6775 18.8974 23.6775C18.6103 23.6356 18.3977 23.3735 18.4402 23.0905L19.6842 13.6575C19.7161 13.3745 19.9819 13.1649 20.2796 13.2068C20.5667 13.2487 20.7794 13.5107 20.7368 13.7937L19.4928 23.2268V23.2163Z" fill="currentColor"/>
</svg>
