<svg width="1em" height="1em" viewBox="0 0 24 24" fill="none" xmlns="http://www.w3.org/2000/svg">
<path fill-rule="evenodd" clip-rule="evenodd" d="M4.05683 4.88898C4.05683 4.39804 4.45482 4.00005 4.94577 4.00005H6.47829C6.96923 4.00005 7.36722 4.39804 7.36722 4.88898V5.65527H12.771V4.88898C12.771 4.39804 13.169 4.00005 13.66 4.00005H15.1925C15.6834 4.00005 16.0814 4.39804 16.0814 4.88898V6.4215C16.0814 6.91245 15.6834 7.31044 15.1925 7.31044H14.3719V9.51777H16.6327V9.30261C16.6327 8.81597 17.0237 8.42067 17.5087 8.41377H19.067C19.5503 8.42064 19.9403 8.81319 19.943 9.29748V10.8403C19.9403 11.327 19.5464 11.721 19.0598 11.7241H18.2364V16.6904H19.0941C19.5648 16.7113 19.9404 17.0982 19.943 17.5733V19.1161C19.9403 19.6047 19.5434 19.9999 19.0541 19.9999H17.5216C17.0307 19.9999 16.6327 19.602 16.6327 19.111V18.3457H11.0112V19.1462C10.9927 19.6208 10.6021 19.9999 10.1229 19.9999H8.59038C8.1133 19.9999 7.72401 19.6241 7.70239 19.1524V17.5371C7.7234 17.0786 8.0917 16.7108 8.55035 16.6904H9.40823V14.4823H7.36722V14.6975C7.36722 15.1745 6.99152 15.5637 6.51989 15.5855H4.90417C4.43254 15.5637 4.05683 15.1745 4.05683 14.6975V13.165C4.05683 12.7039 4.40781 12.3249 4.85715 12.2804H5.54486V7.31044H4.94577C4.45482 7.31044 4.05683 6.91245 4.05683 6.4215V4.88898ZM10.4467 14.4823V16.7504C10.6942 16.8472 10.8877 17.0519 10.9695 17.3066H16.675C16.7567 17.0521 16.95 16.8475 17.1973 16.7506V11.663C16.8667 11.5334 16.6327 11.2116 16.6327 10.8351V10.5569H14.3719V12.2804H15.2811C15.7304 12.3249 16.0814 12.7039 16.0814 13.165V14.6975C16.0814 15.1745 15.7057 15.5637 15.2341 15.5855H13.6184C13.1467 15.5637 12.771 15.1745 12.771 14.6975V14.4823H10.4467ZM6.65332 6.60022H4.77063V4.71753H6.65332V6.60022ZM19.2292 11.0129H17.3466L17.3429 9.13017H19.2292V11.0129ZM10.2971 19.2897H8.41445V17.4079H10.2971V19.2897ZM17.3466 19.2897H19.2292V17.4079H17.3429L17.3466 19.2897ZM13.4858 6.60022H15.3685V4.71753H13.4858V6.60022ZM6.65332 14.8743H4.77063V12.9916H6.65332V14.8743ZM13.4858 14.8743H15.3685V12.9916H13.4858V14.8743Z" fill="currentColor"/>
</svg>
