<svg width="1em" height="1em" viewBox="0 0 24 24" fill="none" xmlns="http://www.w3.org/2000/svg">
<path d="M10.5084 5H7.20355C6.95809 5 6.75911 5.19898 6.75911 5.44444V16.4089C6.75911 16.6543 6.95809 16.8533 7.20355 16.8533H10.5084C10.7539 16.8533 10.9529 16.6543 10.9529 16.4089V5.44444C10.9529 5.19898 10.7539 5 10.5084 5Z" fill="currentColor"/>
<path d="M16.7973 8.46666H13.4924C13.247 8.46666 13.048 8.66564 13.048 8.9111V16.4089C13.048 16.6543 13.247 16.8533 13.4924 16.8533H16.7973C17.0428 16.8533 17.2418 16.6543 17.2418 16.4089V8.9111C17.2418 8.66564 17.0428 8.46666 16.7973 8.46666Z" fill="currentColor"/>
<path d="M4 18.3075C4 18.1145 4.0768 17.9293 4.21332 17.7928C4.34985 17.6563 4.535 17.5795 4.72808 17.5795H19.2739C19.3694 17.5796 19.4637 17.5986 19.5519 17.6352C19.64 17.6719 19.7203 17.7256 19.7878 17.7932C19.8552 17.8608 19.9087 17.9411 19.9451 18.0293C19.9815 18.1176 20.0001 18.212 20 18.3075C20.0001 18.403 19.9815 18.4977 19.9451 18.586C19.9087 18.6742 19.8552 18.7543 19.7878 18.8219C19.7203 18.8895 19.64 18.9432 19.5519 18.9798C19.4637 19.0165 19.3694 19.0355 19.2739 19.0356H4.72808C4.535 19.0356 4.34985 18.9588 4.21332 18.8223C4.0768 18.6858 4 18.5006 4 18.3075Z" fill="currentColor"/>
</svg>
