<svg width="1em" height="1em" viewBox="0 0 24 24" fill="none" xmlns="http://www.w3.org/2000/svg">
<path d="M10.5084 7.18222H7.20354C6.95808 7.18222 6.75909 7.38121 6.75909 7.62666V18.5911C6.75909 18.8366 6.95808 19.0356 7.20354 19.0356H10.5084C10.7539 19.0356 10.9529 18.8366 10.9529 18.5911V7.62666C10.9529 7.38121 10.7539 7.18222 10.5084 7.18222Z" fill="currentColor"/>
<path d="M16.7973 7.18222H13.4924C13.247 7.18222 13.048 7.38121 13.048 7.62666V15.1244C13.048 15.3699 13.247 15.5689 13.4924 15.5689H16.7973C17.0428 15.5689 17.2418 15.3699 17.2418 15.1244V7.62666C17.2418 7.38121 17.0428 7.18222 16.7973 7.18222Z" fill="currentColor"/>
<path d="M4 5.72797C4.00024 5.92074 4.07702 6.10555 4.21332 6.24186C4.34963 6.37817 4.53444 6.45495 4.72721 6.45519H19.273C19.4658 6.45519 19.6508 6.37844 19.7871 6.24208C19.9235 6.10572 20 5.92082 20 5.72797C20 5.53505 19.9234 5.34994 19.7871 5.21343C19.6508 5.07693 19.4659 5.00013 19.273 4.99989H4.72721C4.53429 5.00013 4.34922 5.07693 4.21289 5.21343C4.07656 5.34994 4 5.53505 4 5.72797Z" fill="currentColor"/>
</svg>
