<svg width="1em" height="1em" viewBox="0 0 24 24" fill="none" xmlns="http://www.w3.org/2000/svg">
<path d="M4.00024 5.76449C3.99546 5.56673 4.06935 5.37518 4.20569 5.23184C4.34202 5.08851 4.52967 5.00512 4.72742 5L19.2726 5C19.4703 5.00512 19.658 5.08851 19.7943 5.23184C19.9306 5.37518 20.0045 5.56673 19.9998 5.76449C20.0022 5.86245 19.9854 5.95991 19.9502 6.05135C19.915 6.1428 19.8621 6.22642 19.7946 6.29741C19.7271 6.36841 19.6462 6.42539 19.5566 6.46513C19.4671 6.50486 19.3706 6.52657 19.2726 6.52899L4.72564 6.52899C4.52812 6.52363 4.34079 6.44015 4.20479 6.29682C4.06879 6.15348 3.99522 5.96202 4.00024 5.76449Z" fill="currentColor"/>
<path d="M4.00024 17.8393C3.99546 17.6415 4.06935 17.4499 4.20569 17.3066C4.34202 17.1633 4.52967 17.0799 4.72742 17.0748L19.2726 17.0748C19.4703 17.0799 19.658 17.1633 19.7943 17.3066C19.9306 17.4499 20.0045 17.6415 19.9998 17.8393C20.0022 17.9372 19.9854 18.0347 19.9502 18.1261C19.915 18.2176 19.8621 18.3012 19.7946 18.3722C19.7271 18.4432 19.6462 18.5002 19.5566 18.5399C19.4671 18.5796 19.3706 18.6013 19.2726 18.6038L4.72564 18.6038C4.52812 18.5984 4.34079 18.5149 4.20479 18.3716C4.06879 18.2282 3.99522 18.0368 4.00024 17.8393Z" fill="currentColor"/>
<path d="M18.7108 13.5411L18.7108 10.0617C18.7108 9.81623 18.5118 9.61723 18.2663 9.61723L5.73104 9.61723C5.48556 9.61723 5.28656 9.81623 5.28656 10.0617L5.28656 13.5411C5.28656 13.7866 5.48556 13.9856 5.73104 13.9856L18.2663 13.9856C18.5118 13.9856 18.7108 13.7866 18.7108 13.5411Z" fill="currentColor"/>
</svg>
