<svg xmlns="http://www.w3.org/2000/svg" viewBox="0 0 80 80">
<path d="M51.63 7.28l-11.5-3.82c-.32-.11-.68-.04-.94.17l-16.73 13.51c-.25.2-.38.5-.37.82l1.89 50.12c.01.34.19.65.48.82l11.87 7.13c.16.09.34.14.51.14.17 0 .33-.04.48-.12l16.4-9.01c.28-.15.47-.43.51-.75l5.28-40.8c.02-.17 0-.35-.07-.52l-7.2-17.11c-.11-.27-.33-.47-.61-.56ZM40.53 5.69l9.57 3.18-4.4 16.06-7.15-11.07 1.97-8.17ZM38.15 7.03l-1.55 6.4-9.33 6.22-2.53-1.8 13.41-10.83ZM24.16 19.9l2.07 1.47-1.13 23.4-.94-24.87ZM28.23 21.42l8.97-5.98 7.88 12.19-1.32 36.68-17.73 2.56 2.2-45.44ZM36.55 73.82l-8.65-5.2 13.55-1.96-4.9 7.15ZM40.04 72.26l4.43-6.48 5.72.9-10.15 5.58ZM52.38 65l-6.61-1.03 1.28-35.75 10.3-1.67-4.98 38.46ZM47.46 26.12l4.06-14.84 5.59 13.27-9.65 1.56Z"/>
</svg>