<svg xmlns="http://www.w3.org/2000/svg" viewBox="0 0 80 80">
<path d="M58.59 58.03c.88-13.69-13.37-19.92-18.54-22.96-7.51-4.42-10.65-12.64-7.81-20.02 0 0-9.41 8.54-6.05 21.01 3.11 11.56 22.73 12.38 21.06 23.87-1.01 6.93-8.47 4.11-10.42-.65-2.51-6.1-6.76-10.33-10.02-12.29 0 0 1.32 3.97-.44 5.74 0 0-3.97.88-5.3-11.92 0 0-13.25 29.58 16.41 33.45 0 0 19.96 1.86 21.12-16.23ZM35.03 19.37c-.08 4.22 1.59 8.87 9.43 13.05 6.62 3.53 8.83 5.74 8.83 5.74.22.84 2.77-9-7.95-16.34-8.39-5.74-2.9-17.85-2.9-17.85 0 0-7.26 6.81-7.42 15.4Z"/>
</svg>