<svg xmlns="http://www.w3.org/2000/svg" viewBox="0 0 80 80">
<path d="M67.8 28.1c0 0 0-.02 0-.03 0 0-.01-.02-.02-.02-4.72-11.52-16.05-19.65-29.25-19.65-17.43 0-31.61 14.18-31.61 31.61 0 17.43 14.18 31.61 31.61 31.61 17.43 0 31.61-14.18 31.61-31.61 0-4.21-.83-8.22-2.33-11.9ZM65.51 27.85c-.81.23-1.66.35-2.53.35-4.51 0-8.18-3.17-8.18-7.07 0-1.66.66-3.23 1.87-4.49 3.79 2.95 6.84 6.79 8.83 11.22ZM38.52 69.61c-16.33 0-29.61-13.28-29.61-29.61 0-16.33 13.28-29.61 29.61-29.61 6.12 0 11.81 1.87 16.53 5.06-1.45 1.61-2.24 3.58-2.24 5.68 0 5 4.56 9.07 10.18 9.07 1.14 0 2.24-.17 3.3-.49 1.19 3.21 1.84 6.67 1.84 10.28 0 16.33-13.28 29.61-29.61 29.61ZM31.1 26.24c0-3.22-2.62-5.84-5.84-5.84-3.22 0-5.84 2.62-5.84 5.84 0 3.22 2.62 5.84 5.84 5.84 3.22 0 5.84-2.62 5.84-5.84ZM21.41 26.24c0-2.12 1.72-3.84 3.84-3.84 2.12 0 3.84 1.72 3.84 3.84 0 2.12-1.72 3.84-3.84 3.84-2.12 0-3.84-1.72-3.84-3.84ZM39.96 27.94c1.04 0 2.02-.41 2.76-1.14.74-.74 1.14-1.72 1.14-2.76 0-1.04-.41-2.02-1.14-2.76-1.47-1.47-4.04-1.47-5.52 0-.74.74-1.14 1.72-1.14 2.76 0 1.04.41 2.02 1.14 2.76.74.74 1.72 1.14 2.76 1.14ZM38.61 22.69c.36-.36.84-.56 1.35-.56.51 0 .99.2 1.35.56.36.36.56.84.56 1.35 0 .51-.2.99-.56 1.34-.72.72-1.97.72-2.69 0-.36-.36-.56-.84-.56-1.34 0-.5.2-.99.56-1.35ZM46.48 22.38c-.5.24-.71.84-.47 1.33.59 1.22.15 2.99-1.08 4.31-.95 1.02-2.21 1.58-3.34 1.56-.54-.02-1.01.41-1.03.96-.02.55.41 1.01.96 1.03.06 0 .12 0 .18 0 1.67 0 3.41-.81 4.7-2.2 1.8-1.93 2.37-4.56 1.41-6.54-.24-.5-.84-.71-1.34-.47ZM33.23 44.3c-4.27 1.84-6.26 6.81-4.42 11.08.89 2.07 2.53 3.67 4.62 4.5 1.01.4 2.07.6 3.13.6 1.13 0 2.26-.23 3.33-.69 2.07-.89 3.67-2.53 4.5-4.62.83-2.09.8-4.39-.08-6.46-1.84-4.27-6.81-6.25-11.08-4.42ZM42.54 54.43c-.64 1.6-1.86 2.85-3.44 3.53-1.58.68-3.33.7-4.92.07-1.6-.64-2.85-1.86-3.53-3.44-1.4-3.26.11-7.05 3.37-8.45 3.26-1.4 7.05.11 8.45 3.37.68 1.58.7 3.33.07 4.92ZM37.35 62.4c-3.45.94-8.13-.57-10.39-5.28-1.4-2.91-1.61-6.18-.56-8.53.23-.5 0-1.1-.5-1.32-.51-.23-1.1 0-1.32.5-1.3 2.92-1.08 6.73.58 10.21 2.21 4.61 6.4 6.67 10.17 6.67.88 0 1.74-.11 2.55-.33.53-.15.85-.7.7-1.23-.15-.53-.7-.85-1.23-.7ZM56.52 36.16c-2.99 0-5.42 2.43-5.42 5.42 0 2.99 2.43 5.42 5.42 5.42 2.99 0 5.42-2.43 5.42-5.42 0-2.99-2.43-5.42-5.42-5.42ZM56.52 45c-1.89 0-3.42-1.54-3.42-3.42 0-1.88 1.54-3.42 3.42-3.42 1.88 0 3.42 1.54 3.42 3.42 0 1.88-1.54 3.42-3.42 3.42ZM16.12 34.91c-2.33 0-4.23 1.9-4.23 4.23 0 2.33 1.9 4.23 4.23 4.23 2.33 0 4.23-1.9 4.23-4.23 0-2.33-1.9-4.23-4.23-4.23ZM16.12 41.37c-1.23 0-2.23-1-2.23-2.23 0-1.23 1-2.23 2.23-2.23 1.23 0 2.23 1 2.23 2.23 0 1.23-1 2.23-2.23 2.23Z"/>
</svg>