<svg xmlns="http://www.w3.org/2000/svg" viewBox="0 0 80 80">
<path d="M44.51 69.95c21.42-3.08 20.98-24.31 14.15-33.38-8.02-10.66-5.7-14.47-5.7-14.47 0 0-3.98 2.27-3.49 5.96.54 4.06-.04 4.02-.04 4.02-1.29-2.26-2.26-3.05-3.57-5.13-1.49-2.36-2.12-4.66-1.19-7.87 2.59-8.95-4.71-14.9-4.71-14.9 0 0 3.16 7.64-2.03 11.68-8.82 6.86-7.16 15.63-7.16 15.63-4.19-4.39-1.44-10.89-1.44-10.89-1.33 1.49-5.73 6.06-5.73 12.78 0 6.72 2.8 9.6.25 11.25-3.23 2.08-2.49-9.05-2.49-9.05-3.32 5.97-6.53 13.72-1.75 24.23 4.26 9.36 15.8 10.14 15.8 10.14-9.45-5.6-9.4-14.1-9.4-14.1 2.67 4.74 6.02 3.8 6.02 3.8-4.65-7.85-.83-13.92-.83-13.92.42 4.98 4.36 6.55 4.36 6.55-.81-3.41-1.15-6.38.03-10.52.84-2.93 2.09-5.65 2.09-5.65-.63 6.7 2.76 9.92 2.76 9.92-.66-1.49 2.66-6.45 2.66-6.45 0 0-1.18 3.43.82 6.41 2.82 4.22 2.03 6.72 2.03 6.72 3.99-2.24 3.78-6.72 3.78-6.72 1.99 6.72-.25 12.69-.25 12.69 3.9-1.43 4.82-4.06 4.82-4.06 1.33 8.21-9.78 15.34-9.78 15.34Z"/>
</svg>