<svg xmlns="http://www.w3.org/2000/svg" viewBox="0 0 80 80">
<path d="M31.95 39.69c-7.92-1.79-9.37-3.24-11.16-11.16-1.79 7.92-3.24 9.37-11.16 11.16 7.92 1.79 9.37 3.24 11.16 11.16 1.79-7.92 3.24-9.37 11.16-11.16ZM60.36 67.69c1.79-7.92 3.24-9.37 11.16-11.16-7.92-1.79-9.37-3.24-11.16-11.16-1.79 7.92-3.24 9.37-11.16 11.16 7.92 1.79 9.37 3.24 11.16 11.16ZM37.96 11.35c-1.79 7.92-3.24 9.37-11.16 11.16 7.92 1.79 9.37 3.24 11.16 11.16 1.79-7.92 3.24-9.37 11.16-11.16-7.92-1.79-9.37-3.24-11.16-11.16ZM40.05 37.04c-1.14 5.03-2.06 5.95-7.08 7.08 5.03 1.14 5.95 2.06 7.08 7.08 1.14-5.03 2.06-5.95 7.08-7.08-5.03-1.14-5.95-2.06-7.08-7.08ZM40.05 55.31c-1.14 5.03-2.06 5.95-7.08 7.08 5.03 1.14 5.95 2.06 7.08 7.08 1.14-5.03 2.06-5.95 7.08-7.08-5.03-1.14-5.95-2.06-7.08-7.08ZM60.36 25.86c1.14-5.03 2.06-5.95 7.08-7.08-5.03-1.14-5.95-2.06-7.08-7.08-1.14 5.03-2.06 5.95-7.08 7.08 5.03 1.14 5.95 2.06 7.08 7.08ZM60.36 42.69c1.14-5.03 2.06-5.95 7.08-7.08-5.03-1.14-5.95-2.06-7.08-7.08-1.14 5.03-2.06 5.95-7.08 7.08 5.03 1.14 5.95 2.06 7.08 7.08ZM15.56 25.86c1.14-5.03 2.06-5.95 7.08-7.08-5.03-1.14-5.95-2.06-7.08-7.08-1.14 5.03-2.06 5.95-7.08 7.08 5.03 1.14 5.95 2.06 7.08 7.08ZM15.56 53.53c-1.14 5.03-2.06 5.95-7.08 7.08 5.03 1.14 5.95 2.06 7.08 7.08 1.14-5.03 2.06-5.95 7.08-7.08-5.03-1.14-5.95-2.06-7.08-7.08Z"/>
</svg>