<svg xmlns="http://www.w3.org/2000/svg" viewBox="0 0 80 80">
<path d="M75.31 73.26v-22.83c0-.54-.43-.98-.97-1-2.6-.07-5.77.07-9.04.37v-3.9c3.39-.38 5.46-2.71 5.46-6.29 0-4.08-3.93-17.5-6.46-17.5-2.53 0-6.46 13.42-6.46 17.5 0 3.58 2.07 5.91 5.46 6.29v4.1c-2.37.27-4.74.63-6.96 1.05-.17.03-.31.11-.43.21-.53-3.17-1.23-6.55-1.91-9.45-2.85-12.15-3.95-12.15-4.67-12.15-.77 0-1.82 0-4.65 12.16-.87 3.77-1.79 8.35-2.3 12.23-.17-.04-.35-.05-.52.01-2.58.86-5.01 1.85-7.3 2.92-.05-.06-.1-.12-.17-.16-3.85-2.43-7.94-4.2-12.51-5.43-.03 0-.06 0-.09 0-.95-4.42-3.19-10.69-4.84-10.69-1.45 0-3.36 4.87-4.44 9.05-2.19-.21-4.49-.32-6.86-.32-.55 0-1 .45-1 1v22.83c0 .55.45 1 1 1h68.66c.55 0 1-.45 1-1ZM59.84 39.61c0-4.37 3.04-12.66 4.46-15.05 1.43 2.39 4.46 10.68 4.46 15.05 0 3.79-2.8 4.35-4.46 4.35-1.66 0-4.46-.57-4.46-4.35ZM16.95 43.29c1.15 2.2 3.29 8.25 3.29 11.37 0 2.79-2.06 3.2-3.29 3.2-1.23 0-3.29-.42-3.29-3.2 0-3.12 2.14-9.17 3.29-11.37ZM6.65 72.26v-20.82c1.86.02 3.66.12 5.4.28-.24 1.2-.39 2.24-.39 2.95 0 2.82 1.66 4.74 4.29 5.12v3.37c0 .55.45 1 1 1 .55 0 1-.45 1-1v-3.37c2.64-.39 4.29-2.3 4.29-5.12 0-.31-.03-.68-.08-1.1 3.72 1.07 7.11 2.54 10.32 4.46-7.22 3.74-12.83 8.56-16.52 14.24H6.65ZM18.37 72.26c4.95-6.97 13.12-12.53 23.77-16.16-.12 1.18-.19 2.26-.19 3.17 0 4.6 2.47 7.69 6.38 8.15v4.72c0 0 .02.09.03.13h-29.99ZM49.33 65.41c-.08 0-.15.03-.23.05-3.23-.12-5.15-2.4-5.15-6.19 0-6.63 3.68-22.15 5.38-26.65 1.72 4.5 5.43 20.03 5.43 26.65 0 3.8-1.94 6.09-5.19 6.2-.08-.02-.16-.05-.24-.05ZM73.31 72.26h-23.01c0 0 .03-.08.03-.13v-4.71c3.94-.44 6.43-3.54 6.43-8.16 0-1.67-.23-3.88-.59-6.3.17.07.35.1.54.07 5.42-1.04 11.82-1.66 16.59-1.62v20.85ZM46.31 18.17c.39-.23.57-.7.45-1.13-.12-.43-.54-.73-.98-.72l-6.54.14c-.41-.02-.48-.15-.52-.2-.44-.76.36-3.17 1.11-4.62.2-.38.13-.85-.17-1.16-.3-.31-.77-.39-1.15-.2l-3.02 1.48c-.97.45-1.79.56-2.22.3-.49-.29-.65-1.14-.69-1.79l-.2-4.31c-.02-.43-.31-.8-.72-.92-.41-.12-.85.04-1.1.39l-2.32 3.36c-.24.35-.64.81-1.18 1.03-2.24.92-4.05-2.87-4.07-2.9-.19-.41-.63-.64-1.08-.56-.44.08-.78.44-.82.89l-.05.56c-.1 1.26-.24 3.15-1.03 3.71-.1.07-.41.29-1.19.11l-6.69-3.51c-.4-.21-.89-.13-1.2.2-.31.33-.36.82-.12 1.21l4.04 6.57c.38.61.43 1.35.15 2.01-.27.64-.81 1.1-1.49 1.27l-3.22.22c-.42.03-.78.32-.9.73-.11.41.04.84.39 1.09.26.18.56.38.87.58 1.01.67 2.71 1.78 2.81 2.55 0 .06.03.2-.18.45l-4.14 3.11c-.34.26-.48.71-.35 1.12.14.41.52.68.95.68 2.18 0 4.92.25 5.55.64 1.5.94 1.12 2.51.37 4.79l-.18.55c-.13.42.03.88.39 1.13.37.25.85.22 1.2-.06.77-.64 2.72-1.86 3.77-1.57.2.06.48.19.7.76l.37 6.22c.03.44.34.81.76.91.08.02.16.03.23.03.35 0 .68-.18.86-.49l3.48-5.92c.36-.57.95-.93 1.63-.99.68-.06 1.32.19 1.77.69l.17.19 1.14 2.13c.21.39.65.6 1.08.51.43-.09.76-.45.8-.89.18-1.95.85-3.82 1.54-4.27.14-.09.26-.11.42-.06l3.7 1.33c.38.13.8.03 1.07-.27.27-.3.34-.73.17-1.09-.01-.03-1.26-2.75-1.69-3.89-.29-.76-.24-1.59.12-2.26.32-.6.87-1.01 1.55-1.16l2.72-.04c.44 0 .82-.28.95-.7.13-.42-.02-.87-.38-1.12l-.44-.31c-.99-.68-2.83-1.96-2.87-2.8 0-.19.11-.39.37-.62l5.24-3.12ZM40.47 24.88l-.18.04c-1.25.27-2.27 1.04-2.87 2.16-.64 1.18-.73 2.61-.24 3.92.18.48.48 1.18.78 1.87l-1.52-.54c-.76-.25-1.51-.15-2.17.28-.93.61-1.52 1.81-1.88 2.96 0 0-.01-.01-.02-.02l-.26-.28c-.88-.96-2.13-1.46-3.43-1.33-1.3.11-2.44.81-3.16 1.94l-1.83 3.12-.18-3.09c0-.09-.02-.18-.05-.27-.49-1.43-1.41-1.96-2.1-2.15-.29-.08-.58-.12-.88-.12-.8 0-1.63.26-2.36.6.38-1.79.31-3.78-1.78-5.1-.77-.48-2.32-.72-3.77-.84l1.98-1.49c.05-.04.1-.08.14-.13.72-.8.8-1.59.73-2.11-.14-1.14-1.07-2.08-2.14-2.89l.43-.03c0 0 .1-.01.15-.02 1.34-.3 2.42-1.19 2.96-2.46.54-1.27.43-2.67-.29-3.84l-2.13-3.47 3.57 1.88c.07.04.14.06.21.08 1.18.31 2.17.18 2.96-.39.95-.67 1.38-1.81 1.61-2.99 1.25 1.36 3 2.34 5.04 1.51.78-.32 1.5-.92 2.06-1.74l.63-.92.06 1.37c.11 1.66.67 2.8 1.67 3.4 1.04.62 2.45.54 4.1-.22l.68-.33c-.42 1.36-.66 2.95-.03 4.03.3.52.92 1.15 2.23 1.2l2.82-.06-2.07 1.23c0 0-.09.06-.13.09-.99.83-1.16 1.71-1.13 2.29.05 1.09.82 2.05 1.76 2.88ZM27.04 16.31c-3.75 0-6.8 3.05-6.8 6.8 0 3.75 3.05 6.8 6.8 6.8 3.75 0 6.8-3.05 6.8-6.8 0-3.75-3.05-6.8-6.8-6.8ZM27.04 27.91c-2.65 0-4.8-2.15-4.8-4.8 0-2.65 2.15-4.8 4.8-4.8 2.65 0 4.8 2.15 4.8 4.8 0 2.65-2.15 4.8-4.8 4.8Z"/>
</svg>