<svg xmlns="http://www.w3.org/2000/svg" viewBox="0 0 80 80">
<path d="M63.82 36.2c-.04-.19-.19-.2-.29-.3-1.24 1.22-2.66 3.64-4.99 3.89-5.15.55-10.25-10.06-11.85-13.64-3.21-.31-3.3.8-5.38-1.21-1.49-1.44-1.31-2.11-2.92-3.4-2.1 1.59-1.18 2.21-3.6 3.41-.29 1.16.22.13-.38 1.1-.49.8-.37.33-.72.5-1.58 3.1-3.33 4.4-5.35 7.08-4.28 5.68-4.94 1.34-6.84.21l-2.21 2.95c-.44 1.33-2.53 4.46-3.48 5.58-6.16.95-4.74 0-8.07 4.5-1.02 1.37-3.97 6.07-4.87 6.62l-.55.76c.2 1.22-.66 1.59 3.79 1.5 22.75-.49 50.57.83 71.59-.1-1.9-4.52-8.28-10.23-9.72-14.52l-4.16-4.95ZM12.74 50.64c0 0 .02.1.03.15-2.07 1.75-2.66 1.19-4.2-.11l1.76-3.46 1.04 1.72c.66.91 1.09 1.43 1.37 1.71-.39-1.75 1.1 1.12 0 0ZM23.06 51.35c-1.18-1.81-.18-2.15-2.17-3.84l-3.39-2.2 4.49-7.26 1.47 2.02c.43.77.62 1.2.91 1.82 2.23 4.76 1.1 3.07 3.16 3.66 1.71.49 4.36 4.72 5.06 6.49-2.72.51-7.33 2.69-9.53-.69ZM44.18 48.46l-3.61-10.17c-1.8 1.38-5.21 6.05-6.46 8.15-2.67-1.16-3.15-1.58-3.66-5.15-.55-3.78-.86-4.69.98-7.27 1.99-2.78 4.72-7.53 6.96-9.75 3.36 4.69 1.91 2.24 7.02 4.14 1.27 3.1 1.03 7.4 1.01 10.92-.04 8.09.57 7.67-2.23 9.13ZM51.22 47.28c-1.72-2.63-1.71-8.48-1.91-11.82 2.66 2.76 4.48 8.13 5.06 12.71-1.99.03-2.16.62-3.15-.89ZM72.77 53.38c-3.7-.02-6.49.1-9.4-1.36-2.78-1.4-5.44-1.69-4.84-5.6 2.52-1.26 3.11.16 4.06-2.56.51-1.45.56-3.12 1.18-4.69 1.67 1.27 1.84 2.04 2.44 4.03 2.46 8.15 5.39 6.02 6.55 10.19Z"/>
</svg>