<svg xmlns="http://www.w3.org/2000/svg" viewBox="0 0 80 80">
<path d="M74.67 47.57c-1.56 0-2.99.86-4.37 1.68-1.2.72-2.33 1.4-3.34 1.4h0c-1.01 0-2.14-.68-3.34-1.4-1.38-.83-2.81-1.68-4.37-1.68-1.56 0-2.99.86-4.37 1.68-1.2.72-2.33 1.4-3.34 1.4h0c-1.01 0-2.14-.68-3.34-1.4-1.38-.83-2.81-1.68-4.37-1.68-1.56 0-2.99.86-4.37 1.68-1.2.72-2.33 1.4-3.34 1.4h0c-1.01 0-2.14-.68-3.34-1.4-1.38-.83-2.81-1.68-4.37-1.68-1.56 0-2.99.86-4.37 1.68-1.2.72-2.33 1.4-3.34 1.4h0c-1.01 0-2.14-.68-3.34-1.4-1.38-.83-2.81-1.68-4.37-1.68-1.56 0-2.99.86-4.37 1.68-1.2.72-2.33 1.4-3.34 1.4h0c-.55 0-1 .45-1 1 0 .55.45 1 1 1h0c1.56 0 2.99-.86 4.37-1.68 1.2-.72 2.33-1.4 3.34-1.4 1.01 0 2.14.68 3.34 1.4 1.38.83 2.81 1.68 4.37 1.68h0c1.56 0 2.99-.86 4.37-1.68 1.2-.72 2.33-1.4 3.34-1.4 1.01 0 2.14.68 3.34 1.4 1.38.83 2.81 1.68 4.37 1.68h0c1.56 0 2.99-.86 4.37-1.68 1.2-.72 2.33-1.4 3.34-1.4 1.01 0 2.14.68 3.34 1.4 1.38.83 2.81 1.68 4.37 1.68h0c1.56 0 2.99-.86 4.37-1.68 1.2-.72 2.33-1.4 3.34-1.4 1.01 0 2.14.68 3.34 1.4 1.38.83 2.81 1.68 4.37 1.68h0c1.56 0 2.99-.86 4.37-1.68 1.2-.72 2.33-1.4 3.34-1.4.55 0 1-.45 1-1 0-.55-.45-1-1-1ZM74.67 57.66c-1.56 0-2.99.86-4.37 1.68-1.2.72-2.33 1.4-3.34 1.4h0c-1.01 0-2.14-.68-3.34-1.4-1.38-.83-2.81-1.68-4.37-1.68-1.56 0-2.99.86-4.37 1.68-1.2.72-2.33 1.4-3.34 1.4h0c-1.01 0-2.14-.68-3.34-1.4-1.38-.83-2.81-1.68-4.37-1.68-1.56 0-2.99.86-4.37 1.68-1.2.72-2.33 1.4-3.34 1.4h0c-1.01 0-2.14-.68-3.34-1.4-1.38-.83-2.81-1.68-4.37-1.68-1.56 0-2.99.86-4.37 1.68-1.2.72-2.33 1.4-3.34 1.4h0c-1.01 0-2.14-.68-3.34-1.4-1.38-.83-2.81-1.68-4.37-1.68-1.56 0-2.99.86-4.37 1.68-1.2.72-2.33 1.4-3.34 1.4h0c-.55 0-1 .45-1 1 0 .55.45 1 1 1h0c1.56 0 2.99-.86 4.37-1.68 1.2-.72 2.33-1.4 3.34-1.4 1.01 0 2.14.68 3.34 1.4 1.38.83 2.81 1.68 4.37 1.68h0c1.56 0 2.99-.86 4.37-1.68 1.2-.72 2.33-1.4 3.34-1.4 1.01 0 2.14.68 3.34 1.4 1.38.83 2.81 1.68 4.37 1.68h0c1.56 0 2.99-.86 4.37-1.68 1.2-.72 2.33-1.4 3.34-1.4 1.01 0 2.14.68 3.34 1.4 1.38.83 2.81 1.68 4.37 1.68h0c1.56 0 2.99-.86 4.37-1.68 1.2-.72 2.33-1.4 3.34-1.4 1.01 0 2.14.68 3.34 1.4 1.38.83 2.81 1.68 4.37 1.68h0c1.56 0 2.99-.86 4.37-1.68 1.2-.72 2.33-1.4 3.34-1.4.55 0 1-.45 1-1 0-.55-.45-1-1-1ZM75.67 68.68c0-.55-.45-1-1-1-1.56 0-2.99.86-4.37 1.68-1.2.72-2.33 1.4-3.34 1.4h0c-1.01 0-2.14-.68-3.34-1.4-1.38-.83-2.81-1.68-4.37-1.68-1.56 0-2.99.86-4.37 1.68-1.2.72-2.33 1.4-3.34 1.4h0c-1.01 0-2.14-.68-3.34-1.4-1.38-.83-2.81-1.68-4.37-1.68-1.56 0-2.99.86-4.37 1.68-1.2.72-2.33 1.4-3.34 1.4h0c-1.01 0-2.14-.68-3.34-1.4-1.38-.83-2.81-1.68-4.37-1.68-1.56 0-2.99.86-4.37 1.68-1.2.72-2.33 1.4-3.34 1.4h0c-1.01 0-2.14-.68-3.34-1.4-1.38-.83-2.81-1.68-4.37-1.68-1.56 0-2.99.86-4.37 1.68-1.2.72-2.33 1.4-3.34 1.4h0c-.55 0-1 .45-1 1 0 .55.45 1 1 1h0c1.56 0 2.99-.86 4.37-1.68 1.2-.72 2.33-1.4 3.34-1.4 1.01 0 2.14.68 3.34 1.4 1.38.83 2.81 1.68 4.37 1.68h0c1.56 0 2.99-.86 4.37-1.68 1.2-.72 2.33-1.4 3.34-1.4 1.01 0 2.14.68 3.34 1.4 1.38.83 2.81 1.68 4.37 1.68h0c1.56 0 2.99-.86 4.37-1.68 1.2-.72 2.33-1.4 3.34-1.4 1.01 0 2.14.68 3.34 1.4 1.38.83 2.81 1.68 4.37 1.68h0c1.56 0 2.99-.86 4.37-1.68 1.2-.72 2.33-1.4 3.34-1.4 1.01 0 2.14.68 3.34 1.4 1.38.83 2.81 1.68 4.37 1.68h0c1.56 0 2.99-.86 4.37-1.68 1.2-.72 2.33-1.4 3.34-1.4.55 0 1-.45 1-1ZM29.42 13.56c0-3.95-3.21-7.17-7.17-7.17-3.96 0-7.17 3.21-7.17 7.17 0 3.96 3.22 7.17 7.17 7.17 3.95 0 7.17-3.22 7.17-7.17ZM22.25 18.72c-2.85 0-5.17-2.32-5.17-5.17 0-2.85 2.32-5.17 5.17-5.17 2.85 0 5.17 2.32 5.17 5.17 0 2.85-2.32 5.17-5.17 5.17ZM41.67 16.64c3.83 0 6.71 2.22 6.71 5.17 0 .55.45 1 1 1 .55 0 1-.45 1-1 0-2.95 2.88-5.17 6.71-5.17.55 0 1-.45 1-1 0-.55-.45-1-1-1-3.43 0-6.28 1.47-7.71 3.73-1.43-2.26-4.28-3.73-7.71-3.73-.55 0-1 .45-1 1 0 .55.45 1 1 1ZM50.93 32.06c3.83 0 6.71 2.22 6.71 5.17 0 .55.45 1 1 1 .55 0 1-.45 1-1 0-2.95 2.88-5.17 6.71-5.17.55 0 1-.45 1-1 0-.55-.45-1-1-1-3.43 0-6.28 1.47-7.71 3.73-1.43-2.26-4.28-3.73-7.71-3.73-.55 0-1 .45-1 1 0 .55.45 1 1 1ZM18.56 33.79c-1.43-2.26-4.28-3.73-7.71-3.73-.55 0-1 .45-1 1 0 .55.45 1 1 1 3.83 0 6.71 2.22 6.71 5.17 0 .55.45 1 1 1 .55 0 1-.45 1-1 0-2.95 2.88-5.17 6.71-5.17.55 0 1-.45 1-1 0-.55-.45-1-1-1-3.43 0-6.28 1.47-7.71 3.73Z"/>
</svg>