<svg xmlns="http://www.w3.org/2000/svg" viewBox="0 0 80 80">
<path d="M19.98 10.77c-3.8 0-6.89 3.09-6.89 6.89 0 3.8 3.09 6.89 6.89 6.89 3.8 0 6.89-3.09 6.89-6.89 0-3.8-3.09-6.89-6.89-6.89ZM19.98 22.55c-2.69 0-4.89-2.19-4.89-4.89 0-2.7 2.19-4.89 4.89-4.89 2.7 0 4.89 2.19 4.89 4.89 0 2.7-2.19 4.89-4.89 4.89ZM14.24 65.69c.47.6 1.18.97 1.96.97h40.58c.92 0 1.77-.5 2.21-1.31.44-.81.41-1.79-.08-2.55l-9.27-15.11h23.94c.77 0 1.47-.42 1.84-1.09.37-.67.34-1.49-.06-2.12l-15.98-26.04c-.38-.6-1.03-.96-1.74-.97h-.02c-.63 0-1.2.29-1.6.76h0c0 0-15.42 14.71-15.42 14.71l-3.8-6.19c-.46-.72-1.24-1.15-2.09-1.16h-.03c-.77 0-1.47.36-1.95.95h0C32.73 26.54 4.47 53.52 4.47 53.52c-.6.52-.94 1.27-.92 2.06.01.79.38 1.53.98 2.02l9.71 8.09ZM23.56 64.66h-7.36c-.28 0-.41-.19-.46-.27-.05-.08-.13-.3.03-.53l2.09-4.08h5.7v4.89ZM37.25 52.06v5.71h-18.37l2.93-5.71h15.44ZM22.85 50.06l2.93-5.71h3.84v5.71h-6.77ZM31.62 50.06v-5.71h13.62l3.51 5.71h-17.12ZM45.85 64.66h-20.29v-4.89h20.29v4.89ZM57.22 63.86c.15.23.06.45.02.53-.04.08-.18.27-.45.27h-8.93v-4.89h6.86l2.51 4.09ZM49.97 52.06l3.51 5.71h-14.22v-5.71h10.72ZM56.55 45.69h-8.14l-2.34-3.81.4-.78h10.08v4.6ZM47.5 39.1l1.91-3.73h2.66v3.73h-4.58ZM64.42 45.69h-5.87v-4.6h5.87v4.6ZM73.65 45.53l-.08.15h0c0 0-7.17 0-7.17 0v-4.6h4.51l2.72 4.43ZM69.71 39.1h-15.63v-3.73h13.34l2.29 3.73ZM66.19 33.37h-15.75l2.35-4.59h5.92v4.58h2v-4.58h2.66l2.82 4.59ZM57.57 19.45l.11.06 4.46 7.27h-8.32l3.76-7.33ZM53.12 23.76l-1.55 3.01h-.65l-.55-.39 2.75-2.62ZM48.9 27.79l1.39.98h.27l-2.12 4.13-2.86-1.94 3.33-3.18ZM44.09 32.38l3.42 2.32-2.66 5.19-3.18-5.19 2.43-2.32ZM44.01 42.34h-6.52v-6.07h2.79l3.72 6.07ZM34.27 27.8c.13-.17.3-.19.4-.19.12.01.3.03.43.22l3.96 6.45h-8.11l3.33-6.48ZM35.49 36.28v6.07h-8.69l3.11-6.07h5.57ZM29.83 32.07l-1.13 2.21h-.07v.14l-3.98 7.77-3.1-2.2 8.29-7.91ZM20.07 41.39l3.65 2.59-3.03 5.91-5.47-3.87 4.84-4.62ZM13.76 47.42l6.02 4.26-2.83 5.52-7.52-5.65 4.33-4.14ZM5.82 55l2.14-2.04 8.06 6.05-1.94 3.79c0 0-.03.07-.05.11l-8.22-6.85c-.21-.17-.25-.39-.25-.51 0-.12.03-.34.27-.55Z"/>
</svg>