<svg xmlns="http://www.w3.org/2000/svg" viewBox="0 0 80 80">
<path d="M72.75 35.35c6.73-9.14-3.07-30.2-27.16-13.23 0 0 17.32-6.17 21 5.1 3.68 11.27-15.64 14.62-15.64 14.62 0 0 15.07 2.64 21.8-6.49ZM48.61 40.03c8.31-1.19 12.2-7.86 6.43-12.34-6.95-5.39-16.04 5.17-16.04 5.17 0 0 9.91-4.1 11.92.83 1.59 3.89-2.31 6.33-2.31 6.33ZM28.01 55.04c3.64-.7 7.21-2.15 10.69-3.36 6.92-2.68 13.05 1.84 20.24 2.05 4.82.13 9.44-1.8 13.11-4.76-2.99.55-5.88 1.04-8.63.92-6.2-.08-10.16-3.63-16.43-5.02-3.39-.75-7.14-.38-10.27.74-2.75.96-5.45 2.3-8.2 3.24-8.16 2.87-16.4 4.69-25.3 4.04 7.51 4 16.63 3.88 24.79 2.15ZM56.41 56.68c-4.07-.84-8.14-2.91-12.77-2.73-6.86.39-13.12 3-18.73 6.74 6.37-.17 12.47-1.21 18.57-.81 3.93.41 7.68 2.49 12 2.91 2.44.28 5 .05 7.31-.67 4.48-1.42 8.17-4.23 10.97-7.87-6.21 1.75-11.39 3.7-17.35 2.43ZM40.13 23.95c1.72-5.1 10.4-7.64 10.4-7.64-2.94-.2-12.08.43-14.64 5.84-1.25 2.65 3.42 4.24 4.24 1.8ZM27.57 26.19c-.8 2.82 3.62 3.52 3.96.2.54-5.36 4.43-7.4 4.43-7.4-2.89.59-6.95 2.17-8.38 7.2ZM76.35 34.17c0 0-1.6 10.83-21.18 10.55 0 0 3.59 2.63 9.03 2.76 7.49.19 14.37-4.67 12.15-13.31Z"/>
</svg>