<svg xmlns="http://www.w3.org/2000/svg" viewBox="0 0 80 80">
<path d="M33.65 62.26H9.29c-.55 0-1 .45-1 1 0 .55.45 1 1 1h24.37c.55 0 1-.45 1-1 0-.55-.45-1-1-1ZM69.04 63.26c0-.55-.45-1-1-1h-26.81c-.55 0-1 .45-1 1 0 .55.45 1 1 1h26.81c.55 0 1-.45 1-1ZM24.18 71.43c.55 0 1-.45 1-1 0-.55-.45-1-1-1h-10.9c-.55 0-1 .45-1 1 0 .55.45 1 1 1h10.9ZM30.15 70.43c0 .55.45 1 1 1h16.5c.55 0 1-.45 1-1 0-.55-.45-1-1-1h-16.5c-.55 0-1 .45-1 1ZM64.52 71.43c.55 0 1-.45 1-1 0-.55-.45-1-1-1h-10.56c-.55 0-1 .45-1 1 0 .55.45 1 1 1h10.56ZM28.96 7.24c-5.3 0-9.61 4.31-9.61 9.61 0 5.3 4.31 9.61 9.61 9.61 5.3 0 9.61-4.31 9.61-9.61 0-5.3-4.31-9.61-9.61-9.61ZM28.96 24.47c-4.2 0-7.61-3.42-7.61-7.61 0-4.19 3.42-7.61 7.61-7.61 4.19 0 7.61 3.42 7.61 7.61 0 4.19-3.42 7.61-7.61 7.61ZM72.83 55.09h-11.9v-17.63c0-.24.19-.43.43-.43h4.3c3.71 0 6.73-3.02 6.73-6.73v-8.6c0-2.13-1.73-3.87-3.87-3.87-2.14 0-3.87 1.73-3.87 3.87v7.17c0 .24-.19.43-.43.43h-2.87c-.24 0-.43-.19-.43-.43v-14.33c0-2.13-1.73-3.87-3.87-3.87-2.14 0-3.87 1.73-3.87 3.87v20.07c0 .24-.19.43-.43.43h-2.87c-.24 0-.43-.19-.43-.43v-4.3c0-2.13-1.73-3.87-3.87-3.87-2.14 0-3.87 1.73-3.87 3.87v5.73c0 3.71 3.02 6.73 6.73 6.73h4.3c.24 0 .43.19.43.43v11.9h-5.17v-3.3c0-.55-.45-1-1-1-.55 0-1 .45-1 1v3.3h-3.73v-7.6c0-.55-.45-1-1-1-.55 0-1 .45-1 1v7.6h-3.73v-4.73c0-.55-.45-1-1-1-.55 0-1 .45-1 1v4.73h-4.04v-11.36c0-.55-.45-1-1-1-.55 0-1 .45-1 1v11.36h-3.42v-20.35c0-2.13-1.73-3.87-3.87-3.87-2.14 0-3.87 1.73-3.87 3.87v9.52h-3.68v-2.51c0-1.84-1.5-3.34-3.34-3.34-1.84 0-3.34 1.5-3.34 3.34v4.14c0 1.46.57 2.83 1.6 3.85 1.03 1.03 2.38 1.55 3.86 1.58 2.69-.02 4.13 0 4.91 0v3.77H5.46c-.55 0-1 .45-1 1 0 .55.45 1 1 1h12.9c.55 0 1-.45 1-1v-5.73c0-.5-.38-.93-.88-.99-.16-.02-.59-.08-6.04-.04-.9.04-1.79-.35-2.44-1-.65-.65-1.01-1.51-1.01-2.43v-4.14c0-.74.6-1.34 1.34-1.34.74 0 1.34.6 1.34 1.34v2.9c0 .89.72 1.61 1.61 1.61h5.07c.55 0 1-.45 1-1v-10.52c0-1.03.84-1.87 1.87-1.87 1.03 0 1.87.84 1.87 1.87v21.35c0 .55.45 1 1 1h30.1c.55 0 1-.45 1-1v-12.9c0-1.34-1.09-2.43-2.43-2.43h-4.3c-2.61 0-4.73-2.12-4.73-4.73v-5.73c0-1.03.84-1.87 1.87-1.87 1.03 0 1.87.84 1.87 1.87v4.3c0 1.34 1.09 2.43 2.43 2.43h2.87c1.34 0 2.43-1.09 2.43-2.43V14.53c0-1.03.84-1.87 1.87-1.87 1.03 0 1.87.84 1.87 1.87v14.33c0 1.34 1.09 2.43 2.43 2.43h2.87c1.34 0 2.43-1.09 2.43-2.43v-7.17c0-1.03.84-1.87 1.87-1.87 1.03 0 1.87.84 1.87 1.87v8.6c0 2.61-2.12 4.73-4.73 4.73h-4.3c-1.34 0-2.43 1.09-2.43 2.43v18.63c0 .55.45 1 1 1h12.9c.55 0 1-.45 1-1 0-.55-.45-1-1-1Z"/>
</svg>