<svg xmlns="http://www.w3.org/2000/svg" viewBox="0 0 80 80">
<path d="M76.3 69.07c-10.1-8.91-14.84-20.94-14.88-21.06-.15-.38-.52-.64-.93-.64h-7.8c-.42 0-.8.27-.94.66-.02.05-1.59 4.41-3.33 7.28-6.66-9.38-9.74-17.47-9.78-17.59-.15-.39-.52-.65-.94-.65h-11.7c-.38 0-.73.22-.9.56-.09.19-9.27 19.02-21.46 31.7-.03.04-.05.08-.08.12-.05.06-.1.13-.13.2-.03.08-.04.16-.05.24 0 .04-.03.08-.03.13 0 0 0 0 0 0 0 .1.03.19.06.29 0 .03 0 .06.02.09 0 .02.03.04.04.06.05.1.11.19.18.26 0 0 0 0 0 0 .04.04.09.05.13.08.06.04.12.09.19.12.12.05.25.08.38.08h71.29c.55 0 1-.45 1-1 0-.04-.02-.07-.02-.11.03-.31-.07-.63-.32-.85ZM53.39 49.37h6.43c.33.79.99 2.24 1.97 4.1-.37.55-.57 1.33-.57 2.41-.01 2.07-.4 3.41-1 3.44-.71 0-1.26-1.78-1.4-3.08 0-.04 0-.07-.02-.1-.36-1.71-1.24-2.27-1.91-2.43-1.25-.31-2.5.54-3.24 1.44-.1.12-.22.18-.38.19-.25.01-.51-.09-.72-.28l-1.15-1.06c.9-1.83 1.63-3.67 1.99-4.62ZM26.62 39.07h10.4c.41 1.01 1.32 3.12 2.77 5.9-.38-.06-.75-.07-1.1.04-.95.28-2.08 1.26-2.03 4.35.11 7.38-1.21 7.43-1.65 7.44h-.02c-1.4 0-2.9-4.06-3.45-7.02 0-.04-.02-.09-.03-.13-.42-1.25-1.14-2.91-2.56-2.91h0c-1.59 0-2.45 2.23-2.65 2.83-1.11 2.58-2.41 4.06-3.76 4.27-1.66.27-3.13-1.39-3.16-1.43-.07-.08-.15-.13-.23-.18 3.94-6.26 6.64-11.49 7.49-13.16ZM6.65 69.03c4.31-4.76 8.2-10.17 11.39-15.1.59.6 2.44 2.24 4.77 1.9 2.11-.32 3.9-2.16 5.34-5.54.19-.56.53-1.19.77-1.46.13.17.37.55.66 1.39.3 1.6 1.82 8.58 5.4 8.58.03 0 .06 0 .1 0 3.09-.11 3.66-3.86 3.58-9.47-.03-1.82.42-2.35.6-2.4.39-.11 1.69.5 3.32 3.11.02.04.06.06.09.1 3.4 5.69 8.35 12.64 14.99 18.88H6.65ZM60.62 69.03c-4.32-3.82-7.95-7.98-10.94-11.98.26-.38.51-.79.75-1.23l.77.7c.61.56 1.42.85 2.21.8.71-.05 1.34-.37 1.79-.92.47-.57 1.02-.82 1.22-.77.1.03.29.27.42.86.08.72.65 4.83 3.36 4.83.03 0 .06 0 .09 0 1.31-.05 2.87-1.01 2.92-5.3 2.25 3.84 5.57 8.63 10.1 13h-12.69ZM12.66 22.74c0 3.56 2.9 6.46 6.46 6.46.54 0 1.06-.08 1.58-.21.99 1.37 2.5 2.34 4.24 2.62v2.65h2v-4.64h-1.77c-2.09-.37-3.69-2.19-3.69-4.38 0-.55-.45-1-1-1-.55 0-1 .45-1 1 0 .67.1 1.31.29 1.92-.21.03-.43.05-.65.05-2.46 0-4.46-2-4.46-4.46 0-2.46 2-4.46 4.46-4.46.33 0 .66.05.98.12.44 1.48 1.33 2.81 2.6 3.78.18.14.4.21.61.21.3 0 .6-.13.79-.39.34-.44.26-1.07-.18-1.4-1.37-1.05-2.15-2.65-2.15-4.37 0-1.41.72-2.86 1.89-3.8.91-.73 2.47-1.47 4.91-1.17-.31.65-.54 1.33-.69 2.06-.11.54.24 1.07.78 1.18.54.11 1.07-.24 1.18-.78.66-3.27 3.56-5.64 6.91-5.64 3.89 0 7.05 3.16 7.05 7.05 0 .59-.09 1.17-.24 1.74-.72.17-1.42.46-2.05.87-.46.3-.59.92-.28 1.39.3.46.92.59 1.39.28.73-.48 1.58-.73 2.45-.73 2.46 0 4.46 2 4.46 4.46 0 2.46-2 4.46-4.46 4.46-.22 0-.43-.02-.64-.05.27-.72.43-1.49.43-2.3 0-.55-.45-1-1-1-.55 0-1 .45-1 1 0 2.22-1.63 4.05-3.75 4.39h0c0 0-2 0-2 0v4.49h2v-2.45c1.71-.19 3.22-1.05 4.27-2.31.55.15 1.11.24 1.69.24 3.56 0 6.46-2.9 6.46-6.46 0-3.37-2.59-6.14-5.88-6.43.09-.52.15-1.04.15-1.58 0-4.99-4.06-9.05-9.05-9.05-2.79 0-5.34 1.3-7.02 3.36-3.63-.73-5.98.37-7.32 1.44-1.65 1.33-2.64 3.33-2.64 5.36 0 .03 0 .07 0 .1-.22-.02-.43-.04-.65-.04-3.56 0-6.46 2.9-6.46 6.46ZM30.91 28.98 32.91 28.98 32.91 34.1 30.91 34.1 30.91 28.98Z"/>
</svg>