<svg xmlns="http://www.w3.org/2000/svg" viewBox="0 0 80 80">
<path d="M67.95 44.53c1.71.73 3.36 1.5 4.91 2.33.15.08.31.12.47.12.36 0 .7-.19.88-.53.26-.49.08-1.09-.41-1.35-1.7-.91-3.51-1.76-5.41-2.55-.01 0-.02-.01-.04-.02-.38-.16-.76-.31-1.14-.46v-6.11c3.31-.5 5.87-3.42 5.87-6.96 0-2.47-2.7-8.41-4.96-12.96-.36-.73-1.09-1.19-1.9-1.2-.82.02-1.55.43-1.94 1.15-.77 1.45-1.71 3.24-2.47 4.73-1.26-3.29-3.48-7.45-5.46-10.89-.39-.68-1.09-1.08-1.87-1.08h0c-.78 0-1.48.41-1.87 1.08-2.41 4.19-6.46 11.7-6.46 14.93 0 4.26 3.21 7.77 7.34 8.27v4.83c-.54-.12-1.08-.25-1.62-.37-.03 0-.06-.02-.09-.02-2.78-.6-5.59-1.11-8.39-1.53-.1-.03-.19-.05-.3-.05-2.98-.44-5.95-.78-8.84-1.02-.14-.04-.28-.06-.43-.04-10.98-.89-20.86-.38-26.46 1.29-.53.16-.83.72-.67 1.25.16.53.71.83 1.25.67 4.48-1.34 11.79-1.91 20.19-1.59-8.46 3.09-15.95 8.92-22.32 17.41-.33.44-.24 1.07.2 1.4.18.13.39.2.6.2.3 0 .6-.14.8-.4 7.41-9.88 16.37-16.02 26.63-18.24 1.71.14 3.45.32 5.21.53-8.75 4.01-19.52 12.68-27.1 31.4-.21.51.04 1.09.55 1.3.12.05.25.07.38.07.39 0 .77-.24.93-.62 4.59-11.34 13.39-26 29.24-31.6 1.74.26 3.48.56 5.22.9-8.63 4.48-18.1 15.85-21.62 36.16-.09.54.27 1.06.81 1.16.06 0 .12.01.17.01.48 0 .9-.34.98-.83 2.35-13.56 9.78-31.01 23.02-35.81.76.17 1.51.34 2.26.52.01 0 .03 0 .04.01.96.23 1.91.48 2.85.74-8.08 4.53-13.21 15.73-14.18 31.36-.03.55.38 1.03.94 1.06.02 0 .04 0 .06 0 .52 0 .96-.41 1-.94 1-16.16 6.49-27.3 15.07-30.65 1.88.57 3.72 1.19 5.49 1.87-8.91 4.71-8.38 15.7-7.1 25.79.06.51.49.88.99.88.04 0 .08 0 .13 0 .55-.07.94-.57.87-1.12-1.61-12.72-.86-21.27 7.7-24.5ZM54.49 17.81c-.55 0-1 .45-1 1v12.22c-3.02-.48-5.34-3.1-5.34-6.25 0-1.99 2.32-7.19 6.2-13.93.01-.02.05-.08.14-.08.09 0 .13.06.14.08 3.88 6.74 6.2 11.94 6.2 13.93 0 3.15-2.32 5.77-5.34 6.25v-12.22c0-.55-.45-1-1-1ZM65.23 41.31c-1.62-.59-3.29-1.14-5-1.66 0 0-.02 0-.03 0-1.54-.46-3.12-.89-4.71-1.29v-5.31c1.38-.17 2.66-.67 3.75-1.43.65 1.54 1.88 4.04 5.99 4.39v5.31ZM65.23 24.51v9.49c-2.95-.31-3.66-1.99-4.23-3.37-.07-.16-.13-.29-.19-.43 1.25-1.46 2.02-3.35 2.02-5.42 0-.38-.05-.81-.15-1.29.02-.03.04-.05.06-.08.77-1.63 2.42-4.75 3.33-6.47.01-.02.03-.08.15-.09.1 0 .13.07.14.09 2.98 5.98 4.75 10.49 4.75 12.06 0 2.42-1.66 4.45-3.87 4.93v-9.43c0-.55-.45-1-1-1-.55 0-1 .45-1 1ZM33.49 15.97c0-4.6-3.74-8.34-8.34-8.34-4.6 0-8.34 3.74-8.34 8.34 0 4.6 3.74 8.34 8.34 8.34 4.6 0 8.34-3.74 8.34-8.34ZM18.81 15.97c0-3.49 2.84-6.34 6.34-6.34 3.5 0 6.34 2.84 6.34 6.34 0 3.5-2.84 6.34-6.34 6.34-3.5 0-6.34-2.84-6.34-6.34Z"/>
</svg>