<svg xmlns="http://www.w3.org/2000/svg" viewBox="0 0 80 80">
<path d="M28.78 13.81c-4.53 4.53-4.53 11.89 0 16.41 2.19 2.19 5.1 3.39 8.21 3.39 3.11 0 6.02-1.21 8.21-3.39 2.19-2.19 3.39-5.1 3.39-8.21 0-3.11-1.21-6.02-3.4-8.21-2.19-2.19-5.11-3.4-8.21-3.4-3.1 0-6.01 1.21-8.21 3.4ZM43.75 28.78c-3.73 3.73-9.8 3.73-13.53 0-1.8-1.8-2.8-4.21-2.8-6.76 0-2.56.99-4.96 2.8-6.76 1.81-1.81 4.21-2.8 6.76-2.8 2.55 0 4.96 1 6.76 2.8 3.73 3.73 3.73 9.8 0 13.53ZM73.86 42.67c-1.8-1.28-4.11-2.12-6.15-2.85l-.51-.19c-1.67-.61-3.21-1.46-4.74-2.31-.76-.42-1.52-.84-2.29-1.23-1.7-.86-3.3-1.51-4.74-1.93-3.57-1.03-6.37 1.78-8.41 3.84-.44.44-.86.87-1.27 1.24-1.37 1.24-2.94 2.34-4.48 3.42-1.04.73-1.63 1.16-2.2 1.58l-.12.09c-.53.39-1.09.8-2.01 1.45-.05-.02-.09-.04-.14-.06-2.24-.93-4.35-1.81-6.84-4.01-.16-.14-.31-.28-.46-.42-.8-.74-1.71-1.58-3.12-1.84-1.56-.28-2.74.43-3.73 1.03-.17.1-.34.21-.52.31-1.13.63-2.38 1.14-3.6 1.63-.78.31-1.65.66-2.48 1.05-.74.35-1.33.79-1.85 1.19-.29.22-.58.44-.9.64-1.68 1.05-3.21 1.98-5.01 2.58-1.5.5-2.99.9-4.26 1.21-.3.07-.55.26-.7.52-.16.26-.2.57-.13.86.15.61.77.98 1.39.83 1.31-.33 2.86-.73 4.44-1.26 2.04-.69 3.7-1.68 5.5-2.81.38-.24.73-.5 1.08-.76.49-.37.92-.69 1.43-.93.77-.36 1.58-.68 2.37-1 1.25-.5 2.53-1.02 3.76-1.7-1.3 2.1-2.31 4.49-1.48 7.05.76 2.37 2.65 3.86 4.32 5.17.42.33.83.66 1.23.99.28.24 1.16 1.08.81 1.98-.09.23-.26.47-.46.78-.25.36-.52.76-.71 1.25-.41 1.08-.3 2.39.31 3.59.63 1.23 1.7 2.46 3.01 3.45 1.48 1.12 3.1 2.07 4.67 3l.44.26c.17.1.37.16.58.16.4 0 .78-.22.99-.57.32-.54.13-1.24-.41-1.56l-.46-.27c-1.51-.89-3.07-1.8-4.42-2.83-1.03-.78-1.89-1.75-2.35-2.67-.31-.62-.4-1.27-.22-1.73.09-.24.27-.5.46-.78.24-.36.52-.76.71-1.25.59-1.54.05-3.24-1.46-4.53-.42-.36-.86-.71-1.3-1.06-1.48-1.17-3.01-2.37-3.56-4.07-.77-2.39 1.11-5.04 2.63-7.17l.08-.12c.48.23.91.63 1.44 1.11.15.14.3.28.46.42 2.78 2.45 5.06 3.4 7.48 4.4 1.94.8 3.94 1.64 6.28 3.38 1.76 1.31 3.75 3.04 5.91 4.91 4.43 3.85 9.46 8.22 13.95 10.03.88.35 1.77.67 2.64.97l.11.04c.51.18 1.02.36 1.53.55.35.13.7.28 1.08.45.27.12.41.23.58.36.39.3.76.54 1.57.6.97.08 1.76.54 2.75 1.12.17.1.37.16.57.16.4 0 .77-.22.98-.57.31-.53.12-1.26-.44-1.58-1.08-.63-2.19-1.28-3.67-1.4-.31-.02-.34-.05-.52-.2-.18-.15-.43-.36-.89-.57-.4-.18-.8-.35-1.21-.51-.56-.21-1.11-.4-1.67-.6-.84-.29-1.71-.6-2.55-.94-4.14-1.67-9.01-5.9-13.33-9.66-2.15-1.87-4.18-3.63-6.01-5-1.52-1.13-2.9-1.9-4.19-2.53.36-.26.66-.48.96-.7.58-.43 1.17-.86 2.24-1.61 1.58-1.11 3.22-2.25 4.71-3.6.42-.38.85-.81 1.36-1.33 1.18-1.18 2.37-2.39 3.65-2.99 0 .7.25 1.42.71 1.98.65.8 1.48 1.21 2.23 1.59.58.29 1.07.54 1.38.9.24.29.27.81.31 1.41.03.53.07 1.14.27 1.73.56 1.63 1.75 2.76 2.64 3.41.99.73 2.07 1.2 3.11 1.65.44.19.89.39 1.32.6l.86.42c1.17.57 2.39 1.16 3.48 1.87.19.12.4.19.63.19.39 0 .75-.2.96-.52.17-.26.22-.56.16-.86-.06-.3-.24-.55-.5-.72-1.21-.79-2.5-1.41-3.74-2.01l-.85-.41c-.46-.23-.94-.43-1.41-.64-.97-.42-1.88-.82-2.67-1.4-.63-.46-1.46-1.24-1.83-2.32-.1-.29-.12-.69-.15-1.12-.05-.88-.12-1.87-.84-2.73-.61-.73-1.41-1.13-2.12-1.49-.6-.3-1.13-.56-1.46-.98-.18-.22-.23-.49-.19-.64 0-.04.03-.1.12-.18.03 0 .06.01.09.02 1.31.38 2.77.98 4.35 1.77.73.37 1.45.77 2.25 1.21 1.57.87 3.19 1.77 5.04 2.45l.51.19c1.9.69 4.06 1.47 5.6 2.57.88.62 1.54 1.13 2.46 1.88.23.2.53.28.84.26.31-.03.58-.18.77-.41.4-.49.33-1.21-.16-1.61-.94-.78-1.67-1.33-2.59-1.98Z"/>
</svg>