<svg xmlns="http://www.w3.org/2000/svg" viewBox="0 0 80 80">
<path d="M71.55 43.94c-.13-.19-.33-.34-.54-.42-2.05-.74-2.96-1.12-4.23-3.19-.66-1.07-1.07-1.95-1.46-2.65-.88-1.59-2.8-2.19-4.41-1.43l-.92.43c-2.95-3.38-4.53-4.11-6.13-5.97-1.78-2.06-3.05-6.65-5.14-7.72-4.97-2.55-11.31 9.82-13.74 8.86-2.84-1.12-3.11-3.48-5.57-3.38-2.52.1-6.51 6.07-7.61 8.76-3.48-.65-3.57-2.78-6.19.42-1.58 1.92-2.3 3.63-3.84 5.26-2.95 3.11-6.38 6.01-9.49 8.45h2.1c0 0 2.17-1.63 3.96-3.38 3.31-3.25 2.29-1.13 4.19-2.04.95-.46 2.35-3.09 2.92-4.39 1.04-2.37.6-3.45 2.29-4.26.36-.17.8.08.85.49.26 2.21-1.31 2.98-2.71 5.9-1.74 3.62-1.98 3.15-5.15 5.46.42.27 1.31.39 2.14.13 2.7-.84 3.74-3.32 5.03-5.38.2-.32.54-.52.91-.55l1.89-.15c1.83-4.09 4.41-10.98 8.27-12.82.29-.14.64 0 .82.27 4.46 7.01.22 5.08.36 10.77 2.5-.36 1.73-1.87 4.29-3.46.08.14.14.21.15.44l-.1 3.69c1.61-.76.98-.96 3.06-.74l2.05 4.44c1.8-1.04.68-1.65 3.06-1.26 1.91.31 5.07 5.04 8.59 6.43-1.75-2.61-4.91-5.98-7.12-8.4-2.67-2.93-3.56-6.42-7.14-8.72 1.02-2.31 4.47-5.71 4.52-5.55l1.16.1c.21-.16 1.68-2.31 2.34-2.88 3.04-2.62 1.85 3.99 3.28 4.37l.98.23c.06.01.4-.04.35.08-3.39 7.81-1.31-1.06-1.27 11.13 2.72-1.47.44-2.88 2.77-3.76l.92 5.4.96-1.18c.19-.24.49-.35.79-.3.97.18 2.38.45 4.53 3.49 1.3-1.06.3-.95 1.96-1.26 4.3 5.04 4.64 4.05 6.96 6.01l1.23 1.32c.18-.02 2.4.02 2.62-.12-1.58-1.81-4.06-4.3-6.09-6.36-1.88-1.9-4.13-3.87-2.75-6.41.24-.45.81-.61 1.24-.35.9.53.33.65 1.88 4.06l3.21 4.62c.45 1.22.92-.61 1.52-.52 2.56.37 4.75 4.58 5.39 5.24 0 0 1.35-.02 2.27-.02-1.16 0-5.16-5.7-6.18-7.19ZM53.98 38.15c-.8-1.47-.16-1.68-.13-1.73 1.3.76 3.03 2.08 3.13 3.96-1.04.15-2.3-.94-3-2.22Z"/>
</svg>