<svg xmlns="http://www.w3.org/2000/svg" viewBox="0 0 80 80">
<path d="M75.54 56.41l-7.47-7.82h5.42c.39 0 .74-.22.9-.57.17-.35.12-.76-.13-1.06l-6.92-8.47h3.4c.39 0 .75-.23.91-.58.16-.35.1-.77-.15-1.07l-8.8-10.23c-.19-.22-.56-.35-.85-.35-.29 0-.55.12-.74.33l-7.62 8.41-2.97-3.64h3.4c.39 0 .75-.23.91-.58.16-.35.1-.77-.15-1.07l-8.8-10.24c-.19-.22-.56-.35-.85-.35-.29 0-.55.12-.74.33l-6.86 7.63-4.41-5.11c-.19-.22-.56-.35-.85-.35-.29 0-.57.13-.76.35l-9.85 11.43c-.25.3-.31.71-.15 1.07.16.36.52.58.91.58h4.02l-4.19 5.15-6.48-7.17c-.38-.42-1.2-.42-1.57.02l-7.04 8.19c-.25.3-.31.71-.15 1.07.16.36.52.58.91.58h2.3l-5.27 6.45c-.24.3-.29.71-.13 1.06.17.35.52.57.9.57h2.34l-5.07 5.15c-.28.29-.37.72-.21 1.09.16.37.52.61.92.61h8.37v6.11h-4.87c-.55 0-1 .45-1 1 0 .55.45 1 1 1h66.38c.55 0 1-.45 1-1 0-.55-.45-1-1-1h-8.69v-5.84h10.03c.4 0 .76-.24.92-.61.16-.37.08-.79-.2-1.08ZM45.06 21.59l6.68 7.77h-3.33c0 0-.09.02-.13.03-.07 0-.14.02-.2.04-.07.02-.13.06-.19.1-.04.02-.08.03-.12.06-.01.01-.02.03-.03.04-.05.05-.09.1-.13.16-.04.05-.08.1-.1.15-.03.05-.04.11-.05.17-.02.07-.04.14-.04.21 0 .02 0 .03 0 .05 0 .05.02.09.03.13 0 .07.02.14.04.2.02.07.06.12.1.18.02.04.03.08.06.12l6.92 8.47h-5.65c-.55 0-1 .45-1 1 0 .22.09.42.21.59.05.13.12.26.22.36l8.46 8.59h-14.07c-.08 0-.15.03-.22.04l-3.61-3.7h6.29c.39 0 .74-.22.9-.57.17-.35.12-.76-.13-1.06l-7.86-9.65h4.02c.39 0 .75-.23.91-.58.16-.36.1-.77-.15-1.07l-4.13-4.79 6.31-7.02ZM32.22 24.1l7.72 8.95h-3.94c-.39 0-.74.22-.9.57-.17.35-.12.76.13 1.06l7.86 9.65h-6.56c-.4 0-.77.24-.92.61-.16.37-.08.8.21 1.09l9.82 10.07h-26.8l9.86-10.02c.39-.39.38-1.03-.01-1.41 0 0-.02 0-.02-.02-.18-.19-.44-.32-.72-.32h-6.56l7.86-9.65c0 0 .04-.08.06-.11.04-.06.07-.12.1-.19.02-.07.03-.13.04-.2 0-.04.03-.08.03-.13 0-.02 0-.03-.01-.05 0-.07-.02-.13-.04-.2-.02-.06-.03-.12-.05-.18-.02-.05-.06-.1-.1-.14-.04-.06-.08-.12-.14-.17-.01-.01-.02-.03-.03-.04-.03-.03-.08-.04-.11-.06-.06-.04-.12-.08-.19-.1-.06-.02-.13-.03-.2-.04-.05 0-.09-.03-.13-.03h-3.94l7.72-8.95ZM48 58.11c0 0 0 0 .01 0h9.68v5.84h-21.77v-5.83h12.08ZM28.51 58.11v5.83h-8.25v-5.83h8.25ZM30.51 58.11h3.41v5.83h-3.41v-5.83ZM12.97 55.83h-6.99l5.04-5.13c.2-.2.29-.46.29-.72 0 0 0 0 0-.01 0-.55-.45-1-1-1h-2.59l5.27-6.45c0 0 .04-.08.06-.12.04-.06.07-.12.1-.18.02-.07.03-.13.04-.2 0-.04.03-.08.03-.13 0-.02 0-.03 0-.05 0-.07-.02-.14-.04-.21-.02-.06-.03-.12-.05-.17-.03-.05-.07-.1-.1-.15-.04-.06-.08-.11-.13-.16-.01-.01-.02-.03-.03-.04-.04-.03-.08-.04-.11-.06-.06-.04-.12-.07-.19-.1-.07-.02-.13-.03-.2-.04-.04 0-.08-.03-.13-.03h-2.23l4.92-5.72 5.96 6.6-2.39 2.94c-.24.3-.29.71-.13 1.06.17.35.52.57.9.57h6.37l-9.9 10.07c-.28.29-.37.72-.21 1.09.16.37.52.61.92.61h1.82v5.83h-4.29v-7.11c0-.55-.45-1-1-1ZM62.79 63.94h-3.1v-5.84h3.1v5.84ZM48.42 56.11l-4.01-4.1h14.77c.4 0 .77-.24.92-.61.16-.37.07-.8-.21-1.09l-8.7-8.83h5.46c.39 0 .74-.22.9-.57.17-.35.12-.76-.13-1.06l-2.67-3.27 7.11-7.85 6.69 7.77h-3.33c0 0-.08.02-.12.02-.07 0-.14.02-.21.04-.07.02-.12.06-.18.1-.04.02-.08.03-.12.06-.01.01-.02.03-.03.04-.05.05-.09.1-.13.16-.04.05-.08.1-.1.15-.03.05-.04.11-.05.17-.02.07-.04.14-.04.21 0 .02 0 .03 0 .05 0 .05.02.09.03.13 0 .07.02.14.04.2.02.07.06.12.1.18.02.04.03.08.06.12l6.92 8.47h-5.65c0 0-.08.02-.13.03-.08.01-.16.02-.24.05-.08.03-.14.08-.21.13-.04.03-.08.04-.11.07 0 0 0 0 0 0-.07.07-.12.16-.17.24-.01.03-.04.05-.05.08-.02.04-.01.08-.02.11-.03.09-.05.18-.05.27 0 0 0 0 0 .01 0 .05.02.09.03.14.01.08.02.16.05.23.03.08.08.14.13.21.03.04.04.08.07.11l7.47 7.82h-24.06ZM16.48 25.62c4.02 0 7.28-3.27 7.28-7.28 0-4.01-3.27-7.28-7.28-7.28-4.01 0-7.28 3.27-7.28 7.28 0 4.01 3.27 7.28 7.28 7.28ZM16.48 13.06c2.91 0 5.28 2.37 5.28 5.28 0 2.91-2.37 5.28-5.28 5.28-2.91 0-5.28-2.37-5.28-5.28 0-2.91 2.37-5.28 5.28-5.28Z"/>
</svg>