<svg xmlns="http://www.w3.org/2000/svg" viewBox="0 0 80 80">
<path d="M23.42 53.84 49.55 53.84 49.55 45.71 27.59 45.71 23.42 53.84ZM47.04 22.55 39.47 22.55 34.68 31.89 47.04 31.89 47.04 22.55ZM41.53 34.73 41.53 42.86 64.83 42.86 59.84 34.73 41.53 34.73ZM32.91 56.68 61.77 56.68 61.77 63.7 32.91 63.7 32.91 56.68ZM18.98 62.49c-.22.33-.1.64-.04.76.03.05.08.13.17.21l.27.15c.06.02.13.04.21.04v.07h10.48v-7.02h-8.11l-2.98 5.81ZM49.88 22.55 49.88 31.89 58.09 31.89 52.36 22.55 49.88 22.55ZM29.05 42.86 38.68 42.86 38.68 34.73 33.22 34.73 29.05 42.86ZM4.75 49.08c-1.05.91-1.02 2.56.06 3.43l11.54 9.62c.07-.17.13-.35.23-.51l2.76-5.39-12.37-9.29-2.24 2.13ZM45.13 11.51l-4.29 8.36h9.87c0 0-5.22-8.21-5.58-8.36ZM75.7 60.57l-2.39-3.89h-8.69v7.02h9.36c1.61 0 2.58-1.77 1.71-3.13ZM31.63 32.29 42.86 11.51 26.29 28.51 31.63 32.29ZM66.57 45.71 52.39 45.71 52.39 53.84 71.56 53.84 66.57 45.71ZM17.31 37.09 26.01 43.25 30.32 34.85 24.2 30.51 17.31 37.09ZM9.07 44.95 20.67 53.66 24.7 45.81 15.21 39.09 9.07 44.95Z"/>
</svg>