<svg xmlns="http://www.w3.org/2000/svg" viewBox="0 0 80 80">
<path d="M72.64 30.88c.16.1.35.16.54.16.19 0 .38-.05.54-.16.33-.21.5-.59.45-.98-.43-3.07-2.3-5.82-5.42-7.96-3.44-2.36-7.96-3.62-11.6-3.35 3.11-3.73 6.96-6.5 10.76-7.58.35-.1.62-.39.7-.74.08-.36-.04-.73-.32-.97-2.33-2.03-6.97-1.88-10.54-1.07-4.91 1.12-8.81 3.52-10.75 6.56-.99-1.32-2.29-2.38-3.9-3.09-4.35-1.94-10.24-1.16-14.33 1.9-.35.26-.49.73-.34 1.14.15.41.56.68 1 .66 2.53-.13 4.92.76 6.42 2.4 1.06 1.16 1.53 2.54 1.34 3.87 0 .02 0 .04 0 .06-2.77 1-5.33 2.8-7.25 5.19-2.79 3.46-3.83 7.65-2.87 11.47.09.36.38.64.74.73.08.02.15.03.23.03.29 0 .56-.12.76-.35 2.23-2.58 5.54-5.39 8.89-7.33 0 5.16 2.14 12.33 5.75 15.72.19.18.43.27.68.27.13 0 .27-.03.4-.08.37-.16.6-.52.6-.92 0-4.15.26-5.56.61-7.5.18-.96.37-2.05.57-3.62.03 0 .06 0 .09 0 .79 0 1.57-.2 2.28-.59.47-.26.86-.6 1.21-.98 4.7 4.42 8.76 9.84 9.54 18.44-.02 0-.04-.01-.06-.01-1.2 0-2.32-.58-3.61-1.25-1.64-.85-3.49-1.81-5.98-1.81-1.55 0-2.97.85-4.34 1.67-1.19.71-2.31 1.39-3.31 1.39h0c-1 0-2.12-.67-3.31-1.39-1.37-.82-2.79-1.67-4.34-1.67-1.55 0-2.97.85-4.34 1.67-1.19.71-2.31 1.39-3.31 1.39h0c-1 0-2.12-.67-3.31-1.39-1.37-.82-2.79-1.67-4.34-1.67-1.55 0-2.97.85-4.34 1.67-1.19.71-2.31 1.39-3.31 1.39h0c-.55 0-1 .45-1 1 0 .55.45 1 1 1h0c1.55 0 2.97-.85 4.34-1.67 1.19-.71 2.31-1.39 3.31-1.39 1 0 2.12.67 3.31 1.39 1.37.82 2.79 1.67 4.34 1.67h0c1.55 0 2.97-.85 4.34-1.67 1.19-.71 2.31-1.39 3.31-1.39 1 0 2.12.67 3.31 1.39 1.37.82 2.79 1.67 4.34 1.67h0c1.55 0 2.97-.85 4.34-1.67 1.19-.71 2.31-1.39 3.31-1.39 2 0 3.56.81 5.06 1.59 1.4.72 2.84 1.47 4.53 1.47.06 0 .12-.02.18-.04.07 2.22-.07 4.65-.46 7.31-.13-.06-.26-.09-.41-.09-1.6 0-2.78-.69-4.03-1.42-1.33-.77-2.83-1.64-4.87-1.64-1.55 0-2.97.85-4.34 1.67-1.19.71-2.31 1.39-3.31 1.39h0c-1 0-2.12-.67-3.31-1.39-1.37-.82-2.79-1.67-4.34-1.67-1.55 0-2.97.85-4.34 1.67-1.19.71-2.31 1.39-3.31 1.39h0c-1 0-2.12-.67-3.31-1.39-1.37-.82-2.79-1.67-4.34-1.67-1.55 0-2.97.85-4.34 1.67-1.19.71-2.31 1.39-3.31 1.39h0c-.55 0-1 .45-1 1 0 .55.45 1 1 1h0c1.55 0 2.97-.85 4.34-1.67 1.19-.71 2.31-1.39 3.31-1.39 1 0 2.12.67 3.31 1.39 1.37.82 2.79 1.67 4.34 1.67h0c1.55 0 2.97-.85 4.34-1.67 1.19-.71 2.31-1.39 3.31-1.39 1 0 2.12.67 3.31 1.39 1.37.82 2.79 1.67 4.34 1.67h0c1.55 0 2.97-.85 4.34-1.67 1.19-.71 2.31-1.39 3.31-1.39 1.5 0 2.59.64 3.86 1.37 1.36.79 2.9 1.69 5.04 1.69.04 0 .07-.02.1-.02-.4 2.23-.98 4.62-1.73 7.17-.9-.14-1.89-.73-2.93-1.36-1.37-.82-2.79-1.67-4.34-1.67-1.55 0-2.97.85-4.34 1.67-1.19.71-2.31 1.39-3.31 1.39h0c-1 0-2.12-.67-3.31-1.39-1.37-.82-2.79-1.67-4.34-1.67-1.55 0-2.97.85-4.34 1.67-1.19.71-2.31 1.39-3.31 1.39h0c-1 0-2.12-.67-3.31-1.39-1.37-.82-2.79-1.67-4.34-1.67-1.55 0-2.97.85-4.34 1.67-1.19.71-2.31 1.39-3.31 1.39h0c-.55 0-1 .45-1 1 0 .55.45 1 1 1h0c1.55 0 2.97-.85 4.34-1.67 1.19-.71 2.31-1.39 3.31-1.39 1 0 2.12.67 3.31 1.39 1.37.82 2.79 1.67 4.34 1.67h0c1.55 0 2.97-.85 4.34-1.67 1.19-.71 2.31-1.39 3.31-1.39 1 0 2.12.67 3.31 1.39 1.37.82 2.79 1.67 4.34 1.67h0c1.55 0 2.97-.85 4.34-1.67 1.19-.71 2.31-1.39 3.31-1.39 1 0 2.12.67 3.31 1.39 1.37.82 2.79 1.67 4.34 1.67h0c.05 0 .1-.02.15-.03.07.01.14.03.21.03.43 0 .82-.28.96-.71.45-1.48.85-2.92 1.19-4.33.17-.02.33-.06.48-.17.13-.09 3.3-2.26 7.68-.77-.16 1.56-.34 3.15-.59 4.83-.08.55.3 1.05.84 1.14.05 0 .1.01.15.01.49 0 .92-.36.99-.85 3.01-20.35-.77-32.49-12.99-41.49.36-.37.67-.79.89-1.26 4.97-.75 11.7-.33 15.25 1.93ZM48.83 24.95c-.2.71-.67 1.29-1.31 1.64-.64.35-1.38.44-2.09.23-1.46-.42-2.29-1.95-1.87-3.4.35-1.2 1.45-1.98 2.64-1.98.25 0 .51.04.76.11 1.45.42 2.29 1.95 1.87 3.4ZM32.6 13.7c3.15-1.31 6.87-1.44 9.68-.18 1.8.8 3.95 2.5 4.65 6.01-1.54-.24-3.05.29-4.1 1.35-.09-.03-.18-.06-.28-.07-1.11-.03-2.23.08-3.33.32.02-1.67-.64-3.31-1.9-4.69-1.21-1.33-2.87-2.27-4.72-2.74ZM28.72 35.92c-.1-2.64.86-5.38 2.77-7.76 2.57-3.19 6.39-5.18 10.16-5.33 0 .01 0 .02-.01.03-.46 1.59-.04 3.23.97 4.41-4.64 1.01-10.09 4.8-13.89 8.64ZM43.76 38.58c-.28 1.55-.5 2.77-.6 5.13-2.4-3.68-3.74-9.43-3.43-13.32.69-.32 1.37-.59 2.04-.81-.24 1.12-.1 2.28.46 3.29.49.88 1.23 1.56 2.12 1.98-.21 1.64-.41 2.75-.59 3.73ZM49.02 31.35c-.2.71-.67 1.29-1.31 1.64-.64.35-1.38.44-2.09.23-.71-.2-1.29-.67-1.64-1.31-.35-.64-.44-1.38-.23-2.09.09-.32.24-.61.43-.87.14-.09.24-.21.32-.35.13.05.25.11.38.15.44.13.88.19 1.33.19.67 0 1.34-.15 1.96-.44.81.69 1.16 1.8.86 2.84ZM49.1 20.45c-.13-1.32-.45-2.54-.93-3.63 1.59-3.57 6.21-5.77 10.02-6.64 2.57-.58 5.07-.65 6.84-.24-4.87 2.15-9.57 6.58-12.66 12.06-.04.08-.06.16-.08.24-.55.1-1.08.3-1.56.58-.29-.93-.85-1.76-1.63-2.36ZM50.64 28.5c-.22-.45-.5-.86-.86-1.22.44-.51.78-1.11.98-1.77 0-.03 0-.06.02-.09.03-.03.06-.05.09-.08.67-.98 1.89-1.41 3.03-1.08.71.2 1.29.67 1.64 1.31.35.64.44 1.38.23 2.09-.42 1.45-1.94 2.29-3.4 1.88-.82-.24-1.44-.61-1.72-1.03ZM68.28 64.54c-3.45-1.03-6.27-.21-7.79.49.42-2.03.71-3.97.89-5.84.05-.03.1-.04.15-.08.12-.1 3.08-2.4 6.95-1.09.05 2.05-.01 4.23-.19 6.53ZM67.4 49.28c.5 2.05.8 4.26.96 6.62-2.96-.75-5.42.12-6.83.86.07-1.98 0-3.88-.22-5.69.15-.05.28-.12.4-.24.09-.09 2.16-2.16 5.48-1.54.07.01.13 0 .2 0ZM64.89 42.56c0 0 0 0 0 0 .77 1.47 1.4 3.01 1.92 4.65-2.8-.27-4.84.88-5.84 1.63-.16-.84-.36-1.66-.59-2.46-.22-.77-.48-1.5-.75-2.21.12-.05.24-.13.34-.23.08-.08 1.93-1.93 4.92-1.38ZM60.15 36.24c.07 0 .13-.03.2-.04 1.27 1.34 2.37 2.76 3.33 4.26-2.5.04-4.21 1.27-4.86 1.82-.84-1.76-1.8-3.34-2.84-4.75.67-.53 1.98-1.3 4-1.3.06 0 .12 0 .17 0ZM58.47 34.37c-1.75.29-2.99 1.02-3.73 1.6-1.28-1.53-2.6-2.84-3.84-3.98 0-.03.02-.05.03-.08.07-.23.11-.46.14-.69.25.1.49.18.72.25.44.13.88.19 1.33.19.54 0 1.07-.1 1.58-.28 1.36.97 2.62 1.96 3.77 3ZM54.48 22.36c.32-.54.66-1.07 1.01-1.59.14.03.29.04.44 0 3.26-.77 8.18.41 11.68 2.81 1.42.97 3.09 2.47 4 4.55-3.99-1.58-9.46-1.8-13.77-1.26 0-.78-.18-1.56-.57-2.26-.61-1.1-1.6-1.89-2.8-2.25Z"/>
</svg>