<svg xmlns="http://www.w3.org/2000/svg" viewBox="0 0 80 80">
<path d="M39.25 13.63v-6.95c0-.55-.45-1-1-1-.55 0-1 .45-1 1v6.95c0 .55.45 1 1 1 .55 0 1-.45 1-1ZM55.97 23.61c0-.55-.45-1-1-1h-6.95c-.55 0-1 .45-1 1 0 .55.45 1 1 1h6.95c.55 0 1-.45 1-1ZM20.52 23.61c0 .55.45 1 1 1h6.95c.55 0 1-.45 1-1 0-.55-.45-1-1-1h-6.95c-.55 0-1 .45-1 1ZM29.98 27.07c-.17-.53-.73-.82-1.26-.65l-6.62 2.12c-.53.17-.82.73-.65 1.26.14.42.53.7.95.7.1 0 .2-.01.3-.05l6.62-2.12c.53-.17.82-.73.65-1.26ZM53.93 16.65l-6.62 2.12c-.53.17-.82.73-.65 1.26.14.42.53.7.95.7.1 0 .2-.01.3-.05l6.62-2.12c.53-.17.82-.73.65-1.26-.17-.53-.73-.82-1.26-.65ZM44.68 6.91c-.53-.17-1.09.11-1.26.64l-2.18 6.6c-.17.52.11 1.09.64 1.26.1.03.21.05.31.05.42 0 .81-.27.95-.69l2.18-6.6c.17-.52-.11-1.09-.64-1.26ZM31.99 39.86c.1.03.21.05.31.05.42 0 .81-.27.95-.69l2.18-6.6c.17-.52-.11-1.09-.64-1.26-.53-.17-1.09.11-1.26.64l-2.18 6.6c-.17.52.11 1.09.64 1.26ZM49.37 11.07l-4.92 4.92c-.39.39-.39 1.02 0 1.41.2.2.45.29.71.29.26 0 .51-.1.71-.29l4.92-4.92c.39-.39.39-1.02 0-1.41-.39-.39-1.02-.39-1.41 0ZM26.42 36.44c.26 0 .51-.1.71-.29l4.92-4.92c.39-.39.39-1.02 0-1.41-.39-.39-1.02-.39-1.41 0l-4.92 4.92c-.39.39-.39 1.02 0 1.41.2.2.45.29.71.29ZM50.07 36.44c.26 0 .51-.1.71-.29.39-.39.39-1.02 0-1.41l-4.92-4.92c-.39-.39-1.02-.39-1.41 0-.39.39-.39 1.02 0 1.41l4.92 4.92c.2.2.45.29.71.29ZM25.71 11.07c-.39.39-.39 1.02 0 1.41l4.92 4.92c.2.2.45.29.71.29.26 0 .51-.1.71-.29.39-.39.39-1.02 0-1.41l-4.92-4.92c-.39-.39-1.02-.39-1.41 0ZM41.34 31.4c-.5.24-.71.84-.47 1.33l3.01 6.27c.17.36.53.57.9.57.15 0 .29-.03.43-.1.5-.24.71-.84.47-1.33l-3.01-6.27c-.24-.5-.84-.71-1.33-.47ZM32.34 7.58c-.23-.51-.82-.73-1.32-.51-.5.22-.73.82-.51 1.32l2.82 6.35c.17.37.53.59.91.59.14 0 .27-.03.41-.09.5-.22.73-.82.51-1.32l-2.82-6.35ZM21.47 16.82c-.2.51.05 1.09.57 1.3l6.47 2.54c.12.05.24.07.36.07.4 0 .78-.24.93-.63.2-.51-.05-1.09-.57-1.3l-6.47-2.54c-.51-.2-1.09.05-1.3.57ZM53.68 30.7c.4 0 .78-.24.93-.63.2-.51-.05-1.09-.57-1.3l-6.47-2.54c-.51-.2-1.09.05-1.3.57-.2.51.05 1.09.57 1.3l6.47 2.54c.12.05.24.07.36.07ZM34.55 23.41c0 2.04 1.66 3.69 3.69 3.69 2.03 0 3.69-1.66 3.69-3.69 0-2.03-1.66-3.69-3.69-3.69-2.03 0-3.69 1.66-3.69 3.69ZM38.25 21.71c.93 0 1.69.76 1.69 1.69 0 .93-.76 1.69-1.69 1.69-.93 0-1.69-.76-1.69-1.69 0-.93.76-1.69 1.69-1.69ZM19.03 40.79c-.09-.26-.28-.48-.53-.6l-9.63-4.52c0 0-.06-.03-.09-.04-.6-.21-1.26-.07-1.72.37-.46.44-.63 1.1-.44 1.7.01.04.02.07.04.11l4.19 9.44c.22.49.79.72 1.29.52l1.32-.54 2.97 8.75c.09.28.3.5.57.61.27.11.57.1.83-.04l1.93-.99 2.99 8.03c.11.31.37.54.69.62.32.08.66 0 .9-.21l1.65-1.43 11.54 11.44c0 0 0 0 0 0h0c0 0 .03.02.04.03.01.01.02.03.04.04.04.04.1.05.14.08.03.02.06.05.1.06.01 0 .02 0 .03 0 .11.04.23.07.35.07.12 0 .24-.03.35-.07.01 0 .02 0 .03 0 .04-.01.06-.04.1-.06.05-.03.1-.04.14-.08.02-.01.02-.03.04-.04.01-.01.03-.02.04-.03h0c0 0 0 0 0 0l11.54-11.44 1.65 1.43c.25.21.58.3.9.21.32-.08.58-.31.69-.62l2.99-8.03 1.93.99c.26.13.56.15.83.04.27-.11.48-.33.57-.61l2.97-8.75 1.32.54c.5.2 1.07-.03 1.29-.52l4.19-9.44c0 0 .03-.07.04-.11.19-.61.02-1.26-.44-1.7-.46-.44-1.12-.58-1.72-.37-.03.01-.06.02-.09.04l-9.63 4.52c-.25.12-.44.33-.53.6-.09.27-.06.55.07.79l.77 1.4-7.9 4.84c-.25.15-.42.41-.47.7-.05.29.04.59.24.81l1.58 1.81-6.49 4.06c-.44.27-.6.84-.36 1.3l1.16 2.31-6.82 11.01v-36.63c0-.55-.45-1-1-1-.55 0-1 .45-1 1v36.63l-6.82-11.01 1.16-2.31c.23-.46.07-1.02-.36-1.3l-6.49-4.06 1.58-1.81c.19-.22.28-.52.24-.81-.04-.29-.22-.55-.47-.7l-7.9-4.84.77-1.4c.13-.24.16-.53.07-.79ZM48.06 59.38c.18-.3.2-.67.04-.98l-1-2 6.71-4.2c.25-.16.42-.41.46-.7.04-.29-.04-.58-.24-.8l-1.57-1.8 7.7-4.72c.46-.28.61-.87.35-1.33l-.71-1.3 7.8-3.66-3.41 7.68-1.41-.57c-.26-.1-.54-.1-.79.02-.25.11-.44.33-.53.59l-2.94 8.66-1.9-.97c-.25-.13-.55-.15-.82-.04-.27.1-.48.32-.58.58l-2.88 7.73-1.26-1.09c-.39-.34-.99-.32-1.36.04l-6.18 6.13 4.5-7.27ZM24.03 48.91l-1.57 1.8c-.19.22-.28.51-.24.8.04.29.21.55.46.7l6.71 4.2-1 2c-.16.31-.14.68.04.98l4.5 7.27-6.18-6.13c-.19-.19-.45-.29-.7-.29-.23 0-.47.08-.66.25l-1.26 1.09-2.88-7.73c-.1-.27-.31-.48-.58-.58-.27-.1-.56-.09-.82.04l-1.9.97-2.94-8.66c-.09-.26-.28-.47-.53-.59-.25-.12-.54-.12-.79-.02l-1.41.57-3.41-7.68 7.8 3.66-.71 1.3c-.26.47-.1 1.05.35 1.33l7.7 4.72Z"/>
</svg>