<svg xmlns="http://www.w3.org/2000/svg" viewBox="0 0 80 80">
<path d="M57.82 42.3c-.98 1.45-1.91 2.93-2.78 4.4-.38-1.29-1.38-4.27-2.82-4.68-.49-.14-.99.03-1.47.5-.5.49-.69 1-.56 1.54.37 1.58 3.43 2.82 4.52 3.21-1.03 1.76-1.97 3.51-2.84 5.22-.35-.85-1-2.3-1.81-3.53-.71-1.06-1.95-1.16-2.74-.65-.55.35-.97 1.11-.36 2.07.51.8 1.52 1.54 3 2.19.61.27 1.18.47 1.57.59-.98 1.95-1.85 3.84-2.62 5.59-.22-.63-.55-1.52-.97-2.44-1.06-2.27-2.15-3.59-3.25-3.91-.68-.2-1.35 0-2 .57-.63.56-.89 1.18-.76 1.83.21 1.09 1.49 2.25 3.78 3.45 1.13.59 2.24 1.05 2.86 1.29-.17.4-.34.8-.5 1.19-.4.96-.77 1.89-1.13 2.79-.33-.52-.84-1.29-1.45-2.06-1.42-1.79-2.65-2.71-3.66-2.71h0c-.64 0-1.18.38-1.6 1.12-.43.77-.48 1.46-.15 2.05.51.9 1.87 1.57 4.05 1.99 1 .19 1.95.28 2.53.33-2.46 6.41-3.65 11.01-3.66 11.06-.06.23.08.46.31.52.04 0 .07.01.11.01.19 0 .37-.13.42-.32.01-.05 1.19-4.58 3.61-10.91.35.56.94 1.47 1.66 2.38 1.56 1.97 2.92 2.99 4.07 3.05.03 0 .06 0 .09 0 .67 0 1.25-.34 1.72-1.02.49-.69.59-1.35.32-1.95-.93-2.05-6-2.87-7.62-3.08.37-.94.76-1.92 1.18-2.93.16-.39.33-.78.49-1.16.58.3 1.63.81 2.79 1.26 1.49.57 2.7.85 3.63.85.55 0 1-.1 1.35-.3.55-.31.83-.87.85-1.66.02-.8-.26-1.39-.81-1.76-.92-.62-2.6-.6-4.98.05-.99.27-1.9.59-2.51.83.88-2.01 1.76-3.89 2.64-5.65.55.24 1.53.64 2.61.97 1.26.38 2.32.58 3.17.58.66 0 1.19-.12 1.59-.35.52-.3.81-.8.87-1.49.05-.66-.15-1.15-.58-1.46-1.51-1.07-5.53.32-7.29 1.02.94-1.85 1.89-3.57 2.82-5.16.55.27 1.65.78 2.89 1.21 1.4.48 2.56.72 3.49.72.65 0 1.17-.12 1.58-.35.61-.35.94-.97.98-1.84.04-.85-.23-1.46-.79-1.82-.93-.6-2.65-.49-5.11.33-1.03.34-1.98.74-2.61 1.03.89-1.49 1.77-2.87 2.62-4.13 1.11.33 3.68 1.02 5.48 1.02.72 0 1.31-.11 1.64-.4.25-.22.34-.51.27-.89-.07-.4-.29-.71-.66-.92-1.41-.81-4.64.02-6.28.52 1.04-1.51 2.05-2.85 2.99-4.04.7.41 2.31 1.29 3.91 1.81.24.08.47.11.69.11.9 0 1.62-.59 1.86-1.31.21-.62.07-1.47-1.01-1.85-.9-.31-2.15-.27-3.72.14-.42.11-.81.23-1.14.35.78-.95 1.52-1.79 2.2-2.53.1-.11.13-.26.1-.39.67-.44 1.84-1.26 3-2.19 2.37-1.91 3.56-3.42 3.52-4.47-.02-.48-.29-.86-.8-1.13-.56-.29-1.13-.32-1.71-.07-1.14.49-2.28 2-3.39 4.51-.53 1.21-.93 2.37-1.15 3.03-.08.02-.16.06-.22.13-.75.81-1.47 1.64-2.17 2.49.3-1.56.64-4.3-.33-5.25-.34-.34-.82-.43-1.41-.26-.61.17-1 .51-1.16 1.01-.5 1.59 1.49 4.37 2.23 5.33-1.08 1.36-2.12 2.76-3.09 4.18-.28-1.31-1.01-4.03-2.27-4.52-.42-.16-.86-.07-1.3.28-.46.36-.66.78-.61 1.25.15 1.47 2.76 3.03 3.78 3.58ZM39.59 40.28c.82-.07 1.59-.21 2.05-.31-.49 5.56-.4 9.42-.4 9.47 0 .19.17.35.36.34.03 0 .06 0 .09-.01.15-.04.26-.18.25-.35 0-.04-.09-3.84.39-9.34.4.36 1.06.94 1.83 1.49 1.66 1.19 2.95 1.69 3.86 1.48.03 0 .05-.01.07-.02.52-.15.9-.55 1.12-1.18.23-.65.16-1.19-.19-1.6-1.19-1.39-5.34-.9-6.65-.71.08-.82.17-1.67.27-2.55.04-.34.08-.68.13-1.02.52.1 1.46.27 2.46.36 1.29.11 2.3.06 3.03-.14.43-.12.76-.3.99-.54.36-.37.46-.87.29-1.49-.17-.63-.51-1.03-1.02-1.2-.86-.28-2.17.11-3.89 1.15-.71.43-1.35.89-1.78 1.21.24-1.77.51-3.43.81-5.01.49.06 1.34.16 2.26.17 1.07.02 1.95-.07 2.61-.26.52-.15.91-.36 1.17-.63.34-.35.46-.81.35-1.35-.11-.53-.37-.86-.78-1.01-1.42-.5-4.26 1.49-5.48 2.42.33-1.66.68-3.21 1.05-4.66.49.09 1.47.24 2.53.3 1.2.07 2.17 0 2.89-.21.51-.14.89-.35 1.16-.63.4-.41.52-.97.36-1.66-.16-.67-.5-1.09-1.02-1.25-.86-.26-2.18.21-3.92 1.4-.73.5-1.38 1.02-1.81 1.39.36-1.37.74-2.64 1.13-3.82.94 0 3.1-.02 4.51-.42.56-.16 1-.38 1.2-.68.14-.22.15-.48.01-.75-.14-.3-.39-.49-.72-.57-1.28-.32-3.63 1.05-4.8 1.81.48-1.41.96-2.69 1.44-3.83.64.16 2.09.5 3.46.55.2 0 .39-.02.57-.07.7-.2 1.13-.82 1.16-1.44.03-.53-.27-1.17-1.2-1.22-.77-.05-1.74.27-2.88.94-.31.18-.58.36-.81.52.4-.92.79-1.74 1.16-2.47.05-.11.05-.23 0-.33.42-.5 1.16-1.39 1.86-2.39 1.43-2.03 2.02-3.47 1.75-4.28-.12-.37-.41-.61-.88-.7-.5-.11-.95 0-1.35.32-.78.63-1.33 2.07-1.64 4.28-.15 1.06-.2 2.06-.22 2.63-.06.03-.11.08-.14.15-.4.8-.78 1.61-1.14 2.43-.12-1.29-.46-3.5-1.43-4.03-.34-.19-.73-.15-1.16.11-.44.27-.67.62-.68 1.05-.04 1.36 2.14 3.09 2.93 3.67-.55 1.3-1.04 2.63-1.49 3.96-.51-.96-1.69-2.93-2.78-3.03-.36-.03-.69.14-.96.51-.28.38-.34.75-.2 1.11.45 1.12 2.83 1.75 3.76 1.96-.44 1.36-.84 2.71-1.19 4.06-.58-.93-2.03-3.03-3.25-3.03-.42 0-.77.24-1.04.72-.28.49-.31.94-.1 1.33.64 1.15 3.31 1.44 4.25 1.51-.41 1.61-.76 3.19-1.06 4.71-.46-.58-1.29-1.58-2.2-2.36-.79-.67-1.79-.48-2.29.1-.35.4-.51 1.08.18 1.7.58.52 1.53.87 2.84 1.05.54.07 1.03.1 1.36.11-.33 1.75-.59 3.41-.8 4.96-.31-.44-.77-1.07-1.31-1.69-1.33-1.54-2.48-2.33-3.41-2.33-.58 0-1.06.3-1.44.89-.37.58-.43 1.12-.19 1.6.41.8 1.66 1.43 3.73 1.86 1.02.21 1.99.32 2.53.37-.05.35-.09.7-.13 1.04-.1.84-.18 1.65-.26 2.43-.37-.33-.95-.82-1.59-1.29-1.51-1.09-2.68-1.52-3.47-1.3 0 0 0 0 0 0-.5.14-.84.56-1 1.24-.17.7-.05 1.25.34 1.64.6.59 1.81.81 3.61.65ZM12.83 16.11c1.17 1.69 2.27 3.38 3.3 5.07-.76-.5-1.78-.99-2.94-1.06-2.47-.16-4.19 1.06-4.21 1.07-.02.02-.03.04-.04.06 0 .03 0 .05.02.07.02.03 1.67 1.91 4.84 1.91.94 0 2.01-.17 3.21-.59.86 1.47 1.67 2.94 2.42 4.42-.79-.63-2-1.38-3.44-1.52-2.58-.25-4.43.96-4.45.97-.02.01-.04.04-.04.06 0 .02 0 .05.02.07.03.04.74.93 2.2 1.57.75.33 1.77.62 3.07.62.94 0 2.03-.16 3.25-.56.88 1.79 1.69 3.58 2.41 5.36-.82-.64-2.14-1.45-3.71-1.55-2.62-.16-4.44 1.12-4.46 1.14-.02.02-.03.04-.04.06 0 .03 0 .05.02.07.03.04.78.91 2.28 1.51.71.28 1.66.52 2.83.52 1.01 0 2.18-.18 3.51-.66.6 1.55 1.14 3.09 1.61 4.62.09.3.18.59.27.89-.79-.64-2.28-1.63-4.13-1.75-2.74-.18-4.69 1.06-4.71 1.07-.02.01-.04.04-.04.06 0 .03 0 .05.02.07.03.04.8.89 2.35 1.48.75.28 1.75.52 3.01.52 1.07 0 2.31-.17 3.73-.65.48 1.71.89 3.41 1.21 5.1-1.08-.57-3.14-1.53-4.95-1.56-2.56-.04-4.02.98-4.08 1.02-.02.01-.03.04-.04.06 0 .02 0 .05.02.07.02.03 1.67 2.09 5.1 2.09 1.16 0 2.52-.24 4.1-.86.37 2.05.62 4.09.76 6.1-.66-.82-2.1-2.31-4.15-2.84-2.87-.74-5.2.17-5.22.18-.02.01-.04.03-.05.06 0 .03 0 .05 0 .08.03.04.66 1.11 2.19 2.05 1.1.67 2.83 1.37 5.29 1.37.61 0 1.28-.05 1.98-.14.08 1.41.1 2.81.07 4.2-.01.44-.03.88-.05 1.3-.84-.69-3.15-2.48-5.32-3.14-2.73-.83-4.54.22-4.62.26-.02.01-.04.04-.04.06 0 .03 0 .05.02.07.04.04 3.08 3.71 7.43 3.71.8 0 1.63-.12 2.51-.41-.18 2.85-.59 5.3-1.04 7.29-.81-1.02-2.94-3.46-5.27-4.34-2.97-1.12-5.22-.44-5.25-.43-.02 0-.05.03-.06.05-.01.02-.01.05 0 .08 0 .02.73 1.66 2.42 3.12 1.29 1.11 3.37 2.3 6.39 2.3.51 0 1.05-.04 1.61-.11-.21.86-.43 1.62-.63 2.27-.86 2.77-1.71 4.28-1.72 4.3-.12.21-.04.47.16.59.07.04.14.06.21.06.15 0 .3-.08.38-.22.09-.16 1.41-2.55 2.46-6.87.66.29 1.84.7 3.33.81.23.02.46.03.71.03 2.13 0 5.06-.67 8.06-3.47.02-.02.03-.06.03-.09 0-.03-.03-.06-.06-.07-.01 0-1.12-.36-2.61-.6-1.38-.22-3.39-.39-5.11.09-1.9.52-3.26 1.4-4.06 2.05.42-1.97.76-4.27.91-6.89.42.07 1.15.17 2.07.17 2.39 0 6.03-.65 8.68-4.04.02-.03.03-.06.01-.09-.02-.03-.04-.05-.08-.05-.04 0-4.07-.3-7 .71-1.54.53-2.58 1.34-3.19 1.93-.18.18-.33.34-.46.49.01-.27.02-.54.03-.81.04-1.42.01-2.85-.07-4.29.33.08.86.17 1.55.17.35 0 .74-.02 1.16-.08 1.68-.24 4.23-1.13 6.79-4.03.02-.02.03-.06.02-.09 0-.03-.03-.05-.06-.06-.03-.01-3.08-1-5.86.29-1.92.9-3.1 2.25-3.66 3.01-.14-2.01-.39-4.05-.76-6.1.22.04.58.09 1.04.09 1.77 0 5.01-.71 7.71-5.26.02-.03.02-.07 0-.1-.02-.03-.05-.05-.08-.04-.04 0-3.87.24-6.1 1.76-1.57 1.08-2.35 2.27-2.68 2.91-.32-1.7-.72-3.4-1.19-5.12.06 0 .13 0 .2 0 .55 0 1.33-.07 2.26-.35 1.63-.49 4-1.76 6.1-5.02.02-.03.02-.06 0-.09-.01-.03-.04-.05-.07-.05-.03 0-3.2-.52-5.74 1.18-1.61 1.08-2.55 2.45-3.03 3.31-.1-.34-.2-.68-.3-1.01-.46-1.49-.98-2.99-1.56-4.49 1.16-.07 5.32-.77 7.27-7.06.01-.03 0-.07-.02-.09-.02-.02-.06-.03-.09-.02-.04.01-3.71 1.13-5.52 3.13-1.22 1.34-1.71 2.63-1.91 3.35-.78-1.97-1.65-3.94-2.62-5.91 1.27-.35 4.66-1.81 4.82-7.43 0-.03-.02-.06-.04-.08-.03-.02-.06-.02-.09 0-.13.07-3.21 1.62-4.39 3.7-.58 1.03-.81 1.96-.88 2.65-.8-1.57-1.67-3.15-2.59-4.72.73-.56 3.84-3.39 1.31-8.99-.01-.03-.04-.05-.07-.05-.03 0-.06 0-.08.04-.09.12-2.18 2.86-2.33 5.24-.05.81.03 1.51.17 2.08-.99-1.61-2.03-3.21-3.14-4.82.18-1.37.11-4.96-4.84-7.34-.03-.01-.06-.01-.09 0-.03.02-.04.05-.04.08 0 .15.17 3.59 1.59 5.51.96 1.3 2.03 1.91 2.65 2.18Z"/>
</svg>