<svg xmlns="http://www.w3.org/2000/svg" viewBox="0 0 80 80">
<path d="M70.26 16.68c-1.4-1.4-2.98-2.4-4.45-2.8-1.73-.48-3.29-.14-4.38.95-.44.44-.83 1.06-1.15 1.77-.32-.71-.7-1.33-1.15-1.77-1.09-1.09-2.65-1.43-4.38-.95-1.47.41-3.05 1.4-4.45 2.8-3.19 3.19-3.94 6.74-1.85 8.83.44.44 1.05.83 1.76 1.15-.71.32-1.32.7-1.76 1.14-2.09 2.09-1.34 5.63 1.85 8.83 1.99 1.99 4.11 3.03 5.93 3.03 1.11 0 2.11-.38 2.89-1.17.05-.05.1-.12.15-.18v15.66c-2.39-3.13-6.87-4.19-9.22-4.53.25-.17.48-.35.67-.54 2.09-2.08 1.34-5.63-1.85-8.83-3.19-3.19-6.74-3.94-8.83-1.85-.44.44-.83 1.06-1.15 1.77-.32-.71-.7-1.33-1.15-1.77-2.09-2.08-5.63-1.34-8.83 1.85-2.61 2.61-3.58 5.45-2.72 7.54-2.34.93-4.08 2.22-5.14 3.84v-18.85c.24.4.49.76.77 1.04.77.77 1.76 1.16 2.89 1.16.48 0 .97-.07 1.49-.21 1.47-.41 3.05-1.4 4.45-2.8 3.19-3.19 3.94-6.74 1.85-8.83-.44-.44-1.05-.83-1.76-1.14.71-.32 1.32-.71 1.76-1.15 2.09-2.08 1.34-5.63-1.85-8.83-3.19-3.19-6.74-3.94-8.83-1.85-.44.44-.83 1.06-1.15 1.77-.32-.71-.7-1.33-1.15-1.77-2.09-2.08-5.63-1.34-8.83 1.85-3.19 3.19-3.94 6.74-1.85 8.83.44.44 1.05.83 1.76 1.15-.71.32-1.32.7-1.76 1.14-1.09 1.09-1.43 2.64-.95 4.38.41 1.47 1.4 3.05 2.8 4.45 1.4 1.4 2.98 2.4 4.45 2.8 1.5.41 2.86.22 3.9-.54v7.94c-3.16-4.47-10.52-4.91-10.91-4.93-.31 0-.63.12-.83.37-.2.25-.27.58-.19.88 2.17 8.3 9.77 8.89 11.88 8.89.02 0 .03 0 .05 0v14.56c-3.16-4.47-10.52-4.91-10.91-4.93-.31-.02-.63.12-.83.37-.2.25-.27.58-.19.88 2.17 8.3 9.77 8.89 11.88 8.89.02 0 .03 0 .05 0v6.06c0 .55.45 1 1 1 .55 0 1-.45 1-1v-16.62c.09 0 .18 0 .3 0 .94 0 2.77-.12 4.75-.86 0 0 0 .01 0 .02.41 1.47 1.4 3.05 2.8 4.45 1.4 1.4 2.98 2.4 4.45 2.8 1.52.42 2.89.21 3.94-.57l.03 6.41c-3.22-4.32-10.42-4.76-10.8-4.78-.31-.01-.63.12-.83.37-.2.25-.27.58-.19.88 2.17 8.3 9.77 8.89 11.88 8.89.21 0 .36 0 .45-.01.09 0 .24.01.45.01 0 0 .02 0 .03 0 .01 0 .02 0 .03 0h0c0 0 .02 0 .04 0 2.24-.02 9.63-.71 11.77-8.89.08-.31 0-.64-.19-.88-.19-.24-.51-.38-.83-.37-.35.02-6.32.37-9.82 3.68l-.03-6.67c.23.37.47.72.73.98.77.77 1.76 1.16 2.89 1.16.48 0 .97-.07 1.49-.21 1.47-.41 3.05-1.4 4.45-2.8 1.05-1.05 1.88-2.21 2.39-3.34 2.96 2.47 6.54 2.75 8.01 2.75v13.6c0 .55.45 1 1 1 .55 0 1-.45 1-1v-6.31c2.25-.02 9.62-.72 11.76-8.89.08-.31 0-.64-.19-.88-.2-.25-.51-.37-.83-.37-.38.02-7.5.45-10.74 4.7v-9.03c2.25-.02 9.62-.72 11.76-8.89.08-.31 0-.64-.19-.88-.2-.25-.51-.38-.83-.37-.38.02-7.5.45-10.74 4.7v-8.49c.05.06.09.13.15.18.79.79 1.79 1.17 2.89 1.17 1.82 0 3.95-1.04 5.93-3.03 3.19-3.19 3.94-6.74 1.85-8.83-.44-.44-1.05-.83-1.76-1.14.71-.32 1.32-.71 1.76-1.15 2.09-2.09 1.34-5.63-1.85-8.83ZM9.56 39.22c2.61.42 7.82 1.78 8.79 5.96-2.11-.1-6.77-.92-8.79-5.96ZM9.56 58.98c2.61.42 7.82 1.78 8.79 5.96-2.11-.1-6.77-.92-8.79-5.96ZM31.12 24.36c1.36 1.36.1 4.05-1.85 6-1.16 1.16-2.43 1.97-3.57 2.29-1.04.29-1.86.14-2.43-.43-1.03-1.03-1.66-3.59-1.12-5.72.44-.13.87-.31 1.27-.57l1.22 1.22c.2.2.45.29.71.29.26 0 .51-.1.71-.29.39-.39.39-1.02 0-1.41l-1.22-1.22c.26-.4.44-.83.57-1.27 2.13-.53 4.69.1 5.72 1.12ZM23.26 11.39c1.36-1.36 4.05-.1 6 1.85 1.95 1.95 3.21 4.64 1.85 6-1.03 1.03-3.59 1.65-5.72 1.12-.13-.44-.31-.87-.57-1.27l1.22-1.22c.39-.39.39-1.02 0-1.41-.39-.39-1.02-.39-1.41 0l-1.22 1.22c-.4-.26-.83-.44-1.27-.57-.53-2.13.09-4.69 1.12-5.72ZM10.29 19.24c-1.36-1.36-.1-4.05 1.85-6 1.95-1.95 4.64-3.21 6-1.85 1.03 1.03 1.66 3.59 1.12 5.72-.44.13-.87.31-1.27.57l-1.22-1.22c-.39-.39-1.02-.39-1.41 0-.39.39-.39 1.02 0 1.41l1.22 1.22c-.26.4-.44.83-.57 1.27-2.13.53-4.69-.1-5.72-1.12ZM19.08 30.56c-.23.7-.56 1.28-.94 1.66-.58.58-1.39.72-2.43.43-1.14-.31-2.41-1.13-3.57-2.29-1.16-1.16-1.97-2.43-2.29-3.57-.29-1.04-.14-1.86.43-2.43 1.03-1.03 3.59-1.65 5.72-1.12.13.44.31.87.57 1.27l-1.22 1.22c-.39.39-.39 1.02 0 1.41.2.2.45.29.71.29.26 0 .51-.1.71-.29l1.22-1.22c.34.22.71.39 1.09.52v4.11ZM18.63 23.88c-.43-.43-.69-.95-.8-1.51 0 0 0-.02 0-.03-.07-.36-.07-.72 0-1.08 0 0 0-.02 0-.03.11-.55.37-1.08.8-1.51.43-.43.95-.69 1.5-.8.01 0 .03 0 .04 0 .18-.03.35-.05.53-.05.18 0 .36.02.53.05.01 0 .03 0 .04 0 .55.11 1.08.37 1.5.8.42.43.69.95.8 1.51 0 0 0 .02 0 .03.07.36.07.72 0 1.08 0 0 0 .02 0 .03-.11.55-.37 1.08-.8 1.51-.43.43-.95.69-1.5.8-.01 0-.03 0-.04 0-.92.17-1.9-.1-2.6-.81ZM27.95 66.03c2.61.42 7.83 1.77 8.79 5.96-2.11-.1-6.77-.92-8.79-5.96ZM47.8 66.04c-1.91 4.76-6.17 5.75-8.42 5.93v-1.03c1.52-3.36 6.04-4.52 8.42-4.9ZM41.47 39.62c1.36-1.36 4.05-.1 6 1.85 1.95 1.95 3.21 4.64 1.85 6-1.03 1.03-3.59 1.65-5.72 1.12-.13-.44-.31-.87-.57-1.27l1.22-1.22c.39-.39.39-1.02 0-1.41-.39-.39-1.02-.39-1.41 0l-1.22 1.22c-.4-.26-.83-.44-1.27-.57-.53-2.13.09-4.69 1.12-5.72ZM30.35 41.47c1.95-1.95 4.64-3.21 6-1.85 1.03 1.03 1.66 3.59 1.12 5.72-.44.13-.87.31-1.27.57l-1.22-1.22c-.39-.39-1.02-.39-1.41 0-.39.39-.39 1.02 0 1.41l1.22 1.22c-.26.4-.44.83-.57 1.27-2.13.53-4.69-.09-5.72-1.12-1.36-1.36-.1-4.05 1.85-6ZM25.98 53.43c-1.53.68-3.04.89-4.01.94.53-2.31 2.38-4.03 5.53-5.14.38.3.84.57 1.35.79-.71.32-1.32.7-1.76 1.14-.62.62-.99 1.39-1.11 2.26ZM36.35 60.44c-.57.58-1.39.72-2.43.43-1.14-.31-2.41-1.13-3.57-2.29-1.16-1.16-1.97-2.43-2.29-3.57-.29-1.04-.14-1.86.43-2.43 1.03-1.03 3.59-1.65 5.72-1.12.13.44.31.87.57 1.27l-1.22 1.22c-.39.39-.39 1.02 0 1.41.2.2.45.29.71.29.26 0 .51-.1.71-.29l1.22-1.22c.34.23.71.39 1.09.52l.02 4.04c-.24.73-.57 1.34-.96 1.73ZM39.48 52.9c0 0-.02 0-.03 0-.92.17-1.9-.1-2.61-.81-.43-.43-.69-.95-.8-1.51 0 0 0-.02 0-.03-.07-.36-.07-.72 0-1.08 0 0 0-.02 0-.03.11-.55.37-1.08.8-1.51.43-.43.95-.69 1.5-.8.01 0 .02 0 .04 0 .18-.03.35-.05.53-.05.18 0 .36.02.53.05.01 0 .02 0 .04 0 .55.11 1.08.38 1.5.8.42.42.69.95.8 1.51 0 0 0 .02 0 .03.07.36.07.72 0 1.08 0 0 0 .02 0 .03-.11.55-.37 1.08-.8 1.51-.43.43-.95.69-1.5.8ZM49.76 55.02c-.31 1.14-1.13 2.41-2.29 3.57-1.16 1.16-2.43 1.97-3.57 2.29-1.04.29-1.86.14-2.43-.43-1.03-1.03-1.66-3.59-1.12-5.72.44-.13.87-.31 1.27-.57l1.22 1.22c.2.2.45.29.71.29.26 0 .51-.1.71-.29.39-.39.39-1.02 0-1.41l-1.22-1.22c.26-.4.44-.83.57-1.27 2.13-.53 4.69.09 5.72 1.12.57.58.72 1.39.43 2.43ZM51.87 54.46c.08-1.05-.16-2.01-.72-2.79 2.75.62 6.73 2.12 7.57 5.71-1.59-.09-4.61-.6-6.85-2.92ZM70.65 58.74c-2.03 5.04-6.69 5.86-8.79 5.96.97-4.18 6.18-5.54 8.79-5.96ZM70.65 44.27c-2.03 5.04-6.69 5.86-8.79 5.96.97-4.18 6.18-5.54 8.79-5.96ZM49.88 24.09c-1.36-1.36-.1-4.05 1.85-6 1.16-1.16 2.43-1.97 3.57-2.29 1.04-.29 1.86-.14 2.43.43 1.03 1.03 1.66 3.59 1.12 5.72-.44.13-.87.31-1.27.57l-1.22-1.22c-.39-.39-1.02-.39-1.41 0-.39.39-.39 1.02 0 1.41l1.22 1.22c-.26.4-.44.83-.57 1.27-2.13.53-4.69-.1-5.72-1.12ZM57.73 37.06c-1.36 1.36-4.05.1-6-1.85-1.95-1.95-3.21-4.64-1.85-6 1.03-1.03 3.59-1.65 5.72-1.12.13.44.31.87.57 1.27l-1.22 1.22c-.39.39-.39 1.02 0 1.41.2.2.45.29.71.29.26 0 .51-.1.71-.29l1.22-1.22c.4.26.83.44 1.27.57.53 2.13-.09 4.69-1.12 5.72ZM60.86 29.52c0 0-.02 0-.04 0-.35.06-.71.06-1.07 0-.01 0-.02 0-.03 0-.55-.11-1.08-.37-1.5-.8-.42-.43-.69-.95-.8-1.51 0 0 0-.02 0-.03-.07-.36-.07-.72 0-1.08 0 0 0-.02 0-.03.11-.55.37-1.08.8-1.51.43-.43.95-.69 1.5-.8.01 0 .02 0 .04 0 .18-.03.35-.05.53-.05.18 0 .36.02.53.05.01 0 .02 0 .04 0 .55.11 1.08.38 1.5.8.42.42.69.95.8 1.51 0 0 0 .02 0 .03.07.36.07.72 0 1.08 0 0 0 .02 0 .03-.11.55-.37 1.08-.8 1.51-.43.43-.95.69-1.5.8ZM70.7 29.21c1.36 1.36.1 4.05-1.85 6-1.95 1.95-4.64 3.21-6 1.85-1.03-1.03-1.66-3.59-1.12-5.72.44-.13.87-.31 1.27-.57l1.22 1.22c.2.2.45.29.71.29.26 0 .51-.1.71-.29.39-.39.39-1.02 0-1.41l-1.22-1.22c.26-.4.44-.83.57-1.27 2.13-.53 4.69.1 5.72 1.12ZM70.7 24.09c-1.03 1.03-3.59 1.65-5.72 1.12-.13-.44-.31-.87-.57-1.27l1.22-1.22c.39-.39.39-1.02 0-1.41-.39-.39-1.02-.39-1.41 0l-1.22 1.22c-.4-.26-.83-.44-1.27-.57-.53-2.13.09-4.69 1.12-5.72.58-.57 1.39-.72 2.43-.43 1.14.31 2.41 1.13 3.57 2.29 1.95 1.95 3.21 4.64 1.85 6Z"/>
</svg>