<svg xmlns="http://www.w3.org/2000/svg" viewBox="0 0 80 80">
<path d="M41.68 46.02c-.55 0-1 .45-1 1v17.74c0 .55.45 1 1 1 .55 0 1-.45 1-1v-17.74c0-.55-.45-1-1-1ZM41.68 12.62c-.55 0-1 .45-1 1v15.76c0 .55.45 1 1 1 .55 0 1-.45 1-1v-15.76c0-.55-.45-1-1-1ZM36.78 35.09c-.55 0-1 .45-1 1v18.99c0 .55.45 1 1 1 .55 0 1-.45 1-1v-18.99c0-.55-.45-1-1-1ZM36.78 9.36c-.55 0-1 .45-1 1v13.16c0 .55.45 1 1 1 .55 0 1-.45 1-1v-13.16c0-.55-.45-1-1-1ZM28.68 56.71c-3.87-.41-7.33-2.32-9.5-5.23-.33-.44-.96-.54-1.4-.21-.44.33-.54.96-.21 1.4 2.5 3.37 6.47 5.56 10.9 6.03.04 0 .07 0 .11 0 .5 0 .94-.38.99-.9.06-.55-.34-1.04-.89-1.1ZM15.95 41.26c-.55 0-1 .45-1 1v3.7c0 .55.45 1 1 1 .55 0 1-.45 1-1v-3.7c0-.55-.45-1-1-1ZM60.95 46.15c-.48-.28-1.09-.11-1.37.37-1.78 3.08-5.12 5.19-8.95 5.65-.55.07-.94.56-.88 1.11.06.51.49.88.99.88.04 0 .08 0 .12 0 4.45-.53 8.36-3.01 10.45-6.63.28-.48.11-1.09-.37-1.37ZM61.9 32.97c-.55 0-1 .45-1 1v5.3c0 .55.45 1 1 1 .55 0 1-.45 1-1v-5.3c0-.55-.45-1-1-1ZM69.79 33.02h-2.02v-1.71c0-2.89-2.55-5.24-5.68-5.24-3.13 0-5.68 2.35-5.68 5.24v4.37h-2.02c-.55 0-1 .45-1 1 0 .55.45 1 1 1h2.02v.97c0 4.71-4.02 8.59-9.14 9.04v-2.03h2.02c.55 0 1-.45 1-1 0-.55-.45-1-1-1h-2.02v-8.64h2.02c.55 0 1-.45 1-1 0-.55-.45-1-1-1h-2.02v-8.64h2.02c.55 0 1-.45 1-1 0-.55-.45-1-1-1h-2.02v-8.64h2.02c.55 0 1-.45 1-1 0-.55-.45-1-1-1h-2.02v-1.66c0-4.06-3.6-7.36-8.02-7.36-4.42 0-8.02 3.3-8.02 7.36v4.32h-2.02c-.55 0-1 .45-1 1 0 .55.45 1 1 1h2.02v8.64h-2.02c-.55 0-1 .45-1 1 0 .55.45 1 1 1h2.02v8.64h-2.02c-.55 0-1 .45-1 1 0 .55.45 1 1 1h2.02v8.64h-2.02c-.55 0-1 .45-1 1 0 .55.45 1 1 1h2.02v3.81c-4.81-.33-8.68-3.68-9.27-7.93h2.43c.55 0 1-.45 1-1 0-.55-.45-1-1-1h-2.52v-.31c0-2.89-2.55-5.24-5.68-5.24-3.13 0-5.68 2.35-5.68 5.24v3.32c0 .69.04 1.37.12 2.05h-2.31c-.55 0-1 .45-1 1 0 .55.45 1 1 1h2.66c2 8.62 10.27 15.14 20.25 15.47v2.86h-2.02c-.55 0-1 .45-1 1 0 .55.45 1 1 1h2.02v5.91c0 .55.45 1 1 1h14.05c.55 0 1-.45 1-1v-9.46h2.02c.55 0 1-.45 1-1 0-.55-.45-1-1-1h-2.02v-3.76c9.56-.4 17.5-6.49 19.8-14.64h2.3c.55 0 1-.45 1-1 0-.55-.45-1-1-1h-1.85c.15-.94.26-1.89.26-2.87v-5.77h2.02c.55 0 1-.45 1-1 0-.55-.45-1-1-1ZM65.76 40.79c0 9.38-8.22 17.04-18.51 17.51v-2.04c0-.55-.45-1-1-1-.55 0-1 .45-1 1v18.25h-2.57v-2.58c0-.55-.45-1-1-1-.55 0-1 .45-1 1v2.58h-2.9v-9.75c0-.55-.45-1-1-1-.55 0-1 .45-1 1v9.75h-2.57v-14.15c0-.55-.45-1-1-1-.55 0-1 .45-1 1v2.38c-10.39-.38-18.72-8.08-18.72-17.52v-3.32c0-1.79 1.65-3.24 3.68-3.24 2.03 0 3.68 1.45 3.68 3.24v1.19c0 5.87 5.03 10.67 11.35 11.05v.91c0 .55.45 1 1 1 .55 0 1-.45 1-1V10.07c0-2.95 2.7-5.36 6.02-5.36 3.32 0 6.02 2.4 6.02 5.36v40.44c0 .55.45 1 1 1 .55 0 1-.45 1-1v-.82c6.23-.47 11.14-5.23 11.14-11.04v-7.35c0-1.79 1.65-3.24 3.68-3.24 2.03 0 3.68 1.45 3.68 3.24v9.49Z"/>
</svg>