<svg xmlns="http://www.w3.org/2000/svg" viewBox="0 0 80 80">
<path d="M21.88 55.79l2.4 15.62c.21 1.35 1.37 2.34 2.73 2.34h22.89c1.36 0 2.52-.99 2.73-2.34l2.4-15.62H21.88ZM43.81 31.72c19.65 4.8 17.41-19.38 23.66-25.6-15.77 0-33.9 7.54-25.47 24.41-1.59 3.08-2.89 6.45-3.74 10.09-1.01-2.8-2.59-5.56-4.7-8.23 1.25-4.17.88-7.45-.69-9.87 8.29-15.9-5.66-18.39-5.66-18.39-6.41 7.54-.43 14.18-.43 14.18h0c-3.88-1.18-8.96-1.16-14.58.04 5.64 3.33 1.28 21.22 19.97 15.7 2.69 3.49 4.74 7.56 5.21 12.12h-18.28v8.29h38.68v-8.29h-18.3c0 0 .01-.07.01-.1 0-.08-.02-.16-.03-.24 0-.03.03-.06.03-.1.55-5.16 2.16-9.85 4.31-14.02Z"/>
</svg>