<svg xmlns="http://www.w3.org/2000/svg" viewBox="0 0 80 80">
<path d="M8.08 30.11c4.8 0 9.59-1.36 12.85-2.54-3.14 1.47-7.48 3.89-10.88 7.29-1.65 1.65-1.65 4.34 0 5.99 1.65 1.65 4.34 1.65 5.99 0 3.4-3.4 5.82-7.74 7.29-10.88-1.18 3.26-2.54 8.04-2.54 12.85 0 1.99 1.38 3.66 3.24 4.11v8.47c-4.94-12.17-12.39-11.41-19.96-9.05.23 7.03 6.59 15.14 19.96 11.78v15.42h2v-5.56c12.99 2.24 18.72-6 18.6-12.9-7.18-1.85-14.18-2.31-18.6 7.76v-15.94c1.86-.45 3.24-2.11 3.24-4.11 0-4.8-1.36-9.59-2.54-12.85 1.47 3.14 3.89 7.48 7.29 10.88 1.65 1.65 4.34 1.65 5.99 0 1.65-1.65 1.65-4.34 0-5.99-3.4-3.4-7.74-5.82-10.88-7.29 3.26 1.18 8.04 2.54 12.85 2.54 2.34 0 4.24-1.9 4.24-4.24 0-2.34-1.9-4.24-4.24-4.24-4.8 0-9.59 1.36-12.85 2.54 3.14-1.47 7.48-3.89 10.88-7.29 1.65-1.65 1.65-4.34 0-5.99-1.65-1.65-4.34-1.65-5.99 0-3.4 3.4-5.82 7.74-7.29 10.88 1.18-3.26 2.54-8.04 2.54-12.85 0-2.34-1.9-4.24-4.24-4.24-2.34 0-4.24 1.9-4.24 4.24 0 4.8 1.36 9.59 2.54 12.85-1.47-3.14-3.89-7.48-7.29-10.88-1.65-1.65-4.34-1.65-5.99 0-1.65 1.65-1.65 4.34 0 5.99 3.4 3.4 7.74 5.82 10.88 7.29-3.26-1.18-8.04-2.54-12.85-2.54-2.34 0-4.24 1.9-4.24 4.24 0 2.34 1.9 4.24 4.24 4.24ZM25.03 21.63c2.34 0 4.24 1.9 4.24 4.24 0 2.34-1.9 4.24-4.24 4.24-2.34 0-4.24-1.9-4.24-4.24 0-2.34 1.9-4.24 4.24-4.24ZM76.65 37.61c0-1.76-1.43-3.19-3.19-3.19-3.62 0-7.23 1.02-9.69 1.91 2.37-1.11 5.64-2.94 8.2-5.5 1.25-1.25 1.25-3.27 0-4.52-1.25-1.25-3.27-1.25-4.52 0-2.56 2.56-4.39 5.84-5.5 8.2.89-2.46 1.91-6.07 1.91-9.69 0-1.76-1.43-3.19-3.19-3.19-1.76 0-3.19 1.43-3.19 3.19 0 3.62 1.02 7.23 1.91 9.69-1.11-2.37-2.94-5.64-5.5-8.2-1.25-1.25-3.27-1.25-4.52 0-1.25 1.25-1.25 3.27 0 4.52 2.56 2.56 5.84 4.39 8.2 5.5-2.46-.89-6.06-1.91-9.69-1.91-1.76 0-3.19 1.43-3.19 3.19 0 1.76 1.43 3.19 3.19 3.19 3.62 0 7.23-1.02 9.69-1.91-2.37 1.11-5.64 2.94-8.2 5.5-1.25 1.25-1.25 3.27 0 4.52 1.25 1.25 3.27 1.25 4.52 0 2.56-2.56 4.39-5.84 5.5-8.2-.89 2.46-1.91 6.07-1.91 9.69 0 1.76 1.43 3.19 3.19 3.19h-1v5.91c-2.64-6.03-6.83-5.76-11.12-4.65-.07 4.12 3.36 9.03 11.12 7.7v11.03h2v-3.19c7.78 1.99 11.49-2.7 11.63-6.78-4.42-1.38-8.77-1.8-11.63 5.46v-15.47h-1c1.76 0 3.19-1.43 3.19-3.19 0-3.62-1.02-7.23-1.91-9.69 1.11 2.37 2.94 5.64 5.5 8.2 1.25 1.25 3.27 1.25 4.52 0 1.25-1.25 1.25-3.27 0-4.52-2.56-2.56-5.84-4.39-8.2-5.5 2.46.89 6.06 1.91 9.69 1.91 1.76 0 3.19-1.43 3.19-3.19ZM60.67 40.8c-1.76 0-3.19-1.43-3.19-3.19 0-1.76 1.43-3.19 3.19-3.19 1.76 0 3.19 1.43 3.19 3.19 0 1.76-1.43 3.19-3.19 3.19Z"/>
</svg>