<svg xmlns="http://www.w3.org/2000/svg" viewBox="0 0 80 80">
<path d="M56.68 38.48c-1.81 3.46-3.86 7.38-5.92 11.56-.15.3-.29.59-.43.88 1.23-.67 3.97-2.14 8.2-4.35 5.84-3.05 16.61-8.26 17.44-8.67-.94-1.04-3.03-.62-4.28-.27-3.32.91-6.31 2.9-9.64 3.66-.05.01-.09.02-.14.03-.49.11-1.01.18-1.5.06-1.29-.31 1.67-4.87 2.03-5.55 1.29-2.46 2.97-5.47 3.73-8.14.59-2.09 1.31-5.13-1.06-6.61-.14-.09-.28-.14-.41-.2 0 0 0 0 0 0-.96 4.09-4.08 10.04-8.02 17.58ZM39.18 45.54c-.45.08-.81.23-1.1.44.03.02.07.03.09.07.43.71 5.11 6.81 9.08 10.94.76-2.47 1.71-4.87 2.83-7.15-.08-.39-.47-2.04-1.55-5.66-1.1-3.68-3.43-12.06-4.12-14.54l-.02-.07c-1.69.79-1.51 3.41-1.21 4.93.4 2.04 1.28 3.93 1.85 5.92.55 1.91.83 3.86.76 5.84-.03.71.03 1.92-.61 2.4-.6.45-1.51.05-2.02-.36-1.21-.98-2.12-3.09-3.97-2.77ZM50.56 48.89c1.92-3.86 3.82-7.5 5.51-10.72 3.92-7.5 7.02-13.42 7.96-17.42 0-.02.02-.04.03-.06-1.47-.3-2.91.55-3.98 1.68-.81.85-1.52 1.87-2.06 2.91-1.55 2.99-2.17 6.33-2.96 9.58-.34 1.4-.95 3.84-2.85 3.73-1.75-.1-2.29-2.77-2.67-4.06-.46-1.54-1.08-3.26-2.35-4.33-.58-.49-1.38-.9-2.16-.83.16.58 2.92 10.49 4.15 14.62.74 2.49 1.16 4.06 1.37 4.9ZM49.86 51.96c-1.46 3.32-2.56 6.85-3.27 10.49 2.37-1.26 12-6.21 21.56-9.02-.06-.1-.13-.19-.23-.28-.32-.28-.77-.39-1.19-.44-3.15-.36-6.08 1.15-9.05 1.91-.75.19-1.93.04-1.26-.96 2.13-3.21 6.63-4.2 9.88-5.84 2.87-1.45 6.15-3.05 8.39-5.38.89-.92 1.96-2.15 1.74-3.55-.02-.14-.06-.27-.1-.39-.24.11-11.46 5.54-17.47 8.68-5.52 2.88-8.51 4.52-8.99 4.78ZM46.13 74.27c.16-.81.35-1.57.86-2.24.45-.58.98-1.12 1.49-1.64 1.08-1.12 2.28-2.01 3.67-2.73 1.28-.66 2.63-1.17 3.93-1.77.87-.4 1.79-.99 2.45-1.68.9-.94.43-2.03-.89-2.05-.8-.01-2.99 1.24-3.6.46-.39-.49 7.84-3.87 8.31-4.1.9-.43 5.61-2.65 5.93-4.41-10.26 3.02-20.47 8.46-21.85 9.2-1.13 6.39-.68 11.01-.63 11.41.17-.09.29-.23.33-.45ZM45.8 62.97c.32-1.77.73-3.53 1.23-5.23-4.02-4.13-8.79-10.32-9.41-11.3-.82 1.14-.5 3.05.02 4.4 1.11 2.86 3.84 4.59 5.21 7.3.15.3.71 1.58.37 1.88-.47.41-1.24-.81-1.56-1.05-.88-.65-2.25-.75-2.95.22-.77 1.08-.19 2.77.42 3.79.97 1.64 2.42 2.95 3.35 4.61.42.75.66 1.57.84 2.4.21.94.35 1.9.62 2.83.19.67.46 1.65 1.18 1.9-.07-.71-.46-5.29.66-11.61 0-.05 0-.11.03-.16ZM25.53 15.49c0 0 .05-.06.07-.09-.05-.02-.09-.06-.14-.08-2.1-.78-3.64 6.21-3.64 6.21 0 0-.01-17.64-7.25-16.3.47 1.36 4.02 11.7 7.61 24.14l3.35-13.88ZM13.77 5.44c0 0 0 0 0 0-6.97 2.54.77 18.15.77 18.15 0 0-4.86-6.93-7.81-4.35l14.75 10.69c-3.75-13.02-7.55-24.01-7.71-24.48ZM23.84 35.3c3.57-6.37 9.52-18 9.75-18.46-4.31-1.73-8.41 8.5-8.41 8.5 0 0 2.74-7.02 1.07-9.38l-3.62 15c.41 1.43.81 2.88 1.21 4.34ZM24.96 39.5c0 0 .01.05.02.07.25.95.49 1.91.73 2.87 3.71-4.23 13.5-14.55 14.63-15.74.02-.02.04-.01.06-.03-2.46-2.94-7.3 1.36-9.82 4.56 0 0 7.37-11.02 3.73-13.97-1.16 2.27-6.91 13.44-10.16 19.17.28 1.02.55 2.05.81 3.07ZM5.64 44.44c1.41 5.82 11.71 4.68 16.58 6.58 3.07 1.2 4.6 2.6 5.32 3.51-.31-1.66-.66-3.42-1.07-5.29l-20.83-4.8ZM27.21 48.82c.31 1.39.58 2.72.84 4v-.42c0 0-.36-5.62 4.81-10.62 4.99-4.84 9.79-10.82 7.98-14.43-1.52 1.6-11.63 12.27-14.89 16.05.46 1.86.88 3.68 1.26 5.41ZM23.97 38.94c-.65-2.48-1.36-5.09-2.12-7.74l-15.65-11.34c-2.27 3.45 3.52 9.3 6.94 11.49 3.53 2.26.52.46.52.46 0 0-8.01-5.37-9.59-1.12 0 0 0 0 .01 0l19.9 8.25ZM16.19 40.56c-2.3-.49-11.03-2-10.69 3.06.04 0 .07-.03.11-.02l20.66 4.77c-.58-2.61-1.27-5.44-2.05-8.43L3.87 31.49c-.51 4.54 8.6 8.15 12.33 9.07Z"/>
</svg>