<svg xmlns="http://www.w3.org/2000/svg" viewBox="0 0 80 80">
<path d="M74.06 40.1c0-.55-.45-1-1-1h-31.77v-.41c.69-4.68 2.51-9.01 4.87-12.9 1.53.28 2.93.41 4.21.41 10.29 0 13.29-8.29 15.57-14.59 1-2.78 1.96-5.4 3.29-6.51.32-.27.45-.71.3-1.11-.14-.4-.52-.66-.94-.66-13.02 0-21.02 2.48-24.48 7.58-2.39 3.53-2.45 8.23-.17 13.96.05.13.14.24.24.33-1.6 2.71-2.97 5.67-3.9 8.83-.84-2.67-2.08-5.27-3.54-7.74.06-.08.13-.15.16-.24 1.94-4.89 1.87-8.93-.23-12.02-3.68-5.42-12.38-6.23-17.25-6.23-.42 0-.79.26-.94.65-.15.39-.04.83.27 1.1.48.42.84 2.58 1.12 4.32.7 4.23 1.67 10.02 5.88 12.56 1.37.82 2.98 1.24 4.83 1.24 1.3 0 2.71-.21 4.24-.61 2.21 3.68 3.93 7.66 4.43 11.61v.41H7.51c-.55 0-1 .45-1 1 0 .55.45 1 1 1h31.77v.35l-1.03 3.61h-8.4c-.09 0-.19.01-.28.04l-20.64 5.96c-.53.15-.84.71-.68 1.24.15.53.71.83 1.24.68l20.5-5.92h7.68l-1.22 4.26-5.34 2.67-12.36-.29c-.23 0-.47.07-.65.22l-6.82 5.51c-.43.35-.5.98-.15 1.41.2.25.49.37.78.37.22 0 .44-.07.63-.22l6.54-5.28 9.89.23-4.31 4.26-8.09 2.79c-.52.18-.8.75-.62 1.27.14.41.53.67.95.67.11 0 .22-.02.33-.05l8.3-2.86c.14-.05.27-.13.38-.23l6.03-5.96 4.64-2.32 1.62 8.12-10.13 3.14c-.24.08-.45.24-.57.46l-2.75 4.86c-.27.48-.1 1.09.38 1.36.16.09.33.13.49.13.35 0 .69-.18.87-.51l2.56-4.52 9.56-2.96.64 3.22-3.71 8.65c-.22.51.02 1.1.52 1.31.13.06.26.08.39.08.39 0 .76-.23.92-.61l3.45-8.04 6.35 2.54 2.83 2.83c.2.2.45.29.71.29.26 0 .51-.1.71-.29.39-.39.39-1.02 0-1.41l-2.98-2.98c-.1-.1-.21-.17-.34-.22l-6.95-2.78-1.59-7.96 9.83 4.32 4.34 4.34c.2.2.45.29.71.29.26 0 .51-.1.71-.29.39-.39.39-1.02 0-1.41l-4.47-4.47c-.09-.09-.19-.16-.3-.21l-11.28-4.96-.75-3.77 1.43-5h3.08l3.89 3.97-4.59 1.98c-.51.22-.74.81-.52 1.31.16.38.53.6.92.6.13 0 .27-.03.39-.08l5.3-2.28 5.48 5.59c.12.12.26.21.42.25l9.55 2.98c.1.03.2.04.3.04.43 0 .82-.27.96-.7.16-.53-.13-1.09-.66-1.25l-9.31-2.9-8.67-8.84 21.41 4.61c.07.02.14.02.21.02.46 0 .88-.32.98-.79.12-.54-.23-1.07-.77-1.19l-24.66-5.31c0 0-.07 0-.11 0-.03 0-.07-.02-.1-.02h-2.93l.91-3.2c.03-.09.04-.18.04-.27v-.49h31.77c.55 0 1-.45 1-1ZM64.06 10.94c-2.51 6.93-5.34 14.72-16.73 13.02 6.36-9.41 15.63-15.91 18.77-17.94-.75 1.39-1.37 3.07-2.04 4.92ZM45.76 12.04c2.54-3.75 8.42-5.94 17.48-6.53-2.32 1.61-5.75 4.19-9.34 7.63-2.75 2.64-5.82 6.04-8.46 10.03-1.65-4.63-1.55-8.38.32-11.13ZM26.81 24.74c-3.43-2.06-4.27-7.12-4.94-11.18-.15-.88-.28-1.67-.43-2.38 2.28 2.06 7.92 7.46 12.29 14.11-2.87.67-5.19.49-6.92-.55ZM35.44 24.21c-4.3-6.57-9.77-11.89-12.33-14.22 4.1.39 9.49 1.61 11.91 5.18 1.55 2.28 1.67 5.32.42 9.04Z"/>
</svg>