<svg xmlns="http://www.w3.org/2000/svg" viewBox="0 0 80 80">
<path d="M38.45 21.21c-2.28-.66-4.83-1.16-7.23-1.26-3.69-.15-6.78.34-10.09 1.51-5.06 1.81-9.63 5.22-13 9.31-.43.59-.9 1.19-.67 1.75.87.82 2.55-2.56 2.83-1.53.06.48-.04 1.03 0 1.52 0 .91.77 1.58 1.15.47.5-1.82.46-4.12 2.04-5.39.5-.38 1.3-1.19 1.87-1.16-.47 2.14-1.69 4.43-1.34 6.68.4 1.72 1.25 0 1.31-.87.44-2.47 1.28-4.96 2.73-6.99.25-.47 2.17-2.15 2.52-1.45-.34 1.09-1.16 2.36-1.41 3.59-.26 1.23-.78 2.7-.1 3.64.38.27.67-.27.82-.62.73-2.5 1.4-5 3.1-7.04.55-.65 1.72-1.49 2.54-1.17.29.27-.65 1.34-1.02 2.31-.44 1.04-1.68 4.47-.4 4.88.14-.03.28-.16.4-.38.86-2.37 2.6-8.59 6-7.26.14.31-.72 1.06-1.12 1.82-.47.84-1.46 2.81-.59 3.48.2.1.44 0 .66-.26.62-.97 1.17-2.44 1.89-3.19.69-.77 1.98-2.43 2.99-1.48.26.51-1.38 2.74-.46 3.47.27.16.56-.13.74-.36.85-1.25 1.52-3.25 3.45-2.67 2.75.64.74 1.9-.79 2.56-1.87.79-3.76 1.78-5.39 2.95-5.71 3.97-9.41 10.99-10.27 17.72-.08.84-.57 3.01.56 2.9.34-.16.53-.88.64-1.59.15-.83.21-1.57.65-1.23.41.39 1.05 1.74 1.73 1.22.18-.25.11-.64.03-.96-.5-1.68-1.58-3.44-.87-5.11.32-.69.53-.26.8.56.3.9.72 1.87 1.29 2.61 1.09 1.32 1.6.3 1.04-.8-.75-1.67-1.54-4.08-1.14-6.22.2-.83.5-.48.78.48.28.96 1.6 4.19 2.67 3.57.16-.28-.05-.81-.19-1.16-.93-2.05-2.02-4.74-.76-6.84.21-.37.89-1.23 1.01-.45.15 1.64.46 4.4 1.8 5.6 1.16.32.13-2.08.08-2.69-.33-1.96-1.03-5.9 1.38-6.22.23.25-.11 1.53-.02 2.5.02.85.26 2.73 1.14 2.77.16-.03.27-.21.31-.45-.06-1.64-.13-3.75.51-5.42.18-.6.76-1.7 1.52-1.58.11.07.16.23.15.47-.13 1.12-.28 2.93.16 4.08.12.33.47.78.78.4.74-.87-.37-5.44 1.77-4 1.16.83 1.28 2.39 1.57 3.87.43 2.48.41 5.2.62 7.87.38 10.8-2.52 22.53-6.62 32.8-.82 2.1.48 2.23 1.58 2.47.63.13 2.8.52 4.46.82 1.18.21 2.34-.48 2.72-1.62 1.31-3.87 2.34-7.96 2.93-11.94.78-5.4 1.05-10.87.78-16.17-.35-2.76-1.68-12.48-2.69-16.8-.45-2.68.87-.3.99 1.07.21.83.23 1.65.77 2.12.8.3.81-1.04.79-1.6-.07-.76-.49-2.9.69-1.44.85 1.34.32 3.15.13 4.63-.01.3 0 .76.31.82 1.28-.22 1.38-2.99 1.66-3.82 2.25-.15.66 5.27.22 6.54-.35.99.3 1.48 1.06.36.33-.48.59-1.09.81-1.7.42-.65.38-3.93 1.35-2.42.86 1.73-.02 4.56-.8 6.3-.57.99-.42 2.21.82.89 1.05-1.05 1.32-3.12 1.96-4.25 1.96.61-.04 5.12-.94 6.57-.79.95-.73 2.63.81 1.22 1.02-.91 1.68-2.93 2.26-3.95.55-.22.53 1.33.45 1.75-.26 1.68-1.07 3.28-1.81 4.73-.15.36-.19.69-.07.88 1.15.88 2.3-2.1 2.75-2.9.23-.45.46-.45.61 0 .56 1.86-.89 3.87-1.56 5.52-.53 1.69 1.04 1.04 1.65-.1 1.32-1.99.76 1.91 1.19 2.5.4.98 1.02.29 1.09-.6.24-8-2.98-16.4-9.2-21.69-1.61-1.41-3.52-2.59-5.35-3.6-.5-.32-.83-.75-.75-1.11.54-1.25 2.22-.39 2.52.67.56 1.74 1.72 1.72 1.51-.12-.22-1.18.22-1.64 1.1-.58.6.73 1.12 1.85 1.47 2.87.17.41.46.99.89.96.96-.41.32-2.23.03-3.02-.2-.45-.78-1.46.26-1.07 1.83.97 2.18 3.44 2.54 5.36.07 1.17 1.06 1.75 1.28.13.3-1.23-.57-3.27-.54-4.33 1.98-.12 2.59 4.6 2.84 6.28.03.59.53 1.54 1.03.82.72-1.31.06-3.57-.14-5.02.01-.18.09-.26.23-.22 2.13 1.53 2.11 5.2 2.38 7.46.08.38.26.88.67.72.98-.87.61-2.93.49-4.17-.4-1.91.7-.75 1.12.03.73 1.09.35 2.94.73 4.03.6 1.1 1.13-.52 1.35-1.02.15-.22.36-.03.66.34.68 1.01 1.75.89 1.26-.37l-.06-.15c-4.17-7.92-13.51-13.22-22.61-11.78-.92.13-3.24-.4-2.48-1.45.7-.73 1.88-.65 2.64 0 .54.39.99.78 1.42.52.64-.67-.73-1.7-.62-2.36.05-.31.39-.48.71-.55 1.77-.41 3.19 1.59 4.61 2.21 1.27.2.17-1.57-.37-2-1.32-1.08-1.79-2.05.33-1.45 1.52.56 3.08 1.87 4.14 3.16.44.45.99 1.38 1.59 1.29.89-.54-.56-2.42-1.13-3.1-.32-.67-3.09-2.24-1.84-2.37 3.18-.03 5.29 3.19 7.07 5.48.96 1.23 1.61.29.86-1.07-.53-1.43-2.46-3.11-3.18-4.14.58-.34 1.89.12 2.53.39 1.19.6 2.2 2.14 3.16 3.22.29.31.92.81 1.17.24.19-.44-.29-1.3-.53-1.72-.15-.3-.17-.48.01-.48.45-.03 1.89.97 2.53.76 1.14-.57-.84-1.61-1.52-1.93-3.44-1.74-7.48-2.68-11.34-2.46-4.45.21-8.41 1.83-12.03 4.4-.42.29-1.12.5-1.44.17-.47-.52-.25-1.47.21-1.95.45-.71 2.04-.79 2.4-1.4.07-.44-.75-.46-.98-.73-.66-.52.98-1.76 2.01-1.92.56-.2 1.44-.25 1.79-.7-.02-1.07-3.04.15-1.81-1.64.91-1.35 2.72-1.49 4.16-1.89.31-.1.51-.23.53-.36.08-.25-.57-.47-1.33-.47-.74 0-1.21-.11-1.05-.52.91-1.75 3.52-1.18 4.68-2.25-.02-.66-1.21-.55-1.66-.76-.34-.13-.15-.42.28-.87.44-.45.73-1.03.53-1.29-.84-.62-1.86.72-2.5 1.22-3.88 3.53-6.84 9.11-9.03 13.95-.7 1.15-1.97.69-2.64-.26-4.11-5.26-9.17-9.76-15.34-12.4-1.3-.44-3.03-1.44-4.36-.97-.59.58.63 1.12 1.5 1.4.85.3 1.62.59 1.3.82-.62.39-1.58.45-2.14.94-.75.66.05.98.71.85 1.93-.26 4.49-.84 6.15.45.2.22.04.34-.41.45-.63.15-1.49.35-2.12.66-1.15.56-.86 1.21.2 1.1 1.95-.16 4.47-.73 5.98.36.39.26.66.66.03.87-.8.31-2.45.49-2.73 1.51.25.89 2.56-.3 3.78 0 .77-.07 3.91 1.04 3.06 2.04-.31.21-1 .33-1.34.56-.41.22-.56.7-.05.85.87.27 2.48-.1 3.58.53.73.42 1.9 1.39 1.94 2.21-.08.13-.39.11-.83 0ZM41.5 28.28c-.05-.15.25-.28.43-.47.19-.14.34-.48.49-.52.1-.03.27.18.36.29.53 1.47.89 3.31 1.26 4.87.02.19.14.47.07.57-.08.14-.48.1-.57.14l-.11.02c-.12-.01-.54.15-.68.04-.42-1.53-.68-3.44-1.24-4.95ZM43.89 68.42c-.08.34-.19.74-.24.96l-.04.15c-.36 1.21-.63 2.82-1.28 4.05-.11.21-.2.58-.93.58-1.35 0-2.68-.23-4.02-.39-.6-.07-1-.67-.8-1.24.43-1.26 1.01-2.71 1.41-3.89.2-.46.31-1.02.52-1.26.19-.11.78.2 1.28.26 1.28.3 2.93.18 4.08-.05.31-.03.11.42.02.84ZM44.41 65.92c-.28.43-.86.29-1.39.38-1.25.09-2.54.06-3.76-.18-.53-.16-.04-.87.02-1.21l.05-.15c.32-.93.69-2.21.97-3.14.11-.86.85-.3 1.49-.35 1.07.11 2.33-.12 3.32-.33.03.03.1.08.13.11-.16 1.41-.5 3.43-.83 4.87ZM45.75 55.8c-.1 1.14-.16 2.51-.34 3.61l-.08.09c-1.27.25-3.14.53-4.42.24-.14-.29.18-.91.22-1.28.29-1.13.58-2.62.84-3.73.31-.23 1.25.12 1.71.03.58.08 1.54-.27 2.03-.14.18.19.03.78.03 1.18ZM45.86 53.04l-.06.07c-1.03.11-2.45.35-3.46.09.11-1.4.43-3.42.68-4.86.38-.12 1 .03 1.44-.07.42 0 .99-.26 1.35-.21.21 1.54.05 3.41.06 4.98ZM45.55 42.68c.06 1.26.32 2.65.19 3.87-.15.16-.54.12-.8.18-.55.02-1.31.24-1.79.08-.09-.1 0-.39 0-.59.11-1.46.17-2.93.17-4.4-.01-.38.86-.17 1.06-.26h.11c.18 0 .69-.2.87-.1.17.28.11.86.18 1.23ZM45.22 39.81c-.04.14-.88.13-.93.17h-.09c-.19-.02-.89.28-.91-.11-.05-1.55-.16-3.1-.34-4.64-.07-.61.25-.43.73-.52.24 0 .55-.16.71-.06.43 1.56.66 3.54.83 5.17ZM44.01 24.53c.05 0 .1-.01.15-.01.19 0 .37.06.53.18.23.17.39.44.43.75.09.62-.3 1.21-.86 1.3-.24.04-.48-.02-.69-.16-.23-.17-.39-.44-.43-.75-.09-.62.3-1.21.86-1.3ZM41.81 21.32c.24-.04.48.02.69.16.24.17.39.44.43.75.09.62-.3 1.21-.86 1.3-.24.04-.48-.02-.69-.16-.24-.17-.39-.44-.43-.75-.09-.62.3-1.21.86-1.3ZM40.3 24.96c.05 0 .1-.01.15-.01.19 0 .37.06.53.18.24.17.39.44.43.75.09.62-.3 1.21-.86 1.3-.24.04-.48-.02-.69-.16-.24-.17-.39-.44-.43-.75-.09-.62.3-1.21.86-1.3Z"/>
</svg>