<svg xmlns="http://www.w3.org/2000/svg" viewBox="0 0 80 80">
<path d="M10.45 56.75c2.27 2.27 5.22 3.59 8.38 3.78v9.12c0 .55.45 1 1 1 .55 0 1-.45 1-1v-9.12c3.16-.19 6.11-1.51 8.38-3.78.81-.81 1.47-1.72 1.99-2.71 0 0 0 0 .01 0 1.34.47 2.74.73 4.16.8v14.79c0 .55.45 1 1 1 .55 0 1-.45 1-1v-14.79c3.7-.19 7.17-1.71 9.82-4.37 3.78-3.78 4.88-9.58 2.8-14.78l-10.54-26.29c-.51-1.27-1.72-2.09-3.09-2.09-1.37 0-2.58.82-3.09 2.09l-7.74 19.3-2.94-7.34c-.46-1.14-1.55-1.88-2.78-1.88-1.23 0-2.32.74-2.78 1.88l-9.04 22.54c-1.81 4.51-.85 9.54 2.43 12.83ZM35.15 10.17c.31-.77 1.02-.83 1.23-.83.21 0 .92.06 1.23.83l10.54 26.29c1.78 4.45.86 9.4-2.36 12.62-2.28 2.28-5.24 3.59-8.41 3.78v-13.73c.16-.04.32-.11.45-.23.37-.35.4-.92.1-1.32l4.88-5.07c.38-.4.37-1.03-.03-1.41-.4-.38-1.03-.37-1.41.03l-3.98 4.14v-10.06c0-.55-.45-1-1-1-.55 0-1 .45-1 1v9.67l-3.97-4.18c-.38-.4-1.01-.42-1.41-.04-.4.38-.42 1.01-.04 1.41l5.42 5.71v15.09c-1.16-.07-2.3-.29-3.4-.66.84-2.61.77-5.54-.33-8.27l-5.02-12.51 8.52-21.24ZM9.88 44.67l9.04-22.54c.23-.58.76-.62.92-.62.16 0 .69.04.92.62l9.04 22.54c1.51 3.76.73 7.95-1.99 10.67-1.89 1.89-4.34 3-6.97 3.19v-14.6l4.61-4.79c.38-.4.37-1.03-.03-1.41-.4-.38-1.03-.37-1.41.03l-3.17 3.3v-6.09c0-.55-.45-1-1-1-.55 0-1 .45-1 1v16.26l-4.73-4.98c-.38-.4-1.01-.42-1.41-.04-.4.38-.42 1.01-.04 1.41l6.18 6.51v4.41c-2.63-.19-5.08-1.3-6.97-3.19-2.72-2.72-3.5-6.91-1.99-10.67ZM72.29 45.69l-7.29-18.17c-.4-.99-1.35-1.64-2.42-1.64-1.07 0-2.02.64-2.42 1.64l-7.29 18.17c-1.49 3.71-.7 7.85 2.01 10.55 1.78 1.78 4.06 2.85 6.52 3.08v10.32c0 .55.45 1 1 1 .55 0 1-.45 1-1v-10.3c2.59-.16 5.02-1.24 6.88-3.1 2.7-2.7 3.49-6.85 2.01-10.55ZM68.87 54.83c-1.49 1.49-3.41 2.36-5.47 2.52v-11.24l3.66-3.8c.38-.4.37-1.03-.03-1.41-.4-.38-1.03-.37-1.41.03l-2.22 2.3v-6.05c0-.55-.45-1-1-1-.55 0-1 .45-1 1v13.1l-2.03-2.11c-.38-.4-1.02-.41-1.41-.03-.4.38-.41 1.02-.03 1.41l3.48 3.61v4.15c-1.92-.23-3.71-1.08-5.11-2.48-2.14-2.14-2.75-5.43-1.56-8.39l7.29-18.17c.14-.34.44-.38.56-.38.12 0 .43.04.56.38l7.29 18.17c1.19 2.96.57 6.26-1.56 8.39Z"/>
</svg>