<svg xmlns="http://www.w3.org/2000/svg" viewBox="0 0 80 80">
<path d="M9.19 36.27c.34-.27.71-.56 1.11-.87.55-.42 1.15-.86 1.8-1.32.07-.06.13-.13.19-.19.24-.25.47-.51.69-.79.62-.8 1.11-1.74 1.44-2.79-.07.76-.23 1.49-.46 2.2-.05.14-.09.28-.15.41.43-.28.87-.56 1.33-.84.18-.75.29-1.54.3-2.37.12.69.17 1.39.16 2.08 2.37-1.42 5.1-2.79 8.04-3.8.28-.52.52-1.07.71-1.67-.05.52-.14 1.03-.27 1.52 1.94-.64 3.97-1.11 6.03-1.33.15.08.3.16.45.24-2.07.31-4.52.93-6.89 2.15.46.05.92.12 1.38.21.46.09.91.2 1.36.34-1.37-.16-2.7-.1-3.93.13-.7.43-1.37.91-2.03 1.46.76.1 1.52.26 2.27.49-.96-.11-1.89-.12-2.79-.03-.79.73-1.54 1.56-2.2 2.51-.67.95-1.26 2.02-1.75 3.23.34.01.67.03 1.01.07.34.04.67.08 1.01.14-.38 0-.75.02-1.11.05-.36.03-.72.08-1.07.15-.09.22-.17.45-.24.68-.23.69-.44 1.43-.6 2.21h0c.33-.11.66-.21 1-.29.34-.08.68-.15 1.03-.2-.39.14-.77.31-1.13.49-.18.09-.35.19-.53.29-.18.1-.34.21-.5.32-.22 1.18-.35 2.45-.4 3.83-.08 2.29.1 4.87.6 7.76 0 0 0 0 0 0 0 .04.01.08.02.12h0c0 0 .01-.04.03-.08.02-.05.04-.11.07-.19.06-.16.14-.39.25-.68.05-.15.12-.31.18-.48.2-.53.47-1.18.79-1.93.2-.46.42-.95.66-1.48.33-.72.71-1.5 1.13-2.32.03-.1.06-.2.09-.3.11-.38.21-.77.28-1.18.15-.86.19-1.76.1-2.69-.03-.31-.07-.62-.13-.93.25.61.44 1.23.58 1.86.05.21.09.42.12.63.03.17.05.33.07.5.29-.51.59-1.04.9-1.57-.05-.21-.11-.43-.18-.65-.13-.43-.29-.86-.48-1.29-.09-.21-.19-.43-.3-.64.49.64.92 1.33 1.28 2.04.21-.34.42-.68.64-1.02.44-.69.9-1.38 1.39-2.07 1.1-1.56 2.33-3.12 3.68-4.6-.44 1.17-.72 2.48-.76 3.94.47-.16.95-.29 1.45-.38-.52.2-1 .44-1.45.71 0 .7.05 1.44.17 2.21.39-.32.82-.61 1.27-.87-.47.4-.86.85-1.2 1.32.42 2.32 1.41 4.95 3.16 7.93.01.03.02.06.03.08 0-.02-.02-.05-.02-.07.01.02.03.05.04.07h0c0-.05-.04-1.06.03-2.67.02-.37.04-.77.07-1.19.04-.58.1-1.22.17-1.89 0-.08 0-.15-.01-.23-.02-.29-.06-.59-.12-.88-.16-.84-.48-1.69-.97-2.49.44.47.82.99 1.14 1.53.06.11.12.21.18.32.06-.43.13-.87.21-1.32-.37-.54-.82-1.05-1.33-1.52.51.32.98.67 1.42 1.07.43-2.3 1.09-4.82 2.1-7.25-.17-.47-.39-.94-.66-1.39.3.32.57.67.82 1.02.44-1.02.94-2.01 1.5-2.98.11.46.21.92.32 1.38.05.23.27.38.55.41 0 .02 0 .03 0 .05.21 1.22.42 2.43.62 3.65.04.23.26.4.55.43 0 .02 0 .03 0 .05.13 1.23.27 2.46.4 3.68.02.23.25.41.54.45 0 .02-.01.03 0 .05.06 1.24.12 2.47.17 3.71 0 .23.23.41.53.48 0 .02 0 .04 0 .05-.02 1.24-.05 2.48-.07 3.73 0 .23.21.42.52.5 0 .02-.01.04-.01.05-.11 1.24-.22 2.49-.32 3.73-.02.23.19.43.51.52 0 .02-.01.03-.02.05-.2 1.24-.39 2.49-.59 3.73-.04.23.17.44.5.54 0 .02-.02.03-.02.05-.29 1.24-.58 2.48-.87 3.72 0 .03 0 .06 0 .09-1.83.23-3.7.57-5.61 1.03-.81.2-1.62.41-2.44.65-2.84.83-5.75 1.95-8.71 3.41-1.01.5-2.02 1.03-3.04 1.61-15.58 8.85 4.1 10.76 24.55 10.73 13.23.02 26.13-.77 29.39-3.73.76-.69.99-1.5.58-2.44-.36-.83-1.23-1.77-2.67-2.82-.75-.55-1.66-1.13-2.74-1.74-5.69-3.23-11.23-5.15-16.47-6.17.05-.27.1-.53.15-.8 0-.04 0-.08 0-.11.18 0 .32-.07.36-.2.24-.78.48-1.56.72-2.34.01-.04 0-.07 0-.11.17.01.32-.05.37-.17l.95-2.24c0 0 .02-.07.02-.11.16.02.31-.02.38-.14.39-.71.78-1.42 1.17-2.12.02-.03.02-.07.03-.1.16.03.31 0 .38-.12.46-.67.91-1.33 1.37-2 .02-.03.03-.07.04-.1.15.04.3.01.38-.09.46-.56.92-1.11 1.38-1.67.19.49.36.99.49 1.49.17-.19.36-.37.56-.53-.2.24-.36.49-.5.76.39 1.5.57 3.02.63 4.4.29-.19.59-.36.91-.51-.34.23-.64.5-.9.78 0 .27.01.53.02.79.04-.06.09-.12.13-.17.23-.29.49-.56.79-.8-.35.43-.6.89-.77 1.37-.06.17-.1.34-.14.51 0 .04-.02.09-.03.13-.01.4-.03.77-.06 1.12-.02.25-.04.49-.06.7-.09.95-.19 1.53-.2 1.56h0c0 0 .02-.02.03-.04 0 .01-.01.03-.02.04 0-.02.02-.03.03-.05 1.27-1.59 2.06-3.05 2.49-4.37-.16-.3-.35-.6-.59-.87.24.18.47.39.67.61.13-.44.23-.87.28-1.28-.24-.2-.5-.37-.79-.53.28.09.55.21.81.34.1-.85.04-1.63-.12-2.34.22.32.44.64.64.97.55.88 1.03 1.78 1.46 2.66.21.44.41.88.6 1.31.27-.38.58-.75.92-1.08-.32.46-.57.94-.77 1.42.14.34.27.67.4.99.03-.1.05-.19.08-.28.15-.48.36-.95.62-1.39-.24.71-.34 1.43-.31 2.11 0 .24.03.48.07.71 0 .06.02.12.03.18.18.51.33 1 .47 1.44.1.33.19.63.26.92.34 1.24.49 2.03.5 2.07h0c0 0 .01-.05.02-.07 0 0 0 0 0 0 .31-.99.55-1.92.73-2.79.17-.88.28-1.7.32-2.47.02-.26.02-.51.03-.76.01-.25 0-.49-.01-.72-.34-.31-.73-.59-1.17-.82.2.06.4.12.59.2.19.08.38.16.56.25-.04-.62-.13-1.21-.26-1.76-.4-.13-.82-.23-1.26-.3.4-.02.8 0 1.2.04-.19-.74-.45-1.42-.76-2.03-.31-.61-.68-1.16-1.08-1.65-.52-.12-1.06-.2-1.63-.21.45-.07.91-.1 1.36-.1-.33-.37-.69-.71-1.06-1.02-.18-.06-.36-.11-.54-.16-.37-.09-.75-.16-1.14-.2-.2-.02-.4-.03-.6-.04.54-.08 1.09-.11 1.64-.09-1.03-.72-2.13-1.23-3.13-1.58 0-.05 0-.1 0-.15 0 0 0 0 0 0 0-.03-.01-.05-.02-.08 1.04.29 2.05.69 3 1.16-.03-.3-.04-.6-.03-.91.06.36.15.71.28 1.03 1.63.83 3.11 1.85 4.38 2.87.05-.4.14-.81.27-1.2-.06.48-.06.95-.02 1.4.24.2.48.4.71.6-.02-.08-.04-.17-.05-.25-.08-.43-.11-.87-.09-1.32.11.64.32 1.23.61 1.75.1.18.22.35.34.52.03.04.06.09.1.13.34.32.66.63.94.92.21.21.4.41.57.6.76.82 1.2 1.36 1.22 1.39h0c0 0 0 0 0 0h0c0 0 0-.04-.01-.06 0 0 0 0 0 0-.42-2.36-1.09-4.2-1.91-5.61-.39-.1-.8-.15-1.23-.16.18-.04.35-.06.53-.08.18-.02.35-.03.53-.03 0 0 0 0 0 0h0c-.29-.46-.59-.87-.91-1.24 0 0 0 0 0 0 0 0 0 0 0 0-.36.06-.72.15-1.08.28.3-.17.61-.33.93-.45-.89-.99-1.88-1.65-2.9-2.08h0c0 0 0 0 0 0-.45.11-.9.28-1.34.5.32-.24.66-.45 1.01-.63-.39-.14-.78-.25-1.17-.34.58-.07 1.14-.12 1.69-.16-.21-.25-.4-.51-.55-.79.25.29.54.55.85.77.29-.02.57-.03.85-.04-.06-.04-.13-.07-.19-.11-.32-.19-.61-.42-.87-.67.46.3.97.5 1.49.63.18.05.36.08.55.11.05 0 .1.01.14.02.43 0 .84 0 1.21.02.27 0 .53.02.76.03 1.02.05 1.65.13 1.69.13h0c0 0-.03-.02-.04-.03 0 0 0 0 0 0-1.73-1.07-3.31-1.72-4.74-2.07-.33.15-.64.33-.94.54.2-.22.42-.42.66-.61-.48-.1-.94-.17-1.38-.21-.21.22-.4.45-.57.71.1-.25.22-.49.36-.73-1.21-.08-2.3.07-3.26.36-.24.29-.44.61-.61.96.08-.29.18-.58.31-.86-.37.13-.72.28-1.06.44-.37.38-.69.82-.94 1.32.07-.29.18-.57.31-.84.53-.47 1.08-.92 1.66-1.34-.24-.06-.48-.14-.71-.23.3.06.61.09.92.09 1.37-.96 2.82-1.76 4.17-2.4-.29-.15-.56-.33-.8-.53.34.18.7.31 1.07.4.26-.12.52-.24.78-.35-.07 0-.15-.02-.22-.03-.36-.06-.72-.16-1.05-.3.54.1 1.09.11 1.62.04.19-.02.37-.06.55-.1.05-.01.09-.02.14-.04.4-.16.78-.31 1.13-.43.26-.09.49-.18.72-.25.97-.33 1.58-.49 1.62-.5h0c0 0-.03 0-.05 0 0 0 0 0 0 0 0 0 0 0 0 0-.25-.04-.5-.08-.74-.12-.46-.06-.9-.11-1.32-.14-.02 0-.05 0-.07 0-1.12-.07-2.13-.03-3.03.1-.25.26-.48.54-.67.85.1-.28.23-.55.38-.81 0 0 0 0 0 0 0 0 0 0 0 0-.48.08-.94.19-1.36.32-.12.28-.21.57-.27.87 0-.27.02-.54.07-.81h0c0 0 0 0 0 0-1.16.38-2.11.91-2.89 1.54-.11.36-.19.73-.22 1.11-.04-.3-.05-.6-.03-.91 0 0 0 0 0 0h0c-.3.26-.57.52-.82.8-.21.49-.34 1.02-.38 1.57-.05-.36-.05-.73-.02-1.09 0 0 0 0 0 0 0 0 0 0 0 0-.17.22-.33.44-.48.67.06-.21.12-.42.17-.64-.26.15-.52.28-.8.39.32-.2.6-.43.86-.69.18-.96.21-2.02 0-3.19-.21.16-.43.31-.66.43.23-.19.44-.4.63-.63-.08-.43-.2-.86-.35-1.32-.15.25-.33.48-.52.7.18-.31.32-.63.43-.96-.48-1.35-1.28-2.8-2.49-4.37 0 0 0 0 0 0-.01-.01-.02-.03-.03-.04h0c0 0 .15.64.3 1.62.04.22.07.47.11.73.05.36.1.75.14 1.17.01.05.02.09.03.14.04.17.1.35.16.52.18.49.44.95.77 1.37-.27-.23-.52-.48-.74-.77-.04-.06-.09-.11-.13-.17.02.27.04.54.05.83.25.27.52.52.83.74-.29-.12-.56-.27-.82-.45.06 1.39.03 2.93-.15 4.47-.02-.26-.05-.52-.09-.78-.19.42-.42.82-.69 1.19.29-.63.47-1.29.55-1.95-.1-.45-.23-.91-.4-1.38-.17.35-.37.67-.59.98.2-.44.35-.89.45-1.35-.47-1.16-1.18-2.34-2.22-3.46-.12.32-.26.63-.42.93.12-.37.2-.74.24-1.12-.39-.4-.82-.8-1.29-1.18 0 .38-.02.75-.08 1.12-.02-.46-.09-.91-.21-1.34-1.46-1.12-3.34-2.15-5.74-2.99 0 0 0 0 0 0-.02 0-.04-.01-.06-.02h0c0 0 .6.59 1.46 1.54.2.22.4.46.63.72.3.35.63.74.97 1.17.04.04.09.08.13.13.17.16.35.31.54.45.53.4 1.14.73 1.79.95-.45-.06-.9-.16-1.34-.32-.09-.03-.17-.06-.26-.1.21.28.42.56.63.86.46.12.93.2 1.42.22-.39.07-.8.09-1.2.08.65.92 1.3 1.93 1.91 2.99-.08-.09-.16-.18-.25-.26-.01.45-.06.91-.15 1.36 0-.57-.05-1.12-.15-1.64-.95-.84-2.13-1.54-3.6-1.97.03.4.03.8 0 1.2-.05-.44-.13-.87-.25-1.27-.54-.15-1.12-.25-1.74-.32.17.37.31.76.41 1.16-.22-.44-.48-.84-.78-1.2-1.88-.15-4.12.07-6.78.81 0 0 0 0 0 0-.02 0-.05.01-.07.02h0c0 0 .83.19 2.06.57.28.09.58.19.91.3.44.15.92.32 1.43.52.06.01.12.03.18.04.23.04.47.07.71.09.68.05 1.4-.02 2.12-.24-.46.24-.93.43-1.42.56-.1.03-.19.05-.29.07.32.14.64.28.97.44.49-.18.98-.42 1.45-.72-.35.33-.72.62-1.12.88 1.69.81 3.49 1.83 5.17 3.11.4-.03.8-.11 1.21-.23-.31.17-.63.31-.96.42.14.11.29.23.43.35-.25-.07-.5-.12-.75-.16.19.28.35.57.49.88-.24-.34-.5-.65-.79-.92-.93-.1-1.94-.02-3.01.35.19.23.36.47.51.72-.22-.25-.45-.46-.69-.66-.39.14-.78.33-1.19.55.26.15.51.32.74.52-.32-.17-.65-.3-.98-.39-1.19.71-2.45 1.8-3.73 3.38 0 0 0 0 0 0-.01.01-.02.03-.03.04h0c0 0 .58-.24 1.48-.53.21-.07.43-.14.67-.21.33-.1.69-.2 1.08-.29.04-.02.08-.04.12-.05.16-.07.31-.15.46-.25.43-.26.83-.61 1.17-1.05-.17.34-.38.66-.61.94-.05.06-.09.11-.14.17.25-.05.51-.1.77-.15.22-.32.41-.67.57-1.05-.07.34-.17.68-.3 1 1.36-.23 2.88-.39 4.43-.33.23-.19.44-.41.63-.65-.12.23-.25.45-.4.66.62.03 1.25.1 1.87.21.05.13.12.25.22.36-.53.44-1.06.87-1.59 1.31-.13.1-.15.3-.06.48-.09 0-.17.04-.23.1-.58.56-1.16 1.13-1.73 1.69-.12.11-.11.31 0 .49-.09.01-.17.05-.23.11-.53.61-1.05 1.22-1.58 1.83-.11.12-.08.33.05.5-.09.02-.17.06-.22.13-.47.66-.94 1.31-1.41 1.97-.1.13-.05.34.11.51-.09.02-.16.07-.21.15-.4.7-.81 1.4-1.21 2.1-.08.14 0 .35.17.51-.09.03-.16.08-.2.16-.19.43-.39.86-.58 1.29-1.68-.23-3.31-.38-4.91-.44-.03-1.15-.06-2.3-.09-3.45 0-.1-.05-.2-.12-.28.25-.13.4-.32.38-.51-.11-1.23-.22-2.46-.34-3.69-.01-.1-.06-.2-.13-.27.23-.14.36-.33.33-.52-.19-1.22-.37-2.44-.56-3.66-.02-.1-.07-.19-.14-.27.21-.15.32-.35.28-.53-.26-1.21-.51-2.41-.77-3.62-.02-.1-.08-.18-.16-.25.19-.15.29-.36.24-.55-.32-1.19-.64-2.38-.97-3.57-.03-.1-.09-.18-.17-.25.17-.16.25-.37.19-.55-.38-1.17-.77-2.34-1.15-3.52-.03-.1-.1-.17-.18-.24.16-.17.22-.38.15-.56-.44-1.15-.89-2.3-1.33-3.45-.04-.1-.11-.17-.18-.23.14-.17.19-.38.11-.56-.31-.7-.61-1.39-.92-2.09 1.1-.04 2.2 0 3.28.09-.2-.38-.37-.79-.51-1.21.27.46.57.87.91 1.24 2.62.27 5.14.88 7.38 1.6-.14-.57-.23-1.16-.27-1.75.17.68.41 1.31.71 1.9.43.14.85.29 1.26.44-.07-.1-.14-.21-.2-.31-.33-.54-.6-1.12-.8-1.73.47.81 1.07 1.49 1.73 2.03.23.19.47.36.72.52.07.04.13.08.2.12.63.26 1.21.51 1.74.75.39.18.75.35 1.08.51 1.45.7 2.32 1.21 2.36 1.24h0c0 0-.03-.05-.05-.08 0 0 0 0 0 0-1.79-2.96-3.64-5.08-5.48-6.55-.57.07-1.16.21-1.73.42.44-.28.9-.52 1.37-.71-.62-.47-1.25-.87-1.86-1.2-.45.27-.89.58-1.31.94.32-.39.66-.76 1.02-1.09-1.71-.87-3.39-1.25-4.97-1.3-.54.38-1.06.84-1.54 1.36.31-.48.65-.94 1.03-1.37-.44 0-.88.04-1.31.1.27-.16.53-.33.8-.48-.52-.27-1.03-.58-1.51-.93.65.3 1.32.52 1.98.67 3.12-1.76 6.39-3.06 9.42-4.02-.6-.53-1.16-1.1-1.67-1.73.72.62 1.49 1.13 2.27 1.55.59-.18 1.17-.35 1.74-.5-.16-.06-.31-.12-.47-.19-.78-.34-1.54-.77-2.25-1.28 1.16.53 2.35.81 3.51.89.41.03.81.03 1.21.01.1 0 .21-.01.31-.02.9-.21 1.74-.39 2.52-.54.57-.11 1.1-.21 1.59-.29 2.16-.36 3.52-.47 3.59-.48h0c0 0-.07-.03-.11-.05 0 0 0 0 0 0-4.3-1.87-8.01-2.77-11.2-2.96-.58.53-1.12 1.14-1.58 1.83.26-.65.59-1.27.96-1.85-1.06-.03-2.06.01-3.01.13-.29.65-.53 1.34-.72 2.07.04-.68.13-1.35.27-2.01-2.57.38-4.73 1.28-6.52 2.47-.3.85-.52 1.76-.64 2.72-.04-.78-.01-1.55.07-2.32-.18.13-.35.28-.53.42 1.29-1.66 2.64-3.21 3.96-4.61-.68-.08-1.36-.22-2-.42.82.08 1.64.07 2.44-.03.43-.45.85-.88 1.27-1.3-.15.04-.3.07-.46.1-.77.16-1.55.23-2.32.22 1.15-.22 2.24-.63 3.23-1.18.35-.19.68-.4 1.01-.63.09-.06.17-.12.25-.18.67-.63 1.31-1.21 1.9-1.73.43-.38.84-.74 1.22-1.06 1.66-1.41 2.75-2.21 2.81-2.25h0c0 0-.07.01-.11.02 0 0 0 0 0 0-4.24.86-7.64 2.14-10.36 3.68-.3.7-.52 1.44-.67 2.21-.01-.63.03-1.27.14-1.9-.89.53-1.71 1.1-2.45 1.68-.01.64.03 1.29.14 1.94-.21-.53-.37-1.09-.49-1.66-2 1.64-3.47 3.45-4.54 5.29.06.8.2 1.6.44 2.38-.31-.56-.57-1.16-.77-1.78-.39.74-.73 1.48-1 2.22-.02 1.13.12 2.29.46 3.41-.37-.68-.67-1.4-.89-2.16-.13.44-.24.86-.34 1.29.06-2.64.38-5.23.8-7.56-.48.24-.98.43-1.49.57.57-.29 1.1-.64 1.58-1.05.09-.47.19-.93.28-1.38-.08.09-.17.17-.25.26-.44.43-.91.8-1.42 1.12.66-.63 1.2-1.35 1.62-2.13.15-.27.28-.55.39-.83.03-.07.06-.15.09-.22.17-.69.34-1.34.51-1.93.12-.43.24-.83.35-1.2.49-1.62.87-2.6.89-2.65h0c0 0-.04.04-.06.06 0 0 0 0 0 0-2.41 2.34-4.09 4.61-5.22 6.76.1.58.26 1.16.49 1.72-.27-.41-.51-.84-.71-1.3-.36.72-.65 1.43-.89 2.13.26.42.56.83.91 1.2-.36-.26-.7-.55-1.02-.88-.62 1.91-.82 3.71-.74 5.36.37.5.8.96 1.29 1.37-.44-.24-.86-.52-1.25-.84.03.38.08.76.14 1.12-.19-.41-.41-.82-.65-1.24 0 0 0 0 0 0 0 0 0 0 0 0-.03.63-.13 1.24-.29 1.84.06-.93-.04-1.85-.27-2.73-.35-.52-.75-1.03-1.19-1.54 0 0 0 0 0 0 0 0 0 0 0 0-.04.52-.13 1.03-.27 1.52.04-.65 0-1.29-.1-1.92-1.17-1.23-2.64-2.36-4.5-3.27h0c0 0 0 0 0 0 .01.46-.01.92-.07 1.37-.04-.52-.12-1.03-.25-1.53-.69-.32-1.42-.6-2.22-.85 0 0 0 0 0 0 0 0 0 0 0 0 .2.47.35.95.46 1.45-.25-.57-.56-1.1-.92-1.59-1.91-.55-4.13-.89-6.69-.95-.66-.01-1.33-.02-2.04 0 0 0 0 0 0 0 0 0 0 0 0 0-.03 0-.06 0-.08 0h0c.05.02 1.05.44 2.6 1.23.35.18.74.38 1.14.59.56.3 1.16.63 1.79.99.08.03.15.06.23.09.29.11.59.21.9.3.87.24 1.79.36 2.73.31-.6.15-1.22.24-1.84.26-.12 0-.25 0-.37 0 .4.25.81.5 1.22.77.64-.07 1.28-.21 1.9-.43-.46.28-.96.51-1.48.7 2.12 1.4 4.37 3.08 6.44 5.01.51.07 1.03.1 1.56.07-.41.11-.83.18-1.25.22.87.83 1.69 1.7 2.47 2.62.15.5.27 1 .33 1.51-.29-.89-.73-1.71-1.26-2.44-.52-.35-1.08-.69-1.67-.99.15.5.26 1.01.32 1.51-.2-.62-.48-1.21-.81-1.75-1.54-.71-3.33-1.22-5.39-1.37.18.43.33.86.44 1.31-.23-.47-.49-.92-.8-1.33-.75-.04-1.55-.03-2.37.03.36.37.68.76.96 1.18-.44-.44-.93-.81-1.45-1.14-2.48.24-5.29.97-8.45 2.36 0 0 0 0 0 0-.03.01-.05.02-.08.04h0c.06 0 1.14.02 2.87.18.4.04.82.08 1.28.13.63.07 1.31.15 2.03.26.08 0 .16 0 .25 0 .31 0 .63-.02.95-.05.9-.1 1.8-.33 2.65-.72-.5.36-1.04.67-1.62.92-.11.05-.23.1-.34.14.46.08.94.17 1.42.26.57-.3 1.11-.67 1.6-1.1-.33.43-.7.83-1.11 1.2.92.19 1.86.41 2.82.66-.68.05-1.38.14-2.08.29.55.39 1.06.82 1.54 1.29-.69-.47-1.4-.85-2.13-1.15 0 0 0 0 0 0h0c-1.81.48-3.63 1.36-5.36 2.81.51.29 1 .62 1.46.98-.58-.3-1.17-.54-1.76-.73h0c0 0 0 0 0 0-.62.55-1.23 1.17-1.82 1.88 0 0 0 0 0 0h0c.3.05.59.11.88.18.29.07.58.16.87.27-.72-.1-1.42-.1-2.1-.02-1.72 2.18-3.27 5.11-4.54 8.98 0 0 0 0 0 0-.01.03-.02.07-.03.1h0c0 0 .9-.86 2.38-2.05ZM15.07 52.65c0 .05 0 .1 0 .16 0 0 0-.01 0-.02 0-.1 0-.29 0-.57 0 .15 0 .29 0 .44ZM28.92 48.69c0 0 0 .02.01.02 0 0-.01-.02-.02-.04-.02-.05-.06-.14-.1-.26-.05-.14-.1-.29-.14-.43.08.23.16.47.25.71ZM26.7 32.73c0 0-.01.03-.02.04-.02-.51-.07-1.03-.17-1.56.19.46.34.93.46 1.4-.09.04-.18.07-.27.12ZM58.27 59.53c0 0-.04.08-.06.1 0 0-.01.02-.01.02 0 0 0 0 0-.01.08-.14.14-.28.21-.43-.05.11-.1.21-.15.32ZM65.96 63.14c.01-.1.03-.2.04-.31-.02.16-.04.27-.04.33 0 0 0 0 0 .01 0-.01 0-.03 0-.04ZM61.04 49.64c-.1.31-.17.61-.22.91 0-.01 0-.03-.01-.05-.05-.03-.1-.06-.15-.09.11-.26.24-.53.38-.78ZM71.95 55.36c0 0 0 0 0 0 0 0 0-.02 0-.02-.04-.11-.08-.22-.12-.33.07.17.11.3.13.35ZM71.98 45.41c0 0-.02 0-.03-.01-.1-.04-.21-.09-.31-.13.17.07.28.11.34.14ZM71.63 38.44c0 0 0 0-.01 0-.09 0-.17 0-.26 0 .13 0 .22 0 .27 0ZM57.05 32.09c0 0 0-.02-.01-.03 0 0 0 0 0 0 .03.05.08.15.16.31-.05-.1-.1-.19-.16-.29ZM47.08 30.9c0 0-.01 0-.02-.01 0 0 0 0 0 0 .02.01.06.03.09.05-.02-.01-.05-.03-.07-.04ZM40.4 37.44c0 0-.03 0-.04 0 0 0-.02 0-.02 0 0 0 .02 0 .04 0 .08 0 .25-.02.49-.04-.16.01-.31.03-.46.04ZM43.76 47.92c0 0 0 0 0 0 .04-.04.14-.12.27-.23-.08.07-.17.14-.26.22 0 0-.02.01-.03.02ZM43.84 47.86c.09-.08.19-.16.28-.23.06-.05.12-.1.19-.15-.16.12-.31.25-.47.38ZM54.74 42.69c0-.49-.04-.97-.12-1.42.08.16.16.31.24.47-.02.32-.06.64-.12.96ZM55.95 32.37c0 0 0 0 .01.01-.03-.04-.07-.08-.1-.11-.1-.12-.21-.24-.32-.36.21.23.35.39.41.46ZM64.13 15.57c0 0 .01 0 .02 0-.05-.01-.1-.02-.15-.03-.23-.06-.46-.11-.69-.16.4.09.69.16.82.19ZM54.42 2.98c0 0 0 0 0 0-.02 0-.05.02-.07.03 0 0-.02 0-.03.01.03-.01.07-.03.09-.04ZM38.76 19.38c.17-.26.35-.52.53-.77-.25.76-.44 1.56-.54 2.41-.03-.54-.02-1.09.01-1.63ZM37.37 2.62c0 0 .02-.03.03-.03 0 0-.01.01-.02.02-.02.03-.04.06-.06.09-.1.13-.2.27-.29.4.17-.24.29-.4.35-.48ZM33.95 20.03c-.03.15-.06.29-.08.44-.27.22-.54.42-.83.6.34-.32.64-.67.91-1.03ZM11.38 9.89c0 0 0 0-.01 0 .1.01.27.03.51.07-.17-.02-.33-.05-.5-.07ZM9.25 21.5c0 0-.07.02-.11.03.11-.03.3-.08.58-.14-.16.04-.31.08-.47.12ZM24.01 24.05c.34.27.67.56.99.87-.89-.61-1.82-1.06-2.75-1.38.59.16 1.17.33 1.77.51ZM7.15 37.68c-.09.16-.17.32-.26.48-.02.03-.04.06-.05.1.05-.1.16-.3.31-.58Z"/>
</svg>