<svg xmlns="http://www.w3.org/2000/svg" viewBox="0 0 80 80">
<path d="M73.59 48.96c-8.62-5.43-20.64-4.34-26.47.08-3.46 2.63-4.77 6.24-3.72 10.19-1.46 1.54-2.73 3.32-3.73 5.35v-16.31c2.24-.46 3.93-2.45 3.93-4.83 0-1.65-.17-3.3-.44-4.88.93 1.31 1.97 2.59 3.14 3.76.96.96 2.22 1.44 3.49 1.44 1.27 0 2.53-.48 3.49-1.44 1.92-1.92 1.92-5.05 0-6.97-1.17-1.17-2.46-2.21-3.76-3.14 1.58.27 3.23.44 4.88.44 2.72 0 4.93-2.21 4.93-4.93 0-2.72-2.21-4.93-4.93-4.93-1.65 0-3.3.17-4.88.44 1.31-.93 2.59-1.97 3.76-3.14 1.92-1.92 1.92-5.05 0-6.97-1.92-1.92-5.05-1.92-6.97 0-1.17 1.17-2.21 2.46-3.14 3.76.27-1.58.44-3.23.44-4.88 0-2.72-2.21-4.93-4.93-4.93-2.72 0-4.93 2.21-4.93 4.93 0 1.65.17 3.3.44 4.88-.93-1.31-1.97-2.59-3.14-3.76-1.92-1.92-5.05-1.92-6.97 0-1.92 1.92-1.92 5.05 0 6.97 1.17 1.17 2.46 2.21 3.76 3.14-1.58-.27-3.23-.44-4.88-.44-2.72 0-4.93 2.21-4.93 4.93 0 2.72 2.21 4.93 4.93 4.93 1.65 0 3.3-.17 4.88-.44-1.31.93-2.59 1.97-3.76 3.14-1.92 1.92-1.92 5.05 0 6.97.96.96 2.22 1.44 3.49 1.44 1.27 0 2.53-.48 3.49-1.44 1.17-1.17 2.21-2.46 3.14-3.76-.27 1.58-.44 3.23-.44 4.88 0 2.38 1.69 4.36 3.93 4.83v13.86c-1.24-1.95-2.88-3.74-4.91-5.35.74-3.37-.29-6.17-3.04-8.12-5.94-4.2-19.05-3.29-23-.39-.3.22-.45.58-.4.95.05.37.3.67.65.8 1.02.37 2.36 1.58 3.9 2.99 3.28 2.98 7.8 7.08 13.94 7.08 2.08 0 4.36-.48 6.83-1.63 2.73 2.17 4.93 4.91 6.02 8.35v5.16c0 .55.45 1 1 1 .55 0 1-.45 1-1v-.9c.74-4.34 2.63-7.74 5.15-10.4 2.57 1.4 5.02 1.98 7.35 1.98 6.79 0 12.47-4.9 16.62-8.48 1.88-1.62 3.5-3.02 4.59-3.4.36-.13.62-.45.67-.83.04-.38-.13-.75-.46-.96ZM12.22 51.51c-.36-.33-.71-.64-1.05-.94 3.98.6 12.19 2.29 18.57 6.49-7.98 3.08-13.47-1.87-17.53-5.55ZM30.97 55.47c-2.44-1.63-5.32-3.05-8.62-4.22-4.51-1.59-8.71-2.36-11.16-2.71 4.9-1.24 13.06-1.32 17.38 1.74 1.85 1.31 2.64 3.02 2.4 5.19ZM51.86 36.75c1.14 1.14 1.14 3 0 4.14-1.14 1.14-3 1.14-4.14 0-2.82-2.82-4.9-6.38-6.24-9.14.49-.34.91-.76 1.25-1.25 2.76 1.35 6.33 3.43 9.14 6.24ZM38.67 30.64c-1.62 0-2.93-1.31-2.93-2.93 0-1.62 1.32-2.93 2.93-2.93 1.61 0 2.93 1.32 2.93 2.93 0 1.61-1.31 2.93-2.93 2.93ZM54.4 24.78c1.62 0 2.93 1.32 2.93 2.93 0 1.61-1.31 2.93-2.93 2.93-3.98 0-7.98-1.05-10.88-2.05.05-.29.09-.58.09-.88 0-.3-.04-.59-.09-.88 2.9-1 6.9-2.05 10.88-2.05ZM47.72 14.52c1.14-1.14 3-1.14 4.14 0 1.14 1.14 1.14 3 0 4.14-2.82 2.82-6.38 4.9-9.14 6.24-.34-.49-.76-.91-1.25-1.25 1.35-2.76 3.43-6.33 6.24-9.14ZM38.67 9.05c1.62 0 2.93 1.31 2.93 2.93 0 3.98-1.05 7.98-2.05 10.88-.29-.05-.58-.09-.88-.09-.3 0-.59.04-.88.09-1-2.9-2.05-6.9-2.05-10.88 0-1.62 1.32-2.93 2.93-2.93ZM25.48 18.66c-1.14-1.14-1.14-3 0-4.14 1.14-1.14 3-1.14 4.15 0 2.82 2.82 4.9 6.38 6.24 9.14-.49.34-.91.76-1.25 1.25-2.76-1.35-6.33-3.43-9.14-6.24ZM22.95 30.64c-1.62 0-2.93-1.31-2.93-2.93 0-1.62 1.31-2.93 2.93-2.93 3.99 0 7.98 1.05 10.88 2.05-.05.29-.09.58-.09.88 0 .3.04.59.09.88-2.9 1-6.9 2.05-10.88 2.05ZM29.63 40.9c-1.14 1.14-3 1.14-4.15 0-1.15-1.14-1.14-3 0-4.14 2.82-2.82 6.38-4.9 9.14-6.24.34.49.76.91 1.25 1.25-1.35 2.76-3.43 6.33-6.24 9.14ZM38.67 46.36c-1.62 0-2.93-1.31-2.93-2.93 0-3.99 1.05-7.98 2.05-10.88.29.05.58.09.88.09.3 0 .59-.04.88-.09 1 2.9 2.05 6.9 2.05 10.88 0 1.62-1.31 2.93-2.93 2.93ZM67.49 52.63c-5.33 4.6-12.53 10.8-21.14 6.55 7.05-6.14 17.6-7.67 22.89-8.04-.55.46-1.13.95-1.75 1.49ZM45.11 57.61c-.44-3.37 1.44-5.63 3.22-6.99 4.67-3.54 13.75-4.7 21.26-1.51-5.35.34-16.76 1.87-24.48 8.49Z"/>
</svg>