<svg xmlns="http://www.w3.org/2000/svg" viewBox="0 0 80 80">
<path d="M67.5 36.99c-1.39-2.23-3.61-3.79-6.16-4.33.08-.54.12-1.08.12-1.63 0-5.98-4.87-10.85-10.85-10.85-4.79 0-9 3.18-10.38 7.68-1.49-.23-3.03-.11-4.46.35-1.82-2.43-4.66-3.86-7.73-3.86-5.33 0-9.67 4.34-9.67 9.67 0 .05 0 .1 0 .14-2.45.31-4.66 1.77-5.91 3.92-.03 0-.06 0-.1 0-4.42 0-8.01 3.59-8.01 8.01 0 4.42 3.59 8.01 8.01 8.01.89 0 1.77-.15 2.61-.44 1.51 1.76 3.73 2.79 6.07 2.79.89 0 1.77-.15 2.61-.44 1.51 1.76 3.73 2.79 6.07 2.79 2.34 0 4.39-.95 5.89-2.59 1.83 2.27 4.61 3.64 7.57 3.64 3.27 0 6.23-1.6 8.03-4.25 1.78 1.63 4.1 2.55 6.56 2.55 2.68 0 5.22-1.1 7.05-3.04 5.75 1.07 10.82-3.42 10.82-9.01 0-4.69-3.53-8.58-8.13-9.1ZM64.71 53.02c-.38-.09-.77.03-1.01.33-1.47 1.77-3.63 2.78-5.93 2.78-2.3 0-4.5-1.04-5.97-2.84-.22-.26-.55-.4-.89-.36-.34.04-.63.25-.78.56-1.3 2.68-3.96 4.34-6.93 4.34-2.73 0-5.29-1.47-6.66-3.84-.18-.3-.5-.49-.85-.5h-.02c-.34 0-.66.18-.85.47-1.11 1.77-3.01 2.83-5.09 2.83-1.96 0-3.8-.96-4.92-2.57-.28-.4-.8-.54-1.24-.33-.8.37-1.65.56-2.51.56-1.96 0-3.8-.96-4.92-2.57-.28-.4-.8-.54-1.24-.33-.8.37-1.64.56-2.51.56-3.31 0-6.01-2.69-6.01-6.01 0-3.32 2.69-6.01 6.01-6.01.2 0 .39.01.58.03.42.04.82-.19 1-.57.99-2.09 3.12-3.44 5.39-3.44.31.01.65-.1.85-.33.19-.22.28-.5.24-.79-.04-.33-.06-.65-.06-.96 0-4.23 3.44-7.67 7.67-7.67 2.65 0 5.08 1.34 6.5 3.59.26.41.78.58 1.23.39 1.55-.65 3.31-.77 4.93-.34.26.07.55.03.78-.12.23-.15.4-.38.45-.65.84-4.09 4.49-7.06 8.67-7.06 4.88 0 8.85 3.97 8.85 8.85 0 .75-.09 1.49-.28 2.21-.07.28-.02.58.15.82.17.24.43.39.72.42 2.52.25 4.75 1.73 5.97 3.95.17.3.48.5.82.52 3.8.2 6.78 3.34 6.78 7.15 0 4.52-4.2 8.13-8.93 6.94Z"/>
</svg>