<svg xmlns="http://www.w3.org/2000/svg" viewBox="0 0 80 80">
<path d="M60.46 24.96c-1.79 0-4.08 1.19-4.94 3.3-.36-.28-.48-.89-2.19-1.04-1.79-.16-2.21.65-2.62.76-.53-2.46-1.61-5.59-4.58-5.31-3.03.29-4.47 1.75-4.47 4.74 0 .47.25 1.78.37 2.21-2.19.04-3.61 1.44-4.39 2.79-2.49.12-4.43 1.5-4.43 3.9 0 2.4 1.92 4.54 4.54 4.54.4 0 .79-.05 1.16-.14.02.02.04.03.05.05-.07.14-.12.29-.12.45v7.2c0 .55.45 1 1 1 .55 0 1-.45 1-1v-6.35c.6.24 1.25.38 1.94.38 1.58 0 2.98-.69 3.91-1.76.61 1.19 1.73 2.11 3.08 2.49-.04.11-.07.22-.07.34v7.2c0 .55.45 1 1 1 .55 0 1-.45 1-1v-7.2c0-.06-.02-.11-.03-.17 1.4-.12 2.63-.77 3.46-1.75v3.83c0 .55.45 1 1 1 .55 0 1-.45 1-1v-3.08c.56.28 1.2.45 1.89.45 1.38 0 2.59-.65 3.32-1.65.52.23 1.09.36 1.7.36 1.19 0 2.26-.49 3.01-1.27v6.91c0 .55.45 1 1 1 .55 0 1-.45 1-1v-6.93c0 0 .01 0 .02 0 2.24 0 4.06-1.72 4.06-3.85 0-2.13-1.82-3.85-4.06-3.85-.13 0-.26 0-.39.02-.65-1.3-2.04-2.2-3.66-2.2-.01 0-.03 0-.04 0 .03-.2.04-.39.04-.6 0-2.63-1.78-4.77-4.55-4.77ZM62.28 55.25c.55 0 1-.45 1-1v-7.2c0-.55-.45-1-1-1-.55 0-1 .45-1 1v7.2c0 .55.45 1 1 1ZM61.28 66.2c0 .55.45 1 1 1 .55 0 1-.45 1-1v-7.2c0-.55-.45-1-1-1-.55 0-1 .45-1 1v7.2ZM56.14 59.24c.55 0 1-.45 1-1v-7.2c0-.55-.45-1-1-1-.55 0-1 .45-1 1v7.2c0 .55.45 1 1 1ZM55.14 71.08c0 .55.45 1 1 1 .55 0 1-.45 1-1v-7.2c0-.55-.45-1-1-1-.55 0-1 .45-1 1v7.2ZM69.06 59.25v-7.2c0-.55-.45-1-1-1-.55 0-1 .45-1 1v7.2c0 .55.45 1 1 1 .55 0 1-.45 1-1ZM17.02 54.71c.55 0 1-.45 1-1v-7.2c0-.55-.45-1-1-1-.55 0-1 .45-1 1v7.2c0 .55.45 1 1 1ZM16.02 66.29c0 .55.45 1 1 1 .55 0 1-.45 1-1v-7.2c0-.55-.45-1-1-1-.55 0-1 .45-1 1v7.2ZM51.71 62.64v-7.2c0-.55-.45-1-1-1-.55 0-1 .45-1 1v7.2c0 .55.45 1 1 1 .55 0 1-.45 1-1ZM45.67 54.97c.55 0 1-.45 1-1v-7.2c0-.55-.45-1-1-1-.55 0-1 .45-1 1v7.2c0 .55.45 1 1 1ZM44.67 66.56c0 .55.45 1 1 1 .55 0 1-.45 1-1v-7.2c0-.55-.45-1-1-1-.55 0-1 .45-1 1v7.2ZM40.84 60.81v-7.2c0-.55-.45-1-1-1-.55 0-1 .45-1 1v7.2c0 .55.45 1 1 1 .55 0 1-.45 1-1ZM34.06 52.46c-.55 0-1 .45-1 1v7.2c0 .55.45 1 1 1 .55 0 1-.45 1-1v-7.2c0-.55-.45-1-1-1ZM35.06 73.25v-7.2c0-.55-.45-1-1-1-.55 0-1 .45-1 1v7.2c0 .55.45 1 1 1 .55 0 1-.45 1-1ZM28.28 55.25c.55 0 1-.45 1-1v-7.2c0-.55-.45-1-1-1-.55 0-1 .45-1 1v7.2c0 .55.45 1 1 1ZM34.05 42.26c-.55 0-1 .45-1 1v4.17c0 .55.45 1 1 1 .55 0 1-.45 1-1v-4.17c0-.55-.45-1-1-1ZM22.65 47.89c.55 0 1-.45 1-1v-4.17c0-.55-.45-1-1-1-.55 0-1 .45-1 1v4.17c0 .55.45 1 1 1ZM27.28 66.2c0 .55.45 1 1 1 .55 0 1-.45 1-1v-7.2c0-.55-.45-1-1-1-.55 0-1 .45-1 1v7.2ZM21.65 60.27c0 .55.45 1 1 1 .55 0 1-.45 1-1v-7.2c0-.55-.45-1-1-1-.55 0-1 .45-1 1v7.2ZM21.65 72.86c0 .55.45 1 1 1 .55 0 1-.45 1-1v-7.2c0-.55-.45-1-1-1-.55 0-1 .45-1 1v7.2ZM9.48 22.06c-.19-.02-.38-.03-.57-.03-3.23 0-5.86 2.62-5.86 5.85 0 3.23 2.62 5.85 5.86 5.85.88 0 1.7-.2 2.45-.54 1.04 1.48 2.74 2.46 4.67 2.5v3.49c0 .55.45 1 1 1 .55 0 1-.45 1-1v-3.79c.2-.07.39-.14.57-.23 1.06 1.51 2.81 2.5 4.8 2.5 1.49 0 2.84-.56 3.87-1.48v5.79c0 .55.45 1 1 1 .55 0 1-.45 1-1v-5.12c.65.8 1.59 1.3 2.95 1.42-.34-.67-.56-1.41-.56-2.21 0-2.6 2.04-4.72 4.61-4.85.8-1.46 2.28-2.49 4.02-2.66-.12-.47-.18-.96-.18-1.46 0-3.24 2.63-5.87 5.87-5.87 2.83 0 5.2 2.01 5.75 4.68.42-.11.87-.17 1.33-.17.71 0 1.38.14 2 .4.91-1.45 2.53-2.42 4.38-2.42.02 0 .04 0 .06 0-1.18-1.51-2.98-2.52-5.02-2.62-1.12-2.05-3.2-3.49-5.63-3.73.17-.66.26-1.34.26-2.05 0-4.55-3.68-8.23-8.23-8.23-3.97 0-7.29 2.82-8.06 6.56-.59-.16-1.22-.24-1.86-.24-.99 0-1.94.2-2.8.56-1.28-2.04-3.55-3.39-6.14-3.39-4 0-7.25 3.24-7.25 7.25 0 .31.02.61.06.91-.02 0-.04 0-.06 0-2.34 0-4.35 1.37-5.29 3.35Z"/>
</svg>