<svg xmlns="http://www.w3.org/2000/svg" viewBox="0 0 80 80">
<path d="M66.8 18.89h-.08c-1.17-1.75-3.13-2.91-5.41-3.18-.03-4.66-3.5-8.03-8.28-8.03-2.74 0-6.29 1.5-8.16 4.31-.61-.44-1.5-.82-3.15-.95-1.82-.15-2.91.22-3.63.61-.79-2.89-2.77-7.85-8.07-7.37-5.42.48-8.06 3.11-8.06 8.04 0 .54.17 1.55.35 2.39-3.28.48-5.29 2.56-6.34 4.08-4.59.39-7.52 3-7.52 6.75 0 4.34 3.62 7.74 8.25 7.74.5 0 1.01-.04 1.53-.13 1.7 1.58 4.05 2.48 6.53 2.48 2.26 0 4.41-.75 6.07-2.08 1.68 2.16 4.42 3.47 7.43 3.47 2.72 0 5.3-1.11 7.01-2.97 1.4 1.34 3.36 2.12 5.46 2.12 1.62 0 3.18-.48 4.46-1.33-2.01 2.65-3.81 5.46-5.49 8.16l-.84 1.35 1.58.17c2.45.26 4.51.42 6.37.49-2.04 5.79-3.4 10.66-4.26 15.26l-.87 4.67 2.68-3.93c.87-1.28 1.76-2.7 2.69-4.34 3.15-5.43 5.72-11.17 7.82-16.07l.57-1.33-1.44-.06c-1.9-.08-4.06-.17-6.23-.14.67-1.71 1.21-3.31 1.66-4.85 1.9-.16 3.67-.96 4.94-2.25.78.24 1.59.36 2.42.36 4.13 0 7.49-3.01 7.49-6.72 0-3.71-3.36-6.72-7.49-6.72ZM62.48 41.14c-1.83 4.24-4.01 9.01-6.6 13.58.84-3.16 1.92-6.55 3.29-10.34l.48-1.32-1.4-.02c-1.76-.02-3.7-.14-5.99-.35 1.43-2.28 2.89-4.51 4.5-6.63-.4 1.17-.86 2.38-1.39 3.67l-.59 1.44 1.55-.06c2.08-.08 4.2-.03 6.14.04ZM66.8 30.32c-.81 0-1.6-.15-2.34-.46l-.7-.28-.47.59c-1.03 1.3-2.72 2.07-4.53 2.07-.81 0-1.59-.15-2.34-.46l-.69-.28-.47.59c-1.03 1.29-2.72 2.07-4.53 2.07-1.92 0-3.67-.85-4.68-2.27l-.85-1.19-.8 1.22c-1.26 1.91-3.61 3.09-6.13 3.09-2.71 0-5.21-1.37-6.37-3.49l-.67-1.21-.94 1.02c-1.35 1.46-3.36 2.3-5.51 2.3-2.15 0-4.12-.82-5.47-2.25l-.39-.41-.55.12c-4.22.94-7.89-1.85-7.89-5.55 0-3.32 3.17-4.65 6.13-4.79l.52-.02.28-.45c.84-1.34 2.75-3.61 6.18-3.67l1.31-.02-.37-1.26c-.19-.66-.55-2.48-.55-3.01 0-3.85 1.86-5.66 6.23-6.04 3.09-.27 5.07 1.99 6.26 7.12l.23.97.97-.23c.35-.08.62-.26.89-.43.52-.34 1.24-.81 3-.67 1.77.14 2.16.55 2.51.92.16.17.32.32.49.44l1 .71.49-1.12c1.18-2.69 4.48-4.3 6.98-4.3 3.7 0 6.28 2.5 6.28 6.08 0 .25-.02.5-.05.74l-.1 1.14h1.15c2.13 0 4.08 1.08 4.98 2.75l.31.58.65-.06c.18-.01.36-.02.54-.02 3.03 0 5.49 2.12 5.49 4.72 0 2.6-2.46 4.72-5.49 4.72ZM40.71 49.65c1.15-2.86 2-5.39 2.64-7.87l1.01-3.94-2.72 3.02c-3.53 3.91-6.4 8.44-9.04 12.74l-.83 1.36 1.59.16c2.65.26 4.89.42 6.93.48-2.28 6.35-3.82 11.69-4.82 16.68l-1.01 5.02 2.83-4.27c.92-1.39 1.85-2.93 2.84-4.7 3.33-5.87 6.04-11.97 8.25-17.16l.57-1.33-1.45-.06c-2.49-.1-4.66-.17-6.77-.13ZM38.94 66.32c.95-3.46 2.17-7.18 3.69-11.35l.49-1.33h-1.42c-1.96-.03-4.07-.14-6.56-.36 1.52-2.45 3.07-4.85 4.77-7.13-.47 1.31-1.01 2.69-1.63 4.16l-.61 1.45 1.57-.06c2.14-.08 4.28-.05 6.71.03-1.95 4.52-4.26 9.62-7.01 14.6ZM27.61 44.26c-.95-.04-1.92-.05-2.88-.04.66-1.46 1.33-3.03 1.82-4.71l.85-2.9-2.41 1.82c-1.42 1.07-2.67 2.28-3.82 3.43-1.1 1.13-2.18 2.34-3.31 3.71l-3.18 3.88 5.3.51c.96.09 1.95.16 2.98.19-.5 1.14-.93 2.17-1.32 3.18-.47 1.23-.97 2.54-1.39 3.88-.49 1.48-.87 2.81-1.15 4.06l-.83 3.66 2.54-2.76c.87-.94 1.75-2.01 2.67-3.24.86-1.1 1.63-2.22 2.41-3.36 1.46-2.17 2.9-4.51 4.27-6.96l2.33-4.16-4.9-.18ZM28.43 47.63c-1.34 2.4-2.75 4.69-4.18 6.81-.6.88-1.2 1.74-1.83 2.6.34-1.02.73-2.03 1.09-2.98.53-1.36 1.13-2.77 1.9-4.45l.63-1.39-1.53-.02c-1.54-.02-2.96-.09-4.33-.22l-1.57-.15.8-.98c1.09-1.33 2.13-2.5 3.19-3.58.22-.23.44-.44.66-.66-.12.27-.25.55-.38.84-.17.38-.36.74-.54 1.11l-.88 1.76 1.69-.06c1.47-.05 2.95-.06 4.4 0l1.63.06-.73 1.31Z"/>
</svg>