<svg xmlns="http://www.w3.org/2000/svg" viewBox="0 0 80 80">
<path d="M15.35 22.91c-3.99.19-7.08 2.23-7.08 5.79 0 3.56 3.08 6.74 7.25 6.74.64 0 1.26-.08 1.86-.21 1.48 1.57 3.71 2.57 6.2 2.57 2.49 0 4.77-1.02 6.25-2.62.33.6.76 1.16 1.27 1.65-2.49 3.6-4.79 7.34-7.02 11.08 4.03.21 8.13.34 12.19.35-2.22 6.62-4.16 13.34-5.32 20.24 4.49-7.65 7.85-15.9 10.95-24.18-3.94-.06-7.93-.07-11.88.05.96-2.08 1.88-4.18 2.75-6.3 1.25.7 2.73 1.11 4.33 1.11 2.98 0 5.57-1.42 6.97-3.54 1.15 1.61 3.18 2.69 5.5 2.69 2.32 0 4.14-.97 5.32-2.45.83.34 1.74.53 2.71.53.35 0 .7-.03 1.03-.08-1.74 2.36-3.32 4.85-4.86 7.34 2.49.27 5.11.48 7.67.52-1.93 5.35-3.63 10.8-4.68 16.4.96-1.4 1.83-2.83 2.65-4.28 2.97-5.11 5.44-10.53 7.76-15.96-2.51-.11-5.12-.2-7.67-.1.66-1.59 1.25-3.21 1.78-4.85.63-.39 1.19-.87 1.63-1.43.83.34 1.74.53 2.71.53 3.58 0 6.49-2.56 6.49-5.72 0-3.16-2.9-5.72-6.49-5.72-.21 0-.42.01-.63.03-1.04-1.93-3.27-3.27-5.86-3.27-.02 0-.04 0-.06 0 .04-.29.06-.58.06-.88 0-3.91-2.84-7.08-7.28-7.08-2.87 0-6.52 1.77-7.9 4.9-.58-.41-.77-1.32-3.5-1.54-2.86-.23-3.54.97-4.2 1.12-.85-3.66-2.58-8.3-7.33-7.88-4.84.43-7.15 2.6-7.15 7.04 0 .69.4 2.65.59 3.29-3.49.06-5.77 2.14-7.01 4.14ZM42.21 53.81c2.69.27 5.5.48 8.25.5-2.13 5.83-4.03 11.76-5.26 17.85 1-1.52 1.93-3.07 2.8-4.64 3.11-5.48 5.74-11.27 8.2-17.06-2.7-.11-5.5-.2-8.24-.09 1.26-2.97 2.37-6 3.18-9.16-3.46 3.84-6.24 8.21-8.93 12.59ZM14.86 63.86c-.43 1.29-.82 2.61-1.12 3.96.94-1.02 1.8-2.09 2.62-3.18.84-1.08 1.61-2.19 2.37-3.31 1.51-2.24 2.91-4.54 4.23-6.89l1.53-2.74-3.26-.12c-1.49-.06-2.98-.05-4.47 0 .23-.46.47-.92.68-1.39.68-1.5 1.33-3.01 1.8-4.65-1.36 1.03-2.55 2.17-3.7 3.34-1.15 1.17-2.22 2.39-3.25 3.65l-1.99 2.43 3.44.33c1.47.14 2.94.21 4.41.23-.67 1.48-1.32 2.98-1.92 4.5-.49 1.26-.97 2.53-1.37 3.83Z"/>
</svg>