<svg xmlns="http://www.w3.org/2000/svg" viewBox="0 0 80 80">
<path d="M11.13 28.23c.16.57.75.92 1.33.76l4.72-1.27 3.67 2.1-1.9.53c-.58.17-.91.77-.75 1.34.16.58.76.92 1.34.76l3.96-1.11 1.56.88-1.88.53c-.58.17-.91.76-.76 1.34.17.58.76.92 1.34.76l3.94-1.11.35.2c.85 1.47 1.97 3.41 2.65 4.61l-11.68.03 1.24-1.18c.44-.41.44-1.11.04-1.53-.42-.44-1.1-.46-1.54-.04l-3.1 2.97c-.38.36-.44.95-.16 1.37 0 .26.1.52.29.74l2.97 3.11c.41.42 1.1.44 1.54.03.43-.42.44-1.1.03-1.53l-1.68-1.76 11.9-.03c-.7 1.23-1.77 3.05-2.57 4.44l-.07.05-4.05-1.15c-.58-.16-1.18.17-1.34.74-.17.58.16 1.17.75 1.33l2.04.59-1.26.73-3.87-1.09c-.58-.16-1.18.17-1.34.74-.16.59.17 1.19.75 1.35l1.87.52-4.27 2.5-4.08-1.31c-.57-.18-1.18.12-1.35.7l-1.53 4.74c-.08.29-.06.57.07.83.13.26.36.46.63.54l4.74 1.52c.57.19 1.18-.13 1.37-.69l1.46-4.58 4.03-2.35-.61 2.13c-.16.58.17 1.18.75 1.35.58.15 1.18-.18 1.34-.75l1.17-4.15c0 0 .03-.1.03-.15l.95-.55-.56 1.96c-.16.57.17 1.16.75 1.34.57.15 1.18-.18 1.34-.76l1.18-4.13.17-.12c1.74.01 4.12.01 5.53.02l-5.86 10.21-.5-1.83c-.15-.59-.75-.92-1.33-.77-.57.16-.92.75-.76 1.33l1.12 4.15c.07.27.25.49.47.64.23.46.75.7 1.26.56l4.15-1.12c.58-.16.92-.74.76-1.33-.16-.59-.76-.93-1.33-.75l-2.19.58 5.97-10.4c.76 1.34 1.93 3.36 2.73 4.76v.05l-3.12 2.87c-.44.4-.48 1.08-.08 1.53.42.44 1.1.46 1.54.06l1.68-1.55v2.38c0 0-.02.03-.02.03l-3.17 2.9c-.44.41-.47 1.09-.07 1.53.4.44 1.09.48 1.53.07l1.76-1.61.03 4.66-3.23 3.26c-.21.2-.32.48-.32.77 0 .29.12.56.32.77l3.54 3.51c.18.21.47.32.76.32.29 0 .57-.12.78-.33l3.5-3.53c.42-.43.42-1.11 0-1.54l-3.18-3.16h0c0 0-.02-4-.02-4l1.17 1.28c.4.44 1.08.46 1.53.06.45-.4.47-1.08.07-1.52l-2.79-3.05v-2.24c0 0 1.24 1.36 1.24 1.36.4.44 1.09.48 1.53.07.44-.39.47-1.08.06-1.53l-2.88-3.12v-.99c.79-1.37 1.79-3.1 2.45-4.23l5.77 9.93-1.8-.48c-.58-.15-1.17.19-1.33.78-.15.56.18 1.16.77 1.31l4.16 1.1c.27.07.55.03.78-.1.51.05.99-.28 1.12-.8l1.1-4.15c.16-.58-.19-1.17-.77-1.34-.58-.14-1.18.2-1.33.78l-.6 2.24-6.03-10.39c1.44 0 3.77 0 5.44 0l.39.22 1.26 3.95c.19.55.81.87 1.37.69.56-.18.88-.8.69-1.37l-.54-1.68 1.4.79 1.23 3.82c.18.58.8.89 1.36.71.58-.19.89-.79.7-1.35l-.51-1.57 3.81 2.17 1.11 4.1c.16.57.76.92 1.33.76l4.82-1.3c.27-.08.51-.26.65-.51.14-.24.18-.55.1-.82l-1.3-4.81c-.07-.28-.26-.52-.51-.66-.25-.14-.54-.18-.82-.1l-4.65 1.26-4.23-2.4 2.36-.77c.57-.18.88-.79.7-1.37-.18-.56-.8-.87-1.36-.69l-4.09 1.3c-.05.03-.1.05-.14.07l-1.51-.86 2.24-.71c.58-.19.89-.8.7-1.37-.18-.57-.8-.87-1.37-.7l-4.1 1.32c0 0-.02.01-.03.01l-.17-.11c-.75-1.3-1.72-2.97-2.41-4.17l11.92-.03-1.71 1.72c-.42.42-.41 1.1 0 1.52.43.43 1.11.43 1.53 0l3.03-3.04c.37-.38.41-.96.13-1.38-.02-.27-.12-.52-.32-.73l-3.04-3.04c-.43-.4-1.11-.4-1.54.02-.42.43-.42 1.11.01 1.54l1.24 1.22-11.6.03c.69-1.2 1.95-3.37 2.85-4.93l.21-.11c.07.03.15.06.22.07l4.18 1.03c.58.14 1.18-.21 1.31-.8.14-.59-.21-1.16-.79-1.31l-2.27-.55 1.4-.81c.11.07.24.13.37.17l4.19 1.02c.58.14 1.17-.21 1.31-.79.14-.58-.22-1.17-.8-1.31l-2.49-.62 4.02-2.35 4.12 1.31c.58.19 1.19-.13 1.37-.69l1.52-4.75c.09-.26.06-.56-.07-.82-.14-.25-.36-.44-.63-.54l-4.74-1.52c-.57-.18-1.18.14-1.36.71l-1.46 4.53-3.47 2.02.39-1.56c.14-.58-.22-1.18-.8-1.33-.59-.13-1.18.22-1.31.8l-.89 3.61-1.64.96.44-1.77c.14-.59-.21-1.17-.79-1.31-.58-.15-1.18.2-1.31.79l-.93 3.83-.43.26c-1.67-.01-3.89-.01-5.29-.02l5.8-10.12.6 2.01c.17.58.77.91 1.35.74.58-.17.9-.78.73-1.36l-1.22-4.12c-.08-.28-.27-.49-.5-.62-.24-.45-.76-.69-1.27-.54l-4.12 1.23c-.58.17-.9.77-.73 1.35.17.56.77.89 1.34.71l1.99-.59-5.83 10.17c-.7-1.21-1.79-3.1-2.6-4.51l3.04-3.02c.43-.42.43-1.1.01-1.52-.43-.43-1.1-.43-1.53-.02l-1.58 1.56v-2.67c0 0 3.01-2.97 3.01-2.97.43-.42.43-1.1.01-1.53-.43-.43-1.11-.43-1.53-.03l-1.52 1.52-.03-3.86 3.3-3.33c.43-.42.43-1.11 0-1.53l-3.54-3.5c-.42-.42-1.11-.42-1.53 0l-3.5 3.53c-.21.21-.32.48-.32.78 0 .28.11.57.32.75l3.12 3.1.02 3.77-1.43-1.45c-.42-.42-1.1-.43-1.53 0-.43.41-.43 1.1-.01 1.53l2.99 3.03.02 2.45-1.37-1.38c-.42-.42-1.1-.43-1.53-.02-.42.42-.42 1.11 0 1.54l2.92 2.96v.25c-.82 1.44-1.93 3.37-2.65 4.57l-5.82-10.01 1.76.43c.58.13 1.17-.22 1.31-.81.13-.58-.22-1.16-.8-1.31l-4.18-.98c-.28-.07-.56-.01-.79.11-.51-.02-.98.33-1.1.83l-1 4.19c-.14.58.22 1.16.8 1.31.59.13 1.17-.23 1.3-.81l.55-2.32 6.08 10.44h-5.41l-.17-.09c0 0 0-.06-.02-.1l-1.16-4.15c-.16-.56-.76-.89-1.34-.74-.58.17-.92.77-.75 1.34l.59 2.13-1.56-.89c0 0 0-.05-.01-.09l-1.16-4.13c-.16-.57-.76-.92-1.34-.75-.58.16-.91.75-.75 1.34l.59 2.11-4.04-2.31-1.1-4.04c-.08-.28-.27-.52-.51-.67-.25-.13-.55-.16-.82-.09l-4.81 1.3c-.58.16-.92.74-.76 1.32l1.3 4.82ZM15.29 56.07c-.92-.29-1.78-.57-2.69-.86.29-.91.57-1.77.86-2.69.91.31 1.76.58 2.69.87-.31.91-.58 1.77-.86 2.68ZM67.04 52.47c.25.93.49 1.79.74 2.72-.92.25-1.8.48-2.72.73-.25-.92-.48-1.79-.74-2.71.92-.25 1.79-.5 2.72-.74ZM64.77 22.84c.91.29 1.76.57 2.68.86-.29.92-.56 1.77-.86 2.69-.91-.29-1.76-.57-2.67-.85.29-.92.57-1.77.86-2.69ZM36.84 44.87c0 0-2.13 0-4.12 0l1.91-1.13c1.17 0 2.76.01 3.26.01.18.31.64 1.12 1.11 1.94l.02 2.98c-1.03-1.78-2.18-3.79-2.18-3.79ZM42.17 70c-.67.69-1.31 1.33-1.99 2-.67-.67-1.32-1.31-1.99-1.98.67-.69 1.31-1.33 1.98-1.99.68.67 1.32 1.3 2 1.98ZM43.05 44.89c0 0-.93 1.61-1.87 3.22v-2.05c.52-.92 1.1-1.94 1.31-2.3h2.68l1.98 1.13h-4.1ZM48.17 42.97l-2.27-1.27c-.46-.81-.92-1.61-1.1-1.93.24-.4.98-1.68 1.56-2.68l1.82-1.07c-.97 1.68-2.02 3.48-2.02 3.48 0 0 1.03 1.78 2 3.47ZM43.06 34.12c0 0 2.1 0 4.07 0l-2.84 1.65h-1.79c-.22-.38-.87-1.52-1.42-2.47l-.02-2.69c.97 1.71 1.99 3.5 1.99 3.5ZM41.25 37.95c0 0 1.38 0 2.1 0-.36.63-1.05 1.82-1.05 1.82 0 0 .69 1.18 1.04 1.82h-2.1c0 0-.69 1.19-1.04 1.82-.37-.62-1.05-1.83-1.05-1.83h-2.1c.37-.63 1.05-1.81 1.05-1.81 0 0-.68-1.2-1.04-1.83h2.1c0 0 .68-1.18 1.05-1.82.37.63 1.05 1.82 1.05 1.82ZM37.98 9.72c.68-.68 1.31-1.32 1.98-1.99.69.67 1.33 1.31 2.01 1.98-.67.68-1.3 1.31-1.98 2.01-.68-.69-1.33-1.32-2.01-2ZM36.86 34.11c0 0 1.06-1.83 2.04-3.53l.02 3.44c-.44.75-.85 1.46-1.03 1.75-.36 0-1.29 0-2.21 0l-2.94-1.67c1.99 0 4.12.01 4.12.01ZM31.75 36.02l2.53 1.44c.52.91 1.11 1.93 1.31 2.3-.14.25-.45.78-.8 1.38l-3.05 1.78c.97-1.68 1.99-3.45 1.99-3.45 0 0-1.01-1.77-1.99-3.45ZM14.92 23.16c.25.92.49 1.8.74 2.73-.92.25-1.79.48-2.73.73-.24-.92-.47-1.8-.73-2.72.92-.25 1.79-.49 2.72-.74Z"/>
</svg>