<svg xmlns="http://www.w3.org/2000/svg" viewBox="0 0 80 80">
<path d="M11.96 38.17c0 16.91 13.7 30.61 30.61 30.61 10.99 0 20.63-5.8 26.03-14.5-2.93.93-6.04 1.44-9.28 1.44-16.9 0-30.61-13.7-30.61-30.61 0-5.91 1.68-11.43 4.58-16.11-12.37 3.93-21.33 15.5-21.33 29.17ZM42.46 25.58c-1.09 4.83-1.97 5.71-6.8 6.8 4.83 1.09 5.71 1.97 6.8 6.8 1.09-4.83 1.97-5.71 6.8-6.8-4.83-1.09-5.71-1.97-6.8-6.8ZM54.11 39.95c4.83 1.09 5.71 1.97 6.8 6.8 1.09-4.83 1.97-5.71 6.8-6.8-4.83-1.09-5.71-1.97-6.8-6.8-1.09 4.83-1.97 5.71-6.8 6.8ZM54.2 12.4c-1.09 4.83-1.97 5.71-6.8 6.8 4.83 1.09 5.71 1.97 6.8 6.8 1.09-4.83 1.97-5.71 6.8-6.8-4.83-1.09-5.71-1.97-6.8-6.8Z"/>
</svg>