<svg width="14" height="14" viewBox="0 0 14 14" fill="none" xmlns="http://www.w3.org/2000/svg">
<path fill-rule="evenodd" clip-rule="evenodd" d="M6.02147 5.08217L4.06066 7.04298L6.14468 9.127C6.63283 9.61515 7.42429 9.61515 7.91244 9.127L8.98937 8.05007L6.02147 5.08217ZM13.7345 5.37949C13.7004 5.44405 13.6561 5.50468 13.6017 5.55903L8.9731 10.1877C7.89916 11.2616 6.15796 11.2616 5.08402 10.1877L2.46967 7.57331C2.17678 7.28042 2.17678 6.80554 2.46967 6.51265L5.48708 3.49524C5.48842 3.49388 5.48977 3.49252 5.49112 3.49117L8.51254 0.469746C8.80544 0.176853 9.28031 0.176853 9.5732 0.469746L13.6018 4.49831C13.8403 4.73686 13.8846 5.09614 13.7345 5.37949Z" fill="black" fill-opacity="0.85"/>
<path fill-rule="evenodd" clip-rule="evenodd" d="M1.25 12.7966C1.25 12.3823 1.58579 12.0466 2 12.0466H12C12.4142 12.0466 12.75 12.3823 12.75 12.7966C12.75 13.2108 12.4142 13.5466 12 13.5466H2C1.58579 13.5466 1.25 13.2108 1.25 12.7966Z" fill="black" fill-opacity="0.85"/>
</svg>
