<svg xmlns="http://www.w3.org/2000/svg" viewBox="0 0 80 80">
<path d="M22.302 66.58C13.555 61.188 7.797 51.422 7.339 41.245 6.802 31.08 11.387 20.804 19.545 14.656c17.011-13.569 43.314-5.16 49.583 15.672.115.328.58.184.502-.15-1.481-5.011-4.148-9.645-7.769-13.423C46.259.403 18.291 5.292 9.136 25.964 2.249 40.569 8.059 58.984 22.03 67.028 22.312 67.219 22.599 66.734 22.302 66.58zM75.148 37.04c-.047-.084-.136-.14-.236-.127-.097.007-.181.069-.215.16-.004.01-.396 1.024-1.012 1.479-.805.592-.727 1.328-.54 1.719-.296.918-.625 1.711-.968 2.415-.088-.693-.203-1.39-.331-2.103-.12-.667-.238-1.341-.331-2.028.738-1.047 1.344-2.177 1.746-3.287.312-.207.762-.588.933-1.145.191-.622-.409-.424-.54-.507-.102-.065-.273-.464-.621-.123-.284.279-.254.963-.19 1.444-.329.956-.816 1.931-1.417 2.858-.152-1.561-.097-3.209.47-5.023.49-.536 1.241-1.541.372-1.901-.815-.338-.856.794-.796 1.573-.725 2.201-.709 4.142-.476 5.977-.429.592-.896 1.157-1.402 1.666-1.884 1.899-2.163 4.253-2.204 4.852-.548.277-1.205.669-1.894 1.195-.07-.453-.171-1.315.021-1.677.276-.521 1.421-1.035 1.574-1.583.002-.003.006-.001.008-.004 1.914-2.703 2.314-6.001 2.354-6.368.054-.509-.064-.949-.328-1.234.11-.304.131-.785-.287-1.248-.366-.405-.915-.448-1.443-.361-.371-.677-1.24-.591-1.834-.527-.219.024-.426.049-.57.033-.214-.02-.372-.076-.539-.136-.287-.103-.612-.22-1.189-.121-.787.132-1.454.975-1.661 1.262-.501-.074-1.167.003-1.888.58-.444.354-.692.847-.737 1.461-.116 1.592 1.167 3.524 1.623 4.012 1.329 1.422 1.861 2.732 1.867 2.746.01.026.032.04.049.06.262.442.951.959 1.324 1.209.781.523.967 1.837 1.012 2.429-1.229 1.084-2.456 2.623-3.227 4.763-.154-.035-.305-.073-.441-.121-.828-.288-1.87-.501-3.327.117-.923.391-1.528 1.192-1.842 1.705-.331-.675-.843-1.186-1.55-1.5-1.156-.514-1.861-.524-2.608-.535-.689-.011-1.401-.021-2.593-.433-.092-.03-.195-.007-.263.063-.043.046-1.062 1.132-1.012 2.941.042 1.521.815 3.066 2.302 4.601-.204-.007-.415-.009-.631-.002-2.61.081-4.191.719-4.697 1.895-.413.957-.041 1.601.258 2.118.104.181.202.351.262.52.045.128.081.326.122.557.058.321.133.717.269 1.103-2.362-.14-4.416.858-5.986 2.051-.592-.221-1.702-.735-1.985-1.58-.145-.432-.47-1.247-.833-1.608-.013-.016-.013-.038-.03-.051-.011-.008-1.132-.86-2.158-2.523-.35-.567-1.877-2.313-3.443-2.621-.604-.117-1.145-.008-1.604.327-.745.544-.995 1.165-1.055 1.668-.331.124-1.32.547-1.655 1.272-.246.53-.219.875-.196 1.179.014.177.027.344-.01.557-.025.143-.102.337-.183.542-.219.557-.53 1.372.027 1.907-.223.487-.325 1.028-.031 1.488.336.525.808.636 1.128.604.205.33.599.561 1.104.643.173.027 1.004.15 2.163.15 1.283 0 2.966-.15 4.6-.747.003-.001.003-.005.006-.006.569-.004 1.366-.973 1.941-1.102.389-.087 1.16.216 1.587.406-.385.329-.736.66-1.044.977-.476.034-3.334.316-5.721 2.302-.15.125-.293.221-.438.325-2.619-1.138-5.321-2.3-8.091-1.115-.764-.077-2.14-.104-1.77.783.323.772 1.152.261 1.708-.207 2.561-1.235 5.145-.217 7.653.868-1.486.87-2.705.717-3.886.552-.252-.035-.497-.067-.739-.09-.398-.266-.955-.564-1.314-.442-.462.156-.183.489-.171.609.015.153-.432.6.209.71.61.104 1.179-.159 1.496-.349.149.019.296.035.45.057.484.067.99.139 1.526.139.896 0 1.88-.206 2.992-.942 1.084.47 2.189.933 3.291 1.21-.715.231-1.523.395-2.436.435-.339-.267-1.047-.507-1.801.16-.571.503-1.648.675-1.659.677-.096.015-.174.084-.202.177-.027.094.002.193.074.258.338.298.999.674 1.734.674.398 0 .818-.11 1.221-.402.443-.321.649-.786.735-1.047 1.287-.067 2.373-.358 3.283-.744.169.023.338.045.507.056.237.016.468.023.696.023 3.689 0 6.097-1.895 6.459-2.198.242.058.482.116.718.174.563.139 1.105.271 1.62.376.36.073.708.105 1.042.105 1.826 0 3.201-.95 3.703-1.352.51.722 1.205 1.178 1.951 1.238.119.01.238.015.357.015.986 0 1.972-.333 2.735-1.039.267 1.688 1.822 3.034 1.896 3.097.017.014.04.012.059.021.014.007.021.024.037.028.022.006.044.009.065.009l0 0 0 0 0 0c0 0 0 0 0 0 .019 0 .039-.002.058-.007.011-.003.014-.017.025-.021.054-.02.094-.055.124-.106.005-.009.02-.01.023-.02.226-.539.585-1.031.933-1.508.548-.75 1.114-1.525 1.153-2.495.041-1.022-.232-2.112-.424-2.745.571.229 1.141.385 1.645.385 1.978 0 3.105-.398 3.395-2.499.095-.688.222-1.106.314-1.413.183-.601.239-.875-.19-1.626-.118-.207-.324-.424-.566-.638.966-.539 3.739-2.334 3.739-5.224 0-.843-.049-1.676-.1-2.558-.023-.398-.045-.799-.063-1.202.587-.257 3.352-1.665 3.937-5.604.113-.759.109-1.5.058-2.24.475-.868.933-1.896 1.335-3.135.271-.027.777-.129 1.189-.498C75.846 39.039 75.486 37.645 75.148 37.04zM68.954 36.45c-.015.137-.375 3.302-2.117 5.908-.383-.074-.995.625-1.364.447-.31-.15-.355-.749-.513-1.077.169-1.097.112-2.12-.037-2.987.045-.03.084-.071.102-.126.009-.025.869-2.561 2.396-3.065.562-.187.989-.194 1.24-.022.004.003.008.006.013.009.002.002.004.003.006.004.006.005.012.01.018.015C68.991 35.79 68.974 36.259 68.954 36.45zM67.805 34.118c.273 0 .508.068.661.238.223.246.245.472.219.627-.366-.13-.842-.1-1.419.092-.932.308-1.626 1.203-2.079 1.995.163-1.037.476-2.186 1.03-2.476C66.71 34.336 67.319 34.118 67.805 34.118zM63.343 33.4c.448-.074.665.002.938.1.18.064.384.138.661.163.194.017.425-.007.67-.034.589-.065 1.016-.077 1.25.155-.379.12-.705.276-.878.367-.783.409-1.143 1.816-1.308 2.932.024-.633.141-1.704.598-2.867.05-.129-.013-.274-.142-.324-.128-.051-.273.013-.324.141-.252.644-.407 1.257-.501 1.792-.119-.411-.27-.83-.46-1.187-.064-.121-.217-.166-.338-.103-.122.065-.168.217-.103.339.174.325.31.716.42 1.102-.108-.094-.23-.179-.366-.257-.001-.006.003-.011.001-.017-.207-.613-.729-1.125-1.352-1.378C62.382 33.98 62.867 33.481 63.343 33.4zM59.472 36.248c.035-.478.215-.839.551-1.107.709-.566 1.336-.545 1.739-.427.433.127.762.408.982.71-.014-.003-.025-.01-.039-.013-.688-.164-1.368-.061-1.915.293-.884.57-.39 2.631.101 4.091C60.396 39.215 59.38 37.52 59.472 36.248zM63.982 42.749c-.29.114-.784-.479-1.246-.373-.164-.324-.438-.811-.861-1.39-.745-1.76-1.488-4.427-.815-4.862.432-.278.975-.359 1.528-.227.584.14 1.005.469 1.148.715.256.439 1.11 2.562.729 5.034C64.245 41.947 64.232 42.65 63.982 42.749zM30.124 58.858c.347-.254.744-.334 1.213-.24 1.252.245 2.622 1.674 3.051 2.303-1.28-.859-3.14-1.879-3.922-1.175-.485.435-.763 1.063-.786 1.771 0 .014.002.028.002.042-.233-.292-.418-.684-.427-1.135C29.247 60.005 29.391 59.393 30.124 58.858zM27.196 63.853c.09-.229.175-.445.209-.639.048-.274.031-.49.017-.681-.022-.29-.04-.519.151-.932.202-.436.812-.774 1.214-.947.08.668.438 1.307.974 1.667.005.004.012 0 .017.003.04.152.09.292.152.422-.344-.208-.685-.442-.954-.696-.1-.096-.258-.09-.354.01-.095.101-.09.259.011.354.294.277.658.534 1.023.756-.541-.05-1.174-.062-1.86.013-.137.016-.236.139-.222.276.015.137.141.238.275.222 1.25-.136 2.316.035 2.932.178-1.122-.135-2.579-.158-3.181.49-.133.143-.369.416-.585.75C26.855 64.813 26.979 64.405 27.196 63.853zM27.694 67.173c-.157-.016-.368-.097-.547-.376-.342-.535.229-1.47.821-2.107.283-.305.905-.407 1.597-.407.348 0 .713.025 1.062.064-.884.229-1.93.663-2.472 1.481C27.82 66.335 27.665 66.785 27.694 67.173zM35.296 67.331c-2.971.993-6.121.51-6.258.488-.189-.03-.646-.139-.797-.482-.126-.289-.012-.716.332-1.233.888-1.338 3.561-1.504 3.588-1.505.057-.004.107-.03.148-.066.797.372 1.768.696 2.872.821.275.24.841.44.904.779C36.16 66.536 35.326 66.942 35.296 67.331zM36.423 64.679c-.16.215-.842.043-1.19.178-2.486-.283-4.31-1.665-4.666-2.029-.199-.203-.406-.695-.387-1.296.018-.569.238-1.071.62-1.415.597-.534 2.974.883 4.477 2.065.447.56.845.953 1.114 1.197C36.168 63.797 36.61 64.429 36.423 64.679zM32.046 73.975c-.7.507-1.425.295-1.877.059.409-.118.95-.325 1.332-.662.505-.445.908-.302 1.096-.187C32.531 73.38 32.375 73.735 32.046 73.975zM69.947 40.439c.404-.407.787-.848 1.146-1.309.08.519.169 1.033.261 1.542.172.96.33 1.89.404 2.816-1.273 2.263-2.644 3.288-3.311 3.68.135-.815.337-1.644.66-2.491.008-.02.003-.042.006-.063.001-.015.005-.027.004-.042-.004-.055-.02-.109-.059-.152-.002-.002-.004-.002-.006-.004-.001-.001 0-.003-.001-.004-.004-.004-.011-.002-.016-.006-.039-.034-.085-.051-.137-.057-.017-.002-.03-.002-.047-.001-.015.001-.03-.004-.044-.001-.013.004-.354.103-.888.34C68.024 43.869 68.426 41.973 69.947 40.439zM67.961 45.215c-.826.958-2.126 2.653-2.798 4.469-.156-.328-.311-.852-.211-1.602.018-.137-.078-.263-.215-.281-.139-.01-.262.078-.281.215-.169 1.271.299 2.037.502 2.304-.144.521-.234 1.046-.229 1.561.008.732-.062 1.396-.175 2.009-.291-.377-.703-1.05-.945-2.008-.001-.009-.002-.023-.002-.027 0-.007-.007-.01-.008-.017-.072-.296-.133-.61-.162-.959-.011-.138-.135-.249-.27-.229-.138.011-.24.132-.229.27.02.246.059.472.101.694-.234-.014-.566-.041-.921-.093C63.519 47.718 66.433 45.921 67.961 45.215zM63.236 57.214c-.125-.158-.303-.417-.52-.809.6-.993.819-2.181.888-3.095.315.621.647 1.022.817 1.201C64.136 55.63 63.691 56.529 63.236 57.214zM61.636 58.964c-.014.01-.014.028-.026.039-.404-.082-.816-.141-1.238-.146.537-.396 1.267-1.029 2.028-1.989.225.383.41.628.534.773C62.26 58.529 61.65 58.954 61.636 58.964zM58.048 51.888c1.297-.549 2.193-.377 2.967-.105.21.073.443.127.68.173 0 0 0 .001.001.001 0 0 .001 0 .002 0 .552.106 1.117.15 1.424.165.03.71.03 2.992-1.112 4.434-1.31 1.652-2.541 2.307-2.679 2.377-1.464.234-2.7.609-3.451.869.311-.35.72-.892 1.001-1.59.052-.128-.011-.274-.139-.325-.127-.053-.273.011-.325.138-.245.608-.604 1.091-.882 1.411.5-1.302 1.262-3.795.712-5.703C56.392 53.442 57.005 52.329 58.048 51.888zM48.485 53.667c-.039-1.281.539-2.168.775-2.476 1.172.383 1.92.395 2.584.404.725.012 1.351.021 2.414.493.689.306 1.172.822 1.437 1.535.649 1.75-.119 4.276-.617 5.593-.158-.751-.484-1.289-.502-1.319-.072-.118-.226-.156-.344-.082-.117.072-.154.227-.082.344.005.008.396.656.491 1.486-.003.001-.005.003-.007.005-.626-.428-1.848-1.102-3.572-1.318C49.398 56.758 48.531 55.188 48.485 53.667zM45.418 60.359c.417-.968 1.888-1.519 4.254-1.592.091-.003.18-.004.269-.004 2.048 0 3.521.736 4.271 1.216-.421-.004-1.158.042-1.927.352-.128.051-.19.197-.139.325.039.098.133.156.232.156.031 0 .063-.006.093-.019.756-.304 1.501-.324 1.844-.313.02.074.047.142.086.206-.832.734-2.612 2.354-3.263 3.348-.088.134-.178.257-.271.371-.007.007-.013.015-.019.022-.721.871-1.621 1.152-3.14 1.032-1.241-.1-1.458-1.31-1.617-2.192-.045-.252-.084-.469-.143-.635-.075-.213-.189-.411-.301-.604C45.369 61.545 45.104 61.086 45.418 60.359zM49.527 66.537c-.15-.125-.432-.349-.782-.574.702-.049 1.28-.216 1.765-.543-.067.26-.096.517-.131.774C50.242 66.256 49.947 66.384 49.527 66.537zM46.096 64.967c.286.499.747.898 1.513.98 0 0 0 0 .001 0 .49.164 1.017.525 1.353.781-.845.267-1.974.53-3.196.582-.187-.4-.805-1.279-2.75-1.722-.134-.027-.269.054-.299.188-.031.135.054.269.188.3 1.461.332 2.062.917 2.301 1.265-.851.035-1.63.11-2.344.214-.231-.177-.877-.534-2.439-.636-.145-.021-.257.096-.266.232-.009.138.095.257.233.266.773.051 1.283.167 1.623.28-1.866.356-3.209.896-4.082 1.354C39.377 67.401 42.398 64.62 46.096 64.967zM40.457 69.283c.021.044.054.078.092.102-.771-.047-1.557-.021-2.355.106.785-.407 1.962-.89 3.578-1.233-.33.22-.731.465-1.199.691C40.449 69.009 40.397 69.158 40.457 69.283zM32.59 70.849c.074-.057.146-.108.221-.17 1.77-1.472 3.859-1.96 4.875-2.118-.652.738-1.039 1.304-1.088 1.377-.019.029-.021.063-.027.096-.002.014-.011.024-.011.038-.001.055.013.11.048.156.002.003.007.004.009.007.002.003.001.006.003.009.007.008.018.005.026.012.039.035.083.055.135.06.009.001.016.011.025.011.011 0 .021-.01.032-.012.016-.002.031.005.047-.001.792-.264 1.579-.387 2.356-.429-.455.537-1.418 1.489-2.938 2.172C35.091 71.87 33.864 71.397 32.59 70.849zM37.251 72.154c1.55-.869 2.4-1.945 2.648-2.293 1.199.01 2.365.213 3.48.462C42.529 70.92 40.292 72.235 37.251 72.154zM46.458 70.528c-.509-.104-1.044-.234-1.601-.371-1.282-.314-2.656-.642-4.086-.754.006-.002.014-.001.02-.005 1.089-.527 1.87-1.151 2.093-1.337.708-.107 1.485-.183 2.332-.219-.207.352-.701.935-1.838 1.426-.127.055-.186.202-.131.328.041.095.133.151.229.151.033 0 .067-.007.1-.021 1.574-.679 2.064-1.541 2.21-1.917 1.34-.057 2.551-.349 3.437-.637-.077.536-.534 1.663-2.899 2.514-.13.047-.197.19-.15.32.036.102.132.165.235.165.028 0 .057-.005.084-.015 2.93-1.055 3.237-2.595 3.244-3.162.239-.088.426-.164.581-.23-.044.941.137 1.822.529 2.569C50.381 69.713 48.633 70.969 46.458 70.528zM53.093 70.512c-.649-.052-1.271-.483-1.703-1.185-.749-1.214-.794-2.938-.122-4.62.099-.123.195-.256.288-.398.591-.9 2.25-2.424 3.099-3.177-.083.394-.187 1.073-.151 1.888.006.134.116.239.249.239.004 0 .008 0 .011 0 .138-.006.245-.123.239-.261-.034-.792.075-1.451.152-1.806.668 1.102 2.045 3.659 1.848 5.762C56.753 69.607 54.859 70.647 53.093 70.512zM57.403 65.333c.22.42.391.857.524 1.301l-.467.59c.01-.077.032-.143.04-.223C57.551 66.458 57.508 65.894 57.403 65.333zM56.603 69.491c.236-.312.421-.691.574-1.107.002-.002.005-.002.007-.004l.9-1.138c.142.639.216 1.276.24 1.883-.992.621-1.278 1.429-1.29 1.465-.043.13.027.271.158.314.026.009.053.013.079.013.104 0 .202-.065.237-.169.002-.007.194-.544.826-1.03-.009 1.174-.17 2.157-.278 2.686C57.549 71.885 56.595 70.74 56.603 69.491zM60.02 68.965c-.033.817-.53 1.499-1.057 2.22-.083.114-.165.232-.248.349.07-.512.126-1.13.132-1.812.087.1.18.242.265.449.052.127.197.19.326.137.127-.052.189-.198.137-.326-.229-.559-.534-.797-.737-.9-.023-.561-.088-1.148-.208-1.741.306.272.658.631.858 1.002.045.084.131.132.221.132.04 0 .08-.01.118-.03.121-.064.167-.217.102-.338-.393-.73-1.248-1.394-1.501-1.581-.155-.518-.354-1.031-.625-1.522.481.317 1.069.667 1.679.963C59.607 66.325 60.07 67.734 60.02 68.965zM64.972 62.567c-.098.321-.231.763-.331 1.489-.246 1.78-1.056 2.067-2.9 2.067-.578 0-1.272-.237-1.952-.561-.002-.001-.003-.002-.006-.003-1.299-.62-2.538-1.552-2.805-1.757-.442-1.234-1.049-2.314-1.425-2.925.022-.019.047-.033.067-.054.438.024 1.211.111 1.638.45.046.036.101.054.155.054.073 0 .146-.032.196-.095.086-.108.068-.266-.041-.352-.463-.366-1.194-.495-1.707-.541.707-.254 2.021-.675 3.591-.922 2.279-.36 4.791.896 5.374 1.916C65.166 61.928 65.129 62.051 64.972 62.567zM64.267 60.11c-.55-.385-1.252-.736-2.047-.968.275-.23.699-.631 1.148-1.225.114.026.272.05.466.05.82 0 2.284-.43 3.758-2.973.069-.119.029-.272-.091-.341-.12-.072-.272-.029-.342.091-1.478 2.547-2.861 2.769-3.472 2.718.478-.725.939-1.669 1.231-2.85 1.342-.636 2.037-1.803 2.679-3.05.063-.122.016-.273-.107-.337-.123-.062-.273-.015-.337.108-.536 1.041-1.125 2.004-2.096 2.609.112-.631.179-1.314.171-2.067-.005-.445.07-.903.193-1.362.27-.092.816-.467 2.13-1.769.098-.098.099-.256.001-.354-.097-.099-.255-.099-.354-.002-.781.773-1.254 1.182-1.541 1.4.635-1.66 1.829-3.238 2.62-4.17-.702 2.492-.578 4.818-.446 7.075.051.875.1 1.7.1 2.528C67.933 58.03 64.885 59.783 64.267 60.11zM71.713 45.785c-.494 3.325-2.699 4.736-3.465 5.132-.034-1.023-.027-2.063.102-3.129.462-.211 1.976-1.046 3.453-3.382C71.804 44.865 71.781 45.323 71.713 45.785zM74.456 39.613c-.3.269-.682.348-.888.371-.074-.209-.127-.632.413-1.03.411-.303.727-.787.929-1.162C75.045 38.284 75.099 39.037 74.456 39.613z"/>
</svg>