<svg xmlns="http://www.w3.org/2000/svg" viewBox="0 0 80 80">
<path d="M76.831 49.435c.009-.029.021-.057.02-.088-.182-3.919-1.07-6.448-2.637-7.518-.876-.598-1.713-.555-2.107-.483-.586-1.435-1.051-2.09-1.314-2.382-.062-4.397-1.019-8.636-2.866-12.601-.087-.188-.31-.271-.499-.182-.188.087-.269.311-.181.498 1.863 4 2.808 8.282 2.808 12.73 0 .066-.007.131-.008.197l-.588.3c-.697-.184-4.465-.817-7.139 5.806-.006.016-.002.032-.006.048-.003.015-.005.027-.005.043 0 .058.011.115.049.161 0 0 0 .001 0 .001.044.052.107.073.17.08.009.001.014.011.023.011l0 0 0 0 0 0c.015 0 .031-.001.046-.004.106-.021 2.632-.507 4.842-1.917 1.649-1.053 2.31-3.702 2.337-3.814.001-.006.002-.012.003-.017l.244-.125c-.064 2.586-.453 5.099-1.131 7.502l-1.803 1.227c-.305-.075-1.106-.197-1.946.298-1.066.63-1.776 1.996-2.108 4.06-.004.026.003.051.007.076.001.01 0 .018.002.028.012.045.033.087.068.12.007.006.017.004.023.009.006.005.006.015.014.019.041.025.087.038.132.038l0 0c0 0 0 0 0 0 .02 0 .04-.002.06-.007.05-.013 1.249-.321 2.75-1.807 1.22-1.208 1.334-2.085 1.315-2.445l1.271-.864c-1.093 3.52-2.815 6.772-5.059 9.629-.207.124-1.039.587-2.349.936-.007-.001-.597-.152-1.205-1.122.296-.107.5-.427.566-.897.09-.638-.079-1.661-.632-1.924-.166-.08-.504-.148-.896.273-.499.537-.694 1.056-.582 1.541.146.628.771.972 1.004 1.08.358.626.728.994 1.027 1.217-.829.167-1.804.27-2.897.231.036-.657.013-2.39-1.143-3.373.057-.632-.005-3.001-3.732-4.792-.011-.005-.022-.003-.033-.007-.012-.004-.021-.005-.033-.007-.055-.01-.11-.005-.16.023-.003.002-.006 0-.009.001-.001 0-.001.002-.001.002-.002.001-.004.001-.005.002-.049.031-.078.08-.096.133-.004.013-.007.023-.009.037-.002.015-.011.028-.011.043 0 .049.083 4.882 3.701 4.891 1.038.814 1.062 2.419 1.033 3.014-.729-.054-1.501-.166-2.32-.372-.007-.007-.018-.016-.026-.025.007-.035.01-.071.001-.108-.229-.926-.738-1.604-1.513-2.019-2.01-1.077-5.099.021-5.229.067-.027.01-.047.031-.069.049-.009.007-.019.01-.026.019-.034.036-.06.08-.067.132-.001.008.003.015.003.023 0 .005-.006.008-.006.013 0 .01.009.015.01.025.005.048.022.089.052.126.009.011.014.022.024.031.006.005.008.013.014.018 3.548 2.639 6.242 2.231 6.703 2.132 1.254.317 2.411.44 3.45.44.61 0 1.164-.052 1.69-.123-.25.279-.787.691-1.977 1.108-.339-.072-1.58-.289-2.229.224-.257.202-.393.499-.393.856 0 .396.193.687.545.817.139.053.298.076.466.076.658 0 1.463-.36 1.831-.785.303-.35.237-.64.161-.794 1.645-.616 2.12-1.265 2.257-1.596.999-.188 1.796-.465 2.376-.713-3.567 4.192-8.303 7.422-13.846 9.186-.456-.501-1.694-1.579-3.958-1.579-2.784 0-4.3.46-4.363.479-.01.003-.016.012-.025.016-.015.007-.024.014-.037.023-.042.029-.075.067-.093.116-.002.005-.008.007-.01.013-.001.002.001.004 0 .005-.001.003-.004.005-.004.008-.013.055-.001.108.021.158.006.013.013.022.021.034.01.015.015.034.028.047.033.032 2.495 2.342 5.408 2.342.953 0 1.952-.265 2.932-.919.03.007.055.028.086.028.037 0 .075-.006.112-.018 1.16-.365 2.272-.812 3.361-1.297l-.499 1.331c-.452.229-1.929 1.325-1.128 5.641.001.007.007.012.009.019.004.013.011.021.017.033.02.044.05.079.091.105.007.005.008.015.017.02.007.003.014.002.021.005.006.002.01.008.016.01.024.008.05.011.075.012v0c0 0 0 0 0 0l0 0 0 0c.058 0 .109-.026.154-.063.006-.005.014-.003.02-.008.035-.033.854-.837 1.412-1.936.74-1.457.666-2.741-.212-3.724l.65-1.735c2.405-1.138 4.626-2.551 6.615-4.215-.09.342-.144.733-.13 1.168-.019.016-.045.02-.059.042l-.965 1.546c-.301.037-1.009.198-1.534.884-.697.909-.797 2.359-.297 4.312.003.013.02.016.025.028.019.046.05.076.092.103.015.01.018.032.035.039.011.004.023.004.034.007.004.001.005.005.009.006.016.004.032.005.047.005 0 0 0 0 0 0l0 0 0 0c0 0 .001 0 .001 0 .047 0 .094-.013.134-.04.088-.057 2.145-1.429 2.099-5.037-.001-.089-.048-.165-.117-.209l.581-.93c.1.481.287 1.001.598 1.554-.131.13-.287.348-.371.692-.196.809.022 2.381 2.176 5.285.004.006.014.004.019.01.046.053.107.092.182.092 0 0 0 0 0 0l0 0 0 0c.007 0 .015 0 .021-.001.002 0 .002-.002.004-.002.009-.001.018-.001.026-.003.053-.011.096-.041.131-.079.008-.009.01-.02.017-.031.017-.025.037-.049.044-.08.032-.144.775-3.542-.413-5.213-.339-.478-.802-.771-1.377-.873-1.082-1.889-.599-3.307-.197-4.004 3.622-3.256 6.418-7.327 8.161-11.897.305 1.321.637 4.373-.846 9.457-.386.063-1.298.304-1.854 1.187-.663 1.052-.578 2.62.252 4.66.002.005.007.007.009.012.004.01.012.015.018.024.027.042.064.072.11.092.008.003.01.013.019.016.011.003.021.003.032.005.004.001.007.004.012.005.01.001.021.002.031.002.07 0 .129-.038.176-.089.007-.007.019-.005.025-.012.01-.014 1.035-1.401 1.936-2.552.88-1.124-.033-2.549-.352-2.982.01-.037.016-.06.018-.067 0 0 0 0 0-.001.43-1.451.714-2.736.898-3.875.177.416.433.952.81 1.608-.017.026-.029.057-.036.089-.54 2.821 1.726 5.274 1.822 5.377.004.005.012.003.016.007.046.043.102.072.167.072l0 0 0 0c0 0 0 0 0 0 .018 0 .037-.002.055-.006.003-.001.004-.004.007-.005.006-.002.012-.001.019-.003.052-.017.091-.053.121-.097.008-.012.009-.024.015-.037.013-.026.029-.05.032-.08.255-2.655-.034-4.37-.86-5.097-.322-.283-.65-.34-.851-.343-.853-1.459-1.121-2.363-1.17-2.542.12-1.031.152-1.914.131-2.659l2.629 1.694c-.131.3-.294.855-.013 1.365.346.626 1.233.945 2.639.947 0 0 0 0 0 0 0 0 0 0 0 0 .063 0 .121-.031.168-.077.006-.005.015-.003.021-.009.003-.004.001-.01.004-.013.005-.007.013-.01.018-.017.022-.035.017-.075.02-.114.002-.02.019-.036.016-.056-.007-.052-.194-1.271-1.03-1.892-.371-.276-.806-.39-1.299-.343 0-.001-.004-.007-.004-.007-.002-.004-.007-.004-.01-.007-.019-.028-.04-.056-.07-.076l-1.563-1.007.716-.297c.571.353 1.659.029 2.127-.479.311-.339.338-.746.073-1.09-.317-.412-.639-.463-.854-.43-.662.097-1.136 1.089-1.28 1.431l-1.292.536-1.044-.673c-.087-1.241-.314-2.012-.438-2.348 1.092-3.118 1.698-6.447 1.741-9.896.245.388.562.984.935 1.923.006.015.019.026.027.039.003.005 0 .012.004.017.001.002.017.023.03.042-.003.013-.005.026-.007.039-.37 4.468 4.484 7.573 4.691 7.703.041.025.087.038.133.038.03 0 .061-.006.091-.018.005-.002.006-.008.01-.01.008-.003.017-.002.025-.007.044-.026.075-.065.097-.109C76.828 49.456 76.827 49.446 76.831 49.435zM68.518 40.281c.152 0 .284.011.401.026-.958.772-3.449 2.782-5.717 4.641C65.097 40.92 67.316 40.281 68.518 40.281zM67.169 43.714c-1.265.807-2.66 1.302-3.594 1.575 2.161-1.77 4.502-3.661 5.528-4.488C68.822 41.616 68.206 43.052 67.169 43.714zM65.388 49.641c.405-.241.797-.306 1.099-.306 0 0 .001 0 .002 0-.596.458-1.631 1.358-2.68 2.761C64.16 50.898 64.695 50.055 65.388 49.641zM65.739 51.387c-.693.686-1.314 1.101-1.768 1.347 1.123-1.585 2.289-2.594 2.886-3.049C66.764 50.054 66.493 50.64 65.739 51.387zM59.866 57.413c-.057.01-.106.037-.142.076-.174-.083-.622-.333-.715-.733-.073-.313.082-.68.461-1.088.064-.068.175-.172.268-.172.016 0 .031.003.046.01.227.108.438.79.352 1.402C60.103 57.137 60.015 57.389 59.866 57.413zM56.007 55.517c-.556-.603-1.596-1.81-2.623-3.392C55.473 53.372 55.929 54.761 56.007 55.517zM53.026 52.495c.999 1.523 1.998 2.688 2.567 3.309C53.827 55.496 53.229 53.683 53.026 52.495zM53.061 57.281c.49.262.851.657 1.082 1.174-.775-.514-2.176-1.211-4.321-1.465C50.824 56.825 52.101 56.768 53.061 57.281zM49.01 57.422c2.734.169 4.375 1.098 5.09 1.618C53.225 59.089 51.353 58.94 49.01 57.422zM57.711 61.763c-.334.386-1.276.74-1.745.568-.154-.058-.219-.162-.219-.35 0-.208.064-.355.202-.464.213-.169.567-.222.92-.222.348 0 .694.052.899.096 0 .041.01.083.031.122C57.84 61.588 57.773 61.689 57.711 61.763zM52.002 69.581c.036.695-.006 2.25-.744 4.073C50.928 71.014 51.589 69.957 52.002 69.581zM52.019 73.013c.395-1.258.494-2.328.493-3.029C52.983 71.006 52.55 72.148 52.019 73.013zM57.475 67.074c.252-.332.558-.508.809-.601-.307.596-.817 1.723-1.229 3.306C56.9 68.595 57.03 67.662 57.475 67.074zM57.448 70.29c.418-1.755.986-3.014 1.299-3.621C58.663 68.556 57.967 69.701 57.448 70.29zM62.303 70.802c-.355-1.497-.93-3.024-1.229-3.771.264.115.5.275.682.53C62.336 68.378 62.381 69.735 62.303 70.802zM60.434 67.44c.032-.145.081-.249.131-.331.306.759 1.02 2.631 1.357 4.294C60.409 69.136 60.321 67.956 60.434 67.44zM48.525 68.36c-.895.038-3.077-.021-6.708-1.014.714-.122 1.812-.252 3.262-.252C46.94 67.094 48.033 67.884 48.525 68.36zM41.948 67.898c3.017.805 5.009.97 6.104.974C45.681 70.003 43.257 68.79 41.948 67.898zM70.437 58.875c.25.669.646 1.812 1.03 3.252C70.971 61.344 70.417 60.169 70.437 58.875zM71.849 61.631c-.413-1.484-.829-2.641-1.047-3.209.089.034.184.082.284.174C71.399 58.88 71.851 59.641 71.849 61.631zM72.567 55.483c-.129-.232-.102-.494-.043-.704.252.32.696.806 1.375 1.331C73.21 56.016 72.748 55.808 72.567 55.483zM74.341 55.822c-.594-.441-1.001-.857-1.268-1.168C73.779 54.745 74.151 55.338 74.341 55.822zM73.174 51.252c.121-.024.249.063.385.239.083.107.142.244-.045.446-.271.296-.853.499-1.24.465C72.467 51.931 72.854 51.298 73.174 51.252zM66.469 61.413c.359-.574.917-.809 1.283-.909-.226.836-.779 2.867-1.236 4.401C66.004 63.383 65.975 62.201 66.469 61.413zM68.276 62.995c-.375.479-.764.989-1.101 1.435.36-1.24.743-2.633.967-3.458C68.444 61.488 68.789 62.34 68.276 62.995zM73.943 42.25c.874.603 1.933 2.093 2.305 5.723-1.212-2.419-3.176-5.214-3.854-6.155C72.75 41.787 73.326 41.825 73.943 42.25zM72.263 42.497c.885 1.253 2.709 3.936 3.738 6.116C74.755 47.631 72.348 45.37 72.263 42.497zM39.432 12.587c-.006-.013-.013-.022-.021-.033-.01-.015-.015-.034-.029-.047-.044-.043-4.354-4.069-8.327-1.432-.068-.018-.14-.025-.211-.001-1.14.37-2.261.805-3.358 1.293l.496-1.325c.452-.229 1.929-1.325 1.128-5.642-.001-.007-.007-.012-.009-.019-.003-.013-.011-.021-.016-.033-.02-.044-.05-.079-.091-.105-.008-.005-.008-.015-.017-.02-.004-.002-.01.001-.015-.001-.008-.004-.014-.012-.022-.014-.048-.015-.098-.012-.145.001-.011.003-.017.01-.027.015-.027.012-.056.021-.078.043-.034.033-.854.837-1.411 1.936-.74 1.457-.666 2.741.212 3.724l-.651 1.74c-2.373 1.116-4.609 2.517-6.613 4.211.089-.338.142-.725.131-1.155.021-.017.043-.031.058-.055l.966-1.546c.3-.037 1.009-.198 1.534-.884.696-.909.796-2.36.296-4.312-.003-.013-.02-.016-.025-.028-.019-.046-.049-.076-.092-.103-.015-.01-.017-.032-.034-.039-.01-.004-.021-.002-.031-.004-.005-.001-.007-.007-.012-.008-.007-.001-.012.005-.02.004-.057-.007-.114-.001-.164.031l-.001.001c-.002.001-.004.003-.006.004-.118.077-2.138 1.451-2.092 5.031.001.089.048.166.118.21l-.582.93c-.1-.481-.287-1.002-.598-1.555.131-.13.288-.348.371-.692.196-.808-.021-2.381-2.176-5.285-.007-.009-.019-.012-.026-.02-.015-.016-.029-.025-.048-.036-.036-.022-.074-.032-.116-.034-.012 0-.02-.011-.032-.01-.005 0-.007.006-.012.006-.006.001-.012-.003-.018-.001-.053.011-.096.041-.131.079-.009.009-.01.021-.018.031-.017.025-.037.049-.043.079-.032.144-.775 3.542.412 5.213.34.478.803.771 1.377.873 1.053 1.838.624 3.233.23 3.949-3.707 3.204-6.476 7.315-8.221 11.828-.295-1.384-.562-4.406.875-9.333.385-.063 1.297-.304 1.854-1.187.664-1.052.579-2.619-.252-4.659-.002-.005-.007-.007-.009-.012-.004-.009-.012-.014-.018-.023-.027-.042-.065-.073-.111-.093-.008-.003-.011-.013-.02-.016-.005-.002-.011.003-.016.001-.01-.002-.017-.01-.027-.011-.047-.004-.094.006-.136.025-.012.006-.019.016-.03.023-.024.015-.049.028-.066.052-.011.014-1.035 1.4-1.937 2.551-.879 1.124.033 2.55.352 2.983-.01.036-.016.059-.018.066 0 0 0 0 0 .001-.431 1.451-.714 2.736-.898 3.875-.177-.416-.433-.952-.81-1.608.017-.025.029-.056.035-.088.54-2.822-1.726-5.275-1.822-5.378-.01-.011-.025-.013-.037-.022-.013-.01-.024-.016-.038-.023-.042-.022-.087-.029-.135-.024-.01.001-.019-.007-.029-.005-.004.001-.006.006-.01.007-.005.001-.01-.001-.015.001-.052.017-.092.053-.122.097-.008.011-.008.023-.015.036-.012.026-.029.05-.032.08-.255 2.655.034 4.37.86 5.097.323.283.65.34.851.343.854 1.46 1.122 2.364 1.17 2.543-.12 1.031-.151 1.914-.131 2.659l-2.629-1.693c.131-.301.294-.856.013-1.366-.346-.626-1.233-.945-2.639-.947 0 0 0 0-.001 0-.009 0-.015.01-.025.011-.04.004-.07.025-.104.047-.019.012-.045.01-.06.027-.005.005-.002.013-.006.019C5.033 23.44 5.024 23.44 5.02 23.446 4.998 23.481 5.004 23.521 5 23.56c-.001.02-.019.036-.016.056.008.052.194 1.271 1.03 1.892.371.276.808.391 1.299.343 0 .001.004.007.004.007.007.012.02.018.029.028.016.02.029.041.052.056l1.563 1.006-.716.297c-.571-.354-1.659-.029-2.127.479-.311.339-.338.746-.073 1.09.268.349.541.438.748.437.038 0 .073-.002.106-.007.662-.097 1.135-1.089 1.28-1.431l1.292-.536 1.044.673c.082 1.152.28 1.891.408 2.26-1.115 3.14-1.736 6.453-1.834 9.785-.225-.387-.5-.939-.812-1.724-.006-.016-.018-.026-.027-.04-.003-.005 0-.012-.004-.017-.001-.002-.017-.023-.03-.042.003-.013.005-.026.007-.04.37-4.467-4.484-7.573-4.691-7.703-.007-.004-.016-.003-.023-.007-.012-.006-.022-.006-.036-.01-.046-.015-.092-.016-.139-.003-.009.002-.018-.004-.027 0-.005.002-.006.008-.011.01-.007.004-.017.002-.024.006-.044.026-.075.065-.097.109-.005.01-.003.02-.007.03-.01.029-.022.057-.02.088C3.331 34.57 4.219 37.1 5.786 38.17c.876.599 1.714.557 2.107.483.499 1.223.909 1.875 1.184 2.225-.007 4.409.887 8.818 2.804 12.848.325.711 1.394.185 1.064-.495-1.963-4.044-2.854-8.494-2.799-12.936l.396-.201c.696.185 4.465.817 7.14-5.807.006-.016.002-.032.006-.048.003-.015.005-.027.005-.043 0-.058-.011-.115-.049-.161 0 0 0-.001 0-.001-.001-.001-.003-.001-.004-.002-.038-.043-.089-.066-.144-.076-.016-.003-.028-.004-.044-.004-.016 0-.031-.007-.047-.004-.106.021-2.632.507-4.842 1.918-1.649 1.053-2.31 3.702-2.337 3.813-.002.006-.003.012-.004.018l-.07.036c.078-2.552.461-5.095 1.161-7.552l1.601-1.089c.305.075 1.106.198 1.946-.298 1.066-.63 1.776-1.996 2.108-4.06.004-.026-.003-.051-.006-.076-.002-.01 0-.018-.002-.028-.012-.045-.033-.087-.069-.12-.008-.007-.019-.009-.027-.015-.005-.004-.004-.01-.01-.014-.007-.004-.015 0-.022-.004-.053-.027-.111-.041-.17-.028-.05.013-1.249.321-2.75 1.808-1.22 1.207-1.334 2.084-1.316 2.444l-1.029.7c1.083-3.457 2.76-6.724 5.01-9.573.356-.192 1.096-.546 2.156-.828.007.001.597.152 1.205 1.122-.296.107-.5.427-.566.897-.09.638.079 1.662.632 1.925.064.03.154.06.262.06.173 0 .393-.073.633-.333.499-.538.695-1.057.582-1.542-.146-.628-.771-.971-1.004-1.079-.358-.626-.728-.995-1.027-1.218.83-.167 1.805-.27 2.898-.231-.036.657-.013 2.39 1.143 3.373-.057.632.005 3.002 3.733 4.792.034.017.071.024.108.024 0 0 0 0 0 0l0 0c.043 0 .087-.012.127-.035.001-.001 0-.002.001-.003.001-.001.003 0 .005-.001.049-.031.078-.08.096-.133.004-.013.007-.023.009-.037.003-.015.011-.028.011-.043 0-.049-.083-4.882-3.7-4.891-1.038-.814-1.062-2.418-1.033-3.014.729.054 1.501.166 2.319.372.008.007.018.017.027.025-.007.035-.011.072-.001.109.229.926.738 1.604 1.513 2.019.657.351 1.428.471 2.174.471 1.538-.001 2.968-.508 3.056-.539.028-.01.047-.031.069-.049.009-.007.019-.01.026-.018.034-.036.059-.08.066-.132.001-.008-.003-.015-.002-.023 0-.005.005-.008.005-.013 0-.01-.009-.015-.01-.025-.005-.048-.022-.089-.052-.126-.009-.011-.014-.022-.024-.031-.006-.005-.008-.013-.014-.018-3.548-2.639-6.241-2.229-6.703-2.132-.941-.238-1.823-.36-2.646-.41-.001 0-.002-.002-.004-.002-.002 0-.003.002-.006.002-.905-.054-1.734-.014-2.475.084.254-.279.791-.686 1.968-1.099.339.073 1.58.29 2.23-.224.256-.202.392-.499.392-.856 0-.396-.193-.687-.544-.817-.686-.257-1.836.176-2.297.709-.303.35-.237.641-.161.794-1.649.618-2.123 1.27-2.258 1.6-.871.164-1.592.393-2.147.615.839-.974 1.728-1.909 2.703-2.763 3.113-2.88 6.904-4.973 10.915-6.328.457.501 1.695 1.578 3.958 1.578 2.784 0 4.3-.46 4.363-.479.018-.005.03-.02.045-.029.014-.008.027-.014.04-.025.03-.026.051-.057.066-.094.003-.008.012-.012.014-.02 0-.002-.001-.004 0-.005.001-.003.004-.005.004-.008C39.466 12.69 39.454 12.636 39.432 12.587zM27.999 10.419c-.035-.697.008-2.255.743-4.073C29.073 8.984 28.412 10.042 27.999 10.419zM27.981 6.987c-.395 1.257-.494 2.327-.493 3.029C27.017 8.994 27.451 7.852 27.981 6.987zM22.524 12.926c-.252.332-.557.508-.808.602.307-.596.816-1.724 1.228-3.305C23.099 11.406 22.97 12.339 22.524 12.926zM22.552 9.711c-.418 1.755-.986 3.015-1.299 3.621C21.337 11.445 22.033 10.3 22.552 9.711zM17.698 9.198c.355 1.497.93 3.024 1.229 3.771-.264-.115-.5-.274-.682-.529C17.664 11.622 17.619 10.264 17.698 9.198zM19.566 12.559c-.032.145-.081.249-.131.331-.306-.759-1.02-2.631-1.357-4.294C19.591 10.864 19.679 12.043 19.566 12.559zM9.562 21.125c-.25-.668-.645-1.809-1.029-3.248C9.03 18.661 9.582 19.835 9.562 21.125zM8.151 18.368c.413 1.484.828 2.641 1.047 3.209-.088-.034-.183-.082-.284-.173C8.601 21.12 8.149 20.359 8.151 18.368zM7.432 24.516c.129.232.103.495.043.705C7.224 24.901 6.78 24.415 6.1 23.889 6.79 23.983 7.252 24.191 7.432 24.516zM5.66 24.178c.594.442 1.002.859 1.269 1.17C6.221 25.259 5.849 24.663 5.66 24.178zM6.827 28.748c-.119.021-.25-.063-.385-.239-.082-.107-.142-.244.045-.446.254-.276.778-.468 1.163-.468.027 0 .053.001.078.003C7.533 28.069 7.146 28.702 6.827 28.748zM13.532 18.587c-.359.573-.918.81-1.283.909.226-.836.779-2.866 1.236-4.4C13.996 16.617 14.025 17.798 13.532 18.587zM11.723 17.005c.376-.479.765-.989 1.101-1.435-.36 1.24-.742 2.632-.966 3.458C11.557 18.51 11.213 17.657 11.723 17.005zM7.738 37.503c-.885-1.253-2.709-3.936-3.739-6.116C5.245 32.368 7.652 34.631 7.738 37.503zM6.068 37.757c-.879-.6-1.943-2.088-2.316-5.73 1.212 2.418 3.175 5.213 3.854 6.155C7.251 38.212 6.679 38.174 6.068 37.757zM11.079 39.694c.956-.77 3.445-2.779 5.712-4.637C14.657 39.586 12.117 39.826 11.079 39.694zM12.831 36.287c1.265-.808 2.66-1.303 3.594-1.576-2.161 1.77-4.503 3.662-5.529 4.489C11.177 38.386 11.794 36.949 12.831 36.287zM14.612 30.358c-.406.242-.79.299-1.092.299.597-.46 1.627-1.357 2.671-2.754C15.84 29.101 15.306 29.945 14.612 30.358zM14.262 28.614c.693-.687 1.313-1.101 1.767-1.348-1.123 1.585-2.288 2.594-2.885 3.049C13.237 29.946 13.507 29.36 14.262 28.614zM20.135 22.587c.057-.01.105-.037.142-.076.173.083.622.333.715.734.073.312-.083.679-.461 1.088-.075.08-.215.209-.314.162-.227-.108-.438-.791-.352-1.404C19.897 22.863 19.984 22.611 20.135 22.587zM23.993 24.483c.557.603 1.597 1.81 2.623 3.392C24.527 26.629 24.071 25.239 23.993 24.483zM26.973 27.504c-.999-1.523-1.997-2.687-2.566-3.309C26.173 24.505 26.771 26.317 26.973 27.504zM26.938 22.719c-.49-.262-.851-.657-1.082-1.175.775.514 2.176 1.212 4.322 1.465C29.175 23.175 27.896 23.231 26.938 22.719zM30.992 22.579c-2.735-.169-4.377-1.099-5.092-1.619C26.774 20.909 28.647 21.059 30.992 22.579zM22.289 18.237c.333-.384 1.275-.741 1.745-.568.153.058.219.162.219.35 0 .208-.064.355-.202.464-.424.336-1.407.214-1.82.126 0-.041-.01-.083-.03-.122C22.16 18.412 22.226 18.31 22.289 18.237zM38.052 12.102c-3.017-.805-5.006-.97-6.101-.975C34.322 9.999 36.744 11.211 38.052 12.102zM31.475 11.639c.895-.037 3.077.022 6.708 1.015-.714.122-1.812.252-3.262.252C33.06 12.906 31.967 12.115 31.475 11.639z"/>
</svg>