<svg xmlns="http://www.w3.org/2000/svg" viewBox="0 0 80 80">
<path d="M69.619 50.012c-6.094 21.328-32.302 29.794-49.76 16.13C11.626 59.883 6.937 49.414 7.605 39.119c.569-10.283 6.538-20.005 15.411-25.186.303-.156.557.254.272.448-8.56 5.28-14.192 14.838-14.639 24.796C7.461 60.547 28.373 76.766 48.771 70.245c9.516-2.934 17.397-10.766 20.345-20.383C69.194 49.536 69.728 49.683 69.619 50.012L69.619 50.012zM60.417 10.218l-.595 6.948c-.072.836-.735 1.499-1.571 1.569l-6.97.589c-.289.039-.289.456 0 .495l6.948.595c.836.072 1.499.735 1.569 1.571l.589 6.97c.039.289.456.289.495 0l.595-6.948c.072-.836.735-1.499 1.571-1.569l6.97-.589c.289-.039.289-.456 0-.495l-6.948-.595c-.836-.072-1.499-.735-1.569-1.571l-.589-6.97C60.873 9.93 60.456 9.93 60.417 10.218zM50.485 4.884 50.13 9.021c-.043.498-.438.892-.935.934l-4.15.351c-.172.023-.172.272 0 .295l4.137.354c.498.043.892.438.934.935l.351 4.15c.023.172.272.172.295 0l.354-4.137c.043-.498.438-.892.935-.934l4.15-.351c.172-.023.172-.272 0-.295L52.065 9.97c-.498-.043-.892-.438-.934-.935l-.351-4.15C50.756 4.712 50.508 4.712 50.485 4.884zM67.808 27.129l-.354 4.137c-.043.498-.438.892-.935.934l-4.15.351c-.172.023-.172.272 0 .295l4.137.354c.498.043.892.438.934.935l.351 4.15c.023.172.272.172.295 0l.354-4.137c.043-.498.438-.892.935-.934l4.15-.351c.172-.023.172-.272 0-.295l-4.137-.354c-.498-.043-.892-.438-.934-.935l-.351-4.15C68.08 26.957 67.831 26.957 67.808 27.129zM41.083 9.84l-.274 3.205c-.033.386-.339.691-.725.724l-3.215.272c-.133.018-.133.21 0 .228l3.205.274c.386.033.691.339.724.725l.272 3.215c.018.133.21.133.228 0l.274-3.205c.033-.386.339-.691.725-.724l3.215-.272c.133-.018.133-.21 0-.228l-3.205-.274c-.386-.033-.691-.339-.724-.725L41.311 9.84C41.293 9.707 41.101 9.706 41.083 9.84zM31.208 6.657l-.25 2.917c-.03.351-.309.629-.659.659l-2.926.247c-.121.016-.121.192 0 .208l2.917.25c.351.03.629.309.659.659l.247 2.926c.016.121.192.121.208 0l.25-2.917c.03-.351.309-.629.659-.659l2.926-.247c.121-.016.121-.192 0-.208l-2.917-.25c-.351-.03-.629-.309-.659-.659l-.247-2.926C31.399 6.536 31.224 6.536 31.208 6.657zM70.375 39.266l-.216 2.517c-.026.303-.266.543-.569.569l-2.525.214c-.105.014-.105.165 0 .179l2.517.216c.303.026.543.266.569.569l.214 2.525c.014.105.165.105.179 0l.216-2.517c.026-.303.266-.543.569-.569l2.525-.214c.105-.014.105-.165 0-.179l-2.517-.216c-.303-.026-.543-.266-.569-.569l-.214-2.525C70.54 39.162 70.389 39.162 70.375 39.266zM53.764 23.074l-.25 2.917c-.03.351-.309.629-.659.659l-2.926.247c-.121.016-.121.192 0 .208l2.917.25c.351.03.629.309.659.659l.247 2.926c.016.121.192.121.208 0l.25-2.917c.03-.351.309-.629.659-.659l2.926-.247c.121-.016.121-.192 0-.208l-2.917-.25c-.351-.03-.629-.309-.659-.659l-.247-2.926C53.956 22.953 53.78 22.953 53.764 23.074z"/>
</svg>