<svg xmlns="http://www.w3.org/2000/svg" viewBox="0 0 80 80">
<path d="M42.332 67.781c.664-.878.627-2.414.625-2.489-.002-.075-.038-.145-.098-.19-.059-.046-.136-.063-.208-.045-1.248.288-2.063.783-2.448 1.463-.063-.754-.509-1.535-1.358-2.325-.058-.055-.139-.076-.218-.062-.079.015-.145.067-.179.14-.031.068-.639 1.411-.458 2.483-1.062-.446-2.642.172-2.716.202-.069.027-.122.085-.145.156-.023.071-.012.149.029.212.635.974 1.31 1.541 2.006 1.736-1.086.505-1.639 2.287-1.663 2.367-.022.075-.008.157.039.221.048.064.139.085.205.101 1.1 0 1.92-.243 2.478-.696-.246.701-.144 1.599.345 2.698.03.068.09.119.162.14.021.006.044.009.066.009.051 0 .102-.016.144-.046.066-.046 1.487-1.073 1.652-2.229.746.796 2.202 1.115 2.274 1.13.017.003.034.005.051.005.062 0 .121-.022.168-.064.059-.054.089-.132.081-.211-.117-1.135-.463-1.948-1.009-2.455.144.029.287.061.441.061.636 0 1.36-.242 2.162-.725.068-.04.112-.11.12-.188.008-.079-.022-.156-.08-.21C44.743 68.916 43.48 67.785 42.332 67.781zM39.695 69.947c-.323-.038-.562-.3-.677-.453-.265-.354-.19-.676-.081-.883.176-.332.558-.578.895-.562.34.013.739.351.873.738.079.229.097.565-.26.866C40.181 69.875 39.931 69.972 39.695 69.947zM41.046 68.371c.036.002.076.014.111.014-.021.028-.042.052-.062.082C41.08 68.434 41.063 68.403 41.046 68.371zM38.879 67.93c-.001-.01-.005-.018-.006-.028.009.004.019.007.028.01C38.893 67.919 38.886 67.924 38.879 67.93zM38.346 69.06c-.019-.008-.038-.015-.057-.023.021-.008.04-.016.06-.024C38.348 69.029 38.345 69.045 38.346 69.06zM38.895 70.086c.012.01.023.021.036.032-.018.012-.037.025-.056.038C38.883 70.132 38.889 70.11 38.895 70.086zM40.179 70.367c-.001.009-.006.018-.007.027-.007-.007-.013-.014-.02-.021C40.161 70.37 40.17 70.37 40.179 70.367zM40.595 66.82c.262-.521.902-.932 1.858-1.198-.03.644-.199 1.725-.773 2.111-.295.199-.692.2-1.178.007C40.458 67.579 40.398 67.212 40.595 66.82zM38.764 64.816c.63.652.954 1.276.963 1.859.007.437-.169.733-.27.867-.406-.043-.682-.193-.842-.458C38.264 66.501 38.533 65.441 38.764 64.816zM35.758 67.317c.615-.194 1.688-.406 2.249 0 .288.209.427.58.411 1.104-.137.096-.459.276-.896.229C36.943 68.583 36.337 68.124 35.758 67.317zM36.096 71.242c.239-.617.74-1.589 1.395-1.789.082-.025.166-.038.25-.038.23 0 .468.093.722.281-.012.167-.076.512-.376.833C37.695 70.949 37.011 71.193 36.096 71.242zM38.902 73.255c-.36-.92-.417-1.676-.164-2.198.196-.401.525-.573.683-.636.448.272.685.59.703.946C40.16 72.058 39.398 72.844 38.902 73.255zM40.717 70.942c-.118-.289-.072-.604.142-.959.002 0 .005 0 .007 0 .17 0 .51.039.85.303.461.356.766.992.907 1.893C41.985 71.992 40.974 71.576 40.717 70.942zM42.12 69.528c-.422-.121-.654-.384-.75-.521.165-.399.398-.632.709-.71.665-.165 1.594.411 2.116.816C43.386 69.543 42.674 69.686 42.12 69.528zM31.523 66.559c.949-.558 1.503-1.991 1.53-2.062.026-.069.02-.147-.017-.213-.037-.064-.102-.109-.176-.121-1.263-.212-2.206-.067-2.822.416.23-.721.118-1.613-.365-2.667-.033-.073-.1-.126-.178-.142-.077-.014-.16.008-.219.061-.055.051-1.13 1.06-1.373 2.12-.816-.826-2.526-.86-2.589-.853-.074 0-.144.032-.191.09-.048.057-.068.133-.055.206.214 1.144.621 1.925 1.189 2.373-1.2.054-2.389 1.485-2.441 1.55-.05.061-.068.143-.048.219.02.076.074.14.146.169.686.285 1.301.428 1.84.428.256 0 .489-.045.711-.11-.489.553-.736 1.419-.705 2.615.002.074.037.145.096.19.045.034.099.053.154.053.018 0 .036-.002.055-.006.079-.018 1.785-.422 2.379-1.428.384 1.021 1.607 1.872 1.668 1.915.042.028.091.043.141.043.028 0 .057-.005.084-.015.075-.026.133-.088.156-.164.324-1.086.317-1.965.013-2.641.441.291 1.01.446 1.715.446.291 0 .604-.025.938-.075.078-.012.146-.06.183-.129.038-.069.04-.152.007-.224C33.315 68.53 32.583 67.001 31.523 66.559zM28.28 65.347c.005.005.012.011.018.016-.007.002-.014.004-.021.006C28.278 65.362 28.278 65.354 28.28 65.347zM27.806 66.873c-.108-.429.083-.697.263-.846.291-.242.738-.318 1.042-.179.31.144.55.609.523 1.019-.015.241-.126.559-.571.699-.328.105-.599.1-.805-.017C27.973 67.392 27.852 67.058 27.806 66.873zM27.35 66.215c-.013-.014-.026-.026-.04-.039.018.001.039.006.055.006C27.362 66.194 27.354 66.204 27.35 66.215zM27.465 67.373c.007.014.013.028.021.043-.021.004-.044.009-.066.014C27.436 67.411 27.45 67.392 27.465 67.373zM28.539 68.13c-.003.005-.008.01-.012.016-.002-.006-.004-.012-.007-.018C28.527 68.128 28.533 68.129 28.539 68.13zM30.118 66.719c-.001-.033-.004-.066-.008-.099.035.017.071.026.106.041C30.183 66.681 30.15 66.697 30.118 66.719zM32.462 64.61c-.274.583-.844 1.517-1.523 1.654-.349.074-.716-.079-1.091-.444.021-.168.104-.529.445-.819C30.735 64.625 31.481 64.491 32.462 64.61zM29.362 62.454c.332.844.392 1.545.177 2.087-.16.405-.437.612-.581.697-.358-.194-.556-.439-.602-.745C28.254 63.819 28.909 62.943 29.362 62.454zM25.627 63.613c.642.058 1.715.271 2.077.861.187.304.172.7-.042 1.179-.165.039-.533.083-.923-.137C26.234 65.23 25.852 64.575 25.627 63.613zM24.437 67.369c.456-.479 1.286-1.179 1.973-1.119.319.03.584.227.807.598-.075.149-.266.443-.666.625C26.027 67.71 25.301 67.674 24.437 67.369zM28.111 69.026c-.231.653-1.235 1.086-1.852 1.276.019-.988.255-1.708.69-2.093.322-.286.677-.327.854-.327.007 0 .013 0 .02.001C28.133 68.306 28.229 68.69 28.111 69.026zM30.109 70.732c-.519-.418-1.293-1.189-1.288-1.872.002-.312.165-.585.497-.831.155.062.46.228.677.607C30.285 69.142 30.323 69.847 30.109 70.732zM30.659 68.092c-.343-.273-.458-.604-.494-.768.306-.307.61-.435.927-.385.677.102 1.315.989 1.643 1.564C31.821 68.591 31.109 68.449 30.659 68.092zM21.996 61.285c1.093-.148 2.159-1.257 2.21-1.312.051-.055.075-.129.065-.203-.01-.074-.052-.14-.115-.18-1.086-.679-2.013-.904-2.766-.696.488-.578.726-1.445.684-2.604-.003-.08-.043-.154-.11-.198-.066-.045-.15-.055-.226-.028-.07.026-1.45.547-2.08 1.434-.436-1.065-1.99-1.747-2.063-1.778-.069-.029-.147-.025-.213.009-.066.034-.114.097-.129.17-.24 1.138-.164 2.016.191 2.646-1.125-.413-2.776.458-2.85.498-.069.037-.117.105-.128.184-.011.078.015.157.071.213.777.778 1.529 1.19 2.243 1.265-.667.323-1.229 1.029-1.659 2.149-.027.07-.021.148.016.213.037.065.101.11.175.123.037.007.427.072.929.072.587 0 1.312-.108 1.815-.488-.04 1.092.768 2.352.81 2.415.043.067.116.109.196.113.004 0 .008 0 .013 0 .075 0 .146-.034.194-.092.719-.885 1.05-1.705 1.022-2.448.417.624 1.182 1.09 2.309 1.371.02.005.04.008.061.008.057 0 .113-.02.158-.057.061-.05.095-.126.092-.204C22.906 63.799 22.813 62.096 21.996 61.285zM19.346 61.282c-.343-.029-.591-.138-.737-.323-.202-.255-.186-.609-.158-.799.064-.438.344-.612.566-.681.361-.113.804-.01 1.03.234.231.25.275.772.095 1.14C20.035 61.071 19.814 61.316 19.346 61.282zM19.461 58.95c.004-.006.007-.012.011-.018.002.007.006.013.009.02C19.474 58.951 19.468 58.95 19.461 58.95zM18.281 59.378c-.006-.016-.013-.031-.02-.046.017.007.033.013.049.02C18.301 59.362 18.289 59.369 18.281 59.378zM17.944 60.486c.001.018.001.036.003.055-.027-.006-.056-.011-.085-.016C17.888 60.512 17.919 60.5 17.944 60.486zM18.63 61.593c.005.003.008.008.014.011-.004.003-.01.005-.014.009C18.63 61.605 18.63 61.599 18.63 61.593zM20.678 60.8c.024.027.044.063.069.088-.034.005-.067.007-.102.014C20.657 60.869 20.668 60.834 20.678 60.8zM23.617 59.851c-.477.434-1.36 1.083-2.04.945-.35-.068-.631-.347-.838-.828.083-.147.299-.449.725-.587C22.017 59.205 22.757 59.366 23.617 59.851zM19.869 58.173c.164-.662 1.104-1.221 1.71-1.5-.017.907-.229 1.577-.635 1.996-.304.313-.639.399-.804.423C19.883 58.774 19.794 58.473 19.869 58.173zM17.684 56.315c.571.299 1.48.906 1.589 1.59.056.353-.109.713-.49 1.072-.167-.027-.525-.127-.8-.479C17.626 58.041 17.524 57.29 17.684 56.315zM17.399 59.051c.283.15.453.433.516.861-.126.109-.415.308-.854.322-.58.036-1.232-.292-1.913-.904C15.753 59.062 16.794 58.73 17.399 59.051zM15.709 62.737c.396-.905.89-1.479 1.438-1.67.422-.146.776-.035.932.033.125.509.067.9-.172 1.166C17.444 62.782 16.349 62.799 15.709 62.737zM19.1 64.607c-.319-.583-.739-1.592-.474-2.222.121-.288.376-.478.778-.578.119.117.338.387.393.82C19.872 63.206 19.637 63.871 19.1 64.607zM20.619 62.378c-.213-.384-.191-.733-.163-.898.399-.166.729-.166 1.003 0 .587.353.837 1.417.919 2.074C21.504 63.284 20.898 62.882 20.619 62.378zM14.688 55.639c.043.032.096.049.148.049.024 0 .049-.004.072-.011.076-.022.136-.08.163-.154.027-.075.591-1.675.154-2.736.192.05.393.075.597.075.93 0 1.886-.426 1.942-.451.068-.03.119-.09.138-.162.019-.072.006-.149-.038-.211-.743-1.042-1.513-1.605-2.289-1.701.672-.347 1.223-1.057 1.627-2.144.028-.074.018-.158-.026-.225-.044-.067-.118-.108-.198-.112-.074-.001-1.548-.049-2.47.528.005-1.15-1.169-2.376-1.225-2.433-.053-.055-.127-.084-.201-.074-.075.007-.142.046-.184.107-.657.96-.923 1.8-.837 2.518-.882-.81-2.74-.636-2.823-.63-.078.009-.148.054-.188.121-.041.067-.047.15-.017.224.421 1.017.959 1.683 1.591 2.025-.743.037-1.531.48-2.359 1.353-.051.054-.076.128-.066.202.009.074.051.141.114.181.059.038 1.19.745 2.227.745.158 0 .311-.024.46-.061-.444.993-.184 2.45-.169 2.523.015.078.066.145.138.179.034.017.071.024.107.024.041 0 .082-.01.119-.03 1.003-.542 1.622-1.172 1.882-1.869C13.226 54.224 13.754 54.946 14.688 55.639zM13.789 49.636c0 .008 0 .016.001.024-.007-.003-.013-.007-.02-.01C13.778 49.645 13.783 49.64 13.789 49.636zM13.159 49.968c.376.035.747.298.863.611.118.319-.042.818-.349 1.089-.182.16-.485.305-.899.092-.306-.158-.493-.354-.558-.581-.089-.312.062-.635.159-.799C12.602 50.001 12.926 49.939 13.159 49.968zM12.518 49.593c0-.017 0-.034 0-.05.013.013.025.025.038.038C12.543 49.586 12.53 49.588 12.518 49.593zM11.764 50.541c-.021-.015-.052-.027-.076-.042.031-.002.063-.004.093-.007C11.775 50.508 11.769 50.524 11.764 50.541zM11.991 51.778c.003.003.005.007.008.011-.004.001-.009.001-.014.002C11.987 51.787 11.989 51.783 11.991 51.778zM14.188 51.823c.012.036.017.079.031.113-.035-.008-.067-.02-.104-.027C14.141 51.882 14.165 51.853 14.188 51.823zM17.267 52.071c-.607.219-1.67.477-2.247.094-.297-.197-.451-.562-.458-1.086.133-.104.448-.304.895-.265C16.036 50.861 16.658 51.294 17.267 52.071zM16.599 48.356c-.361.831-.814 1.369-1.35 1.601-.4.174-.742.124-.904.082-.116-.391-.083-.703.101-.952C14.851 48.538 15.933 48.382 16.599 48.356zM13.139 46.535c.414.494 1.021 1.404.86 2.077-.083.347-.373.616-.862.803-.141-.09-.434-.318-.554-.739C12.423 48.114 12.615 47.379 13.139 46.535zM9.642 48.349c.66-.013 1.75.075 2.187.604.205.248.253.573.148.993-.159.053-.502.126-.913-.028C10.524 49.715 10.037 49.176 9.642 48.349zM8.856 51.712c.712-.686 1.391-1.025 1.968-.992.446.027.731.266.849.388-.08.518-.283.857-.605 1.012C10.442 52.415 9.426 52.013 8.856 51.712zM12.676 53.176c-.153.562-.624 1.087-1.401 1.562-.071-.661-.073-1.755.413-2.234.173-.171.399-.256.685-.256.081 0 .166.007.255.021C12.692 52.422 12.791 52.754 12.676 53.176zM13.724 52.367 13.724 52.367c.433 0 .736.126.927.383.407.551.23 1.63.055 2.269-.706-.584-1.111-1.188-1.176-1.76C13.481 52.823 13.635 52.509 13.724 52.367zM10.631 44.761c.041.067.111.112.189.12.008.001.017.001.025.001.07 0 .137-.029.184-.081.054-.059 1.189-1.324 1.189-2.473.766.58 2.033.63 2.394.63.053 0 .086-.001.096-.001.075-.003.145-.038.19-.098.046-.06.062-.136.046-.209-.288-1.248-.784-2.063-1.464-2.448.754-.063 1.535-.508 2.325-1.358.055-.059.078-.14.062-.218-.016-.078-.067-.145-.14-.179-.068-.031-1.412-.639-2.483-.458.444-1.062-.172-2.643-.202-2.717-.028-.069-.085-.122-.157-.145-.072-.022-.149-.013-.212.029-.975.635-1.541 1.31-1.736 2.006-.504-1.086-2.287-1.639-2.367-1.662-.075-.024-.157-.008-.221.039-.063.047-.101.121-.101.2 0 1.103.243 1.924.697 2.482-.701-.248-1.599-.143-2.699.345-.068.03-.119.09-.139.162-.02.072-.006.149.037.21.046.066 1.072 1.487 2.229 1.653-.796.746-1.115 2.201-1.13 2.274-.016.078.006.159.06.219.047.053.115.082.186.082.008 0 .017 0 .025-.001 1.134-.118 1.947-.463 2.454-1.008C9.822 42.895 10.032 43.764 10.631 44.761zM11.615 41.157c-.028-.02-.052-.043-.082-.062.033-.016.064-.032.096-.05C11.627 41.082 11.615 41.121 11.615 41.157zM11.388 38.936c.334.176.576.561.563.895-.013.341-.352.741-.739.874-.229.076-.565.097-.866-.261-.221-.263-.32-.516-.292-.75.038-.323.3-.562.453-.677l0 0c.179-.133.35-.18.501-.18C11.155 38.838 11.285 38.883 11.388 38.936zM12.089 38.894c-.003-.004-.006-.008-.009-.011.004-.001.01 0 .014-.001C12.092 38.886 12.09 38.89 12.089 38.894zM10.939 38.344c.009-.02.017-.04.024-.061.008.02.014.044.021.063C10.97 38.347 10.955 38.343 10.939 38.344zM9.882 38.93c-.012-.019-.026-.039-.04-.058.025.008.048.016.072.023C9.903 38.907 9.892 38.918 9.882 38.93zM9.616 40.162c.001.004.001.008.003.012-.004-.001-.008-.002-.012-.003C9.61 40.168 9.613 40.165 9.616 40.162zM10.885 44.194c-.429-.809-.571-1.521-.413-2.074.121-.422.384-.654.521-.751.4.166.632.398.71.709C11.867 42.743 11.291 43.672 10.885 44.194zM14.378 42.454c-.643-.03-1.723-.198-2.11-.773-.2-.296-.202-.692-.008-1.18.161-.043.528-.104.919.094C13.7 40.856 14.111 41.496 14.378 42.454zM15.183 38.765c-.652.63-1.276.953-1.859.962-.43.03-.734-.169-.867-.27.042-.406.192-.683.458-.842C13.499 38.264 14.558 38.533 15.183 38.765zM11.351 37.513c.071-.576.53-1.18 1.333-1.756.193.614.406 1.687-.001 2.249-.209.289-.573.436-1.104.412C11.479 38.28 11.297 37.957 11.351 37.513zM10.547 37.49c.094.307.014.626-.244.974-.167-.013-.512-.076-.832-.376-.421-.393-.665-1.077-.713-1.992C9.375 36.335 10.347 36.836 10.547 37.49zM6.745 38.901c.92-.359 1.676-.415 2.198-.163.402.195.574.525.636.683-.272.447-.59.684-.946.703-.016 0-.032.001-.048.001C7.905 40.125 7.147 39.387 6.745 38.901zM7.821 42.622c.188-.639.604-1.648 1.237-1.906.104-.042.21-.062.321-.062.198 0 .409.067.638.204 0 .166-.036.509-.295.849C9.372 42.165 8.719 42.479 7.821 42.622zM10.296 30.744c.433 0 .803-.094 1.134-.245-.418.624-.558 1.509-.386 2.661.012.078.06.146.129.184.037.02.078.029.119.029.036 0 .072-.008.106-.023.072-.033 1.602-.767 2.043-1.826.558.949 1.991 1.504 2.061 1.531.028.011.059.016.088.016.043 0 .086-.011.125-.033.064-.037.109-.102.122-.176.21-1.258.066-2.199-.412-2.814.23.073.474.119.74.119.564 0 1.208-.164 1.923-.491.073-.033.125-.1.141-.178.016-.078-.007-.16-.061-.219-.051-.055-1.06-1.13-2.12-1.373.817-.811.853-2.508.854-2.587.001-.074-.032-.146-.089-.193-.058-.048-.134-.069-.207-.055-1.144.214-1.925.62-2.372 1.189-.051-1.196-1.486-2.389-1.551-2.442-.061-.05-.143-.068-.219-.048-.076.02-.139.073-.169.146-.422 1.019-.512 1.87-.307 2.559-.553-.495-1.423-.745-2.625-.714-.074.002-.145.037-.19.097-.046.059-.063.135-.047.208.018.079.421 1.783 1.427 2.379-1.021.384-1.872 1.607-1.915 1.669-.044.066-.055.149-.029.225.027.075.088.133.164.155C9.335 30.66 9.843 30.744 10.296 30.744zM13.127 27.806c.428-.106.696.083.846.263.241.29.317.738.178 1.042-.143.31-.609.55-1.017.523-.242-.015-.559-.126-.701-.571-.104-.328-.098-.599.017-.806C12.607 27.974 12.941 27.852 13.127 27.806zM13.388 30.11c-.016.032-.042.064-.055.097-.017-.027-.03-.055-.049-.083C13.319 30.122 13.353 30.114 13.388 30.11zM14.636 28.298c-.002-.007-.003-.013-.006-.02.007.002.014.001.021.003C14.646 28.286 14.641 28.292 14.636 28.298zM13.785 27.35c.012-.012.023-.024.035-.035 0 .018 0 .035 0 .052C13.807 27.362 13.797 27.354 13.785 27.35zM12.584 27.486c-.004-.021-.01-.043-.014-.065.019.016.038.03.056.045C12.612 27.472 12.598 27.478 12.584 27.486zM13.06 31.092c-.102.677-.989 1.315-1.564 1.643-.086-.912.054-1.625.413-2.075.273-.344.604-.458.768-.494C12.982 30.471 13.108 30.774 13.06 31.092zM15.389 32.462c-.583-.273-1.517-.842-1.654-1.522-.071-.35.078-.717.444-1.093.168.021.529.105.819.445C15.375 30.735 15.509 31.481 15.389 32.462zM15.459 29.539c-.406-.16-.613-.437-.698-.581.195-.358.439-.557.746-.603.675-.094 1.55.554 2.039 1.006C16.701 29.694 16 29.754 15.459 29.539zM14.483 26.739c.286-.506.94-.888 1.902-1.112-.057.642-.271 1.715-.861 2.077-.304.187-.7.172-1.178-.043C14.308 27.497 14.263 27.128 14.483 26.739zM12.63 24.437c.479.456 1.185 1.29 1.12 1.973-.031.319-.226.584-.597.807-.15-.075-.444-.266-.625-.666C12.288 26.027 12.325 25.301 12.63 24.437zM9.697 26.26c.987.019 1.707.255 2.092.689.297.335.33.705.327.874-.423.31-.807.407-1.144.287C10.32 27.88 9.887 26.876 9.697 26.26zM11.133 28.821c.002 0 .004 0 .006 0 .312.002.585.165.832.497-.063.155-.229.46-.607.677-.507.291-1.211.327-2.097.113C9.683 29.592 10.452 28.821 11.133 28.821zM17.161 20.31c.019 0 .036-.003.055-.003-.612.42-1.071 1.178-1.35 2.292-.019.076 0 .157.049.219.047.059.119.092.194.092.003 0 .007 0 .011 0 .08-.004 1.773-.096 2.587-.906.152 1.09 1.264 2.151 1.319 2.203.046.044.108.067.171.067.011 0 .021-.001.032-.002.074-.01.14-.052.18-.115.678-1.085.904-2.011.696-2.764.533.449 1.309.686 2.335.686.087 0 .177-.002.268-.005.08-.003.154-.044.198-.11.045-.066.055-.15.028-.226-.025-.069-.546-1.449-1.432-2.079 1.064-.437 1.747-1.99 1.778-2.064.029-.068.026-.146-.008-.213-.034-.066-.097-.114-.17-.13-1.139-.238-2.017-.162-2.647.192.412-1.124-.458-2.776-.498-2.85-.038-.069-.106-.117-.184-.128-.08-.013-.157.015-.213.07-.78.779-1.189 1.532-1.262 2.248-.321-.669-1.029-1.233-2.152-1.665-.07-.025-.148-.021-.213.016-.064.037-.11.102-.123.175-.014.079-.293 1.81.408 2.745-1.09-.036-2.345.768-2.407.809-.067.044-.108.116-.113.196-.004.079.03.156.092.207C15.642 19.961 16.438 20.31 17.161 20.31zM19.839 18.45 19.839 18.45c.438.064.612.344.681.566.112.36.011.803-.234 1.03-.25.23-.772.274-1.14.095-.217-.106-.468-.331-.428-.796.03-.343.138-.592.324-.738.175-.138.396-.174.578-.174C19.703 18.433 19.779 18.441 19.839 18.45zM19.097 20.65c.032.011.063.024.095.033-.025.022-.059.041-.082.064C19.106 20.714 19.104 20.683 19.097 20.65zM21.048 19.46c.006.004.012.008.018.012-.007.003-.014.006-.021.009C21.046 19.474 21.047 19.467 21.048 19.46zM20.647 18.31c-.01-.009-.016-.02-.026-.029.016-.006.03-.013.046-.019C20.66 18.278 20.653 18.294 20.647 18.31zM19.46 17.947c.006-.026.01-.055.015-.083.013.026.025.056.039.08C19.495 17.945 19.478 17.945 19.46 17.947zM18.396 18.644c-.001-.001-.001-.002-.002-.003.001 0 .002.001.004.001C18.397 18.642 18.396 18.643 18.396 18.644zM18.52 21.46c-.354.586-1.417.837-2.074.919.27-.876.672-1.48 1.176-1.76.259-.144.502-.181.684-.181.087 0 .161.009.215.018C18.686 20.856 18.685 21.184 18.52 21.46zM20.148 23.617c-.435-.476-1.079-1.357-.946-2.039.068-.351.347-.633.829-.84.147.084.449.3.586.726C20.796 22.016 20.634 22.757 20.148 23.617zM23.326 21.578c-.907-.016-1.577-.229-1.996-.634-.313-.305-.399-.639-.422-.805.317-.256.62-.344.919-.271C22.489 20.032 23.048 20.973 23.326 21.578zM23.684 17.683c-.298.571-.907 1.481-1.59 1.59-.354.054-.713-.109-1.072-.489.028-.167.127-.525.479-.801C21.958 17.626 22.709 17.522 23.684 17.683zM20.669 15.147c.267.605.6 1.647.279 2.252-.15.283-.433.452-.86.517-.109-.127-.308-.416-.323-.854C19.745 16.485 20.057 15.829 20.669 15.147zM17.262 15.708c.905.396 1.48.89 1.669 1.439.146.422.035.776-.032.932-.51.123-.901.067-1.167-.172C17.218 17.444 17.202 16.35 17.262 15.708zM17.614 18.627c.288.121.478.376.578.778-.118.119-.387.337-.821.393-.579.07-1.244-.162-1.98-.697C15.975 18.781 16.985 18.362 17.614 18.627zM31.497 12.065c.811-.881.639-2.739.63-2.823-.008-.078-.053-.148-.12-.188-.068-.041-.151-.048-.224-.017-1.019.422-1.685.96-2.027 1.594-.041-.741-.479-1.532-1.351-2.361-.054-.051-.129-.073-.203-.066-.074.009-.14.051-.18.114-.043.068-.963 1.559-.673 2.691-.994-.451-2.46-.187-2.534-.174-.078.015-.145.065-.179.138-.034.073-.032.156.006.227.542 1.002 1.172 1.622 1.87 1.882-.736.147-1.458.674-2.15 1.608-.047.063-.062.145-.039.221.023.075.08.136.154.163.055.02.916.327 1.79.327.328 0 .655-.047.945-.165-.271 1.065.347 2.462.377 2.53.031.068.091.119.163.139.021.006.043.009.064.009.052 0 .103-.016.146-.047 1.042-.743 1.605-1.512 1.701-2.289.347.672 1.057 1.223 2.145 1.628.028.011.058.016.087.016.048 0 .097-.014.138-.042.067-.044.108-.117.112-.197.003-.074.049-1.534-.52-2.455 1.148-.002 2.368-1.183 2.425-1.239.054-.053.081-.126.074-.2-.007-.075-.046-.143-.108-.185C33.056 12.244 32.216 11.979 31.497 12.065zM28.241 12.773c.158-.306.354-.493.581-.558.067-.019.134-.027.2-.027.243 0 .47.109.599.187.379.228.434.552.412.785-.035.375-.297.745-.611.861-.32.117-.819-.041-1.09-.349C28.172 13.491 28.026 13.187 28.241 12.773zM30.41 12.523c.011 0 .025.006.037.006-.009.009-.017.017-.026.026C30.416 12.544 30.414 12.533 30.41 12.523zM29.46 11.763c.017-.025.031-.06.048-.087.003.035.002.073.006.105C29.495 11.775 29.478 11.769 29.46 11.763zM28.212 11.999c-.001-.004-.001-.009-.002-.013.004.002.009.004.013.005C28.22 11.994 28.216 11.996 28.212 11.999zM28.092 14.126c.025.022.048.046.074.067-.031.011-.068.015-.098.027C28.076 14.188 28.086 14.159 28.092 14.126zM30.35 13.771c.004.006.009.012.013.018-.007 0-.015.001-.022.001C30.344 13.783 30.348 13.777 30.35 13.771zM30.08 11.074c.199-.543.739-1.034 1.571-1.432.015.661-.076 1.751-.604 2.187-.248.204-.573.253-.992.147C30.005 11.819 29.932 11.476 30.08 11.074zM28.289 8.856c.685.712 1.026 1.388.991 1.968-.026.446-.265.731-.387.849-.518-.08-.858-.283-1.012-.605C27.584 10.442 27.987 9.427 28.289 8.856zM25.263 11.274c.662-.074 1.755-.072 2.234.413.22.222.297.53.236.94-.154.064-.486.164-.908.048C26.263 12.522 25.738 12.052 25.263 11.274zM24.982 14.706c.584-.705 1.188-1.11 1.759-1.176.436-.052.751.104.893.194 0 .433-.126.736-.384.927C26.7 15.057 25.621 14.882 24.982 14.706zM27.929 17.267c-.219-.607-.477-1.67-.094-2.247.197-.298.562-.451 1.087-.458.104.134.3.449.264.895C29.139 16.036 28.706 16.658 27.929 17.267zM30.044 15.25c-.173-.4-.125-.742-.083-.904.393-.115.705-.083.953.101.549.405.705 1.487.73 2.153C30.813 16.238 30.275 15.785 30.044 15.25zM31.388 13.999c-.347-.083-.617-.373-.803-.862.089-.144.318-.437.749-.557.56-.157 1.292.037 2.132.559C32.972 13.553 32.061 14.164 31.388 13.999zM37.661 12.229c-.656.88-.621 2.404-.618 2.479.002.075.038.145.097.19.044.034.098.052.153.052.019 0 .038-.002.056-.007 1.248-.288 2.063-.783 2.448-1.463.063.754.508 1.535 1.357 2.325.047.044.108.067.17.067.016 0 .032-.002.048-.005.079-.015.145-.067.179-.14.031-.068.634-1.401.459-2.471.274.114.581.159.889.159.886 0 1.771-.351 1.825-.373.069-.027.123-.085.146-.156.023-.071.012-.149-.029-.212-.635-.974-1.31-1.541-2.006-1.736 1.086-.505 1.639-2.287 1.663-2.367.022-.075.008-.157-.04-.221-.048-.064-.135-.101-.205-.101-1.1 0-1.919.243-2.477.696.246-.701.143-1.599-.345-2.698-.031-.068-.09-.119-.162-.14-.072-.02-.149-.007-.211.037-.066.046-1.487 1.073-1.652 2.229-.746-.796-2.202-1.115-2.275-1.13-.078-.014-.159.006-.218.06-.06.054-.09.132-.082.211.117 1.134.463 1.948 1.008 2.454-.736-.145-1.606.065-2.602.664-.067.04-.112.11-.12.188-.008.079.021.156.08.21C35.258 11.084 36.516 12.221 37.661 12.229zM40.228 10.049c.026 0 .052.001.077.004.322.038.562.3.677.453.264.354.189.676.081.883-.171.324-.541.562-.868.562-.009 0-.018 0-.026-.001-.34-.013-.74-.351-.873-.738-.079-.229-.098-.565.26-.866C39.79 10.148 40.016 10.049 40.228 10.049zM38.955 11.629c-.037-.002-.077-.014-.112-.014.021-.028.043-.052.062-.083C38.92 11.566 38.937 11.597 38.955 11.629zM41.123 12.075c.001.008.003.015.005.022-.007-.003-.015-.005-.022-.008C41.112 12.085 41.117 12.08 41.123 12.075zM41.654 10.948c.014.006.028.016.042.021-.014.005-.031.009-.044.015C41.652 10.972 41.655 10.96 41.654 10.948zM41.105 9.913c-.012-.01-.023-.021-.036-.032.019-.012.037-.025.056-.038C41.118 9.868 41.112 9.89 41.105 9.913zM39.826 9.617c0-.003.002-.007.002-.01.002.003.005.005.007.008C39.833 9.615 39.829 9.616 39.826 9.617zM39.405 13.18c-.262.521-.901.932-1.858 1.198.03-.644.199-1.725.773-2.111.149-.101.325-.15.525-.15.195 0 .413.048.653.144C39.542 12.421 39.602 12.788 39.405 13.18zM41.236 15.183c-.63-.652-.954-1.276-.962-1.859-.007-.437.169-.733.27-.867.406.043.682.193.842.458C41.737 13.499 41.467 14.558 41.236 15.183zM44.242 12.683c-.615.195-1.688.406-2.248 0-.289-.209-.427-.58-.412-1.104.137-.097.458-.281.896-.229C43.057 11.417 43.663 11.876 44.242 12.683zM43.904 8.758c-.239.617-.74 1.589-1.395 1.789-.307.094-.626.015-.973-.243.012-.167.076-.512.375-.833C42.306 9.051 42.99 8.807 43.904 8.758zM41.098 6.745c.36.92.417 1.676.163 2.198-.195.401-.524.573-.682.636-.448-.272-.684-.59-.703-.946C39.84 7.941 40.602 7.156 41.098 6.745zM39.284 9.058c.117.289.071.604-.142.959-.158-.002-.512-.034-.858-.303-.461-.356-.766-.992-.907-1.893C38.015 8.008 39.025 8.424 39.284 9.058zM37.88 10.472c.422.121.654.384.75.521-.166.399-.398.632-.709.71-.666.163-1.594-.411-2.116-.816C36.614 10.457 37.326 10.312 37.88 10.472zM56.232 12.465c-.02-.076-.074-.14-.147-.169-1.018-.423-1.87-.513-2.559-.307.495-.553.744-1.422.713-2.625-.002-.074-.038-.145-.096-.19-.06-.046-.137-.063-.208-.047-.079.018-1.784.421-2.379 1.427-.384-1.021-1.607-1.873-1.669-1.916-.065-.045-.149-.055-.224-.028-.075.026-.133.088-.156.164-.326 1.092-.318 1.976-.008 2.653-.624-.416-1.508-.553-2.658-.383-.078.012-.146.06-.184.129-.037.069-.04.152-.006.224.033.072.766 1.602 1.825 2.044-.948.558-1.503 1.99-1.529 2.061-.026.069-.02.147.017.213.038.064.102.109.175.121.385.064.74.097 1.066.097.743 0 1.327-.173 1.755-.506-.228.72-.115 1.609.366 2.661.033.073.099.126.178.142.016.003.033.005.049.005.062 0 .123-.023.169-.065.055-.051 1.131-1.06 1.373-2.12.811.817 2.507.852 2.587.853 0 0 .001 0 .002 0 .074 0 .145-.032.192-.09.048-.057.068-.133.054-.206-.213-1.136-.615-1.915-1.178-2.363 1.192-.059 2.378-1.495 2.431-1.56C56.233 12.623 56.251 12.541 56.232 12.465zM51.72 14.652c-.004-.004-.009-.009-.014-.013.005-.002.011-.001.017-.003C51.722 14.642 51.722 14.647 51.72 14.652zM50.889 14.149c-.309-.142-.549-.607-.523-1.016.015-.242.126-.56.572-.701.156-.049.298-.074.427-.074.143 0 .27.03.378.091.284.158.404.492.451.678.108.429-.083.696-.263.846C51.64 14.215 51.193 14.292 50.889 14.149zM51.465 11.865c.002-.003.005-.007.007-.01.001.004.003.008.005.012C51.473 11.866 51.47 11.865 51.465 11.865zM49.882 13.279c.002.037.005.073.009.109-.032-.016-.063-.04-.095-.053C49.826 13.317 49.854 13.298 49.882 13.279zM52.65 13.784c.011.012.023.023.035.035-.018-.001-.035 0-.052 0C52.638 13.807 52.646 13.796 52.65 13.784zM52.535 12.626c-.007-.015-.014-.03-.021-.045.022-.004.046-.01.069-.015C52.565 12.587 52.551 12.606 52.535 12.626zM51.889 10.973c.231-.652 1.235-1.086 1.852-1.275-.02.987-.256 1.707-.69 2.093-.335.297-.708.34-.874.326C51.867 11.693 51.77 11.309 51.889 10.973zM49.891 9.266c.519.418 1.292 1.189 1.288 1.873-.002.312-.165.584-.497.831-.153-.063-.457-.229-.672-.598C49.721 10.874 49.681 10.15 49.891 9.266zM47.266 11.496c.912-.087 1.625.055 2.075.412.344.273.457.604.494.768-.306.307-.609.436-.927.385C48.232 12.959 47.594 12.071 47.266 11.496zM47.539 15.39c.274-.584.844-1.518 1.522-1.654.349-.073.716.079 1.092.444-.021.168-.105.529-.445.819C49.265 15.375 48.52 15.51 47.539 15.39zM50.639 17.545c-.332-.844-.392-1.544-.178-2.086.161-.406.437-.613.581-.698.359.194.557.439.603.745C51.746 16.181 51.092 17.057 50.639 17.545zM54.373 16.386c-.642-.058-1.714-.271-2.077-.861-.187-.304-.172-.699.042-1.178.165-.039.533-.083.922.137C53.766 14.769 54.148 15.424 54.373 16.386zM53.59 13.749c-.319-.03-.583-.226-.806-.597.075-.149.266-.444.666-.626.523-.237 1.249-.2 2.113.104C55.105 13.108 54.27 13.814 53.59 13.749zM57.994 18.705c-1.092.151-2.149 1.265-2.201 1.32-.051.055-.075.129-.065.203.01.074.052.14.115.18.832.52 1.572.78 2.212.78.196 0 .378-.037.555-.085-.489.578-.727 1.445-.684 2.605.003.08.043.154.11.198.042.028.09.043.14.043.029 0 .058-.005.085-.015.07-.026 1.45-.547 2.08-1.433.437 1.065 1.99 1.748 2.063 1.779.031.013.065.02.098.02.04 0 .08-.01.116-.028.066-.034.113-.097.129-.17.24-1.137.164-2.014-.189-2.644.21.076.433.122.667.122 1.016 0 2.121-.591 2.182-.623.069-.037.117-.105.128-.184.012-.078-.015-.157-.07-.213-.78-.78-1.537-1.184-2.25-1.261.67-.32 1.234-1.029 1.667-2.153.027-.07.021-.148-.016-.213-.037-.065-.101-.11-.174-.123-.08-.014-1.81-.293-2.745.408.036-1.09-.768-2.345-.809-2.407-.043-.067-.117-.109-.196-.113-.078.001-.157.031-.207.092-.719.885-1.05 1.705-1.023 2.448-.417-.624-1.181-1.09-2.309-1.371-.076-.018-.157-.001-.219.049-.061.05-.095.126-.091.204C57.094 16.199 57.185 17.891 57.994 18.705zM60.558 18.713c.031 0 .062.001.096.004.343.029.591.139.737.323.202.255.186.61.158.799-.064.438-.343.612-.566.681-.36.115-.803.012-1.03-.234-.231-.25-.274-.772-.095-1.14C59.957 18.943 60.158 18.713 60.558 18.713zM60.536 21.054c-.003.005-.005.009-.008.013-.002-.005-.004-.01-.007-.015C60.526 21.053 60.531 21.053 60.536 21.054zM61.719 20.621c.006.016.013.031.02.046-.017-.007-.032-.013-.048-.02C61.699 20.637 61.711 20.63 61.719 20.621zM62.056 19.514c-.001-.018-.001-.036-.003-.054.027.006.055.01.084.015C62.112 19.488 62.081 19.5 62.056 19.514zM61.369 18.406c-.005-.003-.008-.008-.014-.011.004-.003.01-.005.014-.009C61.37 18.393 61.369 18.4 61.369 18.406zM59.322 19.199c-.024-.027-.044-.063-.069-.089.034-.005.067-.006.102-.013C59.343 19.131 59.332 19.165 59.322 19.199zM56.383 20.147c.477-.434 1.361-1.088 2.04-.945.35.068.632.347.838.828-.083.147-.299.449-.725.587C57.983 20.796 57.243 20.633 56.383 20.147zM60.131 21.827c-.164.662-1.104 1.221-1.71 1.499.016-.907.229-1.577.634-1.995.304-.314.639-.399.805-.423C60.117 21.225 60.206 21.527 60.131 21.827zM62.316 23.684c-.571-.298-1.48-.904-1.589-1.59-.057-.353.108-.714.49-1.073.167.027.525.127.8.479C62.374 21.958 62.476 22.709 62.316 23.684zM62.6 20.948c-.283-.15-.452-.433-.516-.86.127-.109.416-.308.854-.322.575-.051 1.231.291 1.913.903C64.246 20.936 63.205 21.267 62.6 20.948zM64.291 17.262c-.396.905-.889 1.48-1.438 1.67-.422.147-.777.036-.932-.033-.125-.509-.067-.9.172-1.166C62.556 17.217 63.65 17.2 64.291 17.262zM60.899 15.391c.319.583.739 1.592.474 2.222-.121.288-.376.478-.778.578-.119-.117-.337-.387-.393-.82C60.128 16.793 60.363 16.128 60.899 15.391zM59.381 17.621c.213.384.191.733.162.898-.399.166-.729.166-1.003 0-.586-.353-.836-1.417-.919-2.074C58.496 16.715 59.101 17.117 59.381 17.621zM65.312 24.362c-.063-.047-.145-.061-.221-.038-.076.023-.136.08-.163.154-.027.075-.591 1.674-.154 2.736-1.065-.276-2.471.345-2.539.376-.068.03-.119.09-.139.162-.019.072-.005.149.038.211.744 1.042 1.514 1.606 2.29 1.701-.673.347-1.224 1.057-1.629 2.145-.028.074-.018.158.026.225.044.067.117.108.197.112.013 0 .071.003.164.003.422 0 1.549-.056 2.305-.529-.003 1.151 1.17 2.374 1.226 2.431.047.049.111.075.178.075.007 0 .015 0 .022-.001.074-.007.142-.046.185-.107.653-.954.918-1.789.838-2.504.599.542 1.638.64 2.276.64.306 0 .519-.021.545-.023.079-.009.148-.054.189-.121.04-.067.046-.15.016-.224-.418-1.011-.953-1.675-1.579-2.019.737-.046 1.524-.493 2.347-1.359.052-.054.076-.128.067-.202-.009-.074-.051-.141-.114-.181-.068-.043-1.561-.965-2.691-.674.45-.994.188-2.46.174-2.534-.015-.078-.066-.145-.139-.179-.072-.035-.156-.033-.226.006-1.003.542-1.622 1.172-1.881 1.87C66.774 25.777 66.246 25.054 65.312 24.362zM66.211 30.364c0-.008 0-.016-.001-.024.007.004.013.007.02.011C66.223 30.355 66.218 30.36 66.211 30.364zM67.227 28.241c.306.158.493.354.558.581.092.325-.081.666-.16.798-.227.38-.55.437-.784.412-.375-.034-.746-.297-.861-.61-.118-.319.042-.818.349-1.089.116-.103.282-.199.495-.199C66.943 28.134 67.078 28.164 67.227 28.241zM67.482 30.403c0 .018 0 .036 0 .054-.013-.014-.026-.026-.039-.038C67.457 30.413 67.47 30.409 67.482 30.403zM68.237 29.46c.024.017.06.031.087.048-.035.002-.073.001-.106.005C68.224 29.496 68.231 29.478 68.237 29.46zM68.009 28.222c-.008-.01-.014-.021-.022-.031.013-.003.026-.004.039-.007C68.02 28.197 68.014 28.209 68.009 28.222zM65.812 28.177c-.011-.033-.016-.072-.028-.103.032.008.062.019.095.025C65.855 28.124 65.833 28.15 65.812 28.177zM62.733 27.929c.606-.219 1.669-.477 2.247-.094.297.197.451.562.458 1.086-.133.104-.447.305-.895.265C63.964 29.139 63.342 28.706 62.733 27.929zM63.4 31.644c.362-.831.815-1.369 1.35-1.601.217-.094.417-.122.58-.122.138 0 .25.021.325.04.116.391.082.703-.102.952C65.149 31.463 64.067 31.619 63.4 31.644zM66.861 33.466c-.414-.494-1.021-1.404-.86-2.078.083-.347.373-.616.862-.803.142.09.435.319.555.74C67.577 31.887 67.385 32.622 66.861 33.466zM70.358 31.651c-.662.01-1.751-.075-2.187-.604-.204-.247-.253-.572-.148-.992.16-.051.502-.125.913.029C69.475 30.286 69.963 30.825 70.358 31.651zM71.144 28.289c-.712.685-1.39 1.039-1.968.991-.446-.026-.73-.265-.848-.387.08-.518.283-.857.605-1.012C69.558 27.587 70.574 27.988 71.144 28.289zM67.324 26.825c.153-.562.625-1.088 1.402-1.562.071.661.073 1.754-.413 2.234-.222.221-.531.299-.94.236C67.308 27.579 67.209 27.247 67.324 26.825zM66.276 27.634c-.001 0-.001 0-.002 0-.432 0-.735-.126-.925-.383-.407-.551-.231-1.63-.056-2.269.706.584 1.11 1.188 1.176 1.759C66.519 27.178 66.366 27.492 66.276 27.634zM73.855 41.059c-.046-.066-1.072-1.487-2.229-1.653.796-.746 1.115-2.201 1.13-2.274.016-.078-.006-.159-.06-.219-.053-.059-.132-.087-.211-.081-1.134.118-1.947.463-2.454 1.008.146-.736-.064-1.606-.663-2.602-.041-.067-.111-.112-.189-.12-.08-.011-.156.022-.209.08-.054.059-1.187 1.321-1.189 2.469-.879-.662-2.415-.624-2.49-.625-.075.003-.145.038-.19.098-.046.06-.062.136-.046.209.288 1.248.784 2.063 1.464 2.448-.754.063-1.535.508-2.325 1.358-.055.059-.078.14-.062.218.016.078.067.145.14.179.059.027 1.093.502 2.067.502.142 0 .279-.02.416-.043-.443 1.062.172 2.642.202 2.716.028.069.085.122.157.145.024.008.05.012.075.012.048 0 .096-.014.137-.041.975-.635 1.541-1.31 1.736-2.006.504 1.086 2.287 1.639 2.367 1.662.023.008.047.011.071.011.053 0 .105-.017.149-.05.063-.047.101-.121.101-.2 0-1.095-.24-1.913-.688-2.472.231.08.477.133.752.133.558 0 1.206-.163 1.938-.488.068-.03.119-.09.139-.162C73.911 41.199 73.898 41.12 73.855 41.059zM68.385 38.843c.028.02.052.043.082.062-.033.016-.064.032-.096.05C68.373 38.918 68.385 38.878 68.385 38.843zM68.612 41.063c-.334-.176-.576-.561-.563-.895.013-.341.352-.741.739-.874.079-.026.17-.047.269-.047.188 0 .4.073.598.308.221.263.32.516.292.75-.038.323-.3.562-.453.677l0 0C69.139 41.246 68.819 41.172 68.612 41.063zM67.911 41.106c.004.005.008.01.012.015-.006.001-.012.003-.019.004C67.907 41.118 67.909 41.112 67.911 41.106zM69.016 41.658c.016 0 .031-.007.046-.008-.01.022-.018.044-.026.066C69.029 41.697 69.023 41.676 69.016 41.658zM70.118 41.07c.012.018.025.036.038.055-.024-.008-.046-.013-.069-.02C70.098 41.093 70.108 41.082 70.118 41.07zM70.384 39.837c-.003-.011-.004-.022-.008-.033.012.002.024.005.036.006C70.402 39.819 70.393 39.828 70.384 39.837zM72.179 37.378c-.188.639-.604 1.648-1.237 1.906-.289.117-.603.071-.958-.142 0-.166.036-.509.295-.849C70.628 37.835 71.281 37.52 72.179 37.378zM69.115 35.806c.429.809.571 1.521.413 2.074-.121.422-.384.654-.521.751-.4-.166-.632-.398-.71-.709C68.133 37.257 68.709 36.328 69.115 35.806zM65.622 37.546c.643.03 1.723.198 2.11.773.2.296.202.692.008 1.18-.162.042-.528.103-.919-.094C66.3 39.143 65.889 38.504 65.622 37.546zM64.816 41.235c.652-.63 1.276-.953 1.859-.962.428-.009.733.17.867.27-.042.406-.192.683-.458.842C66.501 41.737 65.441 41.468 64.816 41.235zM68.649 42.487c-.071.576-.53 1.18-1.333 1.756-.193-.614-.406-1.687.001-2.249.199-.274.544-.413 1.028-.413.025 0 .051 0 .077.001C68.52 41.72 68.703 42.043 68.649 42.487zM69.452 42.51c-.094-.307-.014-.626.244-.974.167.013.512.076.832.376.421.393.665 1.077.713 1.992C70.624 43.665 69.653 43.164 69.452 42.51zM71.056 41.262c-.402-.195-.574-.525-.636-.683.272-.447.59-.684.946-.703.016 0 .032-.001.048-.001.679 0 1.437.738 1.839 1.224C72.334 41.458 71.579 41.514 71.056 41.262zM68.573 49.498c.417-.624.555-1.508.383-2.658-.012-.078-.06-.146-.129-.184-.069-.036-.152-.038-.224-.006-.073.033-1.602.766-2.044 1.826-.558-.949-1.991-1.503-2.061-1.53-.07-.026-.148-.021-.213.018-.065.037-.109.102-.122.176-.212 1.262-.066 2.205.415 2.821-.721-.231-1.612-.118-2.667.365-.073.033-.125.1-.141.178-.016.078.007.16.061.219.05.054 1.055 1.133 2.112 1.379-.811.814-.846 2.502-.847 2.582 0 .074.032.146.09.193.045.038.102.059.16.059.016 0 .031-.001.046-.004 1.144-.214 1.925-.621 2.372-1.189.051 1.197 1.486 2.389 1.551 2.442.045.036.101.056.158.056.021 0 .041-.003.061-.008.077-.02.14-.073.17-.146.422-1.017.512-1.867.308-2.556.521.465 1.321.713 2.417.713.068 0 .137-.001.206-.003.075-.002.145-.037.191-.097.046-.059.063-.135.047-.208-.018-.079-.421-1.784-1.427-2.379 1.021-.385 1.873-1.608 1.915-1.67.045-.066.056-.149.029-.225-.027-.076-.087-.133-.164-.155C70.134 49.18 69.25 49.188 68.573 49.498zM66.874 52.194 66.874 52.194c-.43.106-.697-.082-.847-.263-.241-.29-.317-.737-.177-1.041.135-.294.563-.526.956-.526.021 0 .04.001.061.002.241.016.559.127.7.571.104.329.099.6-.017.807C67.386 52.039 67.023 52.157 66.874 52.194zM66.611 49.893c.017-.033.042-.066.056-.099.019.03.032.06.053.089C66.683 49.885 66.647 49.889 66.611 49.893zM65.364 51.703c.002.007.004.014.006.021-.008-.002-.015-.002-.022-.004C65.354 51.715 65.359 51.709 65.364 51.703zM66.219 52.648c-.013.012-.025.026-.038.038 0-.018 0-.034 0-.051C66.194 52.639 66.206 52.643 66.219 52.648zM67.417 52.515c.003.021.009.044.014.066-.019-.016-.038-.03-.057-.045C67.388 52.528 67.402 52.522 67.417 52.515zM68.136 51.465c.003.002.007.005.01.007-.004.002-.008.003-.012.005C68.134 51.473 68.136 51.47 68.136 51.465zM66.94 48.909c.102-.677.989-1.315 1.564-1.643.086.912-.054 1.625-.412 2.075-.273.344-.604.458-.769.494C67.018 49.53 66.892 49.226 66.94 48.909zM64.611 47.539c.583.274 1.517.844 1.654 1.522.071.35-.079.716-.444 1.091-.166-.021-.528-.105-.813-.438C64.627 49.273 64.491 48.525 64.611 47.539zM64.541 50.461c.406.161.613.438.699.582-.195.358-.439.556-.746.603-.672.092-1.55-.555-2.039-1.007C63.299 50.307 64 50.246 64.541 50.461zM65.521 53.254c-.284.51-.94.894-1.907 1.12.057-.643.271-1.716.861-2.078.142-.086.303-.13.482-.13.207 0 .439.058.695.172C65.689 52.501 65.734 52.871 65.521 53.254zM67.37 55.563c-.479-.456-1.185-1.29-1.119-1.973.03-.319.227-.584.598-.807.149.075.443.266.625.666C67.712 53.974 67.675 54.7 67.37 55.563zM70.304 53.741c-.987-.019-1.708-.255-2.093-.689-.297-.335-.33-.705-.327-.874.423-.311.807-.406 1.143-.288C69.681 52.121 70.114 53.125 70.304 53.741zM68.867 51.18c-.002 0-.004 0-.006 0-.312-.002-.585-.165-.832-.497.063-.155.228-.46.608-.678.506-.287 1.21-.326 2.096-.113C70.317 50.408 69.548 51.18 68.867 51.18zM62.762 59.71c.624-.417 1.091-1.181 1.372-2.309.02-.076.001-.157-.049-.219-.05-.062-.127-.103-.205-.092-.08.004-1.773.095-2.587.905-.152-1.09-1.264-2.151-1.319-2.202-.055-.052-.13-.075-.203-.065-.074.01-.14.052-.18.115-.679 1.086-.905 2.012-.695 2.766-.579-.488-1.445-.725-2.604-.684-.08.003-.153.044-.198.11-.044.066-.055.15-.027.226.025.07.546 1.45 1.433 2.079-1.065.436-1.747 1.99-1.778 2.063-.029.068-.026.146.008.213.034.067.097.114.17.129.459.098.878.146 1.256.146.549 0 1.008-.106 1.381-.309-.388 1.124.468 2.75.507 2.823.038.069.105.117.184.128.012.002.024.003.036.003.065 0 .129-.026.177-.073.78-.779 1.189-1.532 1.263-2.248.321.669 1.029 1.233 2.151 1.665.029.011.06.017.09.017.043 0 .085-.011.123-.032.065-.037.11-.102.123-.175.014-.079.292-1.802-.403-2.739.021.001.042.005.064.005 1.073 0 2.277-.78 2.339-.82.066-.044.108-.116.112-.196.004-.08-.03-.156-.092-.207C64.326 60.013 63.506 59.684 62.762 59.71zM60.162 61.551 60.162 61.551c-.438-.064-.612-.344-.682-.566-.111-.36-.011-.804.234-1.03.146-.136.385-.206.631-.206.175 0 .355.036.508.11.218.106.469.331.429.797-.029.343-.139.592-.324.738C60.704 61.595 60.35 61.579 60.162 61.551zM60.904 59.355c-.034-.012-.068-.023-.103-.033.027-.024.063-.044.089-.069C60.895 59.287 60.896 59.321 60.904 59.355zM58.952 60.541c-.003-.002-.006-.003-.009-.005.003-.001.006-.002.009-.003C58.953 60.535 58.952 60.538 58.952 60.541zM59.354 61.691c.009.009.016.02.025.029-.016.006-.03.013-.045.019C59.341 61.722 59.347 61.707 59.354 61.691zM60.54 62.057c-.006.026-.01.053-.015.08-.013-.025-.024-.054-.037-.077C60.505 62.059 60.522 62.058 60.54 62.057zM61.605 61.357c.003.004.005.01.008.014-.006 0-.013 0-.019 0C61.597 61.365 61.602 61.362 61.605 61.357zM61.48 58.541c.353-.587 1.417-.837 2.074-.919-.269.875-.672 1.479-1.175 1.759-.384.213-.733.189-.898.163C61.314 59.143 61.314 58.815 61.48 58.541zM59.852 56.384c.434.477 1.079 1.36.946 2.039-.068.351-.347.632-.829.839-.147-.084-.449-.3-.587-.726C59.205 57.983 59.367 57.244 59.852 56.384zM56.675 58.422c.906.016 1.576.229 1.995.634.313.305.399.639.423.805-.317.257-.62.345-.919.271C57.511 59.968 56.953 59.027 56.675 58.422zM56.316 62.316c.298-.571.906-1.48 1.59-1.59.35-.054.712.108 1.072.49-.028.167-.127.524-.479.8C58.042 62.375 57.292 62.476 56.316 62.316zM59.331 64.852c-.268-.604-.601-1.645-.279-2.251.15-.283.433-.453.86-.517.11.127.309.416.323.854C60.255 63.515 59.943 64.172 59.331 64.852zM62.738 64.292c-.905-.396-1.479-.89-1.67-1.439-.146-.422-.034-.776.033-.932.51-.122.901-.067 1.166.172C62.782 62.556 62.799 63.649 62.738 64.292zM62.386 61.373c-.287-.121-.477-.376-.577-.777.117-.117.385-.334.808-.392.571-.069 1.255.163 1.992.696C64.024 61.219 63.015 61.637 62.386 61.373zM52.786 64.773c.277-1.065-.345-2.47-.375-2.539-.031-.067-.09-.118-.163-.138-.072-.019-.149-.007-.21.038-1.043.743-1.606 1.513-1.701 2.289-.348-.672-1.057-1.223-2.145-1.628-.074-.027-.158-.019-.226.026-.066.044-.108.117-.111.197-.003.074-.05 1.549.528 2.47-1.15-.003-2.376 1.168-2.433 1.224-.053.053-.081.126-.074.2.006.075.046.143.107.185.85.582 1.612.875 2.273.875.084 0 .16-.023.24-.032-.805.884-.634 2.735-.625 2.819.008.078.053.148.121.188.039.023.083.035.128.035.032 0 .064-.006.095-.019 1.019-.422 1.685-.961 2.027-1.594.041.741.479 1.533 1.351 2.362.046.044.108.068.172.068.01 0 .021-.001.03-.002.074-.009.141-.051.181-.114.043-.068.962-1.558.674-2.69.445.201.981.266 1.449.266.577 0 1.043-.087 1.084-.095.078-.015.145-.065.179-.138.034-.073.032-.156-.006-.227-.542-1.003-1.172-1.622-1.87-1.881.736-.147 1.458-.675 2.15-1.609.047-.063.061-.145.039-.221-.023-.075-.08-.136-.154-.163C55.448 64.9 53.848 64.336 52.786 64.773zM50.38 67.624c-.38-.227-.434-.551-.413-.783.035-.376.297-.746.611-.862.072-.026.152-.039.238-.039.294 0 .641.149.851.387.16.182.306.485.091.9-.158.306-.354.493-.581.558C50.852 67.876 50.512 67.704 50.38 67.624L50.38 67.624zM51.906 65.881c-.027-.025-.055-.048-.084-.071.036-.012.077-.019.111-.033C51.925 65.812 51.913 65.844 51.906 65.881zM49.65 66.229c-.002-.004-.005-.006-.007-.01.004 0 .009-.001.013-.001C49.654 66.221 49.651 66.225 49.65 66.229zM49.58 67.445c.005.012.007.025.013.037-.017 0-.033 0-.05 0C49.556 67.469 49.567 67.457 49.58 67.445zM50.542 68.232c-.018.026-.033.062-.05.09-.002-.033-.001-.069-.005-.1C50.503 68.228 50.525 68.227 50.542 68.232zM51.788 68.001c.001.004.001.008.002.012-.004-.002-.008-.003-.012-.005C51.781 68.006 51.785 68.004 51.788 68.001zM52.354 66.822c.001.001.003.001.005.002-.002 0-.004 0-.006.001C52.353 66.824 52.354 66.823 52.354 66.822zM52.072 62.732c.219.605.477 1.667.094 2.246-.197.297-.562.451-1.087.458-.104-.134-.301-.449-.265-.895C50.861 63.963 51.294 63.342 52.072 62.732zM49.956 64.75c.173.4.125.742.083.904-.392.116-.704.083-.953-.101-.549-.405-.705-1.487-.73-2.154C49.187 63.762 49.725 64.215 49.956 64.75zM46.535 66.86c.494-.414 1.405-1.016 2.078-.86.347.083.617.373.803.863-.089.144-.318.437-.749.556C48.106 67.574 47.374 67.382 46.535 66.86zM49.921 68.925c-.199.544-.739 1.035-1.572 1.433-.015-.662.076-1.751.604-2.187.163-.135.359-.201.595-.201.122 0 .254.018.396.054C49.996 68.181 50.068 68.522 49.921 68.925zM51.712 71.143c-.685-.712-1.027-1.389-.992-1.969.027-.446.266-.731.387-.849.518.08.858.283 1.011.605C52.417 69.557 52.013 70.573 51.712 71.143zM54.738 68.725c-.661.075-1.755.073-2.235-.413-.219-.222-.297-.53-.236-.939.154-.065.487-.164.909-.049C53.738 67.476 54.263 67.947 54.738 68.725zM53.259 66.469c-.435.049-.751-.104-.892-.193 0-.433.125-.736.384-.927.55-.407 1.629-.232 2.268-.056C54.434 65.999 53.83 66.403 53.259 66.469z"/>
</svg>