<svg xmlns="http://www.w3.org/2000/svg" viewBox="0 0 80 80">
<path d="M69.02 30.779C62.842 10.255 36.925 1.971 20.165 15.34 12.128 21.396 7.611 31.52 8.139 41.536c.451 10.027 6.122 19.65 14.74 24.965.297.154.01.639-.272.448C8.835 59.022 3.106 40.869 9.894 26.473c9.024-20.378 36.595-25.198 51.973-9.077 3.568 3.725 6.196 8.292 7.655 13.232C69.6 30.963 69.135 31.107 69.02 30.779L69.02 30.779zM64.625 48.325l.143-4.928c.01-.345-.206-.655-.533-.765l-4.672-1.575c-.34-.115-.331-.6.014-.701l4.732-1.387c.331-.097.559-.399.563-.743l.054-4.93c.004-.359.468-.5.671-.203l2.781 4.071c.194.285.552.409.881.306l4.706-1.472c.343-.107.62.291.4.575l-3.013 3.903c-.211.273-.218.651-.019.932l2.854 4.02c.208.293-.085.679-.423.559l-4.643-1.659c-.325-.116-.687-.006-.893.27l-2.942 3.957C65.073 48.843 64.615 48.684 64.625 48.325zM67.673 62.253l-1.922-3.035c-.134-.212-.392-.312-.634-.245l-3.463.953c-.252.069-.444-.227-.277-.429l2.292-2.765c.16-.193.175-.469.037-.678l-1.976-2.999c-.144-.219.079-.493.322-.396l3.338 1.326c.233.093.5.022.657-.174l2.242-2.806c.163-.204.493-.077.476.184l-.229 3.585c-.016.251.134.482.369.571l3.362 1.265c.245.092.226.445-.028.51l-3.48.89c-.243.062-.417.276-.429.527l-.164 3.588C68.155 62.384 67.813 62.474 67.673 62.253zM53.532 49.341l2.257-.017c.158-.001.296-.105.341-.257l.642-2.164c.047-.158.269-.161.321-.005l.714 2.141c.05.15.192.249.35.245l2.257-.058c.164-.004.237.206.104.303l-1.816 1.341c-.127.094-.178.259-.125.408l.753 2.128c.055.155-.123.289-.256.193l-1.836-1.313c-.128-.092-.302-.089-.427.007l-1.791 1.373c-.131.1-.312-.027-.263-.184l.681-2.152c.048-.15-.009-.314-.139-.404l-1.86-1.279C53.303 49.555 53.368 49.343 53.532 49.341zM52.915 57.466l2.357 1.727c.165.121.389.12.553-.003l2.34-1.75c.17-.128.404.04.337.242l-.914 2.775c-.064.194.006.407.173.525l2.388 1.684c.174.123.087.396-.126.396L57.1 63.05c-.204-.001-.385.132-.446.327l-.864 2.791c-.063.203-.35.205-.415.002l-.892-2.783c-.062-.195-.244-.325-.449-.323l-2.922.041c-.213.003-.303-.27-.13-.394l2.371-1.708c.166-.119.234-.333.168-.526l-.942-2.766C52.512 57.51 52.744 57.34 52.915 57.466zM49.466 64.529l.386 2.306c.027.161.156.286.318.307l2.318.304c.169.022.209.249.058.327l-2.074 1.079c-.145.075-.224.237-.194.397l.427 2.298c.031.167-.172.275-.293.156l-1.667-1.639c-.117-.115-.294-.139-.438-.061l-2.054 1.117c-.15.081-.315-.078-.239-.231l1.043-2.092c.073-.146.042-.323-.077-.435l-1.697-1.608c-.124-.117-.023-.324.146-.299l2.312.346c.162.024.32-.06.39-.208l1.005-2.11C49.21 64.33 49.438 64.361 49.466 64.529zM38.499 61.903l1.379 1.399c.096.098.245.121.367.057l1.741-.911c.127-.066.264.07.198.197l-.905 1.744c-.063.122-.039.271.059.367l1.404 1.374c.102.1.015.272-.126.249l-1.938-.322c-.135-.022-.27.046-.331.169l-.873 1.76c-.064.128-.254.098-.276-.043l-.293-1.943c-.02-.136-.127-.242-.263-.262l-1.944-.286c-.142-.021-.172-.212-.044-.276l1.757-.879c.123-.061.191-.196.168-.331l-.328-1.937C38.227 61.889 38.399 61.801 38.499 61.903zM33.545 67.138l.569 1.158c.04.081.128.126.217.112l1.274-.206c.093-.015.15.098.082.164l-.926.899c-.065.063-.081.161-.04.241l.59 1.148c.043.084-.047.173-.13.129l-1.141-.603c-.08-.042-.178-.027-.241.037l-.909.916c-.066.067-.179.008-.163-.084l.22-1.271c.015-.089-.029-.177-.11-.218l-1.152-.582c-.084-.042-.063-.168.03-.181l1.277-.183c.089-.013.16-.082.174-.172l.197-1.275C33.378 67.072 33.504 67.053 33.545 67.138zM26.467 65.672l1.203.466c.084.033.18.006.235-.065l.797-1.015c.058-.074.177-.029.172.065l-.072 1.288c-.005.09.049.173.134.204l1.212.444c.088.032.082.159-.009.183l-1.247.33c-.087.023-.149.1-.152.191l-.048 1.29c-.004.094-.126.128-.177.049l-.699-1.084c-.049-.076-.142-.111-.228-.086l-1.241.353c-.09.026-.16-.08-.101-.153l.815-1c.057-.07.062-.169.011-.244l-.719-1.072C26.3 65.737 26.379 65.638 26.467 65.672z"/>
</svg>