<svg xmlns="http://www.w3.org/2000/svg" viewBox="0 0 80 80">
<path d="M64.261 15.25c-3.311 0-4.295 1.286-4.577 2.2H49.448c.128-.083.257-.16.384-.25 1.025-.724 1.889-1.564 2.432-2.367.905-1.34.617-2.139.365-2.496-.252-.358-.909-.896-2.475-.493-.938.242-2.02.773-3.045 1.497-1.025.724-1.889 1.564-2.432 2.367-.503.743-.632 1.315-.609 1.742h-7.146c.478-.273.961-.571 1.44-.909 1.271-.897 2.365-1.9 3.08-2.826 1.124-1.456.974-2.307.651-2.765-.323-.458-1.075-.883-2.823-.314-1.112.363-2.424 1.057-3.696 1.954-1.272.897-2.365 1.9-3.08 2.826-.685.888-.894 1.548-.881 2.034H27.91c-.722-.651-2.146-.963-3.511-.963-.432 0-.87.035-1.292.098.274-.216.547-.45.809-.712 1.362-1.361 2.399-3.256 1.458-4.197-.264-.264-.885-.623-2.087-.077-.68.309-1.43.854-2.111 1.535-.262.262-.496.535-.712.81.062-.422.098-.86.098-1.292 0-1.926-.606-3.999-1.937-3.999-1.331 0-1.938 2.073-1.938 3.999 0 .432.036.87.098 1.292-.216-.275-.45-.548-.712-.81-.681-.681-1.431-1.227-2.111-1.535-1.202-.548-1.823-.185-2.086.077-.941.941.096 2.836 1.458 4.197.262.262.535.496.809.712-.422-.062-.859-.098-1.291-.098-1.926 0-3.999.606-3.999 1.938 0 1.332 2.073 1.938 3.999 1.938.432 0 .869-.035 1.291-.098-.274.216-.547.45-.809.712-1.362 1.361-2.399 3.256-1.458 4.197.163.163.462.362.951.362.302 0 .677-.076 1.136-.285.68-.309 1.43-.854 2.111-1.535.262-.262.496-.535.712-.81-.062.422-.098.86-.098 1.292 0 1.454.347 2.989 1.089 3.656v3.962c-.484-.006-1.137.205-2.012.88-.926.714-1.93 1.809-2.827 3.08-.897 1.271-1.591 2.583-1.954 3.695-.57 1.748-.145 2.5.313 2.823.186.131.438.233.768.233.482 0 1.133-.218 1.997-.885.925-.714 1.929-1.809 2.827-3.08.286-.405.593-.885.887-1.396v7.102c-.425-.017-.99.116-1.72.61-.803.542-1.643 1.406-2.367 2.432-1.413 2.002-2.33 4.583-1.004 5.52.254.18.538.261.84.261 1.274-.001 2.88-1.44 4.022-3.059.082-.116.152-.235.229-.352v10.204c-.914.282-2.199 1.266-2.199 4.577 0 2.401.851 6.886 2.899 6.886 2.048 0 2.899-4.484 2.899-6.886 0-3.311-1.285-4.295-2.199-4.577V49.648c.083.128.161.258.25.385 1.142 1.618 2.748 3.059 4.022 3.058.302 0 .586-.081.841-.26 1.325-.937.408-3.518-1.005-5.52-.724-1.025-1.564-1.89-2.367-2.432-.743-.503-1.314-.631-1.742-.609V37.13c.3.526.616 1.019.909 1.434.897 1.271 1.901 2.366 2.827 3.08.864.667 1.515.885 1.997.885.33 0 .582-.103.768-.233.458-.323.884-1.075.313-2.823-.362-1.112-1.057-2.425-1.954-3.695-.897-1.271-1.901-2.366-2.827-3.08-.887-.685-1.547-.894-2.033-.881v-3.767c.944-.491 1.385-2.217 1.385-3.849 0-.432-.036-.87-.098-1.292.216.275.45.548.712.81.681.681 1.431 1.227 2.111 1.535.459.209.833.285 1.136.285.489 0 .788-.2.951-.362.94-.941-.097-2.836-1.458-4.197-.262-.262-.535-.496-.81-.712.422.062.859.098 1.292.098 1.706 0 3.52-.478 3.914-1.512h3.302c-.005.484.205 1.137.88 2.012.714.926 1.808 1.929 3.08 2.826 1.272.897 2.584 1.591 3.696 1.954.6.195 1.082.273 1.47.273.743 0 1.14-.287 1.352-.587.323-.458.473-1.31-.651-2.765-.714-.926-1.808-1.93-3.08-2.827-.466-.329-.935-.619-1.4-.887h7.105c-.017.425.117.99.611 1.72.542.803 1.406 1.644 2.432 2.367 1.026.723 2.107 1.255 3.045 1.497.395.102.731.144 1.019.144.853 0 1.268-.369 1.456-.637.252-.357.54-1.156-.365-2.496-.543-.803-1.407-1.644-2.432-2.367-.115-.082-.233-.151-.35-.228h10.202c.282.914 1.267 2.199 4.577 2.199 2.401 0 6.885-.851 6.885-2.899C71.146 16.1 66.662 15.25 64.261 15.25zM36.382 13.734c2.541-1.793 4.298-2.113 4.546-2.022.058.344-.831 1.893-3.373 3.685-2.417 1.706-4.124 2.073-4.547 1.964C33.043 16.923 33.966 15.438 36.382 13.734zM15.746 37.757c-1.792 2.54-3.341 3.43-3.604 3.43h0c-.169-.306.148-2.062 1.942-4.604 1.705-2.416 3.188-3.339 3.626-3.374C17.822 33.633 17.451 35.34 15.746 37.757zM19.267 33.209c.438.035 1.921.958 3.626 3.374 1.793 2.541 2.111 4.298 2.022 4.546-.343.083-1.893-.831-3.686-3.372C19.526 35.34 19.154 33.633 19.267 33.209zM40.985 24.486c-.305.167-2.062-.148-4.603-1.942-2.417-1.704-3.339-3.188-3.374-3.626.423-.109 2.131.258 4.547 1.964C40.096 22.674 40.985 24.223 40.985 24.486zM47.917 14.485c1.927-1.36 3.358-1.51 3.563-1.352.09.264-.529 1.563-2.455 2.922-1.423 1.005-2.575 1.348-3.168 1.388-.048-.001-.095-.003-.14-.002-.118-.003-.213-.017-.258-.046C45.39 17.106 46.018 15.825 47.917 14.485zM16.989 18.425c0-.356.129-.678.337-.936.082-.052.154-.106.206-.158.041-.041.083-.094.125-.153.238-.159.524-.253.831-.253.827 0 1.499.672 1.499 1.499 0 .827-.672 1.499-1.499 1.499-.307 0-.593-.093-.831-.252-.042-.059-.084-.112-.125-.153-.053-.053-.125-.108-.208-.161C17.118 19.101 16.989 18.779 16.989 18.425zM18.626 26.725c-.208-.286-.537-1.157-.537-2.526 0-1.37.329-2.241.537-2.527.208.286.537 1.157.537 2.527C19.163 25.567 18.834 26.438 18.626 26.725zM22.167 14.124c.969-.969 1.817-1.352 2.167-1.407-.056.35-.438 1.198-1.407 2.166-.969.969-1.817 1.353-2.167 1.407C20.815 15.94 21.199 15.092 22.167 14.124zM18.626 10.125c.208.286.537 1.157.537 2.526 0 1.37-.329 2.241-.537 2.527-.208-.286-.537-1.157-.537-2.527C18.089 11.282 18.417 10.411 18.626 10.125zM12.917 12.717c.35.056 1.198.438 2.167 1.407.968.968 1.352 1.816 1.407 2.166-.349-.055-1.198-.438-2.167-1.407l0 0C13.356 13.915 12.973 13.066 12.917 12.717zM10.325 18.425c.286-.208 1.157-.537 2.527-.537 1.37 0 2.241.329 2.527.537-.286.208-1.157.537-2.527.537C11.482 18.962 10.611 18.633 10.325 18.425zM15.084 22.725c-.969.969-1.817 1.352-2.167 1.407.055-.35.439-1.198 1.407-2.166l0 0c.969-.969 1.817-1.353 2.167-1.407C16.436 20.909 16.053 21.758 15.084 22.725zM16.405 49.226c-1.36 1.927-2.659 2.562-2.903 2.468-.174-.218-.027-1.648 1.333-3.576 1.275-1.808 2.497-2.463 2.861-2.463.019 0 .035.001.049.005.015.023.023.067.032.109v.392C17.709 46.779 17.357 47.876 16.405 49.226zM18.484 69.948c-.502-.108-1.505-2.557-1.505-5.486 0-2.058.56-3.286 1.499-3.286.939 0 1.5 1.229 1.5 3.286C19.977 67.392 18.973 69.84 18.484 69.948zM22.142 48.118c1.36 1.928 1.507 3.358 1.353 3.562-.264.103-1.563-.527-2.923-2.454-1.005-1.425-1.347-2.578-1.387-3.171.001-.046.002-.091.001-.134.003-.119.016-.216.045-.261C19.52 45.59 20.802 46.219 22.142 48.118zM24.334 24.133c-.35-.056-1.198-.438-2.167-1.407-.968-.968-1.352-1.816-1.407-2.166.349.055 1.198.438 2.167 1.407C23.895 22.934 24.278 23.783 24.334 24.133zM21.871 18.425c.286-.208 1.157-.537 2.527-.537 1.358 0 2.222.323 2.516.531.001.003.003.006.004.01-.291.208-1.157.533-2.52.533C23.029 18.962 22.158 18.633 21.871 18.425zM49.025 20.223c1.926 1.358 2.545 2.658 2.468 2.903-.218.172-1.649.026-3.576-1.333-1.899-1.34-2.527-2.621-2.458-2.91.022-.015.065-.023.107-.032h.398C46.582 18.92 47.678 19.272 49.025 20.223zM64.261 19.649c-2.058 0-3.286-.561-3.286-1.499 0-.939 1.229-1.5 3.286-1.5 2.931 0 5.378 1.004 5.486 1.493C69.638 18.646 67.19 19.649 64.261 19.649z"/>
</svg>