<svg xmlns="http://www.w3.org/2000/svg" viewBox="0 0 80 80">
<path d="M69.811 15.449l-6.094-2.529c-.883-.366-1.878-.258-2.662.288l-3.138 2.188H32.722c-.312-1.191-1.389-2.077-2.677-2.077-1.288 0-2.364.886-2.677 2.077h-7.739l1.734-.578c.286-.096.479-.362.479-.664v-3.399c0-.387-.313-.7-.7-.7h-3.399c-.301 0-.569.193-.664.479l-1.279 3.836-1.278-3.836c-.095-.285-.363-.479-.664-.479h-3.399c-.387 0-.7.313-.7.7v3.399c0 .302.193.568.479.664l3.835 1.279-3.835 1.279c-.286.096-.479.362-.479.664v3.399c0 .387.313.7.7.7h3.399c.301 0 .569-.193.664-.479l.579-1.736v7.443c-1.192.313-2.078 1.389-2.078 2.677 0 1.288.886 2.364 2.078 2.677v24.899l-2.188 3.138c-.547.784-.655 1.779-.288 2.662l2.529 6.094c.108.261.364.432.646.432.283 0 .538-.171.646-.432l2.529-6.094c.367-.883.259-1.878-.288-2.662l-2.188-3.138V32.722c1.191-.313 2.078-1.389 2.078-2.677 0-1.288-.886-2.365-2.078-2.677v-7.443l.579 1.736c.095.285.363.479.664.479h3.399c.387 0 .7-.313.7-.7v-3.399c0-.302-.193-.568-.479-.664l-1.737-.579h7.742c.312 1.192 1.389 2.078 2.677 2.078 1.288 0 2.365-.886 2.677-2.078h25.196l3.138 2.188c.477.332 1.031.502 1.591.502.361 0 .725-.07 1.071-.214l6.093-2.53c.261-.108.431-.363.431-.646C70.241 15.815 70.072 15.558 69.811 15.449zM18.246 11.454h2.195v2.194l-3.292 1.099L18.246 11.454zM11.157 11.454h2.195l1.097 3.293-3.292-1.099V11.454zM13.352 20.738h-2.195v-2.194l3.292-1.099L13.352 20.738zM17.682 62.884l-1.883 4.536-1.883-4.536c-.183-.439-.129-.934.144-1.324l1.739-2.495 1.74 2.495C17.811 61.95 17.865 62.444 17.682 62.884zM17.177 30.045c0 .76-.618 1.377-1.377 1.377-.759 0-1.377-.617-1.377-1.377 0-.76.618-1.377 1.377-1.377C16.559 28.668 17.177 29.285 17.177 30.045zM20.441 20.738h-2.195l-1.098-3.293 3.292 1.099V20.738zM30.045 17.474c-.76 0-1.377-.618-1.377-1.378 0-.76.618-1.377 1.377-1.377.759 0 1.377.617 1.377 1.377C31.422 16.856 30.804 17.474 30.045 17.474zM63.181 17.979c-.44.182-.936.128-1.326-.144l-2.495-1.74 2.495-1.739c.39-.271.886-.324 1.325-.144l4.536 1.883L63.181 17.979z"/>
</svg>