<svg xmlns="http://www.w3.org/2000/svg" viewBox="0 0 80 80">
<path d="M66.863 16.314c-.936-2.248-3.026-3.643-5.459-3.643-.007 0-.015 0-.021 0l-40.305.14c-4.542.015-8.25 3.724-8.266 8.267l-.139 40.305c-.008 2.441 1.387 4.542 3.642 5.48.758.315 1.541.47 2.311.47 1.522-.001 2.998-.602 4.145-1.748l1.957-1.957c5.831-5.831 9.225-12.974 8.647-18.197-.265-2.4-1.358-4.274-3.161-5.417-3.134-1.989-5.546-1.446-7.018-.639-2.324 1.272-3.585 3.918-3.591 5.761-.01 2.905 1.602 5.114 4.012 5.494 3.088.486 4.665-1.506 4.73-1.591.236-.307.179-.746-.127-.982-.306-.234-.746-.179-.982.127-.011.015-1.126 1.429-3.403 1.063-1.727-.272-2.837-1.885-2.83-4.107.005-1.462 1.078-3.559 2.864-4.537 1.637-.896 3.572-.691 5.596.593 1.451.921 2.299 2.397 2.519 4.39.533 4.817-2.704 11.512-8.246 17.053l-1.957 1.957c-1.318 1.317-3.207 1.692-4.927.976-1.721-.716-2.786-2.319-2.78-4.184l.139-40.305c.013-3.775 3.095-6.858 6.871-6.87l40.305-.14c.005 0 .011 0 .016 0 1.857 0 3.453 1.063 4.167 2.78.716 1.721.342 3.608-.976 4.927l-1.957 1.957c-5.542 5.541-12.235 8.776-17.053 8.246-1.992-.221-3.469-1.068-4.39-2.52-1.284-2.024-1.489-3.959-.593-5.596.979-1.786 3.075-2.859 4.538-2.864.007 0 .014 0 .021 0 2.211 0 3.814 1.109 4.086 2.83.353 2.235-1 3.354-1.066 3.407-.303.236-.358.674-.123.979.236.306.676.362.981.127.085-.066 2.078-1.643 1.591-4.731-.379-2.402-2.576-4.012-5.47-4.012-.008 0-.017 0-.025 0-1.843.007-4.488 1.268-5.76 3.592-.806 1.472-1.35 3.885.638 7.019 1.144 1.803 3.017 2.896 5.418 3.161 5.224.565 12.367-2.816 18.197-8.647l1.957-1.957C67.312 21.043 67.802 18.569 66.863 16.314zM30.148 20.884l-9.028-.502c-.199-.001-.393.063-.534.204-.141.141-.215.335-.204.534l.502 9.028c.017.308.233.567.532.641l11.297 2.771c.055.014.111.021.167.021.183 0 .362-.072.495-.205.173-.173.243-.424.185-.662l-2.771-11.297C30.716 21.117 30.456 20.901 30.148 20.884zM31.925 31.925l-9.672-2.372-.43-7.729 7.73.43L31.925 31.925z"/>
</svg>