<svg xmlns="http://www.w3.org/2000/svg" viewBox="0 0 80 80">
<path d="M67.57 13.132v-1.4h-40.7c-.387 0-.7.313-.7.7v6.939h-5.506v-6.833c0-.387-.313-.7-.7-.7H12.48c-.387 0-.7.313-.7.7v7.533c0 .387.313.7.7.7h6.784v6.134h-6.833c-.387 0-.7.313-.7.7v39.963h1.4V28.306h6.134v32.985h1.4V28.306h5.506v12.483c0 .283.17.538.432.646.261.109.562.049.763-.151L40.549 28.1c.2-.2.26-.501.151-.763-.109-.262-.363-.433-.646-.433H27.57v-6.134h32.755v-1.4H27.57v-6.239H67.57zM13.181 19.371v-6.133h6.083v6.133H13.181zM38.364 28.306 27.57 39.1V28.306H38.364zM26.17 26.905h-5.506v-6.134h5.506V26.905z"/>
</svg>