<svg xmlns="http://www.w3.org/2000/svg" viewBox="0 0 80 80">
<path d="M23.022 30.935c.025-1.682-.473-4.004-1.947-5.479-1.035-1.034-2.411-1.604-3.874-1.604-1.463 0-2.839.57-3.874 1.604-1.13 1.13-1.753 2.75-1.668 4.332.075 1.399.688 2.63 1.724 3.465 1.51 1.218 3.396.729 3.475.706.372-.101.591-.481.493-.854-.098-.373-.481-.601-.854-.499-.013.002-1.289.32-2.236-.443-.723-.583-1.151-1.453-1.205-2.45-.064-1.192.407-2.413 1.26-3.267.771-.771 1.794-1.194 2.884-1.194 1.09 0 2.113.424 2.884 1.194 1.166 1.166 1.559 3.072 1.538 4.467-.046 3.062-2.016 6.121-4.102 9.359-2.163 3.358-4.399 6.831-4.399 10.455 0 4.011 1.518 5.495 2.986 6.931 1.128 1.104 2.194 2.146 2.659 4.47.355 1.778.241 3.15-.331 3.968-.428.611-1.024.785-1.341.834-.464.064-.964-.062-1.373-.362-.623-.46-1.04-1.299-1.208-2.428-.057-.383-.413-.645-.795-.59-.382.057-.646.413-.589.795.282 1.902 1.114 2.871 1.761 3.349.577.426 1.271.654 1.957.654.154 0 .307-.012.459-.035.538-.082 1.549-.376 2.276-1.414.808-1.155.995-2.853.557-5.046-.549-2.746-1.879-4.047-3.053-5.195-1.376-1.346-2.565-2.509-2.565-5.93 0-3.212 2.123-6.509 4.176-9.696C20.799 37.769 22.971 34.397 23.022 30.935zM67.695 14.891c-.478-.647-1.446-1.479-3.348-1.762-.383-.055-.739.207-.795.59-.057.382.207.738.589.795 1.129.168 1.969.586 2.428 1.208.301.408.433.909.362 1.372-.048.317-.222.913-.833 1.342-.817.571-2.19.687-3.968.331-2.323-.465-3.365-1.53-4.469-2.659-1.436-1.468-2.92-2.986-6.93-2.986-3.624 0-7.097 2.236-10.455 4.399-3.239 2.086-6.298 4.056-9.359 4.101-1.394.023-3.302-.37-4.467-1.537-1.59-1.59-1.59-4.178 0-5.768.854-.854 2.074-1.33 3.267-1.26.998.053 1.868.48 2.45 1.204.763.946.446 2.223.444 2.231-.101.373.121.758.494.858.373.1.757-.121.858-.493.021-.08.511-1.965-.706-3.476-.835-1.036-2.065-1.648-3.465-1.724-1.583-.076-3.202.538-4.333 1.668-2.136 2.136-2.136 5.612 0 7.748 1.439 1.438 3.685 1.948 5.355 1.948.041 0 .083-.001.123-.001 3.461-.052 6.834-2.224 10.096-4.324 3.188-2.053 6.485-4.176 9.697-4.176 3.421 0 4.583 1.188 5.929 2.564 1.148 1.174 2.449 2.504 5.196 3.054 2.193.438 3.891.252 5.045-.558 1.039-.727 1.332-1.737 1.415-2.275C68.441 16.478 68.216 15.598 67.695 14.891zM32.856 25.681H26.38c-.387 0-.7.313-.7.7v6.476c0 .387.313.7.7.7h6.476c.387 0 .7-.313.7-.7v-6.476C33.556 25.994 33.243 25.681 32.856 25.681zM32.157 32.156H27.08v-5.075h5.076V32.156z"/>
</svg>