<svg xmlns="http://www.w3.org/2000/svg" viewBox="0 0 80 80">
<path d="M78.146 39.807c-.024-.022-2.407-2.122-5.569-.068-.277-.002-.69-.004-1.236-.008 1.174-.604 1.584-1.597 1.606-1.656.035-.09.023-.192-.03-.272-.054-.081-.144-.131-.24-.134-2.44-.104-3.236 1.684-3.374 2.05-.574-.003-1.202-.007-1.876-.011 1.865-.808 2.482-2.352 2.515-2.438.034-.09.023-.192-.031-.272-.054-.081-.144-.131-.24-.134-3.358-.094-4.468 2.311-4.667 2.831-.816-.005-1.675-.009-2.562-.014 2.565-.989 3.403-3.077 3.446-3.189.035-.09.023-.192-.031-.272-.054-.081-.143-.131-.24-.134-4.251-.152-5.663 2.919-5.917 3.581-6.917-.035-14.903-.07-19.674-.07-4.739 0-12.72.034-19.674.069-.258-.659-1.674-3.693-5.917-3.58-.097.003-.187.053-.24.134-.054.08-.065.183-.031.272.042.112.88 2.199 3.444 3.188-.886.005-1.743.009-2.561.014-.203-.521-1.32-2.915-4.667-2.83-.097.003-.187.053-.24.134-.054.08-.065.183-.03.272.032.086.648 1.629 2.511 2.437-.671.004-1.297.007-1.874.011-.14-.372-.94-2.156-3.373-2.049-.097.003-.187.053-.24.134-.054.08-.065.183-.031.272.022.059.432 1.051 1.604 1.655-.519.003-.949.006-1.265.007-.443-.346-2.679-1.872-5.55.041-.079.053-.128.14-.133.234-.005.094.035.186.108.246.017.015 1.187.964 2.849.964.811 0 1.739-.234 2.708-.903.297.002.701.004 1.185.007-1.093.608-1.483 1.541-1.505 1.598-.034.09-.023.192.031.272.054.081.143.131.24.134.051.002.102.003.152.003 2.199 0 3.003-1.534 3.196-1.995.547.003 1.139.006 1.772.01-1.765.821-2.353 2.297-2.384 2.381-.035.09-.023.192.03.272.054.081.144.131.24.134.072.002.142.004.212.004 3.075 0 4.182-2.166 4.433-2.777.781.004 1.598.009 2.442.013-2.453 1.01-3.26 3.022-3.302 3.132-.035.09-.023.192.03.272.054.081.144.131.241.134.091.003.18.004.268.004 3.923 0 5.319-2.774 5.626-3.528 6.959.035 14.952.069 19.696.069 4.776 0 12.774-.035 19.696-.07.306.753 1.701 3.528 5.626 3.528.088 0 .178-.001.268-.004.097-.003.187-.053.24-.134.054-.08.065-.183.031-.272-.042-.11-.85-2.124-3.305-3.133.846-.004 1.664-.009 2.444-.013.25.61 1.356 2.778 4.433 2.778.07 0 .14-.002.212-.004.097-.003.187-.053.24-.134.054-.08.065-.183.031-.272-.032-.084-.621-1.561-2.388-2.382.636-.004 1.231-.007 1.774-.01.192.46.995 1.997 3.196 1.997.05 0 .101-.001.152-.003.097-.003.187-.053.24-.134.054-.08.065-.183.03-.272-.021-.057-.412-.992-1.507-1.6.491-.003.863-.005 1.124-.007.282.206 1.341.905 2.771.905.832 0 1.788-.238 2.785-.95.074-.053.12-.136.125-.227C78.25 39.954 78.213 39.867 78.146 39.807zM72.144 38.285c-.305.43-.933 1.055-2.081 1.247C70.35 39.074 70.964 38.405 72.144 38.285zM69.162 37.469c-.399.64-1.401 1.828-3.439 2.077C66.082 38.858 67.032 37.577 69.162 37.469zM65.124 36.684c-.46.812-1.785 2.571-4.73 2.867C60.811 38.682 62.069 36.771 65.124 36.684zM14.923 36.684c3.055.088 4.313 1.997 4.729 2.867C16.707 39.256 15.383 37.497 14.923 36.684zM10.881 37.468c2.133.108 3.085 1.391 3.444 2.078C12.267 39.298 11.274 38.11 10.881 37.468zM7.902 38.285c1.191.118 1.802.788 2.085 1.248C8.836 39.342 8.207 38.715 7.902 38.285zM7.902 41.715c.305-.43.934-1.057 2.086-1.248C9.704 40.927 9.094 41.597 7.902 41.715zM10.881 42.532c.393-.643 1.386-1.83 3.444-2.078C13.966 41.142 13.014 42.425 10.881 42.532zM14.923 43.315c.46-.812 1.785-2.57 4.729-2.867C19.236 41.318 17.977 43.228 14.923 43.315zM2.605 40.042c1.992-1.127 3.537-.445 4.186-.034v.01C4.917 41.142 3.299 40.457 2.605 40.042zM65.124 43.315c-3.055-.088-4.313-1.997-4.73-2.867C63.34 40.745 64.664 42.503 65.124 43.315zM69.167 42.532c-2.134-.107-3.085-1.39-3.445-2.078C67.78 40.702 68.773 41.89 69.167 42.532zM72.145 41.715c-1.191-.118-1.802-.788-2.085-1.248C71.211 40.658 71.84 41.285 72.145 41.715zM73.225 40.042c2-1.132 3.551-.438 4.195-.028C75.543 41.145 73.921 40.458 73.225 40.042z"/>
</svg>