<svg xmlns="http://www.w3.org/2000/svg" viewBox="0 0 80 80">
<path d="M37.23 41.245 3.123 41.652c-.156-.001-.136.231 0 .23l34.107.407C37.93 42.293 37.91 41.239 37.23 41.245zM76.877 41.652l-34.108-.407c-.699-.004-.68 1.05 0 1.044l34.108-.407C77.033 41.883 77.014 41.652 76.877 41.652zM40 40.989c-.4877 0-.883.3953-.883.883 0 .4877.3953.883.883.883.4877 0 .883-.3953.883-.883 0-.4877-.3953-.883-.883-.883ZM39.941 40.23c.009.069.108.069.118 0 .198-1.395 1.024-4.751 4.312-6.333 0 0-1.636-1.015-2.855-.178 0 0-.313-1.597-1.516-2.474-1.202.877-1.516 2.474-1.516 2.474-1.22-.837-2.855.178-2.855.178C38.917 35.479 39.743 38.835 39.941 40.23z"/>
</svg>