<svg xmlns="http://www.w3.org/2000/svg" viewBox="0 0 80 80">
<path d="M36.848 36.158c1.381-.125 2.811 1.091 2.811 1.091 0 0-.423-2.116-2.539-2.116-2.405 0-3.479 1.539-3.217 3.807-1.618-1.507-4.039-2.619-6.156-1.501-1.948.909-4.056 3.184-5.452.179-.045-.143-.26-.068-.212.071.233.748.825 1.388 1.545 1.648L4.393 39.467c-.118-.405-.477-.707-.919-.707-.538 0-.974.436-.974.974 0 .538.436.973.974.973.538 0 .974-.436.974-.973 0-.017-.009-.03-.01-.047l29.718.515c.001.003.001.006.002.01 1.154 3.887 5.502 4.656 5.502 4.656 0 0-3.324-1.793-4.232-4.656C34.494 37.275 35.467 36.283 36.848 36.158zM27.931 37.887c1.938-.891 3.81.05 5.247 1.384l-8.161.056C26.082 39.01 26.895 38.241 27.931 37.887zM76.527 38.76c-.443 0-.802.302-.92.707l-19.193-.131c.697-.183 1.295-.691 1.63-1.648.055-.14-.172-.213-.212-.071-1.392 3.004-3.507.73-5.452-.178-1.053-.499-2.37-.624-3.504-.185-1.085.39-1.97 1.098-2.788 1.831.328-2.351-.75-3.952-3.208-3.952-2.116 0-2.54 2.116-2.54 2.116 0 0 1.431-1.217 2.812-1.091 1.381.125 2.353 1.117 1.421 4.054-.909 2.862-4.232 4.656-4.232 4.656 0 0 4.349-.769 5.502-4.656.001-.003.001-.006.002-.01l29.717-.515c0 .016-.009.03-.009.047 0 .538.436.973.974.973.538 0 .973-.436.973-.973C77.5 39.196 77.064 38.76 76.527 38.76zM49.093 37.829c1.516-.681 3.235-.048 4.578.808.463.341.961.569 1.454.69l-8.161-.056C47.612 38.679 48.306 38.143 49.093 37.829z"/>
</svg>