<svg xmlns="http://www.w3.org/2000/svg" viewBox="0 0 80 80">
<path d="M74.695 20.991c.024 0 .042-.011.065-.012.15-.006.291-.031.418-.079.019-.007.04-.008.057-.015.141-.06.262-.15.368-.258.029-.03.052-.065.078-.098.073-.091.133-.195.181-.311.018-.044.038-.086.052-.134C75.965 19.918 76 19.739 76 19.536v-6.087c0-.62-.377-1.152-.914-1.38-.179-.076-.376-.118-.583-.118h-6.086c-.167 0-.316.024-.449.067-.397.129-.645.436-.764.816-.04.127-.065.262-.078.401-.01.115-.005.235.003.354H12.871c.056-.84-.315-1.638-1.287-1.638H5.497C4.67 11.952 4 12.622 4 13.449v6.087c0 .002 0 .003 0 .004 0 .201.035.378.084.542.015.049.035.092.053.137.048.115.107.217.179.307.027.034.05.07.08.1.106.108.226.197.367.257.018.008.04.009.058.015.128.047.268.072.417.079.023.001.041.012.065.012.03 0 .066-.014.097-.016.003 0 .007 0 .01 0v38.05c-.003 0-.006 0-.009 0-.031-.002-.066-.016-.097-.016-.023 0-.042.011-.065.012-.15.006-.291.032-.418.079-.019.007-.04.008-.057.015-.141.06-.261.15-.368.257-.029.03-.052.066-.079.1-.072.091-.132.193-.18.309-.019.045-.038.087-.053.136-.05.165-.084.343-.085.546 0 .001 0 .001 0 .001v6.087c0 .827.67 1.497 1.497 1.497l0 0h6.087l0 0c.333 0 .597-.094.796-.251.2-.157.336-.378.416-.632.045-.143.067-.298.077-.457h54.25c.001.018-.002.037 0 .055.06.697.456 1.284 1.29 1.284l0 0h6.086l0 0c.207 0 .404-.042.583-.118.538-.227.915-.759.915-1.38v-6.087c0-.002 0-.003 0-.004 0-.201-.035-.379-.084-.543-.015-.049-.035-.092-.053-.137-.048-.115-.107-.217-.179-.307-.027-.034-.05-.07-.08-.101-.106-.107-.226-.197-.367-.257-.018-.008-.04-.009-.058-.015-.127-.047-.268-.072-.417-.079-.023-.001-.041-.012-.065-.012-.026 0-.057.012-.083.013V20.977C74.638 20.978 74.669 20.991 74.695 20.991zM6.554 20.595c0 0 .001 0 .002-.001 0 0 .162-.062.502-.286.462-.304 1.271-.929 2.531-2.176v43.734c-1.258-1.245-2.067-1.87-2.529-2.174-.104-.069-.192-.124-.261-.163-.021-.012-.051-.031-.069-.041-.118-.063-.172-.082-.172-.082-.119-.071-.232-.118-.346-.169V20.762C6.325 20.711 6.437 20.665 6.554 20.595zM69.834 61.932H10.189V18.367h59.645V61.932zM73.442 59.406c0 0-.814.294-2.884 2.318-.042.041-.081.077-.124.12v-43.69c1.613 1.594 2.497 2.173 2.838 2.358.083.046.125.063.148.072.009.004.024.01.024.01.125.075.246.126.367.179v38.453C73.689 59.279 73.568 59.33 73.442 59.406zM67.357 14.508c0 0 .448.823 1.833 2.35.254.28.539.582.86.91H9.95c2.074-2.115 2.693-3.26 2.693-3.26.018-.037.027-.079.042-.117h54.63C67.33 14.429 67.34 14.47 67.357 14.508zM12.644 65.492c0 0-.163-.307-.611-.899-.224-.296-.52-.663-.901-1.099-.252-.288-.559-.617-.891-.964h59.518c-1.086 1.135-1.738 1.969-2.077 2.453-.235.336-.327.508-.327.508-.062.133-.112.273-.15.416H12.794C12.756 65.765 12.706 65.625 12.644 65.492z"/>
</svg>