<svg xmlns="http://www.w3.org/2000/svg" viewBox="0 0 80 80">
<path d="M12.898 12.897v54.205h54.205V12.897H12.898zM66.302 66.302H13.698V13.698h52.604V66.302zM64.983 15.017H15.017v49.965h49.966V15.017zM64.383 63.854l-1.725-1.725c-.197-.197-.418-.36-.635-.531l-.255-.255c-.642-.935-1.034-2.026-1.122-3.169-.25-3.247-.668-9.928-.668-18.175 0-7.995.551-15.001.88-18.466.108-1.139.525-2.225 1.187-3.15.208-.166.424-.323.614-.514l1.725-1.725V63.854zM58.252 22.172l2.424-2.423c-.203.558-.359 1.133-.416 1.729-.33 3.475-.883 10.502-.883 18.522 0 8.268.42 14.965.67 18.222.048.627.205 1.23.413 1.815l-2.209-2.208V22.172zM57.828 21.748H22.172l-2.452-2.452c.558.202 1.133.359 1.729.416 3.467.33 10.484.883 18.523.883 8.268 0 14.965-.42 18.221-.671.658-.05 1.292-.218 1.903-.444L57.828 21.748zM57.652 22.348v35.305H22.348V22.348H57.652zM21.748 22.172v35.656l-2.295 2.295c.226-.61.394-1.244.444-1.901.251-3.256.671-9.952.671-18.222 0-8.021-.553-15.048-.883-18.522-.06-.627-.227-1.233-.448-1.817L21.748 22.172zM22.172 58.252h35.656l2.268 2.268c-.611-.226-1.245-.393-1.903-.444-3.256-.251-9.953-.671-18.221-.671-8.039 0-15.056.553-18.523.883-.596.057-1.171.213-1.729.416L22.172 58.252zM62.268 17.176c-.235.239-.441.503-.639.771L61.6 17.976c-.996.769-2.188 1.253-3.454 1.35-3.247.25-9.926.669-18.174.669-8.014 0-15.009-.552-18.466-.881-1.147-.109-2.241-.533-3.171-1.203l-.291-.291c-.123-.148-.232-.307-.368-.444l-1.538-1.559h47.668L62.268 17.176zM17.148 17.704c.188.185.399.339.604.501.742.963 1.219 2.113 1.334 3.329.329 3.465.88 10.471.88 18.466 0 8.249-.419 14.928-.668 18.175-.098 1.264-.581 2.456-1.35 3.452l-.029.029c-.269.198-.533.404-.772.64l-1.531 1.51V16.194L17.148 17.704zM17.843 62.685c.19-.19.348-.406.514-.614.925-.66 2.012-1.077 3.15-1.186 3.457-.329 10.452-.881 18.466-.881 8.248 0 14.927.419 18.175.669 1.19.092 2.322.518 3.282 1.207.208.28.424.555.673.804l1.697 1.697H16.145L17.843 62.685z"/>
</svg>