<svg xmlns="http://www.w3.org/2000/svg" viewBox="0 0 80 80">
<path d="M4.398 12.674v54.652h71.203V12.674H4.398zM74.802 66.525H5.199V13.475h69.603V66.525zM68.788 19.488H11.211v41.024h57.577V19.488zM68.188 59.913H11.811V20.088h56.377V59.913zM66.551 21.725H13.449v36.55h53.102V21.725zM65.951 57.676H14.049V22.325h51.902V57.676zM8.285 18.022c.783 0 1.419-.637 1.419-1.419 0-.782-.636-1.418-1.419-1.418-.782 0-1.419.636-1.419 1.418C6.866 17.385 7.502 18.022 8.285 18.022zM8.285 15.785c.452 0 .819.367.819.818 0 .452-.367.819-.819.819-.452 0-.819-.367-.819-.819C7.466 16.152 7.833 15.785 8.285 15.785zM15.348 18.022c.782 0 1.418-.637 1.418-1.419 0-.782-.636-1.418-1.418-1.418-.783 0-1.419.636-1.419 1.418C13.929 17.385 14.565 18.022 15.348 18.022zM15.348 15.785c.452 0 .819.367.819.818 0 .452-.367.819-.819.819-.452 0-.819-.367-.819-.819C14.529 16.152 14.896 15.785 15.348 15.785zM22.411 18.022c.782 0 1.419-.637 1.419-1.419 0-.782-.637-1.418-1.419-1.418-.782 0-1.419.636-1.419 1.418C20.992 17.385 21.629 18.022 22.411 18.022zM22.411 15.785c.452 0 .819.367.819.818 0 .452-.367.819-.819.819-.451 0-.818-.367-.818-.819C21.593 16.152 21.96 15.785 22.411 15.785zM29.474 18.022c.782 0 1.419-.637 1.419-1.419 0-.782-.637-1.418-1.419-1.418-.782 0-1.419.636-1.419 1.418C28.055 17.385 28.692 18.022 29.474 18.022zM29.474 15.785c.451 0 .819.367.819.818 0 .452-.368.819-.819.819-.452 0-.819-.367-.819-.819C28.656 16.152 29.023 15.785 29.474 15.785zM36.537 18.022c.783 0 1.419-.637 1.419-1.419 0-.782-.636-1.418-1.419-1.418-.782 0-1.418.636-1.418 1.418C35.119 17.385 35.755 18.022 36.537 18.022zM36.537 15.785c.452 0 .819.367.819.818 0 .452-.367.819-.819.819-.452 0-.819-.367-.819-.819C35.719 16.152 36.086 15.785 36.537 15.785zM43.601 18.022c.782 0 1.419-.637 1.419-1.419 0-.782-.637-1.418-1.419-1.418-.782 0-1.419.636-1.419 1.418C42.182 17.385 42.819 18.022 43.601 18.022zM43.601 15.785c.452 0 .819.367.819.818 0 .452-.367.819-.819.819-.452 0-.819-.367-.819-.819C42.782 16.152 43.149 15.785 43.601 15.785zM50.664 18.022c.783 0 1.419-.637 1.419-1.419 0-.782-.636-1.418-1.419-1.418-.782 0-1.419.636-1.419 1.418C49.245 17.385 49.882 18.022 50.664 18.022zM50.664 15.785c.452 0 .819.367.819.818 0 .452-.367.819-.819.819-.451 0-.818-.367-.818-.819C49.846 16.152 50.213 15.785 50.664 15.785zM57.727 18.022c.782 0 1.419-.637 1.419-1.419 0-.782-.637-1.418-1.419-1.418-.782 0-1.419.636-1.419 1.418C56.308 17.385 56.945 18.022 57.727 18.022zM57.727 15.785c.451 0 .819.367.819.818 0 .452-.368.819-.819.819-.451 0-.819-.367-.819-.819C56.909 16.152 57.276 15.785 57.727 15.785zM64.791 18.022c.782 0 1.419-.637 1.419-1.419 0-.782-.637-1.418-1.419-1.418-.783 0-1.419.636-1.419 1.418C63.372 17.385 64.008 18.022 64.791 18.022zM64.791 15.785c.451 0 .818.367.818.818 0 .452-.367.819-.818.819-.452 0-.819-.367-.819-.819C63.972 16.152 64.339 15.785 64.791 15.785zM15.348 62.17c-.783 0-1.419.637-1.419 1.419 0 .782.636 1.419 1.419 1.419.782 0 1.418-.637 1.418-1.419C16.766 62.807 16.13 62.17 15.348 62.17zM15.348 64.408c-.452 0-.819-.367-.819-.819 0-.452.367-.819.819-.819.452 0 .819.367.819.819C16.167 64.041 15.8 64.408 15.348 64.408zM22.411 62.17c-.782 0-1.419.637-1.419 1.419 0 .782.637 1.419 1.419 1.419.782 0 1.419-.637 1.419-1.419C23.83 62.807 23.193 62.17 22.411 62.17zM22.411 64.408c-.451 0-.818-.367-.818-.819 0-.452.367-.819.818-.819.452 0 .819.367.819.819C23.23 64.041 22.863 64.408 22.411 64.408zM29.474 62.17c-.782 0-1.419.637-1.419 1.419 0 .782.637 1.419 1.419 1.419.782 0 1.419-.637 1.419-1.419C30.893 62.807 30.257 62.17 29.474 62.17zM29.474 64.408c-.452 0-.819-.367-.819-.819 0-.452.367-.819.819-.819.451 0 .819.367.819.819C30.293 64.041 29.926 64.408 29.474 64.408zM36.537 62.17c-.782 0-1.418.637-1.418 1.419 0 .782.636 1.419 1.418 1.419.783 0 1.419-.637 1.419-1.419C37.956 62.807 37.32 62.17 36.537 62.17zM36.537 64.408c-.452 0-.819-.367-.819-.819 0-.452.367-.819.819-.819.452 0 .819.367.819.819C37.356 64.041 36.989 64.408 36.537 64.408zM43.601 62.17c-.782 0-1.419.637-1.419 1.419 0 .782.637 1.419 1.419 1.419.782 0 1.419-.637 1.419-1.419C45.02 62.807 44.383 62.17 43.601 62.17zM43.601 64.408c-.452 0-.819-.367-.819-.819 0-.452.367-.819.819-.819.452 0 .819.367.819.819C44.42 64.041 44.053 64.408 43.601 64.408zM50.664 62.17c-.782 0-1.419.637-1.419 1.419 0 .782.637 1.419 1.419 1.419.783 0 1.419-.637 1.419-1.419C52.083 62.807 51.447 62.17 50.664 62.17zM50.664 64.408c-.451 0-.818-.367-.818-.819 0-.452.367-.819.818-.819.452 0 .819.367.819.819C51.483 64.041 51.116 64.408 50.664 64.408zM57.727 62.17c-.782 0-1.419.637-1.419 1.419 0 .782.637 1.419 1.419 1.419.782 0 1.419-.637 1.419-1.419C59.146 62.807 58.51 62.17 57.727 62.17zM57.727 64.408c-.451 0-.819-.367-.819-.819 0-.452.368-.819.819-.819.451 0 .819.367.819.819C58.546 64.041 58.179 64.408 57.727 64.408zM64.791 62.17c-.783 0-1.419.637-1.419 1.419 0 .782.636 1.419 1.419 1.419.782 0 1.419-.637 1.419-1.419C66.21 62.807 65.573 62.17 64.791 62.17zM64.791 64.408c-.452 0-.819-.367-.819-.819 0-.452.367-.819.819-.819.451 0 .818.367.818.819C65.609 64.041 65.242 64.408 64.791 64.408zM71.854 18.022c.782 0 1.419-.637 1.419-1.419 0-.782-.637-1.418-1.419-1.418-.782 0-1.419.636-1.419 1.418C70.435 17.385 71.072 18.022 71.854 18.022zM71.854 15.785c.452 0 .819.367.819.818 0 .452-.367.819-.819.819-.452 0-.819-.367-.819-.819C71.035 16.152 71.402 15.785 71.854 15.785zM8.285 65.008c.783 0 1.419-.637 1.419-1.419 0-.782-.636-1.419-1.419-1.419-.782 0-1.419.637-1.419 1.419C6.866 64.371 7.502 65.008 8.285 65.008zM8.285 62.769c.452 0 .819.367.819.819 0 .452-.367.819-.819.819-.452 0-.819-.367-.819-.819C7.466 63.137 7.833 62.769 8.285 62.769zM71.854 65.008c.782 0 1.419-.637 1.419-1.419 0-.782-.637-1.419-1.419-1.419-.782 0-1.419.637-1.419 1.419C70.435 64.371 71.072 65.008 71.854 65.008zM71.854 62.769c.452 0 .819.367.819.819 0 .452-.367.819-.819.819-.452 0-.819-.367-.819-.819C71.035 63.137 71.402 62.769 71.854 62.769zM71.854 57.177c.782 0 1.419-.637 1.419-1.419 0-.782-.637-1.418-1.419-1.418-.782 0-1.419.636-1.419 1.418C70.435 56.54 71.072 57.177 71.854 57.177zM71.854 54.939c.452 0 .819.367.819.818 0 .452-.367.819-.819.819-.452 0-.819-.367-.819-.819C71.035 55.307 71.402 54.939 71.854 54.939zM71.854 49.346c.782 0 1.419-.637 1.419-1.419 0-.782-.637-1.418-1.419-1.418-.782 0-1.419.636-1.419 1.418C70.435 48.709 71.072 49.346 71.854 49.346zM71.854 47.108c.452 0 .819.367.819.818 0 .452-.367.819-.819.819-.452 0-.819-.367-.819-.819C71.035 47.475 71.402 47.108 71.854 47.108zM71.854 41.515c.782 0 1.419-.636 1.419-1.418 0-.782-.637-1.419-1.419-1.419-.782 0-1.419.637-1.419 1.419C70.435 40.879 71.072 41.515 71.854 41.515zM71.854 39.277c.452 0 .819.367.819.819 0 .451-.367.818-.819.818-.452 0-.819-.367-.819-.818C71.035 39.644 71.402 39.277 71.854 39.277zM71.854 33.684c.782 0 1.419-.637 1.419-1.419 0-.782-.637-1.419-1.419-1.419-.782 0-1.419.637-1.419 1.419C70.435 33.047 71.072 33.684 71.854 33.684zM71.854 31.446c.452 0 .819.367.819.819 0 .452-.367.819-.819.819-.452 0-.819-.367-.819-.819C71.035 31.813 71.402 31.446 71.854 31.446zM71.854 25.853c.782 0 1.419-.637 1.419-1.419 0-.782-.637-1.418-1.419-1.418-.782 0-1.419.636-1.419 1.418C70.435 25.216 71.072 25.853 71.854 25.853zM71.854 23.616c.452 0 .819.367.819.818 0 .452-.367.819-.819.819-.452 0-.819-.367-.819-.819C71.035 23.983 71.402 23.616 71.854 23.616zM8.285 57.177c.783 0 1.419-.637 1.419-1.419C9.704 54.976 9.067 54.34 8.285 54.34c-.782 0-1.419.636-1.419 1.418C6.866 56.54 7.502 57.177 8.285 57.177zM8.285 54.939c.452 0 .819.367.819.818 0 .452-.367.819-.819.819-.452 0-.819-.367-.819-.819C7.466 55.307 7.833 54.939 8.285 54.939zM8.285 49.346c.783 0 1.419-.637 1.419-1.419 0-.782-.636-1.418-1.419-1.418-.782 0-1.419.636-1.419 1.418C6.866 48.709 7.502 49.346 8.285 49.346zM8.285 47.108c.452 0 .819.367.819.818 0 .452-.367.819-.819.819-.452 0-.819-.367-.819-.819C7.466 47.475 7.833 47.108 8.285 47.108zM8.285 41.515c.783 0 1.419-.636 1.419-1.418 0-.782-.636-1.419-1.419-1.419-.782 0-1.419.637-1.419 1.419C6.866 40.879 7.502 41.515 8.285 41.515zM8.285 39.277c.452 0 .819.367.819.819 0 .451-.367.818-.819.818-.452 0-.819-.367-.819-.818C7.466 39.644 7.833 39.277 8.285 39.277zM8.285 33.684c.783 0 1.419-.637 1.419-1.419 0-.782-.636-1.419-1.419-1.419-.782 0-1.419.637-1.419 1.419C6.866 33.047 7.502 33.684 8.285 33.684zM8.285 31.446c.452 0 .819.367.819.819 0 .452-.367.819-.819.819-.452 0-.819-.367-.819-.819C7.466 31.813 7.833 31.446 8.285 31.446zM8.285 25.853c.783 0 1.419-.637 1.419-1.419 0-.782-.636-1.418-1.419-1.418-.782 0-1.419.636-1.419 1.418C6.866 25.216 7.502 25.853 8.285 25.853zM8.285 23.616c.452 0 .819.367.819.818 0 .452-.367.819-.819.819-.452 0-.819-.367-.819-.819C7.466 23.983 7.833 23.616 8.285 23.616z"/>
</svg>