<svg xmlns="http://www.w3.org/2000/svg" viewBox="0 0 80 80">
<path d="M66.571 20.974c.01.001.019 0 .028.001.031.002.067.016.097.016.024 0 .042-.011.065-.012.15-.007.291-.031.418-.079.018-.007.04-.008.057-.015.141-.06.262-.15.368-.257.029-.03.052-.066.079-.099.072-.091.132-.194.18-.31.019-.045.038-.087.053-.135.05-.166.085-.344.085-.548v-6.087c0-.413-.167-.788-.438-1.059-.271-.271-.646-.439-1.059-.439h-6.086c-.167 0-.316.024-.449.067-.64.208-.885.875-.838 1.571H20.87c.037-.552-.108-1.086-.49-1.387-.2-.157-.463-.251-.797-.251h-6.086c-.414 0-.788.168-1.059.439-.271.271-.439.645-.439 1.059v6.087c0 .204.035.383.085.549.015.048.034.089.052.133.048.117.108.22.181.312.026.033.048.068.078.098.106.108.227.198.368.258.018.007.039.008.057.015.128.047.269.072.419.079.023.001.041.012.065.012.03 0 .066-.014.097-.016.017-.001.033 0 .051-.001v38.052c-.017-.001-.033 0-.05-.001-.031-.002-.066-.016-.097-.016-.023 0-.042.011-.065.012-.15.006-.291.032-.418.079-.018.007-.04.008-.057.015-.141.06-.261.15-.367.257-.03.03-.053.066-.08.1-.072.091-.131.193-.179.308-.019.045-.039.088-.053.137-.05.165-.084.342-.084.544 0 .001 0 .002 0 .003v6.087c0 .62.377 1.152.915 1.38.179.076.376.118.583.118l0 0h6.086l0 0c.855 0 1.245-.619 1.289-1.339h38.252c.01.159.032.313.077.457.04.127.094.245.163.352.207.32.549.531 1.05.531l0 0h6.086c.414 0 .788-.168 1.059-.438.271-.271.438-.645.438-1.059v-6.086c0-.204-.035-.383-.085-.548-.015-.048-.034-.09-.052-.134-.048-.116-.108-.219-.181-.311-.026-.033-.049-.069-.079-.099-.106-.108-.227-.197-.367-.257-.018-.008-.04-.008-.058-.015-.127-.047-.268-.072-.417-.079-.023-.001-.041-.012-.065-.012-.03 0-.066.014-.097.016-.009 0-.018 0-.027 0V20.974zM14.555 20.594 14.555 20.594c0 0 .218-.075.722-.434.125-.09.27-.198.432-.326.471-.374 1.107-.933 1.92-1.741v43.814c-.159-.158-.303-.295-.448-.434-1.877-1.796-2.624-2.066-2.624-2.066-.104-.062-.204-.102-.305-.149V20.742C14.352 20.695 14.452 20.656 14.555 20.594zM61.794 61.932H18.229V18.367h43.565V61.932zM65.443 59.406c0 0-.218.075-.722.434-.377.27-.915.7-1.642 1.379-.21.197-.443.424-.686.665v-43.77c2.199 2.181 3.051 2.48 3.051 2.48.002.001.004.001.006.003.109.065.214.108.32.156v38.493C65.662 59.295 65.555 59.339 65.443 59.406zM59.316 14.391c.016.038.025.08.042.117 0 0 .619 1.145 2.693 3.26H17.949c.187-.19.377-.383.541-.558.472-.504.851-.94 1.149-1.306.748-.916 1.003-1.396 1.003-1.396.018-.037.027-.079.042-.117H59.316zM20.793 65.908c0-.001 0-.002 0-.004-.039-.142-.088-.281-.149-.412 0 0-.503-.944-2.165-2.714-.072-.077-.162-.166-.239-.247h43.52c-1.841 1.922-2.403 2.961-2.403 2.961-.062.133-.112.273-.15.416H20.793z"/>
</svg>