<svg xmlns="http://www.w3.org/2000/svg" viewBox="0 0 80 80">
<path d="M74.676 61.959l-4.39-6.97 4.37-5.64c.11-.14.13-.33.06-.5-.07-.17-.22-.28-.4-.3l-9.28-1.03v-2.55c0-.25-.2-.47-.45-.49l-12.01-1.25 12.06-2.66c.01 0 .01 0 .02-.01.06-.01.11-.04.15-.07.05-.03.09-.07.12-.11.08-.09.11-.21.11-.33v-12.13c0-.26-.2-.47-.45-.5l-40.1-4.18v-3.43c0-.06-.01-.11-.03-.16-.03-.1-.09-.19-.18-.25-.01 0-.01-.01-.02-.01-.03-.02-.06-.04-.09-.04-.02-.02-.04-.03-.07-.03-.01 0-.03-.01-.05-.01l-18.25-2.03c-.19-.02-.38.07-.48.23-.1.17-.1.37 0 .54l4.4 6.96-4.37 5.64c-.11.15-.13.34-.06.5.07.17.22.28.4.31l9.69 1.07v2.48c0 .26.2.47.45.5l10.71 1.12-10.78 2.79c-.01 0-.01.01-.01.01 0 0 0 0-.01.01h-.02c-.01 0-.02.01-.02.01l-.01.01c-.05.01-.1.04-.14.08-.03.02-.05.05-.07.08-.01.01-.02.02-.02.03-.021.03-.04.07-.05.1-.02.05-.03.11-.03.16v12.16c0 .26.2.47.45.5l39.69 4.14v3.49c0 .05.01.1.03.15.03.1.09.19.18.25.01.01.02.01.03.01.02.02.05.04.08.04.05.04.12.05.18.05h.01l18.18 2.02h.05c.17 0 .33-.09.43-.23C74.785 62.329 74.785 62.119 74.676 61.959zM15.706 22.379c-.06.02-.12.05-.16.1-.03.02-.05.04-.07.08-.02.01-.03.03-.03.05-.02.03-.03.05-.04.08-.02.05-.03.1-.03.16v8.68l-8.69-.97 4.03-5.22c.13-.16.14-.39.03-.57l-4.03-6.38 15.15 1.68L15.706 22.379zM16.376 34.559v-11.16l7.11.74.45.05h.05l.5.06 39.55 4.12v11.15l-34.62-3.6h-.05L16.376 34.559zM56.015 55.749l-.5-.06-39.14-4.07v-11.16l8.25.86 24.8 2.58 14.61 1.52v11.16l-7.52-.78L56.015 55.749zM58.206 59.939l6.26-2.27c.02-.01.04-.02.06-.03h.01c.12 0 .24-.05.33-.13.11-.09.17-.23.17-.37v-8.62l8.28.92-4.03 5.22c-.13.17-.14.39-.03.57l4.02 6.38L58.206 59.939z"/>
</svg>