<svg xmlns="http://www.w3.org/2000/svg" viewBox="0 0 80 80">
<path d="M72 35.357l4.632-6.13h-15.49l3.92 3.307.065.054c.033.022.064.054.086.086.076.086.108.205.108.323v9.156h11.311L72 36.003C71.86 35.81 71.86 35.551 72 35.357zM14.733 47.218c-.032-.065-.043-.14-.043-.216v-9.157H3.368l4.633 6.151c.14.194.14.452 0 .646l-4.633 6.129h15.491l-3.997-3.361C14.798 47.358 14.755 47.293 14.733 47.218zM19.796 50.158 19.796 47.541 16.694 47.541ZM15.767 33.537 64.243 33.537 64.243 46.464 15.767 46.464 15.767 33.537ZM60.204 29.852 60.204 32.459 63.306 32.459Z"/>
</svg>