<svg xmlns="http://www.w3.org/2000/svg" viewBox="0 0 80 80">
<path d="M71.715 35.862l4.819-6.387c.124-.155.145-.361.052-.537-.083-.175-.258-.289-.454-.289H58.847c-.083 0-.155.021-.227.052-.041.021-.093.052-.124.083-.041.031-.083.083-.103.124-.021.031-.041.072-.041.103-.021.052-.031.103-.031.155v3.612H16.272c-.279 0-.516.227-.516.516v3.612H3.869c-.196 0-.371.114-.454.289-.093.175-.073.382.041.537l4.829 6.408-4.829 6.387c-.114.155-.134.361-.041.537.083.175.258.289.454.289h17.294c.073 0 .145-.01.217-.052.051-.021.093-.052.123-.083.041-.031.083-.072.103-.124.021-.031.041-.062.041-.103.021-.041.031-.103.031-.155v-3.612h42.06c.289 0 .516-.227.516-.516v-3.612h11.877c.186 0 .372-.113.454-.289.093-.175.072-.382-.052-.537L71.715 35.862zM4.911 50.319l4.437-5.871c.134-.186.134-.433 0-.619l-4.437-5.892h10.845v8.771c0 .072.01.145.041.206.021.072.062.134.124.186l3.828 3.219H4.911zM63.223 46.191H16.788V33.809h46.435V46.191zM64.255 42.064v-8.771c0-.113-.031-.227-.103-.309-.021-.031-.051-.062-.083-.083l-.062-.052-3.756-3.168H75.09l-4.437 5.871c-.135.186-.135.433 0 .619l4.437 5.892H64.255z"/>
</svg>