<svg xmlns="http://www.w3.org/2000/svg" viewBox="0 0 80 80">
<path d="M3.368 31.382l4.633 6.13c.14.194.14.453 0 .646l-4.633 6.151h11.311v-9.07-.086c0-.075.011-.151.043-.215.021-.065.064-.118.119-.161.021-.032.042-.054.075-.075l3.943-3.318H3.368zM72 37.512l4.632-6.13h-15.49l3.932 3.318c.021.021.054.043.075.075.043.043.086.086.108.151.021.054.043.108.043.172.011.022.011.032.011.054v9.157h11.322L72 38.158C71.86 37.964 71.86 37.706 72 37.512zM60.204 32.007 60.204 34.614 63.306 34.614ZM15.757 35.691 64.233 35.691 64.233 48.618 15.757 48.618 15.757 35.691ZM19.796 34.614 19.796 32.007 16.694 34.614Z"/>
</svg>