<svg xmlns="http://www.w3.org/2000/svg" viewBox="0 0 80 80">
<path d="M72.382 27.743c-1.798-1.786-5.189-2.77-8.4-.69-.034.034-.079.057-.102.091-.023.023-.045.045-.057.079-.034.045-.068.09-.068.147-.023.057-.034.102-.034.158v4.827c-5.076.769-12.661 1.424-23.729 1.424-11.078 0-18.653-.656-23.728-1.424v-4.827c0-.068-.012-.124-.034-.181-.011-.045-.034-.102-.067-.147-.012-.011-.012-.022-.023-.022-.034-.045-.068-.079-.113-.113 0 0 0 0-.012-.011-3.21-2.08-6.613-1.097-8.399.69-1.413 1.413-1.436 2.645-1.436 2.781v.034l1.277 17.918c.011.17.113.339.26.43 7.721 5.155 31.28 5.211 32.275 5.211 1.006 0 24.554-.056 32.286-5.211.147-.091.237-.26.249-.43l1.289-17.918v-.034C73.818 30.388 73.795 29.156 72.382 27.743zM64.853 28.975c.486.362 1.017.61 1.605.724.384.068.769.079 1.119.045.011 0 .023 0 .023 0 .147-.022.294-.045.429-.068.147-.034.283-.068.407-.102.192-.045.362-.102.509-.147.079-.023.158-.045.226-.079l-.203 2.001c-.045.011-.091.023-.136.034-1.074.26-2.385.531-3.979.791V28.975zM11.054 29.428c.271.102.588.192.916.249.135.034.283.056.429.068 0 0 .011 0 .023 0 .351.034.735.023 1.119-.045.588-.113 1.119-.362 1.594-.724v3.199c-1.594-.26-2.906-.531-3.968-.791-.045-.011-.09-.023-.135-.034l-.204-2.001C10.896 29.382 10.975 29.405 11.054 29.428zM72.608 31.541l-1.176 16.573c-7.699 4.816-31.189 4.872-31.438 4.872-.237 0-23.728-.056-31.427-4.872L7.391 31.541 7.38 31.428c.497.192 1.209.452 2.204.724.125.045.26.079.407.113.18.056.384.102.587.158h.034c.181.045.373.091.565.147.136.023.26.057.407.079.995.237 2.17.464 3.55.69.181.034.373.057.565.09.181.034.373.056.565.09 5.132.757 12.718 1.39 23.728 1.39 11.011 0 18.596-.633 23.729-1.39.192-.034.384-.056.565-.079.192-.034.384-.068.565-.102 1.368-.226 2.544-.452 3.55-.678.147-.034.283-.068.418-.09.193-.056.385-.102.565-.147h.034c.204-.057.396-.102.588-.147.136-.045.283-.079.407-.124.012 0 .012 0 .023-.011.011 0 .011 0 .023 0 .972-.26 1.662-.52 2.159-.712L72.608 31.541z"/>
</svg>