<svg xmlns="http://www.w3.org/2000/svg" viewBox="0 0 80 80">
<path d="M24.795 48.689c.011 0 .021 0 .031-.01.021-.01.031-.031.051-.052C24.857 48.647 24.826 48.668 24.795 48.689zM75.595 38.927c-.01-.175-.123-.34-.279-.423-.051-.021-4.375-2.157-11.681-4.055l.599-2.59c.051-.217-.052-.454-.248-.557-.299-.175-7.605-4.2-23.991-4.2-16.531 0-23.692 4.024-23.991 4.2-.196.113-.289.341-.237.557l.599 2.59c-7.306 1.899-11.629 4.035-11.681 4.055-.165.083-.269.248-.279.423-.021.186.062.361.207.464l6.872 4.901-3.932 7.863c-.093.186-.072.413.073.568.093.113.237.175.381.175.062 0 .114-.01.165-.021 7.615-2.539 16.355-4.097 16.438-4.117h.01c.031-.01.062-.01.093-.031.031 0 .052-.021.083-.041.031-.021.062-.041.083-.062.031-.031.052-.052.073-.083.031-.041.051-.083.061-.134.011-.052.021-.093.021-.145 0-.041 0-.083-.01-.124l-.031-.134-.815-3.519c.02 0 .041-.01.061-.01 3.395-.65 8.637-1.321 15.757-1.321 7.13 0 12.373.671 15.767 1.321.021 0 .041.01.062.01l-.815 3.519-.031.134c-.031.134-.01.289.073.402.021.031.041.052.072.083.021.021.031.041.052.052.041.021.072.041.113.052.031.021.072.031.103.031.082.021 8.822 1.579 16.438 4.117.052.01.103.021.155.021.155 0 .299-.062.393-.175.134-.155.165-.382.072-.568l-3.932-7.863 6.862-4.901C75.533 39.288 75.615 39.113 75.595 38.927zM9.028 51.516l3.57-7.161c.113-.217.051-.495-.165-.65l-6.501-4.643c1.548-.681 5.273-2.208 10.659-3.612l2.26 9.772.01.052c0 .021.011.041.021.062.011.041.031.072.052.103.041.072.103.134.185.175l3.973 2.384C20.503 48.513 14.6 49.751 9.028 51.516zM56.484 43.55c-.134-.031-.278-.052-.423-.083-.021 0-.052-.01-.073-.021-3.426-.65-8.719-1.321-15.994-1.321-7.264 0-12.558.671-15.984 1.321-.021.01-.051.021-.073.021-.144.031-.289.062-.433.083-.031.01-.051.01-.072.021-.145.031-.289.062-.423.093-.031 0-.051 0-.072.01-.691.144-1.28.289-1.775.413-.402.103-.733.196-1.011.279-.155.041-.289.083-.413.124l-.083-.351-2.064-8.936-.113-.506-.113-.506-.506-2.167c1.589-.774 8.864-3.89 23.135-3.89 14.158 0 21.536 3.116 23.145 3.89l-.506 2.177-.113.495-.113.506-2.064 8.936-.083.351c-.124-.041-.268-.083-.433-.134-.279-.072-.599-.165-.991-.268-.495-.124-1.083-.268-1.775-.413-.021-.01-.041-.01-.072-.01-.134-.041-.279-.062-.433-.093C56.536 43.56 56.515 43.56 56.484 43.55zM67.557 43.705c-.207.155-.269.433-.155.65l3.57 7.161c-5.572-1.765-11.474-3.003-14.064-3.519l3.973-2.384c.01-.01.031-.021.041-.021.031-.021.051-.041.072-.062.031-.031.052-.062.073-.093.02-.031.041-.062.051-.103.01-.021.021-.041.021-.062l.01-.052 2.26-9.772c5.387 1.403 9.112 2.931 10.649 3.612L67.557 43.705z"/>
</svg>