<svg xmlns="http://www.w3.org/2000/svg" viewBox="0 0 80 80">
<path d="M74.765 70.459l-4.39-6.97 4.36-5.64c.11-.14.14-.33.07-.5-.07-.17-.23-.28-.41-.3l-9.51-1.06v-2.46c0-.25-.2-.47-.45-.49l-10.71-1.12 10.84-2.8c.05-.01.09-.03.13-.06.03-.01.05-.03.08-.06.01 0 .02-.01.03-.02.02-.02.04-.05.06-.08.06-.08.09-.19.08-.3v-12.13c0-.25-.19-.47-.45-.49l-12.01-1.25 12.07-2.66c.12-.03.21-.09.28-.18.04-.05.06-.1.08-.15.02-.05.03-.1.03-.16v-12.16c0-.26-.19-.47-.45-.5l-40.09-4.18v-3.43c0-.06-.01-.13-.04-.18-.01-.05-.03-.09-.07-.12 0-.01-.01-.02-.02-.03-.03-.03-.06-.06-.09-.08-.04-.03-.08-.05-.12-.06-.01-.01-.03-.01-.05-.01-.02-.01-.04-.02-.06-.02l-18.24-2.03c-.2-.02-.38.07-.48.23-.11.17-.11.37 0 .54l4.39 6.96-4.37 5.64c-.11.15-.13.34-.06.5.07.17.23.28.4.31l9.7 1.07v2.48c0 .26.19.47.44.5l10.71 1.12-10.78 2.79c-.01 0-.03.01-.04.02-.01 0-.02 0-.03.01-.04.02-.08.04-.11.07l-.01.01c-.03.02-.06.05-.09.09 0 0 0 0 0 .01-.03.03-.05.08-.06.12-.02.03-.03.08-.03.12 0 .01 0 .01 0 .02v12.18c0 .26.19.47.44.5l10.06 1.05-10.2 2.86c-.01 0-.01 0-.02.02h-.01c-.04.01-.08.03-.12.06-.02.01-.04.03-.06.05-.02.02-.04.04-.06.06-.02.02-.03.04-.04.07-.02.02-.02.05-.03.07-.02.05-.03.1-.03.16v12.16c0 .25.19.47.45.5l39.92 4.15v3.42c0 .06.01.12.04.18.01.04.03.08.06.11.01.01.02.02.03.03.02.03.06.06.09.08.03.02.06.04.1.05.04.02.08.03.13.04.02.01.03.01.05.01.01 0 .01 0 .02 0l18.17 2.02h.06c.17 0 .33-.09.42-.23C74.866 70.829 74.866 70.619 74.765 70.459zM24.406 15.189v.06h-.01C24.406 15.229 24.406 15.209 24.406 15.189zM15.616 13.879c-.05.02-.1.05-.15.1-.07.05-.11.11-.13.18-.01.02-.02.05-.03.08-.02.06-.02.11-.01.17v8.62l-8.7-.97 4.04-5.22c.12-.16.13-.39.02-.57l-4.02-6.38 15.14 1.68L15.616 13.879zM16.296 26.059v-11.16l7.11.74.44.05h.06l.5.06 39.54 4.12v11.15l-34.62-3.6h-.05L16.296 26.059zM16.296 43.119v-11.16l5.29.55 2.06.21 9.89 1.03 5.67.59 10.13 1.06 14.61 1.52v11.16l-35.43-3.69h-.01L16.296 43.119zM55.596 64.839v-.06h.01C55.596 64.799 55.596 64.819 55.596 64.839zM56.096 64.339v-.01l-.5-.05-39.37-4.1v-11.16l34.64 3.61h.05l12.97 1.35v11.16l-7.29-.75-.44-.05H56.096zM58.285 68.439l6.26-2.27h.01c.04-.01.07-.03.1-.06.02-.01.03-.02.05-.04.08-.06.12-.14.15-.22.01-.02.01-.04.01-.07.02-.03.02-.05.02-.08v-8.7l8.52.94-4.04 5.22c-.13.17-.14.39-.02.57l4.02 6.38L58.285 68.439z"/>
</svg>