<svg xmlns="http://www.w3.org/2000/svg" viewBox="0 0 80 80">
<path d="M17.989 45.867c-.021-.032-.043-.065-.054-.108-.011-.021-.021-.043-.021-.065l-.011-.054-2.361-10.213C9.911 36.894 6.017 38.49 4.4 39.202l6.794 4.853c.227.162.291.453.173.679l-3.731 7.484c5.823-1.844 11.992-3.139 14.699-3.678l-4.152-2.491C18.096 46.007 18.032 45.942 17.989 45.867zM19.746 45.737l3.268 1.963-.604-2.621C21.256 45.328 20.372 45.565 19.746 45.737zM68.806 44.055l6.794-4.853c-1.607-.712-5.5-2.308-11.13-3.775L62.108 45.64l-.011.054c0 .022-.011.043-.021.065-.01.043-.033.075-.054.108-.021.032-.043.065-.076.097-.021.022-.043.043-.075.065-.011 0-.033.011-.043.022l-4.152 2.491c2.708.539 8.876 1.833 14.7 3.678l-3.731-7.484C68.525 44.508 68.59 44.217 68.806 44.055zM57.6 45.09l-.604 2.61 3.257-1.963C59.628 45.554 58.744 45.328 57.6 45.09zM57.309 43.915c.162.032.312.054.453.097.032 0 .054 0 .076.011.723.151 1.337.302 1.855.431.41.108.744.205 1.035.281.173.054.324.097.453.14l.086-.367 2.157-9.339.119-.528.118-.518.529-2.276c-1.683-.809-9.393-4.066-24.19-4.066-14.915 0-22.518 3.257-24.179 4.066l.529 2.265.119.528.118.528 2.157 9.339.086.367c.129-.043.27-.086.431-.129.291-.086.637-.183 1.057-.291.518-.129 1.133-.28 1.855-.431.021-.011.043-.011.075-.011.141-.032.291-.065.442-.097.021-.011.043-.011.075-.022.151-.022.302-.054.453-.086.022 0 .055-.011.076-.022 3.58-.679 9.113-1.38 16.705-1.38 7.604 0 13.136.701 16.716 1.38.022.011.055.022.076.022.151.032.302.054.442.086C57.266 43.904 57.288 43.904 57.309 43.915z"/>
</svg>