<svg xmlns="http://www.w3.org/2000/svg" viewBox="0 0 80 80">
<path d="M8.491 28.008c-.023-.234.093-.445.281-.562.199-.117.445-.117.633.012.012.012 1.477.984 2.965.703.597-.105 1.113-.41 1.582-.914C12 24.745 8.701 25.684 7.26 27.125c-.715.726-.984 2.359-1.078 2.711.41.187 1.23.504 2.59.879L8.491 28.008zM69.943 27.729c.184-.126.424-.126.608-.011.195.115.31.321.287.55l-.275 2.648c1.318-.367 2.109-.677 2.522-.86-.081-.344-.344-1.963-1.055-2.674-1.387-1.398-4.631-2.163-6.534.129.447.493.962.802 1.547.906C68.487 28.692 69.92 27.741 69.943 27.729zM69.382 31.226l.206-2.029c-.069.034-.149.057-.229.08-.149.046-.321.103-.516.149-.126.034-.264.069-.413.103-.138.023-.287.046-.436.069 0 0-.012 0-.023 0-.355.034-.746.023-1.135-.046-.596-.115-1.134-.367-1.627-.734v3.244c1.616-.264 2.946-.539 4.035-.802C69.29 31.249 69.336 31.237 69.382 31.226zM71.58 31.851c-.012 0-.012 0-.023 0-.012.012-.012.012-.024.012-.128.047-.281.082-.421.129-.199.047-.398.094-.609.152h-.036c-.187.047-.386.094-.586.152-.14.024-.281.059-.433.094-1.043.234-2.262.469-3.68.703-.188.035-.387.07-.586.105-.188.024-.387.047-.585.082-5.32.785-13.183 1.441-24.596 1.441-11.413 0-19.276-.656-24.596-1.441-.199-.035-.398-.058-.586-.094-.199-.035-.398-.058-.586-.094-1.43-.234-2.648-.469-3.68-.715-.152-.023-.281-.058-.421-.082-.199-.058-.398-.105-.586-.152H9.51c-.21-.059-.421-.105-.608-.164-.153-.035-.293-.07-.422-.117-1.031-.281-1.769-.551-2.285-.75l.011.117 1.219 17.178c7.98 4.992 32.33 5.05 32.576 5.05.258 0 24.607-.059 32.587-5.05l1.219-17.178.012-.117C73.303 31.312 72.587 31.582 71.58 31.851zM11.42 29.367c-.012 0-.023 0-.023 0-.152-.012-.305-.035-.445-.07-.34-.059-.668-.153-.949-.258-.083-.023-.164-.047-.234-.082l.211 2.074c.047.012.094.023.14.035 1.102.27 2.461.551 4.113.82V28.57c-.492.375-1.043.633-1.652.75C12.181 29.391 11.784 29.402 11.42 29.367z"/>
</svg>