<svg xmlns="http://www.w3.org/2000/svg" viewBox="0 0 80 80">
<path d="M65.095 57.892c-.276 0-.5-.224-.5-.5 0-.276.224-.5.5-.5 4.77 0 8.651-3.881 8.651-8.651V26.708c0-4.771-3.881-8.651-8.651-8.651H28.622c-.276 0-.5-.224-.5-.5 0-.276.224-.5.5-.5h36.473c5.322 0 9.651 4.329 9.651 9.651v21.533C74.746 53.563 70.416 57.892 65.095 57.892zM16.117 68.314c-.272 0-.528-.13-.692-.361-.212-.3-.213-.688-.002-.988 2.695-3.852 3.874-7.641 4.252-9.072h-4.769c-5.322 0-9.651-4.329-9.651-9.651V26.708c0-5.322 4.33-9.651 9.651-9.651.276 0 .5.224.5.5 0 .276-.224.5-.5.5-4.77 0-8.651 3.881-8.651 8.651v21.533c0 4.771 3.881 8.651 8.651 8.651h5.404c.15 0 .292.067.387.183.095.116.133.269.104.415-.04.198-.985 4.785-4.317 9.697 2.914-1.073 11.388-6.17 15.229-10.143.094-.098.224-.152.359-.152H51.49c.276 0 .5.224.5.5 0 .276-.224.5-.5.5H32.281C28 62.227 18.913 67.563 16.352 68.282 16.274 68.304 16.194 68.314 16.117 68.314zM19.412 17.905h.137c.371 0 .705.142 1.001.425.296.283.444.637.444 1.06 0 .417-.148.76-.444 1.03-.296.27-.663.405-1.099.405-.475 0-.871-.19-1.187-.571-.316-.381-.474-.923-.474-1.626 0-.645.138-1.248.415-1.812.277-.564.615-1.009 1.016-1.338.401-.329.757-.493 1.069-.493.208 0 .371.062.488.186.117.124.176.283.176.479 0 .286-.127.498-.381.635-.345.188-.619.41-.82.664C19.552 17.203 19.438 17.521 19.412 17.905zM23.728 17.905h.127c.365 0 .695.142.991.425.296.283.444.637.444 1.06 0 .41-.148.755-.444 1.035-.296.28-.663.42-1.099.42-.482 0-.879-.195-1.191-.586-.312-.391-.469-.935-.469-1.631 0-.501.082-.974.244-1.416.162-.442.373-.828.63-1.157.257-.329.534-.589.83-.781.296-.192.562-.288.796-.288.215 0 .379.061.493.181.114.12.171.281.171.483 0 .293-.127.505-.381.635-.358.202-.628.425-.811.669C23.876 17.198 23.767 17.515 23.728 17.905zM56.009 57.914h-.146c-.365 0-.695-.148-.991-.444-.296-.296-.444-.646-.444-1.05 0-.417.148-.765.444-1.045.296-.28.659-.42 1.089-.42.488 0 .887.195 1.196.586.309.391.464.935.464 1.631 0 .638-.135 1.238-.405 1.802-.27.563-.602 1.011-.996 1.343-.394.332-.75.498-1.069.498-.202 0-.366-.063-.493-.19-.127-.127-.19-.281-.19-.464 0-.293.133-.508.4-.645.345-.202.615-.423.811-.664C55.875 58.611 55.983 58.298 56.009 57.914zM60.306 57.914h-.117c-.371 0-.708-.146-1.011-.439-.303-.293-.454-.645-.454-1.055 0-.41.15-.757.449-1.04.299-.283.664-.425 1.094-.425.495 0 .895.192 1.201.576.306.384.459.931.459 1.641 0 .657-.135 1.265-.405 1.821-.27.557-.602.999-.996 1.328-.394.329-.754.493-1.079.493-.208 0-.375-.062-.498-.186-.124-.124-.186-.28-.186-.469 0-.286.133-.501.4-.645.371-.215.648-.438.83-.669C60.175 58.615 60.279 58.305 60.306 57.914z"/>
</svg>