<svg xmlns="http://www.w3.org/2000/svg" viewBox="0 0 80 80">
<path d="M16.047 54.912c1.65 0 2.992 1.342 2.992 2.992 0 1.65-1.342 2.992-2.992 2.992-1.65 0-2.992-1.342-2.992-2.992C13.055 56.254 14.397 54.912 16.047 54.912ZM16.047 53.912c-2.205 0-3.992 1.787-3.992 3.992 0 2.205 1.788 3.992 3.992 3.992 2.205 0 3.992-1.787 3.992-3.992C20.039 55.699 18.252 53.912 16.047 53.912L16.047 53.912zM10.724 62.897c.916 0 1.662.745 1.662 1.662 0 .916-.746 1.661-1.662 1.661-.916 0-1.662-.745-1.662-1.661C9.062 63.642 9.808 62.897 10.724 62.897ZM10.724 61.897c-1.47 0-2.662 1.192-2.662 2.662 0 1.47 1.192 2.661 2.662 2.661 1.47 0 2.662-1.192 2.662-2.661C13.386 63.088 12.194 61.897 10.724 61.897L10.724 61.897zM49.073 60.461c-3.754 0-7.238-1.637-9.644-4.512-2.327 2.134-5.325 3.302-8.502 3.302-5.077 0-9.568-2.976-11.563-7.619-.985.24-1.977.361-2.954.361-6.946 0-12.597-5.651-12.597-12.598 0-6.828 5.46-12.405 12.244-12.593-.097-.636-.146-1.28-.146-1.925 0-6.946 5.651-12.598 12.598-12.598 4.048 0 7.806 1.927 10.179 5.187 2.381-2.535 5.69-3.977 9.177-3.977 6.483 0 11.865 4.916 12.516 11.304 1.049-.276 2.126-.416 3.211-.416 6.946 0 12.597 5.651 12.597 12.598C76.189 43.922 70.536 49.573 63.59 49.573c-.677 0-1.356-.055-2.025-.163C60.796 55.65 55.413 60.461 49.073 60.461zM39.478 54.711c.011 0 .022 0 .033.001.144.01.276.08.364.194 2.22 2.895 5.573 4.555 9.198 4.555 6.007 0 11.081-4.691 11.551-10.68.011-.144.083-.274.198-.36.115-.088.261-.118.402-.09.777.16 1.573.242 2.367.242 6.395 0 11.597-5.203 11.597-11.598C75.188 30.58 69.985 25.378 63.59 25.378c-1.191 0-2.372.183-3.511.544-.148.046-.308.022-.436-.065-.127-.088-.207-.23-.215-.385-.324-6.158-5.405-10.981-11.566-10.981-3.409 0-6.633 1.497-8.846 4.107-.102.12-.255.197-.412.176-.158-.01-.301-.094-.388-.226-2.155-3.299-5.785-5.268-9.71-5.268-6.395 0-11.598 5.203-11.598 11.598 0 .784.079 1.568.235 2.333.03.149-.009.304-.106.421-.098.116-.237.167-.396.179l-.233-.013c-6.395 0-11.597 5.203-11.597 11.598 0 6.395 5.203 11.598 11.597 11.598 1.03 0 2.078-.146 3.117-.437.246-.068.507.06.6.3 1.75 4.492 5.989 7.395 10.8 7.395 3.096 0 6.007-1.205 8.198-3.394C39.219 54.764 39.346 54.711 39.478 54.711z"/>
</svg>