<svg xmlns="http://www.w3.org/2000/svg" viewBox="0 0 80 80">
<path d="M3.229 44.122c0-6.884 5.581-12.465 12.465-12.465.085 0 .167.011.252.013-.165-.809-.252-1.647-.252-2.506 0-6.884 5.581-12.465 12.465-12.465 4.372 0 8.211 2.255 10.436 5.66 2.287-2.697 5.694-4.414 9.507-4.414 6.661 0 12.085 5.228 12.431 11.803 1.19-.378 2.457-.585 3.773-.585 6.884 0 12.465 5.581 12.465 12.465 0 6.884-5.581 12.465-12.465 12.465-.872 0-1.722-.091-2.543-.261C61.26 60.255 55.9 65.313 49.349 65.313c-4.033 0-7.608-1.924-9.887-4.894-2.256 2.254-5.37 3.648-8.811 3.648-3.878 0-7.341-1.771-9.627-4.547l-10.317 9.533 3.355-12.583C7.951 55.668 3.229 50.453 3.229 44.122z"/>
</svg>