<svg xmlns="http://www.w3.org/2000/svg" viewBox="0 0 80 80">
<path d="M46.672 63.776h-13.31c-1.587 0-2.877-1.291-2.877-2.878 0-3.407-1.553-6.752-4.262-9.176-5.055-4.524-7.568-11.273-6.723-18.054 1.163-9.328 8.796-16.85 18.15-17.883 5.967-.667 11.699 1.165 16.133 5.138 4.374 3.918 6.883 9.53 6.883 15.398 0 5.861-2.505 11.469-6.872 15.386-2.719 2.438-4.279 5.801-4.279 9.225C49.515 62.501 48.24 63.776 46.672 63.776zM40.026 17.154c-.732 0-1.469.04-2.211.122-8.672.959-15.748 7.931-16.826 16.578-.785 6.293 1.546 12.555 6.235 16.751 3.026 2.707 4.761 6.459 4.761 10.293 0 .76.618 1.378 1.377 1.378h13.31c.741 0 1.344-.603 1.344-1.344 0-3.85 1.741-7.618 4.778-10.342 4.05-3.632 6.373-8.833 6.373-14.269 0-5.442-2.327-10.647-6.384-14.281C49.221 18.85 44.756 17.154 40.026 17.154zM48.613 67.003H31.613c-.352 0-.638-.286-.638-.638v-.44c0-.352.286-.638.638-.638h16.999c.353 0 .638.286.638.638v.44C49.251 66.717 48.965 67.003 48.613 67.003zM48.402 69.744H31.824c-.348 0-.631-.282-.631-.631v-.455c0-.348.282-.631.631-.631h16.579c.348 0 .631.282.631.631v.455C49.033 69.462 48.751 69.744 48.402 69.744zM32.507 70.941c-.491 0-.688.645-.274.91 2.25 1.437 4.909 2.27 7.762 2.27 2.852 0 5.512-.833 7.762-2.27.414-.265.218-.91-.274-.91H32.507zM24.522 33.722c-.061 0-.123-.008-.185-.023-.402-.102-.644-.51-.542-.911 1.702-6.702 7.222-11.684 14.062-12.691.411-.053.791.223.851.633.06.41-.223.791-.633.852-6.24.919-11.274 5.463-12.827 11.576C25.162 33.496 24.857 33.722 24.522 33.722zM40 11.934c-.414 0-.75-.336-.75-.75V5.88c0-.414.336-.75.75-.75.414 0 .75.336.75.75v5.305C40.75 11.599 40.414 11.934 40 11.934zM71.434 37.239h-5.305c-.414 0-.75-.336-.75-.75 0-.414.336-.75.75-.75h5.305c.414 0 .75.336.75.75C72.184 36.903 71.849 37.239 71.434 37.239zM13.871 37.239H8.566c-.414 0-.75-.336-.75-.75 0-.414.336-.75.75-.75h5.305c.414 0 .75.336.75.75C14.621 36.903 14.285 37.239 13.871 37.239zM20.288 19.031c-.192 0-.384-.073-.53-.22l-3.751-3.751c-.293-.293-.293-.768 0-1.061.293-.293.768-.293 1.061 0l3.751 3.751c.293.293.293.768 0 1.061C20.671 18.958 20.48 19.031 20.288 19.031zM59.712 19.031c-.192 0-.384-.073-.53-.22-.293-.293-.293-.768 0-1.061L62.933 14c.293-.293.768-.293 1.061 0 .293.293.293.768 0 1.061l-3.751 3.751C60.096 18.958 59.904 19.031 59.712 19.031z"/>
</svg>