<svg xmlns="http://www.w3.org/2000/svg" viewBox="0 0 80 80">
<path d="M11.328 69.003c-.293 0-.57-.14-.747-.391-.229-.323-.23-.742-.002-1.068 2.76-3.944 4.183-7.793 4.829-9.94C8.927 53.574 5.364 47.598 5.364 40.736c0-13.74 13.595-22.618 34.636-22.618 20.717 0 34.636 9.09 34.636 22.618 0 15.625-17.396 22.619-34.636 22.619-5.158 0-9.919-.521-14.157-1.547-4.999 4.25-11.621 6.419-14.261 7.159C11.498 68.991 11.412 69.003 11.328 69.003zM40 19.118c-20.433 0-33.636 8.485-33.636 21.618 0 6.612 3.512 12.37 9.889 16.212.194.117.285.349.223.566-.598 2.087-2.032 6.194-4.959 10.433 2.736-.784 9.123-2.94 13.868-7.063.123-.105.291-.145.448-.107 4.222 1.048 8.989 1.579 14.167 1.579 20.119 0 33.636-8.688 33.636-21.619C73.636 27.806 60.119 19.118 40 19.118z"/>
</svg>