<svg xmlns="http://www.w3.org/2000/svg" viewBox="0 0 80 80">
<path d="M67.568 24.606H57.471C52.686 20.69 46.49 18.536 40 18.536c-6.489 0-12.687 2.154-17.471 6.07H12.431c-2.415 0-4.379 1.965-4.379 4.38v22.028c0 2.415 1.965 4.379 4.379 4.379h10.097c4.785 3.916 10.982 6.07 17.471 6.07 6.49 0 12.687-2.154 17.471-6.07h10.097c2.415 0 4.38-1.964 4.38-4.379V28.986C71.948 26.571 69.983 24.606 67.568 24.606zM70.958 51.015c0 1.868-1.521 3.389-3.39 3.389H57.115l-.137.114C52.351 58.358 46.322 60.474 40 60.474c-6.322 0-12.351-2.115-16.977-5.956l-.137-.114H12.431c-1.869 0-3.389-1.521-3.389-3.389V28.986c0-1.869 1.521-3.39 3.389-3.39h10.454l.137-.114c4.626-3.841 10.655-5.956 16.977-5.956 6.322 0 12.352 2.115 16.978 5.956l.137.114h10.454c1.869 0 3.39 1.521 3.39 3.39V51.015zM67.568 26.808H56.677l-.474-.394c-4.408-3.66-10.162-5.676-16.203-5.676-6.041 0-11.795 2.016-16.203 5.676l-.474.394H12.432c-1.201 0-2.177.977-2.177 2.177v22.029c0 1.2.977 2.177 2.177 2.177h10.891l.474.394C28.205 57.246 33.96 59.262 40 59.262c6.041 0 11.795-2.016 16.203-5.677l.474-.394h10.891c1.201 0 2.177-.977 2.177-2.177V28.985C69.745 27.785 68.769 26.808 67.568 26.808zM68.745 51.015c0 .648-.528 1.177-1.177 1.177H56.316l-.751.624c-4.229 3.512-9.757 5.446-15.564 5.446-5.807 0-11.335-1.935-15.564-5.446l-.752-.624H12.432c-.649 0-1.177-.528-1.177-1.177V28.985c0-.648.528-1.177 1.177-1.177h11.252l.752-.624c4.229-3.512 9.756-5.445 15.564-5.445 5.808 0 11.336 1.934 15.564 5.445l.751.624h11.252c.649 0 1.177.528 1.177 1.177V51.015z"/>
</svg>