<svg xmlns="http://www.w3.org/2000/svg" viewBox="0 0 80 80">
<path d="M67.286 40.298c.166-.165.166-.43 0-.596l-2.759-2.77c-.143-.144-.166-.364-.055-.53l1.776-2.671c.133-.199.078-.452-.121-.585l-2.704-1.81c-.154-.099-.22-.276-.176-.453l.927-3.708c.056-.232-.077-.464-.309-.519l-3.675-.894c-.188-.044-.331-.221-.331-.408v-3.686c0-.243-.188-.43-.419-.43h-3.664c-.188 0-.364-.132-.409-.32l-.916-3.686c-.055-.221-.287-.364-.519-.309l-3.675.927c-.188.044-.387-.044-.475-.221l-1.865-3.741c-.11-.199-.364-.287-.574-.188l-3.764 1.887c-.166.077-.353.044-.485-.077l-2.792-2.803c-.166-.165-.441-.165-.607 0l-2.792 2.803c-.132.121-.331.155-.485.077l-3.764-1.887c-.209-.099-.463-.011-.574.188l-1.865 3.741c-.088.177-.287.265-.474.221l-3.675-.927c-.232-.055-.463.088-.519.309l-.916 3.686c-.055.188-.221.32-.419.32H20.56c-.232 0-.431.188-.431.43v3.686c0 .188-.132.364-.319.408l-3.675.894c-.231.055-.364.287-.31.519l.927 3.708c.044.177-.033.353-.176.453l-2.715 1.81c-.188.133-.243.386-.11.585l1.776 2.671c.11.166.088.386-.055.53l-2.759 2.77c-.166.166-.166.43 0 .596l2.759 2.77c.143.144.165.364.055.53l-1.776 2.671c-.133.199-.077.464.11.585l2.715 1.81c.143.099.22.287.176.452l-.927 3.719c-.055.221.078.452.31.508l3.675.894c.188.055.319.221.319.419v3.686c0 .232.199.419.431.419h3.653c.199 0 .364.133.419.32l.916 3.686c.056.221.287.364.519.309l3.675-.916c.188-.055.386.044.474.221l1.865 3.73c.11.21.364.287.574.188l3.764-1.876c.155-.088.353-.055.485.077l2.792 2.792c.166.166.442.166.607 0l2.792-2.792c.132-.132.32-.166.485-.077l3.764 1.876c.209.099.463.022.574-.188l1.865-3.73c.088-.177.288-.276.475-.221l3.675.916c.232.055.463-.088.519-.309l.916-3.686c.044-.188.221-.32.409-.32h3.664c.232 0 .419-.188.419-.419v-3.686c0-.199.144-.364.331-.419l3.675-.894c.232-.055.364-.287.309-.508l-.927-3.719c-.044-.165.022-.353.176-.452l2.704-1.81c.199-.121.254-.386.121-.585l-1.776-2.671c-.111-.165-.088-.386.055-.53L67.286 40.298zM60.622 49.778l.373 1.477-1.453.355c-1.407.345-2.39 1.598-2.39 3.046v1.397h-1.375c-1.432 0-2.68.972-3.035 2.367L52.376 59.9l-1.813-.446-.403-.022c-1.198 0-2.271.665-2.798 1.732l-.847 1.694-1.71-.855c-1.189-.612-2.706-.355-3.627.587l-1.181 1.171-1.178-1.178c-.582-.595-1.368-.923-2.211-.923-.487 0-.975.118-1.404.34l-1.716.858-.848-1.696c-.541-1.067-1.612-1.73-2.797-1.73h-.276l-1.942.467-.366-1.469c-.353-1.399-1.605-2.376-3.045-2.376h-1.376v-1.397c0-1.453-.988-2.706-2.399-3.046l-1.433-.354.375-1.479c.319-1.291-.205-2.643-1.301-3.361l-.811-.541.508-.772c.828-1.236.667-2.895-.382-3.943l-1.157-1.157 1.16-1.15c1.045-1.059 1.205-2.72.381-3.949l-.508-.766.81-.54c1.093-.729 1.616-2.084 1.3-3.375l-.374-1.477 1.437-.353c1.41-.329 2.395-1.582 2.395-3.048v-1.397h1.376c1.438 0 2.69-.972 3.045-2.365l.365-1.469 1.722.431.496.026c1.184 0 2.256-.663 2.798-1.733l.846-1.692 1.722.869c1.215.592 2.688.338 3.619-.593l1.169-1.179 1.18 1.18c.93.93 2.389 1.188 3.625.589l1.715-.866.844 1.69c.529 1.07 1.602 1.735 2.8 1.735h.276l1.942-.457.365 1.471c.354 1.392 1.603 2.363 3.034 2.363h1.375v1.397c0 1.464.99 2.717 2.4 3.046l1.443.354-.374 1.48c-.315 1.287.207 2.642 1.301 3.371l.807.538-.517.769c-.814 1.233-.649 2.894.396 3.951L63.763 40l-1.158 1.149c-1.044 1.058-1.205 2.719-.38 3.951l.509.773-.808.539C60.825 47.134 60.301 48.485 60.622 49.778z"/>
</svg>