<svg xmlns="http://www.w3.org/2000/svg" viewBox="0 0 80 80">
<path d="M73.333 39.554c-.124-.063-3.036-1.59-3.036-5.623 0-.572.17-1.433.368-2.43.527-2.665 1.25-6.314-.455-8.81-1.943-2.845-4.772-2.513-4.828-2.504H54.577c-.896-1.002-5.441-5.519-14.577-5.519-9.136 0-13.681 4.517-14.577 5.519l-10.742.004c-.12-.014-2.948-.345-4.891 2.5-1.704 2.495-.982 6.145-.455 8.81.197.997.367 1.857.367 2.43 0 4.033-2.912 5.56-3.036 5.623L5.79 40.001l.877.445c.124.063 3.036 1.59 3.036 5.624 0 .572-.17 1.433-.367 2.429-.527 2.665-1.25 6.314.455 8.81 1.943 2.846 4.771 2.517 4.827 2.505h10.806c.896 1.002 5.441 5.518 14.577 5.518 9.137 0 13.682-4.516 14.577-5.518l10.742-.004c.119.014 2.948.345 4.891-2.501 1.704-2.495.982-6.145.455-8.81-.197-.996-.368-1.856-.368-2.429 0-4.034 2.912-5.561 3.036-5.624l.877-.447L73.333 39.554zM69.297 46.07c0 .67.179 1.575.387 2.623.493 2.49 1.168 5.902-.299 8.051-1.587 2.324-3.845 2.084-4.002 2.069l-11.275.001L53.957 59C53.914 59.054 49.55 64.331 40 64.331c-9.55 0-13.914-5.277-13.957-5.331l-.15-.187h-.239l-11.1.004c-.023.005-2.336.272-3.938-2.073-1.468-2.148-.792-5.561-.299-8.051.208-1.048.386-1.953.386-2.623 0-3.42-1.845-5.287-2.891-6.07 1.045-.783 2.891-2.649 2.891-6.069 0-.671-.179-1.575-.386-2.624-.493-2.491-1.168-5.902.299-8.051 1.587-2.323 3.845-2.083 4.001-2.068l11.276-.001.15-.186c.043-.054 4.407-5.332 13.957-5.332 9.55 0 13.914 5.278 13.957 5.332l.151.187 11.339-.004c.023-.005 2.337-.271 3.938 2.072 1.467 2.148.792 5.56.299 8.051-.208 1.049-.387 1.953-.387 2.624 0 3.42 1.846 5.286 2.891 6.069C71.143 40.783 69.297 42.65 69.297 46.07zM68.09 33.931c0-.754.169-1.712.384-2.925l.139-.765c.408-2.203.871-4.7-.226-6.306-.953-1.394-2.218-1.555-2.789-1.556l-11.245.015-.819-.012-.514-.621c-.165-.199-4.139-4.886-13.021-4.886-8.882 0-12.845 4.673-13.014 4.878l-.512.641H14.605l-.082.008-.206-.022c-.493 0-1.745.151-2.705 1.556-1.096 1.605-.633 4.103-.225 6.306l.139.765c.214 1.213.384 2.171.384 2.925 0 2.227-.682 4.16-2.026 5.746L9.61 40l.274.323c1.345 1.586 2.026 3.52 2.026 5.747 0 .752-.169 1.711-.384 2.925l-.139.764c-.408 2.203-.871 4.7.225 6.306.953 1.394 2.219 1.555 2.785 1.556l11.25-.014.819.011.514.621c.165.199 4.139 4.886 13.02 4.886 8.861 0 12.843-4.671 13.014-4.877l.512-.641h11.869l.085-.008.202.021c.494 0 1.745-.151 2.705-1.556 1.096-1.605.633-4.103.225-6.306l-.139-.764c-.214-1.214-.384-2.173-.384-2.925 0-2.228.682-4.161 2.026-5.747L70.39 40l-.274-.323C68.772 38.091 68.09 36.157 68.09 33.931zM67.09 46.07c0 .84.176 1.836.399 3.099l.141.771c.373 2.014.795 4.295-.067 5.56-.691 1.011-1.544 1.12-1.817 1.124l-12.7-.018-.807 1.009c-.153.184-3.842 4.509-12.239 4.509-8.416 0-12.097-4.338-12.25-4.522l-.809-.979-1.288-.017-11.24.004-.073.014c-.426-.004-1.239-.155-1.901-1.124-.864-1.265-.441-3.546-.068-5.56l.141-.771c.223-1.263.399-2.259.399-3.099 0-2.288-.69-4.378-2.001-6.07 1.311-1.692 2.001-3.781 2.001-6.069 0-.841-.176-1.838-.399-3.099l-.141-.772c-.373-2.014-.795-4.296.068-5.56.691-1.011 1.544-1.12 1.813-1.124l12.703.019.808-1.01c.152-.184 3.822-4.509 12.238-4.509 8.416 0 12.097 4.338 12.25 4.522l.809.979 1.289.018 11.243-.004.07-.015c.426.004 1.24.155 1.902 1.124.863 1.264.441 3.546.068 5.56l-.141.772c-.223 1.261-.399 2.258-.399 3.099 0 2.288.69 4.377 2.001 6.069C67.781 41.692 67.09 43.782 67.09 46.07z"/>
</svg>