<svg xmlns="http://www.w3.org/2000/svg" viewBox="0 0 80 80">
<path d="M72.297 29.927l-.082-2.998-2.927.315c-1.051 0-1.405-.454-1.405-1.799v-2.707h-3.633c-.5-2.309-2.561-3.999-4.964-3.999H20.714c-2.402 0-4.463 1.69-4.963 3.999h-3.633v2.707c0 1.345-.372 1.8-1.419 1.804l-2.995-.322v23.148l.083 2.998 2.927-.316c1.05 0 1.405.454 1.405 1.798v2.707h3.633c.5 2.309 2.561 3.999 4.963 3.999h38.571c2.403 0 4.463-1.69 4.964-3.999h3.633v-2.707c0-1.345.372-1.798 1.419-1.802l2.996.321L72.297 29.927zM71.297 51.962l-1.942-.206c-2.472.001-2.472 2.106-2.472 2.799v1.707h-3.495l-.055.438c-.258 2.03-1.998 3.562-4.047 3.562H20.714c-2.049 0-3.789-1.531-4.046-3.562l-.056-.438h-3.495v-1.707c0-.691 0-2.795-2.453-2.795-.002 0-.003 0-.005 0l-1.905.204-.052-1.902V28.039l1.942.207c2.472-.003 2.472-2.108 2.472-2.801v-1.707h3.495l.056-.438c.257-2.03 1.997-3.562 4.046-3.562h38.571c2.049 0 3.789 1.531 4.047 3.562l.055.438h3.495v1.707c0 .691 0 2.796 2.454 2.796.001 0 .003 0 .005 0l1.904-.203.052 1.902V51.962zM66.806 28.592c-.75-.675-1.13-1.733-1.13-3.146v-.5h-3.518v-1.127c0-1.584-1.288-2.872-2.872-2.872H20.714c-1.583 0-2.872 1.288-2.872 2.872v1.127h-3.518v.5c0 1.409-.378 2.466-1.124 3.141-1.114 1.007-2.723.855-2.739.856L9.91 29.387v21.23l.553-.06c.016 0 1.607-.158 2.731.852.75.674 1.13 1.732 1.13 3.146v.5h3.518v1.127c0 1.584 1.288 2.872 2.872 2.872h38.572c1.583 0 2.872-1.288 2.872-2.872v-1.127h3.518v-.5c0-1.409.378-2.465 1.124-3.14 1.114-1.008 2.723-.856 2.738-.857l.552.056v-21.23l-.553.06C69.521 29.443 67.93 29.601 66.806 28.592zM69.09 49.552c-.706.027-1.952.215-2.952 1.113-.874.785-1.359 1.924-1.447 3.39h-3.533v2.127c0 1.032-.84 1.872-1.872 1.872H20.714c-1.032 0-1.872-.84-1.872-1.872v-2.127H15.31c-.088-1.466-.574-2.604-1.447-3.39-1-.898-2.247-1.086-2.953-1.113V30.448c.706-.027 1.952-.214 2.952-1.113.874-.784 1.359-1.924 1.448-3.39h3.533v-2.127c0-1.032.839-1.872 1.872-1.872h38.572c1.032 0 1.872.84 1.872 1.872v2.127h3.533c.088 1.466.574 2.605 1.447 3.39 1 .899 2.247 1.086 2.952 1.113V49.552z"/>
</svg>