<svg xmlns="http://www.w3.org/2000/svg" viewBox="0 0 80 80">
<path d="M61.409 31.133V18.592H48.868L40 9.725l-8.867 8.867H18.592v12.541L9.724 40l8.868 8.867v12.542h12.541L40 70.276l8.868-8.867h12.541V48.867L70.276 40 61.409 31.133zM60.563 48.517v12.046H48.517L40 69.081l-8.518-8.518H19.437V48.517L10.919 40l8.518-8.518V19.437h12.045L40 10.92l8.518 8.518h12.046v12.045L69.08 40 60.563 48.517zM59.387 31.97V20.613H48.03L40 12.582l-8.03 8.031H20.613V31.97L12.583 40l8.03 8.03v11.357H31.97l8.03 8.03 8.03-8.03h11.357V48.03l8.03-8.03L59.387 31.97zM58.387 47.616v10.771H47.616L40 66.004l-7.616-7.616H21.613V47.616L13.997 40l7.616-7.616V21.613h10.771L40 13.996l7.616 7.617h10.771v10.771L66.003 40 58.387 47.616z"/>
</svg>