<svg xmlns="http://www.w3.org/2000/svg" viewBox="0 0 80 80">
<path d="M68.082 39.448c0-3.443.596-5.341 1.17-9.281.485-3.41-2.152-6.445-5.584-6.445 0-2.792-2.262-4.966-4.944-4.966-.298 0-.596.033-.905.088-4.04.761-11.422 1.567-17.824 1.567-6.389 0-13.773-.806-17.812-1.567-3.046-.563-5.849 1.777-5.849 4.878-3.156 0-5.639 2.56-5.639 5.617 0 .276.011.552.055.828.574 3.94 1.17 5.838 1.17 9.281 0 3.443-.596 6.445-1.17 10.385-.496 3.41 2.152 6.456 5.584 6.456 0 2.781 2.263 4.955 4.944 4.955.298 0 .596-.033.905-.088 4.039-.761 11.423-1.556 17.812-1.556 6.401 0 13.784.795 17.824 1.556 3.045.563 5.849-1.777 5.849-4.867 3.156 0 5.64-2.582 5.64-5.639 0-.276-.011-.541-.055-.817C68.679 45.893 68.082 42.891 68.082 39.448zM63.668 53.582h-2.707v2.707c0 1.374-1.207 2.481-2.643 2.202-2.398-.445-10.364-1.599-18.323-1.599-7.949 0-15.914 1.153-18.319 1.6-1.36.27-2.635-.829-2.635-2.203v-2.707h-2.707c-.846 0-1.653-.371-2.216-1.02-.566-.651-.811-1.481-.689-2.332l.363-2.396c.448-2.938.835-5.478.835-8.386 0-2.918-.389-5.461-.84-8.405l-.016-.102c-.062-.412-.134-.564-.22-.721-.038-.068-.073-.133-.121-.444-.123-.857.122-1.688.689-2.339.556-.641 1.363-1.009 2.215-1.009h2.707v-2.707c0-1.374 1.227-2.494 2.641-2.212 2.201.417 10.29 1.608 18.313 1.608 8.033 0 16.124-1.191 18.33-1.609 1.365-.266 2.636.839 2.636 2.213v2.707h2.707c.853 0 1.66.368 2.217 1.01.566.65.81 1.48.688 2.333-.049.317-.084.381-.122.449-.086.156-.158.309-.22.719-.421 2.686-.856 5.462-.856 8.509 0 3.037.416 5.7.855 8.519l.342 2.259c.122.856-.123 1.687-.688 2.337C65.322 53.211 64.514 53.582 63.668 53.582z"/>
</svg>