<svg xmlns="http://www.w3.org/2000/svg" viewBox="0 0 80 80">
<path d="M69.533 30.244c-.982-3.896-4.513-6.798-8.718-6.798H48.123c-3.786 0-6.534-2.649-6.555-2.66L40 19.219l-1.556 1.567c-.022.022-2.77 2.66-6.555 2.66H19.198c-4.205 0-7.737 2.903-8.719 6.798-2.008.188-3.586 1.887-3.586 3.94v11.632c0 2.053 1.578 3.752 3.586 3.94.982 3.907 4.514 6.798 8.719 6.798h12.691c3.752 0 6.478 2.594 6.566 2.671L40 60.781l1.568-1.556c.021-.033 2.77-2.671 6.555-2.671h12.691c4.205 0 7.736-2.891 8.718-6.798 2.008-.188 3.576-1.887 3.576-3.94V34.184C73.108 32.131 71.541 30.432 69.533 30.244zM10.854 47.071c-.692 0-1.255-.562-1.255-1.255V34.184c0-.686.563-1.244 1.255-1.244h2.056v-.5c0-3.467 2.82-6.287 6.288-6.287h12.691c4.096 0 7.112-2.27 8.111-3.134 1 .864 4.018 3.134 8.123 3.134h12.691c1.674 0 3.25.653 4.436 1.84 1.187 1.188 1.84 2.767 1.84 4.447v.5h2.067c.686 0 1.244.559 1.244 1.244v11.632c0 .692-.558 1.255-1.244 1.255H67.09v.5c0 3.46-2.815 6.275-6.276 6.275H48.123c-4.105 0-7.124 2.271-8.123 3.135-.999-.864-4.015-3.135-8.111-3.135H19.198c-1.671 0-3.251-.654-4.447-1.84-1.187-1.187-1.84-2.762-1.84-4.436v-.5H10.854z"/>
</svg>