<svg xmlns="http://www.w3.org/2000/svg" viewBox="0 0 80 80">
<path d="M71.734 27.485l-2.45.265c-1.677 0-1.898-1.17-1.898-2.307v-2.207h-3.554c-.287-2.251-2.218-3.995-4.547-3.995H20.715c-2.329 0-4.26 1.744-4.547 3.995h-3.554v2.207c0 1.137-.221 2.307-1.975 2.307L8.2 27.485v22.58l.066 2.45 2.451-.254c1.677 0 1.898 1.159 1.898 2.295v2.207h3.554c.287 2.251 2.218 3.995 4.547 3.995h38.571c2.329 0 4.26-1.744 4.547-3.995h3.554v-2.207c0-1.137.221-2.295 1.964-2.295l2.45.254V29.946L71.734 27.485zM59.285 58.052H20.715c-1.033 0-1.873-.84-1.873-1.873v-2.122h-3.536c-.088-1.466-.574-2.604-1.448-3.389-1-.898-2.246-1.085-2.952-1.111V30.454c.706-.028 1.952-.218 2.952-1.118.874-.786 1.359-1.926 1.448-3.393h3.536v-2.122c0-1.033.84-1.873 1.873-1.873h38.571c1.033 0 1.873.84 1.873 1.873v2.122h3.535c.088 1.467.574 2.606 1.448 3.393 1 .9 2.247 1.09 2.952 1.118v19.103c-.706.026-1.953.213-2.953 1.111-.873.784-1.359 1.923-1.447 3.389h-3.535v2.122C61.159 57.212 60.318 58.052 59.285 58.052z"/>
</svg>