<svg xmlns="http://www.w3.org/2000/svg" viewBox="0 0 80 80">
<path d="M67.568 25.101H57.294c-4.525-3.763-10.606-6.07-17.294-6.07-6.676 0-12.758 2.307-17.293 6.07H12.432c-2.141 0-3.885 1.744-3.885 3.885v22.028c0 2.152 1.744 3.885 3.885 3.885h10.275c4.535 3.764 10.617 6.07 17.293 6.07 6.688 0 12.769-2.306 17.294-6.07h10.274c2.152 0 3.885-1.733 3.885-3.885V28.986C71.453 26.845 69.721 25.101 67.568 25.101zM68.75 51.015c0 .651-.53 1.182-1.182 1.182H56.319l-.743.622c-4.238 3.514-9.77 5.448-15.577 5.448-5.799 0-11.327-1.935-15.563-5.447l-.746-.623h-11.26c-.652 0-1.182-.53-1.182-1.182V28.986c0-.652.53-1.183 1.182-1.183h11.26l.744-.622C28.672 23.669 34.2 21.734 40 21.734c5.808 0 11.339 1.935 15.575 5.446l.745.623h11.249c.652 0 1.182.53 1.182 1.183V51.015z"/>
</svg>