<svg xmlns="http://www.w3.org/2000/svg" viewBox="0 0 80 80">
<path d="M67.914 40c0-.246-.096-.479-.271-.653l-2.756-2.669 1.78-2.669c.282-.425.167-.999-.257-1.281l-2.678-1.726.928-3.71c.06-.24.022-.49-.105-.702-.128-.212-.332-.36-.572-.419l-3.618-.822v-3.686c0-.51-.415-.924-.924-.924l-3.585.058-.921-3.683c-.06-.24-.21-.442-.422-.569-.212-.126-.461-.162-.698-.103L50.227 17.4l-1.865-3.731c-.228-.455-.784-.639-1.24-.413l-3.674 1.896-2.794-2.795c-.35-.351-.96-.351-1.308 0l-2.707 2.78-3.762-1.881c-.455-.229-1.011-.042-1.239.413l-1.779 3.691-3.671-.917c-.239-.062-.487-.024-.699.102-.212.127-.363.329-.423.569l-.847 3.625h-3.659c-.51 0-.924.414-.924.924l.058 3.612-3.676.896c-.241.059-.444.207-.572.42-.128.212-.166.461-.105.701l.959 3.629-2.709 1.807c-.423.282-.538.857-.256 1.281l1.789 2.573-2.766 2.765c-.174.175-.27.407-.27.653 0 .247.096.479.271.653 0 0 0 0 0 .001l2.755 2.669-1.779 2.668c-.281.423-.167.998.256 1.282l2.678 1.725-.927 3.71c-.06.24-.023.49.105.702.128.213.332.361.572.42l3.618.821v3.686c0 .51.415.925.924.925l3.585-.058.92 3.683c.124.494.626.797 1.121.672l3.586-.958 1.866 3.73c.228.455.784.639 1.24.413l3.674-1.896 2.794 2.795c.174.175.407.271.654.271l0 0c.247 0 .479-.096.653-.271l2.708-2.78 3.762 1.881c.455.228 1.011.041 1.239-.413l1.779-3.691 3.673.919c.494.122.997-.178 1.121-.673l.847-3.624h3.659c.509 0 .924-.415.924-.925l-.058-3.611 3.676-.896c.241-.059.444-.207.572-.419.128-.213.166-.462.106-.703l-.959-3.629 2.71-1.807c.422-.283.537-.857.255-1.281l-1.789-2.572 2.765-2.765C67.818 40.479 67.914 40.247 67.914 40zM64.172 42.711c-.31.31-.359.8-.116 1.167l1.738 2.605-2.647 1.764c-.324.217-.478.615-.384.993l.91 3.637-3.602.877c-.416.101-.706.47-.706.897v3.61h-3.583c-.425 0-.794.288-.896.7l-.902 3.607-3.601-.9c-.424-.102-.855.095-1.049.484l-1.832 3.662-3.695-1.848c-.356-.174-.784-.106-1.065.174L40 66.883l-2.741-2.741c-.177-.177-.413-.271-.652-.271-.141 0-.282.032-.414.098l-3.694 1.847-1.831-3.661c-.194-.391-.626-.588-1.051-.485l-3.599.9-.902-3.607c-.103-.412-.472-.7-.896-.7h-3.583v-3.61c0-.428-.291-.797-.706-.896l-3.602-.878.91-3.637c.094-.378-.06-.776-.384-.993l-2.646-1.764 1.738-2.606c.243-.365.194-.855-.116-1.165L13.117 40l2.712-2.712c.31-.311.358-.801.115-1.165l-1.737-2.605 2.646-1.765c.323-.217.478-.615.384-.993l-.909-3.636 3.603-.878c.415-.103.704-.472.704-.897v-3.609h3.583c.424 0 .793-.288.896-.7l.901-3.607 3.601.899c.424.104.855-.094 1.05-.483l1.832-3.663 3.693 1.846c.356.179.785.11 1.067-.172L40 13.117l2.741 2.741c.283.282.711.352 1.067.173l3.694-1.847 1.831 3.663c.195.391.627.588 1.051.483l3.6-.899.902 3.607c.103.412.472.7.896.7h3.583v3.609c0 .426.289.795.705.897l3.602.878-.909 3.636c-.094.378.06.777.384.993l2.646 1.765-1.736 2.605c-.243.364-.195.854.115 1.166L66.883 40 64.172 42.711zM63.051 35.453l1.068-1.602-1.643-1.094c-.749-.498-1.104-1.419-.885-2.291l.614-2.457-2.413-.589c-.963-.229-1.636-1.082-1.636-2.072v-2.402h-2.376c-.978 0-1.829-.664-2.067-1.614l-.609-2.438-2.409.604-.317.068h-.22c-.812 0-1.542-.451-1.906-1.178l-1.292-2.583-2.611 1.306c-.81.402-1.83.236-2.463-.399L40 14.824l-1.885 1.885c-.634.638-1.658.804-2.462.402l-2.614-1.307-1.292 2.583c-.364.727-1.094 1.178-1.888 1.178l-.322-.012-2.642-.66-.61 2.439c-.238.95-1.088 1.613-2.066 1.613h-2.376v2.402c0 .99-.668 1.842-1.627 2.07l-2.422.591.613 2.455c.22.873-.136 1.795-.884 2.293l-1.643 1.094 1.067 1.602c.561.841.448 1.972-.266 2.688L14.825 40l1.86 1.86c.713.716.824 1.846.265 2.687l-1.068 1.602 1.643 1.094c.748.498 1.104 1.419.885 2.291l-.615 2.458 2.414.589c.963.229 1.636 1.081 1.636 2.072v2.401h2.376c.979 0 1.829.664 2.067 1.614l.609 2.438 2.409-.604.316-.068h.22c.812 0 1.542.451 1.906 1.178l1.292 2.584 2.612-1.306c.807-.406 1.83-.237 2.461.397L40 65.176l1.886-1.885c.635-.638 1.659-.803 2.462-.402l2.614 1.308 1.292-2.584c.364-.727 1.094-1.178 1.887-1.178l.323.012 2.642.66.61-2.439c.238-.95 1.088-1.613 2.066-1.613h2.376v-2.401c0-.991.668-1.843 1.627-2.071l2.422-.589-.613-2.456c-.22-.874.135-1.796.884-2.294l1.642-1.094-1.067-1.602c-.56-.841-.448-1.972.267-2.688L65.176 40l-1.86-1.86C62.602 37.424 62.491 36.294 63.051 35.453zM62.61 41.152c-1.05 1.053-1.214 2.714-.391 3.949l.513.77-.81.539c-1.1.732-1.622 2.087-1.3 3.369l.37 1.479-1.442.352c-1.409.335-2.393 1.587-2.393 3.043v1.401h-1.376c-1.438 0-2.687.975-3.036 2.37l-.368 1.47-1.722-.431-.496-.028c-1.193 0-2.266.663-2.8 1.73l-.844 1.689-1.72-.86c-1.182-.591-2.686-.346-3.617.591L40 63.762l-1.18-1.179c-.93-.936-2.434-1.179-3.618-.587l-1.717.858-.845-1.689c-.534-1.067-1.607-1.73-2.8-1.73h-.274l-1.944.459-.367-1.469c-.351-1.396-1.6-2.371-3.038-2.371h-1.376v-1.401c0-1.457-.989-2.709-2.402-3.044l-1.433-.35.37-1.482c.322-1.281-.201-2.634-1.3-3.366l-.81-.539.513-.77c.822-1.235.659-2.896-.389-3.947L16.239 40l1.151-1.152c1.05-1.053 1.214-2.714.391-3.949l-.513-.77.81-.539c1.101-.732 1.623-2.086 1.3-3.368l-.369-1.479 1.442-.352c1.409-.335 2.393-1.586 2.393-3.042v-1.402h1.376c1.438 0 2.687-.975 3.037-2.37l.368-1.47 1.722.431.496.028c1.193 0 2.266-.663 2.8-1.73l.845-1.688 1.72.859c1.182.591 2.686.345 3.617-.591L40 16.238l1.18 1.179c.93.934 2.429 1.181 3.618.588l1.717-.858.845 1.688c.534 1.067 1.607 1.73 2.8 1.73h.273l1.945-.459.367 1.469c.351 1.396 1.6 2.371 3.037 2.371h1.376v1.402c0 1.456.989 2.708 2.402 3.044l1.433.35-.371 1.481c-.322 1.281.201 2.634 1.301 3.366l.81.539-.513.77c-.823 1.235-.66 2.896.389 3.947L63.762 40 62.61 41.152z"/>
</svg>