<svg xmlns="http://www.w3.org/2000/svg" viewBox="0 0 80 80">
<path d="M71.172 29.499v-3.768c0-2.312-1.884-4.196-4.207-4.196H13.046c-2.323 0-4.207 1.884-4.207 4.196v3.768C5.83 31.939 4 35.857 4 40c0 4.154 1.831 8.072 4.839 10.501v3.768c0 2.312 1.884 4.196 4.207 4.196h53.919c2.323 0 4.207-1.884 4.207-4.196v-3.768C74.18 48.071 76 44.153 76 40 76 35.857 74.18 31.939 71.172 29.499zM66.965 55.798H13.046c-.849 0-1.539-.686-1.539-1.528v-5.136l-.239-.155c-2.837-1.849-4.6-5.289-4.6-8.979 0-3.693 1.762-7.129 4.598-8.967l.241-.156V25.73c0-.843.69-1.527 1.539-1.527h53.919c.849 0 1.539.685 1.539 1.527v5.146l.24.155c2.83 1.842 4.588 5.277 4.588 8.968 0 3.687-1.759 7.127-4.589 8.979l-.239.156v5.135C68.504 55.112 67.813 55.798 66.965 55.798z"/>
</svg>