<svg xmlns="http://www.w3.org/2000/svg" viewBox="0 0 80 80">
<path d="M74.676 40.016l-1.84-1.91c-.014-.015-1.435-1.536-1.435-3.624 0-.809.127-1.681.262-2.608.364-2.498.817-5.605-1.384-8.434-2.993-3.85-8.428-4.295-12.256-4.295-2.123 0-4.17.159-6.001.303-1.229.096-2.389.187-3.192.187-4.36 0-5.557-.056-6.915-1.414L40 16.307l-1.914 1.914c-1.358 1.358-2.555 1.414-6.915 1.414-.804 0-1.964-.091-3.217-.188-1.807-.142-3.854-.301-5.977-.301-3.828 0-9.263.445-12.256 4.295-2.202 2.828-1.749 5.937-1.383 8.44.134.923.261 1.794.261 2.602 0 2.066-1.367 3.553-1.417 3.607l-1.857 1.894 1.839 1.91c.015.015 1.435 1.537 1.435 3.625 0 .807-.126 1.678-.262 2.607-.364 2.497-.817 5.605 1.384 8.435 2.992 3.847 8.428 4.293 12.257 4.294 2.123 0 4.169-.159 6.001-.303 1.228-.096 2.388-.187 3.192-.187 4.36 0 5.557.056 6.915 1.414L40 63.693l1.914-1.914c1.358-1.358 2.555-1.414 6.915-1.414.804 0 1.964.091 3.217.188 1.806.142 3.854.301 5.976.301 3.828 0 9.263-.445 12.256-4.294 2.201-2.829 1.749-5.937 1.384-8.438-.134-.924-.261-1.796-.261-2.604 0-2.067 1.367-3.554 1.417-3.608L74.676 40.016zM70.401 45.518c0 .88.132 1.787.272 2.752.336 2.31.755 5.184-1.184 7.677-2.724 3.502-7.849 3.907-11.467 3.907-2.083 0-4.11-.158-5.923-.299-1.249-.098-2.428-.19-3.271-.19-4.493 0-5.993.078-7.622 1.707L40 62.279l-1.207-1.207 0 0c-1.629-1.629-3.128-1.707-7.622-1.707-.843 0-2.022.093-3.296.192-1.788.139-3.813.297-5.898.297-3.618-.001-8.744-.407-11.467-3.907-1.939-2.493-1.521-5.367-1.183-7.684.14-.96.271-1.866.271-2.745 0-2.533-1.704-4.308-1.714-4.318l-1.166-1.211 1.186-1.209c.069-.074 1.695-1.842 1.695-4.298 0-.88-.132-1.786-.272-2.753-.336-2.31-.755-5.184 1.184-7.676 2.724-3.503 7.849-3.908 11.467-3.908 2.084 0 4.11.158 5.923.299 1.248.098 2.427.19 3.271.19 4.493 0 5.992-.078 7.622-1.707L40 17.721l1.207 1.207c1.629 1.629 3.129 1.707 7.622 1.707.843 0 2.022-.093 3.295-.192 1.788-.139 3.815-.297 5.898-.297 3.618 0 8.743.405 11.467 3.908 1.939 2.492 1.521 5.366 1.183 7.681-.14.96-.271 1.867-.271 2.748 0 2.532 1.704 4.307 1.714 4.317l1.166 1.211-1.185 1.209C72.027 41.294 70.401 43.06 70.401 45.518zM69.194 34.482c0-.969.145-1.964.286-2.927.334-2.298.681-4.674-.943-6.761-3.241-4.169-11.125-3.553-16.343-3.146-1.333.104-2.485.194-3.365.194-4.404 0-6.415 0-8.475-2.062L40 19.428l-.354.354c-2.061 2.062-4.071 2.062-8.475 2.062-.879 0-2.031-.09-3.365-.194-5.217-.405-13.102-1.021-16.343 3.146-1.623 2.087-1.277 4.463-.942 6.761.14.963.286 1.958.286 2.927 0 3.052-2.041 5.144-2.062 5.165l-.352.354.352.353c.021.021 2.061 2.096 2.061 5.165 0 .968-.146 1.964-.286 2.926-.334 2.298-.681 4.674.942 6.761 3.242 4.168 11.126 3.554 16.344 3.146 1.333-.104 2.485-.193 3.364-.193 4.404 0 6.415 0 8.475 2.061L40 60.572l.354-.354c2.061-2.061 4.071-2.061 8.476-2.061.879 0 2.031.09 3.364.193 5.218.409 13.103 1.021 16.344-3.146 1.624-2.087 1.277-4.463.943-6.761-.141-.962-.286-1.958-.286-2.926 0-3.053 2.041-5.145 2.062-5.166l.35-.354-.35-.352C71.235 39.626 69.194 37.534 69.194 34.482zM68.194 45.518c0 1.04.15 2.072.296 3.07.318 2.187.62 4.252-.742 6.003-2.911 3.743-10.473 3.155-15.477 2.763-1.354-.105-2.523-.196-3.441-.196-4.183 0-6.582 0-8.829 2.018-2.247-2.018-4.646-2.018-8.829-2.018-.918 0-2.087.091-3.442.196-5.003.394-12.565.98-15.477-2.763-1.362-1.751-1.061-3.816-.742-6.003.146-.998.296-2.03.296-3.07 0-2.735-1.396-4.739-2.039-5.519.644-.779 2.039-2.783 2.039-5.518 0-1.041-.15-2.073-.296-3.071-.319-2.187-.62-4.252.742-6.003 2.911-3.741 10.472-3.151 15.476-2.763 1.354.106 2.524.197 3.443.197 4.183 0 6.582 0 8.829-2.019 2.248 2.019 4.646 2.019 8.829 2.019.918 0 2.088-.091 3.442-.197 5.004-.389 12.565-.979 15.476 2.763 1.362 1.751 1.061 3.816.742 6.003-.146.998-.296 2.03-.296 3.071 0 2.734 1.396 4.738 2.039 5.518C69.589 40.779 68.194 42.783 68.194 45.518z"/>
</svg>