<svg xmlns="http://www.w3.org/2000/svg" viewBox="0 0 80 80">
<path d="M66.488 39.584c-.96-.64-1.785-1.477-2.454-2.487-.536-.811-.819-1.763-.819-2.752l-.03-11.641c-.009-3.239-2.65-5.881-5.889-5.89l-11.642-.03c-.989 0-1.94-.283-2.75-.818-1.011-.669-1.848-1.494-2.488-2.454L40 12.888l-.416.624c-.64.96-1.477 1.785-2.487 2.454-.81.535-1.761.818-2.752.818l-11.641.03c-3.239.009-5.881 2.65-5.889 5.89l-.031 11.642c0 .988-.283 1.939-.818 2.751-.668 1.011-1.494 1.848-2.454 2.487L12.888 40l.625.416c.959.64 1.785 1.477 2.454 2.487.535.812.818 1.763.818 2.752l.031 11.641c.008 3.239 2.65 5.881 5.889 5.89l11.642.03c.988 0 1.939.283 2.75.818 1.011.669 1.848 1.494 2.488 2.454L40 67.112l.416-.624c.64-.96 1.477-1.785 2.487-2.454.812-.535 1.763-.818 2.752-.818l11.641-.03c3.239-.009 5.88-2.65 5.889-5.89l.03-11.642c0-.988.283-1.94.819-2.751.668-1.011 1.494-1.848 2.454-2.487L67.112 40 66.488 39.584zM63.2 42.352c-.644.975-.984 2.116-.984 3.301l-.03 11.641c-.007 2.69-2.202 4.885-4.892 4.892l-11.64.03c-1.185 0-2.326.34-3.302.984-.916.605-1.705 1.33-2.353 2.158-.647-.828-1.436-1.553-2.353-2.158-.976-.645-2.117-.984-3.3-.984l-11.641-.03c-2.69-.007-4.884-2.201-4.892-4.892l-.031-11.64c0-1.186-.34-2.327-.984-3.302-.605-.917-1.329-1.705-2.157-2.353.828-.647 1.552-1.436 2.157-2.353.644-.975.984-2.116.984-3.301l.031-11.641c.007-2.69 2.202-4.885 4.892-4.892l11.64-.03c1.186 0 2.328-.341 3.302-.984.917-.605 1.705-1.33 2.352-2.158.647.828 1.437 1.553 2.353 2.158.974.644 2.115.984 3.3.984l11.641.03c2.69.007 4.884 2.201 4.892 4.892l.03 11.64c0 1.186.341 2.327.984 3.302.606.917 1.33 1.705 2.157 2.353C64.53 40.647 63.806 41.435 63.2 42.352zM62.193 38.313c-.775-1.172-1.185-2.542-1.185-3.963l-.03-11.64c-.006-2.029-1.66-3.684-3.688-3.688l-11.637-.03c-1.421 0-2.792-.41-3.966-1.185-.479-.316-.935-.668-1.353-1.044L40 16.462l-.334.302c-.416.374-.871.726-1.352 1.043-1.174.775-2.544 1.186-3.962 1.186l-11.642.03c-2.028.005-3.682 1.658-3.688 3.688l-.031 11.637c0 1.423-.409 2.795-1.184 3.966-.316.48-.667.936-1.043 1.353L16.462 40l.302.335c.376.418.728.873 1.043 1.352.775 1.172 1.185 2.542 1.185 3.963l.031 11.64c.005 2.029 1.66 3.684 3.688 3.689l11.636.03c1.422 0 2.794.409 3.967 1.184.479.316.934.668 1.353 1.044L40 63.538l.335-.302c.417-.375.871-.726 1.352-1.042 1.173-.775 2.543-1.186 3.963-1.186l11.642-.03c2.027-.006 3.682-1.66 3.688-3.688l.03-11.636c0-1.424.41-2.796 1.185-3.967.316-.48.667-.936 1.043-1.353L63.538 40l-.302-.335C62.86 39.248 62.51 38.793 62.193 38.313zM61.359 41.137c-.883 1.335-1.35 2.896-1.35 4.517l-.03 11.635c-.004 1.479-1.211 2.687-2.69 2.69l-11.641.03c-1.616 0-3.176.468-4.512 1.351C40.74 61.62 40.359 61.903 40 62.203c-.36-.301-.741-.584-1.136-.845-1.336-.883-2.899-1.35-4.516-1.35l-11.635-.03c-1.479-.004-2.686-1.212-2.69-2.691l-.031-11.639c0-1.617-.467-3.178-1.35-4.513-.261-.396-.544-.776-.845-1.136.301-.359.584-.74.845-1.137.883-1.335 1.35-2.896 1.35-4.516l.031-11.636c.004-1.479 1.21-2.687 2.69-2.689l11.641-.03c1.614 0 3.174-.468 4.512-1.352.396-.262.777-.545 1.135-.844.36.301.741.584 1.137.845 1.337.884 2.899 1.351 4.516 1.351l11.636.03c1.479.003 2.686 1.21 2.69 2.69l.03 11.639c0 1.617.467 3.178 1.35 4.513.261.396.544.776.845 1.136C61.903 40.359 61.619 40.74 61.359 41.137z"/>
</svg>