<svg xmlns="http://www.w3.org/2000/svg" viewBox="0 0 80 80">
<path d="M73.108 40c0 0-3.311-1.655-3.311-6.07 0-2.207 2.208-7.725 0-10.959-1.787-2.616-4.415-2.285-4.415-2.285H54.347c0 0-4.415-5.518-14.347-5.518-9.932 0-14.347 5.518-14.347 5.518H14.617c0 0-2.615-.331-4.415 2.285-2.207 3.234 0 8.751 0 10.959 0 4.415-3.311 6.07-3.311 6.07 0 0 3.311 1.656 3.311 6.07 0 2.207-2.207 7.725 0 10.959 1.799 2.626 4.415 2.284 4.415 2.284h11.036c0 0 4.415 5.518 14.347 5.518 9.933 0 14.347-5.518 14.347-5.518h11.036c0 0 2.627.342 4.415-2.284 2.208-3.234 0-8.752 0-10.959C69.797 41.655 73.108 40 73.108 40zM67.561 55.502c-.676 1.007-1.532 1.115-1.832 1.116l-12.683-.012-.811 1.013C52.2 57.664 48.485 62.124 40 62.124c-8.415 0-12.087-4.335-12.239-4.519l-.81-.986-1.298-.013-11.242.006-.057.016c-.532-.013-1.294-.22-1.907-1.129-.867-1.265-.444-3.544-.072-5.555l.141-.773c.23-1.293.394-2.272.394-3.101 0-2.322-.671-4.362-1.997-6.069.966-1.243 1.997-3.235 1.997-6.07 0-.829-.163-1.809-.394-3.101l-.141-.774c-.373-2.011-.795-4.289.073-5.556.684-1.009 1.536-1.117 1.83-1.119l12.686.014.81-1.014c.037-.045 3.752-4.505 12.226-4.505 8.426 0 12.099 4.335 12.25 4.519l.81.985 1.287.015 11.257-.006.053-.017c.433.011 1.256.172 1.906 1.129.867 1.266.445 3.543.073 5.553l-.147.806c-.224 1.251-.4 2.238-.4 3.071 0 2.825 1.037 4.821 2.008 6.07-1.333 1.716-2.008 3.755-2.008 6.069 0 .832.176 1.819.4 3.07l.498-.058-.492.087.141.776C68.009 51.956 68.431 54.234 67.561 55.502z"/>
</svg>