<svg xmlns="http://www.w3.org/2000/svg" viewBox="0 0 80 80">
<path d="M69.924 29.793c-1.171-4.048-4.872-6.847-9.115-6.847H48.12c-3.515 0-6.105-2.422-6.206-2.518L40 18.515l-1.909 1.909c-.026.025-2.655 2.522-6.211 2.522H19.192c-4.243 0-7.944 2.799-9.116 6.847-2.124.369-3.684 2.198-3.684 4.391v11.633c0 2.193 1.561 4.022 3.684 4.391 1.172 4.048 4.873 6.847 9.116 6.847H31.88c3.47 0 6.057 2.379 6.217 2.529L40 61.486l1.911-1.911c.026-.025 2.639-2.521 6.209-2.521h12.688c4.243 0 7.944-2.799 9.115-6.847 2.124-.368 3.685-2.197 3.685-4.391V34.183C73.608 31.991 72.047 30.162 69.924 29.793zM72.608 45.816c0 1.793-1.345 3.272-3.127 3.441l-.352.033-.086.343c-.95 3.78-4.336 6.42-8.234 6.42H48.12c-4.033 0-6.888 2.786-6.913 2.812L40 60.072l-1.21-1.211c-.303-.287-3.074-2.808-6.909-2.808H19.192c-3.898 0-7.285-2.64-8.235-6.42l-.086-.343-.352-.033c-1.783-.169-3.127-1.648-3.127-3.441V34.183c0-1.792 1.345-3.271 3.127-3.441l.352-.034.086-.342c.95-3.78 4.336-6.42 8.235-6.42H31.88c3.998 0 6.88-2.779 6.913-2.811L40 19.929l1.218 1.217c.12.115 2.993 2.801 6.902 2.801h12.688c3.898 0 7.284 2.64 8.234 6.42l.086.342.351.034c1.783.17 3.128 1.649 3.128 3.441V45.816zM69.152 31.934h-1.079c-.258-3.782-3.417-6.781-7.265-6.781H48.12c-4.535 0-7.735-3.133-7.767-3.164L40 21.638l-.353.352c-.032.031-3.232 3.164-7.767 3.164H19.191c-3.847 0-7.006 2.999-7.265 6.781h-1.079c-1.24 0-2.249 1.009-2.249 2.249v11.633c0 1.24 1.009 2.249 2.249 2.249h1.079c.258 3.782 3.418 6.781 7.265 6.781H31.88c4.534 0 7.735 3.134 7.767 3.165l.354.353.353-.353c.032-.031 3.217-3.165 7.767-3.165h12.688c3.847 0 7.007-2.999 7.265-6.781h1.079c1.24 0 2.25-1.009 2.25-2.249V34.183C71.401 32.943 70.392 31.934 69.152 31.934zM70.401 45.816c0 .688-.561 1.249-1.25 1.249H67.09v.5c0 3.464-2.818 6.281-6.282 6.281H48.12c-4.104 0-7.121 2.271-8.12 3.135-.999-.864-4.017-3.135-8.12-3.135H19.191c-3.463 0-6.281-2.817-6.281-6.281v-.5h-2.062c-.688 0-1.249-.561-1.249-1.249V34.183c0-.688.561-1.249 1.249-1.249h2.062v-.5c0-3.464 2.818-6.281 6.281-6.281H31.88c4.103 0 7.121-2.27 8.12-3.134 1 .864 4.017 3.134 8.12 3.134h12.688c3.464 0 6.282 2.817 6.282 6.281v.5h2.062c.689 0 1.25.561 1.25 1.249V45.816z"/>
</svg>