<svg xmlns="http://www.w3.org/2000/svg" viewBox="0 0 80 80">
<path d="M73.974 40.011l-1.501-1.556c-.011-.011-1.578-1.667-1.578-3.973 0-.839.132-1.733.276-2.682.342-2.406.784-5.397-1.291-8.056-2.858-3.675-8.133-4.094-11.864-4.094-2.107 0-4.149.155-5.959.298-1.291.099-2.417.188-3.234.188-4.425 0-5.771-.066-7.261-1.556l-1.567-1.567-1.556 1.567c-1.49 1.49-2.837 1.556-7.273 1.556-.806 0-1.931-.088-3.222-.188-1.81-.143-3.852-.298-5.97-.298-3.719 0-8.995.419-11.853 4.094-2.075 2.66-1.645 5.651-1.291 8.056.143.949.265 1.843.265 2.682 0 2.307-1.556 3.962-1.556 3.962l-1.512 1.545 1.5 1.556c.012.022 1.567 1.667 1.567 3.973 0 .85-.122 1.733-.265 2.682-.354 2.406-.784 5.396 1.291 8.056 1.435 1.832 3.465 2.858 5.606 3.421 2.141.574 4.392.673 6.247.673 2.119 0 4.16-.155 5.97-.298 1.291-.099 2.417-.188 3.222-.188 4.437 0 5.783.066 7.273 1.567l1.556 1.556 1.567-1.556c1.49-1.501 2.836-1.567 7.261-1.567.817 0 1.943.088 3.234.188 1.81.144 3.852.298 5.959.298 3.73 0 9.005-.419 11.864-4.094 2.075-2.66 1.633-5.651 1.291-8.056-.144-.949-.276-1.832-.276-2.682 0-2.306 1.567-3.951 1.567-3.951L73.974 40.011zM68.188 45.517c0 1.042.151 2.075.298 3.074.32 2.188.623 4.253-.745 6-2.911 3.743-10.473 3.155-15.477 2.763-1.354-.105-2.524-.196-3.442-.196-4.183 0-6.582 0-8.829 2.018-2.248-2.018-4.646-2.018-8.829-2.018-.918 0-2.087.091-3.441.196-5.004.393-12.566.981-15.477-2.764-1.36-1.746-1.06-3.813-.742-6.002.145-.998.295-2.03.295-3.071 0-2.734-1.396-4.738-2.039-5.518.643-.779 2.039-2.783 2.039-5.518 0-1.041-.15-2.072-.295-3.07-.318-2.186-.619-4.25.742-6.004 2.911-3.741 10.472-3.152 15.476-2.763 1.354.106 2.524.197 3.442.197 4.183 0 6.582 0 8.829-2.019 2.247 2.019 4.646 2.019 8.829 2.019.918 0 2.088-.091 3.443-.197 5.003-.391 12.565-.979 15.476 2.764 1.367 1.753 1.064 3.816.744 6-.146.999-.298 2.031-.298 3.073 0 2.734 1.395 4.738 2.039 5.518C69.583 40.779 68.188 42.783 68.188 45.517z"/>
</svg>