<svg xmlns="http://www.w3.org/2000/svg" viewBox="0 0 80 80">
<path d="M67.501 27.654v-7.602H56.772c-4.792-3.782-10.948-5.863-17.358-5.863-6.41 0-12.566 2.081-17.359 5.863H11.327V28.9c-3.33 3.791-4.69 7.02-4.69 11.1 0 4.08 1.361 7.309 4.69 11.1v8.849h10.729c4.792 3.781 10.949 5.862 17.358 5.862 6.41 0 12.566-2.081 17.358-5.862h10.729v-7.603c4.106-3.951 5.863-7.654 5.863-12.346C73.364 35.308 71.607 31.605 67.501 27.654zM66.603 51.732l-.165.157v6.996H56.4l-.146.116c-4.625 3.706-10.606 5.746-16.841 5.746-6.235 0-12.215-2.04-16.841-5.746l-.146-.116H12.389v-8.189l-.134-.15C8.976 46.855 7.699 43.898 7.699 40c0-3.848 1.32-6.903 4.556-10.546l.134-.15v-8.188h10.038l.146-.116c4.625-3.706 10.606-5.747 16.841-5.747 6.235 0 12.216 2.041 16.841 5.747l.146.116h10.038v6.995l.165.157c3.994 3.79 5.698 7.299 5.698 11.732C72.302 44.433 70.597 47.942 66.603 51.732zM65.124 28.695v-6.267h-9.199c-4.468-3.782-10.323-5.863-16.511-5.863-6.188 0-12.044 2.081-16.511 5.863h-9.2v7.394C10.882 32.732 9.013 35.6 9.013 40c0 4.4 1.869 7.268 4.69 10.178v7.394h9.2c4.467 3.782 10.323 5.863 16.511 5.863 6.188 0 12.043-2.081 16.511-5.863h9.199v-6.266c4.107-3.564 5.863-6.956 5.863-11.306C70.987 35.651 69.231 32.26 65.124 28.695zM64.299 50.696l-.175.149v5.726h-8.569l-.141.121c-4.304 3.703-9.986 5.742-16 5.742-6.015 0-11.697-2.039-16.001-5.742l-.141-.121h-8.569V49.77l-.143-.146c-2.808-2.866-4.547-5.476-4.547-9.625 0-4.149 1.74-6.759 4.547-9.625l.143-.146v-6.801h8.569l.141-.121c4.304-3.703 9.986-5.742 16.001-5.742 6.014 0 11.697 2.039 16 5.742l.141.121h8.569v5.727l.175.149c4.04 3.455 5.688 6.554 5.688 10.695C69.987 44.142 68.339 47.241 64.299 50.696z"/>
</svg>