<svg xmlns="http://www.w3.org/2000/svg" viewBox="0 0 80 80">
<path d="M68.809 30.134 45.898 15.953c-3.608-2.24-8.188-2.24-11.797 0L11.19 30.134c-6.732 4.856-6.732 14.877 0 19.733l22.911 14.181c3.609 2.24 8.189 2.24 11.797 0l22.911-14.181C75.542 45.01 75.542 34.99 68.809 30.134zM35.523 61.747 12.711 47.631C10.26 45.829 8.854 43.048 8.854 40c0-3.048 1.406-5.829 3.825-7.609l22.845-14.137c1.341-.832 2.887-1.271 4.47-1.271 1.591 0 3.141.439 4.483 1.271l22.801 14.115c2.458 1.799 3.868 4.58 3.868 7.631 0 3.051-1.41 5.832-3.835 7.609L44.476 61.747C41.777 63.421 38.235 63.429 35.523 61.747z"/>
</svg>