<svg xmlns="http://www.w3.org/2000/svg" width="21" height="16" viewBox="0 0 21 16">
    <path fill="#FFF" d="M8.19 0c-.607 0-1.161.342-1.432.884l-.316.632c-.271.541-.825.884-1.431.884H1.6C.716 2.4 0 3.116 0 4v10.4c0 .884.716 1.6 1.6 1.6h17.6c.884 0 1.6-.716 1.6-1.6V4c0-.884-.716-1.6-1.6-1.6h-3.41c-.607 0-1.161-.342-1.432-.884l-.316-.632C13.771.343 13.217 0 12.611 0H8.189zM3.2.8c-.442 0-.8.358-.8.8h2.4c0-.442-.358-.8-.8-.8h-.8zm7.2 2.4c3.088 0 5.6 2.512 5.6 5.6 0 3.088-2.512 5.6-5.6 5.6-3.088 0-5.6-2.512-5.6-5.6 0-3.088 2.512-5.6 5.6-5.6zm7.2.8c.442 0 .8.358.8.8 0 .442-.358.8-.8.8-.442 0-.8-.358-.8-.8 0-.442.358-.8.8-.8zm-7.2.8c-2.21 0-4 1.79-4 4s1.79 4 4 4 4-1.79 4-4-1.79-4-4-4z" opacity=".847"/>
</svg>
