<svg width="20" height="20" viewBox="0 0 20 20" fill="none" xmlns="http://www.w3.org/2000/svg">
<path d="M5.9994 5.00119C7.22262 5.00153 8.4029 5.45226 9.31498 6.26735L10.1647 5.42005V7.91706H7.66527L8.72499 6.85614C8.00644 6.23501 7.09699 5.87843 6.14776 5.84566C5.19852 5.81289 4.26665 6.10589 3.50697 6.67598C2.74729 7.24608 2.20554 8.05894 1.97173 8.97952C1.73793 9.90009 1.82615 10.873 2.22173 11.7365C2.61731 12.6 3.29643 13.3021 4.14627 13.7263C4.99611 14.1504 5.96549 14.271 6.89334 14.068C7.8212 13.865 8.65167 13.3507 9.24678 12.6104C9.84188 11.8702 10.1658 10.9486 10.1647 9.9988C10.1584 9.94035 10.1645 9.88125 10.1826 9.82531C10.2006 9.76938 10.2303 9.71788 10.2696 9.67416C10.3088 9.63043 10.3569 9.59547 10.4106 9.57153C10.4642 9.54759 10.5224 9.53522 10.5811 9.53522C10.6399 9.53522 10.698 9.54759 10.7517 9.57153C10.8054 9.59547 10.8534 9.63043 10.8927 9.67416C10.932 9.71788 10.9616 9.76938 10.9797 9.82531C10.9978 9.88125 11.0039 9.94035 10.9976 9.9988C10.9978 10.9875 10.7049 11.9542 10.1557 12.7764C9.60654 13.5986 8.82588 14.2395 7.91245 14.618C6.99903 14.9965 5.99387 15.0956 5.0241 14.9028C4.05433 14.7101 3.16352 14.234 2.46433 13.5349C1.76514 12.8358 1.28898 11.945 1.09607 10.9753C0.903158 10.0055 1.00217 9.00037 1.38057 8.0869C1.75897 7.17342 2.39978 6.39269 3.22193 5.84343C4.04408 5.29418 5.01066 5.00107 5.9994 5.00119Z" fill="#494949" stroke="#494949" stroke-width="0.5" stroke-linecap="round" stroke-linejoin="round"/>
</svg>
