<svg width="108" height="80" viewBox="0 0 108 80" fill="none" xmlns="http://www.w3.org/2000/svg">
<path d="M93.1283 23.668H14.8717C11.0811 23.668 8 26.7068 8 30.4549V54.5746C8 55.5487 8.78352 56.3323 9.75762 56.3323H98.5918C99.3647 56.3323 100 55.7076 100 54.924V30.4549C100 26.7068 96.9189 23.668 93.1283 23.668ZM71.7298 26.0397V36.956C71.7298 37.4537 71.3168 37.8666 70.8086 37.8666H22.3363C21.8281 37.8666 21.4151 37.4537 21.4151 36.956V26.0397H71.7298ZM97.6071 53.9711H10.3929V30.4549C10.3929 28.0197 12.4046 26.0291 14.8717 26.0291H19.0222V36.9454C19.0222 38.756 20.5045 40.2278 22.3469 40.2278H70.8086C72.6403 40.2278 74.1333 38.756 74.1333 36.9454V26.0397H78.9297V27.5856C78.9297 28.0409 79.3003 28.4114 79.7661 28.4114H90.0789C90.5342 28.4114 90.9154 28.0409 90.9154 27.5856V26.0397H93.1495C95.6165 26.0397 97.6283 28.0197 97.6283 30.4655V53.9711H97.6071Z" fill="black"/>
<path d="M90.8942 30.7725C89.8354 30.7725 88.9778 31.6195 88.9778 32.6677C88.9778 33.716 89.8354 34.563 90.8942 34.563C91.953 34.563 92.8107 33.716 92.8107 32.6677C92.8107 31.6195 91.953 30.7725 90.8942 30.7725Z" fill="black"/>
</svg>
