<?xml version="1.0" encoding="utf-8"?>
<!-- Generator: Adobe Illustrator 25.0.1, SVG Export Plug-In . SVG Version: 6.00 Build 0)  -->
<svg version="1.1" id="Layer_1" xmlns="http://www.w3.org/2000/svg" xmlns:xlink="http://www.w3.org/1999/xlink" x="0px" y="0px"
	 viewBox="0 0 20 20" style="enable-background:new 0 0 20 20;" xml:space="preserve">
<style type="text/css">
	.st0{fill:#FFFFFF;}
</style>
<g>
	<g id="B">
		<path id="Path_898" class="st0" d="M13.5,7.1c-0.9-0.9-2.2-1.4-3.5-1.4c-0.3,0-0.6,0-0.9,0.1V4.6H5.1v6c0,2.7,2.2,4.9,4.9,4.9
			c2.7,0,4.9-2.2,4.9-4.9C14.9,9.3,14.4,8,13.5,7.1L13.5,7.1z M8.6,5.9v4.7c0,0.8,0.6,1.4,1.4,1.4s1.4-0.6,1.4-1.4S10.8,9.2,10,9.2
			c-0.4,0-0.7,0.1-1,0.4V8.7c1-0.5,2.3-0.1,2.8,0.9c0.5,1,0.1,2.3-0.9,2.8s-2.3,0.1-2.8-0.9c-0.1-0.3-0.2-0.6-0.2-0.9V5h0.7L8.6,5.9
			z M9.1,10.6c0-0.5,0.4-0.9,0.9-0.9c0.5,0,0.9,0.4,0.9,0.9c0,0.5-0.4,0.9-0.9,0.9C9.5,11.5,9.1,11.1,9.1,10.6L9.1,10.6z M7.5,6.4
			v4.2c0,1.4,1.1,2.5,2.5,2.5s2.5-1.1,2.5-2.5S11.4,8,10,8l0,0C9.7,8,9.4,8.1,9.1,8.2V7.4c1.7-0.5,3.5,0.5,4.1,2.2
			c0.5,1.7-0.5,3.5-2.2,4.1s-3.5-0.5-4.1-2.2c-0.1-0.3-0.1-0.6-0.1-0.9V5h0.7L7.5,6.4z M13.1,13.7c-1.7,1.7-4.5,1.7-6.3,0
			c-0.8-0.8-1.3-2-1.3-3.1V5h0.7v5.6c0,2.1,1.7,3.7,3.7,3.7s3.7-1.7,3.7-3.7S12.1,6.9,10,6.9c-0.3,0-0.6,0-0.9,0.1V6.2
			C9.4,6.2,9.7,6.1,10,6.1c2.4,0,4.4,2,4.4,4.4C14.4,11.7,14,12.9,13.1,13.7L13.1,13.7z"/>
	</g>
</g>
</svg>
