<svg xmlns="http://www.w3.org/2000/svg" xmlns:xlink="http://www.w3.org/1999/xlink" width="100" height="100" viewBox="0 0 100 100">
  <g id="Zoom_in_and_zoom_out" data-name="Zoom in and zoom out">
    <g id="Group_173" data-name="Group 173" transform="translate(-1110.801 -700.599)">
      <g id="Group_167" data-name="Group 167" transform="translate(1173.119 715.032)">
        <path id="Path_624" data-name="Path 624" d="M1322.651,723.107a.519.519,0,0,1-.328-.921l6.9-5.61a.519.519,0,0,1,.654.805l-6.9,5.609A.515.515,0,0,1,1322.651,723.107Z" transform="translate(-1322.132 -716.163)" fill="#efb74d"/>
        <g id="Group_166" data-name="Group 166" transform="translate(0.546 0)">
          <path id="Path_625" data-name="Path 625" d="M1329.785,722.483a.415.415,0,0,1-.262-.525l2.005-6.024-6.307.73a.415.415,0,1,1-.1-.825l6.954-.8a.415.415,0,0,1,.442.544l-2.211,6.642a.416.416,0,0,1-.525.263Z" transform="translate(-1324.758 -715.032)" fill="#efb74d"/>
        </g>
      </g>
      <g id="Group_169" data-name="Group 169" transform="translate(1134.005 746.355)">
        <path id="Path_626" data-name="Path 626" d="M1136.347,873.925a.519.519,0,0,1-.337-.913l6.912-5.91a.519.519,0,1,1,.674.789l-6.912,5.91A.517.517,0,0,1,1136.347,873.925Z" transform="translate(-1135.449 -866.708)" fill="#efb74d"/>
        <g id="Group_168" data-name="Group 168" transform="translate(0 0)">
          <path id="Path_627" data-name="Path 627" d="M1141.762,871.757a.415.415,0,0,0-.47-.352l-6.286.888,1.854-6.072a.415.415,0,1,0-.794-.243l-2.044,6.7a.415.415,0,0,0,.455.532l6.932-.979a.416.416,0,0,0,.353-.469Z" transform="translate(-1134.005 -865.683)" fill="#efb74d"/>
        </g>
      </g>
      <g id="Group_170" data-name="Group 170" transform="translate(1148.651 726.709)" opacity="0.8">
        <path id="Path_628" data-name="Path 628" d="M1283.892,772.877a.519.519,0,0,1-.323-.925l.812-.646a.519.519,0,0,1,.646.812l-.812.646A.516.516,0,0,1,1283.892,772.877Z" transform="translate(-1266.964 -771.194)" fill="#efb74d"/>
        <path id="Path_629" data-name="Path 629" d="M1257.1,784.829a.519.519,0,0,1-.323-.925l1.114-.886a.519.519,0,0,1,.646.812l-1.114.886A.517.517,0,0,1,1257.1,784.829Zm2.785-2.215a.519.519,0,0,1-.323-.925l1.114-.886a.519.519,0,0,1,.646.812l-1.114.886A.518.518,0,0,1,1259.885,782.614Z" transform="translate(-1245.741 -778.717)" fill="#efb74d"/>
        <path id="Path_630" data-name="Path 630" d="M1216.911,808.347a.519.519,0,0,1-.323-.925l1.114-.886a.519.519,0,0,1,.646.812l-1.114.886A.517.517,0,0,1,1216.911,808.347Zm2.785-2.215a.519.519,0,0,1-.323-.925l1.114-.886a.519.519,0,1,1,.646.812l-1.114.886A.517.517,0,0,1,1219.7,806.132Zm2.785-2.215a.519.519,0,0,1-.323-.925l1.114-.886a.519.519,0,0,1,.646.812l-1.114.886A.518.518,0,0,1,1222.482,803.918Z" transform="translate(-1213.909 -795.591)" fill="#efb74d"/>
        <path id="Path_631" data-name="Path 631" d="M1204.968,835.634a.519.519,0,0,1-.323-.925l.812-.646a.519.519,0,0,1,.646.812l-.812.646A.517.517,0,0,1,1204.968,835.634Z" transform="translate(-1204.448 -820.903)" fill="#efb74d"/>
      </g>
      <g id="Group_172" data-name="Group 172" transform="translate(1141.481 718.247)">
        <circle id="Ellipse_23" data-name="Ellipse 23" cx="8.341" cy="8.341" r="8.341" transform="translate(0 14.221)" fill="#efb74d" opacity="0.3"/>
        <circle id="Ellipse_24" data-name="Ellipse 24" cx="6.28" cy="6.28" r="6.28" transform="translate(2.06 16.438)" fill="#efb74d" opacity="0.8"/>
        <circle id="Ellipse_25" data-name="Ellipse 25" cx="8.341" cy="8.341" r="8.341" transform="translate(17.374 0)" fill="#efb74d" opacity="0.3"/>
        <circle id="Ellipse_26" data-name="Ellipse 26" cx="6.28" cy="6.28" r="6.28" transform="translate(19.434 2.217)" fill="#efb74d" opacity="0.8"/>
        <g id="Group_171" data-name="Group 171" transform="translate(5.978 7.447)">
          <path id="Path_632" data-name="Path 632" d="M1237.388,786.385c-.8-.284-1.854-.327-3.007,1.837l-1.965,6.468a.585.585,0,0,1-.562.417l-.167-.024a.592.592,0,0,1-.4-.735l1.985-6.535h0l.627-2.14a3.256,3.256,0,0,0-6.25-1.83l-1.31,4.474a.364.364,0,0,1-.035.067L1225,793.194a.589.589,0,0,1-.567.433l-.153-.02a.588.588,0,0,1-.414-.722l1.5-5.541h0l1.529-5.7a3.256,3.256,0,0,0-6.246-1.843l-3.516,12.167a.589.589,0,0,1-.564.423l-.153-.02a.593.593,0,0,1-.411-.733l2.5-8.6,3.237-11.7a4.828,4.828,0,0,0-.3-3.6,2.64,2.64,0,0,0-1.671-1.309c-2.085-.545-3.583,1.137-4.144,3.052l-8.527,27.021a.385.385,0,0,1-.4.264.38.38,0,0,1-.343-.331l-1.136-9.051c-.1-.542-.178-1.093-.257-1.624-.516-3.469-.849-4.991-3.487-4.864-2.909.333-2.807,3.14-2.752,5.984l.4,17.8a31.159,31.159,0,0,0,1.946,10.261c.418,1.318.891,2.814,1.457,4.758l1.941,7.1h27.645l-2.848-6.466a.38.38,0,0,1,.005-.317l.041-.086c.261-.547.74-1.38,1.293-2.345a42.472,42.472,0,0,0,3.775-7.684l2.594-12.183c.231-1,.487-1.97.735-2.911C1238.961,790.055,1239.606,787.143,1237.388,786.385Z" transform="translate(-1198.715 -766.315)" fill="#b5b5b6"/>
        </g>
      </g>
    </g>
  </g>
</svg>
