<svg xmlns="http://www.w3.org/2000/svg" xmlns:xlink="http://www.w3.org/1999/xlink" width="100" height="100" viewBox="0 0 100 100">
  <g id="_2_fingers_press_and_drag_3" data-name="2 fingers press and drag – 3">
    <g id="Group_165" data-name="Group 165" transform="translate(-1068.733 -121.575)">
      <path id="Path_619" data-name="Path 619" d="M1384.281,275.637a1,1,0,0,0-.3-.3l-7.072-4.5a.99.99,0,0,0-1.376.255.979.979,0,0,0-.156.741,1.007,1.007,0,0,0,.456.663l4.038,2.572h-9.241a1.106,1.106,0,0,0-1.062,1.149,1.117,1.117,0,0,0,1.082,1.062h9.222l-4.054,2.581a.987.987,0,0,0,.559,1.8,1.021,1.021,0,0,0,.518-.143l7.085-4.512A.991.991,0,0,0,1384.281,275.637Z" transform="translate(-229.346 -114.392)" fill="#efb74d"/>
      <path id="Path_620" data-name="Path 620" d="M1096.228,274.719h-9.285l4.053-2.581a.99.99,0,0,0-1.077-1.66l-7.085,4.512a.99.99,0,0,0,0,1.669l7.07,4.5a.975.975,0,0,0,.558.175,1.032,1.032,0,0,0,.182-.017.989.989,0,0,0,.793-1.155,1.008,1.008,0,0,0-.456-.663l-4.039-2.572h9.2a1.106,1.106,0,1,0,.083-2.211Zm-.063.491Z" transform="translate(0 -114.134)" fill="#efb74d"/>
      <g id="Group_164" data-name="Group 164" transform="translate(1103.832 148.478)">
        <path id="Path_621" data-name="Path 621" d="M1212.247,232.236a9.6,9.6,0,0,0-11.106,5.844q-.232-.066-.47-.122a9.6,9.6,0,1,0,6.765,12.857q.232.066.469.121a9.6,9.6,0,1,0,4.341-18.7Z" transform="translate(-1188.9 -231.985)" fill="#efb74d" opacity="0.3"/>
        <circle id="Ellipse_21" data-name="Ellipse 21" cx="6.084" cy="6.084" r="6.084" transform="translate(3.744 9.603)" fill="#efb74d" opacity="0.8"/>
        <circle id="Ellipse_22" data-name="Ellipse 22" cx="6.084" cy="6.084" r="6.084" transform="translate(15.391 3.857)" fill="#efb74d" opacity="0.8"/>
        <g id="Group_163" data-name="Group 163" transform="translate(1.191 7.292)">
          <g id="Group_162" data-name="Group 162">
            <path id="Path_622" data-name="Path 622" d="M1226.859,285.675a2.584,2.584,0,0,0-2.475,1.728c-.254,1.914-.694,8.4-.694,8.4-.022.3-.082.509-.378.509h-.015a.577.577,0,0,1-.553-.611s.623-8.414.746-9.954c-.026-1.842.1-3.361-2.686-3.58a3.37,3.37,0,0,0-3.052,1.968,2.4,2.4,0,0,0-.25.883c-.294,2.771-.9,10.433-.9,10.433a.57.57,0,0,1-.565.5l-.069,0c-.31-.038-.36-.624-.324-.935l1.618-17.591c.144-2.858,1.33-8.772-2.306-9.225-3.767-.27-4.026,4.16-4.609,8.134l-1.641,15.155.583,4.56c.057.306-.17.515-.477.574h0a.568.568,0,0,1-.559-.466l-.567-4.454c-.047-.256-.29-11.139-.29-11.139,0-2.291-1.022-6.542-3.619-6.36-2.541.178-3.631,3.071-3.555,6.9l.518,7.4s.048,9-.057,9.811l-.824,5.531a.569.569,0,0,1-.56.467h0a.566.566,0,0,1-.44-.66l1.118-6.09a19.243,19.243,0,0,0-.114-2.633,20.328,20.328,0,0,0-3.645,4.493c-.967,2-2.021,2.56-.954,8.807.36,2.108,7.884,16.015,7.884,16.015h22.873l2.663-6.982a61.719,61.719,0,0,0,.881-8.253l.43-13.535C1230.045,290.477,1230.217,285.713,1226.859,285.675Z" transform="translate(-1194.813 -268.188)" fill="#b5b5b6"/>
          </g>
        </g>
      </g>
      <path id="Path_623" data-name="Path 623" d="M1239.424,127.481a1,1,0,0,0-.3.3l-4.5,7.072a.989.989,0,0,0,1,1.532,1.009,1.009,0,0,0,.663-.456l2.572-4.038v9.241a1.106,1.106,0,0,0,1.149,1.062,1.116,1.116,0,0,0,1.062-1.082v-9.222l2.581,4.053a.987.987,0,0,0,1.8-.558,1.021,1.021,0,0,0-.142-.518l-4.512-7.085A.991.991,0,0,0,1239.424,127.481Z" transform="translate(-121.214 4)" fill="#efb74d"/>
    </g>
  </g>
</svg>
