<svg width="1em" height="1em" viewBox="0 0 24 24" fill="none" xmlns="http://www.w3.org/2000/svg">
<path d="M10.6201 4.50147C10.4872 4.50567 10.3585 4.54864 10.2497 4.62508C10.141 4.70153 10.057 4.80812 10.008 4.93172L4.55353 18.5619C4.51161 18.6653 4.49575 18.7775 4.50735 18.8885C4.51894 18.9996 4.55764 19.1061 4.62003 19.1986C4.68243 19.2912 4.76661 19.367 4.86518 19.4194C4.96374 19.4719 5.07368 19.4992 5.18531 19.4992H10.6398C10.7293 19.4992 10.8179 19.4816 10.9006 19.4473C10.9833 19.4131 11.0584 19.3629 11.1217 19.2996C11.1849 19.2363 11.2351 19.1612 11.2694 19.0785C11.3036 18.9959 11.3213 18.9072 11.3213 18.8178V5.18293C11.3219 5.09096 11.3039 4.99981 11.2685 4.91494C11.233 4.83006 11.1809 4.7532 11.115 4.68894C11.049 4.62666 10.9712 4.57803 10.8863 4.54586C10.8013 4.51369 10.7109 4.49861 10.6201 4.50147ZM13.36 4.50147C13.1804 4.5032 13.0088 4.57576 12.8824 4.70337C12.756 4.83098 12.6851 5.00333 12.6851 5.18293V18.8168C12.685 18.9065 12.7026 18.9953 12.7368 19.0781C12.7711 19.161 12.8213 19.2362 12.8847 19.2996C12.9481 19.363 13.0234 19.4133 13.1062 19.4475C13.1891 19.4818 13.2779 19.4993 13.3675 19.4992H18.822C18.9336 19.4992 19.0436 19.4719 19.1421 19.4194C19.2407 19.367 19.3249 19.2912 19.3873 19.1986C19.4497 19.1061 19.4884 18.9996 19.5 18.8885C19.5116 18.7775 19.4957 18.6653 19.4538 18.5619L13.9993 4.93172C13.9483 4.8041 13.86 4.6948 13.746 4.61806C13.632 4.54131 13.4975 4.50069 13.36 4.50147ZM9.95835 8.71959V18.1354H6.19204L9.95835 8.71959Z" fill="currentColor"/>
</svg>
