<svg width="1em" height="1em" viewBox="0 0 24 24" fill="none" xmlns="http://www.w3.org/2000/svg">
<path d="M19.4992 10.6176C19.495 10.4848 19.4521 10.356 19.3756 10.2473C19.2992 10.1385 19.1926 10.0545 19.069 10.0056L5.43885 4.55106C5.33538 4.50914 5.2232 4.49328 5.11217 4.50488C5.00113 4.51647 4.89465 4.55517 4.80208 4.61756C4.7095 4.67996 4.63368 4.76414 4.58126 4.8627C4.52885 4.96127 4.50146 5.07121 4.50149 5.18284V10.6373C4.50149 10.7268 4.51911 10.8154 4.55336 10.8981C4.58761 10.9808 4.6378 11.0559 4.70108 11.1192C4.76436 11.1825 4.83949 11.2327 4.92216 11.2669C5.00484 11.3012 5.09346 11.3188 5.18295 11.3188H18.8178C18.9097 11.3194 19.0009 11.3014 19.0858 11.266C19.1706 11.2306 19.2475 11.1784 19.3118 11.1126C19.374 11.0465 19.4227 10.9687 19.4548 10.8838C19.487 10.7989 19.5021 10.7084 19.4992 10.6176ZM19.4992 13.3575C19.4975 13.178 19.4249 13.0063 19.2973 12.8799C19.1697 12.7535 18.9974 12.6826 18.8178 12.6827H5.18388C5.09424 12.6825 5.00544 12.7001 4.9226 12.7343C4.83975 12.7686 4.76447 12.8189 4.70108 12.8822C4.63769 12.9456 4.58743 13.0209 4.55318 13.1038C4.51893 13.1866 4.50136 13.2754 4.50149 13.365V18.8195C4.50146 18.9312 4.52885 19.0411 4.58126 19.1397C4.63368 19.2382 4.7095 19.3224 4.80208 19.3848C4.89465 19.4472 5.00113 19.4859 5.11217 19.4975C5.2232 19.5091 5.33538 19.4932 5.43885 19.4513L19.069 13.9968C19.1966 13.9458 19.3059 13.8575 19.3826 13.7435C19.4594 13.6295 19.5 13.495 19.4992 13.3575ZM15.2811 9.95587H5.86534V6.18957L15.2811 9.95587Z" fill="currentColor"/>
</svg>
