<svg xmlns="http://www.w3.org/2000/svg" viewBox="0 0 80 80">
<path d="M37.257 73.157C38.719 74.337 40 72.416 40 72.416c0 0 1.281 1.921 2.743.741 1.707-1.378-.709-4.05-2.743-5.623C37.965 69.106 35.55 71.779 37.257 73.157zM24.777 69.584c.899 1.65 2.818.365 2.818.365 0 0 .448 2.265 2.251 1.734 2.105-.62.895-4.013-.383-6.245C26.981 66.114 23.727 67.658 24.777 69.584zM14.615 61.505c.199 1.868 2.464 1.416 2.464 1.416 0 0-.452 2.264 1.416 2.464 2.182.233 2.363-3.365 2.036-5.916C17.98 59.142 14.382 59.323 14.615 61.505zM8.317 50.154c-.531 1.802 1.734 2.251 1.734 2.251 0 0-1.284 1.919.365 2.818 1.927 1.05 3.471-2.205 4.145-4.686C12.33 49.259 8.937 48.049 8.317 50.154zM6.843 37.256C5.663 38.719 7.584 40 7.584 40c0 0-1.921 1.281-.741 2.743 1.378 1.707 4.05-.709 5.623-2.743C10.893 37.965 8.221 35.549 6.843 37.256zM10.416 24.777c-1.65.899-.365 2.818-.365 2.818 0 0-2.265.448-1.734 2.251.62 2.105 4.013.895 6.245-.383C13.887 26.981 12.343 23.727 10.416 24.777zM18.494 14.615c-1.868.199-1.416 2.464-1.416 2.464 0 0-2.264-.452-2.464 1.416-.233 2.182 3.365 2.363 5.916 2.036C20.857 17.979 20.676 14.382 18.494 14.615zM29.846 8.317c-1.802-.531-2.251 1.734-2.251 1.734 0 0-1.919-1.284-2.818.365-1.05 1.927 2.205 3.471 4.686 4.145C30.741 12.33 31.95 8.937 29.846 8.317zM42.743 6.843C41.281 5.663 40 7.584 40 7.584c0 0-1.281-1.921-2.743-.741-1.707 1.378.709 4.05 2.743 5.623C42.035 10.893 44.451 8.221 42.743 6.843zM55.223 10.417c-.899-1.65-2.818-.365-2.818-.365 0 0-.448-2.265-2.251-1.734-2.105.62-.895 4.013.383 6.245C53.019 13.887 56.273 12.343 55.223 10.417zM65.385 18.494c-.199-1.868-2.464-1.416-2.464-1.416 0 0 .452-2.264-1.416-2.464-2.182-.233-2.363 3.365-2.036 5.916C62.02 20.857 65.618 20.676 65.385 18.494zM71.683 29.846c.531-1.802-1.734-2.251-1.734-2.251 0 0 1.284-1.919-.365-2.818-1.927-1.05-3.471 2.205-4.145 4.686C67.67 30.741 71.064 31.951 71.683 29.846zM73.157 42.743C74.337 41.281 72.416 40 72.416 40c0 0 1.921-1.281.741-2.743-1.378-1.707-4.05.709-5.623 2.743C69.106 42.035 71.778 44.451 73.157 42.743zM69.583 55.223c1.65-.899.365-2.818.365-2.818 0 0 2.265-.448 1.734-2.251-.62-2.105-4.013-.895-6.245.383C66.113 53.018 67.657 56.273 69.583 55.223zM61.506 65.386c1.868-.199 1.416-2.464 1.416-2.464 0 0 2.264.452 2.464-1.416.233-2.182-3.365-2.363-5.916-2.036C59.143 62.021 59.324 65.619 61.506 65.386zM50.154 71.683c1.802.531 2.251-1.734 2.251-1.734 0 0 1.919 1.284 2.818-.365 1.05-1.927-2.205-3.471-4.686-4.145C49.259 67.67 48.049 71.063 50.154 71.683z"/>
</svg>