<svg xmlns="http://www.w3.org/2000/svg" viewBox="0 0 80 80">
<path d="M69.049 31.097c-1.15-4.758-3.465-9.211-6.638-12.921.031-.028.056-.063.07-.106.99-3.092-1.448-7.172-1.552-7.345-.051-.083-.144-.133-.242-.118-.097.011-.178.076-.209.169-1.635 4.875.476 7.029 1.216 7.606.009.071.03.14.08.198 3.102 3.662 5.342 8.051 6.429 12.718 3.526 14.247-4.483 29.707-18.132 35.072-.762.314-.278 1.438.465 1.137C64.615 61.843 72.814 45.812 69.049 31.097zM60.779 11.49c.584 1.126 1.822 3.907 1.286 6.135-.274-.806-.706-2.302-.735-3.852-.003-.139-.107-.275-.255-.245-.138.003-.248.117-.245.255.027 1.45.383 2.834.663 3.711C60.757 16.631 59.828 14.796 60.779 11.49zM50.807 65.753c.045.043.104.069.17.069 0 0 0 0 0 0l0 0 0 0c.007 0 .014 0 .021-.001 0 0 0-.001.001-.001.005 0 .011 0 .017-.001.015-.002.021-.021.036-.026.052-.018.096-.043.125-.089.005-.007.016-.006.02-.014 2.191-4.024.261-9.793.178-10.037-.034-.099-.125-.166-.229-.169-.105-.001-.199.059-.239.155-2.953 7.25-.221 9.998-.103 10.111C50.806 65.753 50.806 65.752 50.807 65.753zM51.105 56.51c.395 1.486 1.116 5.065.054 7.987-.07-1.296-.143-3.497.066-4.912.021-.136-.074-.264-.211-.283-.137-.022-.264.073-.284.211-.224 1.515-.14 3.826-.066 5.12C50.104 63.481 49.458 60.943 51.105 56.51zM52.451 66.854c-.005.003-.003.011-.008.015-.054.043-.093.103-.097.176 0 .001.001.001.001.002 0 .001-.001.001-.001.002 0 .006.007.009.007.014.002.069.03.127.078.171.004.004.002.012.008.017 2.215 1.798 5.386 2.149 7.525 2.149 1.297 0 2.215-.129 2.312-.144.103-.015.186-.093.208-.194.021-.102-.022-.207-.109-.263C55.785 64.574 52.584 66.759 52.451 66.854zM53.491 67.379c1.182.116 3.259.399 4.628 1.033.034.016.07.023.105.023.094 0 .185-.054.227-.145.058-.126.004-.274-.122-.332-1.397-.648-3.419-.94-4.648-1.065 1.274-.321 3.854-.419 7.803 1.942C59.928 68.956 56.178 69.029 53.491 67.379zM57.389 53.497c-.099-.01-.198.039-.247.128-3.929 7.177-2.896 9.752-2.851 9.858 0 .001.001.001.002.001.026.059.074.109.14.133.011.004.021.003.032.006.003.001.003.005.006.005.016.003.033.005.049.005.059 0 .111-.026.156-.063.005-.004.012-.002.017-.007 4.452-4.252 2.924-9.832 2.908-9.888C57.574 53.579 57.49 53.508 57.389 53.497zM55.192 62.293c.506-1.373 1.303-3.581 1.598-4.627.038-.133-.04-.271-.173-.308-.132-.037-.271.04-.309.173-.303 1.074-1.172 3.468-1.667 4.808.003-1.209.396-3.664 2.611-7.865C57.471 55.88 57.66 59.284 55.192 62.293zM68.18 62.104c-8.081-.54-10.021 1.435-10.136 1.56 0 0 0 0-.001.001-.001.001-.005.005-.005.006-.038.042-.053.097-.056.153 0 .007-.007.011-.007.019 0 .006.006.01.007.016.001.012-.003.024 0 .037.004.017.025.022.032.037.021.047.049.08.093.106.012.007.013.025.026.031 1.324.52 2.577.72 3.724.72 3.815 0 6.436-2.217 6.47-2.246.077-.066.106-.173.074-.269C68.368 62.178 68.28 62.11 68.18 62.104zM59.628 64.016c1.367-.091 3.518-.291 5.453-.721.135-.03.22-.164.19-.299-.03-.134-.164-.216-.298-.189-2.139.476-4.549.666-5.833.739 1.06-.51 3.456-1.229 8.316-.983C66.287 63.342 63.334 64.915 59.628 64.016zM61.387 48.409 61.387 48.409c-.101 0-.191.06-.23.15-3.183 7.342-1.473 10.594-1.398 10.729.002.003.005.004.007.007.003.005.008.007.012.012.031.045.076.075.128.091.007.002.01.011.018.012.008.002.016.002.024.003.001 0 .002.001.004.001.009.002.018.002.027.002l0 0c0 0 0 0 0 0 .066 0 .123-.032.169-.077.005-.005.014-.003.018-.008 4.004-4.542 1.477-10.708 1.452-10.77C61.577 48.47 61.487 48.41 61.387 48.409zM60.457 58.13c.311-1.484.823-4.113.88-5.576.005-.138-.103-.254-.24-.26-.124-.008-.254.103-.26.24-.056 1.471-.607 4.247-.909 5.676-.289-1.306-.479-4.176 1.435-8.855C61.823 50.835 62.706 54.785 60.457 58.13zM71.705 53.997c-7.672 2.277-9.065 5.676-9.121 5.819-.005.012-.002.025-.005.037-.003.012-.003.021-.004.034-.004.055.003.111.035.158.001.002.004.003.005.005.001.001 0 .003.001.004.001.002.005.001.007.003.045.059.113.097.188.099.077.002.153.003.229.003 5.903 0 8.928-5.75 8.958-5.809.046-.089.034-.196-.03-.273C71.904 53.999 71.801 53.966 71.705 53.997zM63.657 59.627c1.043-.703 3.129-2.027 5.286-2.911.128-.053.189-.198.137-.326-.053-.128-.198-.188-.326-.137-1.949.8-3.841 1.95-4.985 2.7.957-1.107 3.067-2.883 7.46-4.286C70.37 55.998 67.819 59.319 63.657 59.627zM64.852 52.017c.001.001.001.001.002.002.009.006.016.014.024.021.043.03.092.044.142.045 0 0 0 0 .001 0l0 0h0l0 0c.006 0 .013 0 .019-.001.034-.003.056-.028.085-.043.025-.012.055-.011.076-.032.132-.137 3.166-3.415-2.642-9.15-.071-.07-.177-.093-.27-.054-.092.037-.154.125-.156.225C62.127 43.312 61.991 49.968 64.852 52.017zM65.201 51.13c-.136-1.146-.497-3.476-1.304-5.08-.062-.123-.213-.173-.336-.111-.124.062-.173.213-.111.336.773 1.536 1.126 3.85 1.257 4.953-1.773-1.834-2.037-6.01-2.07-7.578C66.348 47.536 65.745 50.086 65.201 51.13zM75.626 47.999c-.001 0-.002 0-.003 0-8.162.094-8.255 4.56-8.255 4.75 0 .001.001.002.001.004 0 .013.011.023.013.036.009.05.024.095.058.13.003.003.002.009.005.012.016.015.038.012.057.022.025.015.046.038.077.043.184.029.371.043.56.043 3.395 0 7.489-4.423 7.671-4.621.067-.073.084-.18.044-.271C75.814 48.057 75.724 47.999 75.626 47.999zM68.203 52.53c.775-.717 2.575-2.214 4.498-2.648.135-.03.22-.164.189-.299-.031-.135-.167-.218-.299-.189-1.937.437-3.689 1.829-4.565 2.62.4-1.154 1.834-3.286 6.991-3.5C73.897 49.628 70.765 52.493 68.203 52.53zM77.358 39.617c-.066-.075-.171-.104-.266-.071-7.516 2.472-7.571 6.45-7.57 6.618 0 .003.003.005.003.009.001.025.019.044.028.068.014.037.022.074.051.1.003.003.002.008.005.011.028.024.063.026.096.036.02.006.033.024.054.025.075.003.148.005.223.005 4.321 0 7.289-6.258 7.415-6.528C77.44 39.799 77.424 39.691 77.358 39.617zM70.362 45.887c.76-.804 2.52-2.536 4.55-3.672.121-.067.164-.22.097-.34-.067-.12-.22-.165-.341-.096-1.932 1.081-3.587 2.643-4.451 3.533.434-1.202 1.845-3.44 6.447-5.092C75.872 41.682 73.471 45.581 70.362 45.887zM62.474 30.32c-.087-.052-.197-.048-.278.016-.081.062-.116.165-.091.264.067.251 1.687 6.162 6.035 6.947.015.003.029.004.044.004l0 0 0 0 0 0c.067 0 .133-.027.18-.076.003-.004.004-.009.007-.013.001-.002.004-.001.006-.003.004-.005.002-.012.005-.017.031-.043.045-.093.044-.146 0-.011.002-.02 0-.03 0-.007.002-.013 0-.019C68.394 37.088 67.516 33.305 62.474 30.32zM62.793 31.105c3.004 1.944 4.309 4.171 4.832 5.371-.85-.778-2.218-2.138-2.771-3.302-.059-.124-.209-.178-.333-.118-.125.059-.178.208-.118.333.56 1.18 1.851 2.5 2.731 3.318C64.619 35.578 63.271 32.456 62.793 31.105zM70.63 38.558c-.003.012.001.023.001.035-.001.013 0 .023.001.036.004.058.021.114.062.157 0 0 .001 0 .001 0 0 0 0 0 0 0 .049.05.114.075.179.075.015 0 .029-.001.044-.004 4.349-.785 5.968-6.696 6.035-6.947.026-.099-.01-.202-.091-.264-.081-.062-.19-.066-.278-.016C71.542 34.616 70.664 38.399 70.63 38.558zM76.265 32.417c-.49 1.385-1.893 4.636-4.534 5.687.782-.798 2.058-2.142 2.887-3.239.083-.109.062-.267-.049-.35-.11-.084-.267-.062-.351.049-.75.992-1.916 2.234-2.699 3.039C72.092 36.371 73.402 34.27 76.265 32.417zM61.186 24.135c-.096-.044-.208-.024-.283.05-.075.075-.095.188-.049.284.109.229 2.712 5.641 6.187 6.141.012.002.024.003.036.003l0 0 0 0c.052 0 .104-.016.148-.049.004-.003.004-.01.008-.013.004-.004.011-.002.016-.006.014-.014.009-.036.02-.053.026-.04.046-.077.047-.124 0-.01.011-.017.01-.026C67.313 30.199 66.956 26.858 61.186 24.135zM61.66 24.929c2.697 1.406 3.99 2.933 4.609 4.013-.648-.771-1.491-1.683-2.187-2.12-.117-.071-.271-.037-.345.079-.073.117-.038.271.079.345.852.533 2.002 1.909 2.621 2.693C64.223 29.151 62.399 26.258 61.66 24.929zM70.173 32.349c.001.007.009.009.011.016.012.054.046.096.092.132.01.008.01.024.021.031.002.001.004.001.006.002.001.001.001.002.003.003.037.019.076.027.114.027l0 0 0 0c.032 0 .064-.006.095-.019.011-.005.021-.012.033-.017 0 0 .001-.001.002-.001 3.223-1.354 4.436-7.187 4.486-7.435.021-.104-.025-.209-.116-.264-.091-.056-.206-.049-.288.021C69.691 28.88 70.151 32.209 70.173 32.349zM74.364 25.728c-.388 1.436-1.429 4.555-3.307 5.909.493-.917 1.344-2.444 2.094-3.503.08-.113.053-.269-.06-.349-.113-.08-.269-.052-.349.06-.697.985-1.477 2.36-1.987 3.3C70.996 29.974 71.798 27.998 74.364 25.728zM68.1 25.978c.004.014.009.024.016.037.023.048.058.088.106.112.004.002.005.008.009.01.001.001.003 0 .005.001.001 0 .001.001.002.002.03.012.061.017.091.018.001 0 .002.001.003.001l0 0 0 0c0 0 .001 0 .001 0 .051 0 .099-.018.14-.047.003-.002.007-.001.01-.003 3.722-2.821 2.248-7.326 2.233-7.371-.03-.089-.108-.154-.201-.167-.092-.016-.186.026-.24.103-2.669 3.779-2.211 7.132-2.19 7.272C68.087 25.958 68.096 25.967 68.1 25.978zM70.379 19.414c.227 1.064.484 3.552-1.379 5.556.343-.842.822-2.082 1.201-3.334.04-.132-.035-.271-.167-.312-.132-.041-.271.034-.312.167-.362 1.195-.815 2.378-1.151 3.207C68.647 23.509 69.002 21.55 70.379 19.414zM59.592 18.07c.013.002.026.003.039.003l0 0 0 0c.057 0 .113-.02.16-.059.001-.001 0-.002.001-.002.001-.001.003-.001.004-.002.01-.009.007-.026.016-.036.036-.044.062-.091.063-.145 0-.005.006-.009.006-.014-.005-.162-.185-3.994-5.639-5.781-.091-.031-.191-.005-.258.064-.066.068-.088.17-.054.26C54.008 12.567 55.877 17.489 59.592 18.07zM59.197 16.929c-.699-.81-1.83-2.086-2.6-2.777-.103-.09-.261-.082-.354.02-.092.103-.083.261.02.354.771.692 1.952 2.031 2.635 2.825-2.297-.837-3.758-3.515-4.281-4.653C57.775 13.889 58.838 15.803 59.197 16.929zM66.056 21.735c.001.001.004.004.005.005.021.021.053.021.08.033.03.014.054.039.088.04.003 0 .006 0 .008 0l0 0c.008 0 .016 0 .023-.001.018-.002.028-.021.045-.027.046-.015.086-.032.117-.069.005-.006.016-.005.021-.012 2.116-3.108-.199-7.838-.298-8.037-.042-.085-.129-.139-.224-.139-.102.027-.186.057-.227.145-2.406 5.162.208 7.908.359 8.061C66.056 21.734 66.056 21.735 66.056 21.735zM65.923 14.398c.455 1.113 1.362 3.832.583 6.039.008-1.231-.022-3.12-.257-3.902-.04-.133-.179-.213-.312-.168-.132.039-.207.179-.168.311.241.806.247 3.014.232 4.162C65.41 19.896 64.543 17.741 65.923 14.398zM67.034 45.675c.011.005.02.013.032.018.033.016.068.022.103.022l0 0 0 0c.031 0 .063-.006.094-.019.005-.002.005-.008.01-.01.048-.022.091-.055.117-.105.078-.149 1.844-3.715-3.718-9.344-.07-.071-.176-.092-.269-.058-.093.036-.155.124-.159.224-.011.303-.229 7.41 3.784 9.268C67.03 45.674 67.032 45.674 67.034 45.675zM63.745 37.035c3.522 3.763 3.594 6.49 3.386 7.669-.463-1.159-1.409-3.562-1.871-4.997-.042-.132-.182-.201-.315-.162-.131.043-.203.184-.161.314.465 1.446 1.415 3.858 1.881 5.026C64.132 43.143 63.784 38.675 63.745 37.035zM64.176 23.045c-.005-.014-.004-.03-.012-.043-.072-.123-1.829-3.016-6.282-4.269-.09-.027-.188.001-.251.07-.064.069-.084.169-.051.257.016.044 1.651 4.322 6.141 4.322.078 0 .157-.001.236-.004.021-.001.038-.012.057-.017.021-.006.043-.008.062-.019.022-.013.037-.035.054-.054.012-.013.027-.021.036-.036 0-.001 0-.001 0-.002 0-.001.001-.001.001-.002.028-.051.03-.109.02-.165C64.184 23.07 64.181 23.059 64.176 23.045zM58.268 19.373c2.308.757 3.792 1.977 4.625 2.849-.969-.578-2.271-1.383-2.843-1.867-.105-.088-.264-.076-.353.03-.089.105-.075.264.03.353.658.555 2.172 1.479 3.165 2.066C60.16 22.435 58.765 20.347 58.268 19.373zM29.926 66.38c-13.65-5.367-21.66-20.831-18.131-35.081 1.088-4.668 3.329-9.056 6.431-12.718.044-.052.047-.118.059-.181.72-.553 2.889-2.703 1.237-7.624-.031-.093-.112-.158-.209-.169-.099-.013-.191.035-.242.118-.104.173-2.542 4.253-1.552 7.345.014.043.039.077.07.106-3.172 3.71-5.486 8.164-6.636 12.921C7.19 45.81 15.389 61.836 29.467 67.5 30.214 67.819 30.66 66.661 29.926 66.38zM19.221 11.49c.952 3.306.022 5.14-.713 6.004.279-.877.635-2.261.663-3.711.002-.138-.107-.252-.245-.255-.001 0-.003 0-.005 0-.136 0-.248.108-.25.245-.03 1.55-.461 3.046-.735 3.852C17.399 15.397 18.637 12.616 19.221 11.49zM28.853 55.485c-.104.003-.195.07-.229.169-.083.244-2.013 6.013.178 10.037.004.008.015.007.02.014.029.045.073.07.125.088.015.005.021.023.037.026C28.989 65.82 28.994 65.82 29 65.82c0 0 .001.001.001.001.007.001.014.001.02.001h0l0 0c0 0 0 0 0 0 .065 0 .125-.027.17-.069 0-.001.002 0 .002-.001.118-.113 2.851-2.861-.103-10.111C29.053 55.544 28.962 55.488 28.853 55.485zM29.335 64.633c.074-1.294.158-3.605-.066-5.12-.021-.138-.147-.233-.284-.211-.137.02-.231.147-.211.283.209 1.415.137 3.615.066 4.912-1.06-2.92-.341-6.5.054-7.986C30.542 60.943 29.896 63.481 29.335 64.633zM25.324 63.571c.044.037.097.063.156.063.017 0 .033-.002.05-.005.002 0 .003-.004.006-.005.011-.002.021-.002.032-.006.065-.025.114-.074.14-.133 0-.001.001-.001.001-.001.046-.106 1.079-2.682-2.851-9.858-.049-.09-.147-.142-.247-.128-.101.011-.185.082-.212.18-.016.056-1.544 5.636 2.908 9.888C25.311 63.569 25.319 63.567 25.324 63.571zM22.748 54.475c2.214 4.2 2.606 6.655 2.61 7.864-.495-1.34-1.364-3.735-1.667-4.808-.038-.133-.176-.21-.309-.173-.133.037-.21.175-.173.308.295 1.046 1.092 3.254 1.598 4.626C22.346 59.288 22.532 55.883 22.748 54.475zM21.867 64.069c.013-.005.015-.023.026-.031.044-.026.071-.059.093-.106.007-.015.028-.02.032-.037.003-.012-.001-.024 0-.037.001-.006.007-.01.007-.016 0-.007-.007-.012-.007-.019-.003-.056-.018-.111-.056-.153-.001-.001-.005-.005-.006-.006 0 0 0 0 0-.001-.115-.126-2.056-2.098-10.136-1.56-.101.006-.188.073-.22.17-.032.096-.003.202.073.269.034.029 2.654 2.246 6.47 2.246C19.29 64.789 20.544 64.589 21.867 64.069zM20.86 63.545c-1.284-.073-3.694-.263-5.833-.739-.134-.025-.268.056-.298.189-.03.135.055.269.189.299 1.934.43 4.083.63 5.45.721-3.699.893-6.652-.675-7.823-1.454C17.407 62.319 19.8 63.037 20.86 63.545zM19.853 59.34c.046.045.103.077.169.077l0 0h0c.009 0 .018 0 .027-.002.001 0 .002-.001.003-.001.008-.001.016-.001.024-.003.008-.002.01-.01.018-.012.052-.016.097-.046.128-.091.003-.005.008-.007.011-.013.002-.003.005-.004.007-.007.074-.135 1.785-3.387-1.398-10.729-.04-.091-.13-.15-.229-.15 0 0-.001 0-.001 0-.1.001-.19.061-.229.153-.026.062-2.553 6.228 1.452 10.77C19.84 59.337 19.848 59.335 19.853 59.34zM18.637 49.355c1.915 4.679 1.725 7.548 1.435 8.855-.301-1.429-.852-4.205-.909-5.676-.005-.138-.131-.249-.259-.24-.138.006-.246.122-.24.26.056 1.463.569 4.092.879 5.576C17.293 54.785 18.177 50.835 18.637 49.355zM17.189 60.156c.075-.002.143-.041.188-.099.001-.002.005-.001.007-.003 0-.001 0-.002 0-.004.001-.002.004-.003.006-.005.032-.047.039-.103.035-.158-.001-.012-.002-.022-.005-.034-.002-.012 0-.025-.005-.037-.056-.144-1.449-3.542-9.121-5.819-.096-.032-.2.002-.263.08-.064.077-.076.185-.03.273.03.059 3.055 5.809 8.958 5.809C17.036 60.159 17.113 60.158 17.189 60.156zM8.772 54.667c4.393 1.403 6.503 3.179 7.46 4.286-1.144-.749-3.036-1.9-4.984-2.7-.128-.051-.274.009-.326.137-.053.128.008.273.136.326 2.157.884 4.243 2.208 5.286 2.911C12.181 59.318 9.63 55.997 8.772 54.667zM14.873 52.041c.029.015.051.041.085.043.006.001.013.001.019.001l0 0 0 0c0 0 0 0 0 0 0 0 0 0 .001 0 .049 0 .099-.015.142-.045.009-.006.016-.014.024-.021.001-.001.002-.001.002-.002 2.861-2.049 2.725-8.705 2.718-8.988-.002-.1-.064-.188-.157-.225-.092-.039-.198-.017-.269.054-5.808 5.735-2.774 9.014-2.642 9.15C14.818 52.03 14.848 52.028 14.873 52.041zM17.363 43.649c-.034 1.568-.297 5.744-2.07 7.578.131-1.102.484-3.417 1.257-4.953.062-.123.013-.273-.111-.336-.123-.062-.273-.012-.335.111-.803 1.596-1.164 3.907-1.301 5.06C14.274 50.049 13.708 47.482 17.363 43.649zM12.421 52.996c.031-.005.051-.028.077-.043.018-.01.041-.007.056-.022.003-.003.002-.009.005-.012.034-.035.049-.08.058-.129.002-.013.013-.023.013-.036 0-.001.001-.002.001-.004 0-.19-.093-4.656-8.254-4.75-.001 0-.002 0-.003 0-.099 0-.188.058-.228.148-.041.091-.023.197.044.271.182.198 4.275 4.621 7.67 4.621C12.05 53.039 12.237 53.025 12.421 52.996zM4.982 48.515c5.238.215 6.635 2.363 7.009 3.516-.87-.788-2.634-2.196-4.583-2.636-.133-.029-.269.055-.299.189-.03.134.054.269.189.299 1.923.434 3.724 1.932 4.499 2.649C9.234 52.501 6.104 49.628 4.982 48.515zM12.728 45.687c.004.002.005.008.01.01.03.013.062.019.094.019 0 0 0 0 0 0l0 0c.035 0 .069-.007.103-.022.011-.005.02-.013.031-.018.002-.001.004-.002.005-.003 4.013-1.858 3.795-8.966 3.784-9.268-.004-.1-.066-.188-.159-.224-.092-.033-.198-.014-.269.058-5.561 5.629-3.795 9.194-3.718 9.344C12.637 45.632 12.68 45.665 12.728 45.687zM16.255 37.035c-.038 1.64-.386 6.108-2.919 7.85.466-1.167 1.416-3.58 1.88-5.026.042-.131-.03-.271-.161-.314-.132-.039-.272.03-.314.162-.462 1.434-1.407 3.837-1.871 4.997C12.661 43.525 12.733 40.798 16.255 37.035zM10.017 46.417c.074 0 .148-.002.223-.005.021-.001.035-.019.054-.025.033-.01.068-.011.096-.036.003-.003.002-.008.005-.011.028-.026.037-.063.05-.1.009-.024.027-.043.028-.069 0-.003.003-.005.003-.009.001-.168-.054-4.146-7.57-6.618-.095-.034-.198-.004-.265.071-.066.074-.082.182-.04.271C2.729 40.159 5.696 46.417 10.017 46.417zM9.783 45.313c-.863-.89-2.519-2.452-4.451-3.533-.12-.07-.272-.025-.34.096-.067.12-.024.272.096.34 2.028 1.135 3.789 2.868 4.55 3.671-3.108-.307-5.509-4.206-6.301-5.666C7.938 41.873 9.348 44.11 9.783 45.313zM9.082 38.858c.015.003.03.004.044.004.065 0 .129-.025.178-.075 0 0 0 0 0 0 0 0 .001 0 .001 0 .041-.043.058-.099.062-.157.001-.013.002-.023.001-.036-.001-.012.003-.023.001-.035-.035-.159-.913-3.942-5.954-6.927-.087-.052-.197-.048-.278.016-.081.062-.117.165-.091.264C3.114 32.162 4.734 38.073 9.082 38.858zM8.479 37.603c-.783-.805-1.949-2.047-2.699-3.039-.083-.111-.24-.133-.35-.049-.11.083-.132.24-.048.35.829 1.096 2.104 2.44 2.887 3.239-2.641-1.052-4.044-4.302-4.534-5.687C6.598 34.27 7.909 36.37 8.479 37.603zM9.451 32.523c.001 0 .001.001.002.001.011.005.021.012.033.017.03.013.062.019.094.019l0 0c0 0 0 0 0 0 .038 0 .077-.009.113-.027.001-.001.001-.002.003-.003.002-.001.004-.001.006-.002.012-.006.012-.023.021-.031.045-.036.08-.078.092-.132.002-.006.01-.009.011-.016.022-.14.482-3.469-4.459-7.504-.082-.069-.196-.076-.287-.021-.09.055-.137.16-.116.264C5.015 25.336 6.227 31.169 9.451 32.523zM9.236 31.128c-.511-.939-1.286-2.304-1.979-3.283-.08-.111-.236-.14-.349-.06-.113.08-.14.235-.06.349.75 1.06 1.601 2.586 2.094 3.504-1.877-1.354-2.919-4.473-3.307-5.909C8.179 27.979 8.987 29.952 9.236 31.128zM22.369 18.804c-.063-.068-.161-.099-.251-.07-4.453 1.253-6.209 4.146-6.282 4.269-.008.013-.007.029-.012.043-.005.014-.009.025-.011.039-.011.056-.009.114.019.165 0 .001.001.001.002.002 0 .001 0 .001 0 .002.009.016.025.023.036.036.018.019.032.041.054.054.02.011.042.013.063.019.019.005.036.016.056.017.08.003.158.004.236.004 4.489 0 6.125-4.278 6.141-4.322C22.453 18.973 22.433 18.873 22.369 18.804zM17.106 22.804c.993-.587 2.507-1.511 3.166-2.066.105-.089.119-.247.03-.353-.089-.106-.247-.118-.352-.03-.573.483-1.874 1.288-2.843 1.866.833-.872 2.318-2.092 4.625-2.849C21.235 20.347 19.841 22.435 17.106 22.804zM11.516 26.108c.003.002.006.001.009.003.042.029.089.047.14.047 0 0 .001 0 .001 0 0 0 0 0 0 0l0 0c.001 0 .002-.001.003-.001.031 0 .062-.006.091-.018.001 0 .001-.001.002-.002.001-.001.003 0 .005-.001.004-.002.005-.007.009-.01.048-.025.083-.064.106-.112.007-.013.012-.023.016-.037.003-.012.012-.021.014-.033.021-.141.479-3.493-2.191-7.272-.054-.076-.147-.118-.24-.103-.093.013-.17.078-.201.167C9.267 18.782 7.794 23.287 11.516 26.108zM9.621 19.414c1.376 2.136 1.732 4.095 1.808 5.284-.336-.829-.79-2.012-1.152-3.207-.04-.133-.179-.209-.312-.167-.132.04-.207.18-.167.312.379 1.252.857 2.492 1.201 3.334C9.137 22.966 9.394 20.478 9.621 19.414zM20.126 17.829c.001.054.027.101.062.145.009.01.005.027.016.036.001.001.003.001.004.002.001.001.001.002.001.002.046.039.104.059.16.059 0 0 0 0 0 0l0 0c.013 0 .026-.001.039-.003 3.716-.581 5.584-5.503 5.662-5.712.033-.09.012-.191-.055-.26-.066-.068-.167-.095-.258-.064-5.453 1.787-5.633 5.619-5.638 5.781C20.119 17.821 20.125 17.824 20.126 17.829zM25.383 12.696c-.522 1.137-1.984 3.816-4.281 4.653.683-.793 1.863-2.133 2.635-2.825.103-.093.111-.251.019-.354-.093-.103-.25-.11-.353-.02-.77.691-1.9 1.967-2.599 2.777C21.162 15.803 22.224 13.889 25.383 12.696zM13.577 21.716c.03.037.07.054.117.069.017.006.027.025.045.027.007.001.015.001.023.001l0 0c.002 0 .005 0 .008 0 .035-.001.059-.026.089-.04.026-.012.059-.012.08-.033 0-.001.004-.004.005-.005 0 0 0-.001.001-.001.152-.153 2.765-2.899.359-8.061-.041-.087-.127-.144-.224-.145-.092-.019-.184.053-.227.139-.1.199-2.414 4.929-.299 8.037C13.56 21.711 13.571 21.71 13.577 21.716zM14.078 14.399c1.379 3.343.512 5.497-.08 6.441-.015-1.148-.009-3.356.232-4.162.04-.132-.035-.271-.168-.311-.133-.045-.271.035-.311.168-.234.782-.265 2.671-.257 3.902C12.717 18.231 13.623 15.512 14.078 14.399zM27.557 66.871c-.005-.004-.003-.013-.009-.016-.133-.096-3.334-2.281-9.923 1.946-.087.056-.131.161-.109.263.022.102.105.18.208.194.096.015 1.014.144 2.311.144 2.14 0 5.311-.352 7.526-2.149.005-.004.003-.012.008-.017.047-.044.076-.103.078-.171 0-.005.007-.009.007-.014 0-.001-.001-.001-.001-.002 0-.001.001-.001.001-.002C27.649 66.972 27.611 66.913 27.557 66.871zM18.516 68.836c3.949-2.363 6.53-2.263 7.804-1.942-1.229.125-3.252.417-4.649 1.065-.125.058-.18.206-.122.332.042.091.133.145.228.145.035 0 .07-.008.104-.023 1.37-.634 3.447-.917 4.628-1.033C23.822 69.029 20.072 68.956 18.516 68.836zM11.573 37.296c-.001.053.014.103.044.146.003.005.001.012.005.017.001.002.004.001.006.003.003.004.003.009.007.013.047.049.112.076.18.076l0 0 0 0h0c.014 0 .029-.001.044-.004 4.348-.785 5.968-6.696 6.035-6.947.026-.099-.01-.202-.091-.264-.081-.062-.19-.066-.278-.016-5.042 2.984-5.919 6.768-5.954 6.927-.001.007.001.013 0 .019C11.57 37.277 11.573 37.286 11.573 37.296zM17.207 31.105c-.478 1.351-1.826 4.472-4.342 5.602.881-.818 2.171-2.138 2.732-3.318.059-.125.006-.274-.119-.333-.124-.06-.274-.006-.333.118-.552 1.163-1.92 2.524-2.77 3.301C12.899 35.276 14.203 33.049 17.207 31.105zM12.731 30.491c.01.016.005.039.02.053.004.004.012.003.016.006.004.004.003.01.008.013.044.033.096.049.147.049l0 0 0 0c.012 0 .024-.001.036-.003 3.475-.5 6.078-5.911 6.188-6.141.045-.096.025-.209-.049-.284-.075-.074-.188-.094-.284-.05-5.77 2.724-6.127 6.064-6.14 6.206 0 .01.01.017.01.026C12.684 30.414 12.705 30.451 12.731 30.491zM18.34 24.929c-.739 1.329-2.562 4.222-4.777 5.011.619-.784 1.769-2.159 2.621-2.693.117-.073.152-.228.079-.345-.074-.117-.228-.152-.345-.079-.697.437-1.539 1.348-2.187 2.12C14.35 27.861 15.643 26.335 18.34 24.929z"/>
</svg>