<svg xmlns="http://www.w3.org/2000/svg" viewBox="0 0 80 80">
<path d="M32.617 11.782c.016 0 1.519.029 2.356.896.986 1.021 2.81 2.257 4.662 2.72.455.114.993.161 1.58.161.173 0 .354-.008.535-.016.002 0 .005.002.008.002.003 0 .007-.003.01-.003 1.764-.078 3.836-.497 5.384-.812.094-.02.168-.09.192-.182.024-.092-.006-.19-.078-.252-.059-.051-1.463-1.239-4.404-1.258-3.942-.025-8.163-1.499-9.076-1.836.24-.129.511-.277.791-.433.193.048.653.147 1.28.183.016.037.041.071.075.098.059.046.137.075.201.117.041.056.099.097.173.104 0 0 .006 0 .007.001.783.435 1.865.61 3.048.61 1.194 0 2.471-.16 3.582-.355 2.297-.402 5.238-1.59 5.362-1.641.094-.038.156-.129.156-.23 0-.101-.06-.192-.153-.231-4.848-2.031-6.925-.869-8.594.064-.409.229-.795.445-1.189.594-1.266.478-2.532.409-3.269.304.388-.224.778-.456 1.142-.687.443.09 2.041.211 4.592-1.779 1.814-1.413 2.465-3.261 2.492-3.339.031-.09.008-.189-.059-.257-.066-.067-.167-.093-.256-.062-.175.058-4.292 1.441-5.54 3.847-.21.405-1.701 1.333-3.203 2.174-.001.001-.003.002-.004.003-.674.377-1.349.737-1.912 1.023-.103.052-.156.167-.13.279C32.404 11.701 32.502 11.78 32.617 11.782zM38.796 13.101c.202.158 1.118.822 2.861 1.287.549.147.948.198 1.3.243.336.043.608.087.903.195-.699.103-1.396.177-2.053.21-.326-.183-1.661-.916-2.974-1.426-.551-.214-1.168-.553-1.704-.875C37.654 12.864 38.21 12.989 38.796 13.101zM46.453 14.362c-.535.108-1.133.223-1.752.329-.667-.416-1.121-.484-1.68-.556-.336-.043-.717-.092-1.234-.229-.662-.177-1.196-.385-1.612-.579.883.123 1.789.207 2.685.213C44.655 13.551 45.844 14.029 46.453 14.362zM35.546 12.306c.167.119 1.787 1.257 3.106 1.77.764.296 1.531.669 2.099.961-.362-.018-.705-.052-.995-.124-1.756-.439-3.487-1.614-4.424-2.583-.042-.044-.086-.086-.131-.126C35.308 12.237 35.432 12.272 35.546 12.306zM42.855 11.034c-1.943.34-3.556.424-4.765.265.504-.021 1.077-.066 1.686-.162.457-.072.935-.179 1.44-.293 1.254-.28 2.648-.584 4.189-.461C44.575 10.643 43.666 10.892 42.855 11.034zM44.95 8.917c-1.125.138-2.736.343-4.138.552C41.832 8.969 43.06 8.598 44.95 8.917zM38.7 10.551c.264-.1.519-.227.773-.362 2.247-.394 6.348-.874 6.881-.936.371.111.758.239 1.174.398-.275.104-.637.235-1.045.377-2.04-.415-3.812-.02-5.376.33-.498.111-.968.217-1.409.286-.703.111-1.366.154-1.917.167C38.083 10.746 38.39 10.667 38.7 10.551zM40.901 5.829c-.388.599-1.166 1.469-2.57 2.115C38.938 7.08 39.94 6.363 40.901 5.829zM37.733 8.731c2.865-.967 3.772-2.847 3.958-3.314.421-.203.8-.363 1.086-.477-.314.628-.969 1.707-2.096 2.585-1.669 1.301-2.882 1.636-3.575 1.699C37.353 9.05 37.566 8.883 37.733 8.731zM20.803 16.415c.05 0 .1-.015.144-.046.023-.016 1.331-.922 3.348-1.744.16.142.488.388 1.105.679.236.111.403.185.532.242.348.154.401.178.869.513.044.031.095.047.146.047.078 0 .154-.036.203-.104.081-.112.055-.269-.058-.349-.493-.354-.58-.396-.958-.563-.126-.057-.29-.129-.522-.238-.367-.172-.609-.322-.774-.439.599-.225 1.253-.432 1.945-.609.012.005.019.018.032.021.008.001.816.158 1.305.655.049.049.113.074.178.074.063 0 .126-.023.175-.072.099-.097.1-.255.003-.354-.234-.238-.518-.409-.78-.531.682-.135 1.392-.235 2.125-.273.138-.008.244-.125.237-.263-.007-.139-.125-.249-.263-.237-1.276.066-2.483.296-3.579.603.352-.261.817-.538 1.394-.707 1.099-.321 1.689-.487 1.903-.547.044.036.094.04.163.056.409-.01 1.768-.079 2.106-.584.096-.143.114-.312.05-.479-.062-.16-.186-.275-.35-.323-.597-.18-1.741.609-2.05.834-.142.039-.634.176-1.592.454.223-.264.583-.594 1.164-.903.042.009.088.005.132-.012.311-.115 1.336-.535 1.471-1.076.043-.174-.003-.348-.129-.489-.123-.138-.287-.209-.461-.182-.535.063-1.087.97-1.292 1.341-1.137.617-1.532 1.323-1.642 1.567-1.239.485-1.943 1.351-1.982 1.401-.31.108-.609.218-.894.332.18-.254.346-.546.423-.833.129-.483.961-1.121 1.325-1.363.012-.002.024-.004.037-.008.334-.102 1.436-.475 1.594-.989.049-.157.016-.318-.094-.453-.106-.132-.256-.207-.42-.191-.53.025-1.165.892-1.388 1.222-.154.103-.592.409-.966.79.023-.144.094-.343.271-.619.038-.009.075-.025.107-.052.339-.278 1.123-.979 1.077-1.478-.014-.156-.101-.285-.244-.364-.137-.077-.292-.084-.436-.021-.48.207-.797 1.23-.897 1.603-.51.772-.419 1.222-.29 1.449-.069.115-.128.23-.159.346-.168.632-.939 1.36-.947 1.367-.011.01-.009.027-.018.039-1.5.698-2.444 1.351-2.524 1.407-.112.079-.14.235-.06.348C20.646 16.378 20.724 16.415 20.803 16.415zM31.259 11.343c.042 0 .08.005.111.018-.038.108-.45.241-1.008.314C30.714 11.479 31.051 11.343 31.259 11.343zM30.07 9.964c.004 0 .009.001.013.002l.038.054c-.031.123-.289.31-.605.479C29.752 10.177 29.973 9.964 30.07 9.964zM27.097 10.769c.003 0 .007 0 .01.001-.021.083-.216.218-.49.353C26.828 10.903 27.01 10.769 27.097 10.769zM25.674 10.183c.006.082-.114.263-.3.474C25.491 10.398 25.605 10.215 25.674 10.183zM9.07 38.835c-.035.455-.057.875-.069 1.25C9 40.101 8.999 40.113 9 40.129c-.04 1.277.024 2.051.027 2.081.012.129.121.227.249.227.008 0 .016 0 .023-.001.138-.013.239-.135.226-.272-.003-.029-.062-.756-.029-1.957.341-.331 1.841-1.73 3.498-2.357 2.109-.797 2.569-2.939 2.95-5.658.014-.097-.029-.191-.11-.244-.081-.054-.186-.054-.268-.004-.065.04-1.612 1.01-2.374 3.282-.632 1.883-1.957 2.943-2.268 3.173-.585.399-1.069.804-1.399 1.099.071-1.335.261-3.09.704-5.064.474-1.054 1-1.684 1.521-2.124.016-.011.031-.023.045-.038.304-.251.605-.443.893-.627.417-.266.81-.517 1.158-.894 2.404-2.604 3.38-5.678 3.42-5.808.032-.102-.004-.212-.09-.275-.086-.062-.202-.065-.29-.005-1.104.754-1.295 1.074-1.539 1.574-.186.382-.417.857-1.454 1.893-1.97 1.968-2.417 3.428-2.507 3.828-.241.206-.482.462-.72.763.84-2.923 2.261-6.171 4.653-9.203.008.001.014.009.023.009.003 0 .006 0 .009 0 .903-.033 2.781-.103 3.554-.906.673-.7 2.088-1.855 2.103-1.867.083-.067.113-.181.076-.281-.038-.1-.128-.159-.243-.162-.725.026-1.163.307-1.627.604-.305.195-.619.397-1.066.575-1.062.424-1.78 1.246-1.979 1.493-.154.012-.3.02-.435.027.545-.655 1.131-1.299 1.774-1.924.615-.478 1.477-.647 2.239-.797.652-.128 1.215-.239 1.514-.532.516-.506 1.367-.877 1.375-.881.113-.049.174-.174.143-.293-.032-.12-.146-.2-.269-.186-2.93.315-4.253 1.668-4.308 1.726-.016.017-.028.034-.039.053-.107.039-.209.09-.313.138.079-.251.117-.462.13-.667.223-.272 1.055-1.323 1.357-2.149.135-.366.18-.619.221-.843.062-.338.109-.605.471-1.188.059-.096.048-.218-.028-.301-.076-.083-.197-.104-.297-.055-.082.042-2.021 1.043-2.188 3.183-.029.384-.028.667-.028.908 0 .121 0 .229-.003.333 0 .005 0 .011 0 .016-.015.345-.081.641-.351 1.202-2.432 2.373-4.141 4.989-5.345 7.556-.049-.34-.147-.623-.262-.877.25-.319.975-1.666 2.239-7.265.025-.112-.03-.229-.134-.279-.104-.049-.229-.025-.303.065-.089.107-2.178 2.65-2.803 4.825-.34 1.184-.002 1.814.324 2.426.31.578.602 1.124.408 2.225-.003.018.01.032.011.049-.688 1.661-1.172 3.279-1.512 4.776-.011.024-.022.041-.032.065-.013.029 0 .057-.002.087-.262 1.184-.438 2.29-.549 3.274-.263-.639-.544-1.175-.817-1.63.018-.026.03-.058.036-.092.017-.101.424-2.486.439-4.142.01-1.076-.043-2.265-.095-3.415-.028-.615-.054-1.208-.069-1.744-.003-.118-.089-.219-.206-.239-.116-.022-.231.042-.276.153-.063.156-1.544 3.861-1.757 5.993-.123 1.229.373 1.991 1.001 2.955C7.947 36.305 8.584 37.285 9.07 38.835zM13.666 35.383c.449-1.339 1.204-2.195 1.692-2.642-.347 2.255-.841 3.998-2.541 4.641-.095.035-.189.073-.283.113C12.952 36.956 13.374 36.253 13.666 35.383zM14.248 28.482c1.097-1.095 1.358-1.634 1.55-2.027.142-.292.249-.511.702-.886-.441 1.078-1.405 3.093-3.021 4.841-.305.33-.671.564-1.06.812-.105.067-.213.136-.321.208C12.38 30.786 12.982 29.746 14.248 28.482zM18.334 21.954c.491-.196.842-.421 1.15-.619.081-.052.158-.101.233-.147-.409.355-.861.763-1.172 1.087-.327.34-.968.521-1.617.622C17.246 22.588 17.732 22.193 18.334 21.954zM21.211 19.14c-.104.081-.206.168-.299.259-.192.188-.711.291-1.26.398-.065.013-.13.026-.198.039C19.88 19.597 20.462 19.336 21.211 19.14zM18.017 18.331c.079-1.029.654-1.768 1.154-2.223-.05.164-.076.309-.103.456-.038.214-.078.434-.198.76-.175.478-.566 1.062-.877 1.488C17.996 18.671 18.003 18.513 18.017 18.331zM11.267 26.913c-.292-.549-.532-1.041-.256-1.998.374-1.303 1.338-2.792 2.009-3.725C12.099 25.064 11.516 26.447 11.267 26.913zM8.219 27.909c.007.169.015.341.022.514.052 1.144.104 2.325.095 3.389-.011 1.198-.241 2.844-.361 3.621-.041-.063-.082-.126-.122-.188-.597-.916-1.029-1.578-.923-2.633C7.064 31.266 7.753 29.194 8.219 27.909zM12.333 44.933c.033-.071.032-.154-.005-.224-.037-.07-.104-.118-.183-.131-.483-.075-.885-.051-1.216.057.106-.359.091-.809-.055-1.351-.02-.072-.07-.133-.138-.163-.068-.03-.147-.029-.214.003-.095.047-.796.413-1.083.961-.381-.422-.997-.665-1.087-.7-.074-.027-.158-.02-.225.025-.067.043-.109.116-.113.195-.027.518.045.938.206 1.265C7.854 44.82 7.425 44.89 6.934 45.09c-.073.029-.128.092-.148.168-.02.076-.002.158.046.22.065.081.551.664 1.127.859-.344.459-.439 1.129-.452 1.226-.009.074.015.149.067.203.047.05.113.078.181.078.006 0 .012 0 .018-.001.596-.042 1.048-.189 1.354-.434.044.378.235.785.573 1.215.047.061.12.096.196.096.003 0 .006 0 .009 0 .08-.003.154-.044.198-.11.055-.082.429-.661.484-1.239.226.089.478.125.709.125.35 0 .645-.063.706-.078.072-.017.134-.065.167-.132.033-.067.035-.146.004-.214-.216-.481-.473-.821-.76-1.037C11.94 45.715 12.287 45.027 12.333 44.933zM10.011 46.033c-.095.127-.275.2-.406.18-.12-.023-.278-.188-.311-.372C9.27 45.705 9.321 45.6 9.45 45.522c.099-.06.187-.09.263-.09.024 0 .048.004.069.01.131.036.218.179.25.238C10.098 45.808 10.091 45.926 10.011 46.033zM9.814 44.504c.03-.288.373-.581.65-.766.073.429.036.763-.111.978-.099.144-.229.208-.314.235C9.791 44.725 9.808 44.561 9.814 44.504zM9.233 44.7c.011.047.041.176-.099.368-.085-.022-.21-.075-.325-.198-.171-.184-.271-.477-.296-.857C8.811 44.175 9.169 44.427 9.233 44.7zM8.393 45.431c.154.07.243.175.291.249-.146.208-.283.22-.333.225-.285.017-.634-.24-.878-.473C7.848 45.327 8.163 45.326 8.393 45.431zM8.956 46.88c-.155.21-.458.355-.888.427.084-.323.248-.743.511-.865.027-.013.079-.036.161-.036.081 0 .19.022.335.101C9.077 46.596 9.059 46.74 8.956 46.88zM9.876 48.001c-.197-.324-.283-.62-.25-.868.022-.166.093-.281.149-.35.22.076.27.196.287.24C10.168 47.283 10.024 47.696 9.876 48.001zM10.583 46.796c-.041-.041-.158-.157-.11-.488.083-.031.221-.063.384-.02.253.07.497.308.713.69C11.238 47.008 10.788 47 10.583 46.796zM10.95 45.693c-.049.009-.185.027-.374-.142.029-.084.092-.206.227-.31.2-.154.505-.227.896-.208C11.513 45.316 11.23 45.654 10.95 45.693zM68.94 52.434c0-.002 0-.003 0-.005.018-.771.051-1.535.09-2.165.007-.115-.065-.22-.175-.254-.109-.033-.229.01-.289.109-.008.013-.796 1.293-1.968 1.573-1.38.331-3.372 1.272-4.712 2.632-.932.946-1.743 2.736-2.403 4.468 0 .002-.001.004-.002.006-.315.826-.599 1.64-.84 2.34-.031.09-.008.189.059.257.066.069.167.093.257.062.073-.024 1.81-.63 3.321-3.153 2.025-3.383 5.438-6.269 6.192-6.884-.011.272-.021.581-.028.9-.14.143-.459.488-.808 1.009-.041-.006-.082-.002-.122.015-.07.027-.137.079-.206.113-.052.006-.094.037-.134.073-1.574.887-2.835 3.488-3.633 5.609-.82 2.184-1.292 5.32-1.312 5.452-.015.101.032.2.119.252.04.023.084.035.128.035.053 0 .105-.017.149-.05 4.212-3.144 4.267-5.522 4.311-7.434.011-.469.021-.912.093-1.327.232-1.333.935-2.388 1.399-2.969-.004.448-.003.903.011 1.333-.301.337-1.217 1.652-.801 4.858.296 2.28 1.556 3.78 1.609 3.843.048.057.118.088.19.088.02 0 .041-.003.061-.008.092-.022.163-.097.184-.189.039-.18.939-4.429-.498-6.726C68.943 55.912 68.901 54.155 68.94 52.434zM64.292 54.768c-.236.093-1.274.545-2.563 1.811-.406.399-.652.717-.87.997-.208.267-.384.479-.626.678.266-.653.556-1.291.861-1.872.318-.186 1.631-.965 2.741-1.839.465-.366 1.071-.726 1.621-1.024C65.077 53.906 64.686 54.321 64.292 54.768zM62.243 54.676c1.271-1.289 3.163-2.183 4.473-2.497.059-.015.117-.03.174-.048-.082.075-.174.163-.261.243-.18.08-1.99.899-3.104 1.776-.644.507-1.356.98-1.896 1.32C61.83 55.167 62.034 54.889 62.243 54.676zM61.85 58.046c-.923 1.542-1.94 2.321-2.536 2.678.18-.516.384-1.089.607-1.676.697-.363.986-.72 1.332-1.165.208-.268.444-.571.826-.946.488-.48.938-.834 1.316-1.094C62.843 56.54 62.31 57.277 61.85 58.046zM64.009 59.315c.693-1.845 1.441-3.275 2.192-4.236-.238.444-.489.959-.717 1.532-.17.43-.32.896-.48 1.39-.395 1.223-.841 2.579-1.731 3.843C63.472 60.996 63.719 60.087 64.009 59.315zM63.033 62.954c1.394-1.547 1.955-3.274 2.448-4.8.156-.485.305-.943.469-1.359.262-.659.561-1.25.83-1.73-.098.291-.185.594-.242.918-.048.278-.068.562-.082.851-.803 2.137-2.475 5.915-2.691 6.402-.284.263-.59.531-.938.808C62.877 63.755 62.948 63.376 63.033 62.954zM66.395 58.354c-.088 1.131-.394 2.376-1.627 3.841C65.221 61.157 65.862 59.667 66.395 58.354zM68.136 59.226c-.272-2.097.056-3.312.353-3.94.026.302.061.572.108.793-.624 2.974.543 4.706.842 5.088-.04.466-.094.874-.142 1.178C68.915 61.756 68.319 60.643 68.136 59.226zM69.485 60.279c-.319-.639-.674-1.75-.517-3.289C69.405 57.951 69.514 59.179 69.485 60.279zM73.014 43.427c-.406-.832-.839-.982-1.101-.986-.064-.118-.134-.228-.218-.313-.458-.464-.694-1.499-.696-1.51-.003-.015-.019-.021-.024-.034.161-1.646.079-2.792.071-2.889-.011-.138-.123-.252-.27-.229-.137.011-.24.132-.229.27.002.027.118 1.615-.199 3.773-.201.063-.573.214-1.145.603-.215.147-.363.253-.478.335-.311.222-.358.255-.885.488-.126.056-.184.203-.128.33.042.093.133.148.229.148.034 0 .068-.007.101-.021.556-.246.637-.299.973-.539.113-.08.258-.184.47-.327.335-.229.587-.361.771-.444-.111.63-.265 1.3-.464 1.985-.01.009-.025.007-.035.017-.005.006-.551.621-1.227.79-.134.033-.216.169-.183.303.028.113.13.189.242.189.021 0 .041-.002.061-.008.325-.081.616-.238.855-.402-.231.657-.505 1.318-.845 1.969-.063.123-.017.273.106.338.037.02.077.028.116.028.09 0 .177-.049.222-.134.592-1.133 1.007-2.29 1.3-3.389.046.436.048.978-.1 1.56-.281 1.108-.438 1.701-.496 1.917-.054.02-.102.059-.132.112-.199.356-.83 1.562-.567 2.11.074.155.212.257.387.286.031.006.063.009.094.009.135 0 .261-.051.363-.146.453-.423.359-1.81.324-2.189.038-.142.169-.636.417-1.603.114.326.216.805.186 1.461-.028.033-.049.074-.057.12-.058.326-.218 1.422.18 1.813.1.099.228.149.368.149.039 0 .078-.004.119-.012.181-.035.319-.144.39-.305.217-.493-.283-1.429-.499-1.795.047-1.293-.361-1.992-.516-2.21.212-1.312-.175-2.357-.199-2.418.065-.322.122-.636.168-.939.128.284.294.575.503.787.352.357.477 1.399.501 1.835-.005.011-.009.022-.012.035-.082.339-.321 1.478.042 1.875.093.102.217.156.355.156.027 0 .054-.003.082-.007.167-.024.302-.118.379-.265.248-.469-.176-1.456-.348-1.816-.01-.185-.051-.718-.189-1.235.112.093.249.257.396.55-.012.037-.016.077-.01.118.067.434.272 1.464.725 1.678.063.03.129.045.194.045.083 0 .166-.023.244-.07.135-.079.22-.209.239-.364C74.004 44.495 73.283 43.702 73.014 43.427zM69.565 49.259c-.076-.09.018-.511.243-1.034C69.796 48.71 69.723 49.136 69.565 49.259zM71.25 48.1c.165.385.234.694.17.76l-.065.005C71.264 48.775 71.234 48.457 71.25 48.1zM72.184 45.286c.085.305.107.534.055.601C72.178 45.827 72.161 45.591 72.184 45.286zM73.218 44.452c.163.231.263.423.255.499C73.4 44.915 73.305 44.72 73.218 44.452zM55.837 15.761c.112.463.555 2.469.253 4.21-.385 2.223 1.227 3.707 3.375 5.417.045.036.1.055.155.055.038 0 .076-.009.111-.025.086-.043.141-.132.139-.229-.001-.077-.051-1.902-1.62-3.714-1.293-1.49-1.538-3.158-1.58-3.557-.046-.71-.149-1.336-.236-1.772 1.114.74 2.529 1.795 4.004 3.18.666.942.941 1.713 1.056 2.386.001.022.005.044.011.065.061.388.074.744.085 1.085.017.493.033.959.181 1.451 1.021 3.394 3.172 5.796 3.263 5.896.048.054.116.082.186.082.033 0 .066-.007.098-.02.098-.042.159-.141.151-.247-.088-1.335-.267-1.662-.573-2.125-.235-.354-.527-.795-.892-2.214-.693-2.695-1.723-3.822-2.023-4.105-.055-.312-.153-.65-.292-1.008 2.092 2.209 4.167 5.084 5.563 8.687-.007.009-.02.01-.026.021-.43.794-1.326 2.446-1.025 3.521.261.936.537 2.741.54 2.759.016.106.098.19.204.209.015.003.029.004.043.004.091 0 .176-.049.22-.131.346-.637.326-1.156.306-1.707-.013-.361-.027-.735.046-1.211.175-1.13-.169-2.166-.281-2.463.068-.14.135-.27.198-.39.287.801.543 1.633.755 2.504.1.772-.192 1.603-.451 2.336-.221.627-.412 1.168-.311 1.574.173.703.061 1.624.06 1.633-.016.123.061.238.18.271.022.007.046.01.068.01.096 0 .186-.056.228-.146 1.217-2.684.725-4.511.703-4.587-.006-.021-.015-.042-.026-.061.021-.112.028-.226.041-.339.175.196.338.335.508.451.122.331.605 1.581 1.162 2.262.247.302.442.471.614.619.26.225.466.402.785 1.01.044.083.13.134.221.134.017 0 .035-.002.052-.006.11-.022.19-.116.198-.228.006-.092.129-2.272-1.63-3.502-.315-.221-.56-.364-.768-.485-.104-.062-.196-.115-.283-.171-.006-.004-.012-.008-.018-.012-.289-.187-.51-.396-.854-.911-.808-3.3-2.192-6.1-3.79-8.441.317.13.61.189.886.219.148.379.94 1.688 5.119 5.62.048.045.109.068.171.068.047 0 .095-.014.137-.041.097-.063.137-.186.098-.294-.047-.131-1.176-3.223-2.731-4.866-.846-.894-1.562-.924-2.253-.953-.656-.027-1.275-.053-2.124-.779-.014-.011-.032-.007-.047-.015-1.081-1.436-2.228-2.675-3.345-3.729-.015-.021-.024-.04-.04-.061-.019-.026-.05-.03-.075-.046-.886-.827-1.749-1.54-2.54-2.136.683.098 1.286.128 1.817.125.015.028.035.055.062.076.078.066 1.926 1.63 3.344 2.483.925.558 1.979 1.117 3 1.659.541.286 1.061.563 1.528.821.038.021.08.031.121.031.071 0 .141-.03.189-.087.077-.09.081-.222.009-.315-.103-.134-2.542-3.293-4.269-4.559-.997-.732-1.906-.692-3.055-.64-.937.041-2.104.092-3.686-.276-.374-.26-.724-.493-1.041-.694-.014-.01-.025-.018-.041-.026-1.079-.682-1.776-1.019-1.804-1.033-.125-.058-.273-.005-.332.12-.059.125-.006.273.119.333C54.163 14.804 54.82 15.122 55.837 15.761zM56.582 20.057c.017-.101.032-.2.045-.302.253.634.644 1.354 1.244 2.048.925 1.067 1.28 2.153 1.415 2.801C57.522 23.159 56.272 21.848 56.582 20.057zM63.519 25.811c.386 1.5.717 2 .959 2.365.179.27.313.473.406 1.054-.704-.928-1.949-2.781-2.635-5.062-.129-.43-.145-.864-.16-1.324-.005-.125-.009-.252-.016-.382C62.485 23.032 63.074 24.079 63.519 25.811zM67.066 32.648c-.081.522-.065.938-.052 1.306.003.096.007.187.008.274-.098-.533-.219-1.129-.34-1.562-.127-.455.042-1.1.286-1.71C67.073 31.386 67.166 32.005 67.066 32.648zM70.348 34.217c.846.591 1.189 1.462 1.328 2.123-.117-.126-.227-.223-.341-.32-.164-.142-.334-.288-.553-.557-.322-.394-.628-1.027-.836-1.512C70.065 34.025 70.198 34.112 70.348 34.217zM68.238 24.836c.932.984 1.724 2.571 2.187 3.623-2.87-2.761-3.765-3.966-4.039-4.418C67.007 24.068 67.553 24.112 68.238 24.836zM68.028 36.556c-.017-.132-.04-.263-.071-.389-.065-.262.111-.761.297-1.288.021-.062.044-.126.066-.19C68.31 35.177 68.239 35.811 68.028 36.556zM60.944 16.866c1.093-.047 1.882-.084 2.737.543 1.092.801 2.526 2.447 3.396 3.501-.146-.078-.295-.157-.445-.237-1.014-.538-2.062-1.095-2.976-1.645-1.027-.619-2.327-1.654-2.936-2.152C60.798 16.873 60.871 16.87 60.944 16.866zM48.292 12.016c.042.09.35.706.82 1.047-.48.374-.727 1.096-.759 1.195-.022.071-.012.148.029.212.041.062.107.104.182.111.156.018.305.026.444.026.333 0 .601-.066.836-.166.001.616.422 1.273.482 1.361.044.065.116.106.195.11.004 0 .008 0 .012 0 .075 0 .146-.033.193-.091.311-.378.494-.737.57-1.077.256.274.651.489 1.192.639.021.006.044.009.066.009.051 0 .101-.016.144-.046.062-.043.1-.11.105-.186.008-.106.05-.896-.278-1.422.558-.114 1.081-.52 1.156-.581.062-.05.097-.126.093-.206-.003-.079-.045-.152-.112-.196-.432-.287-.831-.438-1.195-.465.23-.289.388-.694.466-1.218.011-.078-.015-.157-.07-.213-.056-.057-.134-.085-.212-.071-.103.014-.852.138-1.312.535-.22-.53-.75-.954-.827-1.014-.059-.046-.136-.064-.208-.045-.073.017-.134.064-.167.132-.267.535-.369.999-.314 1.388-.348-.154-.795-.195-1.337-.124-.079.011-.149.059-.187.129C48.261 11.859 48.257 11.944 48.292 12.016zM50.557 13.243c-.062-.146-.039-.341.052-.442.056-.062.179-.107.308-.107.058 0 .116.009.17.029.13.049.193.146.195.297.002.151-.032.262-.1.327-.099.095-.265.099-.332.093C50.708 13.433 50.609 13.366 50.557 13.243zM48.951 14.106c.141-.303.378-.686.659-.758.056-.014.215-.057.477.153-.015.087-.058.224-.179.341C49.718 14.026 49.39 14.107 48.951 14.106zM50.56 15.204c-.149-.303-.295-.719-.188-.979.019-.046.072-.173.313-.251.056.066.127.181.149.342C50.87 14.569 50.776 14.872 50.56 15.204zM51.518 14.206c-.074-.157-.062-.303-.043-.391.319-.097.453.001.499.035.233.172.311.615.33.948C51.897 14.644 51.628 14.442 51.518 14.206zM52.1 13.25c-.045-.015-.171-.054-.267-.271.063-.062.172-.143.336-.179.245-.055.549.008.89.18C52.767 13.154 52.369 13.336 52.1 13.25zM51.512 11.88c.122-.255.528-.424.853-.517-.101.377-.259.647-.467.793-.138.097-.273.12-.362.123C51.431 12.049 51.49 11.925 51.512 11.88zM50.448 10.923c.235.235.513.59.485.879-.006.058-.021.223-.308.396-.077-.044-.19-.131-.258-.285C50.261 11.672 50.289 11.333 50.448 10.923zM48.969 12.126c.361 0 .646.077.838.227.132.104.195.224.225.307-.178.151-.307.132-.353.125-.278-.041-.56-.375-.747-.657C48.944 12.126 48.956 12.126 48.969 12.126zM17.797 62.753c.063 0 .126-.024.174-.07.082-.08.1-.206.042-.306-.008-.013-.755-1.316-.442-2.479.369-1.372.494-3.572-.059-5.397-.384-1.271-1.569-2.839-2.774-4.247-.002-.002-.004-.004-.006-.007-.575-.672-1.154-1.31-1.653-1.856-.064-.07-.162-.099-.254-.071-.091.026-.16.103-.176.196-.014.076-.312 1.891 1.182 4.426 2.002 3.395 2.904 7.771 3.085 8.729-.234-.14-.5-.296-.777-.456-.059-.191-.209-.635-.5-1.192.024-.032.04-.071.045-.114.01-.074-.004-.157-.001-.234.022-.053.019-.112 0-.17-.036-1.804-1.712-4.147-3.189-5.856-1.525-1.764-4.055-3.679-4.161-3.759-.081-.062-.191-.066-.278-.016-.087.05-.135.15-.12.25.747 5.203 2.81 6.388 4.468 7.341.407.233.791.454 1.121.716 1.06.841 1.651 1.963 1.938 2.649-.391-.218-.791-.434-1.176-.628-.152-.426-.871-1.858-3.885-3.026-2.144-.83-4.063-.441-4.144-.425-.093.021-.167.091-.19.183-.024.092.006.189.078.252.136.116 3.256 2.786 5.915 2.786.077 0 .154-.003.23-.007.261-.017.893.243 1.664.63.007.004.015.008.022.011 1.167.587 2.653 1.459 3.688 2.108C17.705 62.74 17.752 62.753 17.797 62.753zM12.115 53.975c1.29 1.493 2.188 2.834 2.673 3.953-.277-.422-.609-.889-1.004-1.363-.296-.355-.634-.711-.991-1.087-.886-.932-1.863-1.971-2.548-3.357C10.895 52.701 11.576 53.352 12.115 53.975zM9.223 53.267c.696.894 1.697 2.169 2.595 3.265C10.867 55.914 9.92 55.051 9.223 53.267zM13.833 57.79c-.221-.175-.46-.328-.708-.477-1.492-1.726-4.013-5.001-4.337-5.425-.095-.375-.185-.772-.261-1.211.23.183.529.426.859.703.692 1.964 1.94 3.282 3.044 4.444.352.37.684.72.97 1.062.454.544.83 1.09 1.123 1.555C14.315 58.216 14.091 57.995 13.833 57.79zM8.651 58.324c.718.026 1.875.24 3.157 1.125C10.748 59.377 9.609 58.88 8.651 58.324zM12.77 59.555c-2.3-1.961-4.378-1.778-4.876-1.696-.39-.257-.723-.5-.967-.688.699-.055 1.961-.045 3.293.472 1.972.764 2.882 1.632 3.293 2.194C13.236 59.716 12.986 59.621 12.77 59.555zM16.39 56.105c.099.584.125 1.289.125 1.915-.159-.518-.337-1.06-.542-1.62.032-.25.132-1.378-.365-3.118-.156-.547-.317-.915-.459-1.239-.136-.311-.238-.567-.297-.876.447.546.869 1.106 1.234 1.652C16.097 53.189 16.153 54.714 16.39 56.105zM13.123 49.18c.367.405.773.858 1.182 1.335-.015.786.16 1.21.386 1.728.136.311.29.662.436 1.176.188.66.284 1.225.332 1.683-.348-.821-.741-1.642-1.197-2.414C13.349 51.14 13.15 49.874 13.123 49.18zM17.089 59.766c-.016.059-.029.118-.041.177-.026-.108-.06-.23-.089-.345.015-.193.162-2.177-.076-3.577-.138-.808-.212-1.658-.252-2.295.17.321.317.633.403.918C17.558 56.376 17.439 58.465 17.089 59.766zM27.739 70.494c.033.015.067.021.102.021.096 0 .187-.056.229-.148.056-.126-.001-.274-.127-.33-.025-.011-1.476-.668-3.219-1.978.041-.207.086-.605.017-1.294-.026-.262-.048-.443-.065-.583-.046-.378-.053-.437-.005-1.009.011-.138-.091-.258-.229-.27-.14-.023-.259.091-.27.229-.051.604-.043.7.007 1.11.017.138.039.315.064.571.04.404.036.688.021.89-.5-.399-1.015-.854-1.521-1.356-.002-.013.007-.026.002-.039-.003-.008-.283-.781-.108-1.456.035-.133-.045-.27-.179-.305-.134-.03-.27.045-.305.18-.084.324-.085.655-.055.943-.466-.517-.917-1.074-1.326-1.684-.077-.114-.232-.146-.347-.068-.115.078-.146.232-.068.348.712 1.061 1.529 1.979 2.354 2.761-.405-.167-.881-.425-1.323-.833-.84-.778-1.285-1.199-1.446-1.353.008-.057-.003-.116-.036-.168-.218-.346-.975-1.476-1.582-1.508-.176-.011-.327.063-.436.203-.106.135-.141.301-.098.467.155.6 1.417 1.181 1.769 1.331.105.101.489.464 1.208 1.132-.341-.056-.811-.196-1.373-.536-.015-.04-.042-.077-.078-.106-.259-.206-1.144-.873-1.679-.708-.171.052-.296.18-.354.361-.055.176-.026.35.081.488.329.427 1.39.434 1.815.42.886.525 1.585.617 1.967.617.095 0 .168-.006.222-.012 1.051.813 2.154.973 2.218.981.251.211.5.411.744.596-.311-.024-.646-.017-.933.066-.479.135-1.457-.251-1.851-.438-.008-.009-.016-.018-.025-.026-.258-.233-1.141-.989-1.667-.86-.16.04-.28.15-.34.313-.058.158-.04.322.051.46.294.441 1.363.541 1.762.562.167.08.657.299 1.177.424-.135.055-.344.097-.675.084-.026-.028-.059-.051-.098-.064-.413-.147-1.416-.461-1.82-.165-.127.092-.193.233-.188.396.005.156.078.293.205.384.149.108.374.146.619.146.453 0 .976-.131 1.217-.199.928.043 1.266-.267 1.393-.495.133 0 .263-.008.377-.041.628-.18 1.649.107 1.66.11.021.006.042.008.062.009C26.615 69.984 27.651 70.455 27.739 70.494zM18.292 63.665c.004-.001.009-.002.014-.002.123 0 .438.282.775.707C18.661 64.129 18.324 63.862 18.292 63.665zM17.756 65.485l.026-.06c.015-.005.031-.007.05-.007.141 0 .4.116.669.279C18.087 65.658 17.783 65.572 17.756 65.485zM19.973 67.626c.009-.003.019-.004.03-.004.098 0 .294.095.524.242C20.219 67.794 20.007 67.703 19.973 67.626zM20.206 69.157c.029-.021.088-.03.167-.03.102 0 .237.016.392.045C20.484 69.202 20.269 69.199 20.206 69.157zM55.94 66.594c-.023.018-.617.442-1.665 1.03-.461-.123-2.434-.694-3.818-1.79-1.768-1.399-3.842-.694-6.372.374-.089.038-.148.124-.152.221-.004.097.049.187.134.231.068.035 1.695.862 4.036.352 1.919-.418 3.496.153 3.875.312.647.3 1.248.509 1.673.641-1.184.625-2.789 1.363-4.712 1.997-1.141.132-1.948.007-2.592-.213-.021-.011-.043-.019-.067-.023-.369-.131-.688-.29-.992-.442-.441-.221-.858-.43-1.361-.535-3.468-.723-6.607.016-6.739.047-.103.025-.18.113-.19.219-.011.106.047.207.144.251 1.213.561 1.586.559 2.141.513.423-.035.95-.082 2.371.275 2.697.68 4.18.314 4.572.187.298.1.634.178 1.011.228-2.938.779-6.451 1.225-10.275.73-.005-.01 0-.022-.006-.032-.491-.758-1.514-2.333-2.602-2.584-.946-.218-2.665-.839-2.682-.846-.1-.034-.214-.005-.281.08-.066.084-.072.201-.014.291.395.608.86.84 1.354 1.086.324.161.659.328 1.041.619.91.694 1.983.888 2.298.932.09.126.172.247.247.36-.841-.131-1.694-.304-2.56-.534-.727-.282-1.317-.936-1.837-1.513-.444-.493-.828-.92-1.234-1.026-.699-.183-1.454-.722-1.462-.728-.101-.071-.238-.06-.325.028-.086.089-.095.227-.021.325 1.774 2.352 3.615 2.794 3.692 2.812.022.005.044.008.065.006.088.071.185.133.278.197-.256.061-.456.137-.639.231-.349-.051-1.678-.224-2.542-.062-.383.073-.624.164-.836.244-.322.122-.574.229-1.262.206-.124.024-.211.07-.244.179-.032.107.011.223.106.282.055.035 1.001.622 2.231.622.507 0 1.062-.1 1.623-.379.345-.171.588-.317.794-.442.103-.062.194-.117.284-.166.007-.003.013-.007.02-.011.303-.165.591-.259 1.211-.315 2.272.601 4.468.849 6.539.849.929 0 1.825-.06 2.699-.149-.272.218-.469.451-.63.682-.401-.049-1.928.019-7.384 1.809-.11.036-.181.143-.171.258.009.115.097.209.211.227.087.014 1.409.211 2.924.211.89 0 1.846-.068 2.656-.283 1.189-.314 1.558-.929 1.914-1.523.338-.562.657-1.094 1.7-1.492.021-.008.029-.031.047-.044 1.77-.263 3.403-.67 4.857-1.146.029-.003.051-.002.08-.005.031-.004.049-.029.075-.043 1.158-.385 2.191-.805 3.097-1.217-.416.556-.732 1.075-.983 1.544-.029.006-.064.004-.097.017-.095.037-2.352.914-3.78 1.75-.927.543-1.918 1.198-2.877 1.832-.515.341-1.012.669-1.466.958-.1.063-.142.188-.1.3.037.098.131.161.233.161.014 0 .026-.001.04-.003.167-.026 4.107-.658 6.045-1.569 1.119-.525 1.518-1.343 2.022-2.377.412-.845.925-1.897 2.01-3.111.411-.206.786-.403 1.115-.586.017-.009.032-.014.046-.026 1.099-.614 1.728-1.062 1.752-1.079.111-.082.135-.238.054-.35C56.208 66.536 56.052 66.513 55.94 66.594zM47.996 66.522c-1.381.302-2.503.095-3.136-.096 2.112-.86 3.862-1.331 5.287-.201.08.062.16.124.243.183C49.712 66.329 48.892 66.326 47.996 66.522zM41.775 69.566c-1.014-.256-1.615-.315-2.033-.315-.202 0-.361.014-.503.026-.322.027-.564.05-1.119-.147 1.151-.176 3.375-.383 5.705.106.439.092.828.286 1.24.492.112.056.226.112.343.169C44.711 69.986 43.509 70.003 41.775 69.566zM34.075 69.413c-.42-.321-.793-.507-1.122-.671-.086-.043-.168-.083-.246-.124.515.169 1.097.347 1.534.447.46.106.946.563 1.365 1.069C35.179 70.02 34.591 69.806 34.075 69.413zM30.183 68.389c.123.048.25.09.375.123.261.068.615.461.989.877.044.049.089.099.135.149C31.259 69.296 30.736 68.93 30.183 68.389zM31.129 71.544c-.923.459-1.852.346-2.5.151.167-.042.304-.094.444-.146.203-.076.413-.155.754-.22.499-.095 1.202-.06 1.728-.012C31.431 71.387 31.292 71.463 31.129 71.544zM40.377 74.177c-1.311.347-3.082.285-4.228.188 3.797-1.2 5.282-1.41 5.811-1.435C41.639 73.463 41.34 73.921 40.377 74.177zM50.862 71.581c-.479.983-.826 1.693-1.785 2.144-1.225.576-3.357 1.05-4.698 1.31.143-.094.287-.189.433-.286.953-.63 1.939-1.281 2.854-1.817 1.035-.606 2.565-1.253 3.293-1.55C50.927 71.449 50.894 71.516 50.862 71.581zM60.645 64.241c.301-.232.552-.605.747-1.115.029-.074.02-.158-.023-.226-.044-.066-.117-.108-.196-.113-.099-.003-.787-.028-1.311.221-.098-.601-.614-1.164-.687-1.239-.052-.054-.125-.084-.2-.075-.075.006-.143.045-.186.105-.302.433-.462.827-.5 1.185-.542-.286-1.31-.23-1.414-.222-.079.008-.149.052-.19.119-.041.067-.048.15-.018.224.184.455.412.788.674 1.017-.364.094-.742.336-1.133.74-.052.054-.077.128-.068.202.008.074.05.141.112.182.085.056.71.445 1.307.445.025 0 .049-.005.074-.007-.165.543-.059 1.194-.042 1.29.015.078.065.146.137.18.035.017.072.025.109.025.041 0 .081-.01.117-.029.458-.242.782-.52.98-.827.144.34.423.672.847.991.044.033.097.051.15.051.023 0 .047-.003.07-.01.076-.022.137-.079.165-.152.037-.099.288-.822.155-1.418.06.007.117.02.177.02.517 0 1.03-.218 1.11-.253.069-.03.12-.089.14-.161.02-.072.007-.149-.036-.211C61.371 64.691 61.013 64.379 60.645 64.241zM59.012 64.191c.158.016.317.129.363.257.041.114-.019.334-.159.456-.105.091-.221.101-.354.03-.134-.071-.214-.153-.239-.243-.036-.132.042-.28.077-.338C58.773 64.232 58.88 64.176 59.012 64.191zM60.153 63.957c-.154.066-.289.063-.376.052-.048-.229.03-.333.059-.371.169-.224.597-.312.935-.341C60.593 63.633 60.383 63.858 60.153 63.957zM59.021 62.367c.198.269.421.66.351.941-.014.056-.054.216-.362.345-.069-.055-.169-.157-.214-.32C58.726 63.079 58.805 62.749 59.021 62.367zM58.238 63.559c.031.038.118.146.07.395-.087.018-.224.026-.381-.036-.236-.093-.454-.319-.639-.663C57.626 63.269 58.06 63.339 58.238 63.559zM56.809 64.981c.33-.284.638-.42.897-.407.173.011.295.09.363.149-.067.327-.217.397-.27.422C57.538 65.267 57.111 65.123 56.809 64.981zM58.631 65.818c-.07.241-.27.479-.585.695-.014-.339.019-.774.222-.972.031-.029.111-.107.301-.107.021 0 .042.001.066.003C58.659 65.522 58.678 65.657 58.631 65.818zM59.799 66.677c-.283-.269-.445-.538-.474-.789-.019-.168.025-.298.065-.377.253.019.333.13.363.17C59.919 65.909 59.873 66.347 59.799 66.677zM60.098 65.209c-.048-.032-.185-.125-.2-.459.077-.048.212-.106.383-.09.26.025.54.212.821.544C60.781 65.296 60.337 65.372 60.098 65.209z"/>
</svg>