<svg xmlns="http://www.w3.org/2000/svg" viewBox="0 0 80 80">
<path d="M72.955 50.257c-.844-1.483-2.168-3.816-2.579-4.538.35-1.858.541-3.771.541-5.73 0-8.629-3.558-16.439-9.278-22.052 1.592.849 3.639 1.868 4.78 2.147.605.148 1.283.239 1.921.239.913 0 1.743-.187 2.158-.659.208-.237.402-.654.151-1.298-.666-1.706-3.796-1.431-5.867-1.246l-.479.041c-1.518.12-3.664-.558-4.417-.817-4.885-4.114-11.056-6.741-17.815-7.189 5.019-1.2 6.795-3.376 6.683-4.756-.035-.427-.199-.719-.487-.868-.76-.396-2.117.404-3.314 1.109-.396.232-.769.452-1.03.568-1.092.488-4.2 3.17-5.035 3.898-5.519.198-10.672 1.845-15.091 4.577 1.567-1.924 2.38-3.753 2.451-4.842.031-.478-.07-.821-.3-1.022-.247-.215-.594-.274-.98-.166-.799.226-1.978 1.281-2.673 3.516-.784 2.52-2.722 5.45-3.054 5.943-4.323 3.927-7.526 9.062-9.085 14.863-.154-2.937-.624-7.833-2.053-7.943-.551-.048-1.005.191-1.312.675-.616.973-.502 2.843.252 4.17l2.707 4.765c0 .001.002.002.003.003-.429 2.048-.657 4.169-.657 6.343 0 8.532 3.475 16.268 9.084 21.866-1.6-.855-3.684-1.896-4.84-2.179-1.471-.36-3.375-.384-4.079.42-.208.237-.402.654-.151 1.297.666 1.706 3.796 1.431 5.867 1.247l.478-.041c1.525-.123 3.675.56 4.422.818 4.938 4.248 11.224 6.965 18.123 7.41-5.074 1.197-6.869 3.387-6.756 4.774.035.426.199.718.487.867.139.072.298.104.472.104.778 0 1.863-.638 2.841-1.214.396-.232.769-.452 1.03-.568 1.104-.494 4.271-3.23 5.061-3.92 5.504-.199 10.646-1.839 15.057-4.562-1.545 1.908-2.349 3.719-2.42 4.801-.031.478.069.821.3 1.023.166.145.377.219.615.219.116 0 .238-.018.365-.054.799-.226 1.978-1.282 2.673-3.516.763-2.452 2.619-5.293 3.024-5.898 4.358-3.952 7.584-9.13 9.136-14.982.192 2.95.695 7.097 2.009 7.198.043.004.085.005.126.005.495 0 .903-.232 1.186-.679C73.823 53.456 73.711 51.585 72.955 50.257zM64.346 17.66l.481-.041c1.806-.159 4.828-.426 5.357.93.13.333.11.591-.062.786-.462.527-2.037.643-3.583.264-1.134-.277-3.284-1.362-4.882-2.221C62.525 17.579 63.51 17.732 64.346 17.66zM7.479 28.63c-.662-1.162-.783-2.836-.265-3.654.19-.301.441-.447.765-.447.028 0 .057.001.086.003.805.062 1.432 4.014 1.615 7.977L7.479 28.63zM15.847 62.085c-.147 0-.291.005-.431.017l-.481.041c-1.806.161-4.828.427-5.357-.931-.13-.333-.11-.59.062-.785.462-.526 2.036-.643 3.584-.264 1.134.277 3.283 1.361 4.881 2.22C17.381 62.217 16.577 62.085 15.847 62.085zM66.995 36.329c-.031.137-.146.571-.383.546-.324-.044-.894-.837-.832-2.195.075-1.604 1.227-5.131 1.758-6.684C68.126 30.774 67.374 34.676 66.995 36.329zM61.708 23.292c-.588-.005-1.733-.589-2.315-2.834-.237-.913-.557-3.063-.706-4.108C60.967 18.276 61.936 22.612 61.708 23.292zM44.128 5.666c.287-.129.654-.345 1.079-.595.8-.47 1.953-1.148 2.581-1.148.097 0 .181.017.25.052.046.024.189.099.219.466.108 1.323-2.114 3.671-8.412 4.643-.057 0-.112.004-.168.004C40.849 8.078 43.253 6.056 44.128 5.666zM22.773 11.318c.595-1.912 1.6-2.976 2.332-3.183.068-.02.148-.035.229-.035.101 0 .204.024.286.097.102.089.149.312.13.612-.084 1.295-1.299 3.709-3.699 6.044-.515.369-1.021.75-1.511 1.149C21.275 14.781 22.255 12.986 22.773 11.318zM15.337 22.672c.883-.767 2.359-1.855 3.162-1.659.516.129.858.441.872.798.013.333-.257.626-.723.781-.862.288-2.49.21-3.358.146C15.306 22.716 15.321 22.694 15.337 22.672zM12.591 42.806c.03-.131.143-.548.359-.548.008 0 .016.001.024.002.324.044.895.838.832 2.196-.074 1.604-1.227 5.13-1.758 6.683C11.461 48.36 12.213 44.458 12.591 42.806zM18.292 56.683c.588.005 1.732.588 2.315 2.835.236.912.557 3.063.705 4.108C19.033 61.698 18.063 57.362 18.292 56.683zM35.872 74.334c-.287.129-.655.345-1.08.595-.923.542-2.317 1.358-2.831 1.097-.046-.024-.188-.098-.218-.465-.109-1.334 2.146-3.713 8.566-4.669.013 0 .026-.001.04-.001C39.186 71.892 36.753 73.941 35.872 74.334zM57.249 68.635c-.595 1.911-1.6 2.976-2.332 3.183-.154.043-.368.067-.515-.061-.103-.089-.149-.313-.13-.614.084-1.282 1.276-3.659 3.626-5.971.533-.38 1.055-.772 1.562-1.184C58.727 65.208 57.763 66.984 57.249 68.635zM40.008 70.149c-.195 0-.387-.011-.582-.015-.047-1.287-.345-5.437-2.244-5.902-.75-.184-1.337.021-1.612.56-.438.858.033 2.337 1.008 3.164.875.743 1.611 1.62 2.029 2.158-6.259-.288-12.026-2.491-16.727-6.038-.07-.515-.486-3.518-.789-4.684-.691-2.664-2.159-3.263-2.915-3.205-.103.008-.288.068-.365.375-.186.74.292 3.222 1.479 5.314-2.954-2.797-5.346-6.18-6.981-9.966.317-.893 1.905-5.45 1.997-7.432.072-1.561-.6-2.624-1.264-2.715-.165-.021-.72-.021-.938.93-.308 1.342-.851 4.136-.755 6.675-.97-2.955-1.501-6.106-1.501-9.38 0-1.252.085-2.483.234-3.695.891-.658 3.973-2.969 5.013-4.194.945-1.113 1.078-2.862.523-3.513-.131-.154-.5-.469-1.108-.101-.917.557-2.765 2.915-4 5.223.811-3.814 2.343-7.364 4.449-10.498.381.036 1.067.089 1.8.089.736 0 1.512-.054 2.049-.233.678-.228 1.085-.716 1.063-1.276-.023-.583-.514-1.079-1.25-1.262-.623-.157-1.439.201-2.182.675 5.531-6.926 14.039-11.375 23.57-11.375.193 0 .383.011.575.015.069 1.466.423 5.265 2.236 5.709.196.048.37.068.525.068.653 0 .956-.371 1.086-.627.438-.859-.032-2.338-1.008-3.166-.776-.659-1.438-1.42-1.872-1.96 6.197.314 11.906 2.508 16.568 6.021.067.49.487 3.521.791 4.694.66 2.544 2.028 3.209 2.81 3.209.036 0 .071-.001.104-.004.104-.008.289-.068.366-.375.187-.743-.295-3.241-1.493-5.339 2.73 2.579 4.981 5.656 6.602 9.091-.272.762-1.923 5.47-2.017 7.491-.072 1.561.599 2.624 1.263 2.715.022.003.051.005.085.005.222 0 .665-.109.854-.936.326-1.42.916-4.465.733-7.114 1.258 3.317 1.953 6.91 1.953 10.663 0 .933-.048 1.854-.132 2.766-.678.498-4.035 2.99-5.131 4.279-.945 1.114-1.078 2.863-.522 3.515.086.101.275.271.568.271.152 0 .332-.046.54-.172.988-.599 3.053-3.285 4.272-5.751-.658 4-2.105 7.736-4.177 11.046-.531-.055-2.861-.27-4.044.125-.678.228-1.085.716-1.063 1.275.023.583.514 1.079 1.25 1.263.101.025.207.037.316.037.777 0 1.744-.589 2.514-1.169C59.085 65.138 50.123 70.149 40.008 70.149zM38.901 69.676c-.443-.559-1.154-1.383-2-2.101-.86-.73-1.183-1.974-.886-2.557.121-.236.337-.354.645-.354.121 0 .255.019.403.055C38.325 65.027 38.782 67.914 38.901 69.676zM10.18 35.597c.989-2.587 3.521-6.034 4.589-6.682.121-.073.211-.099.28-.099.107 0 .159.062.188.096.369.433.279 1.919-.523 2.864C13.84 32.807 11.357 34.715 10.18 35.597zM41.098 10.109c.443.559 1.154 1.383 2 2.1.861.731 1.183 1.975.886 2.558-.168.329-.52.429-1.047.3C41.675 14.758 41.218 11.871 41.098 10.109zM69.82 43.539c-.989 2.587-3.521 6.034-4.589 6.682-.31.188-.42.059-.468.003-.369-.433-.279-1.92.523-2.865C66.16 46.329 68.643 44.421 69.82 43.539zM65.087 56.399c-.871.768-2.409 1.92-3.237 1.723-.516-.129-.858-.442-.872-.798-.013-.333.257-.626.722-.781.476-.159 1.184-.208 1.869-.208C64.14 56.335 64.695 56.369 65.087 56.399zM72.785 54.159c-.207.327-.482.471-.852.444-.805-.062-1.432-4.014-1.615-7.975.581 1.023 1.541 2.713 2.203 3.876C73.183 51.667 73.304 53.342 72.785 54.159z"/>
</svg>