<svg xmlns="http://www.w3.org/2000/svg" viewBox="0 0 80 80">
<path d="M77.563 43.848c-.066-.411-.336-.854-.827-1.354-.498-.507-1.155-1.005-1.76-1.333-.642-.348-1.109-.438-1.416-.3.007-.282.025-.562.025-.844 0-.248-.017-.494-.022-.741.087.037.183.06.29.06.838 0 2.217-1.026 2.883-1.705 1.17-1.193.906-1.945.479-2.365-.428-.419-1.185-.669-2.354.525-.497.506-.982 1.174-1.299 1.784-.027.051-.039.093-.062.142-.1-1.423-.294-2.828-.571-4.212.04-.004.079-.005.121-.015.728-.175 1.821-1.333 2.417-2.307.366-.597.53-1.089.502-1.505-.025-.382-.221-.695-.565-.906-.345-.212-.713-.244-1.066-.093-.382.164-.746.534-1.112 1.131-.311.507-.582 1.118-.764 1.695-.336-1.265-.746-2.505-1.226-3.716.017.002.034.009.051.009.66 0 1.444-1.328 1.745-2.117.462-1.214.029-1.671-.416-1.841-.301-.115-.596-.086-.852.086-.269.181-.493.512-.683 1.013-.16.42-.318 1.046-.358 1.606-.505-1.138-1.079-2.245-1.709-3.32.004 0 .007.003.011.003.657 0 .931-1.493.931-2.292 0-1.144-.506-1.384-.931-1.384-.425 0-.931.24-.931 1.384 0 .274.035.629.104.979-.675-1.04-1.41-2.041-2.201-3.002.603-.19.799-1.667.799-2.234 0-1.135-.502-1.373-.924-1.373-.421 0-.924.238-.924 1.373 0 .267.046.739.154 1.184-.904-1.012-1.875-1.97-2.906-2.871.326-.343.406-1.198.406-1.47 0-.88-.443-1.012-.707-1.012-.264 0-.707.132-.707 1.012 0 .13.018.396.072.675-.548-.444-1.11-.875-1.69-1.286-.005-.528-.885-1.212-1.163-1.39v-.001c-.814-.519-1.195-.194-1.351.046-.154.241-.293.724.521 1.247.213.135.836.458 1.336.512.026.041.06.078.103.108.51.359 1.005.733 1.491 1.117-.752.046-.877.449-.877.698 0 .264.131.707 1.012.707.222 0 .833-.053 1.239-.248.695.617 1.358 1.264 1.995 1.933-.216-.026-.412-.039-.55-.039-1.135 0-1.374.502-1.374.924 0 .422.238.925 1.374.925.519 0 1.327-.12 1.827-.384.836.991 1.61 2.028 2.32 3.107-.44-.104-.901-.148-1.165-.148-1.144 0-1.384.506-1.384.93 0 .425.24.931 1.384.931.567 0 1.477-.142 1.96-.457.612 1.03 1.164 2.093 1.659 3.184-.29-.172-.592-.33-.889-.442-.5-.19-.896-.243-1.21-.163-.297.076-.516.276-.63.578-.169.445-.116 1.072 1.099 1.535.484.185 1.242.368 1.856.368.199 0 .376-.025.531-.07.409 1.067.755 2.159 1.05 3.267-.502-.628-1.285-1.262-1.843-1.604-1.426-.875-2.099-.448-2.412.063-.211.345-.243.713-.092 1.065.164.383.534.746 1.131 1.111.604.371 1.364.695 2.03.866.328.084.609.127.844.127.321 0 .535-.095.674-.254.321 1.458.544 2.942.662 4.446-.32-.529-.742-1.073-1.178-1.501-.5-.49-.942-.76-1.354-.826-.38-.064-.729.061-1.011.349-.283.288-.397.64-.329 1.017.074.41.354.848.853 1.338.507.497 1.174.982 1.785 1.299.453.234.824.352 1.111.352.08 0 .148-.017.216-.035.003.174.016.347.016.522 0 .204-.015.406-.019.61-.796-.215-2.374.896-3.109 1.617-.5.49-.779.928-.853 1.338-.068.377.046.729.329 1.017.235.24.516.363.821.363.062 0 .125-.005.189-.015.411-.066.854-.337 1.354-.827.362-.355.817-.915 1.168-1.486-.121 1.493-.346 2.967-.667 4.414-.593-.613-2.585.175-3.533.755-1.426.874-1.352 1.666-1.039 2.178.211.345.525.54.907.565.03.002.06.003.091.003.396 0 .86-.166 1.414-.506.604-.37 1.238-.899 1.693-1.415.045-.051.072-.095.112-.145-.295 1.089-.639 2.162-1.044 3.211-.638-.165-1.726.071-2.355.311-.501.19-.832.413-1.013.683-.171.256-.201.55-.086.852.115.302.333.502.63.579.094.024.196.036.306.036.255 0 .554-.065.905-.199l0 0c.242-.092.534-.233.824-.399-.49 1.066-1.03 2.109-1.632 3.117-.492-.299-1.369-.435-1.923-.435-1.144 0-1.384.506-1.384.931 0 .425.24.931 1.384.931.304 0 .708-.04 1.092-.125-.704 1.061-1.471 2.081-2.299 3.056-.541-.26-1.379-.356-1.775-.356-1.135 0-1.374.502-1.374.924 0 .422.238.924 1.374.924.117 0 .28-.011.458-.03-.628.656-1.286 1.287-1.971 1.892-.403-.169-.96-.215-1.17-.215-.88 0-1.012.443-1.012.707 0 .236.11.614.765.691-.451.354-.907.702-1.378 1.033-.026.018-.042.043-.062.066-.145-.011-.317.008-.526.066-.334.094-.713.265-1.013.458-.813.522-.675 1.005-.521 1.246.095.146.272.324.58.324.199 0 .452-.074.771-.28.253-.162.999-.743 1.134-1.245.022-.01.048-.007.069-.022.633-.445 1.243-.916 1.839-1.4-.073.319-.099.641-.099.79 0 .88.443 1.012.707 1.012.264 0 .707-.132.707-1.012 0-.279-.084-1.165-.429-1.491.022-.029.037-.061.051-.094 1.024-.898 1.989-1.852 2.889-2.859.005-.003.01-.006.016-.009-.122.44-.181.937-.181 1.295 0 1.135.502 1.373.924 1.373.422 0 .924-.238.924-1.373 0-.763-.255-2.153-.858-2.254.823-.996 1.586-2.035 2.286-3.116-.088.39-.13.802-.13 1.111 0 1.144.506 1.384.931 1.384.425 0 .931-.24.931-1.384 0-.799-.273-2.292-.931-2.292-.025 0-.047.016-.071.02.653-1.105 1.244-2.246 1.766-3.419.028.58.193 1.246.361 1.688.347.912.787 1.169 1.173 1.169.128 0 .25-.028.361-.07.445-.17.878-.627.416-1.841-.19-.501-.495-1.044-.813-1.453-.388-.498-.731-.708-1.025-.642.493-1.23.912-2.489 1.256-3.774.202.644.51 1.304.777 1.74.574.936 1.112 1.225 1.559 1.225.234 0 .442-.079.618-.187.345-.211.541-.524.566-.907.028-.416-.137-.908-.502-1.505-.524-.855-1.733-2.261-2.558-2.322.283-1.389.481-2.799.583-4.227.026.054.04.1.07.157.316.61.802 1.278 1.299 1.784.49.5.928.779 1.337.853.071.014.142.02.211.02.297 0 .573-.118.807-.348C77.504 44.575 77.624 44.225 77.563 43.848zM74.005 37.805c.291-.562.754-1.199 1.211-1.665.554-.564.938-.721 1.199-.721.242 0 .38.135.449.203.144.141.581.57-.486 1.658-1.085 1.105-2.455 1.714-2.641 1.529C73.683 38.756 73.676 38.439 74.005 37.805zM71.548 25.115c.188-.492.372-.693.495-.775.07-.047.141-.07.217-.07.055 0 .113.012.177.036.139.053.508.194.126 1.196-.393 1.03-1.079 1.802-1.258 1.802h0C71.155 27.18 71.155 26.146 71.548 25.115zM69.024 20.051c.118 0 .431 0 .431.884 0 .909-.297 1.72-.41 1.796-.154-.076-.451-.887-.451-1.796C68.594 20.051 68.907 20.051 69.024 20.051zM61.895 13.008c.051 0 .207 0 .207.512 0 .441-.114.867-.207 1.052-.093-.185-.207-.61-.207-1.052C61.688 13.008 61.844 13.008 61.895 13.008zM57.477 11.833c.021-.032.061-.095.172-.095.097 0 .248.047.487.2.448.288.785.671.893.872-.011.007-.018.019-.028.027-.231-.018-.711-.164-1.153-.447C57.333 12.058 57.438 11.894 57.477 11.833zM60.642 15.453c-.512 0-.512-.156-.512-.207 0-.051 0-.207.512-.207.181 0 .354.022.514.051.097.081.194.164.29.246C61.231 15.399 60.944 15.453 60.642 15.453zM71.712 32.736c-.04.067-.347.144-1.041-.035-.612-.157-1.337-.467-1.894-.808-.498-.306-.812-.603-.933-.883-.088-.205-.069-.397.059-.606.062-.103.201-.328.575-.328.256 0 .622.106 1.149.429C70.95 31.315 71.848 32.514 71.712 32.736zM72.728 39.002c-.054.055-.371.062-1.006-.268-.56-.29-1.198-.755-1.664-1.212-.417-.409-.656-.769-.711-1.069-.04-.22.021-.403.193-.578.142-.145.291-.214.463-.214.036 0 .073.003.112.009.301.049.665.281 1.083.69.466.457.943 1.086 1.244 1.642C72.783 38.631 72.783 38.947 72.728 39.002zM71.199 43.763c-.417.41-.782.642-1.083.69-.221.038-.403-.029-.575-.204-.172-.175-.233-.358-.193-.578.055-.301.294-.66.711-1.069.969-.951 2.148-1.515 2.55-1.515.057 0 .098.012.12.034C72.911 41.308 72.305 42.678 71.199 43.763zM71.208 48.298c-.418.474-1.023.979-1.58 1.32-.499.307-.905.449-1.21.43-.223-.015-.386-.119-.514-.328-.105-.171-.425-.693.874-1.49 1.02-.624 2.131-.919 2.648-.919.153 0 .255.026.286.077C71.752 47.453 71.681 47.762 71.208 48.298zM57.974 68.061c-.515.331-.62.165-.659.105-.04-.062-.144-.225.371-.556.469-.301.992-.453 1.203-.454C58.8 67.348 58.443 67.76 57.974 68.061zM60.642 65.085c-.512 0-.512-.156-.512-.207 0-.051 0-.207.512-.207.265 0 .517.042.722.095-.114.097-.227.195-.342.291C60.9 65.073 60.773 65.085 60.642 65.085zM61.895 67.116c-.051 0-.207 0-.207-.512 0-.441.114-.867.207-1.052.093.185.207.61.207 1.052C62.102 67.116 61.947 67.116 61.895 67.116zM69.455 59.189c0 .884-.313.884-.431.884-.118 0-.431 0-.431-.884 0-.909.297-1.72.41-1.796C69.158 57.47 69.455 58.28 69.455 59.189zM71.29 52.826c0 0 .001 0 .002 0 .198 0 .88.77 1.271 1.796.382 1.002.013 1.144-.126 1.196-.139.052-.508.192-.89-.81C71.155 53.977 71.155 52.944 71.29 52.826zM72.844 31.964c.157-.611.467-1.337.808-1.894.306-.499.603-.812.883-.933.084-.036.166-.055.248-.055.118 0 .236.038.359.113.209.128.313.291.328.514.02.305-.125.712-.43 1.21-.592.967-1.596 1.959-2.107 2.082-.061.015-.094.01-.112.002-.027-.123-.052-.247-.08-.369C72.744 32.47 72.768 32.258 72.844 31.964zM65.872 15.804c.116 0 .424 0 .424.873 0 .897-.293 1.699-.402 1.775-.153-.076-.446-.878-.446-1.775C65.448 15.804 65.756 15.804 65.872 15.804zM63.326 18.948c-.874 0-.874-.309-.874-.425 0-.116 0-.424.874-.424.409 0 .794.062 1.104.138.132.146.272.286.401.435C64.511 18.809 63.944 18.948 63.326 18.948zM66.307 23.383c-.884 0-.884-.312-.884-.431 0-.117 0-.43.884-.43.655 0 1.255.154 1.57.282.043.07.09.138.133.208C67.765 23.172 67.075 23.383 66.307 23.383zM68.473 27.65c-1.002-.382-.862-.752-.809-.891.058-.151.146-.235.288-.272.046-.012.104-.02.179-.02.16 0 .394.038.729.166h0c.599.228 1.104.553 1.428.823.07.166.139.332.206.499C70.142 28.025 69.312 27.968 68.473 27.65zM68.86 53.49c-.493.187-.765.182-.908.146-.141-.036-.229-.12-.288-.272-.059-.152-.047-.273.034-.396.082-.122.283-.307.775-.494.65-.248 1.301-.339 1.723-.339.107 0 .192.008.266.019-.075.185-.149.369-.228.552C69.911 52.969 69.428 53.273 68.86 53.49zM66.307 57.601c-.884 0-.884-.312-.884-.431 0-.119 0-.431.884-.431.738 0 1.404.195 1.671.329-.054.088-.112.174-.167.262C67.483 57.466 66.921 57.601 66.307 57.601zM63.326 62.023c-.874 0-.874-.308-.874-.424 0-.116 0-.424.874-.424.584 0 1.125.124 1.454.241-.146.167-.303.325-.453.49C64.036 61.974 63.69 62.023 63.326 62.023zM66.296 63.447c0 .873-.308.873-.424.873-.116 0-.424 0-.424-.873 0-.897.293-1.7.402-1.776C66.003 61.747 66.296 62.55 66.296 63.447zM72.808 47.119c.015-.009.034-.014.058-.014.324 0 1.418.865 2.173 2.098.305.498.45.905.43 1.21-.015.223-.119.387-.328.515-.172.105-.695.425-1.49-.874-.616-1.007-.909-2.068-.923-2.6.024-.104.044-.209.067-.313C72.801 47.136 72.803 47.122 72.808 47.119zM76.865 44.501c-.175.172-.359.234-.578.194-.3-.055-.66-.294-1.07-.711-.457-.466-.921-1.104-1.211-1.665-.329-.635-.322-.951-.267-1.005.016-.016.052-.026.111-.026.149 0 .439.068.889.312.555.301 1.184.777 1.641 1.243.41.418.642.782.69 1.083C77.105 44.147 77.04 44.33 76.865 44.501zM22.512 67.191c-.232-.15-.957-.532-1.471-.53-.019-.021-.034-.043-.057-.06-.471-.331-.928-.679-1.378-1.033.654-.077.764-.455.764-.691 0-.264-.131-.707-1.012-.707-.209 0-.766.046-1.169.215-.686-.605-1.343-1.236-1.971-1.892.177.018.34.03.458.03 1.135 0 1.374-.502 1.374-.924 0-.422-.238-.924-1.374-.924-.396 0-1.234.096-1.775.356-.827-.975-1.594-1.995-2.298-3.056.384.085.788.125 1.092.125 1.144 0 1.384-.506 1.384-.931 0-.425-.24-.931-1.384-.931-.554 0-1.431.135-1.923.435-.602-1.007-1.142-2.05-1.631-3.116.29.166.582.307.824.399l0 0c.35.134.649.199.905.199.109 0 .211-.012.306-.036.297-.077.516-.277.63-.579.114-.302.085-.596-.086-.852-.181-.27-.512-.492-1.012-.683-.63-.24-1.717-.476-2.355-.311-.405-1.049-.75-2.122-1.044-3.211.041.049.067.094.112.145.456.516 1.088 1.045 1.694 1.415.554.34 1.018.506 1.414.506.031 0 .061-.001.09-.003.383-.025.696-.221.907-.565.313-.512.387-1.304-1.039-2.178-.948-.581-2.939-1.367-3.533-.755-.322-1.447-.546-2.921-.668-4.414.352.571.806 1.13 1.168 1.485.5.49.943.761 1.354.827.064.01.127.015.19.015.305 0 .586-.123.821-.363.283-.288.397-.64.329-1.017-.074-.41-.353-.848-.853-1.338-.736-.721-2.312-1.832-3.109-1.617-.004-.204-.019-.406-.019-.61 0-.175.013-.347.016-.522.067.019.135.035.216.035.286 0 .658-.117 1.111-.352.611-.316 1.278-.802 1.785-1.299.5-.49.778-.928.853-1.338.068-.377-.045-.729-.328-1.017-.283-.289-.633-.413-1.011-.349-.411.066-.854.336-1.354.826l0 0c-.435.428-.857.972-1.177 1.501.117-1.504.34-2.988.662-4.446.139.159.353.254.674.254.234 0 .515-.043.843-.127.667-.171 1.426-.495 2.031-.866.597-.365.967-.729 1.131-1.111.151-.353.119-.721-.092-1.065-.313-.512-.986-.937-2.411-.063h0c-.558.342-1.341.976-1.843 1.604.295-1.108.641-2.2 1.049-3.267.155.045.333.07.531.07.614 0 1.372-.184 1.856-.368 1.214-.463 1.267-1.09 1.098-1.535-.115-.302-.333-.502-.63-.578-.314-.081-.71-.028-1.21.163-.296.112-.599.27-.889.442.495-1.09 1.047-2.154 1.659-3.184.484.316 1.393.457 1.961.457 1.144 0 1.384-.506 1.384-.931 0-.424-.24-.93-1.384-.93-.264 0-.725.045-1.165.148.709-1.079 1.483-2.116 2.319-3.107.5.264 1.308.384 1.827.384 1.135 0 1.374-.503 1.374-.925C18.053 18.098 17.809 17.6 16.674 17.6c-.138 0-.334.013-.55.039.636-.67 1.299-1.317 1.995-1.933.406.195 1.017.248 1.238.248.88 0 1.012-.443 1.012-.707 0-.249-.125-.652-.876-.698.485-.385.981-.759 1.491-1.117.042-.03.077-.067.103-.108.5-.054 1.124-.377 1.336-.513.31-.198.501-.398.587-.612.086-.213.063-.433-.066-.634-.155-.241-.536-.566-1.35-.046l0 .001c-.277.178-1.158.862-1.163 1.39-.58.411-1.142.842-1.69 1.286.054-.279.072-.545.072-.675 0-.88-.443-1.012-.707-1.012-.264 0-.707.132-.707 1.012 0 .272.08 1.127.406 1.47-1.031.901-2.002 1.859-2.907 2.871.108-.445.155-.917.155-1.184 0-1.135-.502-1.373-.924-1.373-.421 0-.924.238-.924 1.373 0 .567.197 2.044.799 2.234-.791.961-1.525 1.963-2.201 3.002.069-.349.104-.705.104-.979 0-1.144-.506-1.384-.93-1.384-.425 0-.931.24-.931 1.384 0 .799.273 2.292.931 2.292.003 0 .007-.003.01-.003-.629 1.075-1.203 2.181-1.708 3.32-.04-.56-.198-1.185-.358-1.606-.19-.501-.414-.832-.683-1.013-.255-.172-.55-.2-.852-.086-.444.17-.877.627-.415 1.841.3.789 1.084 2.117 1.745 2.117.017 0 .034-.007.051-.009-.481 1.212-.89 2.452-1.226 3.717-.183-.577-.454-1.189-.764-1.696-.366-.597-.729-.967-1.112-1.131-.353-.151-.721-.119-1.065.093-.345.211-.54.524-.565.906-.028.416.137.908.502 1.505.596.974 1.69 2.132 2.417 2.307.042.01.082.011.122.015-.278 1.384-.472 2.79-.571 4.213-.023-.049-.036-.091-.062-.142-.316-.61-.802-1.278-1.299-1.784-1.17-1.195-1.927-.945-2.355-.525-.428.42-.691 1.172.479 2.365l0 0c.666.679 2.044 1.705 2.882 1.705.108 0 .203-.023.29-.06-.005.247-.022.493-.022.741 0 .282.019.562.026.844-.307-.138-.775-.047-1.417.301-.604.328-1.262.826-1.759 1.333-.49.499-.761.942-.827 1.354-.062.378.059.728.348 1.011.234.229.51.348.807.348.069 0 .14-.006.211-.02.41-.073.847-.353 1.337-.853.497-.506.982-1.174 1.299-1.784.029-.057.043-.103.069-.157.103 1.428.301 2.839.584 4.228-.824.062-2.034 1.466-2.558 2.321-.365.597-.53 1.089-.502 1.505.025.383.221.696.565.907.176.107.385.188.619.188.447 0 .986-.29 1.559-1.226.267-.437.575-1.097.777-1.741.343 1.285.763 2.545 1.256 3.775-.294-.066-.637.144-1.025.642C7.464 53.4 7.16 53.943 6.97 54.444c-.462 1.214-.029 1.671.416 1.841.11.042.232.07.36.07.386 0 .827-.257 1.174-1.169.168-.442.333-1.108.361-1.688.521 1.173 1.112 2.314 1.766 3.419-.024-.004-.045-.02-.071-.02-.658 0-.931 1.493-.931 2.292 0 1.144.506 1.384.931 1.384.424 0 .93-.24.93-1.384 0-.309-.042-.721-.13-1.112.7 1.08 1.463 2.12 2.287 3.116-.603.1-.858 1.49-.858 2.254 0 1.135.502 1.373.924 1.373.422 0 .924-.238.924-1.373 0-.359-.059-.856-.181-1.295.005.003.01.006.016.009.899 1.007 1.863 1.961 2.888 2.858.014.033.028.065.051.094-.345.326-.429 1.212-.429 1.491 0 .88.443 1.012.707 1.012.264 0 .707-.132.707-1.012 0-.148-.026-.47-.099-.789.592.48 1.197.947 1.825 1.389.035.16.133.341.308.547.224.265.536.538.837.73.293.188.544.281.766.281.012 0 .024-.001.036-.001.229-.011.419-.123.549-.325.13-.201.153-.421.067-.634C23.015 67.589 22.821 67.39 22.512 67.191zM8.288 47.388c.031-.051.132-.077.286-.077.518 0 1.629.295 2.648.919 1.299.797.979 1.319.874 1.49-.128.209-.292.313-.515.328-.304.02-.711-.124-1.21-.43l0 0c-.557-.341-1.162-.847-1.58-1.32C8.319 47.762 8.248 47.453 8.288 47.388zM7.271 41.121c.183-.18 1.564.395 2.67 1.48.417.409.656.769.71 1.069.04.22-.021.403-.193.578-.171.176-.354.242-.574.204-.301-.049-.666-.28-1.083-.69C7.695 42.678 7.089 41.308 7.271 41.121zM8.802 36.36c.417-.409.781-.642 1.083-.69.22-.035.403.03.575.205.172.175.233.358.193.578-.054.301-.293.66-.71 1.069-.466.457-1.104.922-1.665 1.212-.636.329-.952.322-1.006.268-.054-.054-.054-.371.287-1C7.859 37.446 8.335 36.817 8.802 36.36zM10.372 30.505c1.299-.793 1.619-.273 1.725-.101.128.209.146.401.059.606-.12.28-.434.577-.933.883-.557.341-1.282.65-1.894.808-.693.179-1 .102-1.041.035C8.152 32.514 9.051 31.315 10.372 30.505zM18.105 13.008c.051 0 .207 0 .207.512 0 .441-.114.867-.207 1.052-.093-.185-.207-.61-.207-1.052C17.898 13.008 18.054 13.008 18.105 13.008zM19.357 15.039c.512 0 .512.156.512.207 0 .051 0 .207-.512.207-.301 0-.588-.054-.803-.117.096-.083.193-.165.29-.246C19.004 15.061 19.177 15.039 19.357 15.039zM21.863 11.939c.515-.332.62-.166.659-.106.049.076.045.126.024.178-.031.077-.125.205-.394.378-.442.284-.922.43-1.153.448-.01-.008-.018-.02-.028-.027C21.078 12.609 21.415 12.227 21.863 11.939zM10.545 20.934c0-.884.313-.884.431-.884.118 0 .43 0 .43.884 0 .909-.297 1.72-.409 1.796C10.842 22.654 10.545 21.844 10.545 20.934zM8.711 27.298c-.001 0-.001 0-.002 0-.198 0-.881-.77-1.272-1.796-.381-1.002-.012-1.144.127-1.196.152-.058.273-.047.395.034.122.082.307.283.495.775C8.845 26.146 8.845 27.18 8.711 27.298zM6.263 38.809c-.186.18-1.557-.424-2.642-1.529-1.066-1.088-.629-1.518-.486-1.658.144-.143.581-.57 1.648.518.457.466.921 1.104 1.212 1.665C6.324 38.439 6.317 38.756 6.263 38.809zM5.995 42.319c-.291.562-.755 1.199-1.212 1.665-.41.417-.77.656-1.069.711-.219.041-.403-.021-.579-.194-.175-.171-.24-.354-.205-.574.049-.301.281-.665.69-1.083.458-.466 1.086-.942 1.641-1.243.449-.243.739-.312.888-.312.06 0 .097.011.112.026C6.317 41.368 6.324 41.684 5.995 42.319zM8.452 55.009c-.381 1.002-.751.859-.889.81-.139-.053-.508-.194-.127-1.196.393-1.03 1.079-1.802 1.258-1.802 0 0 0 0 0 0C8.845 52.944 8.845 53.977 8.452 55.009zM10.976 60.073c-.118 0-.431 0-.431-.884 0-.909.297-1.72.41-1.796.154.076.451.887.451 1.796C11.406 60.073 11.094 60.073 10.976 60.073zM16.674 61.176c.874 0 .874.308.874.424 0 .116 0 .424-.874.424-.363 0-.707-.049-.998-.113-.148-.163-.304-.32-.449-.485C15.558 61.298 16.095 61.176 16.674 61.176zM13.693 56.74c.884 0 .884.312.884.431 0 .119 0 .431-.884.431-.606 0-1.164-.132-1.493-.253-.056-.088-.113-.174-.168-.263C12.306 56.93 12.964 56.74 13.693 56.74zM11.527 52.474c.492.188.693.372.775.494.082.122.092.243.034.396-.058.152-.146.236-.288.272-.143.035-.416.04-.908-.146-.566-.216-1.048-.519-1.373-.779-.078-.183-.152-.367-.227-.552C9.911 52.1 10.716 52.165 11.527 52.474zM11.14 26.634 11.14 26.634c.335-.128.569-.166.729-.166.075 0 .133.008.179.02.142.037.23.121.288.272.053.139.193.509-.809.891-.843.32-1.679.376-2.023.313.067-.168.136-.334.207-.501C10.032 27.19 10.539 26.862 11.14 26.634zM13.693 22.522c.884 0 .884.312.884.43 0 .118 0 .431-.884.431-.779 0-1.481-.217-1.715-.35.043-.069.088-.137.132-.206C12.42 22.681 13.028 22.522 13.693 22.522zM16.674 18.1c.874 0 .874.308.874.424 0 .116 0 .425-.874.425-.624 0-1.195-.141-1.515-.265.13-.15.271-.292.405-.44C15.875 18.162 16.263 18.1 16.674 18.1zM14.128 15.804c.116 0 .424 0 .424.873 0 .897-.293 1.699-.402 1.775-.153-.076-.446-.878-.446-1.775C13.704 15.804 14.012 15.804 14.128 15.804zM7.068 33.002c-.511-.123-1.515-1.115-2.107-2.082l0 0c-.306-.498-.45-.905-.43-1.21.015-.223.119-.386.328-.514.123-.075.241-.113.358-.113.082 0 .164.019.248.055.28.12.578.434.883.933.341.557.65 1.282.808 1.894.076.294.099.506.103.67-.028.123-.053.247-.08.37C7.162 33.011 7.129 33.016 7.068 33.002zM6.349 50.054c-.796 1.3-1.318.978-1.49.874C4.65 50.8 4.546 50.636 4.531 50.413c-.021-.305.124-.712.43-1.21.755-1.233 1.849-2.098 2.173-2.098.023 0 .043.005.058.014.006.004.008.018.013.023.023.104.043.208.067.312C7.258 47.985 6.965 49.047 6.349 50.054zM14.128 64.32c-.116 0-.424 0-.424-.873 0-.897.293-1.7.402-1.776.152.076.446.879.446 1.776C14.552 64.32 14.244 64.32 14.128 64.32zM19.357 64.671c.512 0 .512.156.512.207 0 .051 0 .207-.512.207-.13 0-.257-.012-.379-.028-.116-.095-.229-.194-.342-.291C18.841 64.713 19.093 64.671 19.357 64.671zM18.105 67.116c-.051 0-.207 0-.207-.512 0-.441.114-.867.207-1.052.093.185.207.61.207 1.052C18.312 67.116 18.156 67.116 18.105 67.116zM22.612 68.167c-.049.075-.096.093-.151.095-.066.017-.225-.019-.508-.2-.469-.302-.825-.714-.914-.904.21.001.733.153 1.203.454.269.174.363.302.394.379C22.657 68.042 22.66 68.091 22.612 68.167z"/>
</svg>