<svg xmlns="http://www.w3.org/2000/svg" viewBox="0 0 80 80">
<path d="M42.898 67.504c-.027-.045-.068-.072-.118-.093-.015-.007-.021-.026-.038-.03-.027-.003-2.751-.54-3.689 1.955-.762 2.029-2.186 3.029-2.2 3.039-.076.052-.117.142-.107.232.01.092.069.17.154.205.053.021.769.308 1.775.308.843 0 1.888-.2 2.919-.922 2.633-1.845 1.336-4.651 1.323-4.68C42.914 67.512 42.903 67.512 42.898 67.504zM41.308 71.789c-1.492 1.046-3.054.864-3.789.689.514-.459 1.426-1.433 2.002-2.966.643-1.711 2.244-1.732 2.863-1.673-.175.604-.828 2.215-3.054 3.538-.119.07-.158.224-.087.343.046.078.13.122.215.122.043 0 .087-.012.127-.035 1.933-1.148 2.759-2.492 3.107-3.333C42.857 69.32 42.83 70.723 41.308 71.789zM37.132 67.525c-.002-.008-.013-.011-.016-.019-.017-.05-.052-.084-.097-.115-.013-.009-.015-.029-.03-.036-.026-.012-2.58-1.102-4.015 1.145-1.167 1.826-2.768 2.509-2.784 2.516-.084.035-.144.113-.153.205-.009.091.032.18.108.231.063.044 1.172.784 2.742.784.603 0 1.273-.109 1.979-.408C37.824 70.571 37.139 67.556 37.132 67.525zM34.67 71.367c-1.676.712-3.166.209-3.849-.113.598-.342 1.693-1.104 2.575-2.484.983-1.54 2.552-1.228 3.146-1.043-.287.543-1.247 1.988-3.721 2.827-.131.044-.201.186-.157.316.035.104.133.17.237.17.027 0 .054-.004.08-.014 2.129-.721 3.217-1.864 3.732-2.614C36.699 69.274 36.38 70.641 34.67 71.367zM31.472 66.327c0-.009-.01-.013-.011-.021-.006-.052-.033-.094-.07-.133-.011-.012-.009-.032-.022-.042-.022-.015-2.293-1.612-4.165.285-1.521 1.544-3.229 1.879-3.247 1.882-.09.018-.164.082-.192.17-.028.087-.006.183.057.249.064.066 1.407 1.443 3.55 1.443.313 0 .644-.029.989-.097C31.515 69.45 31.473 66.358 31.472 66.327zM28.265 69.573c-1.788.344-3.141-.453-3.741-.91.657-.211 1.886-.729 3.035-1.896 1.281-1.301 2.751-.672 3.294-.366-.394.472-1.633 1.686-4.227 1.991-.137.016-.235.14-.219.277.015.127.123.221.248.221.01 0 .02-.001.029-.002 2.24-.263 3.537-1.157 4.195-1.784C30.686 67.944 30.092 69.218 28.265 69.573zM26.184 63.979c.002-.009-.007-.015-.007-.024.005-.053-.013-.099-.041-.146-.008-.014-.002-.032-.013-.044-.019-.021-1.908-2.056-4.134-.588-1.808 1.194-3.549 1.176-3.566 1.166-.089-.003-.178.046-.223.126-.046.079-.044.178.004.255.056.091 1.397 2.214 4.16 2.263.029 0 .058.001.087.001C25.588 66.988 26.179 64.01 26.184 63.979zM22.373 66.487c-1.821-.032-2.978-1.097-3.47-1.669.686-.069 1.996-.321 3.363-1.223 1.523-1.007 2.831-.084 3.298.327-.483.379-1.95 1.308-4.548 1.068-.141-.021-.259.089-.272.226-.013.138.088.26.226.272.312.028.607.042.889.042 1.75 0 2.922-.507 3.589-.917C25.087 65.401 24.244 66.534 22.373 66.487zM21.501 60.582c.003-.008-.004-.016-.001-.024.016-.051.008-.1-.01-.152-.005-.015.005-.031-.003-.045-.014-.024-1.44-2.408-3.921-1.433-2.018.79-3.714.402-3.731.398-.089-.023-.183.008-.244.076-.061.068-.08.165-.049.251.036.101.906 2.455 3.599 3.077.353.082.682.118.987.118C20.53 62.849 21.49 60.607 21.501 60.582zM17.251 62.244c-1.774-.411-2.685-1.692-3.047-2.354.685.074 2.019.1 3.544-.497 1.699-.667 2.787.506 3.158 1.006-.548.271-2.165.877-4.671.099-.132-.044-.272.031-.313.164-.042.132.032.271.164.312.965.301 1.81.408 2.526.408.875 0 1.557-.161 2.029-.328C20.121 61.743 19.06 62.658 17.251 62.244zM17.626 56.286c.005-.007 0-.017.003-.024.027-.047.029-.097.022-.151-.002-.015.011-.029.006-.044-.009-.026-.906-2.654-3.538-2.218-2.139.356-3.717-.379-3.732-.386-.083-.039-.181-.029-.255.023-.074.055-.112.145-.101.235.015.105.376 2.592 2.88 3.759.617.288 1.182.401 1.692.401C16.501 57.882 17.612 56.307 17.626 56.286zM10.632 54.091c.655.218 1.954.519 3.57.252 1.801-.305 2.621 1.074 2.88 1.641-.592.152-2.3.409-4.59-.874-.121-.066-.273-.025-.34.096-.068.12-.025.272.096.34 1.519.853 2.81 1.07 3.734 1.07.274 0 .504-.021.709-.049-.65.566-1.88 1.249-3.567.461C11.473 56.258 10.849 54.814 10.632 54.091zM14.729 51.278c.006-.006.003-.017.008-.023.035-.04.048-.088.052-.142.001-.016.018-.027.016-.043-.003-.027-.336-2.783-2.999-2.904-2.165-.098-3.557-1.143-3.57-1.153-.073-.056-.171-.065-.254-.029-.083.037-.14.117-.147.209-.008.105-.171 2.612 2.036 4.274.808.609 1.586.818 2.274.818C13.643 52.284 14.714 51.293 14.729 51.278zM8.345 47.677c.596.348 1.804.914 3.439.988 1.826.082 2.342 1.6 2.477 2.206-.628.021-2.363-.102-4.309-1.811-.104-.092-.261-.082-.353.022-.091.104-.081.262.022.353 1.688 1.483 3.223 1.854 4.13 1.926-.754.418-2.097.825-3.581-.293C8.717 49.971 8.406 48.43 8.345 47.677zM10.932 46.301c1.127 0 1.989-.514 2.004-.523.008-.005.006-.016.014-.021.042-.032.065-.076.081-.129.004-.015.022-.022.023-.038.003-.028.25-2.793-2.329-3.465-2.098-.546-3.242-1.857-3.253-1.87-.059-.07-.152-.101-.242-.082-.09.02-.162.086-.188.174-.03.102-.71 2.521 1.103 4.605C9.057 46.002 10.072 46.301 10.932 46.301zM7.44 40.928c.51.464 1.574 1.269 3.159 1.682 1.768.46 1.957 2.05 1.963 2.672-.619-.11-2.29-.592-3.837-2.667-.083-.109-.239-.134-.35-.051-.111.082-.133.239-.051.35 1.344 1.802 2.767 2.482 3.639 2.741-.824.252-2.223.372-3.441-1.03C7.327 43.249 7.344 41.677 7.44 40.928zM11.089 40.204c.709 0 1.225-.175 1.237-.18.01-.003.012-.016.021-.021.052-.025.09-.063.115-.118.004-.009.017-.011.02-.02.008-.026.825-2.681-1.559-3.873-1.938-.97-2.785-2.491-2.793-2.506-.044-.081-.128-.131-.22-.131 0 0 0 0 0 0-.092 0-.176.051-.219.132-.051.093-1.219 2.316.121 4.732C8.72 39.86 10.096 40.204 11.089 40.204zM7.958 34.139c.403.559 1.276 1.567 2.741 2.301 1.632.816 1.488 2.409 1.365 3.019-.57-.228-2.107-1.032-3.199-3.405-.058-.126-.207-.18-.332-.123-.125.059-.18.207-.122.332.94 2.043 2.191 3.005 2.99 3.439-.858.075-2.252-.1-3.153-1.725C7.365 36.385 7.708 34.85 7.958 34.139zM12.597 34.286c.2 0 .323-.015.329-.016.008-.001.011-.011.019-.013.061-.013.113-.046.149-.1.004-.006.013-.005.016-.011.014-.024 1.365-2.45-.719-4.112-1.694-1.352-2.206-3.016-2.211-3.032-.026-.088-.099-.154-.188-.173-.09-.021-.183.012-.242.082-.069.081-1.673 2.014-.866 4.655C9.64 34.038 11.774 34.286 12.597 34.286zM9.877 27.604c.278.631.922 1.799 2.203 2.82 1.427 1.138.955 2.667.708 3.238-.511-.342-1.847-1.447-2.422-3.995-.03-.135-.164-.217-.299-.189-.135.03-.219.164-.189.299.496 2.198 1.519 3.393 2.21 3.983-.855-.105-2.182-.563-2.726-2.341C8.83 29.679 9.485 28.25 9.877 27.604zM14.708 28.766c.006.001.013.001.019.001l0 0 0 0h0c.071 0 .139-.03.187-.084.019-.021 1.845-2.112.152-4.172-1.376-1.674-1.531-3.408-1.532-3.425-.007-.092-.064-.172-.148-.209-.083-.038-.181-.025-.254.03-.084.065-2.056 1.621-1.815 4.373C11.598 28.483 14.677 28.765 14.708 28.766zM13.112 21.612c.141.675.528 1.952 1.568 3.218 1.159 1.409.38 2.806.02 3.314-.428-.441-1.506-1.799-1.539-4.411-.001-.138-.127-.242-.253-.247-.138.002-.249.115-.247.253.028 2.255.782 3.638 1.336 4.358-.815-.28-2.019-1.004-2.182-2.858C11.657 23.424 12.595 22.162 13.112 21.612zM17.597 23.754c.023.008.047.011.07.011 0 0 0 0 0 0l0 0 0 0c.053 0 .104-.017.148-.049.023-.017 2.244-1.683 1.016-4.049-.998-1.924-.789-3.652-.787-3.67.012-.091-.027-.181-.102-.234-.074-.054-.172-.063-.254-.023-.096.046-2.348 1.158-2.685 3.901C14.613 22.83 17.567 23.745 17.597 23.754zM15.501 19.701c.222-1.808 1.401-2.848 2.022-3.277-.003.689.11 2.02.865 3.474.84 1.62-.212 2.823-.67 3.245-.327-.52-1.099-2.073-.587-4.635.027-.136-.061-.267-.196-.294-.136-.023-.268.061-.294.196-.441 2.211.008 3.72.4 4.54C16.301 22.506 15.274 21.547 15.501 19.701zM21.457 19.447C21.457 19.447 21.457 19.447 21.457 19.447c.001.001.007.004.007.004.036.02.076.029.116.029.001 0 .002.001.003.001l0 0 0 0c.035 0 .07-.008.103-.022.025-.011 2.544-1.18 1.835-3.749-.576-2.089-.012-3.736-.006-3.753.03-.086.011-.183-.05-.251-.062-.067-.155-.098-.245-.075-.103.025-2.537.645-3.437 3.258C18.751 17.887 21.362 19.394 21.457 19.447zM20.257 15.051c.593-1.723 1.963-2.493 2.659-2.784-.146.673-.312 1.997.124 3.576.485 1.759-.794 2.718-1.331 3.035-.212-.577-.644-2.257.389-4.656.055-.127-.004-.273-.131-.328-.127-.055-.273.004-.328.131-.889 2.065-.767 3.638-.555 4.523C20.454 17.959 19.652 16.808 20.257 15.051zM26.141 16.046c.002.002.006.001.009.003.043.035.096.056.153.056 0 0 0 0 0 0l0 0c.018 0 .036-.002.053-.006.027-.006 2.734-.625 2.575-3.285-.129-2.164.765-3.657.773-3.672.048-.079.049-.177.003-.256-.046-.079-.129-.122-.223-.125-.106.003-2.616.104-4.039 2.472C23.791 13.988 26.118 16.025 26.141 16.046zM25.875 11.491c.938-1.562 2.438-2.031 3.18-2.171-.283.628-.72 1.889-.622 3.523.108 1.824-1.346 2.496-1.935 2.693-.086-.623-.145-2.361 1.351-4.474.08-.112.053-.269-.06-.349-.112-.081-.269-.053-.349.06-1.299 1.835-1.506 3.399-1.483 4.308C25.464 14.376 24.918 13.083 25.875 11.491zM31.443 13.697c.046.052.106.089.18.089l0 0 0 0c0 0 .001 0 .001 0 .028 0 2.805-.042 3.203-2.679.323-2.143 1.508-3.418 1.52-3.431.063-.066.085-.162.056-.25C36.374 7.34 36.3 7.275 36.21 7.259c-.104-.02-2.58-.442-4.464 1.578-2.192 2.351-.34 4.826-.321 4.852C31.429 13.694 31.438 13.692 31.443 13.697zM32.111 9.179c1.186-1.271 2.664-1.465 3.453-1.465.038 0 .074.001.109.002-.408.556-1.097 1.697-1.342 3.317-.272 1.807-1.835 2.161-2.453 2.232.045-.626.349-2.339 2.252-4.095.102-.094.108-.252.014-.354-.094-.101-.252-.107-.354-.014-1.654 1.527-2.182 3.016-2.347 3.91C31.106 11.921 30.838 10.544 32.111 9.179zM37.102 12.496c.027.046.069.073.12.094.014.006.02.025.036.028.008.001.264.052.642.052.871 0 2.393-.267 3.047-2.007.762-2.029 2.186-3.029 2.2-3.039.076-.052.117-.142.107-.232-.01-.092-.068-.17-.153-.205-.099-.039-2.432-.97-4.695.614-2.633 1.845-1.336 4.651-1.322 4.68C37.086 12.488 37.098 12.488 37.102 12.496zM38.692 8.211c1.492-1.045 3.054-.863 3.788-.689-.514.459-1.426 1.433-2.002 2.966-.643 1.712-2.247 1.73-2.864 1.673.171-.602.818-2.208 3.056-3.537.118-.07.157-.224.087-.343-.07-.118-.224-.157-.343-.087-1.936 1.15-2.761 2.497-3.109 3.337C37.139 10.686 37.162 9.282 38.692 8.211zM42.868 12.475c.002.008.013.011.016.019.017.05.052.085.097.115.013.009.015.029.03.036.013.006.642.274 1.448.274.827 0 1.84-.282 2.566-1.419 1.167-1.826 2.769-2.509 2.784-2.516.085-.035.144-.113.153-.205.009-.091-.032-.18-.108-.231-.087-.061-2.177-1.454-4.72-.376C42.177 9.43 42.861 12.445 42.868 12.475zM45.33 8.634c1.677-.713 3.167-.21 3.849.113-.598.342-1.693 1.104-2.575 2.484-.983 1.539-2.551 1.23-3.146 1.042.287-.544 1.247-1.988 3.721-2.827.131-.044.201-.186.157-.316-.044-.13-.186-.204-.317-.156-2.133.722-3.22 1.868-3.735 2.617C43.296 10.732 43.611 9.364 45.33 8.634zM48.528 13.673c0 .009.01.013.011.021.006.052.033.094.07.133.011.012.009.032.022.042.015.01.916.644 2.047.644.67 0 1.422-.222 2.118-.928 1.521-1.545 3.229-1.879 3.247-1.882.09-.018.164-.082.192-.169.028-.088.006-.184-.057-.25-.073-.076-1.829-1.879-4.539-1.348C48.484 10.55 48.527 13.641 48.528 13.673zM51.735 10.427c1.789-.344 3.141.453 3.742.911-.657.21-1.886.729-3.035 1.896-1.282 1.3-2.751.671-3.294.365.394-.472 1.633-1.685 4.227-1.991.137-.016.235-.141.219-.277-.016-.138-.14-.236-.277-.219-2.24.263-3.536 1.157-4.195 1.784C49.314 12.056 49.908 10.782 51.735 10.427zM61.577 15.657c.08-.009.177-.046.223-.126.045-.079.044-.177-.004-.255-.056-.091-1.397-2.215-4.16-2.263-.029 0-.058-.001-.087-.001-3.137 0-3.728 2.979-3.733 3.009-.001.009.008.015.007.024-.005.053.013.1.042.147.008.013.001.032.012.043.014.016 1.039 1.119 2.465 1.119.514 0 1.079-.144 1.668-.531C59.817 15.63 61.555 15.66 61.577 15.657zM54.435 16.077c.479-.381 1.934-1.312 4.55-1.068.141.025.259-.089.271-.226.013-.138-.088-.26-.226-.272-2.246-.206-3.701.4-4.475.875.358-.77 1.186-1.873 2.993-1.873.026 0 .052 0 .078.001 1.822.031 2.979 1.097 3.471 1.669-.686.069-1.996.321-3.363 1.223C56.21 17.412 54.902 16.489 54.435 16.077zM58.499 19.418c-.003.008.004.016.001.024-.016.05-.008.099.01.15.005.015-.005.033.003.047.012.021.997 1.667 2.753 1.667.357 0 .748-.068 1.168-.233 2.017-.793 3.714-.402 3.731-.398.088.023.183-.008.244-.076.061-.068.081-.165.049-.251-.036-.101-.906-2.456-3.599-3.077C59.727 16.545 58.511 19.39 58.499 19.418zM62.749 17.757c1.774.41 2.685 1.691 3.047 2.354-.686-.076-2.02-.102-3.544.497-1.698.664-2.786-.506-3.158-1.007.551-.271 2.177-.875 4.671-.1.132.042.272-.032.313-.164.041-.132-.033-.271-.165-.312-2.152-.672-3.7-.382-4.556-.078C59.876 18.26 60.936 17.342 62.749 17.757zM62.374 23.714c-.005.007 0 .017-.004.024-.026.047-.028.096-.021.151.002.016-.011.03-.006.045.009.026.909 2.649 3.537 2.218 2.137-.356 3.717.379 3.732.386.034.017.071.024.107.024.052 0 .104-.017.147-.048.074-.055.112-.145.101-.235-.015-.105-.376-2.592-2.88-3.759C64.174 21.162 62.391 23.688 62.374 23.714zM69.368 25.909c-.472-.156-1.278-.356-2.295-.356-.396 0-.823.03-1.274.104-1.799.31-2.62-1.072-2.88-1.64.596-.151 2.311-.405 4.59.873.039.021.081.032.122.032.087 0 .172-.046.218-.128.068-.12.025-.272-.096-.34-1.96-1.1-3.537-1.143-4.439-1.025.651-.565 1.88-1.241 3.562-.458C68.527 23.742 69.151 25.185 69.368 25.909zM65.271 28.722c-.006.006-.003.017-.009.023-.035.04-.047.088-.052.142-.001.016-.018.027-.016.044.003.027.336 2.783 2.999 2.904 2.165.098 3.557 1.143 3.57 1.153.045.034.099.052.152.052.035 0 .069-.008.102-.022.083-.037.14-.117.147-.209.008-.105.171-2.612-2.036-4.274C67.563 26.597 65.294 28.7 65.271 28.722zM71.656 32.323c-.596-.348-1.804-.914-3.439-.988-1.826-.082-2.342-1.599-2.477-2.205.628-.021 2.363.103 4.309 1.811.047.042.106.062.165.062.069 0 .138-.028.188-.085.091-.104.081-.262-.022-.353-1.69-1.484-3.225-1.853-4.132-1.924.753-.418 2.098-.826 3.583.291C71.284 30.029 71.595 31.57 71.656 32.323zM71.855 35.049c-2.109-2.426-4.765-.844-4.792-.826-.01.006-.009.022-.019.03-.037.027-.053.067-.069.109-.006.019-.028.029-.031.048-.002.028-.25 2.794 2.33 3.465 2.097.546 3.241 1.857 3.253 1.87.048.057.117.088.189.088.018 0 .035-.002.053-.006.09-.02.162-.086.188-.174C72.988 39.552 73.668 37.134 71.855 35.049zM72.56 39.072c-.51-.464-1.574-1.269-3.159-1.682-1.769-.46-1.958-2.051-1.964-2.672.619.11 2.29.592 3.838 2.668.049.065.124.101.2.101.052 0 .104-.017.149-.05.11-.082.134-.239.051-.35-1.344-1.802-2.767-2.483-3.64-2.742.824-.252 2.223-.371 3.442 1.031C72.673 36.751 72.656 38.323 72.56 39.072zM67.674 39.975c-.008.003-.009.013-.016.016-.049.022-.081.062-.107.111-.007.014-.026.017-.031.032-.008.026-.826 2.681 1.558 3.873 1.938.97 2.785 2.491 2.793 2.506.044.081.128.131.22.131 0 0 0 0 0 0 .092 0 .176-.051.219-.132.051-.093 1.219-2.316-.121-4.732C70.631 38.969 67.703 39.964 67.674 39.975zM72.041 45.861c-.403-.559-1.276-1.567-2.741-2.301-1.632-.816-1.488-2.409-1.365-3.019.57.228 2.107 1.032 3.199 3.405.042.092.133.146.228.146.035 0 .07-.007.104-.022.125-.059.18-.207.122-.332-.939-2.043-2.19-3.005-2.99-3.439.859-.075 2.251.099 3.152 1.724C72.635 43.615 72.291 45.149 72.041 45.861zM67.074 45.729c-.009.001-.013.012-.021.014-.051.011-.087.042-.123.082-.011.013-.032.012-.041.027-.014.024-1.365 2.45.719 4.112 1.694 1.352 2.206 3.016 2.211 3.032.026.088.099.154.188.173.017.004.034.006.051.006.072 0 .142-.031.19-.088.069-.081 1.673-2.014.866-4.655C70.176 45.36 67.105 45.725 67.074 45.729zM70.122 52.395c-.277-.631-.922-1.799-2.202-2.82-1.426-1.138-.955-2.667-.708-3.238.51.342 1.847 1.447 2.421 3.995.026.116.13.195.244.195.018 0 .036-.002.055-.006.135-.03.22-.164.189-.299-.497-2.202-1.522-3.397-2.214-3.986.855.103 2.185.563 2.729 2.343C71.17 50.321 70.514 51.751 70.122 52.395zM65.292 51.233c-.013-.002-.024.004-.037.005-.01.001-.017.002-.026.003-.054.01-.106.033-.143.075-.019.021-1.845 2.112-.152 4.172 1.376 1.674 1.531 3.408 1.532 3.425.008.092.064.172.148.209.032.015.067.021.102.021.054 0 .108-.018.152-.052.084-.065 2.056-1.621 1.814-4.373C68.403 51.516 65.323 51.235 65.292 51.233zM66.888 58.388c-.141-.675-.527-1.952-1.567-3.218-1.159-1.41-.38-2.806-.019-3.313.428.441 1.505 1.8 1.538 4.411.002.137.113.247.25.247.001 0 .002 0 .003 0 .138-.002.249-.115.247-.253-.028-2.259-.784-3.642-1.338-4.361.814.277 2.021.998 2.184 2.861C68.344 56.576 67.406 57.838 66.888 58.388zM62.403 56.246c-.012-.004-.024 0-.036-.002-.011-.001-.019-.002-.03-.002-.054-.001-.108.009-.153.042-.022.017-2.244 1.683-1.016 4.049.998 1.924.789 3.652.787 3.67-.012.091.027.181.102.234.043.031.095.048.146.048.037 0 .074-.008.108-.024.096-.046 2.348-1.158 2.684-3.901C65.387 57.17 62.433 56.255 62.403 56.246zM64.499 60.299c-.222 1.808-1.402 2.848-2.022 3.277.003-.689-.111-2.02-.865-3.474-.84-1.62.212-2.823.67-3.245.328.52 1.099 2.073.587 4.635-.027.136.061.267.196.294.016.003.033.005.049.005.117 0 .221-.082.245-.201.442-2.215-.01-3.725-.402-4.544C63.697 57.486 64.727 58.443 64.499 60.299zM58.535 60.549c-.011-.006-.023-.005-.035-.01-.01-.004-.019-.006-.029-.008-.053-.012-.108-.013-.158.01-.025.011-2.544 1.18-1.835 3.749.576 2.089.012 3.736.006 3.753-.03.086-.011.183.051.251.048.053.115.082.186.082.02 0 .039-.002.059-.007.104-.025 2.537-.645 3.437-3.258C61.263 62.073 58.563 60.563 58.535 60.549zM59.743 64.949c-.593 1.723-1.963 2.493-2.659 2.784.146-.673.312-1.997-.124-3.576-.485-1.759.794-2.718 1.331-3.035.212.577.644 2.257-.389 4.656-.055.127.004.273.131.328.032.014.065.021.099.021.097 0 .189-.057.229-.151.89-2.068.767-3.642.554-4.527C59.545 62.034 60.351 63.184 59.743 64.949zM53.859 63.954c-.006-.005-.017-.001-.023-.006-.043-.031-.093-.039-.147-.037-.016 0-.029-.015-.044-.011-.027.006-2.734.625-2.575 3.286.129 2.164-.765 3.656-.774 3.671-.048.079-.049.177-.003.256.044.077.127.125.216.125.002 0 .005 0 .007 0 .106-.003 2.616-.103 4.039-2.471C56.209 66.013 53.883 63.975 53.859 63.954zM54.125 68.51c-.938 1.562-2.438 2.031-3.18 2.171.283-.629.72-1.889.623-3.523-.109-1.825 1.346-2.497 1.935-2.694.086.623.145 2.361-1.351 4.475-.08.113-.053.269.06.349.044.031.094.046.144.046.079 0 .156-.037.205-.105 1.299-1.836 1.506-3.399 1.483-4.309C54.536 65.624 55.082 66.918 54.125 68.51zM48.539 66.277c0-.001-.001-.001-.002-.002-.044-.046-.098-.086-.161-.061-.028 0-2.805.043-3.202 2.679-.324 2.143-1.509 3.418-1.521 3.431-.063.066-.084.162-.056.25.029.087.103.151.193.168.032.006.286.05.678.05.887 0 2.479-.226 3.786-1.627 2.192-2.351.34-4.827.321-4.853C48.565 66.299 48.551 66.289 48.539 66.277zM47.889 70.822c-1.242 1.332-2.808 1.452-3.562 1.463.408-.557 1.098-1.698 1.342-3.318.272-1.807 1.835-2.16 2.453-2.232-.045.627-.35 2.34-2.252 4.096-.101.094-.108.252-.014.354.049.053.116.08.184.08.061 0 .122-.021.17-.066 1.652-1.525 2.18-3.012 2.347-3.906C48.891 68.085 49.156 69.464 47.889 70.822z"/>
</svg>