<svg xmlns="http://www.w3.org/2000/svg" viewBox="0 0 80 80">
<path d="M73.759 34.437c-.133-.874-.975-1.168-1.345-1.257.061-.41.104-.852.104-1.373.004-3.082-2.772-3.739-3.685-3.871-.576-1.373-1.25-2.694-2.008-3.959-.088-1.186-.534-5.62-2.443-8.851.254-.378 1.009-1.611.961-2.845-.033-.88-.412-1.622-.717-2.219-.194-.381-.362-.709-.396-.976-.014-.106-.095-.192-.2-.213-.105-.021-.213.028-.266.122-.018.032-1.761 3.189.714 4.916-.136.309-.283.57-.396.755-.686-1.035-1.531-1.918-2.596-2.463-2.799-1.432-5.805-2.377-9.167-.927C48.535 9.649 44.372 8.743 40 8.743c-9.471 0-17.965 4.24-23.702 10.914-.082-1.517-.093-4.648 1.045-6.277 1.513-2.167 3.707-2.44 3.729-2.443 0 0 0 0 0 0 3.256-.116 3.889-3.859 3.895-3.897.017-.103-.032-.205-.123-.256-.09-.053-.204-.042-.283.024-.33.272-.745.379-1.225.503-.613.157-1.308.337-2.002.91-.893.737-.851 1.687-.643 2.28-.708.156-2.446.713-3.759 2.593-.776 1.111-1.059 2.802-1.141 4.299-.226-.249-.534-.421-.952-.366-.479.071-.856-.159-1.039-.3-.253-.194-.402-.431-.419-.564-.015-.124-.12-.217-.245-.219-.117-.026-.231.09-.25.213-.014.097-.341 2.367.521 3.291.355.381.729.573 1.112.573.064 0 .128-.006.192-.017.444-.074.805-.4 1.066-.727.014.384.036.698.055.925C11.405 25.596 8.743 32.493 8.743 40c0 1.344.095 2.667.26 3.967-.544.502-.991 1.121-1.255 2.058.009-.098.025-.226.049-.396l.043-.32c.125-.979-.362-1.837-.383-1.873-.041-.07-.112-.116-.193-.124-.081-.015-.16.024-.213.086-.039.046-.967 1.136-.81 2.165.134.875.976 1.168 1.345 1.257-.061.41-.104.852-.104 1.373-.004 3.082 2.772 3.739 3.685 3.871.577 1.373 1.25 2.694 2.008 3.959.088 1.186.534 5.621 2.443 8.852-.253.378-1.009 1.611-.961 2.845.034.88.413 1.622.717 2.22.194.38.362.708.397.975.014.106.094.192.2.213.016.003.031.005.047.005.089 0 .173-.048.218-.127.018-.032 1.761-3.188-.713-4.916.136-.309.283-.57.396-.755.686 1.035 1.531 1.918 2.596 2.463 1.818.931 3.724 1.661 5.757 1.661.9 0 1.827-.148 2.781-.48.007 0 .014.005.021.005.06 0 .113-.029.159-.068.153-.057.306-.12.46-.186 3.779 1.625 7.939 2.529 12.307 2.529 9.471 0 17.965-4.24 23.702-10.914.082 1.517.093 4.649-1.044 6.277-1.513 2.167-3.707 2.44-3.729 2.443v0c-3.256.116-3.89 3.859-3.896 3.897-.017.103.032.204.123.256.038.022.081.033.124.033.057 0 .113-.02.159-.058.329-.271.744-.378 1.224-.502.613-.158 1.309-.337 2.003-.911.893-.737.851-1.686.644-2.28.707-.156 2.446-.712 3.758-2.593.777-1.112 1.059-2.803 1.142-4.3.225.247.534.419.952.367.479-.07.856.16 1.038.3.254.194.403.432.42.564.016.124.12.217.245.219.001 0 .002 0 .003 0 .124 0 .229-.091.247-.213.015-.097.341-2.367-.521-3.291-.415-.444-.852-.631-1.304-.557-.445.074-.805.4-1.066.727-.015-.384-.036-.698-.055-.925 4.427-5.395 7.089-12.291 7.089-19.798 0-1.344-.095-2.666-.26-3.967.544-.502.991-1.122 1.255-2.059-.009.099-.025.227-.049.399l-.043.319c-.125.979.362 1.837.383 1.873.041.07.113.116.193.124.008.001.016.001.023.001.072 0 .142-.031.189-.087C72.989 36.558 73.916 35.467 73.759 34.437zM63.943 9.806c.07.153.151.313.238.482.297.582.633 1.242.663 2.012.015.381-.063.77-.181 1.128C63.239 12.348 63.612 10.675 63.943 9.806zM21.653 8.605c.608-.502 1.219-.659 1.809-.812.303-.077.597-.153.871-.271-.277.892-1.042 2.545-2.833 2.851.225-.386.586-.936.96-1.216.111-.082.134-.239.051-.35-.083-.111-.239-.134-.35-.051-.428.319-.818.899-1.066 1.32C21.02 9.677 21.056 9.099 21.653 8.605zM14.629 19.51c-.276.044-.563-.091-.856-.405-.41-.438-.479-1.401-.455-2.135.055.053.115.104.177.152.421.324.923.466 1.411.399.577-.073.79.64.846.877C15.586 18.734 15.145 19.424 14.629 19.51zM7.344 45.245 7.302 45.56c-.031.22-.059.42-.06.594-.233-.132-.457-.341-.507-.668-.078-.509.222-1.08.451-1.431C7.293 44.35 7.402 44.787 7.344 45.245zM16.057 70.194c-.07-.153-.151-.313-.237-.482-.297-.582-.634-1.241-.663-2.012-.015-.381.063-.77.18-1.128C16.762 67.652 16.388 69.325 16.057 70.194zM58.347 71.394c-.608.502-1.219.659-1.81.812-.305.079-.6.155-.876.274.269-.893 1.022-2.551 2.839-2.855-.225.386-.587.937-.961 1.216-.111.082-.134.239-.051.35.049.065.124.101.2.101.052 0 .104-.017.149-.05.428-.319.818-.899 1.067-1.32C58.979 70.323 58.944 70.901 58.347 71.394zM65.371 60.49c.275-.049.562.09.856.405.41.438.479 1.401.455 2.136-.056-.054-.115-.105-.178-.153-.353-.271-.762-.415-1.173-.415-.079 0-.158.005-.237.016-.576.073-.79-.639-.845-.877C64.414 61.266 64.854 60.576 65.371 60.49zM61.257 12.648c3.539 1.811 4.642 7.735 4.964 10.369-3.2-4.923-7.744-8.891-13.111-11.382.042-.105.074-.165.076-.168.002-.003 0-.007.001-.01C55.906 10.547 58.494 11.235 61.257 12.648zM7.982 48.192c.002-1.873.435-2.877 1.1-3.605.356 2.414.995 4.736 1.872 6.939C9.973 51.337 7.979 50.651 7.982 48.192zM18.743 67.351c-3.539-1.811-4.642-7.735-4.963-10.369 3.209 4.937 7.77 8.914 13.158 11.403-.018.054-.032.096-.046.132C24.143 69.47 21.533 68.78 18.743 67.351zM70.507 40c0 12.021-6.991 22.437-17.119 27.405-.85-.1-3.137-.632-4.167-3.474-.045-.123-.078-.236-.115-.353 2.258-.972 2.437-3.28 1.964-4.659-.336-.981.331-2.848.338-2.866.04-.11-.002-.234-.103-.297-.101-.062-.23-.045-.312.038-.338.352-.826.732-1.343 1.137-1.359 1.062-3.052 2.384-3.221 4.145-.072.751.097 1.366.504 1.829.56.637 1.39.775 1.691.806.041.129.077.255.126.39.897 2.473 2.718 3.345 3.887 3.655-3.854 1.761-8.13 2.751-12.637 2.751-4.033 0-7.881-.794-11.408-2.221 1.403-.776 2.868-1.981 4.406-3.755.433.214 1.544.671 2.691.366.811-.217 1.468-.768 1.954-1.638 1.647-2.951-1.9-6.71-2.053-6.868-.065-.067-.164-.094-.254-.065-.09.027-.157.104-.172.197-.003.02-.334 1.942-1.569 3.056-1.996 1.8-1.222 3.992-.951 4.598-1.626 1.882-3.154 3.125-4.631 3.873-.15-.065-.297-.135-.447-.202.05-.428.033-.948-.19-1.484.418-.43 1.554-1.843.375-3.518-1.319-1.875-2.912-2.638-2.979-2.67-.086-.039-.189-.028-.264.032-.074.061-.107.158-.086.252.005.018.423 1.828.079 2.945-.209.679-.026 1.506.48 2.156.484.624 1.182.981 1.936.996.154.375.187.747.168 1.071C17.849 63.293 11.134 54.467 9.761 43.98c.235-.182.48-.359.741-.54.155-.107.313-.218.473-.332.255-.184.547-.38.857-.587.526-.353 1.109-.75 1.66-1.185.287-.047 1.912-.314 3.198-.538.068.192.201.455.48.651.227.158.5.238.814.238.15 0 .31-.019.479-.055 1.501-.323 2.068-3.226 2.128-3.555.019-.104-.029-.207-.12-.261-.09-.053-.204-.044-.286.022-.234.192-1.005.732-1.448.71-.44-.007-1.282.189-1.773.747-.255.291-.374.636-.365 1.01-.797.139-1.724.294-2.382.403.823-.785 1.429-1.682 1.356-2.702.595-.459 3.15-2.6 2.786-5.271-.4-2.937-3.624-4.614-3.761-4.685-.083-.043-.181-.034-.257.018-.076.054-.116.145-.104.236.002.018.205 1.766-.971 3.278-.432.555-1.394 2.022-1.01 3.669.274 1.176 1.165 2.137 2.647 2.856.055.026.118.031.176.017.038 1.594-2.012 2.967-3.525 3.979-.315.211-.613.41-.872.597-.157.113-.312.222-.466.328-.18.125-.356.248-.528.374C9.562 42.285 9.493 41.151 9.493 40c0-11.887 6.838-22.2 16.783-27.232.65.004 3.383.213 4.504 3.302.044.123.078.236.115.353-2.258.971-2.437 3.279-1.965 4.66.337.981-.331 2.847-.338 2.865-.04.11.003.234.103.297.041.025.086.038.132.038.066 0 .131-.026.18-.076.338-.352.826-.733 1.343-1.137 1.36-1.062 3.052-2.384 3.222-4.145.072-.751-.098-1.366-.504-1.828-.56-.637-1.389-.775-1.691-.806-.041-.13-.078-.255-.127-.391-.93-2.563-2.926-3.319-4.14-3.54 3.918-1.835 8.285-2.866 12.89-2.866 4.038 0 7.891.795 11.42 2.226-1.407.776-2.875 1.971-4.417 3.751-.433-.215-1.546-.673-2.691-.366-.811.216-1.468.767-1.954 1.637-1.647 2.951 1.901 6.71 2.053 6.868.065.068.164.095.254.065.09-.027.158-.104.173-.197.003-.02.334-1.941 1.569-3.056 1.997-1.8 1.223-3.991.952-4.597 1.626-1.883 3.155-3.125 4.633-3.873.157.067.31.141.466.211-.062.417-.057.931.169 1.475-.418.43-1.554 1.843-.375 3.518 1.32 1.875 2.912 2.638 2.979 2.67.034.016.07.023.106.023.056 0 .112-.019.157-.056.074-.061.108-.158.086-.252-.004-.018-.423-1.826-.078-2.945.209-.679.025-1.506-.479-2.156-.484-.624-1.182-.981-1.936-.996-.156-.38-.183-.75-.154-1.065 9.226 4.337 15.934 13.16 17.307 23.642-.235.182-.479.359-.74.54-.155.107-.312.218-.473.332-.254.184-.546.379-.856.586-.526.353-1.109.751-1.66 1.186-.286.047-1.912.314-3.199.539-.068-.192-.201-.455-.48-.651-.335-.234-.771-.299-1.293-.183-1.502.322-2.068 3.225-2.128 3.554-.019.104.029.207.119.261.039.022.083.034.127.034.057 0 .112-.02.158-.057.351-.287 1.06-.76 1.448-.71.44.013 1.281-.187 1.772-.746.256-.291.375-.637.366-1.01.797-.139 1.724-.294 2.383-.404-.824.786-1.429 1.683-1.356 2.703-.596.459-3.15 2.599-2.786 5.271.4 2.936 3.624 4.615 3.761 4.686.036.019.075.027.114.027.05 0 .101-.016.143-.045.076-.054.116-.144.105-.235-.002-.018-.2-1.774.971-3.28.432-.555 1.394-2.022 1.01-3.669-.274-1.176-1.165-2.137-2.647-2.856-.055-.027-.117-.032-.175-.017-.038-1.594 2.013-2.967 3.526-3.98.315-.211.611-.409.87-.596.158-.113.313-.222.466-.328.18-.125.356-.248.528-.373C70.437 37.715 70.507 38.849 70.507 40zM50.596 59.081c.283.825.499 3.08-1.628 4.029-.119-.457-.186-.866-.209-1.23.088-.122.384-.489 1.013-.802.124-.062.174-.212.112-.335-.061-.123-.211-.172-.335-.112-.346.172-.588.358-.783.53.118-1.313.802-1.83.845-1.86.114-.079.143-.234.063-.349-.078-.112-.234-.141-.348-.063-.073.051-1.64 1.191-.854 4.293-.315-.061-.82-.215-1.166-.61-.311-.354-.438-.842-.38-1.449.148-1.546 1.681-2.742 3.031-3.798.253-.197.498-.389.726-.576C50.514 57.44 50.364 58.403 50.596 59.081zM35.052 62.92c.309-.086 1-.388 1.556-1.449.064-.122.017-.273-.105-.338-.122-.065-.273-.016-.337.105-.263.502-.548.791-.789.965.035-.093.063-.2.095-.301.004-.006.003-.014.006-.02.198-.645.338-1.432.356-2.442.003-.139-.107-.252-.245-.255-.142-.015-.252.107-.255.245-.009.524-.052.981-.117 1.391-.092-.224-.201-.441-.323-.583-.09-.104-.247-.116-.353-.026-.104.09-.116.248-.026.353.209.243.41.904.487 1.203-.092.295-.198.55-.313.771-.016.017-.021.036-.032.057-.542.999-1.261 1.273-1.576 1.345-.247-.545-.901-2.414.847-3.991.973-.876 1.429-2.155 1.616-2.852.817.983 2.856 3.777 1.662 5.917-.417.747-.97 1.217-1.643 1.397-.708.189-1.422.026-1.905-.146C34.08 64.071 34.617 63.682 35.052 62.92zM27.16 63.452c-.03-.136-.164-.219-.298-.19-.135.03-.22.163-.19.298.08.361.048.623-.007.824-.194-.467-.424-.973-.706-1.475-.067-.121-.219-.166-.34-.096-.121.067-.164.22-.096.34.629 1.123 1.04 2.328 1.214 2.892-.53-.062-1.014-.34-1.364-.79-.4-.516-.557-1.185-.396-1.703.262-.85.143-1.994.035-2.662.548.351 1.5 1.067 2.329 2.243.841 1.196.25 2.214-.147 2.692-.063-.203-.161-.485-.274-.793C27.081 64.804 27.344 64.284 27.16 63.452zM19.09 39.392c-.111-.08-.267-.057-.349.054-.017.022-.42.549-1.428.732-.062.011-.128.023-.194.035.013-.214.07-.415.221-.588.359-.408 1.021-.591 1.367-.577.399.029.883-.209 1.247-.435-.261.966-.802 2.357-1.597 2.529-.38.081-.682.047-.897-.103-.137-.094-.22-.222-.271-.332.073-.013.145-.026.212-.038 1.22-.222 1.722-.902 1.743-.931C19.225 39.629 19.201 39.474 19.09 39.392zM15.823 35.186c.063-.176.104-.368.131-.568.249-.192.884-.815.763-2.165-.013-.138-.136-.245-.271-.227-.138.013-.239.134-.227.271.057.631-.081 1.057-.24 1.333-.046-1.146-.413-2.292-.435-2.359-.035-.105-.133-.172-.237-.172-.026 0-.053.004-.079.013-.131.043-.203.185-.159.315.007.022.713 2.189.283 3.388-.035.097-.072.23-.109.376-.165-.304-.405-.632-.763-.869-.116-.077-.27-.045-.346.069-.077.115-.045.271.07.347.584.388.8 1.128.847 1.315-.093.466-.177.941-.229 1.249-1.16-.628-1.859-1.423-2.079-2.366-.335-1.437.53-2.751.917-3.249.925-1.188 1.082-2.489 1.092-3.171.846.53 2.825 1.979 3.112 4.085.314 2.307-1.931 4.275-2.546 4.767C15.425 36.942 15.656 35.652 15.823 35.186zM29.404 20.92c-.283-.826-.499-3.081 1.628-4.029.119.456.186.866.209 1.229-.087.122-.384.489-1.013.802-.124.062-.174.212-.112.335.044.088.132.139.224.139.038 0 .076-.009.111-.026.346-.172.588-.358.784-.531-.118 1.313-.802 1.831-.845 1.862-.113.079-.142.234-.063.349.049.069.127.107.206.107.049 0 .099-.015.142-.044.073-.051 1.639-1.192.854-4.293.315.061.82.215 1.166.61.31.354.438.841.379 1.447-.149 1.547-1.68 2.743-3.032 3.799-.252.197-.498.389-.725.576C29.486 22.559 29.636 21.598 29.404 20.92zM44.948 17.079c-.309.086-1 .388-1.557 1.449-.064.122-.017.273.105.338.037.02.077.028.116.028.09 0 .177-.049.222-.134.263-.502.548-.791.789-.965-.035.093-.063.2-.095.302-.004.006-.003.013-.006.02-.198.645-.339 1.433-.356 2.443-.002.139.107.252.246.255.001 0 .003 0 .004 0 .136 0 .248-.109.25-.245.009-.524.053-.981.118-1.391.092.224.201.441.323.583.05.058.12.087.189.087.058 0 .116-.02.164-.061.104-.09.116-.248.026-.353-.209-.242-.409-.905-.486-1.203.092-.295.198-.55.313-.771.016-.016.02-.036.031-.056.542-.999 1.262-1.273 1.577-1.345.247.545.901 2.413-.848 3.99-.973.877-1.428 2.156-1.615 2.852-.817-.983-2.857-3.777-1.662-5.917.417-.747.97-1.217 1.644-1.397.225-.061.451-.085.67-.085.469 0 .906.113 1.235.231C45.92 15.929 45.384 16.318 44.948 17.079zM52.841 16.548c.026.117.129.196.244.196.018 0 .036-.002.054-.006.135-.03.22-.163.19-.298-.08-.361-.049-.624.006-.824.194.467.424.973.706 1.476.067.121.219.165.341.096.12-.067.163-.22.096-.34-.63-1.124-1.04-2.328-1.214-2.892.529.062 1.015.34 1.363.79.401.516.557 1.185.397 1.703-.262.85-.143 1.994-.035 2.662-.548-.351-1.5-1.067-2.329-2.243-.842-1.196-.251-2.214.147-2.692.063.203.161.485.274.792C52.919 15.195 52.656 15.715 52.841 16.548zM60.91 40.607c.045.032.096.048.147.048.077 0 .152-.035.202-.102.017-.022.419-.549 1.428-.732.062-.011.128-.023.193-.035-.013.214-.07.416-.222.589-.36.408-1.023.61-1.367.576-.401-.015-.883.209-1.247.435.26-.965.801-2.356 1.598-2.528.134-.028.258-.043.373-.043.209 0 .385.048.525.145.137.094.219.222.271.332-.072.013-.145.026-.213.038-1.219.222-1.722.902-1.743.931C60.774 40.371 60.8 40.526 60.91 40.607zM64.177 44.813c-.063.176-.104.368-.131.568-.249.192-.884.816-.763 2.164.012.13.121.228.249.228.008 0 .015 0 .022-.001.138-.013.239-.134.227-.271-.057-.63.081-1.056.24-1.333.046 1.146.413 2.292.435 2.359.043.132.185.204.316.159.131-.043.202-.185.159-.315-.007-.022-.713-2.19-.283-3.389.035-.097.072-.23.109-.376.165.304.405.632.763.869.042.028.091.042.138.042.081 0 .161-.039.209-.111.076-.115.045-.271-.07-.347-.584-.388-.801-1.128-.848-1.315.093-.466.177-.942.229-1.25 1.16.628 1.858 1.423 2.078 2.366.335 1.437-.529 2.751-.917 3.249-.925 1.189-1.082 2.489-1.092 3.172-.846-.53-2.825-1.98-3.111-4.086-.315-2.307 1.93-4.273 2.545-4.766C64.575 43.059 64.345 44.348 64.177 44.813zM70.918 35.413c-.357-2.414-.995-4.736-1.872-6.939.981.189 2.976.874 2.972 3.333C72.015 33.68 71.583 34.685 70.918 35.413zM72.813 35.945c-.106-.295-.216-.732-.157-1.188l.042-.314c.031-.222.059-.422.06-.597.233.132.457.341.506.668C73.343 35.022 73.043 35.595 72.813 35.945z"/>
</svg>