<svg xmlns="http://www.w3.org/2000/svg" viewBox="0 0 80 80">
<path d="M64.883 12.356c-2.387 0-4.329 1.942-4.329 4.329 0 .387.313.7.7.7.387 0 .7-.313.7-.7 0-1.615 1.313-2.929 2.929-2.929 1.543 0 3.208 1.013 3.208 2.649 0 1.827-1.321 3.312-3.365 3.785-4.979 1.146-8.356-.538-12.267-2.493-1.543-.771-3.14-1.568-4.919-2.228-7.86-2.91-15.738-4.74-25.544 4.353-.077.067-.135.123-.206.187-.441-.803-.667-1.854-.888-2.975-.33-1.672-.672-3.401-1.855-4.585-2.39-2.388-5.304-2.685-7.253-.736-1.949 1.948-1.653 4.863.736 7.254 1.183 1.183 2.912 1.524 4.584 1.855 1.117.221 2.163.445 2.965.883-.107.115-.214.231-.334.368-9.094 9.806-7.263 17.685-4.352 25.544.659 1.779 1.456 3.375 2.228 4.919 1.954 3.91 3.641 7.288 2.492 12.267-.472 2.044-1.957 3.365-3.784 3.365-1.637 0-2.65-1.665-2.65-3.208 0-1.615 1.314-2.929 2.929-2.929.386 0 .7-.313.7-.7 0-.387-.313-.7-.7-.7-2.387 0-4.329 1.942-4.329 4.329 0 2.266 1.515 4.608 4.05 4.608 2.465 0 4.534-1.789 5.148-4.451 1.262-5.469-.616-9.228-2.604-13.207-.754-1.51-1.534-3.071-2.167-4.779-2.148-5.802-3.613-11.297-.554-17.596-.141 1.516.093 3.133.953 4.766 1.702 3.234 4.729 3.833 6.839 2.748 1.742-.894 2.442-2.67 1.665-4.224-.896-1.793-2.808-1.548-3.694-1.169-.354.152-.517.561-.367.915.149.354.56.524.915.373.227-.094 1.384-.513 1.893.507.499.996-.168 1.899-1.051 2.353-1.451.743-3.623.388-4.961-2.155-2.252-4.279.627-8.546 2.352-10.542.361-.391.742-.787 1.141-1.186.42-.421.837-.821 1.249-1.199 2.017-1.731 6.237-4.535 10.486-2.301 2.542 1.338 2.899 3.51 2.155 4.961-.453.882-1.356 1.552-2.354 1.052-1.018-.509-.6-1.667-.507-1.891.152-.355-.012-.767-.368-.919-.356-.152-.767.013-.919.368-.38.886-.624 2.797 1.167 3.693.426.213.869.315 1.306.315 1.157 0 2.271-.716 2.92-1.98 1.083-2.109.485-5.136-2.749-6.838-1.634-.859-3.25-1.096-4.766-.953 6.299-3.061 11.794-1.595 17.596.553 1.708.633 3.27 1.413 4.78 2.168 3.979 1.988 7.739 3.87 13.208 2.604 2.662-.614 4.451-2.684 4.451-5.148C69.491 13.871 67.148 12.356 64.883 12.356zM13.519 17.977c-1.386-1.387-2.411-3.6-.736-5.273.618-.618 1.31-.868 2.006-.868 1.19 0 2.393.73 3.268 1.604.882.883 1.168 2.332 1.472 3.866.199 1.008.403 2.04.8 2.942-.902-.396-1.936-.601-2.943-.799C15.85 19.146 14.401 18.86 13.519 17.977zM15.453 12.791c-.744-.07-1.45.159-1.937.646-.487.487-.723 1.193-.646 1.937.072.7.407 1.381.942 1.916l0 0c.629.629 1.436.952 2.197.952.622 0 1.214-.216 1.656-.656.98-.98.847-2.709-.296-3.853C16.833 13.198 16.153 12.864 15.453 12.791zM16.675 16.596c-.428.429-1.285.292-1.873-.296l0 0c-.304-.304-.5-.693-.54-1.069-.02-.189-.014-.546.244-.803.257-.258.613-.264.802-.244.376.039.766.236 1.07.54C16.966 15.311 17.101 16.169 16.675 16.596z"/>
</svg>