<svg xmlns="http://www.w3.org/2000/svg" viewBox="0 0 80 80">
<path d="M61.26 12.665c-3.35 0-6.075 2.726-6.075 6.075 0 .387.313.7.7.7.386 0 .7-.313.7-.7 0-2.578 2.097-4.675 4.675-4.675 2.578 0 4.676 2.097 4.676 4.675 0 2.578-2.098 4.675-4.678 4.675L43.922 23.48l-14.146-.065c-2.578 0-4.675-2.097-4.675-4.675 0-2.578 2.097-4.675 4.675-4.675 2.578 0 4.675 2.097 4.675 4.675 0 .387.313.7.7.7.386 0 .7-.313.7-.7 0-3.35-2.725-6.075-6.075-6.075C26.426 12.665 23.7 15.391 23.7 18.74c0 3.349 2.726 6.075 6.072 6.075l8.026.037c-2.183 1.43-3.629 3.892-3.629 6.688l-.021 2.607-2.602.021c-2.799 0-5.264 1.448-6.693 3.624l-.037-8.017c0-3.351-2.726-6.076-6.076-6.076-3.35 0-6.075 2.726-6.075 6.076 0 3.35 2.726 6.075 6.075 6.075.387 0 .7-.313.7-.7 0-.387-.313-.7-.7-.7-2.578 0-4.675-2.097-4.675-4.675C14.065 27.197 16.162 25.1 18.74 25.1c2.578 0 4.676 2.098 4.676 4.679l.064 14.138L23.416 61.26c0 2.578-2.098 4.676-4.676 4.676-2.578 0-4.675-2.098-4.675-4.676 0-2.578 2.097-4.675 4.675-4.675.387 0 .7-.313.7-.7 0-.387-.313-.7-.7-.7-3.35 0-6.075 2.726-6.075 6.075 0 3.351 2.726 6.076 6.075 6.076 3.35 0 6.076-2.726 6.076-6.073l.064-17.33.065-1.764c0-3.64 2.961-6.601 6.606-6.601l2.75-.021c.682-.005 1.241-.563 1.246-1.245l.021-2.756c0-3.64 2.961-6.601 6.626-6.602l1.724-.063h.003l17.338-.065c3.35 0 6.076-2.726 6.076-6.075C67.335 15.392 64.61 12.665 61.26 12.665z"/>
</svg>