<svg xmlns="http://www.w3.org/2000/svg" viewBox="0 0 80 80">
<path d="M67.298 14.582c-.73 0-1.391.302-1.866.785-.216-.887-.584-1.72-1.111-2.429-1.309-1.761-3.422-2.76-6.281-2.97-5.698-.418-10.914 3.017-14.722 5.526-.698.459-1.351.89-1.952 1.26-3.425 2.107-9.785 5.444-13.894 4.069-1.941-.646-3.368-1.968-3.916-3.625-.491-1.485-.228-3.115.721-4.472.996-1.423 2.495-1.568 3.476-1.257.848.267 1.753 1.021 1.753 2.334 0 2.486-2.492 2.685-2.773 2.699-.386.017-.686.343-.669.729.017.386.343.705.729.669 1.423-.061 4.114-.996 4.114-4.098 0-1.706-1.073-3.146-2.732-3.67-1.545-.486-3.704-.123-5.043 1.79-1.205 1.723-1.535 3.805-.903 5.714.688 2.081 2.438 3.726 4.802 4.514.796.266 1.654.382 2.549.382 4.331 0 9.51-2.734 12.521-4.588.612-.376 1.277-.814 1.988-1.282 3.64-2.398 8.625-5.681 13.849-5.299 2.435.179 4.205.989 5.26 2.408 1.402 1.886 1.048 4.116.906 4.756-.238 1.071-1.366 2.555-2.863 2.555-1.356 0-2.896-.545-3.151-2.075-.18-1.077.326-1.827 1.691-2.51.346-.173.486-.593.313-.938-.173-.347-.593-.488-.939-.313-.711.354-2.873 1.436-2.447 3.992.329 1.971 2.108 3.245 4.533 3.245 2.039 0 3.708-1.767 4.173-3.469.477.496 1.145.809 1.886.809 1.445 0 2.621-1.176 2.621-2.621C69.921 15.757 68.743 14.582 67.298 14.582zM67.298 18.424c-.673 0-1.221-.548-1.221-1.221 0-.673.547-1.221 1.221-1.221.674 0 1.221.548 1.221 1.221C68.519 17.876 67.971 18.424 67.298 18.424zM18.095 42.248c2.236-3.633 5.755-10.422 4.206-15.07-.788-2.364-2.433-4.114-4.514-4.802-1.909-.633-3.992-.303-5.714.903-1.913 1.339-2.277 3.498-1.79 5.043.523 1.66 1.963 2.732 3.669 2.732 3.102 0 4.037-2.69 4.098-4.113.017-.386-.282-.71-.667-.729-.385.009-.712.281-.732.665-.014.284-.213 2.776-2.699 2.776-1.313 0-2.067-.905-2.334-1.753-.309-.98-.165-2.479 1.257-3.476 1.357-.95 2.987-1.211 4.472-.721 1.656.548 2.978 1.975 3.625 3.916 1.37 4.108-1.962 10.468-4.07 13.893-.37.601-.799 1.253-1.259 1.951-2.509 3.809-5.945 9.023-5.527 14.723.21 2.857 1.209 4.971 2.969 6.28.711.529 1.55.886 2.441 1.102-.49.476-.797 1.14-.797 1.875 0 1.445 1.176 2.622 2.621 2.622 1.445 0 2.621-1.177 2.621-2.622 0-.741-.312-1.408-.808-1.885 1.702-.465 3.468-2.135 3.468-4.173 0-2.425-1.273-4.203-3.245-4.532-2.555-.425-3.637 1.735-3.992 2.445-.173.346-.033.767.312.939.346.174.767.032.939-.312.683-1.365 1.434-1.873 2.51-1.691 1.53.255 2.075 1.795 2.075 3.151 0 1.497-1.484 2.625-2.555 2.863-.639.142-2.871.497-4.756-.906-1.419-1.056-2.229-2.825-2.408-5.26-.384-5.223 2.901-10.209 5.299-13.849C17.28 43.524 17.718 42.859 18.095 42.248zM17.35 68.667c-.673 0-1.221-.548-1.221-1.222 0-.673.548-1.221 1.221-1.221.673 0 1.221.548 1.221 1.221C18.572 68.119 18.024 68.667 17.35 68.667zM18.199 16.464c0-1.037-.844-1.882-1.882-1.882-1.038 0-1.882.845-1.882 1.882 0 1.038.844 1.883 1.882 1.883C17.355 18.347 18.199 17.502 18.199 16.464zM15.834 16.464c0-.266.217-.481.482-.481.265 0 .482.216.482.481 0 .267-.217.482-.482.482C16.051 16.946 15.834 16.73 15.834 16.464zM15.821 21.097c.131.131.31.205.495.205.185 0 .364-.074.495-.205l4.138-4.138c.273-.273.273-.717 0-.99l-4.138-4.138c-.263-.262-.728-.262-.99 0l-4.138 4.138c-.273.273-.273.717 0 .99L15.821 21.097zM16.316 13.316l3.147 3.147-3.147 3.147-3.147-3.147L16.316 13.316z"/>
</svg>