<svg xmlns="http://www.w3.org/2000/svg" viewBox="0 0 80 80">
<path d="M30.898 23.234l-.006-10.35h36.923v-1.4H30.191c-.186 0-.364.074-.495.205-.131.132-.205.31-.205.495l.006 11.05h-4.863v-7.827c0-.383-.307-.694-.689-.7l-8.658-.131c-.19-.003-.372.071-.505.205-.134.134-.208.316-.205.506l.131 8.658c.005.382.317.689.7.689h7.827v4.863l-11.049-.007h0c-.186 0-.364.074-.495.205-.132.131-.206.31-.206.495v37.624h1.4V30.891l10.35.006v9.483h-6.133v-4.467h4.322v-1.4h-5.022c-.386 0-.7.313-.7.7v5.867c0 .387.313.7.7.7h7.534c.387 0 .7-.313.7-.7V30.899l5.567.003h0c.186 0 .364-.074.495-.205.131-.132.205-.31.205-.495l-.003-5.567h10.183c.386 0 .7-.313.7-.7v-7.533c0-.387-.313-.7-.7-.7h-5.868c-.387 0-.7.313-.7.7v5.021h1.4v-4.321h4.467v6.133H30.898zM16.097 23.234l-.11-7.247 7.247.109v7.138H16.097zM29.502 29.502l-4.867-.003v-4.864h4.864L29.502 29.502z"/>
</svg>