<svg xmlns="http://www.w3.org/2000/svg" viewBox="0 0 80 80">
<path d="M39.164 42.004l-27.431-.278c-.164-.368-.53-.627-.958-.627-.456 0-.834.293-.98.698l-1.18-.908c-.117-.09-.268-.124-.413-.092l-5.618 1.245c-.112.023-.112.183 0 .207l5.618 1.245c.145.032.295-.001.413-.092l1.179-.907c.144.409.523.707.981.707.429 0 .794-.259.958-.626 1.789-.018 27.431-.278 27.431-.278C39.359 42.298 39.344 42.002 39.164 42.004zM77.416 42.042l-5.618-1.245c-.144-.032-.295.002-.412.092l-1.18.908c-.146-.405-.525-.698-.98-.698-.43 0-.796.259-.959.628-4.923.059-27.431.327-27.431.327-.125-.002-.116.193 0 .192l27.431.327c.163.369.53.628.959.628.458 0 .838-.298.981-.707l1.179.907c.117.09.268.124.412.092l5.618-1.245C77.528 42.225 77.528 42.065 77.416 42.042zM39.937 36.495c-.427 0-.756.462-.698 1.477.061 1.072.698 3.127.698 3.127 0 0 .638-2.055.699-3.127C40.694 36.957 40.365 36.495 39.937 36.495zM44.225 38.587c-.272-.33-.838-.289-1.584.401-.789.729-1.968 2.529-1.968 2.529 0 0 1.991-.816 2.857-1.451C44.35 39.465 44.497 38.917 44.225 38.587zM35.775 38.587c-.272.33-.125.878.695 1.479.866.635 2.856 1.451 2.856 1.451 0 0-1.179-1.8-1.967-2.529C36.613 38.298 36.047 38.258 35.775 38.587z"/>
</svg>