<svg xmlns="http://www.w3.org/2000/svg" viewBox="0 0 80 80">
<path d="M77.944 40.028c0 0-1.99-1.803-4.771-.296-.525-.003-1.172-.006-1.924-.011 1.058-.568 1.418-1.468 1.418-1.468-1.73-.054-2.542.876-2.884 1.46-.751-.004-1.569-.008-2.442-.013 1.757-.782 2.32-2.251 2.32-2.251-2.621-.083-3.773 1.439-4.197 2.241-.996-.005-2.036-.01-3.115-.016 2.471-.969 3.257-3.004 3.257-3.004-3.497-.11-4.959 1.999-5.454 2.993-7.245-.035-15.438-.068-20.127-.068-4.688 0-12.882.033-20.127.068-.495-.994-1.957-3.103-5.454-2.993 0 0 .786 2.034 3.257 3.004-1.079.005-2.119.01-3.115.016-.424-.803-1.576-2.324-4.197-2.241 0 0 .562 1.469 2.32 2.251-.873.005-1.691.009-2.442.013-.343-.584-1.154-1.514-2.884-1.46 0 0 .36.899 1.418 1.468-.735.004-1.372.008-1.89.01-.78-.475-2.591-1.212-4.853.296 0 0 2.172 1.803 4.802.296.505.003 1.123.006 1.843.01-.98.57-1.32 1.411-1.32 1.411 1.674.053 2.488-.818 2.851-1.403.728.004 1.514.008 2.357.012-1.663.794-2.201 2.195-2.201 2.195 2.562.081 3.718-1.37 4.166-2.185.962.005 1.966.01 3.006.015-2.362.99-3.117 2.948-3.117 2.948 3.428.108 4.904-1.92 5.427-2.937 7.252.035 15.46.068 20.154.068 4.695 0 12.903-.033 20.155-.068.523 1.017 1.999 3.045 5.427 2.937 0 0-.755-1.958-3.117-2.948 1.04-.005 2.044-.01 3.006-.015.447.815 1.604 2.266 4.166 2.185 0 0-.539-1.401-2.201-2.195.843-.004 1.629-.009 2.357-.012.362.586 1.176 1.456 2.85 1.403 0 0-.34-.842-1.32-1.411.686-.004 1.283-.007 1.775-.01C73.949 40.8 75.835 41.536 77.944 40.028z"/>
</svg>