<svg xmlns="http://www.w3.org/2000/svg" viewBox="0 0 80 80">
<path d="M77.12 38.902c-.5 0-.9.351-1.017.814-1.723-.01-5.75-.032-10.64-.057.37-.254.929-.538 1.678-.632 1.631-.204 5.989.182 6.352-1.452.079-.354-.182-.907-.726-.907 1.271 1.452-1.286 1.099-3.267.907-4.254-.412-4.684 1.247-4.641 2.081-3.398-.017-7.161-.035-10.826-.05.464-.338 1.201-.741 2.219-.869 2.067-.258 7.59.23 8.05-1.84.1-.449-.23-1.15-.92-1.15 1.61 1.84-1.63 1.393-4.14 1.15-5.517-.534-5.958 1.676-5.875 2.706-5.165-.021-10.065-.036-13.357-.036-.003 0-.007 0-.011 0-.003 0-.007 0-.01 0-3.292 0-8.192.015-13.357.036.082-1.03-.358-3.24-5.875-2.706-2.51.243-5.75.69-4.14-1.15-.69 0-1.02.701-.92 1.15.46 2.07 5.983 1.582 8.049 1.84 1.018.127 1.755.531 2.219.869-3.665.015-7.427.033-10.826.05.043-.834-.387-2.493-4.641-2.081-1.98.192-4.537.544-3.267-.907-.544 0-.805.553-.726.907.363 1.633 4.721 1.248 6.352 1.452.749.094 1.309.378 1.678.632-4.89.025-8.917.047-10.64.057C3.78 39.253 3.38 38.902 2.88 38.902c-.59 0-1.068.478-1.068 1.068 0 .59.479 1.068 1.068 1.068.458 0 .842-.292.993-.698 1.699.01 5.703.032 10.575.056-.369.238-.897.488-1.589.574-1.63.204-5.989-.181-6.352 1.452-.079.354.181.907.726.907-1.27-1.452 1.286-1.099 3.267-.907 4.159.402 4.662-1.173 4.643-2.023 3.374.017 7.106.034 10.746.049-.468.325-1.181.691-2.141.811-2.066.258-7.589-.23-8.049 1.84-.1.449.23 1.15.92 1.15-1.61-1.84 1.629-1.393 4.14-1.15 5.411.524 5.939-1.595 5.88-2.648 5.163.021 10.062.036 13.352.036.003 0 .007 0 .01 0 .004 0 .007 0 .011 0 3.291 0 8.188-.015 13.352-.036-.059 1.053.47 3.172 5.881 2.648 2.51-.243 5.75-.69 4.14 1.15.69 0 1.02-.701.92-1.15-.46-2.07-5.983-1.582-8.05-1.84-.959-.12-1.672-.486-2.14-.811 3.64-.015 7.373-.032 10.746-.049-.02.85.484 2.425 4.642 2.023 1.981-.192 4.537-.544 3.267.907.544 0 .805-.553.726-.907-.363-1.633-4.721-1.248-6.352-1.452-.692-.086-1.22-.336-1.589-.574 4.871-.024 8.875-.047 10.574-.056.152.406.535.698.994.698.59 0 1.068-.478 1.068-1.068C78.189 39.381 77.71 38.902 77.12 38.902z"/>
</svg>