<svg xmlns="http://www.w3.org/2000/svg" viewBox="0 0 80 80">
<path d="M36.762 36.053c1.419-.129 2.888 1.121 2.888 1.121C39.65 37.174 39.215 35 37.041 35c-2.588 0-3.683 1.73-3.263 4.245l-1.18.008c-.19-.485-.657-.831-1.209-.831-.559 0-1.026.354-1.212.848l-1.698.012c-.171-.385-.554-.655-1.002-.655-.455 0-.844.276-1.012.669L2.35 39.46v.199l24.096.417c.147.433.546.75 1.029.75.471 0 .865-.299 1.022-.714l1.67.029c.175.514.647.89 1.221.89.558 0 1.026-.354 1.212-.848l1.395.024c.001.003.001.006.002.01C35.183 44.211 39.65 45 39.65 45c0 0-3.415-1.842-4.348-4.782C34.344 37.2 35.343 36.181 36.762 36.053zM77.65 39.46l-24.114-.165c-.168-.393-.558-.669-1.012-.669-.448 0-.831.27-1.002.655l-1.699-.012c-.186-.493-.653-.848-1.212-.848-.553 0-1.019.346-1.209.831l-1.181-.008C46.641 36.73 45.547 35 42.959 35c-2.174 0-2.608 2.174-2.608 2.174 0 0 1.469-1.25 2.888-1.121 1.419.129 2.417 1.148 1.46 4.165C43.764 43.158 40.35 45 40.35 45c0 0 4.467-.789 5.652-4.782.001-.004.001-.007.002-.01l1.395-.024c.186.493.653.848 1.212.848.573 0 1.046-.376 1.221-.89l1.67-.029c.157.416.552.714 1.022.714.483 0 .881-.317 1.029-.75l24.096-.417V39.46z"/>
</svg>