<svg xmlns="http://www.w3.org/2000/svg" viewBox="0 0 80 80">
<path d="M77.12 38.902c-.5 0-.9.351-1.017.814-1.652-.009-5.427-.03-10.047-.053.301-.148.672-.281 1.122-.337.374-.047.9-.062 1.509-.079 2.126-.059 4.771-.133 5.099-1.605.064-.29-.025-.64-.227-.893-.197-.245-.478-.38-.792-.38-.118 0-.225.068-.273.176-.049.107-.03.233.047.321.279.319.266.44.267.44-.179.28-1.998.099-2.872.012l-.406-.041 0 0c-2.308-.227-3.839.122-4.553 1.029-.369.467-.433.974-.416 1.349-3.148-.016-6.592-.032-9.974-.046.425-.246.989-.484 1.703-.573.478-.06 1.146-.079 1.92-.101 2.666-.074 5.983-.167 6.385-1.972.076-.345-.03-.763-.272-1.064-.233-.291-.567-.451-.94-.451-.118 0-.225.068-.273.176-.048.107-.03.233.048.321.339.388.378.589.349.647-.212.411-2.492.181-3.718.059L59.272 36.6c-2.895-.279-4.812.148-5.699 1.272-.477.605-.539 1.265-.506 1.731-5.054-.02-9.829-.035-13.057-.035-.003 0-.007 0-.011 0-.003 0-.007 0-.01 0-3.228 0-8.002.015-13.057.035.034-.466-.028-1.125-.505-1.731-.887-1.124-2.804-1.553-5.699-1.272l-.517.052c-1.225.122-3.506.35-3.717-.059-.03-.059.01-.26.349-.647.078-.088.096-.214.047-.321-.048-.107-.155-.176-.273-.176-.373 0-.707.16-.941.451-.242.302-.349.72-.272 1.064.401 1.805 3.719 1.897 6.384 1.972.774.021 1.443.041 1.921.101.714.089 1.278.327 1.703.573-3.382.014-6.827.03-9.974.046.017-.375-.047-.882-.416-1.349-.714-.906-2.246-1.253-4.552-1.029 0 0 0 0 0 0l-.407.041c-.874.087-2.693.272-2.871-.009 0-.001-.016-.122.266-.443.078-.088.096-.214.047-.321-.049-.107-.156-.176-.273-.176-.313 0-.595.135-.792.38-.203.253-.292.603-.227.893.327 1.473 2.973 1.547 5.098 1.605.609.018 1.135.032 1.509.079.447.056.817.188 1.119.337-4.618.023-8.392.044-10.043.053C3.78 39.253 3.38 38.902 2.88 38.902c-.59 0-1.068.478-1.068 1.068 0 .59.479 1.068 1.068 1.068.458 0 .842-.292.993-.698 1.625.009 5.36.03 9.946.053-.279.124-.607.231-.998.28-.374.047-.9.062-1.509.079-2.125.059-4.771.133-5.098 1.605-.064.29.024.641.227.893.197.245.478.38.792.38.118 0 .225-.068.273-.176.048-.107.03-.233-.047-.321-.279-.319-.266-.44-.267-.44.179-.281 1.998-.1 2.872-.012l.407.041c0 0 0 0 0 0 2.307.222 3.838-.123 4.552-1.029.349-.443.426-.923.419-1.291 3.116.016 6.523.031 9.873.046-.413.225-.947.433-1.605.515-.478.06-1.146.079-1.921.101-2.666.074-5.983.167-6.384 1.972-.077.345.03.763.272 1.064.234.291.568.451.941.451.118 0 .225-.068.273-.176.049-.107.03-.233-.047-.321-.339-.388-.378-.589-.349-.647.211-.408 2.487-.182 3.71-.059l.524.052c2.895.281 4.812-.147 5.699-1.272.458-.581.533-1.211.509-1.673 5.053.02 9.827.035 13.054.035.003 0 .007 0 .01 0 .004 0 .007 0 .011 0 3.227 0 8-.015 13.053-.035-.024.462.052 1.092.509 1.673.887 1.124 2.804 1.553 5.699 1.272l.524-.052c1.223-.124 3.499-.351 3.71.059.03.059-.01.26-.349.647-.078.088-.096.214-.048.321.049.107.156.176.273.176.373 0 .707-.16.94-.451.242-.302.349-.72.272-1.064-.401-1.805-3.719-1.897-6.385-1.972-.774-.021-1.443-.041-1.921-.101-.657-.082-1.192-.291-1.605-.515 3.35-.014 6.757-.03 9.874-.046-.007.369.07.849.419 1.291.714.906 2.245 1.254 4.553 1.029l0 0 .406-.041c.875-.088 2.694-.271 2.871.009 0 .001.016.122-.266.443-.078.088-.096.214-.047.321.048.107.155.176.273.176.314 0 .595-.135.792-.38.202-.252.291-.603.227-.893-.327-1.473-2.973-1.547-5.099-1.605-.609-.018-1.135-.032-1.509-.079-.388-.048-.715-.156-.994-.28 4.583-.023 8.318-.044 9.942-.053.152.406.535.698.994.698.59 0 1.068-.478 1.068-1.068C78.189 39.381 77.71 38.902 77.12 38.902zM25.952 41.761c-.519.652-1.836 1.365-5.166 1.041l0 0-.521-.052c-2.284-.229-3.748-.326-4.224.261.512-1.2 3.657-1.289 5.766-1.348.79-.022 1.472-.041 1.978-.104 1.23-.153 2.087-.688 2.559-1.071C26.359 40.84 26.298 41.324 25.952 41.761zM21.806 38.337c-2.109-.059-5.252-.147-5.766-1.347.477.587 1.944.489 4.231.259l.514-.051c3.328-.325 4.646.388 5.166 1.041.347.437.408.921.391 1.273-.472-.383-1.329-.918-2.559-1.071C23.278 38.378 22.596 38.359 21.806 38.337zM11.329 38.647c-1.449-.04-3.524-.099-4.268-.729.562.223 1.604.145 3.062-.003l.405-.04c2.597-.252 3.619.295 4.019.797.224.281.291.589.297.839-.395-.298-1.047-.667-1.949-.78C12.493 38.681 11.953 38.665 11.329 38.647zM14.547 41.328c-.4.502-1.423 1.051-4.019.797l0 0-.405-.04c-1.458-.147-2.5-.226-3.062-.003.743-.632 2.818-.689 4.268-.729.625-.018 1.164-.033 1.566-.083.902-.113 1.554-.482 1.949-.78C14.837 40.739 14.771 41.048 14.547 41.328zM58.194 41.663c2.109.059 5.253.146 5.766 1.348-.262-.324-.825-.439-1.661-.439-.679 0-1.539.076-2.563.179l-.521.052h0c-3.327.326-4.646-.388-5.165-1.041-.347-.437-.408-.921-.391-1.273.472.383 1.329.918 2.558 1.071C56.723 41.622 57.404 41.641 58.194 41.663zM65.453 38.672c.331-.415 1.086-.86 2.806-.86.36 0 .764.02 1.213.063l.405.04c1.458.146 2.5.228 3.062.003-.743.632-2.818.689-4.268.729-.625.018-1.164.033-1.567.083-.901.113-1.554.482-1.949.78C65.162 39.261 65.229 38.952 65.453 38.672zM54.049 38.239c.43-.541 1.408-1.121 3.624-1.121.458 0 .971.024 1.542.08l.515.051c2.288.23 3.755.329 4.231-.259-.513 1.2-3.657 1.288-5.766 1.347-.79.022-1.472.041-1.979.104-1.229.153-2.086.688-2.558 1.071C53.64 39.16 53.702 38.676 54.049 38.239zM68.671 41.352c1.449.04 3.525.098 4.268.729-.563-.224-1.604-.143-3.062.003l-.405.04c-2.597.252-3.619-.295-4.019-.797-.224-.281-.291-.589-.297-.839.395.298 1.047.667 1.949.78C67.507 41.319 68.047 41.335 68.671 41.352z"/>
</svg>