<svg xmlns="http://www.w3.org/2000/svg" viewBox="0 0 80 80">
<path d="M4.691 12.897v54.205h70.619V12.897H4.691zM74.51 66.302H5.491V13.698H74.51V66.302zM73.19 64.982v-.3V15.317v-.3h-.3H7.11h-.3v49.965H73.19zM66.035 58.252l2.774 2.775c-.962-.385-1.99-.606-3.046-.631-.107-.01-10.879-.962-25.764-.962-13.752 0-25.564.893-25.666.901-1.074.024-2.115.246-3.087.635l2.718-2.718H66.035zM14.141 57.652V22.348h51.718v35.305H14.141zM7.553 16.184l2.084 2.084c.712.95 1.169 2.077 1.282 3.266.329 3.464.88 10.47.88 18.466 0 8.247-.419 14.928-.668 18.175-.089 1.16-.491 2.269-1.15 3.214l-.63.631c-.376.273-.737.569-1.071.903l-.726.726V16.184zM9.675 62.685c.124-.124.22-.267.333-.399 1.282-.844 2.779-1.317 4.356-1.353.117-.009 11.907-.9 25.636-.9 14.855 0 25.604.95 25.729.961 1.666.04 3.25.581 4.583 1.535l.155.155c.001 0 .001.001.002.002l1.529 1.529H8.145L9.675 62.685zM71.78 62.98c-.311-.31-.646-.587-.992-.844-1.026-1.08-1.661-2.475-1.775-3.961-.25-3.247-.668-9.926-.668-18.175 0-7.995.551-15.001.88-18.466.14-1.479.793-2.877 1.839-3.937l1.527-1.549V63.79L71.78 62.98zM68.627 21.477c-.33 3.475-.883 10.502-.883 18.522 0 8.27.42 14.966.67 18.222.055.716.24 1.405.501 2.063l-2.457-2.457V22.172l2.675-2.675C68.878 20.129 68.692 20.791 68.627 21.477zM13.541 57.828l-2.234 2.234c.213-.592.373-1.204.422-1.84.25-3.257.67-9.954.67-18.222 0-8.021-.553-15.048-.883-18.522-.057-.605-.217-1.189-.425-1.755l2.449 2.449V57.828zM66.035 21.748h-52.07l-3-3c1.049.463 2.184.722 3.353.748.118.01 11.929.901 25.682.901 14.884 0 25.657-.951 25.744-.96 1.171-.028 2.304-.287 3.35-.748L66.035 21.748zM71.355 16.428c-1.503 1.503-3.501 2.359-5.646 2.411-.106.01-10.854.959-25.71.959-13.729 0-25.519-.891-25.652-.9-1.768-.04-3.442-.641-4.824-1.702-.006-.006-.01-.013-.016-.02l-1.537-1.559h64.195L71.355 16.428z"/>
</svg>