<svg xmlns="http://www.w3.org/2000/svg" viewBox="0 0 80 80">
<path d="M12.6 12.6V67.4h54.8V12.6H12.6zM66.6 66.6H13.4V13.4h53.2V66.6zM60.568 19.433H19.431v41.136h41.137V19.433zM59.969 59.969H20.032V20.032h39.937V59.969zM58.325 21.676H21.675v36.649h36.649V21.676zM57.724 57.725H22.275v-35.45h35.449V57.725zM16.446 17.961c.784 0 1.422-.638 1.422-1.422 0-.784-.638-1.422-1.422-1.422-.784 0-1.422.638-1.422 1.422C15.024 17.323 15.661 17.961 16.446 17.961zM16.446 15.717c.453 0 .822.369.822.822 0 .453-.369.822-.822.822-.453 0-.822-.369-.822-.822C15.624 16.086 15.993 15.717 16.446 15.717zM24.288 17.961c.784 0 1.422-.638 1.422-1.422 0-.784-.638-1.422-1.422-1.422-.784 0-1.422.638-1.422 1.422C22.866 17.323 23.505 17.961 24.288 17.961zM24.288 15.717c.453 0 .822.369.822.822 0 .453-.369.822-.822.822-.453 0-.822-.369-.822-.822C23.466 16.086 23.835 15.717 24.288 15.717zM32.131 17.961c.784 0 1.422-.638 1.422-1.422 0-.784-.638-1.422-1.422-1.422-.784 0-1.422.638-1.422 1.422C30.709 17.323 31.348 17.961 32.131 17.961zM32.131 15.717c.454 0 .822.369.822.822 0 .453-.368.822-.822.822-.453 0-.822-.369-.822-.822C31.309 16.086 31.678 15.717 32.131 15.717zM39.974 17.961c.784 0 1.422-.638 1.422-1.422 0-.784-.638-1.422-1.422-1.422-.784 0-1.422.638-1.422 1.422C38.552 17.323 39.19 17.961 39.974 17.961zM39.974 15.717c.453 0 .822.369.822.822 0 .453-.369.822-.822.822-.454 0-.822-.369-.822-.822C39.152 16.086 39.521 15.717 39.974 15.717zM47.817 17.961c.784 0 1.422-.638 1.422-1.422 0-.784-.638-1.422-1.422-1.422-.784 0-1.422.638-1.422 1.422C46.395 17.323 47.033 17.961 47.817 17.961zM47.817 15.717c.453 0 .822.369.822.822 0 .453-.369.822-.822.822-.453 0-.822-.369-.822-.822C46.995 16.086 47.364 15.717 47.817 15.717zM55.66 17.961c.784 0 1.422-.638 1.422-1.422 0-.784-.638-1.422-1.422-1.422-.784 0-1.422.638-1.422 1.422C54.238 17.323 54.876 17.961 55.66 17.961zM55.66 15.717c.453 0 .822.369.822.822 0 .453-.369.822-.822.822-.453 0-.822-.369-.822-.822C54.838 16.086 55.207 15.717 55.66 15.717zM24.288 62.232c-.784 0-1.422.638-1.422 1.422 0 .783.638 1.421 1.422 1.421.784 0 1.422-.638 1.422-1.421C25.71 62.87 25.073 62.232 24.288 62.232zM24.288 64.475c-.453 0-.822-.368-.822-.821 0-.453.369-.822.822-.822.453 0 .822.369.822.822C25.11 64.107 24.742 64.475 24.288 64.475zM32.131 62.232c-.784 0-1.422.638-1.422 1.422 0 .783.638 1.421 1.422 1.421.784 0 1.422-.638 1.422-1.421C33.554 62.87 32.915 62.232 32.131 62.232zM32.131 64.475c-.453 0-.822-.368-.822-.821 0-.453.369-.822.822-.822.454 0 .822.369.822.822C32.953 64.107 32.585 64.475 32.131 64.475zM39.974 62.232c-.784 0-1.422.638-1.422 1.422 0 .783.638 1.421 1.422 1.421.784 0 1.422-.638 1.422-1.421C41.396 62.87 40.758 62.232 39.974 62.232zM39.974 64.475c-.454 0-.822-.368-.822-.821 0-.453.369-.822.822-.822.453 0 .822.369.822.822C40.796 64.107 40.428 64.475 39.974 64.475zM47.817 62.232c-.784 0-1.422.638-1.422 1.422 0 .783.638 1.421 1.422 1.421.784 0 1.422-.638 1.422-1.421C49.239 62.87 48.601 62.232 47.817 62.232zM47.817 64.475c-.453 0-.822-.368-.822-.821 0-.453.369-.822.822-.822.453 0 .822.369.822.822C48.639 64.107 48.27 64.475 47.817 64.475zM55.66 62.232c-.784 0-1.422.638-1.422 1.422 0 .783.638 1.421 1.422 1.421.784 0 1.422-.638 1.422-1.421C57.082 62.87 56.444 62.232 55.66 62.232zM55.66 64.475c-.453 0-.822-.368-.822-.821 0-.453.369-.822.822-.822.453 0 .822.369.822.822C56.482 64.107 56.113 64.475 55.66 64.475zM16.446 65.075c.784 0 1.422-.638 1.422-1.421 0-.784-.638-1.422-1.422-1.422-.784 0-1.422.638-1.422 1.422C15.024 64.437 15.661 65.075 16.446 65.075zM16.446 62.832c.453 0 .822.369.822.822 0 .453-.369.821-.822.821-.453 0-.822-.368-.822-.821C15.624 63.201 15.993 62.832 16.446 62.832zM16.446 57.224c.784 0 1.422-.638 1.422-1.422 0-.784-.638-1.422-1.422-1.422-.784 0-1.422.638-1.422 1.422C15.024 56.586 15.661 57.224 16.446 57.224zM16.446 54.979c.453 0 .822.369.822.822 0 .453-.369.822-.822.822-.453 0-.822-.369-.822-.822C15.624 55.348 15.993 54.979 16.446 54.979zM16.446 49.371c.784 0 1.422-.638 1.422-1.422 0-.784-.638-1.422-1.422-1.422-.784 0-1.422.638-1.422 1.422C15.024 48.733 15.661 49.371 16.446 49.371zM16.446 47.127c.453 0 .822.369.822.822 0 .453-.369.822-.822.822-.453 0-.822-.369-.822-.822C15.624 47.496 15.993 47.127 16.446 47.127zM16.446 41.518c.784 0 1.422-.638 1.422-1.422 0-.784-.638-1.422-1.422-1.422-.784 0-1.422.638-1.422 1.422C15.024 40.88 15.661 41.518 16.446 41.518zM16.446 39.274c.453 0 .822.369.822.822 0 .453-.369.822-.822.822-.453 0-.822-.369-.822-.822C15.624 39.643 15.993 39.274 16.446 39.274zM16.446 33.666c.784 0 1.422-.638 1.422-1.422 0-.784-.638-1.422-1.422-1.422-.784 0-1.422.638-1.422 1.422C15.024 33.028 15.661 33.666 16.446 33.666zM16.446 31.422c.453 0 .822.369.822.822 0 .453-.369.822-.822.822-.453 0-.822-.369-.822-.822C15.624 31.791 15.993 31.422 16.446 31.422zM16.446 25.813c.784 0 1.422-.638 1.422-1.422 0-.784-.638-1.422-1.422-1.422-.784 0-1.422.638-1.422 1.422C15.024 25.175 15.661 25.813 16.446 25.813zM16.446 23.569c.453 0 .822.369.822.822 0 .453-.369.822-.822.822-.453 0-.822-.369-.822-.822C15.624 23.938 15.993 23.569 16.446 23.569zM63.503 17.961c.784 0 1.422-.638 1.422-1.422 0-.784-.638-1.422-1.422-1.422-.784 0-1.422.638-1.422 1.422C62.081 17.323 62.719 17.961 63.503 17.961zM63.503 15.717c.453 0 .822.369.822.822 0 .453-.369.822-.822.822-.453 0-.822-.369-.822-.822C62.681 16.086 63.05 15.717 63.503 15.717zM63.503 65.075c.784 0 1.422-.638 1.422-1.421 0-.784-.638-1.422-1.422-1.422-.784 0-1.422.638-1.422 1.422C62.081 64.437 62.719 65.075 63.503 65.075zM63.503 62.832c.453 0 .822.369.822.822 0 .453-.369.821-.822.821-.453 0-.822-.368-.822-.821C62.681 63.201 63.05 62.832 63.503 62.832zM63.503 57.224c.784 0 1.422-.638 1.422-1.422 0-.784-.638-1.422-1.422-1.422-.784 0-1.422.638-1.422 1.422C62.081 56.586 62.719 57.224 63.503 57.224zM63.503 54.979c.453 0 .822.369.822.822 0 .453-.369.822-.822.822-.453 0-.822-.369-.822-.822C62.681 55.348 63.05 54.979 63.503 54.979zM63.503 49.371c.784 0 1.422-.638 1.422-1.422 0-.784-.638-1.422-1.422-1.422-.784 0-1.422.638-1.422 1.422C62.081 48.733 62.719 49.371 63.503 49.371zM63.503 47.127c.453 0 .822.369.822.822 0 .453-.369.822-.822.822-.453 0-.822-.369-.822-.822C62.681 47.496 63.05 47.127 63.503 47.127zM63.503 41.518c.784 0 1.422-.638 1.422-1.422 0-.784-.638-1.422-1.422-1.422-.784 0-1.422.638-1.422 1.422C62.081 40.88 62.719 41.518 63.503 41.518zM63.503 39.274c.453 0 .822.369.822.822 0 .453-.369.822-.822.822-.453 0-.822-.369-.822-.822C62.681 39.643 63.05 39.274 63.503 39.274zM63.503 33.666c.784 0 1.422-.638 1.422-1.422 0-.784-.638-1.422-1.422-1.422-.784 0-1.422.638-1.422 1.422C62.081 33.028 62.719 33.666 63.503 33.666zM63.503 31.422c.453 0 .822.369.822.822 0 .453-.369.822-.822.822-.453 0-.822-.369-.822-.822C62.681 31.791 63.05 31.422 63.503 31.422zM63.503 25.813c.784 0 1.422-.638 1.422-1.422 0-.784-.638-1.422-1.422-1.422-.784 0-1.422.638-1.422 1.422C62.081 25.175 62.719 25.813 63.503 25.813zM63.503 23.569c.453 0 .822.369.822.822 0 .453-.369.822-.822.822-.453 0-.822-.369-.822-.822C62.681 23.938 63.05 23.569 63.503 23.569z"/>
</svg>