<svg xmlns="http://www.w3.org/2000/svg" viewBox="0 0 80 80">
<path d="M71.715 37.926l4.819-6.387c.124-.155.145-.361.052-.537-.083-.175-.258-.289-.454-.289H58.847c-.083 0-.155.021-.227.052-.041.021-.093.052-.124.083-.041.031-.083.083-.103.124-.021.031-.041.072-.041.103-.021.052-.031.103-.031.155v3.612H21.679v-3.612c0-.052-.01-.103-.031-.155 0-.031-.021-.072-.041-.103-.021-.041-.062-.093-.103-.124-.031-.031-.072-.062-.123-.083-.073-.031-.145-.052-.227-.052H3.869c-.196 0-.371.114-.454.289-.093.175-.073.382.041.537l4.829 6.387-4.829 6.408c-.114.155-.134.361-.041.537.083.175.258.289.454.289h11.877v3.612c0 .289.227.516.516.516h47.467c.279 0 .516-.227.516-.516v-3.612h11.887c.186 0 .372-.113.454-.289.093-.175.072-.382-.052-.537L71.715 37.926zM15.973 34.923l-.051.041c-.011.01-.021.021-.021.031-.052.041-.093.093-.114.155-.041.083-.062.186-.041.289v8.688H4.911l4.437-5.892c.134-.186.134-.433 0-.619l-4.437-5.871H19.75L15.973 34.923zM63.212 48.255H16.778V35.872h46.435V48.255zM64.244 44.128v-8.771c0-.021 0-.031-.01-.052 0-.062-.021-.113-.041-.165-.021-.062-.062-.103-.103-.144-.01-.021-.01-.021-.021-.031l-.051-.041-3.766-3.178H75.09l-4.437 5.871c-.135.186-.135.433 0 .619l4.437 5.892H64.244z"/>
</svg>