<svg xmlns="http://www.w3.org/2000/svg" viewBox="0 0 80 80">
<path d="M5 20.675l4.492 5.944c.136.188.136.439 0 .627L5 33.21h8.879v-8.796-.084c0-.073.011-.146.042-.209.021-.063.062-.115.115-.157.021-.031.041-.052.073-.073l3.824-3.218H5zM14.924 24.853 60.887 24.853 60.887 37.388 14.924 37.388 14.924 24.853ZM18.841 23.808 18.841 21.281 15.833 23.808ZM70.509 52.755 75 46.79h-8.89v8.879c0 .052-.01.094-.021.136-.01.031-.021.052-.031.084-.031.063-.073.125-.125.178-.021.01-.031.021-.052.042l-3.813 3.217H75l-4.491-5.944C70.372 53.194 70.372 52.943 70.509 52.755zM61.159 56.192 61.159 58.73 64.167 56.192ZM19.102 42.611 65.065 42.611 65.065 55.146 19.102 55.146 19.102 42.611ZM46.514 41.567 57.628 38.433 31.941 38.433 21.975 41.567Z"/>
</svg>