<svg xmlns="http://www.w3.org/2000/svg" viewBox="0 0 80 80">
<path d="M12.168 53.511c-1.418-.372-2.905.473-2.917.484-.191.113-.428.101-.608-.022-.181-.135-.27-.349-.237-.563l.462-2.613c-1.34.27-2.162.529-2.579.676.068.36.292 1.991.935 2.734 1.295 1.486 3.816 2.473 6.43.329C13.238 54.007 12.743 53.669 12.168 53.511zM67.82 26.485c1.419.372 2.917-.473 2.928-.484.191-.101.428-.101.608.034.18.124.271.338.226.552l-.462 2.613c1.352-.27 2.162-.518 2.579-.676-.056-.349-.281-1.991-.923-2.734-1.295-1.486-4.413-2.379-6.419-.317C66.761 25.989 67.257 26.327 67.82 26.485zM72.482 29.986h-.023c-.14.023-.28.047-.432.082-.187.035-.396.07-.607.105-.011.012-.023.012-.035.012-.187.035-.385.07-.595.105-.128.012-.269.035-.409.058-1.062.163-2.311.315-3.78.443-.199.023-.385.035-.596.058-.187.011-.385.023-.583.047-5.379.397-13.28.502-24.668-.315-.047.012-.082.012-.129.012-1.073-.07-26.186-1.704-34.436 2.614L5.102 50.535l-.011.105c.525-.175 1.307-.385 2.392-.607.151-.035.315-.07.49-.105.187-.035.397-.07.607-.105h.035C8.802 49.789 9 49.754 9.21 49.719c.128-.023.257-.047.397-.058 1.062-.163 2.322-.315 3.792-.443.198-.023.396-.047.595-.058.187-.012.385-.035.583-.047 5.38-.408 13.28-.502 24.669.303.035-.012.082-.012.128-.012 1.074.082 26.186 1.704 34.425-2.614l1.097-17.329.012-.105C74.372 29.531 73.59 29.752 72.482 29.986zM69.937 29.424l.36-2.005c-.09.034-.18.056-.281.079-.102.034-.203.056-.304.068-.169.034-.36.067-.563.101-.09.022-.191.034-.292.034-.012 0-.012 0-.022 0-.068.011-.158.011-.237.011-.349 0-.698-.045-1.058-.135-.575-.158-1.104-.439-1.555-.856l-.011.18-.057.687-.169 2.365c1.622-.146 2.973-.327 4.065-.507C69.858 29.435 69.892 29.424 69.937 29.424zM10.063 50.572l-.361 2.004c.146-.045.327-.09.507-.124.09-.023.18-.045.281-.056.09-.034.191-.045.304-.045.056-.023.124-.023.18-.023.057-.011.125-.022.192-.022.079-.011.157-.011.236-.011.338 0 .698.034 1.059.135.574.146 1.104.428 1.554.845l.011-.169.057-.698.169-2.365c-1.622.146-2.973.327-4.065.507C10.141 50.561 10.108 50.561 10.063 50.572z"/>
</svg>