<svg xmlns="http://www.w3.org/2000/svg" viewBox="0 0 80 80">
<path d="M5.192 8.588l4.194 6.656c.115.188.104.428-.021.595L5.15 21.284l9.076 1.012v-8.993c-.011-.063-.011-.115.01-.177.011-.031.021-.062.032-.083.021-.073.062-.136.135-.188.052-.052.104-.083.157-.104l6.426-2.41L5.192 8.588zM70.635 64.162l4.215-5.446-8.889-.981v9.076c0 .031 0 .052-.021.083 0 .031 0 .052-.01.073-.032.083-.073.167-.156.229-.021.021-.032.031-.053.042-.031.031-.062.052-.104.062h-.01l-6.531 2.368 15.732 1.742-4.194-6.656C70.489 64.569 70.5 64.339 70.635 64.162zM15.27 13.814 15.27 25.457 28.811 26.876 28.863 26.876 64.981 30.631 64.981 18.999 23.73 14.701 23.209 14.638 23.146 14.638 22.687 14.586ZM23.73 14.117c0 .021 0 .042-.01.063h.01V14.117zM64.981 36.787 49.739 35.201 39.171 34.095 33.255 33.48 22.938 32.405 20.789 32.186 15.27 31.612 15.27 43.255 28.008 44.58 28.018 44.58 64.981 48.429ZM14.32 30.736c.032-.042.063-.073.094-.094-.01 0-.01 0-.021.01C14.362 30.673 14.341 30.704 14.32 30.736zM14.32 48.461c.021-.021.042-.042.063-.052-.021 0-.042.021-.052.031C14.32 48.45 14.32 48.45 14.32 48.461zM56.269 65.914c0-.021 0-.042.011-.063h-.011V65.914zM64.918 66.227 64.918 54.585 51.388 53.176 51.335 53.176 15.197 49.41 15.197 61.053 56.269 65.33 56.791 65.382 56.791 65.393 56.854 65.393 57.313 65.445ZM22.687 13.543 22.687 10.82 17.002 12.948ZM57.313 66.488 57.313 69.19 63.124 67.093ZM62.226 31.403 28.842 27.919 28.832 27.919 17.69 30.819 49.686 34.147ZM17.45 48.596 51.346 52.123 62.561 49.233 28.008 45.634Z"/>
</svg>