<svg xmlns="http://www.w3.org/2000/svg" viewBox="0 0 80 80">
<path d="M5.282 17.459l4.204 6.655c.115.188.104.428-.031.595L5.25 30.153l9.065 1.012v-9.054c0-.063.01-.115.031-.167.011-.031.021-.052.042-.083 0-.021.011-.042.031-.052.021-.042.042-.062.073-.083.042-.052.104-.083.167-.104l6.425-2.41L5.282 17.459zM70.546 55.291l4.204-5.445-8.637-.96v8.991c0 .146-.062.292-.177.386-.094.083-.219.136-.344.136h-.01c-.021.01-.042.021-.062.031l-6.529 2.368 15.719 1.742-4.193-6.655C70.4 55.698 70.41 55.469 70.546 55.291zM15.358 22.685 15.358 34.326 28.907 35.744 28.959 35.744 65.07 39.499 65.07 27.869 23.817 23.572 23.295 23.509 23.243 23.509 22.774 23.457ZM65.07 57.294 65.07 45.653 49.831 44.068 23.963 41.377 15.358 40.48 15.358 52.121 56.183 56.366 56.704 56.428 57.226 56.48ZM22.774 22.414 22.774 19.691 17.099 21.819ZM57.226 57.617 57.226 60.319 63.026 58.222ZM28.928 36.787 17.778 39.687 49.779 43.015 62.317 40.271 28.938 36.787Z"/>
</svg>