<svg xmlns="http://www.w3.org/2000/svg" viewBox="0 0 80 80">
<path d="M73.667 26.04c-1.679-1.939-5.016-3.168-8.387-1.296-.09.045-.169.124-.214.214-.023.022-.034.056-.045.101-.023.045-.034.09-.034.135l-.057.857v.045l-.293 3.946c-5.152.406-12.829.519-23.956-.271h-.124c-3.19-.203-26.311-1.556-34.034 2.83-.169.101-.282.271-.293.462L5.092 51.066v.045c-.011.259.023 1.432 1.24 2.852 1.094 1.251 2.886 2.221 4.949 2.221 1.093 0 2.266-.282 3.438-.924.068-.045.124-.09.169-.158.023-.023.045-.056.057-.09.034-.068.056-.135.068-.214l.056-.845.293-4.002c5.163-.406 12.829-.519 23.956.271.034 0 .079.011.124 0 3.19.214 26.311 1.556 34.034-2.83.169-.09.27-.271.293-.451l1.138-18.015v-.045C74.919 28.622 74.885 27.449 73.667 26.04zM65.945 27.573l.057-.688.011-.18c.451.417.981.699 1.556.857.361.09.71.135 1.06.135.079 0 .169 0 .237-.011.011 0 .011 0 .023 0 .101 0 .203-.011.293-.034.203-.034.395-.068.564-.101.101-.011.203-.034.304-.068.101-.023.192-.045.282-.079l-.361 2.007c-.045 0-.079.011-.124.023-1.093.18-2.446.361-4.069.507L65.945 27.573zM14.055 52.419l-.057.699-.011.169c-.451-.417-.981-.699-1.556-.845-.361-.101-.722-.135-1.06-.135-.079 0-.158 0-.237.011-.068 0-.135.011-.192.023-.056 0-.124 0-.18.023-.102.011-.203.022-.304.045-.101.011-.192.034-.282.056-.181.034-.361.079-.508.124l.361-2.007c.045-.011.079-.011.124-.023 1.093-.18 2.446-.361 4.069-.507L14.055 52.419zM73.713 29.816l-1.06 16.741c-7.959 4.171-32.219 2.604-33.256 2.525-.045 0-.09 0-.124.011-11.003-.778-18.635-.688-23.832-.293-.192.011-.383.034-.564.045-.192.011-.383.034-.575.056-1.421.124-2.638.271-3.664.428-.135.011-.26.034-.384.056-.203.034-.395.068-.575.101H9.647c-.203.034-.406.068-.586.101-.169.034-.327.068-.473.102-1.048.214-1.804.417-2.311.586l.011-.102 1.049-16.741c7.97-4.171 32.23-2.593 33.267-2.525.045 0 .079 0 .124-.011 11.002.789 18.634.688 23.831.304.192-.023.384-.034.564-.045.203-.023.384-.034.575-.056 1.42-.124 2.627-.271 3.652-.428.135-.023.271-.045.395-.056.203-.034.395-.068.575-.101.011 0 .023 0 .034-.011.203-.034.406-.068.586-.102.146-.034.282-.056.417-.079.011-.011.011-.011.023 0 1.071-.225 1.826-.44 2.345-.609L73.713 29.816z"/>
</svg>