<svg xmlns="http://www.w3.org/2000/svg" viewBox="0 0 80 80">
<path d="M70.235 52.51l4.67-6.21c.12-.15.14-.35.05-.52-.08-.17-.26-.28-.44-.28h-9.52V42c0-.28-.23-.5-.5-.5h-14.58l10.67-3.01.04-.01c.09-.02.16-.07.22-.13.02-.02.04-.04.06-.07.06-.09.09-.18.09-.28V25c0-.28-.23-.5-.5-.5h-39.75V21c0-.05-.01-.1-.03-.15 0-.03-.02-.07-.04-.1-.02-.04-.06-.09-.1-.12-.03-.03-.07-.06-.12-.08-.07-.03-.14-.05-.22-.05H5.485c-.19 0-.36.11-.44.28-.09.17-.07.37.04.52l4.68 6.19-4.68 6.21c-.11.15-.13.35-.04.52.08.17.25.28.44.28h9.51V38c0 .28.22.5.5.5h13.45l-9.55 3.01-.05.01c-.08.03-.15.07-.2.13-.03.02-.05.04-.07.07-.02.03-.03.05-.04.08-.01.03-.02.07-.03.1-.01.03-.01.07-.01.1v13c0 .28.22.5.5.5h39.76V59c0 .05.01.11.03.15 0 .04.02.07.04.1.02.05.06.09.1.12.03.03.08.06.12.08.07.04.14.05.21.05h14.76c.19 0 .36-.11.44-.28.09-.17.07-.37-.05-.52L70.235 52.51zM15.215 24.58c-.03.02-.05.04-.07.07-.05.04-.09.09-.11.15-.03.06-.04.13-.04.2v8.5h-8.5l4.3-5.71c.13-.18.13-.42 0-.6l-4.3-5.69h12.38L15.215 24.58zM15.995 37.5v-12h44v12H15.995zM19.995 54.5v-12h44v12H19.995zM61.125 58.5l3.65-3.08c.02-.02.03-.03.05-.04.05-.05.09-.11.12-.17.01-.03.02-.05.03-.08.01-.04.02-.08.02-.13v-8.5h8.51l-4.3 5.71c-.13.18-.13.42 0 .6l4.3 5.69H61.125z"/>
</svg>