<svg xmlns="http://www.w3.org/2000/svg" viewBox="0 0 80 80">
<path d="M40 74.17c-.186 0-.357-.104-.443-.269l-3.778-7.251-5.833 5.728c-.133.131-.328.178-.505.119-.177-.058-.308-.209-.339-.393l-1.352-8.062-7.318 3.645c-.167.084-.365.068-.517-.043-.151-.109-.228-.294-.201-.478l1.206-8.087-8.086 1.205c-.185.028-.369-.05-.478-.2-.11-.15-.126-.35-.043-.517l3.645-7.317-8.062-1.353c-.184-.031-.335-.161-.393-.339-.058-.177-.012-.372.119-.505l5.728-5.832-7.251-3.778C5.934 40.357 5.83 40.186 5.83 40c0-.186.104-.357.269-.443l7.25-3.778-5.728-5.832c-.131-.133-.177-.328-.119-.505.058-.178.209-.308.393-.339l8.063-1.353-3.645-7.318c-.083-.167-.067-.366.043-.517.109-.151.293-.23.478-.2l8.086 1.206-1.206-8.087c-.027-.184.05-.368.201-.478.151-.109.35-.126.517-.043l7.318 3.645 1.352-8.062c.031-.184.161-.335.339-.393.178-.058.372-.012.505.119l5.833 5.728 3.778-7.251c.172-.33.715-.33.887 0l3.777 7.251 5.833-5.728c.133-.132.327-.178.505-.119.177.058.308.209.339.393l1.352 8.062 7.318-3.645c.167-.083.366-.066.517.043.151.109.228.294.201.479l-1.206 8.086 8.086-1.205c.185-.031.369.049.478.2.11.15.126.35.043.517l-3.646 7.317 8.063 1.353c.184.031.335.161.393.339.058.177.012.372-.119.505l-5.728 5.832 7.251 3.778c.165.086.269.257.269.443 0 .186-.104.357-.269.443l-7.251 3.778 5.728 5.832c.131.133.177.328.119.505-.058.178-.209.308-.393.339l-8.062 1.353 3.646 7.318c.083.167.067.366-.043.517-.11.151-.293.228-.478.2l-8.086-1.206 1.206 8.087c.027.184-.05.368-.201.478-.151.111-.35.127-.517.043l-7.318-3.645-1.352 8.062c-.031.184-.161.335-.339.393-.177.06-.372.013-.505-.119l-5.833-5.728-3.778 7.251C40.358 74.066 40.186 74.17 40 74.17zM35.91 65.32c.026 0 .052.002.078.006.156.025.292.123.365.263L40 72.588l3.646-6.999c.073-.14.209-.237.365-.263.156-.022.315.026.428.138l5.63 5.528 1.305-7.782c.026-.156.125-.291.266-.362.141-.071.309-.072.45-.002l7.063 3.519-1.164-7.806c-.023-.156.029-.314.141-.427.112-.111.271-.164.427-.141l7.805 1.164-3.519-7.064c-.071-.142-.07-.309.002-.449.072-.142.207-.24.363-.267l7.782-1.305-5.529-5.63c-.111-.113-.162-.272-.137-.429.025-.156.122-.292.263-.365L72.588 40l-6.999-3.646c-.141-.073-.238-.209-.263-.365-.025-.156.026-.315.137-.429l5.529-5.63-7.782-1.305c-.156-.026-.291-.125-.363-.267-.072-.141-.073-.308-.002-.449l3.519-7.063-7.805 1.163c-.158.021-.315-.028-.427-.141-.112-.112-.164-.271-.141-.428l1.164-7.805-7.064 3.519c-.142.071-.309.069-.45-.002-.141-.071-.24-.206-.266-.362L50.07 9.008l-5.63 5.528c-.113.111-.273.159-.428.138-.156-.025-.292-.123-.365-.263L40 7.412l-3.646 6.999c-.073.14-.209.237-.365.263-.156.024-.315-.026-.428-.138l-5.63-5.528-1.305 7.782c-.026.156-.125.291-.266.362-.141.072-.308.073-.45.002l-7.063-3.519 1.164 7.806c.023.156-.029.314-.141.427-.112.112-.269.169-.427.141l-7.804-1.164 3.518 7.064c.071.142.07.309-.002.449-.072.142-.207.24-.363.267L9.007 29.93l5.529 5.63c.111.113.162.272.137.429-.025.156-.122.292-.263.365L7.412 40l6.999 3.646c.141.073.238.209.263.365.025.156-.026.315-.137.429l-5.529 5.63 7.782 1.305c.156.026.291.125.363.267.072.141.073.308.002.449l-3.518 7.063 7.804-1.163c.157-.026.315.028.427.141.112.113.164.271.141.427l-1.164 7.806 7.063-3.519c.141-.07.309-.07.45.002.141.071.24.206.266.362l1.305 7.782 5.63-5.528C35.654 65.371 35.78 65.32 35.91 65.32z"/>
</svg>