<svg xmlns="http://www.w3.org/2000/svg" viewBox="0 0 80 80">
<path d="M14.353 72.229c-.101 0-.202-.03-.289-.092-.191-.135-.263-.385-.173-.602l7.775-18.592-10.09 1.483c-.183.022-.366-.049-.476-.199-.11-.148-.128-.347-.048-.513l4.825-10.014L4.297 35.468c-.157-.111-.236-.304-.203-.494.033-.189.173-.344.359-.395l11.743-3.25-2.85-10.601c-.044-.166-.001-.343.116-.47.117-.126.29-.186.459-.151l11.617 2.165 5.769-7.235c.167-.211.47-.251.687-.092l7.775 5.707 8.282-7.966c.106-.102.252-.155.397-.137.146.015.278.093.361.214l6.348 9.223 9.595-1.077c.145-.016.291.032.397.132.107.101.165.242.158.389l-.489 10.562 11.972 5.363c.166.074.278.232.294.413.016.181-.068.355-.218.457L65.868 45.66l2.056 10.477c.033.17-.024.346-.151.463-.127.118-.306.161-.473.116l-9.915-2.736L55.435 64.75c-.032.179-.158.325-.33.384-.17.061-.361.021-.496-.101l-9.612-8.635-6.934 6.531c-.097.091-.224.134-.359.136-.133-.005-.259-.062-.349-.158l-5.75-6.149L14.689 72.1C14.595 72.185 14.474 72.229 14.353 72.229zM22.469 51.821c.153 0 .299.07.395.193.11.143.136.333.066.5L15.681 69.85l15.616-14.164c.202-.184.514-.17.701.028l5.743 6.143 6.904-6.503c.189-.177.483-.181.677-.008l9.288 8.344 1.889-10.428c.025-.139.107-.26.226-.334.119-.075.264-.096.399-.06l9.663 2.667-1.964-10.008c-.039-.197.044-.398.211-.511l10.529-7.118L64.1 32.765c-.188-.084-.305-.273-.295-.479l.478-10.316-9.311 1.045c-.183.018-.363-.062-.468-.214l-6.184-8.984-8.161 7.85c-.176.17-.447.186-.643.043l-7.727-5.672-5.657 7.095c-.115.145-.299.215-.482.18l-11.131-2.075 2.773 10.313c.071.266-.085.538-.35.611L5.734 35.262l11.069 7.87c.198.141.266.404.161.624l-4.599 9.545 10.033-1.475C22.421 51.823 22.445 51.821 22.469 51.821z"/>
</svg>