<svg xmlns="http://www.w3.org/2000/svg" viewBox="0 0 80 80">
<path d="M52.102 5.533c.009-.106-.138-.139-.175-.039-1.086 2.937-5.738 14.881-9.797 15.558-4.068.678-7.541-5.197-8.324-6.633-.045-.082-.167-.052-.168.042-.024 1.869-.248 10.534-2.312 11.222-2.088.696-11.085-6.144-12.827-7.49-.076-.058-.176.023-.136.109.889 1.929 5.202 11.554 3.702 13.554C20.068 34.52 6.581 30.864 2.917 29.81c-.106-.03-.165.116-.067.167 3.438 1.792 16.128 8.68 16.128 12.683 0 2.592-6.532 4.641-8.624 5.23-.102.029-.079.176.026.177 2.355.03 10.19.227 10.467 1.538.414 1.964-2.909 5.058-3.907 5.935-.071.062-.014.176.079.155 1.329-.3 5.994-1.235 7.335.084 1.38 1.358-8.006 13.462-10.287 16.358-.067.085.043.194.128.127 2.54-2 12.144-9.331 14.815-7.996 2.71 1.355 3.041 9.253 3.081 11.161.002.097.132.124.171.035.777-1.743 4.164-8.88 7.552-8.88 3.376 0 6.161 5.316 6.805 6.646.04.082.163.064.172-.027.172-1.644 1.088-8.934 3.827-8.934 2.7 0 11.892 6.493 14.156 8.122.085.061.188-.045.124-.129-1.646-2.154-8.007-10.705-7.334-13.395.686-2.746 9.922-3.049 11.954-3.083.097-.002.124-.129.037-.171-1.611-.763-8.133-3.978-8.133-6.007 0-2.082 10.606-4.787 12.746-5.312.093-.023.093-.153 0-.175-1.904-.442-10.43-2.575-10.43-5.318 0-2.684 8.168-7.694 10.3-8.956.089-.053.032-.188-.069-.166-2.551.559-12.837 2.657-14.862.633-1.983-1.983 1.129-7.362 2.063-8.866.052-.084-.046-.181-.127-.124-1.378.957-6.14 4.014-8.11 2.044C50.906 21.338 51.84 8.644 52.102 5.533z"/>
</svg>