<svg xmlns="http://www.w3.org/2000/svg" viewBox="0 0 80 80">
<path d="M33.272 74.846c-.032 0-.065-.003-.098-.01-.234-.047-.402-.252-.402-.49 0-2.666-.499-9.832-2.767-10.966-2.004-1.006-10.069 4.565-14.679 8.31-.198.161-.486.147-.667-.033-.181-.18-.198-.468-.038-.667 5.47-6.837 11.095-14.938 10.644-16.102-.958-.932-4.859-.401-7.088.159-.225.061-.462-.049-.568-.259-.106-.208-.053-.462.127-.61 1.69-1.4 4.258-4.158 3.955-5.599-.452-.659-5.79-1.125-10.484-1.125-.252 0-.465-.188-.496-.438-.031-.251.13-.485.375-.547 3.384-.847 8.752-2.909 8.752-4.841 0-3.491-11.884-10.197-16.463-12.487-.232-.116-.337-.392-.241-.633.096-.241.361-.37.61-.293 6.636 2.021 17.728 4.475 19.237 2.461 1.067-1.423-1.799-8.84-3.856-13.182-.099-.209-.041-.46.14-.604.182-.146.439-.146.621-.003 4.336 3.407 11.071 8.012 12.468 7.527 1.198-.399 1.94-5.988 1.941-10.938 0-.231.159-.434.385-.486.224-.053.458.056.562.263.036.072 3.694 7.265 7.84 6.579 3.504-.585 8.047-11.496 9.502-15.65.083-.239.33-.377.579-.323.247.054.415.284.391.536-.58 6.087-.925 16.318.616 17.859 1.621 1.621 6.119-1.132 7.716-2.329.195-.146.467-.13.644.037.177.167.208.438.073.641-1.206 1.811-3.978 6.866-2.345 8.499 1.52 1.519 9.854.265 14.75-.884.242-.062.489.072.58.304.091.23-.002.494-.218.617-4.021 2.294-10.4 6.682-10.4 8.687 0 1.921 6.292 3.986 10.257 4.837.229.05.393.25.395.484.002.233-.158.438-.385.491-6.061 1.427-12.549 3.711-12.549 4.839 0 1.352 4.723 4.107 8.076 5.632.214.098.332.331.282.561-.05.23-.253.395-.489.395-4.262.001-11.204.725-11.689 2.665-.511 2.044 4.339 9.222 7.517 13.266.155.196.14.477-.034.656-.174.18-.453.202-.655.056-3.138-2.301-11.799-8.272-14.161-8.272-1.88 0-3.026 5.318-3.306 8.672-.019.228-.19.413-.415.451-.227.042-.448-.082-.54-.29-.029-.065-2.956-6.551-6.391-6.551-2.845 0-6.124 6.369-7.147 8.823C33.655 74.727 33.471 74.846 33.272 74.846zM29.472 62.261c.531 0 .811.14.981.225 2.404 1.202 3.068 6.615 3.251 9.73 1.393-2.798 4.181-7.501 7.177-7.501 2.938 0 5.363 3.549 6.541 5.647.395-2.788 1.48-7.93 4.112-7.93 2.28 0 8.486 4.066 12.116 6.589-2.493-3.44-6.331-9.228-5.753-11.536.646-2.584 6.991-3.223 10.572-3.376-2.637-1.343-6.783-3.754-6.783-5.634 0-2.083 7.163-4.241 11.321-5.317-3.326-.873-9.039-2.749-9.039-5.334 0-2.343 5.116-5.959 8.372-8.024-4.071.778-11.015 1.784-12.791.008-1.763-1.763-.18-5.527 1.079-7.852-2.109 1.253-5.43 2.739-7.166 1.004-1.761-1.761-1.498-10.224-1.178-15.18-1.884 4.647-5.539 12.453-9.038 13.037-3.534.593-6.538-3.25-7.983-5.528-.109 3.317-.585 9.404-2.593 10.074-1.982.664-8.521-3.986-11.802-6.46 1.579 3.576 4.327 10.487 2.914 12.372-1.73 2.307-10.423.529-15.918-.877 5.085 2.852 12.974 7.824 12.974 11.229 0 2.18-3.639 3.887-6.436 4.877 4.115.14 8.002.609 8.268 1.867.358 1.7-1.529 3.939-2.928 5.327 2.011-.348 5.079-.644 6.248.507.779.767-.108 3.92-8.111 14.265.991-.731 2.137-1.549 3.324-2.34C26.038 62.906 28.332 62.261 29.472 62.261z"/>
</svg>