<svg xmlns="http://www.w3.org/2000/svg" viewBox="0 0 80 80">
<path d="M16.047 53.912c-2.2047 0-3.992 1.7873-3.992 3.992 0 2.2047 1.7873 3.992 3.992 3.992 2.2047 0 3.992-1.7873 3.992-3.992 0-2.2047-1.7873-3.992-3.992-3.992ZM10.724 61.897c-1.4696 0-2.661 1.1914-2.661 2.661 0 1.4696 1.1914 2.661 2.661 2.661 1.4696 0 2.661-1.1914 2.661-2.661 0-1.4696-1.1914-2.661-2.661-2.661ZM16.41 27.298c.083 0 .162.011.245.012-.16-.786-.245-1.599-.245-2.432 0-6.681 5.416-12.098 12.098-12.098 4.243 0 7.969 2.189 10.129 5.494 2.219-2.618 5.527-4.284 9.227-4.284 6.465 0 11.729 5.074 12.065 11.455 1.155-.367 2.385-.567 3.662-.567 6.681 0 12.098 5.416 12.098 12.098 0 6.681-5.416 12.098-12.098 12.098-.846 0-1.671-.088-2.468-.253-.489 6.233-5.691 11.141-12.049 11.141-3.914 0-7.384-1.867-9.595-4.75-2.189 2.188-5.212 3.541-8.551 3.541-5.133 0-9.508-3.202-11.266-7.713-1.036.289-2.123.455-3.251.455-6.681 0-12.098-5.416-12.098-12.098C4.312 32.714 9.728 27.298 16.41 27.298z"/>
</svg>