<svg xmlns="http://www.w3.org/2000/svg" viewBox="0 0 80 80">
<path d="M65.82 44.09 73.67 40 65.82 35.91 72.021 29.595 63.293 28.132 67.239 20.209 58.486 21.514 59.791 12.761 51.868 16.707 50.404 7.978 44.089 14.179 40 6.33 35.911 14.179 29.596 7.978 28.132 16.707 20.21 12.761 21.514 21.514 12.761 20.209 16.707 28.132 7.978 29.595 14.179 35.91 6.33 40 14.18 44.09 7.979 50.405 16.707 51.868 12.761 59.79 21.514 58.485 20.21 67.239 28.132 63.292 29.596 72.021 35.91 65.82 40 73.67 44.09 65.82 50.404 72.022 51.868 63.293 59.79 67.239 58.486 58.486 67.24 59.791 63.293 51.868 72.021 50.405Z"/>
</svg>