<svg xmlns="http://www.w3.org/2000/svg" viewBox="0 0 80 80">
<path d="M10.707 69.552c-.089 0-.178-.023-.258-.072-.19-.114-.282-.342-.225-.557l3.212-12.045c-6.143-1.08-10.708-6.466-10.708-12.755 0-7.033 5.629-12.775 12.618-12.96-.102-.659-.153-1.329-.153-1.998 0-7.148 5.816-12.965 12.965-12.965 4.172 0 8.045 1.989 10.486 5.353 2.451-2.617 5.862-4.106 9.457-4.106 6.678 0 12.221 5.068 12.883 11.651 1.085-.287 2.199-.433 3.321-.433 7.149 0 12.965 5.816 12.965 12.965 0 7.149-5.816 12.965-12.965 12.965-.699 0-1.403-.058-2.099-.171-.784 6.43-6.328 11.389-12.858 11.389-3.869 0-7.459-1.689-9.936-4.655-2.397 2.203-5.487 3.409-8.762 3.409-3.712 0-7.207-1.571-9.668-4.328l-9.936 9.181C10.952 69.507 10.83 69.552 10.707 69.552zM15.694 32.158c-6.597 0-11.965 5.367-11.965 11.965 0 5.979 4.471 11.073 10.399 11.85.143.019.271.099.351.218.08.12.105.269.068.407l-2.911 10.916 9.05-8.362c.101-.094.236-.143.373-.132.137.01.265.075.352.182 2.283 2.774 5.652 4.365 9.241 4.365 3.194 0 6.197-1.244 8.457-3.502.102-.102.244-.154.386-.146.144.01.276.08.364.194 2.291 2.986 5.75 4.699 9.49 4.699 6.197 0 11.432-4.84 11.916-11.019.011-.144.083-.274.198-.36.115-.088.26-.118.402-.09.806.166 1.627.251 2.441.251 6.597 0 11.965-5.367 11.965-11.965 0-6.598-5.367-11.965-11.965-11.965-1.228 0-2.447.188-3.622.561-.147.046-.308.022-.436-.065-.128-.087-.207-.23-.215-.385-.335-6.353-5.576-11.329-11.932-11.329-3.517 0-6.843 1.545-9.126 4.237-.102.121-.255.188-.412.176-.157-.01-.301-.094-.387-.226-2.223-3.402-5.968-5.434-10.018-5.434-6.597 0-11.965 5.367-11.965 11.965 0 .81.081 1.619.242 2.406.03.148-.009.304-.106.42-.097.117-.241.18-.395.18L15.694 32.158z"/>
</svg>