<svg xmlns="http://www.w3.org/2000/svg" viewBox="0 0 80 80">
<path d="M67.183 22.555l-1.26-1.043-1.524.593c-.853.332-1.375.381-1.61.381-.214 0-.613 0-.69-.819l-.161-2.614H20.672L18.135 19.1l-.216 2.689c-.055.596-.225.696-.708.696-.235 0-.757-.049-1.61-.381l-1.524-.593-1.26 1.043C12.525 22.797 5.663 28.607 5.663 40c0 11.393 6.862 17.203 7.154 17.445l1.26 1.043 1.524-.593c.853-.332 1.375-.381 1.611-.381.214 0 .613 0 .69.819l.161 2.614h.483 40.781l2.531-.048.235-2.517c.081-.869.48-.869.694-.869.235 0 .758.049 1.61.381l1.524.593 1.26-1.043c.292-.242 7.154-6.053 7.154-17.445C74.335 28.607 67.475 22.797 67.183 22.555zM66.527 56.652l-.794.658-.961-.374c-.958-.373-1.608-.451-1.983-.451-.466 0-1.566.176-1.718 1.803l-.149 1.601-1.602.03H19.031l-.103-1.664c-.106-1.124-.731-1.77-1.716-1.77-.376 0-1.025.078-1.984.451l-.961.374-.794-.658C13.196 56.424 6.692 50.914 6.692 40c0-10.914 6.504-16.424 6.782-16.652l.794-.658.961.374c.959.373 1.607.451 1.983.451 1.048 0 1.631-.549 1.732-1.637l.142-1.767 1.596-.03H60.97l.103 1.664c.105 1.124.731 1.77 1.716 1.77.375 0 1.025-.078 1.983-.451l.961-.374.794.658c.277.229 6.782 5.738 6.782 16.652C73.309 50.914 66.804 56.424 66.527 56.652zM65.726 24.314 65.5 24.128l-.273.106c-1.734.674-3.088.715-4.023.119-1.255-.798-1.386-2.531-1.387-2.549l-.032-.468H20.212l-.029.469c-.001.018-.122 1.738-1.381 2.545-.935.6-2.291.56-4.028-.116L14.5 24.128l-.226.187C14.015 24.528 7.948 29.667 7.948 40c0 10.333 6.068 15.472 6.326 15.686l.226.187.274-.106c1.734-.674 3.087-.715 4.023-.119 1.255.798 1.385 2.531 1.387 2.549l.031.468h39.573l.029-.469c.001-.018.122-1.738 1.381-2.545.936-.599 2.291-.56 4.029.116l.273.106.227-.187c.258-.214 6.326-5.353 6.326-15.686C72.053 29.667 65.985 24.528 65.726 24.314zM65.298 54.725c-1.918-.686-3.478-.659-4.639.083-1.226.784-1.639 2.141-1.775 2.855H21.117c-.136-.715-.55-2.071-1.775-2.855-1.161-.743-2.721-.771-4.639-.082C13.644 53.727 8.948 48.801 8.948 40c0-8.778 4.698-13.724 5.755-14.725 1.918.686 3.478.66 4.639-.083 1.226-.784 1.639-2.141 1.775-2.855h37.767c.136.715.55 2.071 1.775 2.855 1.161.743 2.721.771 4.639.082 1.058.998 5.754 5.925 5.754 14.726C71.053 48.778 66.355 53.724 65.298 54.725z"/>
</svg>