<svg xmlns="http://www.w3.org/2000/svg" viewBox="0 0 80 80">
<path d="M66.71 28.009c-.866-2.993-3.603-5.062-6.739-5.062h-4.329c-2.007-2.178-6.612-5.625-15.643-5.625-9.03 0-13.636 3.447-15.643 5.625h-4.329c-3.136 0-5.873 2.069-6.738 5.062C11.148 29.016 5.288 32.469 5.288 40c0 7.529 5.86 10.983 8.001 11.992.866 2.992 3.603 5.062 6.738 5.062h4.329c2.006 2.178 6.61 5.625 15.643 5.625 9.033 0 13.637-3.447 15.643-5.625h4.329c3.136 0 5.873-2.069 6.739-5.062 2.142-1.009 8.001-4.463 8.001-11.992C74.712 32.469 68.852 29.016 66.71 28.009zM66.084 51.18l-.221.099-.059.235c-.676 2.673-3.074 4.54-5.833 4.54h-4.775l-.149.168C53.238 58.26 48.878 61.679 40 61.679c-8.877 0-13.238-3.419-15.047-5.457l-.149-.168h-4.776c-2.758 0-5.157-1.867-5.832-4.54l-.06-.235-.221-.099C12.126 50.377 6.288 47.2 6.288 40c0-7.202 5.838-10.377 7.627-11.179l.221-.099.06-.235c.675-2.674 3.074-4.541 5.832-4.541h4.776l.149-.168c1.81-2.038 6.171-5.457 15.047-5.457 8.876 0 13.237 3.419 15.047 5.457l.149.168h4.775c2.759 0 5.157 1.867 5.833 4.541l.059.235.221.099c1.79.802 7.627 3.977 7.627 11.179C73.712 47.2 67.873 50.377 66.084 51.18zM64.766 29.602c-.184-2.484-2.264-4.449-4.794-4.449h-5.356c-.799-1.128-4.613-5.625-14.615-5.625-10.002 0-13.816 4.497-14.615 5.625h-5.356c-2.53 0-4.61 1.965-4.794 4.449C13.692 30.183 7.495 32.955 7.495 40c0 7.045 6.197 9.817 7.739 10.397.184 2.484 2.264 4.449 4.794 4.449h5.356c.799 1.128 4.613 5.625 14.615 5.625 10.002 0 13.816-4.497 14.615-5.625h5.356c2.53 0 4.61-1.965 4.794-4.449 1.542-.58 7.739-3.353 7.739-10.397C72.503 32.956 66.307 30.183 64.766 29.602zM64.136 49.56l-.356.107v.371c0 2.1-1.708 3.808-3.808 3.808l-5.909.002-.146.243c-.032.054-3.339 5.38-13.917 5.38-10.577 0-13.885-5.326-13.917-5.38l-.146-.245h-5.908c-2.1 0-3.808-1.708-3.808-3.808l0-.371-.355-.107C15.564 49.47 8.495 47.252 8.495 40c0-7.252 7.068-9.47 7.369-9.561l.356-.107v-.371c0-2.1 1.708-3.808 3.808-3.808l5.909-.002.146-.243c.032-.054 3.339-5.38 13.917-5.38 10.578 0 13.885 5.326 13.917 5.38l.146.245h5.908c2.1 0 3.808 1.708 3.808 3.808l.001.371.355.107c.301.091 7.369 2.309 7.369 9.561C71.504 47.252 64.436 49.47 64.136 49.56z"/>
</svg>