<svg xmlns="http://www.w3.org/2000/svg" viewBox="0 0 80 80">
<path d="M63.618 37.374c-.585-.894-.894-1.953-.894-3.024L62.69 22.707c-.011-2.969-2.417-5.386-5.386-5.386l-11.643-.033c-1.082 0-2.13-.309-3.024-.905-.838-.552-1.832-1.391-2.638-2.594-.794 1.203-1.787 2.042-2.626 2.594-.894.596-1.942.905-3.023.905l-11.643.033c-2.969 0-5.375 2.417-5.386 5.386L17.288 34.35c0 1.07-.31 2.13-.905 3.024-.552.839-1.38 1.821-2.594 2.626 1.214.806 2.042 1.799 2.594 2.627.596.905.905 1.953.905 3.024l.033 11.643c.011 2.98 2.417 5.385 5.386 5.396l11.643.022c1.082 0 2.129.309 3.023.905.839.552 1.833 1.391 2.626 2.593.806-1.203 1.799-2.042 2.638-2.593.894-.596 1.943-.905 3.024-.905l11.643-.022c2.969-.011 5.375-2.417 5.386-5.396l.033-11.643c0-1.07.309-2.119.894-3.024.552-.828 1.39-1.821 2.593-2.627C65.008 39.194 64.169 38.212 63.618 37.374zM62.208 40.002c-.317.384-.594.758-.839 1.134-.885 1.327-1.353 2.888-1.353 4.514l-.033 11.645c0 1.473-1.208 2.68-2.69 2.689l-11.642.021c-1.608 0-3.169.468-4.515 1.354-.398.265-.777.548-1.132.845-.344-.291-.722-.574-1.13-.847-1.343-.884-2.908-1.352-4.522-1.352l-11.629-.021c-1.485-.01-2.693-1.217-2.693-2.69L19.995 45.65c0-1.608-.467-3.168-1.351-4.511-.247-.378-.524-.753-.842-1.138.299-.359.581-.741.839-1.138.885-1.333 1.353-2.895 1.353-4.514l.033-11.633c0-1.483 1.207-2.689 2.691-2.689l11.641-.033c1.609 0 3.169-.468 4.515-1.354.407-.271.785-.554 1.127-.844.354.295.733.578 1.135.846 1.344.884 2.908 1.352 4.522 1.352l11.633.033c1.483 0 2.689 1.206 2.689 2.69l.033 11.631c0 1.639.468 3.2 1.35 4.512C61.627 39.261 61.91 39.642 62.208 40.002z"/>
</svg>