<svg xmlns="http://www.w3.org/2000/svg" viewBox="0 0 80 80">
<path d="M66.856 22.944l-1.026-.85-1.247.486c-.883.342-1.468.419-1.799.419-.718 0-1.126-.453-1.203-1.302l-.133-2.13H20.681L18.606 19.6l-.176 2.229c-.078.894-.497 1.17-1.214 1.17-.342 0-.916-.077-1.799-.419l-1.247-.486-1.026.85c-.287.243-6.964 5.893-6.964 17.051 0 11.157 6.677 16.819 6.964 17.051l1.026.85 1.247-.486c.883-.342 1.457-.408 1.799-.408.717 0 1.114.441 1.203 1.302l.133 2.13h40.767l2.075-.044.188-2.053c.077-.894.485-1.335 1.203-1.335.331 0 .916.066 1.799.408l1.247.486 1.026-.85c.287-.232 6.964-5.893 6.964-17.051C73.82 28.837 67.143 23.187 66.856 22.944zM58.872 22.344c.139.721.554 2.07 1.776 2.854 1.164.748 2.727.778 4.649.092 1.066 1.013 5.735 5.946 5.735 14.704C71.032 48.752 66.363 53.687 65.297 54.7c-1.922-.685-3.485-.655-4.649.092-1.221.783-1.637 2.134-1.775 2.854H21.127c-.14-.721-.558-2.072-1.783-2.855-1.164-.746-2.724-.774-4.641-.09-1.068-1.012-5.746-5.947-5.746-14.706 0-8.758 4.678-13.692 5.746-14.704 1.917.685 3.477.654 4.641-.09 1.225-.783 1.644-2.136 1.783-2.856H58.872z"/>
</svg>