<svg xmlns="http://www.w3.org/2000/svg" viewBox="0 0 80 80">
<path d="M65.883 27.646v-3.184l-2.262-.376c-4.809-.802-6.279-5.595-6.337-5.792l-.558-1.971H25.318l-2.023.015-.573 1.938c-.06.204-1.521 5.006-6.342 5.81l-2.263.376v3.184C12.251 28.677 7.495 32.086 7.495 40c0 7.917 4.756 11.323 6.622 12.354v3.184l2.262.376c4.816.803 6.279 5.595 6.338 5.794l.558 1.969h.378 31.029l2.023-.015.573-1.938c.06-.204 1.521-5.006 6.342-5.81l2.262-.376v-3.184c1.866-1.03 6.622-4.437 6.622-12.354C72.505 32.086 67.749 28.677 65.883 27.646zM65.156 51.607l-.273.139v2.943l-1.427.237c-5.432.905-7.07 6.286-7.137 6.514l-.362 1.227-31.926.009-.354-1.247c-.067-.228-1.707-5.598-7.134-6.502l-1.427-.237v-2.943l-.273-.139C13.355 50.849 8.495 47.77 8.495 40c0-7.769 4.859-10.849 6.349-11.607l.273-.139V25.31l1.427-.237c5.433-.905 7.07-6.286 7.137-6.514l.363-1.227 31.926-.009.354 1.248c.067.229 1.715 5.598 7.134 6.501l1.426.237v2.943l.273.139c1.489.759 6.349 3.839 6.349 11.607C71.505 47.77 66.645 50.849 65.156 51.607zM63.676 29.082v-2.749l-.418-.069c-6.22-1.036-8.08-7.306-8.098-7.369l-.104-.363H24.944l-.103.363c-.018.063-1.862 6.33-8.099 7.369l-.418.069v2.749C14.874 29.628 9.702 32.128 9.702 40c0 7.872 5.171 10.372 6.622 10.918v2.749l.418.069c6.22 1.036 8.081 7.306 8.099 7.369l.104.363h29.734l.377-.001.104-.362c.018-.063 1.878-6.333 8.098-7.369l.418-.069v-2.749c1.45-.546 6.622-3.046 6.622-10.918C70.298 32.128 65.126 29.628 63.676 29.082zM63.048 50.076l-.373.1v2.652c-5.628 1.161-7.843 6.231-8.356 7.641H25.68c-.513-1.409-2.728-6.479-8.356-7.641v-2.654l-.374-.098c-.062-.017-6.248-1.729-6.248-10.076 0-8.314 5.994-10.008 6.25-10.076l.372-.1v-2.652c5.628-1.161 7.843-6.231 8.356-7.641h28.64c.513 1.409 2.728 6.479 8.356 7.641l.001 2.653.372.099c.255.068 6.249 1.762 6.249 10.076C69.298 48.314 63.303 50.008 63.048 50.076z"/>
</svg>