<svg xmlns="http://www.w3.org/2000/svg" viewBox="0 0 80 80">
<path d="M69.075 29.71 46.167 15.524c-3.804-2.357-8.53-2.355-12.333 0L10.896 29.729c-3.339 2.41-5.254 6.153-5.254 10.271 0 4.117 1.915 7.86 5.283 10.29l22.908 14.186c1.902 1.178 4.034 1.767 6.167 1.767 2.133 0 4.265-.589 6.167-1.767l22.937-14.205c3.339-2.41 5.253-6.153 5.253-10.271C74.357 35.883 72.443 32.14 69.075 29.71zM68.548 49.441 45.64 63.627c-3.479 2.152-7.802 2.153-11.281 0L11.481 49.461c-3.075-2.22-4.839-5.668-4.839-9.46 0-3.793 1.764-7.241 4.81-9.441L34.36 16.374c1.74-1.077 3.69-1.616 5.64-1.616 1.951 0 3.901.539 5.641 1.616L68.518 30.54c3.075 2.22 4.839 5.668 4.839 9.461C73.357 43.793 71.594 47.241 68.548 49.441zM67.843 31.543 45.005 17.401c-3.009-1.864-6.999-1.866-10.01 0l-22.87 14.163C9.408 33.556 7.85 36.63 7.85 40c0 3.37 1.558 6.444 4.307 8.457L34.995 62.6c1.505.933 3.235 1.425 5.004 1.425 1.77 0 3.5-.492 5.005-1.425l22.87-14.164C70.592 46.444 72.15 43.37 72.15 40 72.15 36.63 70.592 33.556 67.843 31.543zM67.316 47.607 44.479 61.75c-2.694 1.669-6.264 1.669-8.957 0L12.716 47.629C10.259 45.828 8.85 43.048 8.85 40c0-3.048 1.409-5.828 3.834-7.607l22.837-14.142c1.347-.834 2.896-1.274 4.479-1.274 1.583 0 3.132.44 4.479 1.274l22.805 14.12c2.458 1.801 3.867 4.581 3.867 7.629C71.151 43.048 69.741 45.828 67.316 47.607z"/>
</svg>