<svg xmlns="http://www.w3.org/2000/svg" viewBox="0 0 80 80">
<path d="M65.383 27.949v-3.057l-1.843-.309c-5.109-.85-6.676-5.948-6.732-6.147l-.452-1.611H25.322l-1.644.011-.475 1.589c-.056.21-1.623 5.308-6.732 6.158l-1.854.309v3.057C11.715 29.428 7.995 33.091 7.995 40c0 6.909 3.719 10.573 6.622 12.052v3.068l1.854.298c5.109.861 6.676 5.948 6.732 6.158l.452 1.6h31.023l1.655-.011.474-1.578c.056-.221 1.623-5.308 6.732-6.169l1.843-.298v-3.068c2.903-1.479 6.622-5.143 6.622-12.052C72.005 33.091 68.286 29.428 65.383 27.949zM69.297 40c0 8.315-5.994 10.01-6.249 10.078l-.373.1v2.65c-5.628 1.161-7.843 6.231-8.356 7.641H25.681c-.513-1.409-2.729-6.479-8.357-7.641l-.001-2.651-.371-.099c-.255-.068-6.25-1.763-6.25-10.078 0-8.315 5.995-10.01 6.25-10.078l.372-.1v-2.65c5.628-1.161 7.844-6.231 8.357-7.641H54.32c.513 1.409 2.728 6.479 8.356 7.641l.001 2.651.371.099C63.303 29.99 69.297 31.684 69.297 40z"/>
</svg>