<svg xmlns="http://www.w3.org/2000/svg" viewBox="0 0 80 80">
<path d="M71.69 29.25v-3.517c0-2.606-2.12-4.727-4.726-4.727H13.036c-2.606 0-4.727 2.12-4.727 4.727v3.517C5.277 31.809 3.473 35.808 3.473 40c0 4.192 1.804 8.19 4.836 10.75v3.517c0 2.606 2.12 4.727 4.727 4.727h53.928c2.606 0 4.726-2.12 4.726-4.727V50.75c3.033-2.56 4.837-6.558 4.837-10.75C76.527 35.808 74.723 31.809 71.69 29.25zM70.832 50.093l-.195.158v4.016c0 2.024-1.647 3.672-3.672 3.672H13.036c-2.025 0-3.672-1.647-3.672-3.672v-4.016l-.195-.158C6.262 47.739 4.527 43.967 4.527 40c0-3.967 1.735-7.739 4.641-10.093l.195-.158v-4.016c0-2.024 1.647-3.672 3.672-3.672h53.928c2.025 0 3.672 1.647 3.672 3.672v4.016l.195.158c2.906 2.354 4.641 6.126 4.641 10.093C75.471 43.967 73.738 47.739 70.832 50.093zM69.522 30.318v-4.585c0-1.411-1.148-2.559-2.559-2.559H13.036c-1.411 0-2.558 1.147-2.558 2.559v4.585C7.488 32.386 5.64 36.067 5.64 40c0 3.932 1.847 7.614 4.837 9.683v4.584c0 1.411 1.147 2.559 2.558 2.559h53.928c1.411 0 2.559-1.147 2.559-2.559v-4.584c2.99-2.068 4.837-5.751 4.837-9.683C74.359 36.067 72.513 32.386 69.522 30.318zM68.749 48.997l-.227.148v5.121c0 .859-.699 1.559-1.559 1.559H13.036c-.859 0-1.558-.699-1.558-1.559v-5.121l-.227-.148C8.407 47.143 6.64 43.696 6.64 40c0-3.696 1.767-7.144 4.61-8.996l.227-.147v-5.123c0-.859.699-1.559 1.558-1.559h53.928c.859 0 1.559.699 1.559 1.559v5.123l.227.147c2.843 1.853 4.61 5.3 4.61 8.996C73.359 43.696 71.593 47.143 68.749 48.997z"/>
</svg>