<svg xmlns="http://www.w3.org/2000/svg" viewBox="0 0 80 80">
<path d="M66.972 27.882v-7.295H56.588c-4.724-3.785-10.782-5.871-17.172-5.871-6.379 0-12.438 2.086-17.172 5.871H11.858v8.52c-3.024 3.41-4.69 6.533-4.69 10.893 0 4.36 1.667 7.482 4.69 10.904v8.509h10.385c4.735 3.796 10.793 5.871 17.172 5.871 6.39 0 12.448-2.075 17.172-5.871h10.384v-7.295c3.797-3.598 5.86-7.151 5.86-12.118C72.832 35.034 70.769 31.48 66.972 27.882zM55.402 56.67c-4.305 3.696-9.982 5.731-15.987 5.731-6.009 0-11.682-2.035-15.976-5.73l-.149-.129h-8.549V49.76l-.152-.154C11.787 46.739 10.05 44.134 10.05 40c0-4.134 1.737-6.739 4.539-9.605l.152-.154v-6.782h8.549l.149-.129c4.294-3.695 9.967-5.73 15.976-5.73 6.004 0 11.682 2.035 15.987 5.731l.149.128h8.55v5.718l.187.159c4.03 3.438 5.674 6.528 5.674 10.665 0 4.133-1.644 7.226-5.674 10.677l-.186.159v5.706h-8.55L55.402 56.67z"/>
</svg>