<svg xmlns="http://www.w3.org/2000/svg" xmlns:xlink="http://www.w3.org/1999/xlink" width="16.797" height="18.726" viewBox="0 0 16.797 18.726">
  <defs>
    <clipPath id="clip-path">
      <rect id="Rectangle_59" data-name="Rectangle 59" width="3.144" height="1.572" rx="0.355" transform="translate(3241.847 27.938) rotate(-44.028)" fill="none"/>
    </clipPath>
  </defs>
  <g id="Group_35" data-name="Group 35" transform="translate(-3241.47 -23.334)">
    <path id="Subtraction_4" data-name="Subtraction 4" d="M2516.705-1512.577a7.877,7.877,0,0,1-5.311-2.052,7.878,7.878,0,0,1-2.546-5.04,7.924,7.924,0,0,1-.042-.806,7.924,7.924,0,0,1,.042-.806,7.894,7.894,0,0,1,2.166-4.664,7.936,7.936,0,0,1,4.566-2.338l.03-.01,0,0,.034-.012v-.186h-1.307a.356.356,0,0,1-.266-.119,1.009,1.009,0,0,1-.129-.674,1.017,1.017,0,0,1,1.015-1.016h3.191a1.018,1.018,0,0,1,1.017,1.016,1.115,1.115,0,0,1-.118.682.308.308,0,0,1-.227.11c-.123.007-.3.01-.552.01-.315,0-.636-.006-.757-.009h-.051v.16a7.879,7.879,0,0,1,5.071,2.534,7.873,7.873,0,0,1,2.067,5.326A7.907,7.907,0,0,1,2516.705-1512.577Zm0-13.8a5.9,5.9,0,0,0-5.9,5.9,5.9,5.9,0,0,0,5.9,5.9,5.9,5.9,0,0,0,5.9-5.9A5.9,5.9,0,0,0,2516.705-1526.373Z" transform="translate(733.163 1554.137)" fill="#484949" stroke="rgba(0,0,0,0)" stroke-miterlimit="10" stroke-width="1"/>
    <path id="Path_71" data-name="Path 71" d="M3250.272,33.8a.8.8,0,0,1-.58-1.351l2.035-2.138a.8.8,0,0,1,1.159,1.1l-2.035,2.137A.8.8,0,0,1,3250.272,33.8Z" fill="#484949"/>
    <g id="Rectangle_59-2" data-name="Rectangle 59">
      <rect id="fill" width="3.144" height="1.572" rx="0.355" transform="translate(3241.847 27.938) rotate(-44.028)" fill="#070203"/>
      <g id="Group_36" data-name="Group 36">
        <g id="Group_35-2" data-name="Group 35" clip-path="url(#clip-path)">
          <path id="Path_72" data-name="Path 72" d="M3242.542,29.657a1,1,0,0,1-.719-.305,1.013,1.013,0,0,1-.132-.17.945.945,0,0,1-.165-.138,1,1,0,0,1,.024-1.414l.068-.067a1,1,0,0,1,.789-1.308,1,1,0,0,1,1.334-.744l.069-.066a1,1,0,0,1,1.414.024.966.966,0,0,1,.132.169.973.973,0,0,1,.165.138,1,1,0,0,1-.024,1.414l-.069.067a1,1,0,0,1-.789,1.308.989.989,0,0,1-.286.527,1,1,0,0,1-1.048.217l-.068.066A1,1,0,0,1,3242.542,29.657Z" fill="#484949"/>
        </g>
      </g>
    </g>
  </g>
</svg>
