<?xml version="1.0" encoding="utf-8"?>
<!-- Generator: Adobe Illustrator 24.0.1, SVG Export Plug-In . SVG Version: 6.00 Build 0)  -->
<svg version="1.1" id="圖層_1" xmlns="http://www.w3.org/2000/svg" xmlns:xlink="http://www.w3.org/1999/xlink" x="0px" y="0px"
	 viewBox="0 0 500 500" style="enable-background:new 0 0 500 500;" xml:space="preserve">
<style type="text/css">
	.st0{fill:#020202;}
</style>
<g>
	<path class="st0" d="M280.4,55.9v-5.2h47.7V28.5c0-15.6-12.7-28.5-28.5-28.5h-89.4c-15.6,0-28.5,12.7-28.5,28.5v22.2h47.7v5.2
		c-35.6,4-68.6,16.5-97,35.2l-16.8-16.8c-7.3-7.3-18.9-7.3-26.2,0l-37.7,37.7c-7.3,7.3-7.3,18.9,0,26.2L68.6,155
		c-33.5,51-46.9,116.3-28.1,184.7c20.5,74.6,79.7,132.9,154.6,152.6c148.4,38.9,282.5-72.7,282.5-215
		C477.7,163,391.3,68.6,280.4,55.9z M262.5,439.1C167.2,443.4,88.8,365,93.1,269.7c3.8-83.1,71.2-150.3,154.1-154.1
		c95.3-4.3,173.7,74.1,169.4,169.4C413,367.9,345.6,435.3,262.5,439.1z"/>
	
		<rect x="236.6" y="209" transform="matrix(0.6925 -0.7214 0.7214 0.6925 -77.987 285.6772)" class="st0" width="119.1" height="50.7"/>
</g>
</svg>
