<?xml version="1.0" encoding="UTF-8" standalone="yes"?>
<svg xmlns="http://www.w3.org/2000/svg" xmlns:xlink="http://www.w3.org/1999/xlink" width="60px" height="60px" viewBox="0 0 60 60" version="1.1" fill="#000000">
  <g id="surface122898">
    <path style=" stroke:none;fill-rule:nonzero;fill:#000000;fill-opacity:1;" d="M 30 4 C 22.292969 4 16 10.292969 16 18 L 16 22 L 12 22 C 9.789062 22 8 23.789062 8 26 L 8 50 C 8 52.210938 9.789062 54 12 54 L 48 54 C 50.210938 54 52 52.210938 52 50 L 52 26 C 52 23.789062 50.210938 22 48 22 L 44 22 L 44 18 C 44 10.542969 38.074219 4.539062 30.710938 4.144531 C 30.484375 4.054688 30.242188 4.003906 30 4 Z M 30 8 C 35.546875 8 40 12.453125 40 18 L 40 22 L 20 22 L 20 18 C 20 12.453125 24.453125 8 30 8 Z M 30 8 "/>
  </g>
</svg>
