<svg width="22" height="20" viewBox="0 0 22 20" fill="none" xmlns="http://www.w3.org/2000/svg">
<g clip-path="url(#clip0_1165_8009)">
<path d="M15.7415 11.8625C15.0318 13.6204 13.4195 14.8248 11.5327 15.0051C9.56727 15.1922 7.68542 14.2055 6.70125 12.547L8.47151 13.0748C8.85323 13.189 9.25555 12.9721 9.36909 12.5892C9.48321 12.2074 9.26633 11.8051 8.88342 11.6916L5.63024 10.7221C5.2661 10.614 4.88031 10.8051 4.7475 11.1609L3.51136 14.4642C3.37144 14.8382 3.56127 15.2539 3.93469 15.3926C4.12931 15.4661 4.336 15.4487 4.50772 15.3636C4.66651 15.285 4.79674 15.1487 4.86315 14.9693L5.48093 13.3185C6.75165 15.4283 9.15848 16.6823 11.6694 16.4432C12.4763 16.3658 13.2449 16.1432 13.9436 15.7971C15.3456 15.1026 16.4712 13.9122 17.0791 12.404C17.2284 12.0342 17.0491 11.6132 16.6793 11.4639C16.3094 11.3146 15.8884 11.4938 15.7391 11.8637L15.7415 11.8625Z" fill="#7C7C7C"/>
<path d="M18.049 4.57442C17.675 4.4345 17.2593 4.62433 17.1205 4.99775L16.5526 6.51544C15.2651 4.47549 12.9004 3.27099 10.4358 3.50608C8.01058 3.73779 5.93738 5.28631 5.02502 7.54588C4.87573 7.91574 5.05497 8.3367 5.42483 8.486C5.79468 8.6353 6.21565 8.45605 6.36494 8.0862C7.07469 6.32836 8.68698 5.12389 10.5737 4.94361C12.4534 4.76389 14.2581 5.65989 15.2727 7.19047L13.791 6.74825C13.4092 6.63413 13.0069 6.85102 12.8934 7.23392C12.7793 7.61564 12.9961 8.01797 13.379 8.1315L16.4329 9.04152C16.6146 9.09502 16.8008 9.07458 16.9596 8.99592C17.1184 8.91726 17.248 8.77979 17.315 8.60158L18.4753 5.49996C18.6152 5.12596 18.4254 4.71024 18.0519 4.5715L18.049 4.57442Z" fill="#7C7C7C"/>
</g>
<defs>
<clipPath id="clip0_1165_8009">
<rect width="17.8409" height="13" fill="white" transform="translate(0.121254 8.13531) rotate(-26.3532)"/>
</clipPath>
</defs>
</svg>
