<svg id="Layer_1" data-name="Layer 1" xmlns="http://www.w3.org/2000/svg" viewBox="0 0 16.85 16.85"><defs><style>.cls-1{fill:#494a4a;}</style></defs><path class="cls-1" d="M16,24.43A8.43,8.43,0,1,1,24.42,16,8.43,8.43,0,0,1,16,24.43Zm0-16A7.58,7.58,0,1,0,23.58,16,7.59,7.59,0,0,0,16,8.42Z" transform="translate(-7.58 -7.57)"/><path id="Path_154" data-name="Path 154" class="cls-1" d="M15.94,11.68a1,1,0,0,1,1,.89,1,1,0,0,1-.89,1h-.12a1,1,0,0,1-.89-1A1,1,0,0,1,15.94,11.68Z" transform="translate(-7.58 -7.57)"/><path class="cls-1" d="M16,14.24a.92.92,0,0,0-.92.92V19.4a.92.92,0,0,0,1.84,0V15.16A.92.92,0,0,0,16,14.24Z" transform="translate(-7.58 -7.57)"/></svg>