<svg xmlns="http://www.w3.org/2000/svg" xmlns:xlink="http://www.w3.org/1999/xlink" width="20" height="20" viewBox="0 0 20 20">
  <defs>
    <clipPath id="clip-Icon-nodetype-2_5">
      <rect width="20" height="20"/>
    </clipPath>
  </defs>
  <g id="Icon-nodetype-2_5" data-name="Icon-nodetype-2 – 5" clip-path="url(#clip-Icon-nodetype-2_5)">
    <path id="Path_20" data-name="Path 20" d="M4028.693,2425.047" transform="translate(-4018.199 -2410.047)" fill="#fff" stroke="#494a4a" stroke-miterlimit="10" stroke-width="1.5"/>
    <g id="Group_123" data-name="Group 123" transform="translate(-3382.885 -1422.99)">
      <rect id="Rectangle_77" data-name="Rectangle 77" width="4.059" height="0.943" transform="translate(3390.368 1437.223)" fill="none"/>
      <path id="Path_230" data-name="Path 230" d="M3398.329,1436.433a3.01,3.01,0,0,1-1.254.413h2.221l-.413-.413Z" fill="none"/>
      <path id="Path_231" data-name="Path 231" d="M3384.795,1436.433v.213a.2.2,0,0,0,.2.2h11.534a3.04,3.04,0,0,1-1.3-.413Z" fill="none"/>
      <path id="Path_232" data-name="Path 232" d="M3396.783,1430.741a3.056,3.056,0,0,1,2.473,1.269V1428.9a.4.4,0,0,0-.394-.4h-12.93a.4.4,0,0,0-.394.4v6.265a.4.4,0,0,0,.394.4h8.344a3.058,3.058,0,0,1,2.507-4.819Z" fill="none"/>
      <path id="Path_233" data-name="Path 233" d="M3394.387,1435.695h-8.45a.539.539,0,0,1-.535-.539v-6.265a.536.536,0,0,1,.535-.539h12.93a.536.536,0,0,1,.535.539v3.343a3.007,3.007,0,0,1-.37,3.641l.254.254H3400v-8.143a.2.2,0,0,0-.2-.2v-.008H3385a.2.2,0,0,0-.2.2v8.151h10.011A3.077,3.077,0,0,1,3394.387,1435.695Z" fill="none"/>
      <path id="Path_234" data-name="Path 234" d="M3400,1436.433h-.405l.349.349a.2.2,0,0,0,.056-.136Z" fill="none"/>
      <path id="Path_235" data-name="Path 235" d="M3395.062,1435.695a2.532,2.532,0,0,0,.649.434h2.146a2.572,2.572,0,0,0,.649-.434Z" fill="none"/>
      <path id="Path_236" data-name="Path 236" d="M3399.795,1427.426v0H3385a.552.552,0,0,0-.552.552v8.672a.552.552,0,0,0,.552.552h5.017v-.331h4.771v.331h4.513l-.352-.352h-1.869c-.1.009-.192.026-.292.026s-.169-.019-.254-.026H3385a.2.2,0,0,1-.2-.2v-.213h-.3v-.3h.3v-8.151a.2.2,0,0,1,.2-.2h14.8v.008a.2.2,0,0,1,.2.2v7.991h-.282l.634.607v-8.606A.552.552,0,0,0,3399.795,1427.426Z" fill="#393a3a" stroke="#393a3a" stroke-linejoin="round" stroke-width="0.1"/>
      <path id="Path_238" data-name="Path 238" d="M3394.363,1436.129H3384.8v.3h9.988Z" fill="#393a3a" stroke="#393a3a" stroke-linejoin="round" stroke-width="0.1"/>
      <rect id="Rectangle_78" data-name="Rectangle 78" width="0.297" height="0.304" transform="translate(3384.498 1436.129)" fill="#393a3a" stroke="#393a3a" stroke-width="0.1"/>
      <path id="Path_239" data-name="Path 239" d="M3390.012,1438.2h4.771v-1h-4.771Zm4.415-.979v.943h-4.059v-.943Z" fill="#393a3a" stroke="#393a3a" stroke-width="0.08"/>
      <path id="Path_240" data-name="Path 240" d="M3394.783,1436.867h-4.771v.331h4.771v-.331Z" fill="#393a3a" stroke="#393a3a" stroke-width="0.08"/>
      <path id="Path_241" data-name="Path 241" d="M3390.012,1438.522v-.32h-2.893a.178.178,0,0,0,0,.356h10.557a.178.178,0,0,0,0-.356h-2.893v.32Z" fill="#393a3a" stroke="#393a3a" stroke-width="0.08"/>
      <rect id="Rectangle_79" data-name="Rectangle 79" width="4.771" height="0.32" transform="translate(3390.012 1438.202)" fill="#393a3a" stroke="#393a3a" stroke-width="0.08"/>
      <path id="Path_242" data-name="Path 242" d="M3385.932,1435.56a.4.4,0,0,1-.394-.4V1428.9a.4.4,0,0,1,.394-.4h12.93a.4.4,0,0,1,.394.4v3.115c.053.072.1.147.146.224v-3.343a.536.536,0,0,0-.535-.539h-12.93a.536.536,0,0,0-.535.539v6.265a.539.539,0,0,0,.535.539h8.111c-.036-.046-.078-.087-.112-.135Z" fill="#393a3a" stroke="#393a3a" stroke-linejoin="round" stroke-width="0.2"/>
      <path id="Path_244" data-name="Path 244" d="M3396.783,1436.872c.1,0,.2-.017.292-.026h-.546C3396.614,1436.853,3396.7,1436.872,3396.783,1436.872Z" fill="#393a3a" stroke="#393a3a" stroke-width="0.08"/>
      <path id="Path_245" data-name="Path 245" d="M3401.253,1437.953l-2.22-2.22a3.172,3.172,0,1,0-.371.336l2.238,2.238a.252.252,0,0,0,.177.073.25.25,0,0,0,.176-.427Zm-7.034-4.289a2.566,2.566,0,1,1,2.566,2.565A2.568,2.568,0,0,1,3394.219,1433.664Z" fill="#393a3a" stroke="#393a3a" stroke-width="0.08"/>
    </g>
  </g>
</svg>
