<svg xmlns="http://www.w3.org/2000/svg" xmlns:xlink="http://www.w3.org/1999/xlink" width="20" height="20" viewBox="0 0 20 20">
  <defs>
    <clipPath id="clip-Print_preview">
      <rect width="20" height="20"/>
    </clipPath>
  </defs>
  <g id="Print_preview" data-name="Print preview" clip-path="url(#clip-Print_preview)">
    <g id="Group_89" data-name="Group 89" transform="translate(-2.033 -0.809)">
      <g id="Group_88" data-name="Group 88" transform="translate(7.432 4.879)">
        <path id="Path_194" data-name="Path 194" d="M18.572,7.567h-.908V5.636a.759.759,0,0,0-.757-.757H10.192a.759.759,0,0,0-.759.757v.631c.232.107.691.345.74.385l.02-1.058,6.756.042V7.567H11.234a3.965,3.965,0,0,1,.685.72l6.653,0A.432.432,0,0,1,19,8.716v4.24a.433.433,0,0,1-.433.433h-.908V11.8l-8.231-.025v1.61H8.268a.433.433,0,0,1-.433-.433V11.686a2.22,2.22,0,0,1-.716-.03v1.3A1.151,1.151,0,0,0,8.268,14.1H9.433V16.1a.642.642,0,0,0,.641.642h6.949a.642.642,0,0,0,.641-.642V14.1h.908a1.152,1.152,0,0,0,1.149-1.149V8.716A1.151,1.151,0,0,0,18.572,7.567Zm-1.624,8.454h-6.8V12.5l6.8.021Z" transform="translate(-7.12 -4.879)" fill="#444"/>
        <path id="Path_195" data-name="Path 195" d="M16.535,8.712H15.392a.369.369,0,0,0-.369.369v.271a.369.369,0,0,0,.369.368h1.143a.369.369,0,0,0,.369-.368V9.081A.37.37,0,0,0,16.535,8.712Zm.094.64a.093.093,0,0,1-.094.092H15.392a.093.093,0,0,1-.094-.092V9.081a.093.093,0,0,1,.094-.094h1.143a.093.093,0,0,1,.094.094Z" transform="translate(-6.322 -4.492)" fill="#444"/>
        <path id="Path_196" data-name="Path 196" d="M15.517,12.666H10.66a.245.245,0,1,0,0,.49h4.857a.245.245,0,0,0,0-.49Z" transform="translate(-6.788 -4.093)" fill="#444"/>
        <path id="Path_197" data-name="Path 197" d="M15.517,13.687H10.66a.245.245,0,1,0,0,.49h4.857a.245.245,0,0,0,0-.49Z" transform="translate(-6.788 -3.99)" fill="#444"/>
      </g>
      <path id="Path_116" data-name="Path 116" d="M12.227,8.57c-.075-.1-1.826-2.43-4.084-2.43s-4,2.331-4.075,2.43a.185.185,0,0,0,0,.218c.074.1,1.817,2.392,4.073,2.392s4.01-2.293,4.083-2.391A.185.185,0,0,0,12.227,8.57ZM8.4,9.914a1.28,1.28,0,1,1,1-1,1.279,1.279,0,0,1-1,1Zm-.557-2.9.028-.009Z" transform="translate(0 0.127)" fill="#919191"/>
    </g>
  </g>
</svg>