<?xml version="1.0" encoding="utf-8"?>
<!-- Generator: Adobe Illustrator 25.0.1, SVG Export Plug-In . SVG Version: 6.00 Build 0)  -->
<svg version="1.1" id="Layer_1" xmlns="http://www.w3.org/2000/svg" xmlns:xlink="http://www.w3.org/1999/xlink" x="0px" y="0px"
	 viewBox="0 0 8.9 8.9" style="enable-background:new 0 0 8.9 8.9;" xml:space="preserve">
<style type="text/css">
	.st0{clip-path:url(#SVGID_2_);}
	.st1{fill:none;stroke:#7C7B7C;stroke-width:0.65;}
</style>
<g>
	<defs>
		<rect id="SVGID_1_" x="-5.5" y="-5.5" width="20" height="20"/>
	</defs>
	<clipPath id="SVGID_2_">
		<use xlink:href="#SVGID_1_"  style="overflow:visible;"/>
	</clipPath>
	<g id="Star1" class="st0">
		<path id="star" class="st1" d="M8.4,3.5c0-0.2-0.2-0.3-0.4-0.3L5.8,3L4.9,0.7C4.8,0.5,4.5,0.4,4.3,0.5c-0.1,0-0.2,0.1-0.2,0.2
			L3.2,3L0.9,3.2c-0.2,0-0.3,0.1-0.4,0.3C0.4,3.6,0.5,3.8,0.6,4l1.7,1.6L1.8,7.9c0,0.2,0,0.4,0.2,0.5c0.1,0.1,0.3,0.1,0.5,0l2-1.2
			l2,1.2c0.1,0.1,0.3,0.1,0.5,0c0.1-0.1,0.2-0.3,0.2-0.5L6.6,5.6L8.3,4C8.4,3.8,8.5,3.7,8.4,3.5z"/>
	</g>
</g>
</svg>
