<?xml version="1.0" encoding="utf-8"?>
<!-- Generator: Adobe Illustrator 25.0.1, SVG Export Plug-In . SVG Version: 6.00 Build 0)  -->
<svg version="1.1" id="Layer_1" xmlns="http://www.w3.org/2000/svg" xmlns:xlink="http://www.w3.org/1999/xlink" x="0px" y="0px"
	 viewBox="0 0 8.9 8.9" style="enable-background:new 0 0 8.9 8.9;" xml:space="preserve">
<style type="text/css">
	.st0{clip-path:url(#SVGID_2_);}
	.st1{fill:#FBB03B;}
</style>
<g>
	<defs>
		<rect id="SVGID_1_" x="-5.5" y="-5.5" width="20" height="20"/>
	</defs>
	<clipPath id="SVGID_2_">
		<use xlink:href="#SVGID_1_"  style="overflow:visible;"/>
	</clipPath>
	<g id="Star2" class="st0">
		<path id="Path_172" class="st1" d="M6.7,8.8c-0.1,0-0.3,0-0.4-0.1L4.5,7.6L2.6,8.7C2.4,8.9,2,8.8,1.8,8.7C1.6,8.5,1.5,8.2,1.5,7.9
			L2,5.7L0.4,4.2C0.2,4,0.1,3.7,0.2,3.4c0.1-0.3,0.3-0.5,0.6-0.5l2.1-0.2l0.8-2.1c0.1-0.4,0.6-0.6,1-0.4c0.2,0.1,0.3,0.2,0.4,0.4
			l0.8,2l2.1,0.2c0.3,0,0.6,0.2,0.6,0.5c0.1,0.3,0,0.6-0.2,0.8L6.9,5.7l0.5,2.2c0.1,0.3,0,0.6-0.3,0.8C7,8.8,6.8,8.8,6.7,8.8z"/>
	</g>
</g>
</svg>
