<svg xmlns="http://www.w3.org/2000/svg" width="108.772" height="119.995" viewBox="0 0 108.772 119.995">
  <g id="Group_45" data-name="Group 45" transform="translate(-5521.594 -795.894)">
    <line id="Line_10" data-name="Line 10" x2="28.059" transform="translate(5565.641 827.794)" fill="none" stroke="#393a3a" stroke-linecap="round" stroke-miterlimit="10" stroke-width="3.5"/>
    <line id="Line_11" data-name="Line 11" x2="59.699" transform="translate(5536.363 858.14)" fill="none" stroke="#393a3a" stroke-linecap="round" stroke-miterlimit="10" stroke-width="2"/>
    <g id="Group_43" data-name="Group 43" transform="translate(5521.594 795.894)">
      <path id="Path_85" data-name="Path 85" d="M5602.348,902.975a8.46,8.46,0,0,1-8.451,8.451H5536.88a9.467,9.467,0,0,1-9.467-9.467h0V815.919a9.467,9.467,0,0,1,9.466-9.468H5549a1.017,1.017,0,0,0,1.017-1.016h0v-3.786a1.016,1.016,0,0,0-1.016-1.017H5536.88a15.285,15.285,0,0,0-15.286,15.286v86.04a15.285,15.285,0,0,0,15.286,15.286h56a15.286,15.286,0,0,0,15.286-15.286V883.766a1.017,1.017,0,0,0-1.753-.7l-3.672,3.842a1.022,1.022,0,0,0-.282.695Z" transform="translate(-5521.594 -797.247)" fill="#393a3a"/>
      <path id="Path_86" data-name="Path 86" d="M5617.343,800.63h-9.522a1.366,1.366,0,0,0-1.367,1.365h0v3.089a1.367,1.367,0,0,0,1.367,1.366h10.887a8.46,8.46,0,0,1,8.451,8.451l.109,41.4a1.366,1.366,0,0,0,2.318.976l2.979-2.892a1.365,1.365,0,0,0,.415-.98V816.263A15.638,15.638,0,0,0,5617.343,800.63Z" transform="translate(-5545.841 -797.247)" fill="#393a3a"/>
      <path id="Rectangle_61" data-name="Rectangle 61" d="M5565.514,795.894h25.671a1.4,1.4,0,0,1,1.376,1.428v6.347a1.4,1.4,0,0,1-1.376,1.428h-25.671a1.4,1.4,0,0,1-1.375-1.428v-6.347A1.4,1.4,0,0,1,5565.514,795.894Z" transform="translate(-5533.75 -795.894)" fill="#393a3a"/>
      <path id="Path_90" data-name="Path 90" d="M5649.425,864.685a7,7,0,0,0-5.133-2.1c-4.04.124-7.517,3.857-9.595,6.087-.333.357-.621.667-.857.9l-34.071,34.071-3.722,9.472a3.916,3.916,0,0,0,3.614,5.342,3.969,3.969,0,0,0,1.45-.279l9.472-3.722,34.071-34.071c.148-.149.319-.316.507-.5,2.258-2.214,6.459-6.328,6.4-10.6A6.23,6.23,0,0,0,5649.425,864.685Zm-13.78,8.024,5.875,5.874-31.356,31.357-5.875-5.874Zm-35.814,42.224a.414.414,0,0,1-.536-.536l2.892-7.361,5,5Zm44.528-39.2-5.929-5.928c1.684-1.719,3.912-3.672,5.967-3.735a3.6,3.6,0,0,1,2.629,1.152l.015.014a2.807,2.807,0,0,1,1.024,2.092c.031,2.063-1.961,4.555-3.706,6.406Z" transform="translate(-5542.79 -814.948)" fill="#393a3a"/>
    </g>
    <g id="Group_44" data-name="Group 44" transform="translate(5537.559 820.203)">
      <path id="Path_85-2" data-name="Path 85" d="M5563.366,851.792l-1.071-.96a.989.989,0,0,0-1.139-.139,11.783,11.783,0,0,1-5.806,1.491,11.026,11.026,0,0,1-11.4-11.067v-.062a11.441,11.441,0,0,1,22.872-.061v.061a10.989,10.989,0,0,1-1.474,5.484.994.994,0,0,0,.226,1.252l.767.65a1,1,0,0,1,.1,1.437l-1.652,1.837A1,1,0,0,1,5563.366,851.792Zm-6.565-5.783-1.283-1.091a1,1,0,0,1-.1-1.432l1.658-1.86a1,1,0,0,1,1.422-.077l1.6,1.443a1.006,1.006,0,0,0,1.667-.576,7.954,7.954,0,0,0,.106-1.3v-.062a6.538,6.538,0,0,0-6.518-6.763,6.435,6.435,0,0,0-6.455,6.7v.061a6.538,6.538,0,0,0,6.517,6.764,7.948,7.948,0,0,0,.834-.042A1.007,1.007,0,0,0,5556.8,846.01Z" transform="translate(-5543.945 -829.927)" fill="#393a3a"/>
      <path id="Path_86-2" data-name="Path 86" d="M5553.318,904.25h3.038a1,1,0,0,1,.923.611l8.369,19.666a1,1,0,0,1-.923,1.4h-2.757a1,1,0,0,1-.93-.624l-1.458-3.577a1,1,0,0,0-.929-.625h-7.75a1,1,0,0,0-.93.625l-1.458,3.577a1,1,0,0,1-.929.624h-2.634a1,1,0,0,1-.923-1.4l8.368-19.666A1,1,0,0,1,5553.318,904.25Zm3.75,11.282-1.363-3.328a1,1,0,0,0-1.858,0l-1.364,3.328a1,1,0,0,0,.929,1.384h2.727A1,1,0,0,0,5557.068,915.532Z" transform="translate(-5543.946 -851.163)" fill="#393a3a"/>
    </g>
    <line id="Line_10-2" data-name="Line 10" x2="28.059" transform="translate(5565.641 836.162)" fill="none" stroke="#393a3a" stroke-linecap="round" stroke-miterlimit="10" stroke-width="3.5"/>
    <line id="Line_10-3" data-name="Line 10" x2="13.023" transform="translate(5565.641 879.519)" fill="none" stroke="#393a3a" stroke-linecap="round" stroke-miterlimit="10" stroke-width="3.5"/>
    <line id="Line_10-4" data-name="Line 10" x2="7.325" transform="translate(5565.641 887.888)" fill="none" stroke="#393a3a" stroke-linecap="round" stroke-miterlimit="10" stroke-width="3.5"/>
  </g>
</svg>
