<svg xmlns="http://www.w3.org/2000/svg" width="245" height="114" viewBox="0 0 245 114">
    <g fill="none" fill-rule="evenodd">
        <path fill="#333" fill-rule="nonzero" d="M144.154 0C136.892 0 131 5.892 131 13.154v57c0 7.262 5.892 13.154 13.154 13.154h87.692c7.262 0 13.154-5.892 13.154-13.154v-57C245 5.892 239.108 0 231.846 0h-87.692zm0 8.77h87.692c2.415 0 4.385 1.969 4.385 4.384v48.23c0 2.416-1.97 4.385-4.385 4.385h-87.692c-2.415 0-4.385-1.97-4.385-4.384V13.154c0-2.415 1.97-4.385 4.385-4.385zm-8.77 78.922c-2.414 0-4.384 1.953-4.384 4.385v17.538c0 2.432 1.97 4.385 4.385 4.385h105.23c2.432 0 4.385-1.953 4.385-4.385V92.077c0-2.432-1.953-4.385-4.385-4.385h-105.23zm96.462 7.947c2.878 0 5.207 2.33 5.207 5.207 0 2.878-2.33 5.207-5.207 5.207s-5.207-2.33-5.207-5.207 2.33-5.207 5.207-5.207zm-92.077.823h57v4.384h-57v-4.384z"/>
        <g transform="translate(0 30)">
            <path fill="#333" fill-rule="nonzero" d="M13.154 0C5.892 0 0 5.851 0 13.064v56.608c0 7.212 5.892 13.064 13.154 13.064h87.692c7.262 0 13.154-5.852 13.154-13.064V13.064C114 5.85 108.108 0 100.846 0H13.154z"/>
            <ellipse cx="102.968" cy="69.391" fill="#F8F8F8" rx="3.677" ry="3.652"/>
            <rect width="77.226" height="65.739" x="7.355" y="7.304" fill="#F8F8F8" rx="1"/>
            <rect width="14.71" height="47.478" x="91.935" y="7.304" fill="#F8F8F8" rx="1"/>
        </g>
    </g>
</svg>
