<svg xmlns="http://www.w3.org/2000/svg" width="31" height="23" viewBox="0 0 31 23">
    <path d="M15.499 0C9.869 0 4.523 2.192.447 6.169L0 6.605l3.438 3.639.451-.437C7.033 6.74 11.158 5.05 15.5 5.05c4.34 0 8.465 1.691 11.612 4.758l.449.437L31 6.604l-.45-.438C26.476 2.189 21.13 0 15.5 0zm0 7.574c-3.7 0-7.213 1.44-9.89 4.053l-.45.436 3.455 3.657.449-.44c1.753-1.713 4.04-2.657 6.436-2.657s4.683.944 6.436 2.658l.449.439 3.455-3.657-.447-.436c-2.68-2.613-6.193-4.053-9.893-4.053zm0 7.574c-1.768 0-3.448.687-4.73 1.94l-.446.436L15.499 23l5.176-5.476-.447-.436c-1.282-1.253-2.962-1.94-4.73-1.94z"/>
</svg>
