<svg xmlns="http://www.w3.org/2000/svg" width="27.317" height="18" viewBox="0 0 27.317 18">
  <g id="Group_73" data-name="Group 73" transform="translate(-1308.266 -678.656)">
    <g id="Group_72" data-name="Group 72" transform="translate(1308.266 678.656)">
      <g id="Group_71" data-name="Group 71" transform="translate(0 5.442)">
        <path id="Path_123" data-name="Path 123" d="M1324.082,698.645v-8.826a.665.665,0,0,0-.646-.678h-12.91a.664.664,0,0,0-.646.678v8.826l-1.614,2.037a.994.994,0,0,0,.969,1.017h15.494a1,1,0,0,0,.968-1.017Zm-5.809,2.715h-2.583a.17.17,0,0,1,0-.339h2.583a.166.166,0,0,1,.162.17A.168.168,0,0,1,1318.273,701.361Zm4.9-4.082a.554.554,0,0,1-.563.543h-11.259a.556.556,0,0,1-.563-.543v-6.51a.554.554,0,0,1,.563-.543h11.259a.555.555,0,0,1,.563.543Z" transform="translate(-1308.266 -689.141)" fill="#5c5c5c"/>
      </g>
      <path id="Path_124" data-name="Path 124" d="M1346.452,680.353l-5.6-1.69a.146.146,0,0,0-.075,0l-9.548,1.993a.151.151,0,0,0-.121.148v2.423a.152.152,0,0,0,.149.152l3.8.061a.782.782,0,0,1,.769.779l.016,2.91c0,.1.121.322.27.271l10.345-2.882c.161-.038.106-.349.106-.417v-3.6A.152.152,0,0,0,1346.452,680.353Zm-4.539-.809a.625.625,0,0,1,.365,0l1.4.4-.374.2a.346.346,0,0,1-.24,0l-1.633-.437Zm2.09,3.228c.008.117.056.358-.095.384l-6.844,1.853c-.142.033-.183-.061-.184-.184l.011-1.11c0-.819.125-1.213-.438-1.412l-2.677-.972c-.288-.077.17-.21.518-.274l5.544-1.259a.436.436,0,0,1,.3-.006l3.3.921a.684.684,0,0,1,.563.631Zm.63-2.409c-.126,0-.228-.041-.228-.091s.1-.091.228-.091.229.041.229.091S1344.759,680.363,1344.632,680.363Z" transform="translate(-1319.252 -678.656)" fill="#5c5c5c"/>
    </g>
    <path id="Path_125" data-name="Path 125" d="M1347.4,693.147l0,5.463a1.425,1.425,0,0,1-1.424,1.424H1340.3c.331.346.595.688.921,1.038h4.758a2.465,2.465,0,0,0,2.462-2.462v-5.737Z" transform="translate(-15.406 -6.838)" fill="#5c5c5c"/>
  </g>
</svg>
