<svg xmlns="http://www.w3.org/2000/svg" width="31" height="31" viewBox="0 0 31 31">
    <path d="M3.69 0C1.656 0 0 1.656 0 3.69v23.62C0 29.344 1.656 31 3.69 31h23.62c2.034 0 3.69-1.656 3.69-3.69V3.69C31 1.656 29.344 0 27.31 0H3.69zm2.215 7.381h19.19v11.81h-2.952v2.214H19.19v2.214h-7.38v-2.214H8.857V19.19H5.905V7.381zm2.214 2.214v5.167h1.476V9.595H8.12zm2.214 0v5.167h1.477V9.595h-1.477zm2.215 0v5.167h1.476V9.595h-1.476zm2.214 0v5.167h1.476V9.595h-1.476zm2.214 0v5.167h1.476V9.595h-1.476zm2.214 0v5.167h1.477V9.595H19.19zm2.215 0v5.167h1.476V9.595h-1.476z"/>
</svg>
