<?xml version="1.0" encoding="utf-8"?>
<!-- Generator: Adobe Illustrator 23.0.3, SVG Export Plug-In . SVG Version: 6.00 Build 0)  -->
<svg version="1.0" id="Layer_2"
	xmlns="http://www.w3.org/2000/svg"
	xmlns:xlink="http://www.w3.org/1999/xlink" x="0px" y="0px" viewBox="0 0 1076.9 1622.6" style="enable-background:new 0 0 1076.9 1622.6;" xml:space="preserve">
	<style type="text/css">
	.st0{opacity:0.44;fill:#4D4D4D;}
	.st1{fill:#B3B3B3;}
	.st2{fill:#E6E6E6;}
	.st3{fill:#333333;}
	.st4{fill:#4D4D4D;}
	.st5{fill:#858585;}
	.st6{fill:#999999;}
	.st7{fill:none;stroke:#999899;stroke-miterlimit:10;}
	.st8{fill:none;stroke:#323333;stroke-width:3;stroke-miterlimit:10;}
	</style>
	<path class="st0" d="M477.4,445.5L477.4,445.5H456V274.4H283.1v171.1h-20.5h0v7.4h0v246.7c0,8.7,5.3,16.5,13.4,19.8l32.7,13v67.2
	c0,6.8,5.5,12.3,12.3,12.3h9.1l0.4,11.3h5.9l0.2,7.3h-5.9l0.6,15.3h5.8l0.2,7h-5.8l0.5,14.7h5.7l0.2,6.7h-5.7l0.5,14.1h5.6l0.2,6.5
	h-5.5l0.5,13.5h5.5l0.2,6.2h-5.4l0.2,5.2c0.2,4.3,4.8,7.8,10.3,7.8h8.2v490.8h34.9V927.4h8.2c5.5,0,10.2-3.5,10.3-7.8l0.2-5.2h-5.4
	l0.2-6.2h5.5l0.5-13.5h-5.5l0.2-6.5h5.6l0.5-14.1H402l0.2-6.7h5.7l0.5-14.7h-5.8l0.2-7h5.8l0.6-15.3h-5.9l0.2-7.3h5.9l0.4-11.3h9.1
	c6.8,0,12.3-5.5,12.3-12.3v-67.2l32.7-13c8.1-3.2,13.4-11.1,13.4-19.8V452.8h0V445.5z"/>
	<g>
		<g>
			<rect x="298.2" y="254.6" class="st1" width="172.9" height="182.7"/>
			<g>
				<path class="st2" d="M355.3,351.9H331c-2.8,0-5.1-2.3-5.1-5.1v-16.3c0-2.8,2.3-5.1,5.1-5.1h24.3c2.8,0,5.1,2.3,5.1,5.1v16.3
				C360.5,349.6,358.2,351.9,355.3,351.9z"/>
				<path class="st2" d="M438.3,351.9H414c-2.8,0-5.1-2.3-5.1-5.1v-16.3c0-2.8,2.3-5.1,5.1-5.1h24.3c2.8,0,5.1,2.3,5.1,5.1v16.3
				C443.5,349.6,441.2,351.9,438.3,351.9z"/>
			</g>
		</g>
		<g>
			<rect x="367.7" y="853" class="st3" width="34.9" height="545.5"/>
			<g>
				<polygon class="st3" points="415.7,898.9 354.5,898.9 351.1,787.4 419.2,787.4 			"/>
				<polygon class="st4" points="393.3,907.2 377,907.2 376,787.4 394.3,787.4 			"/>
				<polygon class="st4" points="425.2,787.4 424.7,803.3 345.6,803.3 345,787.4 			"/>
				<polygon class="st4" points="424.4,810.7 423.8,826 346.4,826 345.9,810.7 			"/>
				<polygon class="st4" points="423.6,833 423,847.7 347.2,847.7 346.7,833 			"/>
				<polygon class="st4" points="422.8,854.4 422.3,868.5 348,868.5 347.5,854.4 			"/>
				<polygon class="st4" points="422,875 421.5,888.5 348.7,888.5 348.2,875 			"/>
				<path class="st4" d="M421.3,894.7l-0.2,5.2c-0.2,4.3-4.8,7.8-10.3,7.8h-51.3c-5.5,0-10.2-3.5-10.3-7.8l-0.2-5.2H421.3z"/>
			</g>
		</g>
		<path class="st4" d="M277.7,425.7v254.1c0,8.7,5.3,16.5,13.4,19.8l32.7,13v67.2c0,6.8,5.5,12.3,12.3,12.3h98.1
		c6.8,0,12.3-5.5,12.3-12.3v-67.2l32.7-13c8.1-3.2,13.4-11.1,13.4-19.8V425.7H277.7z"/>
		<rect x="277.7" y="425.7" class="st3" width="214.8" height="7.4"/>
		<g>
			<path class="st3" d="M444.3,655.5H326c-6.9,0-12.6-5.6-12.6-12.6V479.5c0-6.9,5.6-12.6,12.6-12.6h118.3c6.9,0,12.6,5.6,12.6,12.6
			v163.4C456.8,649.8,451.2,655.5,444.3,655.5z M326,471c-4.7,0-8.6,3.8-8.6,8.6v163.4c0,4.7,3.8,8.6,8.6,8.6h118.3
			c4.7,0,8.6-3.8,8.6-8.6V479.5c0-4.7-3.8-8.6-8.6-8.6H326z"/>
		</g>
		<g>
			<path class="st3" d="M351.3,614.4c0,3-2.4,5.5-5.5,5.5c-3,0-5.5-2.4-5.5-5.5c0-3,2.4-5.5,5.5-5.5
			C348.9,608.9,351.3,611.3,351.3,614.4z"/>
			<circle class="st3" cx="424.4" cy="614.4" r="5.5"/>
		</g>
	</g>
	<path class="st5" d="M408.9,541.8H395c-0.8,0-1.4,0.6-1.4,1.4V557c0,0.4,0.3,0.7,0.7,0.7h2.9c0.5,0,1,0.4,1,0.9c0,0.1,0,3.5,0,3.9
	c0,0.6-0.3,1.1-0.8,1.4l-8.1,5.3c0,0.7,0-0.6,0-0.6c0-10.5,0-19.6,0-19.6c0-1.4,0-5.9-0.1-10c0,0,0.6,0,0.9,0c1.6,0,3.2-0.1,4.8,0
	c2,0.1,2.2-0.8,1.6-1.9c-3.2-6.3-6.3-12.6-9.5-18.8c-0.2-0.5-0.4-1-1.2-1c-0.8,0-0.9,0.6-1.1,1.1c-2.1,4.2-4.3,8.4-6.4,12.7
	c-1,2-2,4-3,6c-0.8,1.5-0.3,2,1.7,2c1.2,0,2.5,0.1,3.8,0c0.2,0,1,0,1,0c0,1.2,0,4.1,0,4.1c0,11.5,0.1,27,0.1,36.2l-9.3-5.6
	c-0.8-0.5-1.2-1.3-1.2-2.3c0-0.5,0-1,0-1.7c0,0,0-5.1,0-7c0-0.5,0.3-1,0.7-1.3c3.1-1.9,4.5-5.7,3.4-9.2c-1.1-3.6-4.3-6-8-6.1
	c-3.7,0-6.9,2.4-8,6c-1,3.4,0.4,7.2,3.5,9.1c0.7,0.4,0.8,0.9,0.8,1.6c0,0.9,0,3.1,0,3.1c0,1,0,8.5,0,9.9c0,0.9,0.5,1.7,1.2,2.2
	l16.7,10.3c0,0,0,0,0,0c0,0.4,0,0.8,0,1.3h0c0,3.4,0,6.3,0,6.7v0c-3.8,1.7-6.3,6-5.2,10.6c0.8,3.5,3.6,6.3,7.1,7
	c6.1,1.3,11.4-3.3,11.4-9.1c0-3.9-2.4-7.2-5.7-8.6v0c0-0.3,0-0.9,0-1.8h0c0-4.8,0-10.8,0-15.7c0,0,0,0,0,0l15.3-10
	c0.6-0.4,1.1-1,1.2-1.8c0-1,0-2.7,0-4.5c0,0,0-3,0-4c0-0.8,0.2-1,1-1h3.1c0.4,0,0.7-0.3,0.7-0.7v-13.8
	C410.3,542.4,409.7,541.8,408.9,541.8z"/>
	<g id="cif0Ns.tif">
	</g>
	<path class="st0" d="M658.7,1299v117.4c0,1.6,1,2.9,2.5,3.3l12.5,5.5c0.3,0.1,0.6,0.1,0.9,0.1h12.8h15.9h1.9h14.1h13.1
	c0.3,0,0.6,0,0.8-0.1l15.5-5.6c1.6-0.4,2.6-1.8,2.6-3.4v-117.2c10.3-0.1,18.6-8.4,18.6-18.7v-177.1c0-2.7-1.2-5.3-3.3-7.1
	l-13.2-15.3c-0.7-0.8-1.6-1.6-2.5-2.1c-1.3-0.7-2.8-1-4.3-1h-12.7v-15h0v-8.6h0v-18.4h0v-8.6h0v-18.4h0v-8.6h0v-18.4h0h-11.8V267.9
	h-34.9v713.9h-11.8h0v18.4h0v8.6h0v18.4h0v8.6h0v18.4h0v8.6h0v15h-12.2c-0.2,0-0.5,0-0.7,0c-2.6,0.2-4.9,1.7-6.5,3.7l-10.4,14
	c-0.3,0.4-0.7,0.8-1.1,1.2c-1.7,1.7-2.7,4.1-2.7,6.5v177.1C642.1,1290,649.4,1298,658.7,1299z"/>
	<g>
		<path class="st1" d="M770.4,1403v-129.5c0-1.9-1.6-3.5-3.5-3.5H681c-1.9,0-3.5,1.6-3.5,3.5v129.5c0,1.6,1,2.9,2.5,3.3l12.5,5.5
		c0.3,0.1,0.6,0.1,0.9,0.1h57.9c0.3,0,0.6,0,0.8-0.1l15.5-5.6C769.3,1406,770.4,1404.6,770.4,1403z"/>
	</g>
	<path class="st6" d="M713.7,1356.7l8.3-1.2c0.1,0,0.1,0,0.2,0.1c0,0,0.1,0.1,0.1,0.2c0,0,0,36.5,0,56.4h1.9
	c0-19.8,0.1-56.4,0.1-56.4c0-0.6-0.3-1.2-0.7-1.6c-0.5-0.4-1.1-0.6-1.7-0.5l-8.3,1.2c-0.4,0.1-0.8-0.1-1.1-0.3
	c-0.3-0.3-0.5-0.7-0.5-1.1v-18.7c0-0.4,0.2-0.8,0.5-1.1c0.3-0.3,0.7-0.4,1.1-0.3l8.3,1.2c0.6,0.1,1.2-0.1,1.7-0.5
	c0.5-0.4,0.7-1,0.7-1.6c0,0-0.1-53.6-0.1-65.8c0-1.2-1.9-1.2-1.9,0c0,12.2,0,65.8,0,65.8c0,0.1,0,0.1-0.1,0.2s-0.1,0.1-0.2,0.1
	l-8.3-1.2c-1-0.1-1.9,0.1-2.7,0.8c-0.7,0.6-1.2,1.6-1.2,2.5v18.7c0,1,0.4,1.9,1.2,2.5C711.8,1356.6,712.8,1356.8,713.7,1356.7z"/>
	<line class="st7" x1="751.8" y1="1412" x2="751.8" y2="1283.4"/>
	<line class="st7" x1="693" y1="1412" x2="693" y2="1283.4"/>
	<g>
		<rect x="706.2" y="254.6" transform="matrix(-1 -1.224647e-16 1.224647e-16 -1 1447.3572 1252.8412)" class="st3" width="34.9" height="743.6"/>
		<g>

			<rect x="694.4" y="968.6" transform="matrix(-1 -1.224647e-16 1.224647e-16 -1 1447.3572 2036.4414)" class="st3" width="58.6" height="99.3"/>

			<rect x="717" y="968.6" transform="matrix(-1 -1.224647e-16 1.224647e-16 -1 1447.3572 2036.4414)" class="st4" width="13.4" height="99.3"/>
			<rect x="694.4" y="1049.5" class="st4" width="58.6" height="18.4"/>
			<rect x="694.4" y="1022.5" class="st4" width="58.6" height="18.4"/>
			<rect x="694.4" y="995.5" class="st4" width="58.6" height="18.4"/>
			<rect x="694.4" y="968.6" class="st4" width="58.6" height="18.4"/>
		</g>
	</g>
	<path class="st4" d="M660.9,1267.1V1090c0-2.5,1-4.8,2.7-6.5c0.4-0.4,0.8-0.8,1.1-1.2l10.4-14c1.5-2.1,3.9-3.5,6.5-3.7
	c0.2,0,0.5,0,0.7,0h83.5c1.5,0,3,0.4,4.3,1c1,0.5,1.8,1.2,2.5,2.1l13.2,15.3c2.1,1.8,3.3,4.4,3.3,7.1v177.1
	c0,10.3-8.4,18.7-18.7,18.7h-90.7C669.3,1285.8,660.9,1277.4,660.9,1267.1z"/>
	<path class="st5" d="M704.2,1211.3h11.2c0.6,0,1.2-0.5,1.2-1.2V1199c0-0.3-0.2-0.6-0.6-0.6h-2.4c-0.4,0-0.8-0.3-0.8-0.8
	c0-0.1,0-2.8,0-3.1c0-0.5,0.3-0.9,0.7-1.2l6.5-4.3c0-0.6,0,0.4,0,0.4c0,8.4,0,15.8,0,15.8c0,1.1,0,4.7,0,8.1c0,0-0.5,0-0.7,0
	c-1.3,0-2.6,0-3.9,0c-1.6-0.1-1.7,0.6-1.3,1.6c2.6,5.1,5.1,10.1,7.6,15.2c0.2,0.4,0.3,0.8,0.9,0.8c0.6,0,0.7-0.5,0.9-0.9
	c1.7-3.4,3.4-6.8,5.2-10.2c0.8-1.6,1.6-3.2,2.4-4.8c0.6-1.2,0.3-1.6-1.3-1.6c-1,0-2.1-0.1-3,0c-0.2,0-0.8,0-0.8,0c0-1,0-3.3,0-3.3
	c0-9.3-0.1-21.8-0.1-29.2l7.5,4.5c0.6,0.4,1,1.1,1,1.8c0,0.4,0,0.8,0,1.4c0,0,0,4.2,0,5.7c0,0.4-0.2,0.8-0.6,1
	c-2.5,1.6-3.6,4.6-2.8,7.4c0.9,2.9,3.4,4.9,6.4,4.9c3,0,5.5-1.9,6.4-4.9c0.8-2.8-0.3-5.8-2.8-7.4c-0.5-0.3-0.7-0.7-0.7-1.3
	c0-0.7,0-2.5,0-2.5c0-0.8,0-6.8,0-7.9c0-0.7-0.4-1.4-1-1.7l-13.5-8.3c0,0,0,0,0,0c0-0.3,0-0.7,0-1h0c0-2.8,0-5.1,0-5.4v0
	c3.1-1.4,5.1-4.8,4.2-8.6c-0.6-2.8-2.9-5.1-5.7-5.7c-4.9-1-9.2,2.7-9.2,7.4c0,3.1,1.9,5.8,4.6,7v0c0,0.2,0,0.8,0,1.5h0
	c0,3.9,0,8.7,0,12.6c0,0,0,0,0,0l-12.3,8.1c-0.5,0.3-0.9,0.8-0.9,1.4c0,0.8,0,2.1,0,3.6c0,0,0,2.4,0,3.2c0,0.6-0.2,0.8-0.8,0.8h-2.5
	c-0.3,0-0.5,0.2-0.5,0.5v11.1C703,1210.7,703.5,1211.3,704.2,1211.3z"/>
	<rect x="706.3" y="1408.4" transform="matrix(-1 -1.224647e-16 1.224647e-16 -1 1444.5647 2820.4297)" class="st6" width="31.9" height="3.6"/>
	<path class="st8" d="M691.6,1126.7h66.8c4.8,0,8.7,3.9,8.7,8.7v118.3c0,4.8-3.9,8.7-8.7,8.7h-66.8c-4.8,0-8.7-3.9-8.7-8.7v-118.3
	C682.8,1130.7,686.8,1126.7,691.6,1126.7z"/>
</svg>
