<svg width="1em" height="1em" viewBox="0 0 24 24" fill="none" xmlns="http://www.w3.org/2000/svg">
<g>
<path d="M20.0623 17.2003L18.8845 14.9896C18.7228 14.6855 18.286 14.6903 18.1315 14.9992L16.9827 17.2872C16.7775 17.6396 16.6882 18.0644 16.7679 18.5181C16.8958 19.2446 17.475 19.8335 18.1991 19.9711C19.3528 20.1883 20.3592 19.3073 20.3592 18.1947C20.3592 17.8279 20.2506 17.49 20.0623 17.2052V17.2003Z" fill="currentColor"/>
<path d="M9.35599 2.17621C9.10498 1.9252 8.68986 1.9421 8.46057 2.22207C8.26025 2.46583 8.30369 2.83027 8.52815 3.05473L10.249 4.77557L4.00764 11.0169C3.52252 11.502 3.52252 12.2888 4.00764 12.7764L10.2224 18.9912C10.7076 19.4763 11.4944 19.4763 11.9819 18.9912L18.1967 12.7764C18.6818 12.2913 18.6818 11.5044 18.1967 11.0169L9.35599 2.17621ZM11.101 5.62754L16.8331 11.3596C17.031 11.5575 16.891 11.8954 16.611 11.8954H5.5909C5.31093 11.8954 5.17095 11.5575 5.36886 11.3596L11.101 5.62995V5.62754Z" fill="currentColor"/>
</g>
</svg>
