<svg width="1em" height="1em" viewBox="0 0 30 30" fill="none" xmlns="http://www.w3.org/2000/svg">
<path d="M9.55261 9L12.3805 17.0207H12.4919L15.322 9H16.5317L13.0334 18.5297H11.8433L8.34283 9H9.55261Z" fill="currentColor"/>
<path d="M16.7588 18.5297H15.5491L19.0474 9H20.2375L23.7358 18.5297H22.526L19.6806 10.5068H19.6064L16.7588 18.5275V18.5297ZM17.2065 14.8065H22.0827V15.8306H17.2065V14.8065Z" fill="currentColor"/>
<path d="M23.8799 21.5585L21.7879 19.7897C21.6154 19.6433 21.3512 19.7656 21.3512 19.9927V21.3859H10.651V19.9927C10.651 19.7656 10.3868 19.6433 10.2143 19.7897L8.12229 21.5585C7.9607 21.696 7.9607 21.9472 8.12229 22.0825L10.2143 23.8513C10.3868 23.9977 10.651 23.8754 10.651 23.6483V22.2551H21.3512V23.6483C21.3512 23.8754 21.6154 23.9977 21.7879 23.8513L23.8799 22.0825C24.0415 21.945 24.0415 21.6938 23.8799 21.5585Z" fill="currentColor"/>
</svg>
