<svg width="1em" height="1em" viewBox="0 0 32 32" fill="none" xmlns="http://www.w3.org/2000/svg">
<path d="M13.38 6H10.88V7.5H13.38V6Z" fill="currentColor"/>
<path d="M17.88 6H15.38V7.5H17.88V6Z" fill="currentColor"/>
<path d="M8.88 6H6.38V7.5H8.88V6Z" fill="currentColor"/>
<path d="M22.38 6H19.88V7.5H22.38V6Z" fill="currentColor"/>
<path d="M17.88 25.1H15.38V26.6H17.88V25.1Z" fill="currentColor"/>
<path d="M22.38 25.1H19.88V26.6H22.38V25.1Z" fill="currentColor"/>
<path d="M13.38 25.1H10.88V26.6H13.38V25.1Z" fill="currentColor"/>
<path d="M8.88 25.1H6.38V26.6H8.88V25.1Z" fill="currentColor"/>
<path d="M26.88 6H24.38V7.5H26.88V6Z" fill="currentColor"/>
<path d="M26.88 25.1H24.38V26.6H26.88V25.1Z" fill="currentColor"/>
<path d="M21.51 14.91C21.82 13.29 22.33 10.59 23.06 10.53C23.22 10.5 23.87 10.67 24.45 13.32C24.54 13.72 24.94 13.98 25.34 13.89C25.74 13.8 26 13.4 25.91 13C25.66 11.87 25.03 8.89001 22.94 9.04001C21.07 9.19001 20.57 11.83 20.04 14.64C19.98 14.95 19.92 15.27 19.85 15.61H12.77C12.38 12.93 11.78 10.55 9.99 10.32C8.08 10.09 7.18 12.44 6.89 13.22C6.75 13.61 6.94 14.04 7.33 14.18C7.72 14.32 8.15 14.13 8.29 13.74C8.57 12.98 9.12 11.7 9.79 11.81C10.54 11.91 10.97 13.77 11.25 15.61H6V17.11H11.46C11.47 17.22 11.49 17.33 11.5 17.44C11.66 18.68 11.81 19.86 12.04 20.83C12.35 22.11 12.88 23.59 14.29 23.59C15.48 23.59 15.92 22.42 16.25 21.57C16.38 21.23 16.51 20.88 16.67 20.63C16.8 20.41 16.88 20.29 17.53 20.54C18.31 20.83 18.91 20.65 19.27 20.45C20.19 19.93 20.69 18.66 21.06 17.12H26.89V15.62H21.39C21.43 15.39 21.48 15.16 21.52 14.93L21.51 14.91ZM18.53 19.12C18.48 19.15 18.35 19.22 18.06 19.12C17.61 18.95 16.24 18.44 15.39 19.84C15.17 20.21 15.01 20.62 14.86 21.02C14.73 21.36 14.46 22.08 14.3 22.08C14.05 22.08 13.74 21.46 13.5 20.47C13.29 19.58 13.14 18.44 12.99 17.24C12.99 17.19 12.98 17.15 12.97 17.1H19.51C19.25 18.07 18.94 18.89 18.54 19.12H18.53Z" fill="currentColor"/>
</svg>
