<svg xmlns="http://www.w3.org/2000/svg" width="32" height="32" viewBox="0 9 32 32" fill="none">
<path d="M23.8633 19.7274L16.1629 24.1735C16.0617 24.2327 15.9359 24.2327 15.8347 24.1735L8.13672 19.7274C7.9196 19.6015 7.9196 19.2857 8.13672 19.1599L14.7812 15.3257C15.5362 14.889 16.4664 14.889 17.2213 15.3257L23.8658 19.1599C24.0829 19.2857 24.0829 19.6015 23.8658 19.7274H23.8633Z" fill="currentColor"/>
<path d="M15.2006 25.7796V34.6718C15.2006 34.9235 14.9268 35.0814 14.7097 34.9556L8.06519 31.1189C7.31019 30.6822 6.84387 29.8778 6.84387 29.0044V21.3336C6.84387 21.0819 7.11774 20.924 7.33487 21.0498L15.0353 25.4959C15.1365 25.5551 15.1982 25.6637 15.1982 25.7796H15.2006Z" fill="currentColor"/>
<path d="M25.1538 21.3336V29.0044C25.1538 29.8754 24.6899 30.6822 23.9325 31.1189L17.288 34.9556C17.0709 35.0814 16.797 34.9235 16.797 34.6718V25.7796C16.797 25.6637 16.8587 25.5551 16.9598 25.4959L24.6603 21.0498C24.8774 20.924 25.1513 21.0819 25.1513 21.3336H25.1538Z" fill="currentColor"/>
</svg>