<svg width="32" height="32" viewBox="0 0 32 32" fill="none" xmlns="http://www.w3.org/2000/svg">
<path d="M22.5 6H9.5C8.12 6 7 7.12 7 8.5V24.5C7 25.88 8.12 27 9.5 27H18.21C18.61 27 19 26.84 19.29 26.55L24.58 21.08C24.65 21.01 24.71 20.93 24.76 20.85C24.86 20.71 24.92 20.55 24.95 20.38C24.99 20.27 25 20.16 25 20.04V8.5C25 7.12 23.88 6 22.5 6ZM12.1 11.63H19.9C20.23 11.63 20.5 11.89 20.5 12.23C20.5 12.57 20.23 12.83 19.9 12.83H12.1C11.77 12.83 11.5 12.56 11.5 12.23C11.5 11.9 11.77 11.63 12.1 11.63ZM12.1 15.9H19.9C20.23 15.9 20.5 16.17 20.5 16.5C20.5 16.83 20.23 17.1 19.9 17.1H12.1C11.77 17.1 11.5 16.83 11.5 16.5C11.5 16.17 11.77 15.9 12.1 15.9ZM11.5 20.78C11.5 20.45 11.77 20.18 12.1 20.18H16.71V21.38H12.1C11.77 21.38 11.5 21.11 11.5 20.78ZM18.21 25.5V20.04H23.5L18.21 25.5Z" fill="currentColor"/>
</svg>
