<svg width="32" height="32" viewBox="0 0 32 32" fill="none" xmlns="http://www.w3.org/2000/svg">
<g mask="url(#mask0_84_2812)">
<path d="M25.8927 17.8661L24.544 17.1766C24.3854 17.0948 24.2092 17.0529 24.0307 17.0545C23.8522 17.0561 23.6768 17.1012 23.5197 17.186L15.9957 21.2075L8.47067 17.186C8.31355 17.1012 8.13817 17.0561 7.95968 17.0545C7.78119 17.0529 7.60498 17.0948 7.44634 17.1766L6.09766 17.8661C5.91777 17.9578 5.76646 18.0971 5.66015 18.2688C5.55385 18.4404 5.49666 18.638 5.49474 18.8399C5.49281 19.0418 5.54625 19.2404 5.64926 19.414C5.75227 19.5877 5.90089 19.7298 6.079 19.825L15.4731 24.8673C15.6344 24.9544 15.8148 25 15.9981 25C16.1814 25 16.3618 24.9544 16.5231 24.8673L25.9172 19.825C26.0949 19.7295 26.2431 19.5872 26.3457 19.4135C26.4484 19.2398 26.5016 19.0413 26.4995 18.8396C26.4975 18.6378 26.4403 18.4405 26.3342 18.2689C26.228 18.0973 26.0769 17.958 25.8973 17.8661H25.8927Z" fill="currentColor"/>
<path d="M6.60517 14.2868L15.4462 19.3291C15.613 19.4241 15.8015 19.474 15.9934 19.474C16.1853 19.474 16.3739 19.4241 16.5406 19.3291L25.3828 14.2868C25.5539 14.1892 25.6959 14.0477 25.794 13.8769C25.8921 13.7061 25.9429 13.5122 25.941 13.3153C25.9391 13.1183 25.8846 12.9254 25.7832 12.7566C25.6818 12.5877 25.5371 12.449 25.3642 12.3548L16.5219 7.5469C16.3606 7.4598 16.1803 7.41418 15.997 7.41418C15.8137 7.41418 15.6332 7.4598 15.4719 7.5469L6.63087 12.3548C6.45754 12.4486 6.31249 12.5872 6.21075 12.756C6.109 12.9248 6.05426 13.1178 6.05224 13.3149C6.05021 13.512 6.10095 13.7061 6.19921 13.877C6.29747 14.0479 6.43964 14.1894 6.61101 14.2868H6.60517Z" fill="currentColor"/>
</g>
</svg>
