<svg width="1em" height="1em" viewBox="0 0 24 24" fill="none" xmlns="http://www.w3.org/2000/svg">
<path d="M7.83333 11.2778C5.99556 11.2778 4.5 9.7822 4.5 7.94442C4.5 6.10664 5.99556 4.61108 7.83333 4.61108C9.67111 4.61108 11.1667 6.10664 11.1667 7.94442C11.1667 9.7822 9.67111 11.2778 7.83333 11.2778ZM7.83333 5.94442C6.73111 5.94442 5.83333 6.8422 5.83333 7.94442C5.83333 9.04664 6.73111 9.94442 7.83333 9.94442C8.93556 9.94442 9.83333 9.04664 9.83333 7.94442C9.83333 6.8422 8.93556 5.94442 7.83333 5.94442Z" fill="currentColor"/>
<path d="M7.94445 19.3888C6.10667 19.3888 4.61111 17.8933 4.61111 16.0555C4.61111 14.2177 6.10667 12.7222 7.94445 12.7222C9.78223 12.7222 11.2778 14.2177 11.2778 16.0555C11.2778 17.8933 9.78223 19.3888 7.94445 19.3888ZM7.94445 14.0555C6.84223 14.0555 5.94445 14.9533 5.94445 16.0555C5.94445 17.1577 6.84223 18.0555 7.94445 18.0555C9.04667 18.0555 9.94445 17.1577 9.94445 16.0555C9.94445 14.9533 9.04667 14.0555 7.94445 14.0555Z" fill="currentColor"/>
<path d="M16.1667 11.3888C14.3289 11.3888 12.8333 9.89328 12.8333 8.0555C12.8333 6.21772 14.3289 4.72217 16.1667 4.72217C18.0044 4.72217 19.5 6.21772 19.5 8.0555C19.5 9.89328 18.0044 11.3888 16.1667 11.3888ZM16.1667 6.0555C15.0644 6.0555 14.1667 6.95328 14.1667 8.0555C14.1667 9.15772 15.0644 10.0555 16.1667 10.0555C17.2689 10.0555 18.1667 9.15772 18.1667 8.0555C18.1667 6.95328 17.2689 6.0555 16.1667 6.0555Z" fill="currentColor"/>
</svg>
