<svg width="32" height="32" viewBox="0 0 32 32" fill="none" xmlns="http://www.w3.org/2000/svg">
<path d="M11.26 25.04H7.5V7.5H11.26C11.67 7.5 12.01 7.16 12.01 6.75C12.01 6.34 11.67 6 11.26 6H6.75C6.34 6 6 6.34 6 6.75V25.79C6 26.2 6.34 26.54 6.75 26.54H11.26C11.67 26.54 12.01 26.2 12.01 25.79C12.01 25.38 11.67 25.04 11.26 25.04Z" fill="currentColor"/>
<path d="M25.79 6H21.28C20.87 6 20.53 6.34 20.53 6.75C20.53 7.16 20.87 7.5 21.28 7.5H25.04V25.04H21.28C20.87 25.04 20.53 25.38 20.53 25.79C20.53 26.2 20.87 26.54 21.28 26.54H25.79C26.2 26.54 26.54 26.2 26.54 25.79V6.75C26.54 6.34 26.2 6 25.79 6Z" fill="currentColor"/>
<path d="M12.58 9.37H10.19C9.77579 9.37 9.44 9.70578 9.44 10.12V12.51C9.44 12.9242 9.77579 13.26 10.19 13.26H12.58C12.9942 13.26 13.33 12.9242 13.33 12.51V10.12C13.33 9.70578 12.9942 9.37 12.58 9.37Z" fill="currentColor"/>
<path d="M17.46 9.37H15.07C14.6558 9.37 14.32 9.70578 14.32 10.12V12.51C14.32 12.9242 14.6558 13.26 15.07 13.26H17.46C17.8742 13.26 18.21 12.9242 18.21 12.51V10.12C18.21 9.70578 17.8742 9.37 17.46 9.37Z" fill="currentColor"/>
<path d="M22.35 9.37H19.96C19.5458 9.37 19.21 9.70578 19.21 10.12V12.51C19.21 12.9242 19.5458 13.26 19.96 13.26H22.35C22.7642 13.26 23.1 12.9242 23.1 12.51V10.12C23.1 9.70578 22.7642 9.37 22.35 9.37Z" fill="currentColor"/>
<path d="M12.58 14.32H10.19C9.77579 14.32 9.44 14.6558 9.44 15.07V17.46C9.44 17.8742 9.77579 18.21 10.19 18.21H12.58C12.9942 18.21 13.33 17.8742 13.33 17.46V15.07C13.33 14.6558 12.9942 14.32 12.58 14.32Z" fill="currentColor"/>
<path d="M17.46 14.32H15.07C14.6558 14.32 14.32 14.6558 14.32 15.07V17.46C14.32 17.8742 14.6558 18.21 15.07 18.21H17.46C17.8742 18.21 18.21 17.8742 18.21 17.46V15.07C18.21 14.6558 17.8742 14.32 17.46 14.32Z" fill="currentColor"/>
<path d="M22.35 14.32H19.96C19.5458 14.32 19.21 14.6558 19.21 15.07V17.46C19.21 17.8742 19.5458 18.21 19.96 18.21H22.35C22.7642 18.21 23.1 17.8742 23.1 17.46V15.07C23.1 14.6558 22.7642 14.32 22.35 14.32Z" fill="currentColor"/>
<path d="M12.58 19.28H10.19C9.77579 19.28 9.44 19.6158 9.44 20.03V22.42C9.44 22.8342 9.77579 23.17 10.19 23.17H12.58C12.9942 23.17 13.33 22.8342 13.33 22.42V20.03C13.33 19.6158 12.9942 19.28 12.58 19.28Z" fill="currentColor"/>
<path d="M17.46 19.28H15.07C14.6558 19.28 14.32 19.6158 14.32 20.03V22.42C14.32 22.8342 14.6558 23.17 15.07 23.17H17.46C17.8742 23.17 18.21 22.8342 18.21 22.42V20.03C18.21 19.6158 17.8742 19.28 17.46 19.28Z" fill="currentColor"/>
<path d="M22.35 19.28H19.96C19.5458 19.28 19.21 19.6158 19.21 20.03V22.42C19.21 22.8342 19.5458 23.17 19.96 23.17H22.35C22.7642 23.17 23.1 22.8342 23.1 22.42V20.03C23.1 19.6158 22.7642 19.28 22.35 19.28Z" fill="currentColor"/>
</svg>
