<svg width="1em" height="1em" viewBox="0 0 24 24" fill="none" xmlns="http://www.w3.org/2000/svg">
  <path
    d="M15.4173 20.5H9.56381C8.54659 20.5 7.71973 19.6732 7.71973 18.6559V12.8025C7.71973 11.7852 8.54659 10.9584 9.56381 10.9584H15.4173C16.4345 10.9584 17.2614 11.7852 17.2614 12.8025V18.6559C17.2614 19.6732 16.4345 20.5 15.4173 20.5ZM9.56183 12.1481C9.20094 12.1481 8.90747 12.4416 8.90747 12.8025V18.6559C8.90747 19.0168 9.20094 19.3103 9.56183 19.3103H15.4153C15.7762 19.3103 16.0697 19.0168 16.0697 18.6559V12.8025C16.0697 12.4416 15.7762 12.1481 15.4153 12.1481H9.56183Z"
    fill="currentColor" />
  <path
    d="M6.44094 16.3241H5.39199C4.37279 16.3241 3.54395 15.4952 3.54395 14.476V8.63046C3.54395 7.61126 4.37279 6.78241 5.39199 6.78241H11.2375C12.2567 6.78241 13.0856 7.61126 13.0856 8.63046V9.6794C13.0856 10.0086 12.8199 10.2743 12.4907 10.2743C12.1616 10.2743 11.8959 10.0086 11.8959 9.6794V8.63046C11.8959 8.26759 11.6004 7.97214 11.2375 7.97214H5.39199C5.02913 7.97214 4.73368 8.26759 4.73368 8.63046V14.476C4.73368 14.8389 5.02913 15.1343 5.39199 15.1343H6.44094C6.7701 15.1343 7.03581 15.4 7.03581 15.7292C7.03581 16.0583 6.7701 16.3241 6.44094 16.3241Z"
    fill="currentColor" />
  <path
    d="M17.9158 10.5796C17.5866 10.5796 17.3209 10.3139 17.3209 9.98476C17.3209 8.13671 15.8179 6.63369 13.9699 6.63369C13.6407 6.63369 13.375 6.36798 13.375 6.03882C13.375 5.70966 13.6407 5.44396 13.9699 5.44396C15.8179 5.44396 17.3209 3.94093 17.3209 2.09288C17.3209 1.76372 17.5866 1.49802 17.9158 1.49802C18.245 1.49802 18.5107 1.76372 18.5107 2.09288C18.5107 3.94093 20.0137 5.44396 21.8617 5.44396C22.1909 5.44396 22.4566 5.70966 22.4566 6.03882C22.4566 6.36798 22.1909 6.63369 21.8617 6.63369C20.0137 6.63369 18.5107 8.13671 18.5107 9.98476C18.5107 10.3139 18.245 10.5796 17.9158 10.5796ZM16.2165 6.04081C16.9244 6.44531 17.5133 7.03423 17.9178 7.74212C18.3223 7.03423 18.9112 6.44531 19.6191 6.04081C18.9112 5.6363 18.3223 5.04738 17.9178 4.33949C17.5133 5.04738 16.9244 5.6363 16.2165 6.04081Z"
    fill="currentColor" />
</svg>
