<svg width="32" height="32" viewBox="0 0 32 32" fill="none" xmlns="http://www.w3.org/2000/svg">
<path d="M22.6019 27H19.7103V25.5963H22.5551L22.6019 27ZM17.8107 27H14.966V25.5963H17.8107V27ZM13.0664 27H10.2216V25.5963H13.0664V27ZM8.13484 26.8035C7.03998 26.4666 6.13228 25.7274 5.57082 24.7261L6.79668 24.043C7.18035 24.7261 7.80732 25.2314 8.55593 25.4653L8.14419 26.8035H8.13484ZM24.7635 26.4198L24.071 25.2033C24.7541 24.8103 25.2501 24.1833 25.4747 23.4347L26.8222 23.8371C26.4947 24.9319 25.7648 25.849 24.7635 26.4198ZM5 22.5738V19.7291H6.40366V22.5644H5V22.5738ZM27 21.7597H25.5963V18.9149H27V21.7597ZM6.40366 17.8201H5V14.9753H6.40366V17.8201ZM27 17.006H25.5963V14.1612H27V17.006ZM6.40366 13.0757H5V10.231H6.40366V13.0757ZM27 12.2616H25.5963V9.44492L26.7473 9.41684H27V12.2616ZM6.53467 8.55593L5.19651 8.14419C5.53339 7.04934 6.26329 6.13228 7.26457 5.57082L7.95704 6.79668C7.27393 7.18035 6.76861 7.80732 6.54402 8.55593H6.53467ZM25.2033 7.94768C24.8197 7.26457 24.1927 6.75925 23.4441 6.53467L23.8464 5.18715C24.9413 5.51467 25.8584 6.25393 26.4198 7.24585L25.2033 7.93832V7.94768ZM21.7597 6.40366H18.9149V5H21.7597V6.40366ZM17.0153 6.40366H14.1706V5H17.0153V6.40366ZM12.2709 6.40366H9.44492L9.4262 5H12.2709V6.40366Z" fill="currentColor"/>
<path d="M16.0047 17.9137C18.351 17.9137 20.2531 16.0116 20.2531 13.6653C20.2531 11.3189 18.351 9.41687 16.0047 9.41687C13.6583 9.41687 11.7563 11.3189 11.7563 13.6653C11.7563 16.0116 13.6583 17.9137 16.0047 17.9137Z" fill="currentColor"/>
<path d="M22.5083 24.0429H9.50106C8.96767 24.0429 8.56529 23.5751 8.63079 23.051C8.95831 20.6367 10.4462 18.578 12.5049 17.4738C13.4219 18.3347 14.6572 18.8494 16.0047 18.8494C17.3522 18.8494 18.5874 18.3347 19.5045 17.4738C21.5632 18.578 23.051 20.6274 23.3786 23.051C23.4534 23.5751 23.0417 24.0429 22.5083 24.0429Z" fill="currentColor"/>
</svg>
