<svg width="32" height="32" viewBox="0 0 32 32" fill="none" xmlns="http://www.w3.org/2000/svg">
<path d="M15.92 24.52C15.51 24.52 15.17 24.86 15.17 25.27V28.09C15.17 28.5 15.51 28.84 15.92 28.84C16.33 28.84 16.67 28.5 16.67 28.09V25.27C16.67 24.86 16.33 24.52 15.92 24.52Z" fill="currentColor"/>
<path d="M8.77 22L6.78 23.99C6.49 24.28 6.49 24.76 6.78 25.05C6.93 25.2 7.12 25.27 7.31 25.27C7.5 25.27 7.69 25.2 7.84 25.05L9.83 23.06C10.12 22.77 10.12 22.29 9.83 22C9.54 21.71 9.06 21.71 8.77 22Z" fill="currentColor"/>
<path d="M7.32 15.92C7.32 15.51 6.98 15.17 6.57 15.17H3.75C3.34 15.17 3 15.51 3 15.92C3 16.33 3.34 16.67 3.75 16.67H6.57C6.98 16.67 7.32 16.33 7.32 15.92Z" fill="currentColor"/>
<path d="M8.77 9.83C8.92 9.98 9.11 10.05 9.3 10.05C9.49 10.05 9.68 9.98 9.83 9.83C10.12 9.54 10.12 9.06 9.83 8.77L7.84 6.78C7.55 6.49 7.07 6.49 6.78 6.78C6.49 7.07 6.49 7.55 6.78 7.84L8.77 9.83Z" fill="currentColor"/>
<path d="M15.92 7.32C16.33 7.32 16.67 6.98 16.67 6.57V3.75C16.67 3.34 16.33 3 15.92 3C15.51 3 15.17 3.34 15.17 3.75V6.57C15.17 6.98 15.51 7.32 15.92 7.32Z" fill="currentColor"/>
<path d="M22.53 10.05C22.72 10.05 22.91 9.98 23.06 9.83L25.05 7.84C25.34 7.55 25.34 7.07 25.05 6.78C24.76 6.49 24.28 6.49 23.99 6.78L22 8.77C21.71 9.06 21.71 9.54 22 9.83C22.15 9.98 22.34 10.05 22.53 10.05Z" fill="currentColor"/>
<path d="M28.08 15.17H25.26C24.85 15.17 24.51 15.51 24.51 15.92C24.51 16.33 24.85 16.67 25.26 16.67H28.08C28.49 16.67 28.83 16.33 28.83 15.92C28.83 15.51 28.49 15.17 28.08 15.17Z" fill="currentColor"/>
<path d="M23.06 22C22.77 21.71 22.29 21.71 22 22C21.71 22.29 21.71 22.77 22 23.06L23.99 25.05C24.14 25.2 24.33 25.27 24.52 25.27C24.71 25.27 24.9 25.2 25.05 25.05C25.34 24.76 25.34 24.28 25.05 23.99L23.06 22Z" fill="currentColor"/>
<path d="M15.92 8.91998C12.06 8.91998 8.92 12.06 8.92 15.92C8.92 19.78 12.06 22.92 15.92 22.92C19.78 22.92 22.92 19.78 22.92 15.92C22.92 12.06 19.78 8.91998 15.92 8.91998ZM15.92 21.42V10.42C18.95 10.42 21.42 12.89 21.42 15.92C21.42 18.95 18.95 21.42 15.92 21.42Z" fill="currentColor"/>
</svg>
