<svg width="1em" height="1em" viewBox="0 0 32 32" fill="none" xmlns="http://www.w3.org/2000/svg">
<path d="M19.36 25.97C18.64 25.97 17.64 25.71 16.58 24.64L9.33 17.39C8.69 16.75 8.04 16.43 7.46 16.5C7.03 16.54 6.65 16.79 6.39 17.2C6.17 17.55 5.7 17.65 5.35 17.42C5 17.19 4.9 16.73 5.13 16.38C5.64 15.6 6.43 15.1 7.3 15C8.04 14.93 9.16 15.09 10.39 16.32L17.64 23.57C18.28 24.21 18.93 24.51 19.51 24.46C19.94 24.41 20.32 24.17 20.58 23.76C20.8 23.41 21.27 23.31 21.62 23.54C21.97 23.77 22.07 24.23 21.84 24.58C21.33 25.36 20.54 25.86 19.67 25.96C19.57 25.97 19.47 25.98 19.36 25.98V25.97Z" fill="currentColor"/>
<path d="M26.48 15.15C26.25 15.38 25.94 15.51 25.62 15.51C25.3 15.51 25 15.39 24.76 15.15L22.07 12.46L16.26 18.27C16.03 18.5 15.72 18.62 15.41 18.62C15.1 18.62 14.79 18.5 14.55 18.27C14.08 17.8 14.08 17.03 14.55 16.55L20.35 10.76L17.66 8.07001C17.2 7.60001 17.2 6.83001 17.66 6.36001C18.13 5.89001 18.9 5.89001 19.37 6.36001L26.45 13.44C26.92 13.91 26.92 14.68 26.45 15.15H26.48Z" fill="white"/>
<path d="M26.48 15.15C26.25 15.38 25.94 15.51 25.62 15.51C25.3 15.51 25 15.39 24.76 15.15L22.07 12.46L16.26 18.27C16.03 18.5 15.72 18.62 15.41 18.62C15.1 18.62 14.79 18.5 14.55 18.27C14.08 17.8 14.08 17.03 14.55 16.55L20.35 10.76L17.66 8.07001C17.2 7.60001 17.2 6.83001 17.66 6.36001C18.13 5.89001 18.9 5.89001 19.37 6.36001L26.45 13.44C26.92 13.91 26.92 14.68 26.45 15.15H26.48Z" fill="currentColor"/>
</svg>
