<svg width="32" height="32" viewBox="0 0 32 32" fill="none" xmlns="http://www.w3.org/2000/svg">
<path fill-rule="evenodd" clip-rule="evenodd" d="M16.67 7.85C16.67 7.38056 16.2894 7 15.82 7C15.3506 7 14.97 7.38056 14.97 7.85V24.77C14.97 25.2394 15.3506 25.62 15.82 25.62C16.2894 25.62 16.67 25.2394 16.67 24.77V7.85ZM8.23104 13.449C8.56299 13.7809 8.56299 14.3191 8.23104 14.6511L6.90205 15.98H12.21C12.6794 15.98 13.06 16.3606 13.06 16.83C13.06 17.2995 12.6794 17.68 12.21 17.68H6.90211L8.23104 19.009C8.56299 19.3409 8.56299 19.8791 8.23104 20.2111C7.8991 20.543 7.36091 20.543 7.02896 20.2111L4.25316 17.4353C4.09687 17.2811 4 17.0669 4 16.83V16.83C4 16.6046 4.08955 16.3884 4.24896 16.229L7.02896 13.449C7.36091 13.117 7.8991 13.117 8.23104 13.449ZM19.42 15.98C18.9506 15.98 18.57 16.3606 18.57 16.83C18.57 17.2995 18.9506 17.68 19.42 17.68H24.7379L23.409 19.009C23.077 19.3409 23.077 19.8791 23.409 20.2111C23.7409 20.543 24.2791 20.543 24.611 20.2111L27.3865 17.4356C27.543 17.2814 27.64 17.0671 27.64 16.83C27.64 16.6204 27.5641 16.4285 27.4383 16.2802C27.4233 16.2626 27.4075 16.2455 27.391 16.229L24.611 13.449C24.2791 13.117 23.7409 13.117 23.409 13.449C23.077 13.7809 23.077 14.3191 23.409 14.6511L24.738 15.98H19.42Z" fill="currentColor"/>
</svg>
