<svg width="1em" height="1em" viewBox="0 0 24 24" fill="none" xmlns="http://www.w3.org/2000/svg">
<path d="M12.0001 9.44226C10.4994 9.44226 9.28019 8.22058 9.28019 6.72239C9.28019 5.22419 10.4994 4 12.0001 4C13.5008 4 14.7199 5.22168 14.7199 6.71987C14.7199 8.21807 13.4983 9.43975 12.0001 9.43975V9.44226ZM12.0001 5.42027C11.2836 5.42027 10.6979 6.00346 10.6979 6.72239C10.6979 7.44132 11.2811 8.02451 12.0001 8.02451C12.719 8.02451 13.3022 7.44132 13.3022 6.72239C13.3022 6.00346 12.719 5.42027 12.0001 5.42027Z" fill="currentColor"/>
<path d="M12.0001 20C10.4994 20 9.28019 18.7783 9.28019 17.2801C9.28019 15.7819 10.5019 14.5602 12.0001 14.5602C13.4983 14.5602 14.7199 15.7819 14.7199 17.2801C14.7199 18.7783 13.4983 20 12.0001 20ZM12.0001 15.978C11.2836 15.978 10.6979 16.5612 10.6979 17.2801C10.6979 17.999 11.2811 18.5822 12.0001 18.5822C12.719 18.5822 13.3022 17.999 13.3022 17.2801C13.3022 16.5612 12.719 15.978 12.0001 15.978Z" fill="currentColor"/>
<path d="M19.9184 12.7529H4.08176C3.66448 12.7529 3.32764 12.416 3.32764 11.9988C3.32764 11.5815 3.66448 11.2446 4.08176 11.2446H19.9184C20.3356 11.2446 20.6725 11.5815 20.6725 11.9988C20.6725 12.416 20.3356 12.7529 19.9184 12.7529Z" fill="currentColor"/>
</svg>
