<svg width="32" height="32" viewBox="0 0 32 32" fill="none" xmlns="http://www.w3.org/2000/svg">
<path d="M21.0317 9.28284L16.4356 13.8789L11.8393 9.28257C11.5579 9.00121 11.1762 8.84308 10.7783 8.84311C10.3804 8.84314 9.99891 9.00109 9.71751 9.28249C9.43612 9.56388 9.27795 9.94557 9.27792 10.3435C9.27789 10.7414 9.43602 11.1231 9.71738 11.4045L14.3137 16.0008L9.71765 20.5969C9.43638 20.8781 9.2783 21.2595 9.27828 21.6572C9.27825 22.055 9.43628 22.4363 9.71751 22.7175C9.99875 22.9988 10.3801 23.1568 10.7778 23.1568C11.1756 23.1567 11.5571 22.9989 11.8384 22.7176L16.4345 18.1215L21.0308 22.7179C21.3122 22.9992 21.6936 23.1571 22.0915 23.1571C22.4895 23.1571 22.8712 22.9989 23.1525 22.7175C23.4339 22.4361 23.5919 22.0546 23.5919 21.6567C23.5919 21.2588 23.434 20.8773 23.1527 20.596L18.5563 15.9996L23.1524 11.4036C23.4337 11.1223 23.5915 10.7408 23.5916 10.343C23.5916 9.94525 23.4338 9.56372 23.1525 9.28249C22.8713 9.00125 22.4898 8.84344 22.092 8.84347C21.6943 8.84349 21.3129 9.00157 21.0317 9.28284Z" fill="#565656"/>
</svg>
