<svg width="1em" height="1em" viewBox="0 0 24 24" fill="none" xmlns="http://www.w3.org/2000/svg">
<path d="M19.0128 4H10.5437C10.206 4.01336 9.88734 4.15987 9.65735 4.40751C9.42737 4.65514 9.30478 4.98376 9.31638 5.32152V7.38447H4.98437C4.64667 7.39783 4.328 7.54434 4.09801 7.79198C3.86803 8.03961 3.74544 8.36823 3.75704 8.70599V18.6785C3.74544 19.0162 3.86803 19.3449 4.09801 19.5925C4.328 19.8401 4.64667 19.9866 4.98437 20H13.4563C13.7938 19.9864 14.1122 19.8398 14.342 19.5922C14.5718 19.3446 14.6943 19.0161 14.6827 18.6785V16.6155H19.0156C19.3533 16.6022 19.672 16.4557 19.902 16.208C20.1319 15.9604 20.2545 15.6318 20.2429 15.294V5.32152C20.2545 4.98329 20.1316 4.65427 19.901 4.40655C19.6704 4.15883 19.351 4.01264 19.0128 4ZM18.8403 15.2166H13.9823C13.796 15.2166 13.6174 15.2906 13.4857 15.4223C13.354 15.554 13.28 15.7326 13.28 15.9189V18.6011H5.15597V8.7834H10.014C10.2002 8.7834 10.3789 8.70941 10.5106 8.57771C10.6423 8.44601 10.7162 8.26739 10.7162 8.08114V5.39893H18.8412L18.8403 15.2166Z" fill="currentColor"/>
<path d="M11.5725 9.62368C11.5277 9.5099 11.4867 9.39612 11.4382 9.28421C11.4082 9.21446 11.3536 9.15815 11.2849 9.126C11.2161 9.09385 11.1379 9.08808 11.0651 9.10981C11.027 9.11691 10.9906 9.13161 10.9582 9.15303C10.9258 9.17445 10.898 9.20217 10.8765 9.23452C10.8551 9.26688 10.8403 9.30322 10.8331 9.3414C10.8259 9.37957 10.8265 9.41879 10.8348 9.45674C10.8932 9.7067 10.9821 9.94852 11.0996 10.1767C11.1366 10.2492 11.2 10.3047 11.2768 10.3316C11.3535 10.3586 11.4378 10.3549 11.5119 10.3213C11.5904 10.286 11.6522 10.2218 11.6843 10.142C11.7165 10.0622 11.7165 9.97303 11.6844 9.89321C11.6419 9.8065 11.6061 9.71672 11.5771 9.62461" fill="currentColor"/>
<path d="M11.5725 9.62368C11.5277 9.5099 11.4867 9.39612 11.4382 9.28421C11.4082 9.21446 11.3536 9.15815 11.2849 9.126C11.2161 9.09385 11.1379 9.08808 11.0651 9.10981C11.027 9.11691 10.9906 9.13161 10.9582 9.15303C10.9258 9.17445 10.898 9.20217 10.8765 9.23452C10.8551 9.26688 10.8403 9.30322 10.8331 9.3414C10.8259 9.37957 10.8265 9.41879 10.8348 9.45674C10.8932 9.7067 10.9821 9.94852 11.0996 10.1767C11.1366 10.2492 11.2 10.3047 11.2768 10.3316C11.3535 10.3586 11.4378 10.3549 11.5119 10.3213C11.5904 10.286 11.6522 10.2218 11.6843 10.142C11.7165 10.0622 11.7165 9.97303 11.6844 9.89321C11.6403 9.80634 11.6029 9.71624 11.5725 9.62368Z" stroke="currentColor" stroke-width="0.25" stroke-linecap="round" stroke-linejoin="round"/>
<path d="M12.4705 11.919C12.5279 12.0423 12.5708 12.1718 12.5982 12.3051C12.6035 12.3812 12.5802 12.4566 12.533 12.5166C12.4858 12.5766 12.418 12.6169 12.3427 12.6296C12.2817 12.6468 12.2166 12.6423 12.1586 12.6167C12.1006 12.5912 12.0532 12.5463 12.0247 12.4897C11.891 12.2569 11.7926 12.0054 11.7328 11.7436C11.7219 11.6714 11.7368 11.5976 11.7748 11.5352C11.8128 11.4728 11.8716 11.4258 11.9408 11.4023C12.0164 11.3801 12.0974 11.3854 12.1695 11.4173C12.2416 11.4493 12.3 11.5057 12.3343 11.5767C12.3809 11.6812 12.4183 11.7893 12.4705 11.9218" fill="currentColor"/>
<path d="M12.4705 11.919C12.5279 12.0423 12.5708 12.1718 12.5982 12.3051C12.6035 12.3812 12.5802 12.4566 12.533 12.5166C12.4858 12.5766 12.418 12.6169 12.3427 12.6296C12.2817 12.6468 12.2166 12.6423 12.1586 12.6167C12.1006 12.5912 12.0532 12.5463 12.0247 12.4897C11.891 12.2569 11.7926 12.0054 11.7328 11.7436C11.7219 11.6714 11.7368 11.5976 11.7748 11.5352C11.8128 11.4728 11.8716 11.4258 11.9408 11.4023C12.0164 11.3801 12.0974 11.3854 12.1695 11.4173C12.2416 11.4493 12.3 11.5057 12.3343 11.5767C12.3809 11.6774 12.4183 11.7865 12.4705 11.919Z" stroke="currentColor" stroke-width="0.25" stroke-linecap="round" stroke-linejoin="round"/>
<path d="M13.3528 14.1731C13.3929 14.2766 13.4349 14.3792 13.474 14.4836C13.4999 14.5483 13.5033 14.6197 13.4838 14.6866C13.4643 14.7534 13.4229 14.8118 13.3664 14.8524C13.3098 14.893 13.2412 14.9134 13.1717 14.9105C13.1021 14.9075 13.0355 14.8814 12.9826 14.8362C12.92 14.7907 12.8728 14.7273 12.8473 14.6543C12.7867 14.4892 12.713 14.3288 12.6608 14.1628C12.6265 14.0994 12.6121 14.0272 12.6194 13.9555C12.6267 13.8838 12.6554 13.816 12.7018 13.7609C12.7388 13.7233 12.7843 13.6953 12.8345 13.6792C12.8846 13.6632 12.938 13.6596 12.9898 13.6688C13.0417 13.678 13.0906 13.6996 13.1322 13.7319C13.1738 13.7642 13.207 13.8062 13.2288 13.8541C13.2735 13.9595 13.3127 14.0667 13.3547 14.174" fill="currentColor"/>
<path d="M13.3528 14.1731C13.3929 14.2766 13.4349 14.3792 13.474 14.4836C13.4999 14.5483 13.5033 14.6197 13.4838 14.6866C13.4643 14.7534 13.4229 14.8118 13.3664 14.8524C13.3098 14.893 13.2412 14.9134 13.1717 14.9105C13.1021 14.9075 13.0355 14.8814 12.9826 14.8362C12.92 14.7907 12.8728 14.7273 12.8473 14.6543C12.7867 14.4892 12.713 14.3288 12.6608 14.1628C12.6265 14.0994 12.6121 14.0272 12.6194 13.9555C12.6267 13.8838 12.6554 13.816 12.7018 13.7609C12.7388 13.7233 12.7843 13.6953 12.8345 13.6792C12.8846 13.6632 12.938 13.6596 12.9898 13.6688C13.0417 13.678 13.0906 13.6996 13.1322 13.7319C13.1738 13.7642 13.207 13.8062 13.2288 13.8541C13.2717 13.9623 13.3108 14.0658 13.3528 14.1731Z" stroke="currentColor" stroke-width="0.25" stroke-linecap="round" stroke-linejoin="round"/>
</svg>
