<svg width="24" height="24" viewBox="0 0 24 24" fill="none" xmlns="http://www.w3.org/2000/svg">
<path d="M20.2727 5H3.72724C3.37526 5 3.09088 5.28437 3.09088 5.63636V18.3636C3.09088 18.7156 3.37526 19 3.72724 19H20.2727C20.6247 19 20.9091 18.7156 20.9091 18.3636V5.63636C20.9091 5.28437 20.6247 5 20.2727 5ZM19.4772 17.5682H4.5227V16.7747L7.27696 13.5074L10.2619 17.0472L14.9054 11.5426L19.4772 16.9636V17.5682ZM19.4772 14.9869L15.0267 9.70909C14.963 9.63352 14.8477 9.63352 14.7841 9.70909L10.2619 15.0705L7.39827 11.6759C7.33463 11.6003 7.21929 11.6003 7.15565 11.6759L4.5227 14.798V6.43182H19.4772V14.9869ZM7.86361 10.8864C8.09342 10.8864 8.32098 10.8411 8.5333 10.7532C8.74562 10.6652 8.93854 10.5363 9.10105 10.3738C9.26355 10.2113 9.39245 10.0184 9.4804 9.80606C9.56834 9.59374 9.61361 9.36618 9.61361 9.13636C9.61361 8.90655 9.56834 8.67899 9.4804 8.46667C9.39245 8.25435 9.26355 8.06143 9.10105 7.89893C8.93854 7.73642 8.74562 7.60752 8.5333 7.51957C8.32098 7.43163 8.09342 7.38636 7.86361 7.38636C7.39948 7.38636 6.95436 7.57074 6.62617 7.89893C6.29798 8.22712 6.11361 8.67223 6.11361 9.13636C6.11361 9.60049 6.29798 10.0456 6.62617 10.3738C6.95436 10.702 7.39948 10.8864 7.86361 10.8864ZM7.86361 8.57955C8.17185 8.57955 8.42043 8.82812 8.42043 9.13636C8.42043 9.4446 8.17185 9.69318 7.86361 9.69318C7.55537 9.69318 7.30679 9.4446 7.30679 9.13636C7.30679 8.82812 7.55537 8.57955 7.86361 8.57955Z" fill="#333333"/>
</svg>
