<svg width="1em" height="1em" viewBox="0 0 24 24" fill="none" xmlns="http://www.w3.org/2000/svg">
<path d="M5.7775 4.00012C5.30353 3.99499 4.84657 4.17646 4.50526 4.50536C4.17644 4.84672 3.99498 5.30365 4.00001 5.7776V18.2217C3.99498 18.6957 4.17644 19.1526 4.50526 19.4939C4.84657 19.8228 5.30353 20.0043 5.7775 19.9992H18.2216C18.4482 20.0061 18.674 19.9684 18.8861 19.8881C19.0981 19.8077 19.2923 19.6864 19.4574 19.531C19.6225 19.3757 19.7555 19.1893 19.8486 18.9825C19.9416 18.7758 19.9931 18.5527 20 18.3261C20 18.2913 20 18.2565 20 18.2217V5.7776C20.0057 5.30369 19.8245 4.8466 19.4956 4.50536C19.1537 4.1762 18.6961 3.99472 18.2216 4.00012H5.7775ZM18.2216 5.91848V18.3626H5.77837L8.85765 15.2833C8.02425 14.4499 7.55605 13.3196 7.55605 12.141C7.55605 10.9624 8.02425 9.83203 8.85765 8.99863C9.69105 8.16523 10.8214 7.69703 12 7.69703C13.1786 7.69703 14.3089 8.16523 15.1423 8.99863L18.2216 5.91848ZM15.1414 8.85775L8.85765 15.1416C9.69105 15.9749 10.8214 16.4431 12 16.4431C13.1786 16.4431 14.3089 15.9749 15.1423 15.1416C15.9757 14.3082 16.4439 13.1778 16.4439 11.9992C16.4439 10.8206 15.9757 9.69028 15.1423 8.85688L15.1414 8.85775Z" fill="currentColor"/>
</svg>
