<svg width="1em" height="1em" viewBox="0 0 24 24" fill="none" xmlns="http://www.w3.org/2000/svg">
<path d="M18.9487 3.5H10.0096C9.2186 3.5 8.57638 4.14222 8.57638 4.93319V7.04167H5.05124C4.26026 7.04167 3.61804 7.68389 3.61804 8.47486V19.0692C3.61804 19.8601 4.26026 20.5024 5.05124 20.5024H13.9928C14.7837 20.5024 15.426 19.8601 15.426 19.0692V16.9607H18.9511C19.7421 16.9607 20.3843 16.3185 20.3843 15.5275V4.93319C20.3843 4.14222 19.7421 3.5 18.9511 3.5H18.9487ZM19.2014 15.5251C19.2014 15.6644 19.088 15.7778 18.9487 15.7778H15.4236V15.4425C15.4236 15.1167 15.1592 14.8522 14.8333 14.8522C14.5075 14.8522 14.243 15.1167 14.243 15.4425V19.0668C14.243 19.2061 14.1297 19.3194 13.9904 19.3194H5.05124C4.91193 19.3194 4.7986 19.2061 4.7986 19.0668V8.47486C4.7986 8.33556 4.91193 8.22222 5.05124 8.22222H13.9928C14.1321 8.22222 14.2454 8.33556 14.2454 8.47486V9.16667C14.2454 9.4925 14.5098 9.75694 14.8357 9.75694C15.1615 9.75694 15.426 9.4925 15.426 9.16667V8.47486C15.426 7.68389 14.7837 7.04167 13.9928 7.04167H9.75929V4.93319C9.75929 4.79389 9.87263 4.68056 10.0119 4.68056H18.9535C19.0928 4.68056 19.2061 4.79389 19.2061 4.93319V15.5275L19.2014 15.5251Z" fill="currentColor"/>
<path d="M16.8096 10.2977C16.5215 10.2977 16.2878 10.5314 16.2878 10.8195V12.0756C15.3008 11.0934 14.236 10.5999 13.1026 10.6188C10.8596 10.6471 9.27765 12.6871 9.21153 12.7745C9.03681 13.0035 9.08167 13.3293 9.3107 13.5064C9.53973 13.6811 9.86792 13.6386 10.0426 13.4096C10.0568 13.3931 11.3908 11.6836 13.1215 11.6648C13.131 11.6648 13.1404 11.6648 13.1499 11.6648C13.9574 11.6648 14.7483 12.0402 15.511 12.7792H14.3328C14.0447 12.7792 13.811 13.0129 13.811 13.301C13.811 13.5891 14.0447 13.8228 14.3328 13.8228H16.812C17.1 13.8228 17.3338 13.5891 17.3338 13.301V10.8218C17.3338 10.5338 17.1 10.3 16.812 10.3L16.8096 10.2977Z" fill="currentColor"/>
</svg>
