<svg width="50" height="50" viewBox="0 0 50 50" fill="none" xmlns="http://www.w3.org/2000/svg">
<path d="M46.1972 40.3549L40.6879 37.1778C40.47 37.0523 40.2006 37.0523 39.9832 37.1778C39.7636 37.3033 39.63 37.5367 39.63 37.79V38.8607C38.5138 38.4237 37.5832 37.6204 36.994 36.5791C34.5639 31.8445 35.2166 27.6165 36.1194 21.7631C36.519 19.1785 36.9702 16.2507 37.1756 12.956H37.1734C37.3092 10.9638 36.6385 8.99928 35.3105 7.50513C34.1785 6.19302 32.5726 5.38291 30.8456 5.2478C29.1605 5.19805 27.5326 5.85213 26.3524 7.05288C26.0626 7.32989 25.7954 7.62724 25.5514 7.94439C25.4376 7.79458 25.3199 7.64702 25.1943 7.5057H25.192C24.0599 6.19358 22.4541 5.38348 20.7271 5.24837C19.0437 5.19862 17.414 5.8527 16.2338 7.05344C15.8444 7.42825 15.4912 7.83924 15.1833 8.28189C14.3942 7.10149 13.2763 6.17775 11.9681 5.62374C8.5334 4.1799 6.45263 5.57173 5.07489 6.49321C4.96904 6.565 4.8615 6.63454 4.75565 6.70463V6.7069C3.98301 7.21173 3.76735 8.24627 4.27453 9.0185C4.78 9.79017 5.81586 10.0056 6.58907 9.50129C6.70511 9.42553 6.82057 9.34752 6.93831 9.27007C8.16039 8.45261 8.89737 7.95796 10.6725 8.70362C12.9468 9.66071 13.5123 12.4189 13.6119 14.3772V15.9307L13.6097 37.3423C13.6097 38.2654 14.3585 39.0117 15.2812 39.0117C16.2055 39.0117 16.9544 38.266 16.9544 37.3423V15.9296L16.9567 15.8617C16.9804 15.3032 16.9787 14.761 16.9544 14.2364V13.1335C16.9782 11.7513 17.5493 10.4352 18.5421 9.46963C19.0635 8.92127 19.7801 8.60186 20.5369 8.58434C21.3774 8.66631 22.1501 9.07673 22.6912 9.72289C23.4259 10.5545 23.7956 11.6433 23.7175 12.7502L23.7135 12.8022L23.7158 37.3423C23.7158 38.2654 24.4624 39.0117 25.3873 39.0117H25.3992C25.8424 39.0117 26.268 38.8364 26.581 38.5232C26.8946 38.21 27.0701 37.7855 27.0701 37.3428V13.1335C27.0961 11.7513 27.6673 10.4352 28.6596 9.46963C29.1786 8.92127 29.8975 8.60186 30.6526 8.58434C31.4932 8.66631 32.2658 9.07673 32.8069 9.72289C33.5417 10.5545 33.913 11.6433 33.8354 12.7502C33.6396 15.8934 33.2185 18.6194 32.8132 21.256C31.8888 27.2394 31.0918 32.4064 34.0171 38.1043C35.199 40.252 37.2379 41.7976 39.6283 42.3561V44.1431C39.6283 44.3947 39.7619 44.6276 39.9815 44.7531C40.1994 44.8786 40.4689 44.8786 40.6862 44.7531L46.1932 41.576L46.1955 41.5782C46.4134 41.4527 46.5487 41.2193 46.5487 40.966C46.5487 40.7144 46.4129 40.4815 46.1955 40.356L46.1972 40.3549Z"/>
</svg>
