<svg width="50" height="50" viewBox="0 0 50 50" fill="none" xmlns="http://www.w3.org/2000/svg">
<path d="M24.525,45.518c-0.029-0.007-0.058-0.015-0.09-0.023c-0.1-0.061-0.228-0.1-0.392-0.105
	c-0.088-0.084-0.18-0.133-0.265-0.159c-0.071-0.037-0.118-0.065-0.164-0.112c-0.04-0.041-0.136-0.126-0.196-0.164
	c-0.019-0.042-0.042-0.083-0.069-0.122c-0.028-0.058-0.066-0.112-0.112-0.159c-0.03-0.047-0.057-0.086-0.082-0.122
	c-0.003-0.01-0.008-0.021-0.011-0.03c-0.013-0.074-0.034-0.14-0.051-0.192c0-0.107-0.03-0.183-0.083-0.256
	c-0.013-0.055-0.033-0.109-0.058-0.159l-3.67-29.858c-0.775-3.077-3.524-5.257-6.551-5.257c-3.685,0-6.683,3.022-6.683,6.738
	c0,3.715,2.998,6.737,6.683,6.737c1,0,1.814,0.823,1.814,1.835s-0.813,1.835-1.814,1.835c-5.72,0-10.373-4.698-10.373-10.472
	S7.011,5,12.731,5c4.772,0,9.022,3.413,10.124,8.124c0.01,0.123,0.041,0.228,0.06,0.296l1.874,16.097l2.103-16.078
	c0.024-0.1,0.055-0.196,0.064-0.314c1.108-4.674,5.357-8.061,10.124-8.061c5.643,0,10.382,4.648,10.564,10.362
	c0,5.755-4.654,10.453-10.374,10.453c-1,0-1.813-0.823-1.813-1.835s0.813-1.835,1.813-1.835c3.686,0,6.684-3.022,6.684-6.738
	s-2.998-6.738-6.684-6.738c-3.096,0-5.846,2.186-6.54,5.196l-3.941,29.931c-0.001-0.002-0.002-0.003-0.003-0.003
	c-0.01,0-0.037,0.057-0.054,0.144c-0.01,0.022-0.021,0.048-0.031,0.076c-0.037,0.069-0.059,0.132-0.074,0.177
	c-0.037,0.056-0.063,0.118-0.079,0.182c-0.009,0.019-0.017,0.038-0.026,0.059c-0.017,0.024-0.034,0.05-0.051,0.076
	c-0.049,0.05-0.094,0.116-0.127,0.187c-0.034,0.048-0.06,0.094-0.079,0.14c-0.053,0.034-0.09,0.115-0.134,0.159
	c0.001,0-0.098,0.066-0.189,0.135l0.17,0.006c-0.109,0-0.244,0.045-0.355,0.109c-0.048,0.02-0.093,0.045-0.134,0.077
	c-0.054,0.021-0.165,0.072-0.169,0.074c-0.121,0.012-0.206,0.04-0.262,0.058l0.032,0.001H24.525z"/>
</svg>
