<svg width="50" height="50" viewBox="0 0 50 50" fill="none" xmlns="http://www.w3.org/2000/svg">
<path d="M23.976,45.17c-1.565-0.069-3.096-0.681-4.297-1.721c-0.321-0.248-0.534-0.626-0.583-1.021
  c-0.052-0.407,0.059-0.808,0.312-1.13c0.248-0.318,0.62-0.528,1.021-0.577c0.064-0.008,0.122-0.013,0.179-0.013
  c0.341,0,0.679,0.117,0.951,0.329c0.943,0.739,1.717,1.083,2.435,1.083c0.82,0,1.624-0.439,2.605-1.426
  c1.281-1.356,2.433-2.848,3.427-4.438c0.089-0.142,0.11-0.316,0.058-0.479c-0.048-0.144-0.073-0.29-0.077-0.439
  c-0.007-0.06-0.013-0.113-0.014-0.139c0.009-2.474,0.271-5.653,0.522-8.728l0.014-0.162c0.338-4.127,0.688-8.395,0.558-11.839
  c-0.17-4.538-1.114-5.803-1.661-6.154c-0.198-0.126-0.447-0.191-0.74-0.191c-0.628,0-1.515,0.306-2.499,0.861
  c-3.986,2.247-6.116,11.891-7.674,21.029c-0.18,1.55-0.447,3.144-0.795,4.753c-0.151,0.697-0.779,1.204-1.492,1.204
  c-0.097,0-0.193-0.011-0.292-0.028c-0.806-0.155-1.352-0.942-1.215-1.756c0.013-0.078,0.615-3.69,0.754-4.507
  c1.065-9.279-1.172-16.801-5.698-19.179C8.601,9.917,7.292,9.607,5.982,9.607c-0.107,0-0.313,0.006-0.348,0.007
  c-0.847,0-1.552-0.673-1.567-1.499C4.058,7.715,4.213,7.319,4.493,7.028C4.776,6.735,5.157,6.569,5.565,6.56
  c0.147-0.006,0.288-0.006,0.428-0.006c1.804,0,3.603,0.43,5.203,1.245c2.813,1.477,4.979,4.293,6.259,8.145
  c0.079,0.232,0.294,0.388,0.538,0.388c0.246,0,0.463-0.158,0.54-0.392c1.648-5.063,3.662-8.208,6.156-9.615
  c1.483-0.834,2.836-1.257,4.023-1.257c0.868,0,1.664,0.227,2.364,0.674c4,2.563,3.273,11.418,2.504,20.792l-0.2,2.51
  c-0.019,0.228,0.102,0.442,0.305,0.547c0.083,0.042,0.172,0.062,0.26,0.062c0.132,0,0.256-0.044,0.358-0.127
  c1.328-1.087,3.005-1.686,4.722-1.686c1.066,0,2.1,0.225,3.072,0.668c3.026,1.367,4.76,4.498,4.313,7.791
  c-0.442,3.29-2.943,5.849-6.222,6.368c-0.39,0.062-0.785,0.095-1.178,0.095c-2.554,0-4.981-1.354-6.334-3.533
  c-0.099-0.161-0.272-0.263-0.466-0.269c-0.202,0.002-0.378,0.094-0.483,0.247c-0.886,1.288-1.884,2.514-2.966,3.643
  c-1.532,1.537-3.137,2.319-4.764,2.319H23.976z M39.17,30.614c-2.578,0-4.676,2.098-4.676,4.677c0,2.578,2.098,4.676,4.676,4.676
  c2.579,0,4.677-2.098,4.677-4.676C43.847,32.712,41.749,30.614,39.17,30.614z"/>
</svg>
