<svg width="50" height="50" viewBox="0 0 50 50" fill="none" xmlns="http://www.w3.org/2000/svg">
<path d="M5.395,46.274c-0.519,0-0.908-0.156-1.262-0.51c-0.339-0.338-0.527-0.785-0.527-1.258
c0-0.474,0.187-0.921,0.527-1.26l9.586-9.575c0.126-0.126,0.197-0.298,0.197-0.476s-0.071-0.35-0.197-0.476l-7.463-7.455
c-0.34-0.34-0.527-0.787-0.527-1.26c0-0.473,0.187-0.92,0.527-1.259c0.34-0.34,0.788-0.527,1.262-0.527s0.922,0.187,1.262,0.527
l7.463,7.455c0.126,0.125,0.297,0.197,0.476,0.197c0.001,0,0.001,0,0.001,0c0.178-0.001,0.349-0.072,0.476-0.198l23.228-22.64
l-14.44-0.294c-0.977,0-1.773-0.794-1.773-1.77s0.795-1.77,1.773-1.77l18.336,0.001c0.13,0.026,0.227,0.043,0.306,0.053
c0.075,0.033,0.178,0.069,0.307,0.074c0.061,0.03,0.114,0.051,0.158,0.068c0.066,0.048,0.145,0.099,0.187,0.12
c0.258,0.163,0.393,0.344,0.563,0.571c0.021,0.034,0.053,0.097,0.108,0.169c0.015,0.04,0.032,0.085,0.056,0.133
c0.009,0.031,0.03,0.094,0.031,0.094c0,0-0.002-0.017-0.005-0.045c0,0.001,0.001,0.002,0.001,0.002
c0.01,0.093,0.046,0.221,0.082,0.307c0.012,0.047,0.028,0.093,0.05,0.136l0,0c-0.007,0-0.007,0.101-0.007,0.15l-0.064,18.378
c0,0.978-0.795,1.772-1.773,1.772c-0.977,0-1.771-0.794-1.771-1.77l-0.092-13.931L19.717,32.718
c-0.261,0.262-0.263,0.685-0.004,0.948l7.397,7.519c0.344,0.344,0.532,0.79,0.532,1.263c0,0.474-0.188,0.921-0.527,1.26
c-0.32,0.32-0.791,0.51-1.262,0.51c-0.519,0-0.908-0.156-1.262-0.51l-7.463-7.455c-0.131-0.131-0.304-0.197-0.476-0.197
c-0.172,0-0.344,0.066-0.476,0.197l-9.522,9.512C6.336,46.084,5.865,46.274,5.395,46.274z"/>
</svg>
