<svg width="50" height="50" viewBox="0 0 50 50" fill="none" xmlns="http://www.w3.org/2000/svg">
<path d="M40.603 35.234C40.525 34.3336 39.7323 33.6665 38.8331 33.7443C37.9317 33.8201 37.2637 34.6124 37.3401 35.5122C37.6703 39.3912 37.566 42.1164 35.98 42.818C34.0067 43.6898 32.8381 43.3825 31.3527 41.5959C28.1365 37.7319 30.6868 29.7477 32.9349 22.7041C35.2287 15.5198 37.2094 9.31313 34.0353 6.03737C31.4742 3.38797 26.2166 3.71994 22.4938 4.8056C16.9479 6.42575 13.152 9.79713 12.334 13.826C11.5182 17.8587 13.4193 21.4213 16.2197 24.5558C13.9238 25.0124 11.9602 26.4848 10.8771 28.5562C9.79394 30.6292 9.71004 33.0799 10.6474 35.2211C11.5848 37.3644 13.4419 38.9658 15.7018 39.5798C17.9595 40.1938 20.3749 39.7522 22.2701 38.3803C24.1637 37.0083 25.334 34.8515 25.4518 32.5169C25.5696 30.1823 24.6225 27.9196 22.8751 26.3656C22.8504 26.3409 22.8257 26.3161 22.7971 26.2936C17.0194 21.4294 14.8515 17.8947 15.5437 14.4744C16.2154 11.1578 20.0479 8.92743 23.4113 7.94599C27.4202 6.77492 30.6648 7.26 31.6812 8.30967C33.4953 10.1818 31.5387 16.3067 29.8145 21.7098C27.3099 29.5554 24.4719 38.4453 28.8335 43.6871C30.4233 45.5995 32.1766 46.5487 34.1364 46.5487C35.233 46.5262 36.3124 46.2737 37.3046 45.8095C41.3495 44.0207 40.8811 38.5215 40.6019 35.235L40.603 35.234ZM17.739 36.5603C15.9406 36.5603 14.318 35.4784 13.6296 33.8179C12.9407 32.158 13.3225 30.2457 14.5934 28.9757C15.8664 27.7042 17.7788 27.325 19.4412 28.0131C21.1031 28.7012 22.1867 30.3193 22.1867 32.1177C22.1846 34.57 20.1947 36.556 17.7396 36.5597L17.739 36.5603Z"/>
</svg>
