<svg width="50" height="50" viewBox="0 0 50 50" fill="none" xmlns="http://www.w3.org/2000/svg">
<path d="M40.8364 4.00279C36.4105 4.20396 33.4273 5.50873 31.9684 7.88249C30.9891 9.47505 31.0266 10.9793 31.0602 12.3081L31.0624 12.3059C31.157 13.2581 31.0406 14.2159 30.7211 15.1172C30.03 16.8086 28.2297 18.1788 25.3668 19.1975C22.5045 18.1782 20.7037 16.8081 20.0126 15.1189V15.1166C19.693 14.2158 19.5761 13.2575 19.6712 12.3053C19.7048 10.9765 19.7423 9.47281 18.763 7.87969C17.3041 5.5065 14.3209 4.20117 9.89503 4L9.89727 4.00223C8.89447 3.96088 8.04723 4.73537 8.0019 5.73672C7.95657 6.73808 8.72826 7.58577 9.73106 7.63494C12.8324 7.77464 14.8816 8.51784 15.6578 9.78183C16.0545 10.4267 16.0568 11.0592 16.0288 12.2143V12.2165C15.9141 13.6694 16.1234 15.13 16.641 16.494C17.3259 18.0928 18.449 19.4646 19.8827 20.4525C16.0293 22.1418 13.1726 25.5107 12.1401 29.586C11.1094 33.6585 12.0176 37.9796 14.6018 41.2955C17.186 44.6108 21.1603 46.5487 25.3668 46.5487C29.5733 46.5487 33.5481 44.6108 36.1318 41.2955C38.716 37.9796 39.6243 33.6585 38.5935 29.586C37.561 25.5113 34.7043 22.1423 30.8509 20.4525C32.284 19.4651 33.4071 18.0928 34.0927 16.494C34.6097 15.13 34.819 13.6694 34.7048 12.2165C34.6752 11.0615 34.6791 10.4284 35.0758 9.78406C35.8515 8.52063 37.903 7.77744 41.0026 7.63718V7.63494C42.0054 7.58577 42.7771 6.73809 42.7317 5.73673C42.6864 4.73538 41.8392 3.96088 40.8364 4.00223V4.00279ZM35.3663 32.922C35.3663 35.5712 34.3143 38.1104 32.4385 39.9829C30.5633 41.8537 28.0204 42.9065 25.369 42.9082C22.7177 42.9082 20.1754 41.8576 18.2996 39.9846C16.4244 38.1137 15.3702 35.5746 15.3679 32.9276C15.3657 30.28 16.4183 27.7392 18.2918 25.8667C20.167 23.9942 22.7082 22.9392 25.359 22.9375H25.3747C28.0238 22.9436 30.5627 23.9958 32.4362 25.8689C34.3098 27.7397 35.3641 30.2767 35.3658 32.9226L35.3663 32.922Z"/>
</svg>
