<svg width="50" height="50" viewBox="0 0 50 50" fill="none" xmlns="http://www.w3.org/2000/svg">
<path d="M40.8609 43.4999C35.2094 40.6899 31.3621 34.1583 30.7804 26.8774H40.1498C41.0345 26.8774 41.7499 26.1588 41.7499 25.2738C41.7499 24.3882 41.0345 23.6702 40.1498 23.6702H30.7362C30.7474 23.4727 30.7561 23.2772 30.7711 23.0792C31.3216 16.0138 34.9655 9.86453 40.2742 7.02531H40.2767C40.6562 6.82976 40.9417 6.48724 41.0693 6.0787C41.1968 5.67016 41.1527 5.22612 40.953 4.8481C40.7508 4.47007 40.4067 4.1892 39.9961 4.06589C39.5855 3.94507 39.1425 3.99116 38.7692 4.19792C32.5056 7.54595 28.2172 14.6848 27.5801 22.8288C27.5583 23.1103 27.5428 23.3893 27.5297 23.6702H22.1987C21.5883 15.1924 17.0412 7.5092 10.3339 4.17612H10.3314C9.95192 3.98057 9.50646 3.94757 9.1002 4.08146C8.69395 4.21536 8.35862 4.50557 8.16762 4.88983C7.97662 5.27408 7.948 5.71811 8.08612 6.12478C8.22672 6.52896 8.521 6.86277 8.90673 7.04773C14.5601 9.85768 18.408 16.3893 18.9891 23.6702H9.61968C8.73501 23.6702 8.01769 24.3888 8.01769 25.2738C8.01769 26.1594 8.73563 26.8774 9.61968 26.8774H19.0307C19.0195 27.0749 19.0108 27.2704 18.9959 27.4685C18.4453 34.5338 14.8015 40.6831 9.49277 43.5223C9.11078 43.7179 8.82585 44.0604 8.69831 44.4689C8.57077 44.8775 8.61245 45.3215 8.81464 45.6995C9.01683 46.0794 9.36087 46.3609 9.77148 46.4817C10.1821 46.605 10.6251 46.5565 11.0008 46.3497C17.2645 43.0017 21.5529 35.8628 22.1899 27.7188C22.2117 27.4373 22.2273 27.1583 22.2403 26.8774H27.5714C28.1817 35.3553 32.7289 43.0359 39.4362 46.3715C39.8182 46.567 40.2611 46.6 40.6674 46.4662C41.0755 46.3323 41.4115 46.042 41.6025 45.6578C41.791 45.2735 41.8221 44.8295 41.6815 44.4228C41.5433 44.0187 41.2466 43.6848 40.8609 43.4999Z"/>
</svg>
