<svg width="50" height="50" viewBox="0 0 50 50" fill="none" xmlns="http://www.w3.org/2000/svg">
<path d="M31.804,24.344l-0.157-0.023c-0.066-0.012-0.159-0.04-0.25-0.079c-0.054-0.022-0.095-0.042-0.134-0.063
	c-0.066-0.035-0.117-0.067-0.166-0.104c-0.038-0.029-0.112-0.09-0.137-0.112l-0.144-0.139c-0.062-0.061-0.109-0.119-0.15-0.179
	l-4.979-5.727c-0.108-0.124-0.264-0.195-0.428-0.195l0,0c-0.164,0-0.32,0.071-0.428,0.195l-4.938,5.675
	c-0.081,0.111-0.129,0.169-0.183,0.223c-0.022,0.022-0.164,0.158-0.21,0.198c-0.063,0.052-0.151,0.112-0.229,0.153
	c-0.083,0.043-0.202,0.094-0.265,0.112l-0.123,0.031c-0.064,0.014-0.129,0.024-0.193,0.028l-0.112,0.005
	c-0.046,0-0.268-0.02-0.285-0.02c0.001-0.007-0.113-0.034-0.159-0.048c-0.028-0.01-0.082-0.027-0.139-0.042l0.04,0.008
	c-0.046-0.019-0.093-0.04-0.137-0.064c-0.094-0.052-0.158-0.095-0.209-0.136c-0.016-0.014-0.113-0.1-0.137-0.122l-5.225-6
	c-0.108-0.124-0.264-0.195-0.428-0.195s-0.32,0.071-0.428,0.195l-5.154,5.928c-0.253,0.29-0.618,0.471-1,0.496l-0.102,0.003
	c-0.346,0-0.684-0.126-0.947-0.354c-0.032-0.027-0.077-0.069-0.107-0.103c-0.518-0.547-0.535-1.384-0.042-1.949l6.681-7.68
	c0.277-0.316,0.676-0.498,1.094-0.498c0.309,0,0.616,0.101,0.865,0.285c0.042,0.03,0.078,0.062,0.113,0.094
	c0.031,0.03,0.091,0.089,0.122,0.124l5.153,5.923c0.108,0.124,0.264,0.195,0.428,0.195s0.32-0.071,0.428-0.195l5.158-5.928
	c0.277-0.316,0.676-0.498,1.094-0.498c0.309,0,0.616,0.102,0.865,0.286c0.042,0.03,0.079,0.062,0.114,0.096
	c0.028,0.027,0.087,0.083,0.115,0.117l5.159,5.928c0.107,0.124,0.264,0.195,0.428,0.195s0.32-0.071,0.428-0.195l5.157-5.928
	c0.277-0.316,0.677-0.498,1.094-0.498c0.31,0,0.617,0.102,0.867,0.288c0.03,0.022,0.064,0.051,0.098,0.081
	c0.037,0.034,0.101,0.096,0.135,0.135l6.678,7.676c0.246,0.281,0.377,0.672,0.352,1.049c-0.025,0.39-0.201,0.743-0.495,0.999
	c-0.265,0.23-0.603,0.356-0.954,0.356c-0.419,0-0.817-0.182-1.094-0.498l-5.156-5.925c-0.107-0.124-0.264-0.195-0.428-0.195
	s-0.32,0.071-0.428,0.195l-5.136,5.905c-0.022,0.024-0.109,0.109-0.13,0.128l-0.094,0.083l-0.131,0.092
	c-0.029,0.019-0.065,0.039-0.11,0.061c-0.043,0.022-0.075,0.037-0.11,0.05c-0.066,0.027-0.121,0.045-0.179,0.06
	c0,0-0.2,0.036-0.207,0.037c-0.051,0.006-0.104,0.01-0.156,0.01C31.894,24.352,31.848,24.349,31.804,24.344z"/>
<path d="M5.22,35.456c-0.35,0-0.689-0.127-0.954-0.357c-0.516-0.452-0.647-1.214-0.31-1.81
	c0.017-0.029,0.04-0.066,0.065-0.103c0.026-0.037,0.072-0.1,0.102-0.135l6.682-7.68c0.277-0.317,0.676-0.5,1.094-0.5
	c0.314,0,0.624,0.103,0.872,0.291c0.036,0.027,0.071,0.056,0.103,0.086c0.039,0.036,0.096,0.094,0.125,0.127l5.154,5.924
	c0.108,0.124,0.264,0.195,0.428,0.195s0.32-0.071,0.428-0.195l5.158-5.93c0.277-0.316,0.676-0.499,1.094-0.499
	c0.313,0,0.623,0.104,0.872,0.291c0.036,0.027,0.071,0.057,0.105,0.089c0.033,0.031,0.09,0.086,0.117,0.118l5.159,5.929
	c0.107,0.124,0.264,0.195,0.428,0.195s0.32-0.071,0.428-0.195l5.157-5.93c0.272-0.318,0.671-0.499,1.095-0.499
	c0.315,0,0.627,0.105,0.878,0.297c0.109,0.093,0.18,0.159,0.22,0.205l6.675,7.677c0.255,0.293,0.38,0.669,0.353,1.058
	c-0.028,0.384-0.204,0.736-0.496,0.99c-0.264,0.23-0.603,0.356-0.953,0.356c-0.416,0-0.814-0.179-1.091-0.492l-5.16-5.934
	c-0.107-0.124-0.264-0.195-0.428-0.195l0,0c-0.164,0-0.32,0.071-0.428,0.195l-5.142,5.908c-0.041,0.049-0.077,0.086-0.116,0.122
	c-0.104,0.091-0.155,0.131-0.212,0.167l-0.097,0.059l-0.162,0.072c-0.055,0.02-0.128,0.043-0.182,0.056
	c-0.144,0.031-0.231,0.04-0.318,0.04c-0.128,0-0.223-0.01-0.304-0.026l-0.109-0.025l-0.146-0.05l-0.241-0.122
	c-0.054-0.033-0.122-0.084-0.184-0.141c-0.03-0.028-0.101-0.098-0.121-0.119l-5.171-5.942c-0.108-0.124-0.264-0.195-0.428-0.195
	s-0.32,0.071-0.428,0.195l-5.138,5.904l-0.083,0.091c-0.003,0.003-0.072,0.067-0.075,0.07c-0.036,0.032-0.074,0.063-0.112,0.09
	c-0.058,0.043-0.113,0.076-0.167,0.104c-0.049,0.026-0.092,0.047-0.135,0.064c-0.036,0.014-0.076,0.028-0.117,0.04l-0.221,0.05
	l-0.101,0.011l-0.133,0.004l-0.126-0.009c-0.061-0.006-0.112-0.014-0.164-0.025l-0.101-0.027c-0.006-0.003-0.098-0.033-0.104-0.036
	c-0.109-0.047-0.148-0.066-0.178-0.084c-0.006-0.004-0.104-0.062-0.109-0.066c-0.086-0.061-0.118-0.087-0.146-0.112l-0.096-0.093
	l-5.198-5.973c-0.108-0.124-0.264-0.195-0.428-0.195s-0.32,0.071-0.428,0.195l-5.154,5.928C6.04,35.274,5.64,35.456,5.22,35.456z"/>
</svg>
