<svg width="50" height="50" viewBox="0 0 50 50" fill="none" xmlns="http://www.w3.org/2000/svg">
<path d="M44.6398 37.6133H5.87895C4.84288 37.6133 4 38.4562 4 39.4947C4 40.5332 4.84288 41.3736 5.87895 41.3736H44.6398C45.6759 41.3736 46.5187 40.5332 46.5187 39.4947C46.5187 38.4562 45.6759 37.6133 44.6398 37.6133Z"/>
<path d="M5.94372 32.8499H15.1325C15.9949 32.8499 16.7817 32.3617 17.1687 31.5919C17.5557 30.8222 17.4759 29.8977 16.9603 29.2077C16.9322 29.1694 16.9042 29.1303 16.8743 29.0913L16.8768 29.0889C15.3933 27.0228 14.7266 24.4832 15.0021 21.9552C15.2775 19.4266 16.4769 17.0899 18.3693 15.3908C20.2635 13.6922 22.7166 12.7524 25.2604 12.7524C27.8043 12.7524 30.2574 13.6922 32.1516 15.3908C34.0433 17.0893 35.2433 19.4266 35.5188 21.9552C35.7943 24.4838 35.1275 27.0228 33.6441 29.0889C33.6161 29.1273 33.5881 29.1663 33.5582 29.2053L33.5606 29.2077C33.0444 29.8977 32.9652 30.8222 33.3522 31.5919C33.7392 32.3617 34.526 32.8499 35.3884 32.8499H44.5772C45.5834 32.8627 46.4281 32.0972 46.5165 31.0952C46.5506 30.5748 46.3684 30.0653 46.0137 29.685C45.659 29.3065 45.1623 29.0895 44.6418 29.0895H37.992C40.052 24.7295 39.7356 19.6167 37.1534 15.5425C34.5735 11.4683 30.0837 9 25.2617 9C20.4396 9 15.9498 11.4683 13.3699 15.5425C10.7877 19.6167 10.472 24.7295 12.5313 29.0895H5.88155C5.36108 29.0895 4.86437 29.3065 4.50967 29.685C4.15497 30.0653 3.97213 30.5754 4.00687 31.0952C4.09524 32.0972 4.93994 32.8627 5.94616 32.8499H5.94372Z"/>
</svg>
