<svg width="50" height="50" viewBox="0 0 50 50" fill="none" xmlns="http://www.w3.org/2000/svg">
<path d="M4.01647 21.1097C4.01375 21.1935 4.00897 21.278 4.00897 21.3645H4.01169C4.00897 24.7696 6.0593 27.8403 9.20221 29.1502C12.3479 30.4574 15.969 29.7463 18.3844 27.3458C20.8019 24.9474 21.5348 21.3284 20.2467 18.1759C18.9586 15.0235 15.9022 12.9568 12.4943 12.935C15.6304 10.4262 19.449 8.92222 23.4516 8.61706C31.2707 8.08575 39.0163 12.4738 43.1756 19.7937H43.1728C43.4058 20.2092 43.7954 20.5144 44.2538 20.6417C44.7102 20.7691 45.2007 20.7065 45.6141 20.4735C46.0297 20.2378 46.3328 19.8489 46.4574 19.3898C46.5821 18.9306 46.5201 18.4402 46.2817 18.0274C41.4495 9.52302 32.3926 4.42922 23.2078 5.05113C18.2407 5.45234 13.5235 7.39435 9.71445 10.6047C5.95848 13.7769 3.8271 17.6916 4.01238 21.075C4.01238 21.0872 4.0151 21.0988 4.0151 21.1111L4.01647 21.1097ZM17.2979 21.3645C17.2979 23.3276 16.1154 25.0986 14.3015 25.8507C12.4875 26.6027 10.3963 26.1871 9.0074 24.7982C7.6185 23.4093 7.20299 21.3209 7.955 19.5069C8.70701 17.6902 10.478 16.5077 12.4412 16.5077C15.1229 16.5104 17.2952 18.6827 17.2979 21.3645Z"/>
<path d="M46.5019 29.4049C46.5046 29.3211 46.5094 29.2366 46.5094 29.1501H46.5066C46.5093 25.745 44.459 22.6742 41.3161 21.3671C38.1705 20.0572 34.5494 20.769 32.1339 23.1694C29.7165 25.5699 28.9835 29.1869 30.2716 32.3394C31.5597 35.4918 34.6161 37.5612 38.024 37.583C34.8879 40.0917 31.0693 41.5958 27.0667 41.8989C19.2449 42.4302 11.502 38.0421 7.34277 30.7222H7.34549C7.1098 30.3088 6.72291 30.0063 6.26448 29.879C5.8081 29.7516 5.31765 29.8115 4.90418 30.0472C4.49071 30.2829 4.18826 30.6718 4.06293 31.1282C3.93827 31.5873 4.00027 32.0751 4.23596 32.4885C8.80388 40.5263 17.1407 45.5179 25.7957 45.5179C26.3004 45.5179 26.8052 45.5009 27.3092 45.4675V45.4648C32.2763 45.0656 36.9934 43.1243 40.8025 39.9112C44.5585 36.739 46.6899 32.8243 46.5046 29.441C46.5046 29.4287 46.5019 29.4171 46.5019 29.4049ZM33.2204 29.1501C33.2204 27.187 34.4029 25.4159 36.2169 24.6639C38.0335 23.9119 40.122 24.3274 41.5109 25.7163C42.8998 27.1052 43.3153 29.1957 42.5633 31.0104C41.8113 32.8243 40.0403 34.0069 38.0772 34.0069C35.3954 34.0041 33.2231 31.8319 33.2204 29.1501Z"/>
</svg>
