<svg width="50" height="50" viewBox="0 0 50 50" fill="none" xmlns="http://www.w3.org/2000/svg">
<path d="M43.319 41.8808C42.5067 41.4094 41.7391 40.8601 41.0286 40.244C45.9407 33.1552 47.0256 23.6248 46.0075 18.1255C45.4629 15.1886 44.3628 13.3919 42.7358 12.7795C41.3465 12.2584 39.9309 12.7452 38.6561 13.5838C38.6886 13.1773 38.7186 12.7642 38.7449 12.3492C38.8877 10.2582 38.1832 8.19728 36.7915 6.62921C35.6074 5.25362 33.9259 4.40155 32.117 4.26117C30.3516 4.20907 28.6462 4.89501 27.4106 6.15536C27.108 6.44531 26.8269 6.75855 26.572 7.08958C26.4532 6.93142 26.3276 6.77817 26.1959 6.62921C25.0094 5.25362 23.3304 4.40155 21.5196 4.26117C19.756 4.20907 18.0513 4.89501 16.8133 6.15536C16.4047 6.54707 16.0378 6.97924 15.7131 7.44451C14.8874 6.20562 13.7162 5.23646 12.3465 4.65472C8.74826 3.13875 6.57058 4.60077 5.12615 5.56932C5.01405 5.64472 4.90379 5.71828 4.79108 5.79184C3.98311 6.32148 3.75584 7.40712 4.28755 8.21629C4.8168 9.02729 5.90166 9.25227 6.71208 8.72202C6.83337 8.64171 6.9565 8.55957 7.07718 8.47988C8.35621 7.62106 9.12987 7.10246 10.9866 7.88527C13.37 8.88876 13.96 11.7889 14.0659 13.8431V37.9404C14.077 38.9003 14.8568 39.6727 15.8166 39.6727C16.7759 39.6727 17.5563 38.9009 17.5674 37.9404V15.4645L17.5698 15.3977C17.5955 14.8116 17.5937 14.2452 17.5674 13.6935V12.5325V12.5349C17.5955 11.0839 18.1922 9.70221 19.2311 8.69014C19.7756 8.11514 20.5279 7.77982 21.3205 7.76021C22.2002 7.84664 23.0106 8.27697 23.5766 8.95618C24.346 9.82788 24.7325 10.9718 24.6529 12.1328L24.6486 12.1867V37.941C24.6486 38.9095 25.4333 39.6929 26.4011 39.6929H26.414H26.4116C26.8759 39.6929 27.3212 39.509 27.6495 39.1805C27.9779 38.8519 28.1641 38.4062 28.1641 37.9416V12.5337V12.5361C28.1898 11.0852 28.7889 9.70344 29.8278 8.69136C30.3724 8.1182 31.1246 7.78289 31.9155 7.76143C32.7951 7.84787 33.6055 8.2782 34.1715 8.95741C34.9427 9.8291 35.3299 10.973 35.2478 12.134C35.0426 15.432 34.6015 18.2929 34.1758 21.0612C33.208 27.3415 32.3737 32.7654 35.4377 38.7428C35.7336 39.3159 36.0711 39.867 36.4466 40.3905C36.0509 40.8166 35.6386 41.2273 35.1994 41.6166H35.197C34.4925 42.2418 33.7384 42.8101 32.939 43.3121C32.12 43.8271 31.8738 44.9078 32.3877 45.728C32.9023 46.5476 33.9822 46.794 34.8018 46.2815C35.7636 45.6759 36.6732 44.9924 37.5229 44.2378C37.9768 43.8332 38.4086 43.4096 38.8239 42.9725H38.8264C39.6711 43.6971 40.5832 44.3438 41.545 44.9059C41.9468 45.1481 42.4265 45.2174 42.8804 45.1027C43.3343 44.9881 43.7232 44.6963 43.9585 44.2917C44.1961 43.8871 44.2611 43.4071 44.1398 42.9529C44.021 42.5011 43.7251 42.1162 43.3183 41.8826L43.319 41.8808ZM38.5563 37.1404C36.0104 32.1707 36.6934 27.7332 37.6399 21.5915C37.7844 20.6505 37.9357 19.6623 38.0809 18.6331V18.6356C38.2561 18.5467 38.4178 18.4277 38.5544 18.2874C40.4754 16.2957 41.3465 16.0965 41.5174 16.075C41.7441 16.2546 42.4534 17.2753 42.7382 20.0019C43.194 24.3335 42.3297 31.654 38.7057 37.4236C38.6561 37.3304 38.6041 37.2354 38.5544 37.1422L38.5563 37.1404Z"/>
</svg>
