<svg width="1em" height="1em" viewBox="0 0 32 32" fill="none" xmlns="http://www.w3.org/2000/svg">
<path d="M24.4122 17.1415L23.2734 16.5603C23.1405 16.4899 22.9893 16.4561 22.8408 16.4561C22.6896 16.4561 22.5411 16.4951 22.4081 16.5681L16.0518 19.9639L9.69556 16.5681C9.56264 16.4978 9.4141 16.4587 9.26294 16.4561C9.11179 16.4561 8.96324 16.4899 8.83033 16.5603L7.69146 17.1415C7.54031 17.2196 7.41261 17.3369 7.32139 17.4803C7.23279 17.6262 7.18327 17.793 7.18066 17.9624C7.18066 18.1318 7.22497 18.3012 7.31097 18.4471C7.39697 18.5931 7.52467 18.7129 7.67322 18.7937L15.6088 23.0521C15.7443 23.1251 15.8981 23.1642 16.0518 23.1642C16.2056 23.1642 16.3594 23.1251 16.4949 23.0521L24.4305 18.7937C24.5816 18.7129 24.7067 18.5931 24.7927 18.4471C24.8787 18.3012 24.9256 18.1318 24.923 17.9624C24.923 17.793 24.8735 17.6262 24.7823 17.4803C24.6937 17.3343 24.566 17.217 24.4122 17.1389H24.407L24.4122 17.1415Z" fill="currentColor"/>
<path d="M8.11884 14.1158L15.5879 18.3742C15.7287 18.455 15.8876 18.4967 16.0492 18.4967C16.2108 18.4967 16.3698 18.455 16.5105 18.3742L23.9796 14.1158C24.1229 14.0324 24.2428 13.9151 24.3262 13.7692C24.4096 13.6259 24.4513 13.4617 24.4513 13.2949C24.4513 13.1281 24.4044 12.9665 24.3184 12.8232C24.2324 12.6798 24.1099 12.5626 23.964 12.4844L16.4949 8.42407C16.3593 8.3511 16.2056 8.31201 16.0518 8.31201C15.8981 8.31201 15.7443 8.3511 15.6088 8.42407L8.13969 12.4844C7.99374 12.5626 7.87126 12.6798 7.78526 12.8232C7.69925 12.9665 7.65234 13.1281 7.65234 13.2949C7.65234 13.4617 7.69404 13.6259 7.77744 13.7692C7.86083 13.9125 7.98071 14.0324 8.12405 14.1158H8.11884Z" fill="currentColor"/>
<path d="M9.63328 8.62986L7.55361 6.55019H8.98436C9.30752 6.55019 9.57074 6.28697 9.57074 5.96382C9.57074 5.64066 9.30752 5.37744 8.98436 5.37744H6.08637C5.76322 5.38005 5.5 5.64326 5.5 5.96642V8.80968C5.5 9.13284 5.76322 9.39606 6.08637 9.39606C6.40953 9.39606 6.67275 9.13284 6.67275 8.80968V7.3242L8.80715 9.4586C8.92182 9.57327 9.07036 9.63061 9.22152 9.63061C9.37267 9.63061 9.52122 9.57327 9.63589 9.4586C9.86523 9.22927 9.86523 8.8592 9.63589 8.62986H9.63328Z" fill="currentColor"/>
<path d="M9.63296 22.5387C9.40362 22.3094 9.03356 22.3094 8.80422 22.5387L6.66982 24.6731V23.1876C6.66982 22.8645 6.4066 22.6013 6.08344 22.6013C5.76029 22.6013 5.49707 22.8645 5.49707 23.1876V26.0309C5.49707 26.354 5.76029 26.6173 6.08344 26.6173H8.98404C9.3072 26.6173 9.57041 26.354 9.57041 26.0309C9.57041 25.7077 9.3072 25.4445 8.98404 25.4445H7.55589L9.63557 23.3648C9.8649 23.1355 9.8649 22.7654 9.63557 22.5361L9.63296 22.5387Z" fill="currentColor"/>
<path d="M25.9159 5.38013H23.0153C22.6921 5.38013 22.4289 5.64334 22.4289 5.9665C22.4289 6.28966 22.6921 6.55287 23.0153 6.55287H24.446L22.3663 8.63255C22.137 8.86188 22.137 9.23195 22.3663 9.46129C22.481 9.57596 22.6296 9.63329 22.7807 9.63329C22.9319 9.63329 23.0804 9.57596 23.1951 9.46129L25.3295 7.32689V8.81237C25.3295 9.13553 25.5927 9.39874 25.9159 9.39874C26.239 9.39874 26.5022 9.13553 26.5022 8.81237V5.9665C26.5022 5.64334 26.239 5.38013 25.9159 5.38013Z" fill="currentColor"/>
<path d="M25.9159 22.6039C25.5927 22.6039 25.3295 22.8672 25.3295 23.1903V24.6758L23.1951 22.5414C22.9657 22.3121 22.5957 22.3121 22.3663 22.5414C22.137 22.7707 22.137 23.1408 22.3663 23.3701L24.446 25.4498H23.0153C22.6921 25.4498 22.4289 25.713 22.4289 26.0362C22.4289 26.3593 22.6921 26.6226 23.0153 26.6226H25.9159C26.239 26.6226 26.5022 26.3593 26.5022 26.0362V23.1929C26.5022 22.8698 26.239 22.6065 25.9159 22.6065V22.6039Z" fill="currentColor"/>
</svg>
