<svg width="1em" height="1em" viewBox="0 0 32 32" fill="none" xmlns="http://www.w3.org/2000/svg">
<path d="M25.7774 16.633C26.0767 16.2621 26.0767 15.7379 25.7774 15.367C23.678 12.773 19.9985 9.818 16 9.818C13.8907 9.818 11.8704 10.6414 10.1246 11.7987L7.78041 10.4362C7.45647 10.2483 7.03857 10.3571 6.85064 10.6835C6.6627 11.0074 6.77151 11.4253 7.09792 11.6133L8.92779 12.6766C7.8719 13.5247 6.95449 14.4669 6.22502 15.3694C5.92581 15.7404 5.92581 16.2646 6.22502 16.6355C8.32195 19.2295 12.0039 22.1845 16 22.1845C18.1093 22.1845 20.1296 21.361 21.8754 20.2038L24.2196 21.5663C24.3259 21.6281 24.4446 21.6578 24.5608 21.6578C24.7957 21.6578 25.0232 21.5366 25.1493 21.319C25.3373 20.9951 25.2285 20.5771 24.9021 20.3892L23.0722 19.3259C24.1281 18.4777 25.0455 17.5356 25.775 16.633H25.7774ZM16.0025 19.2146C14.227 19.2146 12.7878 17.7755 12.7878 16C12.7878 15.6538 12.8447 15.3225 12.9461 15.0084L18.3739 18.1637C17.7854 18.8066 16.9421 19.2122 16.0025 19.2122V19.2146ZM13.6311 13.8338C14.2196 13.1909 15.0628 12.7854 16.0025 12.7854C17.7779 12.7854 19.2171 14.2245 19.2171 16C19.2171 16.3462 19.1602 16.6775 19.0588 16.9916L13.6311 13.8363V13.8338Z" fill="currentColor"/>
</svg>
