<svg width="32" height="32" viewBox="0 0 32 32" fill="none" xmlns="http://www.w3.org/2000/svg">
<path d="M15.921 5.68164C14.3895 5.68467 12.9216 6.29442 11.8386 7.3774C10.7557 8.46039 10.1457 9.92834 10.1427 11.4599V13.1108H8.49184C8.27493 13.1107 8.06025 13.1533 7.85981 13.2362C7.65938 13.3191 7.47722 13.4407 7.3238 13.594C7.17037 13.7473 7.04856 13.9294 6.96552 14.1297C6.88248 14.3301 6.83984 14.5449 6.83984 14.7618V24.6674C6.83984 24.8843 6.88248 25.0991 6.96552 25.2995C7.04856 25.4999 7.17037 25.6819 7.3238 25.8352C7.47722 25.9886 7.65938 26.1101 7.85981 26.193C8.06025 26.2759 8.27493 26.3185 8.49184 26.3184H23.3491C23.787 26.3184 24.207 26.1444 24.5166 25.8348C24.8262 25.5252 25 25.1053 25 24.6674V14.7618C24.9997 14.324 24.8259 13.9043 24.5163 13.5947C24.2068 13.2852 23.7869 13.1111 23.3491 13.1108H21.6983V11.4599C21.6958 9.92835 21.0863 8.4602 20.0034 7.37712C18.9206 6.29404 17.4526 5.68437 15.921 5.68164ZM15.921 7.33258C17.0122 7.32984 18.0598 7.76032 18.8337 8.52949C19.6076 9.29865 20.0446 10.3436 20.0485 11.4347V13.1108H11.7936V11.4599C11.7919 10.9195 11.8968 10.3842 12.102 9.88433C12.3073 9.38447 12.609 8.92993 12.9899 8.54667C13.3708 8.16341 13.8236 7.8589 14.3222 7.65059C14.8208 7.44227 15.3555 7.33424 15.8959 7.33258H15.921Z" fill="currentColor"/>
</svg>
