<svg width="24" height="24" viewBox="0 0 24 24" fill="none" xmlns="http://www.w3.org/2000/svg">
<path d="M17.7079 4C17.4542 4 17.2487 4.20544 17.2487 4.45917V7.12994C17.2487 7.17538 17.2118 7.21231 17.1664 7.21231H6.83454C6.7891 7.21231 6.75218 7.17538 6.75218 7.12994V4.46012C6.75218 4.20544 6.54673 4 6.29206 4C6.03833 4 5.83289 4.20544 5.83289 4.45917V7.59006C5.83289 7.88923 6.0762 8.13254 6.37537 8.13254H8.08046C8.1259 8.13254 8.16283 8.16947 8.16283 8.21491V10.8118C8.16283 11.111 8.40519 11.3543 8.70531 11.3543H15.2937C15.5929 11.3543 15.8362 11.111 15.8362 10.8118V8.21491C15.8362 8.16947 15.8731 8.13254 15.9186 8.13254H17.6237C17.9228 8.13254 18.1661 7.89018 18.1661 7.59006V4.46012C18.1661 4.20639 17.9607 4 17.706 4H17.7079ZM14.8355 10.435H9.16638C9.12093 10.435 9.08401 10.3981 9.08401 10.3527V8.21586C9.08401 8.17041 9.12093 8.13349 9.16638 8.13349H14.8355C14.8809 8.13349 14.9179 8.17041 14.9179 8.21586V10.3527C14.9179 10.3981 14.8809 10.435 14.8355 10.435Z" fill="#494949"/>
<path d="M10.418 14.772C10.9403 14.772 11.3638 14.3485 11.3638 13.8262C11.3638 13.3038 10.9403 12.8804 10.418 12.8804C9.89562 12.8804 9.47217 13.3038 9.47217 13.8262C9.47217 14.3485 9.89562 14.772 10.418 14.772Z" fill="#494949"/>
<path d="M13.5716 14.7729C14.0942 14.7729 14.5174 14.3498 14.5174 13.8271C14.5174 13.3045 14.0932 12.8813 13.5716 12.8813C13.0499 12.8813 12.6258 13.3045 12.6258 13.8271C12.6258 14.3498 13.049 14.7729 13.5716 14.7729Z" fill="#494949"/>
<path d="M9.78747 16.4404C9.78747 15.9178 9.36428 15.4946 8.84167 15.4946C8.31907 15.4946 7.89587 15.9178 7.89587 16.4404C7.89587 16.963 8.31907 17.3862 8.84167 17.3862C9.36428 17.3862 9.78747 16.963 9.78747 16.4404Z" fill="#494949"/>
<path d="M12.941 16.4404C12.941 15.9178 12.5178 15.4946 11.9952 15.4946C11.4726 15.4946 11.0494 15.9178 11.0494 16.4404C11.0494 16.963 11.4726 17.3862 11.9952 17.3862C12.5178 17.3862 12.941 16.963 12.941 16.4404Z" fill="#494949"/>
<path d="M16.0947 16.4404C16.0947 15.9178 15.6715 15.4946 15.1489 15.4946C14.6263 15.4946 14.2031 15.9178 14.2031 16.4404C14.2031 16.963 14.6272 17.3862 15.1489 17.3862C15.6705 17.3862 16.0947 16.963 16.0947 16.4404Z" fill="#494949"/>
<path d="M7.26434 18.1074C6.74174 18.1074 6.31854 18.5306 6.31854 19.0532C6.31854 19.5758 6.74268 19.999 7.26434 19.999C7.786 19.999 8.21014 19.5758 8.21014 19.0532C8.21014 18.5306 7.78694 18.1074 7.26434 18.1074Z" fill="#494949"/>
<path d="M10.418 18.1074C9.89536 18.1074 9.47217 18.5306 9.47217 19.0532C9.47217 19.5758 9.89631 19.999 10.418 19.999C10.9396 19.999 11.3638 19.5758 11.3638 19.0532C11.3638 18.5306 10.9396 18.1074 10.418 18.1074Z" fill="#494949"/>
<path d="M13.5716 18.1074C13.049 18.1074 12.6258 18.5306 12.6258 19.0532C12.6258 19.5758 13.049 19.999 13.5716 19.999C14.0942 19.999 14.5174 19.5758 14.5174 19.0532C14.5174 18.5306 14.0932 18.1074 13.5716 18.1074Z" fill="#494949"/>
<path d="M16.7261 18.1074C16.2035 18.1074 15.7803 18.5306 15.7803 19.0532C15.7803 19.5758 16.2035 19.999 16.7261 19.999C17.2487 19.999 17.6719 19.5758 17.6719 19.0532C17.6719 18.5306 17.2487 18.1074 16.7261 18.1074Z" fill="#494949"/>
</svg>
