<svg width="20" height="20" viewBox="0 0 20 20" fill="none" xmlns="http://www.w3.org/2000/svg">
  <path
    d="M4.063 7.264a1.21 1.21 0 0 1 0 2.42h-1.08a1.21 1.21 0 0 1 0-2.42zm2.589 5.086a1.21 1.21 0 1 0-1.712-1.71l-.764.763a1.21 1.21 0 0 0 1.712 1.712zm6.876-6.876a1.21 1.21 0 0 0-1.712-1.711l-.764.764a1.21 1.21 0 1 0 1.712 1.711zm-3.326-1.928a1.21 1.21 0 0 1-2.421 0v-1.08a1.21 1.21 0 0 1 2.42 0zM6 3.875a1.21 1.21 0 0 1-1.712 1.711l-.764-.764A1.21 1.21 0 1 1 5.236 3.11z"
    fill="#000" fill-opacity=".85" stroke="#fff" stroke-width=".8" stroke-linecap="round" stroke-linejoin="round" />
  <mask id="b" maskUnits="userSpaceOnUse" x="3.25" y="2.858" width="16.971" height="16.971" fill="#000">
    <path fill="#fff" d="M3.25 2.858h16.971v16.971H3.25z" />
    <path fill-rule="evenodd" clip-rule="evenodd"
      d="M6.223 6.249c-.85.85-.85 2.226 0 3.075l7.017 7.017c.849.85 2.226.85 3.075 0l.44-.44a2.175 2.175 0 0 0 0-3.075l-.128-.127-.007-.007-2.636-2.636-.008-.007-4.238-4.24a2.175 2.175 0 0 0-3.076 0zm4.042 4.482q.093-.123.204-.236l.44-.439q.111-.112.235-.204L8.42 7.128a.31.31 0 0 0-.44 0l-.439.439a.31.31 0 0 0 0 .44z" />
  </mask>
  <path fill-rule="evenodd" clip-rule="evenodd"
    d="M6.223 6.249c-.85.85-.85 2.226 0 3.075l7.017 7.017c.849.85 2.226.85 3.075 0l.44-.44a2.175 2.175 0 0 0 0-3.075l-.128-.127-.007-.007-2.636-2.636-.008-.007-4.238-4.24a2.175 2.175 0 0 0-3.076 0zm4.042 4.482q.093-.123.204-.236l.44-.439q.111-.112.235-.204L8.42 7.128a.31.31 0 0 0-.44 0l-.439.439a.31.31 0 0 0 0 .44z"
    fill="#000" fill-opacity=".85" />
  <path
    d="m6.223 9.324-.566.566zm0-3.075.566.566zm7.017 10.092.565-.566zm3.075 0-.566-.566zm.44-3.515.565-.565zm-.128-.127-.565.566-.003-.003zm-.007-.007-.566.566zm-2.636-2.636.566-.566zm-.008-.007-.562.568-.003-.003zm-4.238-4.24.565-.565zm-3.076 0-.565-.565zm3.807 4.686-.565-.565zm-.204.236.64.48a.8.8 0 0 1-1.205.085zm.644-.675.565.566zm.235-.204.566-.566a.8.8 0 0 1-.086 1.206zM8.42 7.128l-.566.565zm-.44 0-.565-.566zm-.439.439.566.566zm0 .44-.566.565zM5.657 9.89a2.975 2.975 0 0 1 0-4.207L6.79 6.815a1.375 1.375 0 0 0 0 1.944zm7.017 7.017L5.657 9.89 6.79 8.759l7.016 7.016zm4.207 0a2.974 2.974 0 0 1-4.207 0l1.131-1.132a1.374 1.374 0 0 0 1.944 0zm.439-.44-.44.44-1.13-1.132.439-.44zm0-4.206a2.975 2.975 0 0 1 0 4.206l-1.131-1.131a1.375 1.375 0 0 0 0-1.944zm-.127-.127.127.127-1.131 1.131-.127-.127zm-1.134 1.128-.005-.004 1.132-1.132.01.01zm-.005-.004-2.636-2.636L14.55 9.49l2.636 2.636zm-2.636-2.636-.004-.005L14.54 9.48l.01.01zm-3.115-5.378 4.24 4.239-1.132 1.131-4.239-4.239zm-4.206 0a2.975 2.975 0 0 1 4.206 0L9.172 6.375a1.375 1.375 0 0 0-1.944 0zm-.44.44.44-.44 1.131 1.131-.44.44zm5.378 5.377a1.4 1.4 0 0 0-.13.15l-1.28-.96q.126-.17.279-.321zm.44-.44-.44.44L9.904 9.93l.439-.44zm.149-.129a1.4 1.4 0 0 0-.15.13L10.343 9.49a3 3 0 0 1 .321-.278zm-1.046-.074L7.854 7.693l1.131-1.131 2.725 2.724zM7.854 7.693a.49.49 0 0 0 .692 0L7.415 6.562a1.11 1.11 0 0 1 1.57 0zm.692 0-.44.44L6.977 7l.439-.439zm-.44.44a.49.49 0 0 0 0-.692l-1.13 1.131a1.11 1.11 0 0 1 0-1.57zm0-.692 2.725 2.724L9.7 11.296 6.975 8.572z"
    fill="#fff" mask="url(#b)" />
</svg>
