<svg width="16" height="16" viewBox="0 0 16 16" fill="none" xmlns="http://www.w3.org/2000/svg">
<path fill-rule="evenodd" clip-rule="evenodd" d="M4.15271 3.27832C4.23209 3.46519 4.27357 3.66699 4.27357 3.87195C4.27333 4.09414 4.22444 4.31126 4.13281 4.50909H13.7549C13.9094 4.49637 14.0534 4.42602 14.1584 4.31202C14.2634 4.19802 14.3217 4.04869 14.3217 3.8937C14.3217 3.73871 14.2634 3.58939 14.1584 3.47539C14.0534 3.36139 13.9094 3.29104 13.7549 3.27832H4.15271Z" fill="#ABABAB"/>
<path d="M2.75655 3.09182C2.60245 3.09182 2.45181 3.13752 2.32368 3.22313C2.19555 3.30874 2.0957 3.43042 2.03673 3.57279C1.97776 3.71516 1.96232 3.8718 1.99238 4.02294C2.02244 4.17407 2.09667 4.31291 2.20563 4.42187C2.3146 4.53083 2.45339 4.60504 2.60453 4.6351C2.75566 4.66516 2.91232 4.64973 3.05469 4.59076C3.19705 4.53179 3.31874 4.43192 3.40435 4.3038C3.48996 4.17567 3.53567 4.02504 3.53567 3.87094C3.53545 3.66437 3.45327 3.46632 3.30721 3.32026C3.16114 3.17419 2.96312 3.09204 2.75655 3.09182ZM2.75655 1.61523C3.20285 1.61523 3.6391 1.74757 4.01019 1.99553C4.38128 2.24348 4.6705 2.5959 4.84129 3.00823C5.01208 3.42056 5.05678 3.87427 4.96971 4.312C4.88264 4.74972 4.66775 5.15181 4.35217 5.46739C4.03659 5.78298 3.63446 5.99789 3.19674 6.08496C2.75901 6.17203 2.30533 6.12734 1.893 5.95655C1.48067 5.78576 1.12823 5.49652 0.880279 5.12544C0.632327 4.75435 0.5 4.31807 0.5 3.87177C0.499891 3.5754 0.558187 3.28193 0.67155 3.00811C0.784913 2.73428 0.951108 2.48548 1.16067 2.27592C1.37023 2.06635 1.61902 1.90015 1.89285 1.78678C2.16667 1.67342 2.46018 1.61513 2.75655 1.61523Z" fill="#ABABAB"/>
<path fill-rule="evenodd" clip-rule="evenodd" d="M6.7269 8.82647C6.67627 8.74872 6.63265 8.66614 6.59677 8.57963C6.48173 8.30222 6.45157 7.99693 6.51006 7.70236C6.51719 7.66643 6.5256 7.63086 6.53526 7.5957H2.13368C1.97921 7.60842 1.83521 7.67877 1.73021 7.79277C1.62521 7.90677 1.56689 8.05609 1.56689 8.21108C1.56689 8.36607 1.62521 8.5154 1.73021 8.6294C1.83521 8.74341 1.97921 8.81375 2.13368 8.82647H6.7269ZM9.27076 8.82647H13.8672C14.0216 8.81375 14.1657 8.74341 14.2707 8.6294C14.3757 8.5154 14.434 8.36607 14.434 8.21108C14.434 8.05609 14.3757 7.90677 14.2707 7.79277C14.1657 7.67877 14.0216 7.60842 13.8672 7.5957H9.46317C9.499 7.72608 9.51745 7.86136 9.51745 7.99803C9.51712 8.29446 9.43022 8.58188 9.27076 8.82647Z" fill="#ABABAB"/>
<path d="M7.99971 7.21975C7.84562 7.21975 7.69497 7.26545 7.56684 7.35106C7.43872 7.43667 7.33886 7.55835 7.27989 7.70072C7.22092 7.84309 7.20548 7.99973 7.23554 8.15087C7.26561 8.302 7.33984 8.44084 7.4488 8.5498C7.55776 8.65876 7.69656 8.73296 7.84769 8.76303C7.99883 8.79309 8.15548 8.77766 8.29785 8.71869C8.44022 8.65972 8.5619 8.55985 8.64751 8.43173C8.73312 8.3036 8.77883 8.15297 8.77883 7.99887C8.77861 7.7923 8.69644 7.59425 8.55037 7.44819C8.4043 7.30212 8.20628 7.21997 7.99971 7.21975ZM7.99971 5.74316C8.44601 5.74316 8.88227 5.8755 9.25335 6.12346C9.62444 6.37141 9.91366 6.72383 10.0845 7.13616C10.2552 7.54849 10.2999 8.0022 10.2129 8.43993C10.1258 8.87765 9.91092 9.27974 9.59533 9.59532C9.27975 9.9109 8.87763 10.1258 8.4399 10.2129C8.00218 10.3 7.54849 10.2553 7.13616 10.0845C6.72383 9.91369 6.37139 9.62445 6.12344 9.25337C5.87549 8.88228 5.74316 8.446 5.74316 7.9997C5.74305 7.70333 5.80135 7.40986 5.91471 7.13604C6.02808 6.86221 6.19427 6.61341 6.40383 6.40385C6.61339 6.19428 6.86218 6.02808 7.13601 5.91471C7.40984 5.80135 7.70335 5.74305 7.99971 5.74316Z" fill="#ABABAB"/>
<path fill-rule="evenodd" clip-rule="evenodd" d="M11.8648 12.7649C11.8563 12.7466 11.8482 12.7281 11.8404 12.7093C11.7254 12.4319 11.6952 12.1266 11.7537 11.8321C11.7741 11.7294 11.8049 11.6296 11.8455 11.5342H2.02235C1.86788 11.5469 1.72388 11.6172 1.61888 11.7312C1.51388 11.8453 1.45557 11.9946 1.45557 12.1496C1.45557 12.3045 1.51388 12.4539 1.61888 12.5679C1.72388 12.6819 1.86788 12.7522 2.02235 12.7649H11.8648Z" fill="#ABABAB"/>
<path d="M13.2434 11.3477C13.0893 11.3478 12.9387 11.3937 12.8107 11.4794C12.6827 11.5651 12.5829 11.6868 12.5241 11.8292C12.4653 11.9716 12.45 12.1282 12.4801 12.2793C12.5103 12.4304 12.5846 12.5691 12.6936 12.678C12.8026 12.7869 12.9414 12.861 13.0925 12.891C13.2436 12.921 13.4002 12.9055 13.5425 12.8465C13.6848 12.7875 13.8065 12.6877 13.8921 12.5596C13.9777 12.4315 14.0233 12.2809 14.0233 12.1268C14.0231 11.9201 13.9408 11.7219 13.7946 11.5758C13.6483 11.4297 13.4501 11.3477 13.2434 11.3477ZM13.2434 9.87109C13.6897 9.87109 14.1259 10.0034 14.497 10.2514C14.8681 10.4993 15.1573 10.8518 15.3281 11.2641C15.4989 11.6764 15.5436 12.1301 15.4565 12.5679C15.3695 13.0056 15.1546 13.4077 14.839 13.7233C14.5234 14.0388 14.1213 14.2537 13.6836 14.3408C13.2458 14.4279 12.7921 14.3832 12.3798 14.2124C11.9675 14.0416 11.615 13.7524 11.3671 13.3813C11.1191 13.0102 10.9868 12.5739 10.9868 12.1276C10.9868 11.5292 11.2246 10.9552 11.6477 10.532C12.0709 10.1088 12.6449 9.87109 13.2434 9.87109Z" fill="#ABABAB"/>
</svg>
