<svg width="1em" height="1em" version="1.1" xmlns="http://www.w3.org/2000/svg"
  xmlns:xlink="http://www.w3.org/1999/xlink"
  viewBox="0 0 20 20" xml:space="preserve">
<path d="M10.1,7.7C9.5,7.7,9,7.9,8.6,8.3C8.2,8.7,7.9,9.2,7.9,9.8s0.2,1.1,0.6,1.5c0.4,0.4,0.9,0.6,1.5,0.6c0.6,0,1.1-0.2,1.5-0.6
	c0.4-0.4,0.6-0.9,0.6-1.5S12,8.7,11.6,8.3c-0.2-0.2-0.4-0.4-0.7-0.5C10.6,7.7,10.3,7.7,10.1,7.7z M17.9,12.2l-1.2-1.1
	c0.1-0.4,0.1-0.7,0.1-1.1s0-0.7-0.1-1.1l1.2-1.1C18,7.8,18,7.7,18.1,7.5c0-0.1,0-0.2,0-0.4l0,0c-0.3-1-0.9-1.8-1.5-2.6l0,0
	c-0.1-0.1-0.2-0.2-0.3-0.2c-0.1,0-0.2,0-0.4,0l-1.5,0.5c-0.6-0.5-1.2-0.8-1.9-1.1l-0.3-1.6c0-0.1-0.1-0.2-0.2-0.3
	c-0.1-0.1-0.2-0.1-0.3-0.2l-0.1,0c-1-0.2-2-0.2-3,0l-0.1,0c-0.1,0-0.2,0.1-0.3,0.2C8.1,1.9,8,2,8,2.1L7.7,3.8C7,4,6.4,4.4,5.8,4.8
	L4.3,4.3c-0.1,0-0.2,0-0.4,0S3.7,4.4,3.6,4.5l0,0C2.9,5.3,2.4,6.2,2.1,7.1l0,0C2,7.4,2,7.7,2.2,7.8l1.3,1.1C3.4,9.3,3.4,9.6,3.4,10
	c0,0.4,0,0.7,0.1,1.1l-1.3,1.1c-0.1,0.1-0.2,0.2-0.2,0.3c0,0.1,0,0.2,0,0.4l0,0c0.3,1,0.9,1.8,1.5,2.6l0,0c0.1,0.1,0.2,0.2,0.3,0.2
	c0.1,0,0.2,0,0.4,0l1.6-0.6C6.4,15.6,7,16,7.7,16.2L8,17.9c0,0.1,0.1,0.2,0.2,0.3c0.1,0.1,0.2,0.1,0.3,0.2l0.1,0c1,0.2,2,0.2,3,0
	l0.1,0c0.1,0,0.2-0.1,0.3-0.2c0.1-0.1,0.1-0.2,0.2-0.3l0.3-1.6c0.7-0.3,1.3-0.6,1.9-1.1l1.5,0.5c0.1,0,0.2,0,0.4,0
	c0.1,0,0.2-0.1,0.3-0.2l0,0c0.7-0.8,1.2-1.7,1.5-2.6l0,0C18.1,12.6,18.1,12.3,17.9,12.2z M10.1,13.2c-1.8,0-3.3-1.5-3.3-3.3
	c0-1.8,1.5-3.3,3.3-3.3c1.8,0,3.3,1.5,3.3,3.3C13.4,11.7,11.9,13.2,10.1,13.2z" fill="currentColor" />
</svg>
