<svg width="32" height="32" viewBox="0 0 32 32" fill="none" xmlns="http://www.w3.org/2000/svg">
<g mask="url(#mask0_84_2696)">
<path d="M24.8558 7.52087H7.05889C6.49028 7.52087 5.94489 7.74676 5.54281 8.14883C5.14074 8.5509 4.91504 9.09622 4.91504 9.66483V23.1253C4.91504 23.6939 5.14074 24.2393 5.54281 24.6413C5.94489 25.0434 6.49028 25.2693 7.05889 25.2693H24.8558C25.4244 25.2693 25.9698 25.0434 26.3719 24.6413C26.774 24.2393 27 23.6939 27 23.1253V9.66483C27 9.09622 26.774 8.5509 26.3719 8.14883C25.9698 7.74676 25.4244 7.52087 24.8558 7.52087ZM24.7406 20.5761C23.6305 19.466 22.7397 18.5279 21.8016 17.6329C21.617 17.4285 21.3917 17.2651 21.14 17.1533C20.8883 17.0415 20.6158 16.9837 20.3404 16.9837C20.065 16.9837 19.7926 17.0415 19.5409 17.1533C19.2892 17.2651 19.0638 17.4285 18.8792 17.6329C18.7434 17.7385 18.6213 17.8606 18.5157 17.9965C17.876 18.9678 17.3973 18.6639 16.8089 17.891C15.8736 16.6615 14.8563 15.4945 13.8503 14.3205C12.6263 12.8884 11.5133 12.894 10.256 14.3288C9.04195 15.6815 8.00546 17.1836 7.17137 18.7985C7.17137 16.0939 7.17137 12.7802 7.17137 10.3531C7.17137 9.78557 7.51955 9.65929 7.97193 9.65929C13.2673 9.65929 18.5618 9.65929 23.8554 9.65929C24.4326 9.65929 24.7491 9.89658 24.7477 10.521C24.738 13.7654 24.7406 17.0251 24.7406 20.5761Z" fill="currentColor"/>
<path d="M21.4493 10.7111C20.8607 10.7289 20.3008 10.9695 19.8827 11.3842C19.4647 11.7989 19.2196 12.3568 19.197 12.9452C19.1946 13.54 19.4287 14.1113 19.8475 14.5335C20.2664 14.9558 20.8356 15.1943 21.4303 15.1967C22.0251 15.1991 22.5967 14.9652 23.0189 14.5463C23.4412 14.1274 23.6795 13.558 23.6819 12.9633C23.6634 12.3751 23.423 11.8158 23.0088 11.3979C22.5945 10.9801 22.0373 10.7346 21.4493 10.7111Z" fill="currentColor"/>
</g>
</svg>
