<svg xmlns="http://www.w3.org/2000/svg" viewBox="0 0 80 80">
<path d="M69.97 11.58c-1.27.34-2.34.85-3.36 1.68-.53-.69-.01-2.75.21-3.56-1.08.47-1.94 1.02-2.56 2.05-.47-.85-.49-1.68-.38-2.63-1.37.5-2.19 1.12-3 2.34-.9-.7-1.2-1.6-1.52-2.64-.89.9-1.34 1.78-1.58 3.02-.8-.2-1.34-.73-1.78-1.4-1.04.74-1.67 1.98-1.87 3.21-.55-.38-.91-.7-1.11-1.36-.95.93-1.74 2.37-2.04 3.67-.6.4-1.4.61-2.11.67-.75.89-.79 2.08-.82 3.19-.63.22-1.26.19-1.89-.04-.44.72-.51 1.65-.31 2.46-.43.22-.86.29-1.34.29-.5.73-.56 1.66-.43 2.5-.47.26-1.09.29-1.62.27-.15.58-.11 1.35.1 1.91-.31.56-.75.74-1.33.95.11.84.55 1.65 1.01 2.35-7.14-8.23-15.73-15.11-18.12-26.34-.43 2.05-.24 3.82.15 5.85-1.27-1.26-2.19-2.71-2.93-4.33-.4 1.8-.16 3.71.51 5.42-1.03-.78-1.78-1.45-2.57-2.48-.11 1.03-.23 1.97.32 2.91-.73.09-1.38-.09-2.04-.39-.33 1.54-.3 2.79.19 4.29-.63.39-1.23.38-1.89.06-.28.71.02 2.77.53 3.33.33 1.05-.93 1.44-1.54 1.66-.2 1.45 1.14 2.86 1.83 4.09.28.54-.56.47-.86.67.1.87 1.87 2.05 2.6 2.44-.45.55-1.46.79-2.14.88.71 1.26 3.33 2.01 2.53 2.81-.25.25-.81.41-1.14.51.57 1.22 3.77 3.21 3.69 3.31-.05.41-.43.8-.83.94.54.43 2.54.91 3.27.89-.2.56-.62.9-.95 1.37.06.43 1.09 1.24 1.54 1.39.41.4-.06.89-.36 1.18.21.45 1.4.96 1.87 1.15.11.48-.32.71-.71.81.1.81 2.01 1.9 2.72 2.2.15.81.53 2.15 1.03 2.8 1.05.16 2.24.56 3.17 1.07.05.68-.37 1.93-.93 2.34l-18.97 15c.34 2.95 18.9 8.32 19.24 7.21l3.5-14.37c7.08-1.28 12.06-2.72 15.78-4.98 3.72-2.27 6.19-5.37 8.23-9.99 1.37-.28 3.04.42 4.53.31.23-1.12-.85-2.73-1.57-3.53-.44-4.09.34-6.33-3.93-8.66 1.45-2.27 2.62-4.78 3.84-7.37 2.31-4.91 4.47-9.29 8.16-13.36Z"/>
</svg>