<svg xmlns="http://www.w3.org/2000/svg" viewBox="0 0 80 80">
<path d="M28.79 24.92l-16.91-4.53c-.63.77-1.22 1.57-1.78 2.4-.76 1.13-.14 2.69 1.18 3.04l14.39 3.86v45.31c0 .59.48 1.06 1.06 1.06h0c.59 0 1.06-.48 1.06-1.06V30.26l3.9 1.05v43.69c0 .59.48 1.06 1.06 1.06.58 0 1.06-.48 1.06-1.06V31.87c3.45.92 6.95.24 9.7-1.6v2.06c0 4.24 3.2 7.94 7.42 8.22 4.63.3 8.49-3.37 8.49-7.94V15.86c0-1.43 1.07-2.72 2.5-2.79 1.53-.08 2.79 1.13 2.79 2.64v10.04c0 0-3.28 3.28-3.28 3.28-.13.13-.04.36.15.36h4.1c1.94 0 3.53-1.59 3.53-3.53v-2.29c1.83-1.63 2.99-4 3.03-6.63.07-4.87-3.92-9.05-8.8-9.19-5.13-.15-9.33 3.97-9.33 9.06v15.69c0 1.28-.86 2.45-2.12 2.69-1.69.32-3.17-.96-3.17-2.59v-12.12c.07-5.32-3.46-10.22-8.84-11.66-10.16-2.72-20.49-.12-28.03 6.09-1.26 1.04-.8 3.07.78 3.5l4.76 1.27 11.85 3.17c3.8 1.02 7.69-1 9.12-4.56.2-.49.74-.76 1.25-.62.62.17.96.84.72 1.43-1.83 4.54-6.79 7.1-11.64 5.8ZM69.22 15.7c.62 0 1.12.5 1.12 1.12 0 .62-.5 1.12-1.12 1.12-.62 0-1.12-.5-1.12-1.12 0-.62.5-1.12 1.12-1.12Z"/>
</svg>