<svg xmlns="http://www.w3.org/2000/svg" viewBox="0 0 80 80">
<path d="M18.91 12.53c-.82 0-1.48.66-1.48 1.48 0 .82.66 1.48 1.48 1.48.82 0 1.48-.66 1.48-1.48 0-.82-.66-1.48-1.48-1.48ZM56.51 56.21c-3.73 1.75-7.37 4.3-10.82 7.59l-1.33 1.26c-.1-.03-.2-.06-.3-.06-.22 0-.42.09-.58.21h-3.5l-.54-.73c-3.01-4.01-7.03-7.2-11.63-9.23l-1.38-.61c-6.62-2.91-10.78-9.72-10.37-16.93l.94-16.38c.02-.43-.23-.8-.59-.96-.08-.09-.17-.17-.28-.22-.4-.21-.65-.61-.65-1.06v-1.64c0-.42-.26-.8-.66-.94l-4.08-1.47 3.6-1.6c.21-.09.38-.26.49-.47l1.64-3.29c.07-.14.11-.29.11-.45v-.08c.52-.24.93-.66 1.17-1.18.27.1.55.16.85.16.55 0 1.05-.19 1.46-.5.27.93 1.07 1.63 2.06 1.73 3.57 2.68 6.09 6.5 7.12 10.86l1.6 6.84c0 0 .02.07.03.11.51 1.43 1.55 2.6 2.91 3.27.8.4 1.7.61 2.57.61h0l18.69.56h.03c.23 0 .46-.08.63-.23l5.32-4.36c2.01-1.64 4.54-2.55 7.14-2.55.55 0 1-.45 1-1 0-.55-.45-1-1-1-3.06 0-6.04 1.07-8.41 3l-5.03 4.12-18.35-.55c-.59 0-1.18-.14-1.71-.4-.88-.44-1.56-1.18-1.9-2.11l-1.59-6.78c-1.04-4.43-3.47-8.38-6.93-11.28.33-.41.54-.94.54-1.51 0-1.34-1.08-2.42-2.42-2.42-.55 0-1.05.19-1.46.5-.29-1.01-1.21-1.76-2.32-1.76-.98 0-1.82.58-2.2 1.42-.27-.1-.55-.16-.85-.16-1.34 0-2.42 1.08-2.42 2.42 0 .96.56 1.78 1.37 2.17l-1.3 2.61-5.54 2.47c-.37.17-.61.54-.59.95.02.41.28.77.66.9l5.75 2.08v.94c0 1.11.57 2.11 1.49 2.69l-.91 15.82c-.46 8.05 4.18 15.63 11.56 18.88l1.38.61c4.28 1.88 8.03 4.86 10.84 8.6l.84 1.12v5.44l-.41 1-.94.76h-7.05c-.55 0-1 .45-1 1 0 .55.45 1 1 1h7.4c.23 0 .45-.08.62-.22l1.38-1.11 1.38 1.11c.18.14.4.22.62.22h2.38c.41 0 .76-.25.91-.6l.47.38c.18.14.4.22.62.22h2.38c.55 0 1-.45 1-1 0-.55-.45-1-1-1h-2.03l-.94-.76-.41-1v-5.16c.08-.04.17-.09.24-.15l1.77-1.69c3.29-3.14 6.75-5.57 10.29-7.22 7.4-3.47 10.89-9.91 9.83-18.15 0-.06-.01-.11-.02-.15.22-1.08.75-1.88 1.6-2.44 2.44-1.62 6.65-.69 6.69-.68.53.13 1.07-.21 1.2-.75.12-.54-.21-1.07-.75-1.2-.21-.05-5.07-1.13-8.23.96-1.35.89-2.18 2.19-2.49 3.88-.01.06-.02.12-.02.18 0 .07.01.22.04.46.94 7.3-2.15 13.02-8.7 16.08ZM42.04 73.99l-.94-.76-.41-1v-5.03h2.38v5.23c0 .13.03.26.08.38l.49 1.17h-1.59ZM24.79 31.69c-.55 0-1 .45-1 1v1.58c0 7.31 4.93 13.77 11.98 15.7 1.43.39 2.88.58 4.32.58 3.46 0 6.86-1.11 9.71-3.25l7-5.24c.44-.33.53-.96.2-1.4-.33-.44-.96-.53-1.4-.2l-7 5.24c-3.55 2.66-8.04 3.51-12.31 2.34-6.19-1.69-10.51-7.35-10.51-13.77v-1.58c0-.55-.45-1-1-1ZM75.14 27.67c.57.06 1.04-.33 1.1-.88.06-.55-.33-1.04-.88-1.11-.38-.04-9.31-.98-13.3 4.11-.34.43-.26 1.06.17 1.4.18.14.4.21.62.21.3 0 .59-.13.79-.38 3.3-4.21 11.42-3.37 11.5-3.36ZM78.31 30.26c-.37-.1-9.06-2.36-13.76 2.09-.4.38-.42 1.01-.04 1.41.2.21.46.31.73.31.25 0 .49-.09.69-.27 3.89-3.68 11.79-1.63 11.87-1.61.53.14 1.08-.18 1.22-.71.14-.53-.17-1.08-.71-1.22Z"/>
</svg>