<svg xmlns="http://www.w3.org/2000/svg" viewBox="0 0 80 80">
<path d="M55.37 44.89c-1.61-4.07-6.67-7.55-10.26-10.02-3.89-2.68-6.87-6.67-11.52-9.66-3.18-2.05-5.77-3.84-7.99-7-4.65-5.69-9.59-6.4-15.6-2.15-3.08-.17-4.65-.17-7.67.65 3.61 1.05 7.86 1.45 9.71 5.26 2.06 4.24-1.37 7.11-1.53 11.43-.4 11.21 11.68 17.56 20.66 21.81.18.7.42 1.42.96 1.92-1.05 3.28-2.61 6.53-3.72 9.92-1.02 1.32-2.45 1.62-3.94.95-.5-.22-.8-.32-1.25.08.18.09.23.22.09.39-1.13-.16-1.48.68-1.2 1.64.78-1.62 1.21-.58 1.76-.6 2.02-.06 4.01-.55 6.03-.17 1.5.34 1.93.65 3.46-.11.55-.12.68.33.85.74.07-.4.12-.93-.2-1.24-.59-.59-1.95.81-3.49-.18.12-.12.31-.07.45-.08.69-.15 1.23-.24 1.78-.29.83-.07 1.56-.08 2.37.15 1 .28 2.77.78 3.08.36.74-.23.91.02 1.33.58-.07-1.09-.36-1.99-1.62-1.32-.47.01-2.87-.25-3.07-.66.19-3.35 2.03-6.17 2.84-9.34 1.26-.75 1.18-2.82 1.43-4.17.86-.04 1.53-.76 2.31-.76 1.37.8 9.93 5.74 10.96 4.59 0-.95-2.51-4.55-3.96-6.71.8-.41 2.17-.11 3.14-.49 2.03 2.33 6.02 6.81 9.25 6.99-.37-1.73-3.03-5.19-3.21-6.44 1.34.78 10.54 3.3 11.69 3.48 1.65.16 4.31-.08 5.39-1.52 1.18-.33 3.52-.16 2.9-1.89-.67-.65-19.66-5.45-22.19-6.15ZM32.73 67.25c-.63.15-1.42.21-1.88.7-.48 0-.72.08-.79.21-.18-.21-.3-.45-.36-.72 1.05-3.51 2.23-6.32 3.85-9.6.86-.91 1.01-.91 1.36-2.23.3 1.03.34 1.12 1.04 1.94-.28 1.43-1.96 9.43-3.22 9.68Z"/>
</svg>