<svg xmlns="http://www.w3.org/2000/svg" viewBox="0 0 80 80">
<path d="M4.26 24.97l3.96 2.78c-1.35.38-2.52 1.28-3.2 2.52-.71 1.29-.84 2.82-.38 4.22.46 1.4 1.5 2.54 2.84 3.14l11.67 5.29-1.4 1.4h-3.22c-1.51 0-2.88.77-3.67 2.05-.79 1.28-.86 2.85-.19 4.2l.76 1.52c1.18 2.36 3.55 3.83 6.19 3.83h2.37l-1.61 1.65c-1.85 1.9-1.88 4.91-.07 6.85 1.2 1.28 2.81 2 4.54 2.03.03 0 .06 0 .09 0 1.7 0 3.3-.67 4.51-1.9l2.7-2.74 6.6 4.94c.06.05.13.07.2.1v5.49l-.47 1.13-1.08.86h-2.25c-.55 0-1 .45-1 1 0 .55.45 1 1 1h7.4c.23 0 .45-.08.62-.22l1.55-1.24c0 0 .01-.01.02-.02 0 0 .01.01.02.02l1.55 1.24c.18.14.4.22.62.22h8.1c.55 0 1-.45 1-1 0-.55-.45-1-1-1h-7.75l-1.08-.86-.47-1.13v-6.62c0 0 0-.03 0-.04 7.55-1.77 14.62-5.41 20.44-10.54l2.78-2.45c2.38-2.1 4.17-4.8 5.18-7.81 1.07-3.22 1.22-6.66.41-9.96l-3.26-13.36c.95-.16 1.84-.63 2.5-1.35.83-.91 1.25-2.13 1.15-3.35l-.04-.52h4.07c.31 0 .61-.15.8-.4.19-.25.25-.58.16-.88-.5-1.73-4.51-5.48-7.16-6.36l-.17-.12-.47-.53c-1.87-2.11-4.56-3.31-7.38-3.31-1.58 0-3.07.69-4.1 1.88-.85.98-1.31 2.24-1.31 3.53 0 1.98.4 3.91 1.18 5.74l.64 1.5c2.57 6.02 2.03 8.32 1.47 9.16-.65.99-2 .99-2.72.99h-13.39L27.99 6.66c-2-2.52-5.6-3-8.2-1.1-1.19.87-1.95 2.2-2.11 3.66l-4.78-4.78c-2.06-2.06-5.41-2.06-7.46 0l-.86.86c-1.05 1.05-1.61 2.49-1.54 3.97.07 1.48.76 2.87 1.9 3.82l2.27 1.87c-1.69.24-3.22 1.18-4.18 2.57-.85 1.15-1.18 2.57-.95 3.98.23 1.41 1 2.64 2.17 3.46ZM8.3 35.8c-.84-.38-1.47-1.07-1.76-1.95-.29-.88-.21-1.81.23-2.62.45-.82 1.2-1.39 2.11-1.61.91-.22 1.84-.05 2.61.48.06.04.12.05.18.08l2.62 1.84 9.77 6.44c-.7.41-1.36.91-1.95 1.5l-1.49 1.49c-.07-.07-.15-.13-.24-.17l-12.08-5.47ZM41.76 65.71v6.62l-.47 1.13-1.08.86h-1.91l.59-1.41c.05-.12.08-.25.08-.38v-6.11c0-.45-.31-.82-.72-.94-.07-.13-.16-.25-.28-.34l-6.38-4.78 1.45-1.47c.08-.08.17-.14.25-.21l8.67 6.47c-.11.16-.19.35-.19.56ZM70.34 18.84c-.4.44-.93.69-1.51.75l-.8-3.28h2.88l.06.69c.06.68-.17 1.33-.63 1.83ZM70.48 10.71c1.51.63 3.5 2.33 4.65 3.61h-6.07c-.19-2.04.85-3.16 1.42-3.61ZM20.98 7.18c1.72-1.27 4.12-.95 5.45.73l15.56 19.61h-2.25c-2.17 0-4.22-.83-5.77-2.34l-10.04-9.72-3.32-3.32c-.68-.68-1.02-1.61-.95-2.57.07-.95.56-1.83 1.33-2.39ZM6.21 11.55c-.72-.6-1.13-1.44-1.18-2.37-.04-.93.3-1.81.96-2.47l.86-.86c1.28-1.28 3.36-1.28 4.64 0l11.03 11.03c0 0 0 0 0 0 0 0 0 0 0 0l10.04 9.72c1.93 1.87 4.48 2.9 7.16 2.9h18.2c.94 0 3.14 0 4.39-1.88 1.39-2.11.97-5.72-1.3-11.05l-.64-1.5c-.67-1.57-1.02-3.24-1.02-4.95 0-.82.29-1.61.83-2.23.65-.75 1.59-1.19 2.59-1.19 2.25 0 4.39.96 5.88 2.64l.15.16c-.87.85-1.92 2.39-1.75 4.79h-.29c0 0-.08.02-.12.02-.04 0-.08 0-.12 0-.03 0-.05.03-.07.03-.07.02-.12.05-.18.09-.05.03-.11.06-.15.1-.05.04-.09.09-.13.14-.04.05-.08.1-.11.16-.03.06-.05.11-.06.17-.02.07-.03.13-.04.2 0 .03-.02.05-.02.08 0 .04.02.08.02.12 0 .04 0 .08 0 .12l4.84 19.82c.72 2.93.59 5.99-.36 8.85-.89 2.68-2.48 5.08-4.6 6.95l-2.78 2.45c-5.54 4.88-12.26 8.36-19.44 10.07l-.18-.07-7.97-5.95c.28-.06.57-.09.86-.09h1.83c.55 0 1-.45 1-1 0-.55-.45-1-1-1h-1.83c-1.69 0-3.35.69-4.53 1.9l-2.04 2.07c-.13.07-.25.16-.35.28-.03.04-.04.09-.06.14l-3.11 3.16c-.83.84-1.92 1.31-3.08 1.31-.02 0-.04 0-.06 0-.54 0-1.07-.13-1.56-.33l10.26-10.43c.39-.39.38-1.03-.01-1.41-.39-.38-1.03-.38-1.41.01l-10.47 10.65c-.98-1.16-.94-2.87.13-3.97l3.25-3.35 4.64-4.64c1.45-1.45 3.38-2.25 5.44-2.25.55 0 1-.45 1-1 0-.55-.45-1-1-1-2.59 0-5.02 1.01-6.85 2.84l-4.36 4.36h-4.32c-1.88 0-3.56-1.04-4.4-2.72l-.04-.08h6.78c.27 0 .52-.11.71-.29l4.65-4.65c1.43-1.43 3.41-2.25 5.44-2.25h7.2c.55 0 1-.45 1-1 0-.55-.45-1-1-1h-7.2c-2.55 0-5.05 1.03-6.85 2.84l-4.36 4.36h-7.29c-.12-.58-.02-1.18.3-1.7.42-.69 1.16-1.1 1.97-1.1h3.63c.27 0 .52-.11.71-.29l4.65-4.65c1.45-1.45 3.38-2.25 5.44-2.25h21c.55 0 1-.45 1-1 0-.55-.45-1-1-1h-13.27c0 0-.04-.06-.07-.09l-3.22-2.71h23.76c.55 0 1-.45 1-1 0-.55-.45-1-1-1h-25.58c-.16 0-.3.04-.43.11l-17.54-14.76-1.56-1.32c0 0 0 0 0 0 0 0 0 0 0 0l-5.83-4.78ZM4.66 18.69c.68-.98 1.7-1.6 2.87-1.76 1.17-.16 2.32.18 3.23.94l3.09 2.6c0 0 .01 0 .01 0l19.76 16.63h-4.66c-.96 0-1.9.14-2.8.41-.07-.09-.15-.18-.25-.25l-10.5-6.92-10.01-7.03c-.73-.51-1.21-1.27-1.35-2.15-.14-.88.07-1.75.61-2.49ZM63.71 10.06c-.6186 0-1.12.5014-1.12 1.12 0 .6186.5014 1.12 1.12 1.12.6186 0 1.12-.5014 1.12-1.12 0-.6186-.5014-1.12-1.12-1.12Z"/>
</svg>