<svg xmlns="http://www.w3.org/2000/svg" viewBox="0 0 80 80">
<path d="M20.48 31.06h11.32c-4.16-6.93-11.46-11.77-19.92-12.55-1.31-.12-2.44.94-2.44 2.25v18.31c0 12.17 8.3 22.74 19.51 25.78l5.53 9.58h23.1c.91 0 1.64-.73 1.64-1.64h0c0-.91-.73-1.64-1.64-1.64h-9.8l-2.72-4.71c-1.41.5-2.88.9-4.39 1.18l2.04 3.54h-5.07l-3.14-5.44c.5.02 1 .03 1.51.02 14.17-.27 25.57-11.84 25.57-26.07v-11.05c.22.04.44.07.67.07 2.15 0 3.88-1.74 3.88-3.88 0-1.09-.45-2.08-1.18-2.78l4.74-1.7c.66-.24.76-1.14.17-1.51l-7.05-4.46c1.27-.64 2.15-1.94 2.15-3.46 0-2.15-1.74-3.88-3.88-3.88-.59 0-1.14.14-1.64.37-.61-2.07-2.5-3.59-4.77-3.59-2.27 0-4.31 1.63-4.84 3.82-.6-.38-1.3-.6-2.06-.6-2.15 0-3.88 1.74-3.88 3.88 0 1.45.8 2.7 1.98 3.36-5.89 4.45-9.83 11.34-10.31 19.17h-12.54c-1.43 0-2.56 1.27-2.33 2.69 1.29 8.01 8.22 14.12 16.59 14.12h5.74c.65 0 1.17.53 1.17 1.17 0 .64-.53 1.17-1.17 1.17h-5.74c-10.58 0-19.16-8.58-19.16-19.16 0-1.3 1.05-2.35 2.35-2.35ZM54.68 15.88c1.39 0 2.52 1.13 2.52 2.52 0 1.39-1.13 2.52-2.52 2.52-1.39 0-2.52-1.13-2.52-2.52 0-1.39 1.13-2.52 2.52-2.52Z"/>
</svg>