<svg xmlns="http://www.w3.org/2000/svg" viewBox="0 0 80 80">
<path d="M8.9 73.03c1.82 0 3.46-.78 4.61-2.02 2.82 3.85 7.43 6.35 12.55 6.35h29.21c1.66 0 2.89-1.66 2.28-3.21-.97-2.43-3.09-3.94-6.3-5.01-1.09-.36-2.22-.6-3.36-.74-.41-.05-.9-.09-1.49-.09-1.76-.01-3.51.35-5.16.96l-1.07.39c-.38.14-.75-.18-.7-.57.08-.6.12-1.2.12-1.82 0-7.26-5.59-13.21-12.7-13.78-.64-.05-1.13-.6-1.13-1.24 0-.74.64-1.32 1.38-1.25 8.17.68 14.63 7.38 14.94 15.65l.57-.15c.98-.26 1.98-.4 2.99-.4 1.26 0 2.47.21 3.6.59 7.29-7.5 8.89-17.69 1.77-27.56-1.41-1.95-2.83-3.77-4.11-5.34 1.07.43 2.18.81 3.33 1.12 6.67 1.79 13.42 1.07 19.26-1.57 2.35-1.06 2.04-4.51-.45-5.18l-23.78-6.37c.64-.31 1.26-.64 1.89-1 5.98-3.45 10.25-8.73 12.51-14.72.91-2.41-1.75-4.63-3.98-3.34l-31.75 18.33c-.33.19-.66.39-.98.59-6.93 4.36-6.84 14.47.33 18.42.29.16.61.29.92.43-7.61 3.73-12.98 11.34-13.51 20.26-.56-.17-1.16-.26-1.78-.26-3.47 0-6.28 2.81-6.28 6.28 0 3.47 2.81 6.28 6.28 6.28ZM28.11 25.65c1.57 0 2.84 1.27 2.84 2.84 0 1.57-1.27 2.84-2.84 2.84-1.57 0-2.84-1.27-2.84-2.84 0-1.57 1.27-2.84 2.84-2.84Z"/>
</svg>