<svg xmlns="http://www.w3.org/2000/svg" viewBox="0 0 80 80">
<path d="M76.72 46.13c-2.01-2.66.62-8.64-1.99-13.28-1.73-3.07-4.43-7.87-8.1-7.87-2.22 0-4.99-.4-7.29-.77-7.19-1.14-12.8 2.14-19.68.98-5.72-1.07-7.29.67-12.24 1.05-2.76.21-6.36 1.28-7.14 4.42-.17-.51-.28-.82-.43-1.11-.19-.38-.45-.74-.68-1.09-.65.69-1.29 1.34-1.86 2.11-.45.61-.51.68-.46 1.81-.14-.15-.23-.32-.33-.5-.51-.92-1.27-1.03-2.16-1.5-.74-.78-1.08-.91-2.07-1.24.06 1.05.13 2.35.6 3.31.41.83 1.11 1.42 2.37 1.91-.64 1.63-.52 2.28-.79 3.78-.3 1.71-.54 3.03-1.67 4.5-1.37-.02-2.71.67-4.17.66.32 1.73.54 2.28 1.78 3.52-.47.55-1.62.8-3.01.9-1.41.1-3.08.05-4.57 0-.22 0-1.19.08-1.17.46.04.55 2.04 1.46 3.77 2.25 1.66.75 3 1.58 4.56 2.52.91 2.13 1.39 3.22 2.2 3.66.81.44 2.61-.29 4.15-.21 1.15-.95 2.25-2.57 2.57-3.29 2.56-1.77 3.42-4.56 4.72-7.14.77.97 2.06.46 2.83.21 1.17.4.33.62 1.81.62l1.52-.68c2.68 4.07 2.78 4.91 3.22 8.45.19 1.52.79 4.71-.73 5.61-.77.45-1.57.93-1.91 1.46-.33.52-.28 1.4.75 1.73.96.33 4.99.17 5.94-.22l.26-1.14c1.09.23 2.17.2 3.02.05.76-.12.23-3.16.55-3.6.54-.74 1.02-1.58 1.07-2.54.02-.45-.19-.97-.45-1.59-.56-1.35-1.29-3.13-.04-5.38 8.46 1.76 13.86 1.36 20.95-3.98.76 1.32 1.56 2.18 2.28 2.95 1.75 1.88 3.04 3.25 2.18 9.63-1.35.76-3.55 1.5-2.66 2.82.86.21 2.19-.21 3.29-.32-.1.06-.2.13-.31.2-.6.39-1.33.85-1.56 1.34-.28.57.43 1.25.73 1.24l5.69-.22c.96-.04.74-1.45.52-2.03-.1-.28-.23-.6-.34-1 .16-1.15-.05-1.3.81-2.02 1.54-1.27 2.13-2.09 1.32-4.16-.82-2.13-.96-2.66-.96-4.91 0-.48.13-.78.27-1.12.24-.57.52-1.24.32-2.99-.11-.92.36-2.57.64-3.49.11-.35.44 3.79.44 5.41.15 3.35 2.87 3.35 3.27 3.68-.12-.28-.57-1.51-.9-2.48-.17-.49-.41-.96-.73-1.38Z"/>
</svg>