<svg xmlns="http://www.w3.org/2000/svg" viewBox="0 0 80 80">
<path d="M6.45 73.12h14.96c5.74 0 10.6-3.76 12.26-8.95 2.67 1.41 5.71 2.21 8.94 2.21-.45.65-1.34 2.1-2.16 3.49-.85 1.44.18 3.25 1.85 3.25h17.71c1.39 0 2.3-1.45 1.7-2.7-1.01-2.11-3.16-3.56-5.66-3.56-1.14 0-2.21.31-3.13.84l6.09-10.55c1.84-3.02 2.78-6.44 2.78-9.97 0-6.78-5.26-12.33-11.91-12.82-.54-.04-.96-.51-.96-1.06 0-.62.53-1.1 1.16-1.06 5.05.33 9.78 2.81 11.71 7.26l2.86-3.86c.52-.71 1.53-.82 2.2-.25l.66.57c.61.52 1.51.65 2.2.23 1.29-.77 1.41-2.58.27-3.52l-3.1-2.57c-.68-.56-1.62-.69-2.43-.33l-3.29.73-.17-2.36c.16-3.04 9.8-3.11 9.8-3.11 2.31-.08 3.42-1.9 2.04-3.76l-4.3-5.81c-.52-.98-1.22-1.86-2.07-2.56v-7.32c0-.53-.52-.9-1.03-.75-1.84.54-3.36 2.67-4.28 4.33-.08.15-.3.14-.36-.02-.31-.77-.99-2.47-1.42-3.54-.2-.49-.82-.66-1.23-.32-2.07 1.71-2.69 4.13-1.71 6.64 0 0-3 1.17-4.07 5.17-.38 1.41-1.57 2.46-3.02 2.65-17.03 2.22-25.92 12.94-25.92 27.47v9.18c1 14.08-13.24 9.31-17.76 15.22-.48.62 0 1.53.79 1.53ZM67.2 17.93c.79 0 1.43.64 1.43 1.43 0 .79-.64 1.43-1.43 1.43-.79 0-1.43-.64-1.43-1.43 0-.79.64-1.43 1.43-1.43Z"/>
</svg>