<svg xmlns="http://www.w3.org/2000/svg" viewBox="0 0 80 80">
<path d="M70.17 30.62c.73 0 1.31-.59 1.31-1.31 0-.72-.59-1.31-1.31-1.31-.72 0-1.31.59-1.31 1.31 0 .72.59 1.31 1.31 1.31ZM4.84 51.98c.19.28.5.44.83.44.03 0 .05 0 .08 0 .36-.03.67-.25.83-.57l1.32-2.83c.58-1.25.67-2.65.24-3.96l-.44-1.35.55-3.36c.62 2.92 1.67 5.19 2.15 6.12l-1.86 4.19c-.59 1.32-.88 2.72-.88 4.17v9.52c0 .13.02.25.07.37l1.21 3.02c.15.38.52.63.93.63h9.67c.55 0 1-.45 1-1v-1.81c0-.16-.04-.31-.11-.45l-1.1-2.21v-9.4c.6.31 1.23.57 1.9.77v1.04c0 1.37 1.11 2.48 2.48 2.48 1.37 0 2.48-1.11 2.48-2.48v-.59c1.11-.1 2.23-.32 3.28-.63l.25.6c.4.96 1.35 1.56 2.35 1.56.26 0 .53-.04.79-.13 1.33-.44 2.05-1.88 1.61-3.21l-.41-1.24c.36-.31.69-.64.99-.99.11.04.22.06.34.06.03 0 .06 0 .1 0l10.16-.97c.12.29.25.58.4.86l2.1 3.91c.35.65.54 1.39.54 2.13v10.71c0 .55.45 1 1 1h9.67c.55 0 1-.45 1-1v-24.16c0-.17-.05-.31-.12-.45l3.58-5.36c1.44.6 3.17.93 5.26 1 .01 0 .02 0 .04 0 .02 0 .05 0 .07 0l4.37-.3c1.7-.12 3.2-1.21 3.83-2.8l.37-.92c.58-1.46.34-3.15-.64-4.4-.84-1.07-1.99-2.66-2.71-4.16-.15-.32-.35-.63-.55-.95l.96-.39c1.21-.5 1.87-1.83 1.52-3.09-.3-1.09-1.26-1.86-2.44-1.92-1.76-.08-3.54.06-5.28.4l-1.82.36c0 0 0 0 0 0-1.06-.06-2.36-.02-3.98.19h-11.29c0 0-.08 0-.12 0l-21.39 2.5-16.41-1.3c-2.95-.29-5.92.62-7.94 2.46-1.85 1.68-2.83 4.04-2.83 6.84v12.51l-.35 1.46c-.4 1.7-.07 3.5.91 4.94l1.46 2.15ZM18.54 66.37h-2.84v-.81c0-.16-.04-.31-.11-.45l-1.1-2.21v-5.79c0-.99.3-1.94.88-2.75l1.72-2.41c.09.08.17.17.26.25 0 .04-.02.07-.02.1v10.83c0 .16.04.31.11.45l1.1 2.21v.58ZM32.62 50.28c-.11.09-.2.21-.26.33-.35.25-.52.69-.38 1.12l.6 1.8c.09.28-.06.59-.34.68-.26.08-.56-.04-.67-.3l-.61-1.45c-.02-.06-.07-.1-.1-.15-.04-.06-.07-.12-.11-.16-.05-.05-.11-.08-.17-.12-.05-.03-.09-.07-.14-.09-.07-.03-.15-.04-.22-.05-.05 0-.1-.03-.15-.03-.07 0-.14.02-.21.03-.05.01-.11 0-.16.02-1.17.43-2.47.72-3.77.83-.14.01-.27.05-.38.11-.11-.04-.22-.07-.34-.07-.55 0-1 .45-1 1v1.53c0 .27-.22.48-.48.48-.26 0-.48-.22-.48-.48v-1.52c0-.34-.18-.62-.43-.8-.13-.25-.34-.44-.63-.52-1.5-.39-2.77-1.09-3.86-2.12 1.86-2.18 4.55-4.2 6.78-4.41l9.95-.43c-.1 1.92-.91 3.52-2.42 4.76ZM58.37 66.37h-2.84v-16.6c0-.89.32-1.75.91-2.41l1.93-2.21v21.22ZM73.85 21.46c.26.01.48.19.55.44.08.29-.07.6-.35.71l-1.47.6c-.73-.83-1.41-1.46-1.65-1.68.96-.09 1.93-.13 2.92-.09ZM4.42 45.35l.37-1.57c.02-.08.03-.15.03-.23v-12.62c0-2.25.73-4.05 2.18-5.36 1.9-1.72 4.55-2.13 6.42-1.95l.89.07c-.87 1.94.22 5.99.46 7.6.15 1 .35 2.05.98 2.85 1 1.28 2.78 1.57 4.39 1.78 1.12.14 2.28.28 3.35-.05 1.88-.59 3.47-2.59 5.38-2.11 1.36.34 2.28 1.89 3.68 1.91 1.72.03 2.49-2.07 3.41-3.52.92-1.45 2.37-2.48 3.51-3.76 1.14-1.28 2.01-3.09 1.41-4.7-.04 0-.08 0-.12-.01l10.8-1.26h11.28c0 0 .04-.01.07-.01.02 0 .04 0 .06 0 4.94-.65 6.39.43 6.48.51 0 0 .02.01.03.02 0 0 .01.02.02.03.62.54 2.39 2.27 3.09 3.72.8 1.66 2.04 3.37 2.94 4.52.54.69.68 1.62.36 2.43l-.37.92c-.35.87-1.18 1.48-2.11 1.54l-4.32.3c-5.69-.22-7.57-2.37-8.58-6.04.83-.35 1.72-.9 2.65-1.73.41-.37.45-1 .08-1.41-.37-.42-1-.45-1.41-.08-1.98 1.76-3.72 2-4.5 1.48-.3-.2-.4-.49-.27-.85.44-1.26 2.54-1.76 3.32-1.85.55-.06.94-.55.88-1.1-.06-.55-.56-.95-1.1-.89-.17.02-4.05.47-4.99 3.19-.42 1.22 0 2.46 1.05 3.17.51.34 1.21.57 2.05.57.1 0 .2-.01.3-.02.71 2.54 1.82 4.36 3.49 5.58l-4.11 6.16-3.04 3.47c-.9 1.03-1.4 2.36-1.4 3.73v16.6h-2.84v-9.71c0-1.07-.27-2.14-.78-3.08l-2.1-3.91c-.14-.27-.27-.54-.39-.82-.08-.21-.24-.35-.41-.46-.15-.42-.55-.72-1.02-.67l-9.66.92c.48-1.08.73-2.26.73-3.53 0-.11-.03-.21-.06-.3.04-.12.07-.25.06-.38-.02-.55-.49-1-1.04-.96l-11.07.48c-3.41.32-7.04 3.4-9.12 6.32l-2.09 2.93c-.82 1.15-1.25 2.5-1.25 3.91v6.03c0 .16.04.31.11.45l1.1 2.21v.58h-3.16l-.89-2.22v-9.33c0-1.16.24-2.29.71-3.35l2.06-4.64c.13-.29.11-.63-.05-.9-.03-.05-2.72-4.81-2.62-10.38v-4.46c0 0-.02-.08-.02-.12 0-.07-.02-.13-.04-.2-.02-.06-.05-.12-.08-.17-.03-.06-.06-.11-.1-.16-.04-.05-.09-.09-.14-.13-.05-.04-.1-.07-.15-.1-.06-.03-.12-.05-.19-.07-.04-.01-.07-.03-.11-.04-.03 0-.05 0-.08 0-.03 0-.05-.02-.08-.02-.04 0-.07.02-.11.02-.08 0-.15.02-.22.04-.05.02-.1.04-.14.07-.07.04-.13.07-.18.12-.04.04-.08.08-.12.12-.04.05-.08.11-.11.17-.03.06-.05.12-.07.18-.01.04-.04.07-.04.11l-2.09 12.7c-.03.16-.01.32.04.47l.52 1.58c.27.82.22 1.71-.15 2.49l-.58 1.24-.47-.7c-.67-.98-.89-2.2-.62-3.35ZM42.11 38.13c.97-.18 1.93-.62 2.91-.51 1.25.14 2.26 1.14 3.49 1.38.91.18 1.89-.1 2.57-.72.68-.62 1.05-1.57.95-2.49-.07-.66-.35-1.28-.57-1.91-.46-1.33-.64-2.76-.5-4.16.04-.38.09-.8-.13-1.13-.21-.31-.6-.43-.96-.49-1.28-.23-2.58-.03-3.82.3-.87.23-2.77.53-3.24 1.4-.36.68.03 1.65-.28 2.41-.5 1.23-1.64 1.9-2.47 2.85-.51.59-.86 1.43-.55 2.15.4.91 1.61 1.11 2.59.93Z"/>
</svg>