<svg xmlns="http://www.w3.org/2000/svg" viewBox="0 0 80 80">
<path d="M34.82 75.09c2.36.07 19.97.94 21.12.49 1.62-.67 2.17-1.68 2.74-3.71 2.09 1.53 5.2 2.61 7.01-.28.67-1.07.64-2.38.09-3.5-.78-1.6-2.69-3.03-5.83-3.36-.46-9.08-4.24-22.9-15.31-29.75-2.17-1.27-7.49-2.71-11.42-2.83 2.31-3.85.7-7.9.55-8.85.8-2.13 2.63-4.52 3.86-6.66.86-1.34 2.19-3.09 2.87-5.14.65-1.75.9-2.94.82-3.65-.11-.94-.76-1.01-1.52-.73-1.04.38-2.55 1.5-4.34 3.12.23-1.55.8-4.47.28-5.65-.42-.97-1.33-.43-1.9.06-3.33 2.82-4.29 7.27-5.06 11.31-.34 1.76-.59 3.54-.87 5.72-1.89.44-3.54 1.39-4.96 2.63-2.3 2.02-2.6 3.46-4.22 5.53-.48.61-1.06 1.36-1.23 2.56-.43 2.94 3.19 3.06 5.31 3.36-1.66 2.87-1.82 4.66-1.14 7.96.92 8.88 3.49 9.36 8.19 11.9.95.51 1.92 1.04 2.89 1.63.69.49.77.95.67 1.44-2.5 2.27-1.39 11.79-2.34 11.95-3.66-.48-4.79-.97-8.3-.78-2.25.08-3.46 2.09-2.05 3.74.6.7 1.74 1.09 2.64 1.14l3.36.1c-1.87 2.74 4.74 1.15 8.1.24ZM38.39 62.24c1.18 4.01 3.91 6.21 3.64 9.38-.46.57-3.96-.59-5.8-.53-.03 0-.06 0-.08 0 0-3.79 2.24-5.04 2.24-8.83Z"/>
</svg>