<svg xmlns="http://www.w3.org/2000/svg" viewBox="0 0 80 80">
<path d="M6.26 57.2c5.29-2.4 9.28-7.19 10.58-12.97.53-2.22 1.14-3.82 2.18-5.14.41-.51 1.19-.03.92.57-.75 1.67-.92 3.57-.92 6.09v28.63h3l4.72-21.55h14.99l4.72 21.55h3v-21.77c6.81-1.2 12.02-7.17 12.02-14.31v-11.66c0-1.43 1.16-2.59 2.59-2.59h1.77c.3.64.79 1.21 1.47 1.63 1.2.74 2.77.73 3.96-.02 2.15-1.36 2.38-4.24.69-5.93l-9.23-9.23-1.54-5.74c-.24-.9-1.41-1.21-2.03-.5-.34.39-.65.82-.92 1.29-.6 1.04-.95 2.15-1.07 3.27l-2.57-2.57c-.66-.66-1.83-.34-2 .58-.1.51-.15 1.04-.15 1.57 0 1.02.18 1.99.52 2.89-6.05 3.11-10.21 9.42-10.21 16.66v3.29h-22.19c-7.99 0-14.53 6.54-14.53 14.53v11.32c0 .1.11.18.2.13ZM61.55 14.55c.76 0 1.38.62 1.38 1.38 0 .76-.62 1.38-1.38 1.38-.76 0-1.38-.62-1.38-1.38 0-.76.62-1.38 1.38-1.38ZM32.99 74.37 38.23 54.83 31.04 54.83 29.99 74.37 31.04 74.37 32.99 74.37ZM61.48 46.18c-1.7 3.11-4.37 5.62-7.6 7.12l4.59 21.07h3v-28.19Z"/>
</svg>