<svg xmlns="http://www.w3.org/2000/svg" viewBox="0 0 80 80">
<path d="M17.03 45.29c0 3.22 2.61 5.83 5.83 5.83h36.55c3.22 0 5.83-2.61 5.83-5.83 0-3.22-2.61-5.83-5.83-5.83H22.87c-3.22 0-5.83 2.61-5.83 5.83ZM28.29 25.98c-3.22 0-5.83 2.61-5.83 5.83 0 3.22 2.61 5.83 5.83 5.83h25.4c3.22 0 5.83-2.61 5.83-5.83 0-3.22-2.61-5.83-5.83-5.83h-25.4ZM11.16 58.77C11.16 55.6021 13.8221 52.94 16.99 52.94L64.99 52.94C68.1579 52.94 70.82 55.6021 70.82 58.77L70.82 58.78C70.82 61.9479 68.1579 64.61 64.99 64.61L16.99 64.61C13.8221 64.61 11.16 61.9479 11.16 58.78L11.16 58.77ZM19.84 66.43c0 0-1.18 7.5 13.09 8.96.99.1 1.47-1.19.64-1.74-2.28-1.52-4.66-3.91-4.37-7.21h-9.37ZM20.22 13.56c.2.29.53.44.85.44.21 0 .42-.06.6-.19.01-.01 1.38-.95 3.61-1.42 1.5.91 3.52 1.61 6.17 1.61.21 0 .43-.02.65-.03.57 1.97 2.36 3.42 4.52 3.42h3.66c1.96 0 3.56 1.59 3.56 3.56v3.39h9.98v-5.83c0-5.83-4.73-10.56-10.56-10.56h-6.63c-2.34 0-4.27 1.71-4.64 3.94-2.61.09-4.51-.58-5.84-1.44-.03-.02-.05-.04-.08-.05-1.85-1.22-2.59-2.76-2.65-2.88-.24-.53-.86-.76-1.38-.53-.53.24-.77.85-.53 1.38.05.11.56 1.21 1.74 2.41-1.71.58-2.72 1.29-2.77 1.33-.47.34-.58.99-.24 1.46ZM37.5 10.73c.59 0 1.07.48 1.07 1.07 0 .59-.48 1.07-1.07 1.07-.59 0-1.07-.48-1.07-1.07 0-.59.48-1.07 1.07-1.07Z"/>
</svg>