<svg xmlns="http://www.w3.org/2000/svg" viewBox="0 0 80 80">
<path d="M63.51 44.36c1.04 0 1.89-.84 1.89-1.89 0-1.05-.84-1.89-1.89-1.89-1.05 0-1.89.84-1.89 1.89 0 1.05.84 1.89 1.89 1.89ZM6.94 22.65c1.01 1.94 2.69 3.79 3.63 4.75-.74 1.55-1.67 4.2-1.67 7.8 0 1.69.23 3.36.68 4.96l6.5 24.37h6.53c0 0 0-10.95 0-10.95h3.32l2.41 10.95h6.57c0 0 0-10.95 0-10.95h3.72l2.93 10.95h6.53c0 0 0-7.62 0-7.62 2.06.9 4.2 1.58 6.38 2.03l-.28 5.59h6.63c0 0 1.03-4.89 1.03-4.89 3.82-.06 7.65-.78 11.27-2.17.5-.19.92-.55 1.19-1.02l1.86-3.22c.55-.96.36-2.17-.46-2.89-3.36-2.93-5.37-7.12-5.58-11.58 3.95-1.46 6.39-5.62 5.65-9.82-.15-.86-.91-1.48-1.8-1.49l-6.76-.04c-3.75-6.55-10.18-10.6-16.92-10.6h-23.01c-6.37 0-12.33 3.35-15.66 8.77-.73-.78-1.48-1.68-2.09-2.56.27-.06.51-.15.71-.26 1.68-.84 2.26-3.01 1.73-4.43-.47-1.28-1.72-1.86-3.18-1.5-1.75.44-2.36 1.45-2.56 2.22-.04.17-.07.34-.09.52-.76-.74-1.61-1.8-2.54-3.23-.3-.46-.92-.6-1.38-.3-.46.3-.6.92-.3 1.38 1.96 3.03 3.65 4.54 5.03 5.21ZM32.9 62.53h-2.96c0 0-1.95-8.84-1.95-8.84h4.91v8.84ZM59.2 62.53h-2.9c0 0 .16-3.24.16-3.24 1.11.16 2.23.27 3.35.32l-.61 2.92ZM13.07 27.02l.06-.09c2.93-5 8.35-8.11 14.14-8.11h23.01c6.18 0 12.1 3.86 15.45 10.07l.28.52 7.81.04c.52 3.4-1.64 6.73-4.98 7.62l-.74.2v.77c.02 5.3 2.31 10.34 6.29 13.8.1.09.12.25.04.38l-1.86 3.22c-.04.07-.1.13-.17.15-3.65 1.4-7.52 2.07-11.38 2.04-1.77-.03-3.57-.2-5.32-.52l-.92-.17c-2.22-.47-4.39-1.19-6.47-2.15-.49-.23-1.05-.19-1.5.1-.45.29-.71.77-.71 1.31v6.32h-3c0 0-2.93-10.95-2.93-10.95h-19.56v10.95h-3c0 0-6.11-22.9-6.11-22.9-.4-1.44-.61-2.93-.61-4.43 0-5.13 2.13-8.12 2.18-8.18ZM8.15 19.59c.04-.13.14-.54 1.12-.79.66-.16.75.1.81.25.22.59-.08 1.6-.75 1.94-.25.12-.56.16-.95.06-.24-.58-.33-1.08-.23-1.46Z"/>
</svg>