<svg xmlns="http://www.w3.org/2000/svg" viewBox="0 0 80 80">
<path d="M61.46 59.22c.43.77 2.65 3.25 2.6 1.6-.09-.52-1.45-2.89-1.79-3.29-.7-.56-1.39-1.11-2.09-1.67-.68-.46-.62-.69-.64-1.65 1.37-6.08 1.42-12.49-.64-15.31-2.14-3.09-6.94-5.07-10.58-6.23-7.3-2.33-11.65-7.97-15.42-14.25-2.04-4.19-2.59-6.24-6.07-10.36.12-.8.35-1.93.29-2.68-.02-.27-.08-.52-.23-.74-.41.08-.91.58-1.19.87-.49.52-.99 1.2-1.37 1.84-.79-.44-1.17-.8-1.26-1.26-.09-.45.13-1 .54-1.8.22-.22.27-.42.22-.57-.09-.27-.48-.41-.69-.21-.12.1-.18.3-.1.62-.15.69-.25 1.06-.58 1.69.02-.43.04-.86.08-1.29.14-.22.14-.39.08-.51-.13-.22-.49-.22-.63-.01-.08.12-.09.3.05.55.1.46 0 .98-.05 1.45-.17.62-2.11 1.8-2.84 2.14-.67.3-.71.32-1.76 1.51-.76.6-2.2 1.99-3.15 2.26-1.05.3-.98.6-1.61 1.47-.71.98-.67 1.12.66 1.38 1.04.46 1.1.41 1.68-.07.15-.13.34-.28.6-.47.45-.14 1.42-.13 2.4-.12 2.2.03 4.37.59 5.99-1.18.99 1.27 1.68 3.96 2.45 6.95.82 2.87 3.04 8.56 5.6 11.78 1.53 1.67 1.63 4.12 1.52 4.75-2.97 3.51-.3 5.61-.3 7.99 0 2.38.22 3.54.6 5.78.53 3.2.95 5.24 1.19 8.51l.54 2.33c.31.59-.04 6.94-.21 7.74-.25 1.25-.52 2.57-.63 4.16-.04.56-.25 1-.82 1.23-.28.11-1.56 1.24-1.72 1.54-.65 1.23 5.08.84 5.46.24.16-.25-.05-.61-.85-1.12.14-1.08-.14-1.68.89-2.5.37-.29-.25-7.22-.21-8.16.04-.99.08-1.98.09-2.96.88-1.51.78-2.2.53-4.01-.43-3.01-.08-5.98.08-8.98.72.13 1.31.13 2.03-.03.14 2.56.97 5.01 1.37 7.53-.98 2.45-.38 2.91.3 5.13.22 4.15.35 8.22.48 12.38 0 .65-.32.98-.73 1.44-1.57 1.76-.77 1.95.83 1.96.54 0 1.1-.01 1.62-.07.77-.08 1.01-.55.71-1.23-.16-.36-.47-.74-.82-1.04 1.29-1.77.75-3.93.23-6.02-.55-2.23-.11-4.89 0-7.2.52-2.38.57-3.05-.24-5.39.26-2.21.5-4.4.53-6.62 1.31 2.05 2.51 4.16 4.1 6.01 1.27 2.66 2.13 8.32 2.65 11.36-.07 1.61.02 7.74-.24 8.51-.16.49-.73.84-1.15 1.1-1.34.82.46.87 1.26.97.42.05 1.49-.06 1.93-.14 1-.18 1.65-.39 1.04-1.28-.21-.31-.43-.62-.42-.94v-10.12c.8-3.2 2.27-5.28.24-8.17-.81-2.57-.74-3.21-.51-5.22.04-.37.09-.79.14-1.28.76 2.19 2.3 3.97 3.3 6.03.18 1.85.39 3.77.71 5.6.37 1.81.18 1.58 1.61 2.81.39 3.66 1.29 6.23.95 9.92-.39.65-.73 1.56-.43 2.27.47.42 3.18.33 3.85.32.59-.09.27-1.28.18-1.61-.32-1.11-1.04-2.59-1.61-3.78-.98-2.04-.8-3.96-.86-6.22-.02-.81-.03-5.47-.68-5.89l-.88.06-.12-1.81c.83-.22 1.66 1.01 1.92 1.66Z"/>
</svg>