<svg xmlns="http://www.w3.org/2000/svg" viewBox="0 0 80 80">
<path d="M25.6 49.24h5.75c9.04 0 16.43-7.39 16.43-16.43 0-1.44-.21-2.83-.56-4.16h.02c0 0-3.87-21.13-3.87-21.13-.46-1.61-2.54-2.06-3.62-.78l-8.21 9.65c-.06 0-.12 0-.19 0h-5.75c-.17 0-.34.02-.51.03l-7.96-9.36c-1.09-1.28-3.16-.83-3.62.78l-3.87 21.14h.02c-.3 1.23-.48 2.51-.48 3.84 0 9.04 7.39 16.43 16.43 16.43ZM19.87 36.95l-5.44 2.84c-.06.03-.12.05-.19.05-.15 0-.29-.08-.36-.22-.1-.2-.03-.45.17-.55l5.44-2.84c.2-.1.45-.03.55.17.1.2.03.45-.17.55ZM42.84 39.62c-.07.14-.21.22-.36.22-.06 0-.13-.01-.19-.05l-5.44-2.84c-.2-.1-.28-.35-.17-.55.11-.2.35-.28.55-.17l5.44 2.84c.2.1.28.35.17.55ZM44 33.59c.23 0 .41.18.41.41 0 .23-.18.41-.41.41h-7.06c-.23 0-.41-.18-.41-.41 0-.23.18-.41.41-.41h7.06ZM43.04 29.3c.07.21-.05.44-.27.51l-5.62 1.76c0 0-.08.02-.12.02-.17 0-.33-.11-.39-.29-.07-.21.05-.44.27-.51l5.62-1.76c.21-.07.44.05.51.27ZM39.91 13.3c.19-.22.55-.12.6.16l1.82 9.94-6.67-5.09 4.25-5.01ZM31.72 29.09c.67 0 1.21.54 1.21 1.21 0 .67-.54 1.21-1.21 1.21-.67 0-1.21-.54-1.21-1.21 0-.67.54-1.21 1.21-1.21ZM25.23 29.09c.67 0 1.21.54 1.21 1.21 0 .67-.54 1.21-1.21 1.21-.67 0-1.21-.54-1.21-1.21 0-.67.54-1.21 1.21-1.21ZM23.86 34.03c.21-.09.45 0 .54.21l.18.4c.17.38.51.65.93.71.41.06.82-.09 1.09-.42l1.53-1.82c.08-.09.24-.17.36-.17.14 0 .27.06.36.17l1.53 1.82c.27.32.68.48 1.09.42.41-.06.76-.32.93-.71l.18-.4c.09-.21.33-.3.54-.21.21.09.3.33.21.54l-.18.4c-.28.64-.86 1.09-1.56 1.19-.7.1-1.38-.16-1.83-.7l-1.27-1.51-1.27 1.51c-.39.46-.95.72-1.54.72-.1 0-.19 0-.29-.02-.69-.1-1.28-.54-1.56-1.19l-.18-.4c-.09-.21 0-.45.21-.54ZM16.06 12.79c.05-.29.41-.39.6-.16l4.25 5.01-6.67 5.09 1.82-9.94ZM13.67 29.3c.07-.21.3-.33.51-.27l5.62 1.76c.21.07.33.3.27.51-.05.17-.22.29-.39.29-.04 0-.08 0-.12-.02l-5.62-1.76c-.21-.07-.33-.3-.27-.51ZM12.71 33.59h7.06c.23 0 .41.18.41.41 0 .23-.18.41-.41.41h-7.06c-.23 0-.41-.18-.41-.41 0-.23.18-.41.41-.41ZM25.87 61.83h27.43c3.55 0 6.85-1.15 9.55-3.07v1.3c0 2.51-1.97 4.55-4.39 4.55h-24.51c-1.93 0-3.5 1.57-3.5 3.5 0 1.93 1.57 3.5 3.5 3.5h24.51c6.28 0 11.39-5.18 11.39-11.55v-13.57c0-.14-.03-.27-.04-.41.01-.27.04-.53.04-.8 0-9.1-7.45-16.55-16.55-16.55h-3.71l.2 1.08h-.02c.36 1.37.58 2.81.58 4.3 0 9.37-8.66 17.03-18.03 17.03h-5.96c-7.39 0-13.99-2.86-16.33-9.48-.53 1.71-.85 2.89-.85 4.83 0 9.1 7.6 15.34 16.7 15.34Z"/>
</svg>