<svg xmlns="http://www.w3.org/2000/svg" viewBox="0 0 80 80">
<path d="M70.04 19.91c-.7456 0-1.35.6044-1.35 1.35 0 .7456.6044 1.35 1.35 1.35.7456 0 1.35-.6044 1.35-1.35 0-.7456-.6044-1.35-1.35-1.35ZM5.8 28.13c-.06.35-.11.71-.12 1.09-.04 1.2-.41 1.71-.87 2.36-.56.79-1.26 1.78-1.26 3.84 0 2.06.77 3.2 1.34 3.98.4.55.57.81.57 1.27 0 .22-.04.38-.12.64-.11.39-.26.93-.26 1.81 0 2.29 1.18 4.34 3.18 5.57l.5 6.32-.05 7.92c0 .15.03.29.09.42l3.38 7.39v1.1c0 .55.44 1 .99 1l5.41.05c.08.02.16.05.25.05.08 0 .15-.03.23-.05l4.7.05h0c.26 0 .52-.1.7-.29.19-.19.3-.44.3-.71v-2.47c0-.12-.02-.23-.06-.34l-2.55-7.13 1.59-5.03c.21.05.42.08.65.08.68 0 1.11-.09 1.45-.16.26-.06.45-.1.75-.1.74 0 1.15.26 1.76.64.81.51 1.82 1.15 3.73 1.15 1.42 0 2.21-.36 2.84-.64.45-.2.75-.34 1.25-.34.5 0 .85.12 1.3.28.53.19 1.2.42 2.15.42 1.79 0 2.59-.73 3.36-1.44.75-.69 1.61-1.48 3.9-2.06h.59l3.01 4.29 1.66 4.52 2.11 6.68v1.63c0 .55.44 1 1 1l4.58.02c0 0 .08.03.13.03.05 0 .08-.02.12-.02l4.88.02h0c.26 0 .52-.1.71-.29.19-.19.29-.44.29-.71v-2.52c0-.06 0-.12-.02-.17l-2.3-12.95 1.12-12.92c.18-.23.38-.46.62-.72 1.08-1.17 2.56-2.78 2.56-6.63 0-3.85.94-4.77 1.85-5.83.47-.54.95-1.11 1.3-1.93.26-.62.94-1.04 1.69-1.04h1.52c1.43 0 2.73-.8 3.37-2.08l.39-.78c.07-.14.11-.29.11-.45v-.57c0-1.08-.42-2.11-1.17-2.89-2.4-2.47-3.67-3.78-5.04-4.98.29-.59.44-1.22.43-1.86-.03-1.04-.6-2.08-1.49-2.72-.48-.34-1.01-.54-1.55-.59-.27-.84-.81-1.64-2.49-2.08-1.07-.28-2.21.25-3.05.64l-.55.25c-.36.17-.7.33-1 .35-.19.02-.43-.02-.68-.06-.26-.04-.52-.07-.79-.08-.03 0-.06 0-.09 0-1.68 0-3.01 1.1-3.9 1.96-.11.1-.26.26-.33.28-.05.01-.22 0-.33-.02-.13-.01-.25-.03-.38-.03-.79-.04-1.58.28-2.26.91-.87.81-1.46 2.08-1.49 3.22 0 .06.02.11.03.17 0 .04-.03.07-.03.11-.05 1.55.58 2.95 1.7 3.97v.14c-.26.09-.83.07-1.37.03-.6-.2-1.36-.31-2.39-.23-.1 0-.19.04-.28.08-.13 0-.26.01-.39.03-.19 0-.5-.4-.81-.81-.73-.94-1.72-2.23-3.78-2.59-1.13-.2-2.06.1-2.81.33-.94.3-1.5.47-2.36-.08-1.35-.88-3-1.36-4.64-1.36-.95 0-1.98.35-3.24 1.09-1.16.68-2.53.73-3.67.13-.82-.44-2.02-.96-3.06-.96-2.11 0-3.12.42-4.09.83-.44.18-.86.36-1.4.49-1.15.28-1.66 1.09-2.12 1.81-.57.89-1.11 1.74-3.1 2.07-1.31.22-2.7.67-3.97 1.36l-3.05-4.07c-.49-.65-1.25-.98-2.06-.88-.81.1-1.48.61-1.8 1.36-.74 1.75-.96 4.75 2.16 9.14.08.12.19.2.31.27ZM17.85 70.9l-3.65-.04v-.33c0-.14-.03-.29-.09-.42l-3.38-7.39.04-7.78-.17-2.1c.21.2.43.4.67.59 1.64 1.27 3.75 1.9 6.3 1.89-.1.07-.19.14-.29.21-.18.13-.32.32-.38.53l-1.68 5.69c-.06.2-.05.42.02.62l2.61 7.28v1.23ZM22.78 69.66v1.28l-2.94-.03v-1.43c0-.12-.02-.23-.06-.34l-2.56-7.14 1.49-5.05c.85-.61 1.55-1.16 2.15-1.69.22.13.47.31.77.55.1.08.21.16.32.24l-1.79 5.67c-.07.21-.06.43.01.64l2.61 7.28ZM58.96 70.97h-2.7v-.8c0-.1-.02-.2-.05-.3l-2.17-6.87-1.72-4.69c-.03-.08-.07-.16-.12-.23l-2.12-3.03c2.17-.01 4.8-.55 6.9-2.24l-.35 3.5c0 .09 0 .18.01.27l2.31 12.99v1.4ZM63.96 69.58v1.42h-3v-1.51c0-.06 0-.12-.02-.17l-2.3-12.94.56-5.71c1.17-.19 2.22-.75 3.06-1.54l-.62 7.2c0 .09 0 .17.01.26l2.31 12.99ZM75.57 21.92c.39.4.61.93.61 1.49v.33l-.29.57c-.3.6-.91.98-1.58.98h-1.52c-1.57 0-2.95.89-3.53 2.27-.23.54-.57.94-.97 1.41-.22.26-.46.54-.69.85-.73-1.55-2.4-3.4-6.06-4.36 1.06-1.19 1.93-2.92 2.27-5.28.03-.17.01-.35 0-.52.08.01.16.02.24.03.33.05.7.1 1.23.11.03 0 .06 0 .1 0 1.29 0 2.37-.37 3.11-1.07.11-.1.2-.21.3-.32.08-.09.16-.19.26-.26.08-.06.22-.13.37-.2l.18-.09c.41-.2.78-.45 1.11-.74 1.29 1.13 2.54 2.41 4.86 4.8ZM57.82 25.52c-.55.12-1.59.16-2.27-.92-.5-.8-.07-1.53 1.08-2.88.23-.27.44-.52.62-.75h0c.14-.19.28-.37.43-.54.77-.91 1.72-1.53 2.76-1.8.09-.02.18-.03.26-.03.26 0 .52.1.73.29.29.26.43.64.38 1-.49 3.41-2.36 5.29-3.99 5.64ZM54.01 15.77c.02-.62.37-1.36.86-1.82.19-.18.47-.39.81-.38.08 0 .16.01.24.02.29.03.68.08 1.1-.05.54-.15.9-.51 1.19-.79.97-.94 1.76-1.37 2.48-1.37.01 0 .03 0 .04 0 .18 0 .36.03.55.06.33.05.71.11 1.13.07.65-.05 1.19-.31 1.68-.53l.55-.25c.5-.23 1.33-.62 1.7-.52.98.26 1.04.49 1.18 1.07.04.15.08.31.13.46.17.52.73.81 1.25.65.34-.11.67.07.83.19.39.28.64.73.65 1.15.01.5-.19.96-.49 1.36 0 0-.01 0-.02.01 0 0 0 .02-.01.03-.31.39-.73.71-1.15.92l-.15.07c-.22.1-.47.22-.72.41-.22.17-.39.35-.53.51-.06.07-.13.14-.19.21-.48.45-1.25.52-1.81.53-.41 0-.67-.04-.98-.09-.33-.05-.66-.09-1.14-.11-.08 0-.14.02-.21.03-.07-.08-.13-.16-.21-.23-.78-.7-1.84-.96-2.83-.7-1.43.38-2.74 1.22-3.78 2.44-.01.02-.03.03-.04.05-1.36-.62-2.15-1.77-2.11-3.14 0-.06-.02-.11-.03-.16 0-.04.02-.07.03-.12ZM14.53 22.92c2.87-.48 3.82-1.98 4.45-2.97.4-.63.57-.86.91-.94.69-.17 1.22-.39 1.69-.59.87-.36 1.62-.67 3.32-.67.48 0 1.26.26 2.12.72 1.76.94 3.86.87 5.62-.17.93-.54 1.65-.81 2.22-.81 1.69 0 2.95.65 3.55 1.04 1.65 1.07 2.98.65 4.05.31.65-.21 1.22-.39 1.87-.27 1.3.23 1.93 1.05 2.55 1.84.6.77 1.34 1.75 2.64 1.58.49-.06 1.2 0 1.89.07.16.02.33.03.5.04.32.14.57.34.84.56.2.17.43.35.69.51-.19.76-.13 1.6.42 2.48.78 1.24 2.01 1.92 3.42 1.92.31 0 .63-.03.96-.1.34-.07.7-.2 1.07-.36.13.02.27.01.4-.02 6.63 1.13 6.48 4.97 6.47 5.15-.01.18.03.34.1.49-.2.89-.33 1.98-.33 3.36 0 3.06-1.03 4.19-2.03 5.27-.13.14-.26.28-.39.43-.38.11-.67.45-.7.87v.07c-.35.57-.61 1.24-.65 2.11-.1 2.18-1.8 3.89-3.88 3.89-.05 0-.1.02-.15.03-.06 0-.11.01-.17.03-.07.02-.13.06-.19.1-.04.03-.09.05-.13.08-.07.06-.12.12-.17.2-.02.03-.05.05-.07.08-2.37 4.26-7.44 3.91-9.02 3.68-.16-.07-.32-.1-.49-.08-.06-.01-.13-.02-.2-.02h-.94c-.08 0-.16 0-.24.03-2.88.71-4.04 1.78-4.89 2.56-.68.63-.99.91-2 .91-.61 0-1.02-.14-1.49-.31-.52-.19-1.12-.4-1.96-.4-.93 0-1.54.27-2.07.51-.55.25-1.03.47-2.02.47-1.33 0-1.95-.39-2.66-.84-.71-.45-1.51-.95-2.83-.95-.51 0-.86.07-1.16.14-.3.06-.56.12-1.03.12-.47 0-.98-.38-1.54-.82-.75-.58-1.67-1.31-2.9-1.12-3.21.48-5.71.06-7.44-1.26-2.02-1.54-2.3-3.86-2.31-3.89 0-.01 0-.02 0-.03-.01-.11-.05-.21-.09-.3-.01-.02-.02-.05-.03-.07-.06-.1-.13-.18-.22-.26-.01 0-.03-.02-.04-.03-.05-.04-.09-.07-.14-.1-1.65-.85-2.59-2.34-2.59-4.08 0-.61.09-.93.18-1.27.09-.32.19-.68.19-1.17 0-1.13-.51-1.83-.96-2.45-.49-.68-.96-1.32-.96-2.8 0-1.48.39-1.99.89-2.69.52-.74 1.17-1.65 1.24-3.45.14-3.88 3.63-5.84 6.85-6.38ZM5.17 19.49c.05-.11.13-.14.2-.15.09-.02.16.02.21.09l2.99 3.99c-.81.67-1.51 1.48-2.01 2.44-2-3.16-1.89-5.19-1.39-6.37Z"/>
</svg>