<svg xmlns="http://www.w3.org/2000/svg" viewBox="0 0 80 80">
<path d="M6.75 48.94c0-1.74-.57-2.37-1.46-3.11v-17.65c0-1.4 1.13-2.53 2.53-2.53h.79v40.68c0 .98.79 1.77 1.77 1.77.8 0 1.51-.54 1.71-1.31l4.36-16.26h19.8l4.36 16.26c.21.78.91 1.31 1.71 1.31h0c.98 0 1.77-.79 1.77-1.77v-15.8h8.08c1.73 0 3.41-1.17 4.26-2.64l6.17-10.68 3.12-1.8c2.22-1.28 4.73-1.95 7.29-1.95h.47c.84 0 1.62-.45 2.04-1.18l1.44-2.5c.53-.92.38-2.09-.37-2.85l-7.66-7.66c-1.29-1.29-3.05-2.02-4.88-2.02h0l-2.76-2.76c-.23-.23-.6-.19-.79.06-1.1 1.44-1.2 3.39-.31 4.93l-6.2 3.58H7.83c-2.83 0-5.12 2.29-5.12 5.12v24.8c2.23 0 4.04-2.3 4.04-4.04ZM68.55 22.15c.57 0 1.03.46 1.03 1.03 0 .57-.46 1.03-1.03 1.03-.57 0-1.03-.46-1.03-1.03 0-.57.46-1.03 1.03-1.03ZM21.89 60.53c.67 0 1.21-.54 1.21-1.21v-2.3c2.17-.85 3.93-2.52 4.89-4.63h-10.11l-1.25 4.67v2.25c0 .67.54 1.21 1.21 1.21.67 0 1.21-.54 1.21-1.21v-1.71c.25.02.5.03.75.03.29 0 .58-.01.86-.04v1.72c0 .67.54 1.21 1.21 1.21ZM47.06 52.39l3.86 14.39c.21.78.91 1.31 1.71 1.31.98 0 1.77-.79 1.77-1.77v-14.36c-.71.27-1.46.43-2.22.43h-5.13ZM30.16 68.1h0c.98 0 1.77-.79 1.77-1.77v-13.94h-1.57c-.81 2.27-2.33 4.21-4.29 5.54l2.37 8.86c.21.78.91 1.31 1.71 1.31Z"/>
</svg>