<svg xmlns="http://www.w3.org/2000/svg" viewBox="0 0 80 80">
<path d="M65.07 31.53c-1.14-.81-2.68-1.96-3.79-2.66-3.47-2.2-8.05-2.38-13.36-2.18-2.48.09-4.8.12-7.28.06-4.27-.12-9.67-.27-14.02-.76-2.8-1.6-6.27-2.29-9.31-2.88-1.88-.37-3.08-1.77-4.53-2.94-.12-.1-1.29-1.17-1.34-1.14-.14.07-.11.2-.06.48.08.22.11.33.12.45-.02 0-1.46-.75-1.29-.4.52 1.07.49 2.34.98 3.41-2.41 2.31-3.92 3.74-3.84 7.32-.5.6-1.22 1.28-1.91 1.92-.95.89-1.83 1.71-1.94 2.18-.13.55 1.96 1.55 2.42 1.69 2.45.71 3.3-.13 5.21-1.26 2.7 3.18 6.27 5.32 9.87 7.33 1 .56.88.57 1.62 1.31.37.65.5 2.63-.02 3.2-1.03 1.12-1.99 2.18-2.93 3.27-2.24 2.6-3.64 4.68-5.57 7.51-1.41.47-2.46.83-3.15 1.25-.39.24-1.53 1.63-1.02 1.69 1.29.16 3.25.18 4.5-.15.56-.24 1.85-1.41 2.31-1.86.77-.77 1.54-1.69 2.27-2.71 2.39-1.94 7.49-5.72 8.91-8 .03-.04-.11-2.19.67-3.4 1.74 1.47 3.53 2.45 5.68 3.18.67 2.75 1.92 4.93 3.17 7.1 1.06 1.84 2.11 3.68 2.82 5.86.03.2-.03.43-.13.6-.43.76-3.15.02-2.82 2.1.06.41 3.96.14 4.53.02.53-.11.78-3.86.55-4.53-2.23-3.01-2.05-8.45-1.9-12.1 2.85 0 5.26-.49 7.95-1.4.98 2.33 2.16 3.82 3.37 5.36.74.94 2.97 3.47 2.03 4.79-1.78 1.71-3.43 3.52-5.13 5.3-1.28.35-2.12.62-2.65 1-.42.3-1.11 1.65-.8 1.66.01 0 4.18.1 4.89-.46.71-.37 6.33-6.45 8.31-7.64 2.81-2.69-4-3.67-.76-8.5 4.91 6.09 9.62 5.41 11.84 7.35-.23 2.16 1.33 4.5.83 5.69-1.26.38-3.29 1.63-2.56 2.68.9.11 3.34-.15 4.29-.34 1.33-1.71 1.27-8.65.07-9.68-2.48-2.97-4.32-5.19-5.75-8.52 1.3 2.77 3.91 6.12 5.75 8.52.96.43 2.53 2.21 3.31 2.67 5.41-4.89-3.03-19.09-10.39-23.43Z"/>
</svg>