<svg xmlns="http://www.w3.org/2000/svg" viewBox="0 0 80 80">
<path d="M4.87 32.79c.3.16.51.45.51.8-.03 4.45-.35 8.85.11 13.16.37 3.49 1.24 11.63 2.06 17.23h-.06c-1.15 0-2.07.93-2.07 2.07 0 1.14.93 2.07 2.07 2.07h2.95c0 0 .08 0 .12-.01h2.48c0 0 .06.01.1.01h36.1c6.06 0 10.84-5.14 10.41-11.18-.23-3.22-3.08-14.69-4.19-18.2-.44-1.37-.86-2.76-1.13-4.17-1.63-8.76 3.3-14.94 11.64-14.33 5.28.38 7.53 4.18 6.66 9.43-.36 2.19-1.28 3.91-3.99 3.8-2.31-.09-3.22-.79-3.78-3.86-.31-1.71-.47-2.72-2.28-2.7-1.65.02-2.6 1.34-2.44 3.2.32 3.97 1.73 6.25 5.05 7.67 5.7 2.44 10.82-1.01 12.32-7.23 1.65-6.87-1.8-13.71-9.78-15.24-7.18-1.38-13.09.2-16.91 6.58-3.38 5.63-3.14 11.54-1.28 17.55 1.3 4.2 2.81 8.34 3.89 12.59.51 1.99.65 4.07.84 6.17.09 1.02-.71 1.9-1.73 1.9-.94 0-1.69-.74-1.74-1.68-.41-7.27-2.9-13.62-7.75-19.05-4.98-5.57-11.69-8.74-18.46-9.79-.57-.09-.91-.65-.75-1.21.42-1.41.18-2.74-.57-3.73-1.64-2.14-3.48-1.3-3.89-1.96-3.19-5.16-10.29-5.14-13.54.41-.34.58-2.72.73-3.53 3.5-.63 2.18.22 4.95 2.58 6.18ZM23.88 55.18c.14-.75.91-1.24 1.66-1.1 2.83.51 1.67.97.37 4.88-.7 2.11-1.09 3.74-1.31 5.01h-1.8c.36-2.92.52-5.83 1.08-8.79ZM15.99 63.97h-2.41v-16.84c0-.67.54-1.21 1.21-1.21.67 0 1.21.54 1.21 1.21v16.84ZM10.8 24.73h4.41c1.89 0 3.42 1.53 3.42 3.42 0 1.47-.93 2.71-2.23 3.19 0 .08.02.15.02.22 0 1.89-1.53 3.42-3.42 3.42-1.89 0-3.42-1.53-3.42-3.42 0-.08.02-.15.02-.22-1.3-.48-2.23-1.73-2.23-3.19 0-1.89 1.53-3.42 3.42-3.42ZM11.34 27.62c-.4584 0-.83.3716-.83.83 0 .4584.3716.83.83.83.4584 0 .83-.3716.83-.83 0-.4584-.3716-.83-.83-.83ZM14.49 27.62c-.4584 0-.83.3716-.83.83 0 .4584.3716.83.83.83.4584 0 .83-.3716.83-.83 0-.4584-.3716-.83-.83-.83Z"/>
</svg>