<svg xmlns="http://www.w3.org/2000/svg" viewBox="0 0 80 80">
<path d="M72.99 14.34l-2.89-5.33-1.84-3.99c0 0 0 0 0 0-.03-.06-.08-.11-.12-.17-.04-.05-.07-.11-.12-.15 0 0 0 0 0 0-.03-.03-.07-.04-.11-.06-.07-.05-.14-.1-.22-.12-.05-.02-.11-.02-.16-.03-.07-.01-.14-.03-.21-.03-.08 0-.15.03-.23.05-.05.01-.09.01-.14.03 0 0 0 0 0 0-.06.03-.11.08-.17.12-.05.04-.11.07-.15.12 0 0 0 0-.01 0l-2.57 2.97c-1.6-.52-5.75-1.59-9.68-.27-.08.03-.16.07-.23.11-.43.28-10.49 7-16.16 21.04-1.1 0-2.12 0-2.98 0h-2.07c0 0-.02 0-.03 0-2.66 0-3.75-.5-4.9-1.04-1.29-.59-2.76-1.24-6.08-1.25-3.8.02-7.3 1.83-9.66 4.62-2.65.07-4.9 1.09-6.5 3-2.62 3.12-3.33 8.27-2.11 15.3.88 5.03-1.29 7.53-1.37 7.63-.28.3-.34.74-.17 1.11.17.35.52.57.9.57.02 0 .05 0 .07 0 .08 0 6.97-.59 9.04-8.97.3.9.65 1.95 1.08 3.28l-1.13 8.56-2.32 7.51c-.04.12-.05.25-.04.38l.43 5.31c.04.52.48.92 1 .92h9.21c.55 0 1-.45 1-1v-4.4l2.46-5.58 4.81-11.44 1.77-2.76 7.76 2.11c.09.02.17.04.26.04h8.79l.86 1.61 1.86 15.38-.84 4.87c-.05.29.03.59.22.81.19.23.47.36.76.36h9.21c.5 0 .92-.37.99-.87l.64-4.74c0-.06.01-.12 0-.19l-1.39-25.5c.03-.1.06-.2.06-.31v-4.51l5.57-16.82c.31.21.63.41.98.57l4.75 2.21.69 1.16c.18.3.51.49.86.49h4.57c.55 0 1-.45 1-1v-3.9c0-.2-.06-.39-.17-.55l-4.85-7.26ZM55.12 9.33c2.19-.7 4.51-.52 6.23-.2-5.01 2.47-9.26 6.35-12.15 11.16l-5 8.33c-1.33 0-2.71 0-4.06 0 5.17-12.2 13.93-18.57 14.97-19.29ZM10.11 43.81l.13.37c.16.44.3.85.44 1.23-.29 6.88-3.42 9.53-5.61 10.54.61-1.56 1.1-3.91.55-7.04-1.1-6.33-.53-11.06 1.67-13.67 1.04-1.23 2.3-1.83 3.47-2.1-.85 1.56-1.4 3.3-1.51 5.15-.12 1.92.18 3.79.87 5.51ZM26.89 52.14c0 0-.06.1-.08.15l-4.84 11.5-2.54 5.76c-.06.13-.08.26-.08.4v3.61h-2.61v-3.83l2.46-6.3 4.81-11.44 1.82-2.85 2.53.69-1.48 2.31ZM58.41 73.56h-2.59l.49-3.76c0-.06.01-.13 0-.2l-1.34-20.01 2.68-3.06 1.27 23.24-.51 3.78ZM76.01 25.06h-3l-.56-.94c-.1-.17-.26-.31-.44-.4l-5.04-2.34c-1.69-.79-2.79-2.5-2.79-4.36 0-.55-.45-1-1-1-.55 0-1 .45-1 1 0 1.51.52 2.93 1.39 4.1-.03.06-.07.1-.09.17l-5.86 17.69c-.03.1-.05.21-.05.31v4.29l-2.8 3.2-.15-2.22c-.04-.55-.53-.96-1.06-.93-.55.04-.97.51-.93 1.06l1.67 24.95-.51 3.92h-2.54l.66-3.85c.02-.1.02-.19 0-.29l-1.9-15.71c-.02-.12-.05-.24-.11-.35l-3.57-6.69v-2.05c0-.55-.45-1-1-1-.55 0-1 .45-1 1v2.3c0 .16.04.33.12.47l1.67 3.14h-7.59l-12.28-3.34-3.82-3.45c-.41-.37-1.04-.34-1.41.07-.37.41-.34 1.04.07 1.41l3.08 2.78-1.91 2.99c0 0-.06.1-.08.15l-4.85 11.54-2.54 6.5c-.04.12-.07.24-.07.36v4.02h-2.68l-.34-4.2 2.29-7.41c.02-.05.03-.11.04-.17l1.17-8.87c.02-.15 0-.3-.04-.44-1.24-3.79-1.81-5.45-2.55-7.55 0 0 0 0 0 0-.15-.44-.32-.9-.49-1.4l-.15-.41c-.59-1.49-.84-3.06-.74-4.68.34-5.52 5.14-10.04 10.68-10.08 2.91-.02 4.02.51 5.23 1.06 1.3.6 2.64 1.19 5.77 1.22h2.07c2.54 0 6.4-.01 9.78-.01 0 0 0 0 0 0 .12 0 .23-.03.34-.07.03 0 .05-.02.08-.03.1-.05.2-.11.28-.19 0 0 .02-.02.03-.03.05-.05.09-.1.13-.17l5.3-8.81c3.15-5.25 8.04-9.32 13.77-11.47.01 0 .02-.01.03-.02.01 0 .02-.01.04-.02.1-.04.18-.1.26-.18.02-.01.03-.03.04-.04.01-.01.03-.02.04-.03l2-2.31 1.22 2.64 2.96 5.47 4.73 7.09v2.6ZM67.59 14.4c-.74 0-1.35.6-1.35 1.35 0 .75.6 1.35 1.35 1.35.75 0 1.35-.6 1.35-1.35 0-.75-.6-1.35-1.35-1.35Z"/>
</svg>