<svg xmlns="http://www.w3.org/2000/svg" viewBox="0 0 80 80">
<path d="M49.47 33.1c-.34.12-.7.14-1.04.05l-14.37-3.7c-4.41-1.13-8.93-1.36-13.43-.68l-1.85.28c-1.56.24-3.05.64-4.47 1.2-1.78-.04-4.81-3.92-5.96-5.39l-.18-.23c-.39-.5-1-.78-1.65-.72-.63.05-1.18.41-1.48.96-1.1 2.01-.58 7.62 2.1 10.49 0 0 0 0 0 0-.13.21-.24.41-.3.6-.86 2.79-1.08 5.79-.63 8.67l.19 1.18.63 2.49.62 2.7.98 7.78.47 6.14c0 .08.02.15.04.22l2.96 9.44v1.19c0 .55.45 1 1 1h9.38c.55 0 1-.45 1-1v-3.94c0-.07 0-.14-.02-.21l-1.72-8.07 2-6.29c.89.32 1.85.61 2.89.85 2.17.5 4.33.75 6.59.75.67 0 6.68-.06 15.36-2.03l1.18 3.41 3.64 14.32v1.23c0 .55.45 1 1 1l4.68.02c0 0 .06.02.09.02.03 0 .06-.01.09-.02l4.98.02h0c.26 0 .52-.1.71-.29.19-.19.29-.44.29-.71v-2.55c0-.06 0-.12-.02-.17l-2.35-13.18-1.11-11.67 2.18-5.19c0 0 .03-.09.05-.14.95-3.65 1.4-8.78 1.43-9.08v-1.64c.66-.07 1.25-.23 1.74-.39-.19 1.44-.17 3.79 1.16 6.72.17.37.53.59.91.59.14 0 .28-.03.41-.09.5-.23.73-.82.5-1.32-1.41-3.11-1.11-5.36-.89-6.24l2.75.28c1.03.1 1.98-.47 2.38-1.42l.39-.92c.51-1.21.24-2.59-.69-3.52l-5.8-5.82c-1.01-1.01-2.25-1.69-3.6-2.01-.15-11.74-10.08-12.8-10.18-12.81-.46-.04-.9.25-1.04.69-.14.45.05.93.45 1.17.19.11 4.16 2.55 4.4 10.24-4.31-6.9-13.23-7-13.65-7h0c-.48 0-.89.35-.98.82-.09.47.18.95.63 1.12.05.02 5.08 2 9.73 9.08-.38.1-.76.17-1.15.21-1.45.13-2.63 1.2-2.87 2.6-.14.85.07 1.73.59 2.42.52.69 1.28 1.12 2.14 1.21.76.08 1.45.09 2.11.07-.39 3.02-2.79 4.3-5.37 5.23ZM6.71 26.01l.06.08c1.59 2.03 3.35 4.16 5.11 5.3-1.23.69-2.37 1.52-3.4 2.46-1.9-2.18-2.33-6.4-1.77-7.85ZM19.73 63.21c-.05.17-.06.34-.02.51l1.76 8.23v2.83h-2.38v-1.5c0-.08 0-.15-.03-.23l-2.14-9.2 2.12-8.62c.9.44 1.83.89 2.81 1.31l-2.12 6.67ZM63.21 73.37v1.46h-3.07v-1.55c0 0 0-.09 0-.14l-2.65-18.76 2.52-3.26.87 9.09 2.34 13.17ZM57.88 8.51c2.21 1.32 4.62 4 4.76 9.34-.8.02-1.59.16-2.35.41.03-4.62-1.14-7.74-2.41-9.76ZM49.48 13.21c2.84.92 6.17 2.81 7.87 6.66-.43.27-.9.53-1.41.77-2.22-3.47-4.53-5.86-6.46-7.44ZM56.87 27.57c.58-.16 1.12-.36 1.57-.65.46-.3.6-.92.3-1.38-.3-.46-.92-.6-1.38-.3-.91.59-2.48.79-4.41.58-.3-.03-.57-.19-.76-.43-.19-.25-.27-.57-.22-.88.09-.52.52-.9 1.07-.94 2.46-.22 4.76-1.52 6.27-2.58 1.06-.75 2.3-1.14 3.57-1.14 1.49 0 2.89.59 3.95 1.64l5.8 5.82c.35.35.45.88.26 1.33l-.39.92c-.06.13-.2.22-.34.21l-4.08-.41c-.22-.02-.44.03-.63.15-.03.02-2.89 1.78-5.6-.1-.46-.32-1.08-.2-1.39.25-.31.45-.2 1.08.25 1.39.91.63 1.81.96 2.68 1.12v1.62c0 .05-.45 5.11-1.34 8.6l-2.6 6.21-3.8 4.92c-.16.21-.24.48-.2.75l2.7 19.11v1.46h-2.77v-.37c0-.08-.01-.17-.03-.25l-3.7-14.52-1.54-4.49c-.03-.08-.06-.15-.1-.22l-1.7-2.64c-.08-.12-.18-.23-.31-.3l-7.46-4.7c-.47-.29-1.08-.16-1.38.31-.29.47-.15 1.08.31 1.38l7.27 4.58.9 1.39c-8.21 1.81-13.81 1.87-14.44 1.87-2.11 0-4.12-.23-6.14-.69-2.94-.68-5.21-1.79-7.4-2.87l-.54-.27c-.14-.07-.29-.1-.44-.1h-.34c-.46 0-.86.31-.97.76l-2.44 9.91c-.04.15-.04.31 0 .47l2.17 9.32v1.39h-3v-.34c0-.1-.02-.2-.05-.3l-2.97-9.47-.46-6.08-1-7.93-.64-2.82-.62-2.42-.17-1.09c-.4-2.59-.2-5.28.57-7.78 0-.01.11-.33.96-1.12 2.5-2.33 5.74-3.85 9.37-4.41l1.85-.28c4.24-.64 8.49-.43 12.63.64l14.37 3.7c.73.19 1.5.15 2.21-.1 1.78-.64 6.39-2.3 6.73-7.41ZM65.2 26.27c.75 0 1.37-.61 1.37-1.37 0-.76-.61-1.37-1.37-1.37-.76 0-1.37.61-1.37 1.37 0 .76.61 1.37 1.37 1.37Z"/>
</svg>