<svg xmlns="http://www.w3.org/2000/svg" viewBox="0 0 80 80">
<path d="M14.71 75.46h26.59c1.63 0 2.96-1.33 2.96-2.96 0-.72-.27-1.39-.71-1.91l1.53-.93c.12.3.26.58.43.86l1.88 3.13c.67 1.12 1.89 1.81 3.19 1.81h4.86c1.48 0 2.68-1.2 2.68-2.73 0-2.12-1.48-3.9-3.46-4.35v-3.23c6.25-4.75 10.34-11.62 11.53-19.4.02-.13 0-.25-.02-.37 2.38-.46 4.45-1.58 6.07-2.73 2.58-1.84 3.48-5.24 2.15-8.08l-2.37-5.06c-.65-1.4-1.66-2.61-2.92-3.5l-3.21-2.29c-.06-.05-.08-.11-.08-.16 0-.04 0-.11.07-.17l2.2-2.1c1.08-1.03 1.96-2.15 2.62-3.34 1.34-2.41 1.54-4.01 1.75-5.71.04-.3.08-.61.12-.93.11-.76-.25-1.5-.91-1.89-.66-.39-1.48-.34-2.09.11l-6.94 5.21c-.07-4.09-1.51-8.07-4.11-11.24-.94-1.15-2.89-1.15-3.83 0-2.66 3.25-4.12 7.34-4.12 11.54v9.02c-.7 1.46-1.14 3-1.35 4.57l-17.86 5.8c-6.39 2.2-11.62 7.01-14.34 13.19-1.07 2.44-1.71 5.01-1.94 7.62-.18-.15-.4-.25-.65-.25-2.82 0-5.54 1.18-7.47 3.24-1.96 2.09-2.93 4.81-2.75 7.68.35 5.36 4.97 9.56 10.53 9.56ZM8.39 59.59c1.57-1.68 3.71-2.6 6.01-2.6.21 0 .4-.08.56-.19-.07 2.62.27 5.26 1.05 7.81l1.63 5.29c.13.43.53.71.96.71.1 0 .2-.01.3-.04.53-.16.82-.72.66-1.25l-1.63-5.29c-1.59-5.13-1.27-10.67.9-15.59 2.5-5.68 7.3-10.09 13.15-12.1l17.09-5.55c.01 1.42.23 2.84.65 4.23l.58 1.91c.13.43.53.71.96.71.1 0 .19-.01.29-.04.53-.16.83-.72.67-1.25l-.58-1.91c-.98-3.23-.68-6.67.83-9.69.07-.14.11-.29.11-.45v-9.25c0-3.73 1.3-7.38 3.67-10.27.12-.15.28-.17.37-.17.09 0 .25.02.37.17 2.37 2.89 3.67 6.54 3.67 10.27 0 .04-.13 4.7-2.98 9.21-.3.47-.16 1.08.31 1.38.47.3 1.09.16 1.38-.31 1.85-2.93 2.66-5.89 3.01-7.88l8.18-6.14c-.03.24-.06.47-.09.7-.2 1.63-.36 2.91-1.51 4.98-.56 1.01-1.32 1.98-2.25 2.87l-2.2 2.1c-.47.45-.72 1.08-.68 1.73.04.65.36 1.25.9 1.65l3.23 2.31c.97.7 1.76 1.64 2.27 2.72l2.37 5.06c.92 1.97.29 4.33-1.5 5.61-2.69 1.92-6.84 3.75-11.29 1.65l-2.68-1.61c-.47-.28-1.09-.13-1.37.34-.28.47-.13 1.09.34 1.37l2.76 1.65c1.76.84 3.47 1.18 5.08 1.18.09 0 .18-.01.27-.01-1.16 7.31-5.06 13.75-11.01 18.16l-.12.09c-.25.19-.4.49-.4.8v4.62c0 .55.45 1 1 1 1.36 0 2.46 1.11 2.46 2.52 0 .37-.3.68-.68.68h-4.86c-.6 0-1.17-.32-1.48-.84l-1.88-3.13c-.42-.71-.65-1.52-.65-2.34v-7.7c0-.55-.45-1-1-1-.55 0-1 .45-1 1v7.7c0 .15.02.31.03.46l-3.09 1.88-2.11-.57c-.68-.18-1.36-.34-2.05-.48l2.55-5.23c1.52-3.11 1.33-6.73-.49-9.67-1.84-2.96-5.02-4.72-8.5-4.72h-4.96c-.55 0-1 .45-1 1 0 .55.45 1 1 1h4.96c2.79 0 5.33 1.41 6.8 3.78 1.46 2.35 1.61 5.25.4 7.74l-2.81 5.75c-1.73-.26-3.48-.4-5.24-.4h-2.96c-.55 0-1 .45-1 1 0 .55.45 1 1 1h2.96c2.98 0 5.94.39 8.82 1.17l2.68.72c.42.11.71.49.71.93 0 .53-.43.96-.96.96H14.71c-4.5 0-8.25-3.38-8.53-7.69-.15-2.31.63-4.5 2.21-6.18ZM67.26 36.63c1.08 0 1.96-.88 1.96-1.96 0-1.08-.88-1.96-1.96-1.96-1.08 0-1.96.88-1.96 1.96 0 1.08.88 1.96 1.96 1.96Z"/>
</svg>