<svg xmlns="http://www.w3.org/2000/svg" viewBox="0 0 80 80">
<path d="M5.06 55.58v10.14c0 .16.04.31.11.45l1.11 2.21v.37c0 .55.45 1 1 1h9.7c.55 0 1-.45 1-1v-1.82c0-.16-.04-.31-.11-.45l-1.11-2.21v-5.09h32.64v9.2c0 .55.45 1 1 1h10.72c.55 0 1-.45 1-1v-12.61c0-.09-.03-.18-.05-.27l.34-.42c1.83-2.23 2.83-5.05 2.83-7.93v-9.51c.64.17 1.31.27 1.98.25h.17c1.26-.02 2.61-.03 3.92.09l.62.06c.16.01.32.02.49.02 1.8 0 3.46-.92 4.42-2.46 1.15-1.84 1.05-4.14-.23-5.87-1.76-2.36-2.79-4.36-2.86-5.55 1.3-.58 2.36-2.25 2.7-2.83.59-1.02.83-2.23.67-3.4l-1.36-9.82c-.07-.48-.46-.84-.94-.86-.46-.03-.91.3-1.02.77l-2.09 8.79c-.4 1.74-1.55 2.95-2.34 2.95h-.46c-2.39-.68-4.75-.5-5.09-.47h-4.63c-.96 0-1.4-1.24-1.54-1.74l-2.09-8.78c-.11-.47-.54-.8-1.02-.77-.48.02-.88.39-.94.86l-1.15 8.32c-4.36-1.08-11.71-.6-15.86 1.92l-6.92 4.2-16.23-1.28c-2.95-.29-5.93.62-7.96 2.46-1.86 1.68-2.84 4.05-2.84 6.86v18.31c0 2.2.84 4.28 2.37 5.86l.06.06ZM11.12 67.75h-2.93c0 0-.02-.04-.02-.05l-1.11-2.21v-7.83l1.18 1.22c0 0 0 0 0 0 .09.09.2.17.33.22.12.05.25.08.39.08h.95v5.33c0 .16.04.31.11.45l1.11 2.21v.58ZM15.97 67.75h-2.85v-.82c0-.16-.04-.31-.11-.45l-1.11-2.21v-5.09h2.85v5.33c0 .16.04.31.11.45l1.11 2.21v.58ZM54.25 67.38h-2.85v-8.2h2.85v8.2ZM60.13 67.38h-3.88v-8.2h2.33c.15 0 .28-.03.41-.09.03-.01.06-.04.09-.06.09-.05.17-.11.24-.19.01-.01.03-.02.03-.03l.77-.94v9.5ZM73.66 17.29l.86-3.6.63 4.54c.1.73-.05 1.49-.42 2.13-.62 1.07-1.39 1.84-1.75 2.01-.42-.57-.92-1.04-1.48-1.42 1-.8 1.81-2.12 2.16-3.66ZM54.22 18.97l.63-4.54.86 3.63c.55 2.04 1.85 3.25 3.48 3.25h4.67c.34 0 .61.27.61.61v.1c0 .4-.33.73-.73.73h-6.21c-1.18 0-2.29-.63-2.88-1.66-.37-.64-.52-1.39-.42-2.13ZM4.63 31.35c0-2.26.73-4.07 2.18-5.38 1.91-1.73 4.58-2.14 6.44-1.95l16.57 1.31c.21.01.42-.03.6-.14l7.2-4.36c3.71-2.25 10.68-2.7 14.59-1.63-.04 1.01.19 2.02.7 2.9.95 1.64 2.72 2.65 4.61 2.65h6.21c1.51 0 2.73-1.22 2.73-2.73v-.1c0-.2-.03-.39-.07-.58 1.72.17 3.9.7 5 2.25.03.04.07.07.1.11.01.03 0 .07.02.1l.23.48c.1 1.64 1.2 3.88 3.27 6.65.78 1.04.84 2.5.14 3.61-.65 1.04-1.81 1.62-3.03 1.5l-.62-.06c-1.41-.13-2.82-.12-4.14-.1h-.15c-1.43.02-2.86-.56-3.92-1.61-1.09-1.08-1.69-2.53-1.69-4.07v-2.18c0-.55-.45-1-1-1-.55 0-1 .45-1 1v2.18c0 2.08.81 4.03 2.28 5.49.41.41.87.76 1.35 1.06v10.38c0 2.42-.85 4.79-2.38 6.66l-1.28 1.57v-11.79c0-.55-.45-1-1-1-.55 0-1 .45-1 1v13.59h-3.4v-11.73c0-.55-.45-1-1-1-.55 0-1 .45-1 1v11.73h-3.91v-10.03c0-.55-.45-1-1-1-.55 0-1 .45-1 1v10.03h-2.85v-6.97c0-.55-.45-1-1-1-.55 0-1 .45-1 1v6.97h-2.85v-5.92c0-.55-.45-1-1-1-.55 0-1 .45-1 1v5.92h-2.85v-5.92c0-.55-.45-1-1-1-.55 0-1 .45-1 1v5.92h-2.85v-5.92c0-.55-.45-1-1-1-.55 0-1 .45-1 1v5.92h-2.85v-6.97c0-.55-.45-1-1-1-.55 0-1 .45-1 1v6.97h-2.85v-8.16c0-.55-.45-1-1-1-.55 0-1 .45-1 1v8.16h-2.85v-10.71c0-.55-.45-1-1-1-.55 0-1 .45-1 1v10.71h-2.38v-13.59c0-.55-.45-1-1-1-.55 0-1 .45-1 1v12.12l-1.52-1.57c-1.17-1.21-1.81-2.8-1.81-4.47v-18.31ZM69.56 31.12c.87 0 1.57-.7 1.57-1.57 0-.87-.7-1.57-1.57-1.57-.87 0-1.57.7-1.57 1.57 0 .87.7 1.57 1.57 1.57Z"/>
</svg>