<svg xmlns="http://www.w3.org/2000/svg" viewBox="0 0 80 80">
<path d="M15.81 37.09c-.43-1.41-.08-3 1.03-4.11.96-.96 2.27-1.35 3.52-1.16-.06 1.13.05 2.3.36 3.45.53 1.99 1.58 3.71 2.96 5.05l3.79 3.79c2.14 2.14 5.65 2.14 7.8 0l7.8-7.8c2.14-2.14 2.14-5.65 0-7.8l-1.91-1.91c2.92-3.37 2.78-8.48-.42-11.69-3.35-3.35-8.79-3.35-12.15 0-2.1 2.1-2.89 5.03-2.35 7.75-2.07 1.09-3.7 2.8-4.72 4.82-2.74-.57-5.7.21-7.83 2.33-1.98 1.98-2.79 4.69-2.43 7.27h4.57ZM31.74 18.08c1.61-1.61 4.21-1.61 5.82 0 1.49 1.49 1.6 3.84.33 5.45-2.07-1.52-4.66-2.31-7.33-2.11-.13-1.19.27-2.43 1.18-3.34ZM34 27.36c-.4.4-1.05.4-1.45 0-.4-.4-.4-1.05 0-1.45.4-.4 1.05-.4 1.45 0 .4.4.4 1.05 0 1.45ZM28.7 29.75c1.09-1.09 3.32-.64 4.98 1.02l1.63 1.63c.75.75.75 1.98 0 2.74l-1.23 1.23c-.75.75-1.98.75-2.74 0l-1.63-1.63c-1.66-1.66-2.11-3.89-1.02-4.98ZM24.85 33.6c.4-.4 1.05-.4 1.45 0 .4.4.4 1.05 0 1.45-.4.4-1.05.4-1.45 0-.4-.4-.4-1.05 0-1.45ZM5.5 45.72h6.81l-4.04 6.99h1.96l6.99-6.99h9.02l-6.64-6.64H5.5c-1.83 0-3.32 1.49-3.32 3.32h0c0 1.83 1.49 3.32 3.32 3.32ZM44.47 37.72l-5.45 5.45 4.13 14.94c1.29 3.99 5.96 5.83 9.64 3.71.31-.18.61-.38.88-.61l-2.57-4.45c-.37-.64-.56-1.36-.56-2.1v-8.96h5.13l-1.78-6.64h2.06l5.23 19.52c1.29 3.99 5.96 5.83 9.64 3.71.31-.18.61-.38.88-.61l-1.06-1.83c-1.36-2.35-2.07-5.02-2.07-7.74v-6.42h5.94c1.83 0 3.32-1.49 3.32-3.32h0c0-1.83-1.49-3.32-3.32-3.32h-5.94v-7.26c0-6.09-4.94-11.03-11.02-11.03h-12.3c.03 1.94-.46 3.88-1.48 5.6l.72.72c2.92 2.92 2.92 7.69 0 10.61ZM25.85 47.71l2.17 5.29c1.29 3.99 5.96 5.83 9.64 3.71.31-.18.61-.38.88-.61l-1.6-2.77c-.98-1.7-1.26-3.72-.79-5.63h-10.3Z"/>
</svg>