<svg xmlns="http://www.w3.org/2000/svg" viewBox="0 0 80 80">
<path d="M42.55 17.72c-3.56-.04-7.46-6.14-12.84-2.44-4.41 2.34-9.59 6.12-13.95 4.94-3.21.31-7.46 1.44-5.19 5.82-3.03 4.05-3.48 4.67-4.53 9.68-.53 2.46-5.37 3.87-1.93 6.36 3.4 2.81 7.63.53 11.21-.91 8.09-3.99 7.5 11.53 8.98 17.35.98 8.49-7.92 4.03-6.33 9.4.33-.34.54-.63 1.02-.78 0 1.3 1.1.22 1.82.17-.03.8.72.74 1.06.17 9.41 2.82 10.25-11.39 11.1-18.15 4.44-2 5.59 13.59 4.59 16.29-1.06-.16-5.01.59-3.82 2.78l.74-.63c-.02.3.11.68.21.93 11.99 1.68 10.75-7.24 11.97-17.13 0-.3 3.95.47 4.15 3.94.05.83.78 7.55-.99 7.2-2.18-.44-4.54 1.5-4.82 3.59 14.42-.62 10.39 1.46 15.42-12.68.89-.1 1.88-.31 2.69-.71 8.68 13.93-3.12 8.92-2.25 14.88.32-.28.66-.56.96-.85-.18 1.81 1.29 1.14 1.9.04.12.56.2.93.6 1.37.38-.28.77-.65.85-1.14.72-.05 6.5-.14 6.53-.86.17-5.84 3.73-11.66 4.07-17 .59-9.75 3.24-14.84-5.17-24.12-5.96-5.14-20.52-7.48-28.06-7.48Z"/>
</svg>