<svg xmlns="http://www.w3.org/2000/svg" viewBox="0 0 80 80">
<path d="M74.29 9.79h-2.77c-.11-.09-.23-.19-.35-.31-.87-.78-2.06-1.86-5.25-1.86h0c-3.86 0-5.47 1.16-6.76 2.08-.7.5-1.25.89-2.08 1.06-1.62.33-2.75 1.68-2.75 3.29 0 .92.38 1.81 1.05 2.43.67.63 1.59.96 2.51.9.87-.05 1.5-.11 1.98-.17v3.36c0 3.49-1.2 10.08-5.79 10.08-1.96 0-3.12-1.96-4.47-4.23-1.7-2.86-3.62-6.1-7.76-6.1-1.84 0-3.22-1.34-4.82-2.88-1.97-1.9-4.2-4.05-7.79-4.05-4.03 0-5.88 2.17-7.52 4.09-1.56 1.83-3.04 3.56-6.31 3.89-6.12.04-11.69 6.17-11.69 12.88v14.39c0 .55.45 1 1 1 .55 0 1-.45 1-1v-6.51c.43 1.23.85 2.48 1.46 4.33.35 1.05.33 2.19-.05 3.23l-2.09 5.75c-.35.96-.57 1.96-.67 2.97l-1.11 11.58c-.01.12 0 .25.03.37l1.04 3.6c.12.43.51.72.96.72h9.34c.31 0 .6-.14.79-.39.19-.24.26-.56.18-.86l-.99-3.88 1.25-8.74c.14-.99.43-1.95.86-2.86l3.3-6.97c.73-1.54 1.13-3.18 1.19-4.87l.06-1.61c1.26.68 2.61 1.2 4.04 1.53l1.69.39c3.13.71 5.31.8 7.96.8.42 0 .84 0 1.29 0h1.15c0 0 .54.47.54.47 1.41 1.24 2.28 3.03 2.37 4.91l.74 15.49c0 .08.02.17.04.25l1.77 5.65c.13.42.52.7.95.7h9.34c.32 0 .62-.15.81-.41.19-.26.24-.59.15-.89l-1.72-5.51-.67-25.06.12-.11c.26-.24.6-.37.96-.37h2.12c9.85 0 15.01-7.72 15.01-15.34v-8.05c.69-.32 1.57-.74 2.74-1.33h2.15c1.81 0 3.28-1.47 3.28-3.28v-.76c0-2.09-1.7-3.79-3.79-3.79ZM19.31 43.59l-.1 2.47c-.06 1.42-.39 2.8-1 4.09l-3.3 6.97c-.51 1.08-.86 2.24-1.03 3.43l-1.28 8.94c-.02.13-.01.26.02.39l.72 2.82h-2.63l-.77-2.68 1.39-10.37c.13-.95.39-1.87.78-2.75l3.3-7.39c.72-1.62 1.09-3.34 1.09-5.12v-3.77l.46.51c.73.82 1.55 1.54 2.41 2.18-.03.09-.06.18-.06.27ZM51.78 72.7h-2.57l-1.5-4.81-.67-20.89c0 0 .02 0 .03-.02l2.69-2.4.63 23.51c0 .09.02.18.05.27l1.36 4.35ZM76.08 14.35c0 .71-.58 1.28-1.28 1.28h-2.39c-.16 0-.31.04-.45.11-4.21 2.11-4.36 2.11-5.56 2.1h-.24c-.55 0-1 .45-1 1 0 .55.45 1 1 1h.23c.58 0 1-.01 1.51-.13v7.3c0 6.63-4.47 13.34-13.01 13.34h-2.12c-.85 0-1.66.31-2.29.88l-3.54 3.17-.15-4.58c-.02-.55-.49-1-1.03-.97-.55.02-.99.48-.97 1.03l.9 28.21c0 .09.02.18.04.27l1.36 4.35h-2.57l-1.51-4.82-.74-15.36c-.12-2.42-1.23-4.72-3.05-6.32l-.69-.6c-2.48-2.17-3.9-5.31-3.9-8.61v-.49c0-.55-.45-1-1-1-.55 0-1 .45-1 1v.49c0 3.02 1.02 5.91 2.85 8.25-2.85.01-4.93-.04-8.06-.75l-1.69-.39c-2.84-.65-5.36-2.14-7.31-4.3l-1.83-2.04c0 0-.08-.06-.12-.09v-4.93c0-.55-.45-1-1-1-.55 0-1 .45-1 1v11.65c0 1.49-.31 2.94-.92 4.31l-3.3 7.39c-.47 1.05-.78 2.16-.94 3.3l-1.42 10.58c-.02.14 0 .28.03.41l.67 2.33h-2.59l-.77-2.7 1.09-11.4c.08-.84.27-1.68.56-2.47l2.09-5.75c.53-1.45.55-3.06.07-4.54-1.06-3.2-1.55-4.61-2.46-7.17l-.13-.36c-.51-1.29-.77-2.65-.77-4.05 0-5.66 4.62-10.85 9.79-10.88 4.17-.42 6.06-2.63 7.72-4.59 1.61-1.89 2.89-3.39 6-3.39 2.78 0 4.54 1.7 6.4 3.49 1.75 1.69 3.57 3.44 6.21 3.44 3 0 4.48 2.49 6.04 5.12 1.52 2.56 3.09 5.21 6.24 5.21 6.11 0 7.73-7.59 7.73-12.08v-4.56c0-.32-.18-.61-.44-.8-.26-.19-.62-.23-.93-.12-.16.05-.92.18-2.73.29-.37.03-.74-.11-1.01-.36-.27-.26-.42-.6-.42-.98 0-.64.47-1.19 1.15-1.33 1.25-.25 2.07-.84 2.85-1.4 1.17-.84 2.37-1.71 5.59-1.71h0c2.42 0 3.18.68 3.92 1.34.26.23.52.47.84.67.16.1.34.15.53.15h3.09c.99 0 1.79.81 1.79 1.79v.76ZM66.33 11.43c-.7566 0-1.37.6134-1.37 1.37 0 .7566.6134 1.37 1.37 1.37.7566 0 1.37-.6134 1.37-1.37 0-.7566-.6134-1.37-1.37-1.37Z"/>
</svg>