<svg xmlns="http://www.w3.org/2000/svg" viewBox="0 0 80 80">
<path d="M27.68 77.13 30.95 55.87 23.6 55.87 24.9 77.13 27.68 77.13ZM22.22 54h10.14l7.62 23.03h2.78v-20.82c-.22 0-.45 0 0-.07 4.9-.75 8.71-4.96 8.99-9.91.06-1.13-.04-2.22-.3-3.25l-3.91-14.61h3.62c1.29 0 2.42-.87 2.75-2.11.33-1.25-.21-2.56-1.33-3.21l-7.46-4.31c5.34-.63 10.15-3.01 13.87-6.54 3.3-.36 6.29-1.98 8.39-4.42.59-.68.13-1.75-.78-1.75-.31 0-.59.14-.79.37-1.17 1.36-2.67 2.43-4.37 3.08 1.23-1.58 2.26-3.3 3.08-5.15.31-.69-.19-1.48-.95-1.48-.41 0-.78.25-.95.63-2.15 4.88-6.01 8.86-10.8 11.17 1.29-1.42 2.27-3.14 2.83-5.06l.38-1.31c.2-.67-.31-1.35-1.01-1.35-.48 0-.89.32-1.02.78l-.35 1.3c-.26.91-.64 1.77-1.12 2.56-1.41-1.59-1.87-4.64-2.01-6.18-.05-.54-.5-.95-1.05-.95-.62 0-1.1.53-1.05 1.15.17 1.96.78 5.93 2.81 7.71-3.59 3.92-9.44 4.65-13.85 1.77.4-.76.72-1.56.97-2.4l.38-1.31c.2-.67-.31-1.35-1.01-1.35-.48 0-.89.32-1.02.78l-.35 1.3c-.17.57-.38 1.12-.63 1.65-1.32-1.29-2.31-2.91-2.84-4.72l-.35-1.3c-.12-.46-.54-.78-1.02-.78-.7 0-1.21.67-1.01 1.35l.38 1.31c.56 1.92 1.54 3.64 2.83 5.06-4.8-2.3-8.66-6.28-10.8-11.17-.17-.38-.53-.63-.95-.63-.76 0-1.26.78-.95 1.47 1.09 2.48 2.58 4.74 4.4 6.71-2.48-.43-4.67-1.7-6.27-3.52-.2-.23-.48-.36-.78-.36-.9 0-1.38 1.07-.78 1.75 2.39 2.71 5.88 4.37 9.66 4.37.17 0 .34 0 .51-.01 3.3 2.75 7.34 4.65 11.76 5.35l-.43 1.59-3.8-.75c-1.09-.22-1.91 1.01-1.28 1.92 1.01 1.46 2.67 2.79 3.94 3.06l-3.69 13.77h-9.85l-7.66-2.73c-.53-.19-1.06.22-1.05.78.03 1.76 1.01 3.78 2.35 4.57-1.66 1.64-2.68 3.91-2.68 6.42v29.89c0 0 2.78 0 2.78 0l5.07-23.13ZM44.51 21.24c.71 0 1.28.57 1.28 1.28 0 .71-.57 1.28-1.28 1.28-.71 0-1.28-.57-1.28-1.28 0-.71.57-1.28 1.28-1.28ZM42.76 56.15v.07c.21 0 .4-.04 0-.07ZM53.27 66.5l8.22-9.63c.44-.56.35-1.36-.19-1.81l-8.37-6.92c0 0 .17 3.88-4.05 6.92l5.95 2.85-4.09 6.71 2.53 1.89Z"/>
</svg>