<svg xmlns="http://www.w3.org/2000/svg" viewBox="0 0 80 80">
<path d="M74.45 24.22c0-1.62-1.6-2.75-3.13-2.21l-15.81 5.61c.35.99.92 2.78 1.4 5.11l17.53-2.95v-5.56ZM74.45 40.75h-16.68c0 1.66-.11 3.4-.39 5.16l17.07 2.88v-8.04ZM74.45 31.3l-17.25 2.91c.26 1.53.46 3.23.54 5.04h16.71v-7.95ZM54.1 51.87h.02c4.21-9.82.99-20.79-.03-23.75-2.65-3.71-6.5-6.5-10.98-7.81.22-.55.34-1.14.34-1.76 0-2.64-2.14-4.78-4.78-4.78h-15.44c-2.64 0-4.78 2.14-4.78 4.78 0 .62.13 1.21.34 1.76-8.53 2.49-14.82 10.38-14.82 19.69h0c0 9.21 6.16 17.05 14.56 19.62-.05.29-.09.59-.09.89h0c0 2.64 2.14 4.78 4.78 4.78 2.64 0 4.78-2.14 4.78-4.78h0c0 0 9.4 0 9.4 0 .24 0 .47-.03.7-.04 0 .01 0 .02 0 .04h0c0 2.64 2.14 4.78 4.78 4.78 2.64 0 4.78-2.14 4.78-4.78h0c0-.88-.25-1.69-.67-2.4 2.82-1.5 5.24-3.65 7.09-6.24ZM11.34 38.14c-.96 0-1.74-.78-1.74-1.74 0-.96.78-1.74 1.74-1.74.96 0 1.74.78 1.74 1.74 0 .96-.78 1.74-1.74 1.74ZM35.78 45.34c0 .9-.73 1.62-1.62 1.62l-.23-.03-8.48-1.96v8.55c0 .41-.34.75-.75.75-.41 0-.75-.34-.75-.75v-9.77c-.04-.13-.06-.27-.06-.41v-6.56c0-.14.02-.28.06-.41v-8.73c0-.41.34-.75.75-.75.41 0 .75.34.75.75v7.51l8.71-1.99c.9 0 1.62.73 1.62 1.62v10.56ZM74.45 55.78v-5.47l-17.35-2.92c-.35 1.66-.86 3.34-1.56 5l15.78 5.6c1.53.54 3.13-.59 3.13-2.21ZM25.89 43.03 33.78 44.85 33.78 35.27 25.89 37.1 25.89 43.03Z"/>
</svg>