<svg xmlns="http://www.w3.org/2000/svg" viewBox="0 0 80 80">
<path d="M75.6 35.55c-4.32-3.92-12.37-11.22-23.26-12.14-.4-.03-.82-.04-1.23-.05l1.71-5.52c.08-.27.05-.55-.09-.79-.14-.24-.37-.41-.64-.48-.48-.11-11.91-2.63-22.18 5.03-.44.33-.53.94-.21 1.39l2.95 4.09c-5.38 1.83-9.51 3.8-11.99 5.11-.69.36-1.67.31-2.15-.12-1.2-1.07-2.29-2.22-3.35-3.33-3.19-3.34-6.2-6.49-10.96-6.49-.27 0-.52.11-.71.3-.19.19-.29.45-.29.71 0 .24.29 23.76.29 28.98 0 .27.11.54.31.73.19.18.43.27.69.27.02 0 .04 0 .05 0l.44-.02c.14 0 .27-.04.39-.1 5.98-2.98 9.65-6.03 13.53-11.25.03-.04.2-.17.44-.18.23-.02.47.09.69.3 2.85 2.84 5.81 5 8.77 6.64l-3.52 3.86c-.31.34-.35.84-.1 1.22.14.22 3.46 5.13 13.69 5.13.66 0 1.34-.02 2.05-.06.54-.03.95-.49.94-1.02l-.13-4.89c2.65.35 5.17.39 7.49.25l-.57 4.29c-.06.45.19.89.61 1.06.11.04 1.19.46 3.05.46 2.75 0 7.21-.91 12.77-5.29.42-.33.51-.94.19-1.38l-1.78-2.43c3.7-1.2 8.95-3.56 12.8-6.7 1-.81 1.55-1.88 1.57-3.02v-.89c.02-1.05-.45-2.05-1.31-2.82-.29-.26-.6-.54-.94-.85ZM31.9 22.64c7.56-5.19 15.79-4.68 18.67-4.29l-1.5 4.86c-.02.06-.01.12-.02.19-1.49.08-3.07.27-4.8.61-3.5.67-6.73 1.52-9.65 2.44-.03-.06-.04-.12-.08-.17l-2.62-3.63ZM27.34 53.18l2.95-3.24c.11-.12.18-.27.22-.43 3.14 1.52 6.27 2.48 9.27 3.04-.04.11-.06.22-.06.34l.1 3.93c-7.67.23-11.27-2.44-12.48-3.64ZM50.75 56.79l.51-3.83c4.87-.51 8.6-1.73 10.3-2.37l1.52 2.06c-6.17 4.58-10.65 4.43-12.33 4.14ZM75.85 40.09c0 .53-.3 1.06-.83 1.49-3.65 2.97-8.83 5.27-12.2 6.36h-.12c-9.03-4.33-10.2-9.69-10.05-12.62.05-.08.09-.15.12-.24.05-.2.02-.39-.04-.58.11-.77.29-1.25.32-1.33.21-.51-.04-1.09-.55-1.3-.51-.21-1.09.04-1.3.55 0 .02-.16.43-.3 1.13l-7.66-2.01c-.47-.12-.95.1-1.15.53-.13.28-3.26 6.91 1.16 12.41.19.24.48.37.78.37.12 0 .24-.02.35-.06l7.99-3c1.37 2.37 3.77 4.88 7.88 7.14-5.29 1.86-23.64 6.75-38.81-8.37-.58-.58-1.3-.89-2.05-.89-.07 0-.13 0-.2 0-.76.06-1.48.43-1.89.98-3.45 4.64-6.72 7.47-11.81 10.14-.03-6.18-.22-22.2-.27-26.5 3.36.42 5.76 2.94 8.5 5.81 1.09 1.14 2.21 2.31 3.47 3.44 1.09.98 2.99 1.15 4.41.4 3.94-2.08 12.17-5.9 23.04-7.99 2.89-.56 5.36-.74 7.55-.56 10.22.86 17.94 7.86 22.09 11.62.34.31.66.6.96.86.43.38.65.83.65 1.3v.89ZM51.49 39.99l-7.12 2.67c-2.34-3.45-1.37-7.35-.8-8.96l7.11 1.87c-.02 1.24.16 2.77.8 4.42ZM67.58 36.31c-1.0825 0-1.96.8775-1.96 1.96 0 1.0825.8775 1.96 1.96 1.96 1.0825 0 1.96-.8775 1.96-1.96 0-1.0825-.8775-1.96-1.96-1.96Z"/>
</svg>