<svg xmlns="http://www.w3.org/2000/svg" viewBox="0 0 80 80">
<path d="M10.97 48.56c2.6-1.23 4.74-.76 7.1.46 1.59.82 2.42 1.21 3.09.99-.1.35-.16.7-.15 1.05-.63-.35-1.54-.45-3.11-.6-1.06-.1-2.12-.36-3.18-.38-.72-.01-1.62.04-2.14.45-2.27 1.79-4.44 3.71-6.78 5.71 2.16 2.04 4.02 2.11 6.2-.01 1.73-1.69 3.55-2.11 5.81-1.71 1.66.29 3.35.33 5.19.5-.02-.07-.04-.13-.06-.2.25.29.51.58.77.86-4.82.22-9.21 3.71-11.1 8.6 2.58 1.23 4.01.92 5.81-1.56 1.15-1.58 2.42-2.53 4.48-2.66 1.71-.11 3.4-.47 5.1-.81 1.69 1.01 3.58 1.69 5.78 1.82 3.8.23 7.62.24 11.44.26 2.35.01 4.43-.51 6.34-1.39.7.13 1.32.26 1.95.36 3.81.55 7.7.64 10.13 4.58 1.05 1.7 3.07 1.07 5.13.4-1.58-2.06-2.96-3.87-4.36-5.66-1.97-2.53-5.35-3.42-8.39-2.66.69-.62 1.35-1.28 1.98-1.99.8-.04 1.57-.05 2.32-.19 3.29-.6 6.31-.82 9 2.04 1.4 1.49 3.59 1.35 5.41-.45-1.16-1.03-2.26-1.95-3.28-2.94-2.41-2.34-4.8-3.99-8.63-3.17-1 .21-1.92.4-2.72.71 0-.32-.08-.64-.21-.96.17-.05.33-.1.48-.17 3.29-1.68 6.43-3.25 10.32-1.18 1.69.9 3.51-.25 4.56-2.39-2.87-1.09-5.63-2.18-8.42-3.17-.52-.18-1.26-.13-1.77.1-2.45 1.08-4.88 2.25-7.42 3.44-.61-.75-1.27-1.44-1.97-2.07 2.13-1.54 4.35-3.07 6.1-4.99 6.22-6.85 5.71-19.02-.86-24.48-2.4-2 .69 3.85-2.93 7.37-2.03 2.35-5.7 1.74-8.11.22-.74.83 5.17 12.36 2.03 19.03-.03.05-.03.12-.03.19-1.28-.67-2.66-1.23-4.17-1.62-.95-.25-1.87.28-2.29 1.17-.53 1.12-1.64 1.28-3.18.93-1.14-.26-2.32-.23-3.47 0-1.5.3-2.65.22-3.12-.99-.36-.92-1.45-1.35-2.4-1.1-1.68.44-3.2 1.08-4.59 1.88 0-.25-.05-.49-.12-.74-2.13-7.27 2.81-17.59 2.17-18.26-3.1 1.54-4.91 1.5-6.52-.04-1.79-1.71-2.04-7.21-2.03-9.09-2.99 1.31-5.17 3.59-6.43 6.77-3.3 8.27-.14 18.19 7.33 23.06.78.51 1.36.88 1.85 1.14-.61.59-1.21 1.21-1.77 1.87-2.43-1.12-4.75-2.2-7.08-3.23-.61-.27-1.4-.65-1.94-.47-2.92.98-5.78 2.11-8.74 3.22 1.67 2.58 3.18 3.31 5.61 2.16ZM36.82 40.21c.74 0 1.33-.6 1.33-1.33 0-.73-.6-1.33-1.33-1.33-.73 0-1.33.6-1.33 1.33 0 .73.6 1.33 1.33 1.33ZM42.76 38.88c0 .74.6 1.33 1.33 1.33.73 0 1.33-.6 1.33-1.33 0-.73-.6-1.33-1.33-1.33-.73 0-1.33.6-1.33 1.33Z"/>
</svg>