<svg xmlns="http://www.w3.org/2000/svg" viewBox="0 0 80 80">
<path d="M67.13 39.99h6.46c.41 0 .79-.22.99-.57 1.62-2.89 2.67-6.14 3.01-9.6.13-1.31-.93-2.44-2.25-2.44h-18.77c-4.08-9.16-11.16-11.14-19.02-10.55-.51.04-.86.52-.77 1.02l1.96 10.06c-9.6 2.38-20.12 9.73-23.02 18.95l-9.22-5.66c-.39-.24-.92-.12-1.15.28-3.92 6.77-2.64 13.11.62 17.97.26.39.81.47 1.18.19l10.35-7.83h21.17c.44 0 .8-.36.8-.8v-2.33c0-.52.42-.94.94-.94.52 0 .94.42.94.94v10.3c0 .67.58 1.18 1.25 1.13 7.82-.67 13.97-7.58 13.97-15.56v.07c0-.52.42-.94.94-.94.52 0 .82.29.82.81h0c0 2.55-.53 5.11-1.1 6.29-.12.25.1.52.36.46 5.36-1.21 10.25-3.17 13.67-7.11.5-.58.3-1.48-.39-1.79l-3.88-1.72c-.32-.14-.22-.63.13-.63ZM49.16 35.37c0 .52-.42.94-.94.94-.52 0-.94-.42-.94-.94v-2.55c0-.52.42-.94.94-.94.52 0 .94.42.94.94v2.55ZM52.92 35.37c0 .52-.42.94-.94.94-.52 0-.94-.42-.94-.94v-2.55c0-.52.42-.94.94-.94.52 0 .94.42.94.94v2.55ZM56.68 35.37c0 .52-.42.94-.94.94-.52 0-.94-.42-.94-.94v-2.55c0-.52.42-.94.94-.94.52 0 .94.42.94.94v2.55ZM66.67 31.88h3.76c0 1.04-.84 1.88-1.88 1.88-1.04 0-1.88-.84-1.88-1.88Z"/>
</svg>