<svg xmlns="http://www.w3.org/2000/svg" viewBox="0 0 80 80">
<path d="M64.91 42.63c1.05-.06 1.85-.95 1.8-2-.06-1.05-.95-1.85-2-1.8-1.05.06-1.85.95-1.8 2 .06 1.05.95 1.85 2 1.8ZM76.52 40.21c-3.93-4.69-11.27-11.24-16.37-14.61l-.52-.34c-1.11-.88-2.54-1.53-4.27-1.96-.02-.19-.09-.38-.22-.54l-10.52-11.92c-.25-.28-.64-.4-1-.31-16.53 4.34-14.86 18.8-14.83 18.94 0 .03.03.06.04.1-2.93 1.56-5.27 3.05-6.87 4.17-.59.41-1.4.32-1.85-.21-2.34-2.81-4.82-4.3-7.22-5.73-2.53-1.52-4.92-2.95-6.88-5.87-.2-.29-.53-.46-.88-.44l-.42.02c-.38.02-.71.25-.86.59-.9 2.03-1.3 4.12-1.19 6.2.33 6.06 4.88 10.61 6.72 12.37-1.65 1.94-5.69 6.95-5.36 13.01.11 2.09.73 4.12 1.84 6.04.18.31.51.5.87.5.02 0 .04 0 .05 0l.42-.02c.37-.02.7-.24.85-.58 2.26-4.84 4.64-6.51 6.95-8.13 1.93-1.35 3.93-2.75 5.61-5.83.06-.12.16-.15.21-.16.06-.01.14-.01.23.05 1.57 1.2 4.46 3.32 8.02 5.54-.53 2.84 1.16 9.47 5.42 15.56.19.27.5.43.82.43.13 0 .26-.03.39-.08l17.77-7.55c4.05-.46 5.51-1.77 5.67-1.92.39-.38.4-.99.04-1.39-.36-.4-1-.43-1.4-.07-.01 0-1.21 1.03-4.67 1.4-6.82.73-15.58-3.51-22.23-7.6 0 0 0 0 0 0 0 0 0 0 0 0-3.83-2.35-6.95-4.65-8.61-5.91-.53-.41-1.21-.56-1.86-.42-.66.14-1.23.56-1.55 1.16-1.46 2.67-3.1 3.82-5 5.15-2.19 1.53-4.64 3.25-6.93 7.55-.54-1.24-.84-2.53-.91-3.83-.3-5.56 3.77-10.31 5.11-11.87.18-.21.33-.38.42-.5.3-.39.28-.95-.07-1.31-.1-.11-.26-.26-.47-.45-1.5-1.41-6.05-5.7-6.35-11.26-.07-1.34.11-2.69.53-4.02 2.04 2.55 4.39 3.96 6.68 5.33 2.26 1.35 4.59 2.75 6.71 5.3 1.1 1.32 3.09 1.57 4.53.57 3.78-2.64 11.68-7.44 22.15-9.96 2.52-.61 4.96-.8 7.25-.58 2.54.25 4.57.93 5.95 2.03l.6.39c4.97 3.28 12.12 9.66 15.94 14.22.48.58.75 1.31.76 2.06v.36c-2.72.7-4.78-.14-4.83-.16-.51-.22-1.09 0-1.32.51-.23.5 0 1.1.5 1.32.08.04 1.44.63 3.48.63.58 0 1.22-.06 1.9-.18-.14.33-.33.65-.58.92-3.47 3.78-8.4 6.66-11.64 8.02-7.88-5.2-9.76-11.39-10.02-15.48 0-.11 0-.21-.02-.31-.11-2.36.32-3.96.37-4.13.15-.53-.15-1.08-.68-1.24-.53-.15-1.09.15-1.24.68-.02.09-.42 1.49-.44 3.67l-8.96-1.97c-.41-.09-.83.08-1.06.43-1.54 2.39-3.36 8.06.8 12.4.19.2.45.31.72.31.1 0 .2-.01.3-.05l9.85-3.1c1.49 3.39 4.31 7.25 9.56 10.63.18.11.39.17.6.16l.49-.03c.11 0 .22-.03.33-.07 3.6-1.48 8.77-4.51 12.52-8.59.88-.96 1.37-2.2 1.38-3.51 0-.04 0-.08 0-.12v-1.13c-.01-1.22-.45-2.4-1.23-3.34ZM48.63 59.34l-12.95 5.5c-3.66-5.49-4.69-10.48-4.72-12.59 5.32 3.15 11.79 6.25 17.67 7.09ZM44.78 23.49c-5.43 1.31-10.18 3.21-14.06 5.12-.1-2.3.25-12.37 12.82-15.97l9.01 10.21c-2.47-.22-5.08-.01-7.76.64ZM43.05 47.2c-2.81-3.41-1.25-7.4-.49-8.89l8.76 1.93c.06.63.15 1.29.29 1.98.13.66.32 1.37.56 2.11l-9.12 2.87Z"/>
</svg>