<svg xmlns="http://www.w3.org/2000/svg" viewBox="0 0 80 80">
<path d="M66.84 50.83c-4.77-12.89-11-18.29-22.12-26.62-.49-1.66-.5-6.83.32-8.7.21-.48-.17-1.01-.7-.96-3.37.38-6.95 3.18-10.21 5.84-8.49-.37-28.19-.37-27.37 11.46-3.67 4.42-5.37 8.21 3.35 4.8 3.34-1.31 2.77-.71 6.15.3-1.24 4.5-.83 7.01 2.97 10.18.6.5 1.51.03 1.45-.75-.37-4.5 1.01-5.88 4.06-6.99 4.86 1.65 10.76 1.88 16.16 2.42 4.88.49 17.92 5.03 20.4 10.64-5.06 1.7-6.85 5.75-7.46 12.03-.06.63.65 1.02 1.16.65 3.36-2.44 7.3-1.43 10.92-7.1 4.21 2.09 6.19.28 9.84.87.6.1 1.04-.55.74-1.07-2.56-4.46-4.53-6.02-9.67-7ZM12.17 31.53c-.65 0-1.17-.52-1.17-1.17 0-.65.52-1.17 1.17-1.17.65 0 1.17.52 1.17 1.17 0 .65-.52 1.17-1.17 1.17Z"/>
</svg>