<svg xmlns="http://www.w3.org/2000/svg" viewBox="0 0 80 80">
<path d="M40 6.54c-13.44 0-28.47 12.18-28.47 28.47 0 4.29 1.87 8.38 5.12 11.22.19.17.42.25.66.25.28 0 .56-.12.75-.34.36-.42.32-1.05-.1-1.41-2.82-2.46-4.43-6-4.43-9.71 0-15.15 13.98-26.47 26.47-26.47 12.49 0 26.47 11.56 26.47 26.47 0 3.61-1.54 7.09-4.24 9.54-.41.37-.44 1-.07 1.41.37.41 1 .44 1.41.07 3.11-2.83 4.89-6.85 4.89-11.02 0-16.3-15.03-28.47-28.47-28.47ZM64.75 53.28c-.55 0-1 .45-1 1v4.27c0 1.09-.42 2.11-1.19 2.87-.77.76-1.78 1.18-2.86 1.18h-.01c-2.23 0-4.04-1.83-4.04-4.06v-11.9c0-.55-.45-1-1-1-.55 0-1 .45-1 1v11.9c0 3.33 2.71 6.05 6.04 6.06h.02c1.61 0 3.13-.63 4.27-1.77 1.15-1.14 1.78-2.67 1.78-4.29v-4.27c0-.55-.45-1-1-1ZM56.12 70.34c-4.36 0-7.9-3.55-7.9-7.9v-23.15c2.36.74 4.83 1.79 7.41 3.26.16.09.33.13.49.13.35 0 .69-.18.87-.51.27-.48.1-1.09-.38-1.36-14.38-8.16-26.16-4.31-31.42-1.68-.09.03-.17.07-.24.12-1.73.89-2.69 1.6-2.72 1.63-.44.34-.52.96-.18 1.4.34.44.96.52 1.4.18.08-.06.44-.33 1.05-.71v16.79c0 2.23-1.81 4.05-4.04 4.06-1.1.05-2.11-.42-2.88-1.18-.77-.77-1.19-1.79-1.19-2.87v-4.27c0-.55-.45-1-1-1-.55 0-1 .45-1 1v4.27c0 1.62.63 3.15 1.78 4.29 1.14 1.14 2.66 1.77 4.27 1.77h.02c3.33-.01 6.04-2.73 6.04-6.06v-17.89c1.38-.68 3.2-1.42 5.4-1.98-.12.17-.21.36-.21.58v22.54c0 4.71-3.83 8.54-8.54 8.54h-2.71c-.55 0-1 .45-1 1 0 .55.45 1 1 1h2.71c5.81 0 10.54-4.73 10.54-10.54v-22.54c0-.38-.22-.7-.53-.87 1.74-.36 3.68-.59 5.8-.58v36.45c0 .55.45 1 1 1 .55 0 1-.45 1-1v-36.37c1.71.12 3.52.4 5.42.88-.09.15-.15.31-.15.5v23.18c0 5.46 4.44 9.9 9.9 9.9.55 0 1-.45 1-1 0-.55-.45-1-1-1Z"/>
</svg>