<svg xmlns="http://www.w3.org/2000/svg" viewBox="0 0 80 80">
<path d="M57.65 41.25c-.74 0-1.35.6-1.35 1.35 0 .75.6 1.35 1.35 1.35.75 0 1.35-.6 1.35-1.35 0-.75-.6-1.35-1.35-1.35ZM72.63 36.31c-6.77 0-13.77 0-20.77 0-7.61 0-15.24 0-22.6 0-4.74 0-8.42-2-11.23-6.09-.61-.89-1.09-1.83-1.46-2.84 2.32-.5 4.17-1.67 5.5-3.51 3.68-5.07 2.03-13.35 1.95-13.7-.06-.3-.25-.55-.52-.69-.27-.14-.59-.15-.86-.02-5.5 2.45-7.67 5.39-8.54 7.37-.55-.44-1.24-.85-2.1-1.31-1.47-.8-2.79-1.88-4.18-3.04-.47-.39-.94-.78-1.42-1.15-.25-.2-.48-.49-.78-.87-.34-.43-.85-.65-1.41-.58-.54.06-1 .4-1.23.89-.32.7-.43 1.07-.51 2.03-.43 5.05 1.54 10.12 5.27 13.58 2.39 2.22 3.38 4.42 3.2 7.15-.03.52.03 1 .09 1.46.02.15.04.31.06.46 1.08 10.46 6.58 18.37 16.82 24.14.06 2.23-.56 3.73-4.63 6.97-.31.24-.44.64-.35 1.02.09.38.4.67.79.74 5.47 1.02 12.64-.28 15.98-2.9.71-.56 2.45-1.75 3.95-2.75-.23.77-.46 1.61-.7 2.46-.33 1.22-.68 2.48-1.03 3.47-.11.32-.06.67.15.93.19.25.49.4.8.4.02 0 .04 0 .06 0 15.49-.95 19-9 19.42-10.17.24-.56.44-1.04.49-1.46 4.01-1.53 11.77-5.74 14.57-15.99 0-.03 0-.05 0-.08 0-.03.02-.06.03-.09.17-1.87-.22-3.4-1.15-4.42-.86-.94-2.09-1.42-3.68-1.42ZM22.27 11.83c.29 2.39.57 7.57-1.81 10.85-1.06 1.46-2.51 2.37-4.41 2.75-.23-1.17-.33-2.41-.28-3.74.04-1.16-.03-2.04-.22-2.76.07-.6.74-4.07 6.72-7.1ZM60.48 59.13c-.02.08-2.52 7.37-16.19 8.69.21-.7.41-1.44.61-2.16.46-1.68.93-3.4 1.41-4.46 2.02.25 3.99-.03 6.46-.46 3.34-.57 5.57-1.14 7.04-1.51.21-.06.43-.11.64-.16.01 0 .04 0 .06-.01 0 .02-.02.05-.02.08ZM60.46 57c-.33.07-.71.17-1.15.28-1.44.37-3.63.92-6.88 1.48-2.35.4-3.87.59-5.28.5.12-.45.19-.91.25-1.39 1.85-.15 12.19-1.1 17.35-4.07 4.07-2.34 6.9-4.89 8.43-10.35.03-.12.04-.25.03-.37.68-.01 1.32-.02 1.9-.03-3.47 10.47-12.5 13.39-14.65 13.94ZM64.02 50.74c2.76-1.74 5.01-4.68 5.83-7.57.44-.01.88-.03 1.33-.04-1.2 4.12-3.17 6.48-7.43 8.94-4.5 2.59-13.83 3.57-16.21 3.79 0-.29.02-.58.02-.86 0-.21 0-.41.01-.61 2.3-.18 12.41-1.11 16.44-3.65ZM47.73 52.37c.12-.51 1.19-1.28 1.99-1.43l1.24-.22c11.01-1.93 11.44-2.01 14.48-6.17l.38-.52c.45-.61.57-.7.9-.72.3-.02.65-.04 1.02-.05-.82 2.21-2.65 4.46-4.78 5.8-3.45 2.17-12.55 3.09-15.22 3.32ZM66.59 41.31c-1.32.08-1.91.89-2.39 1.54l-.39.53q-2.56 3.51-13.21 5.38l-1.24.22c-1.32.23-3.37 1.48-3.63 3.12-.14.87-.16 1.84-.18 2.86-.03 1.65-.07 3.36-.61 4.51-2.03 1.1-6.43 4.34-6.48 4.38-2.48 1.94-7.65 3.07-12.16 2.77 2.98-2.67 3.78-4.57 3.57-7.71-.02-.34-.22-.65-.52-.81-9.94-5.46-15.26-12.94-16.28-22.86-.02-.17-.04-.34-.06-.52-.05-.39-.1-.75-.08-1.07.22-3.34-1-6.12-3.83-8.75-3.28-3.04-5.01-7.5-4.64-11.94.03-.3.05-.5.08-.67.19.21.38.41.61.59.46.37.92.75 1.38 1.13 1.41 1.16 2.86 2.36 4.51 3.25 1.55.84 2.26 1.26 2.55 2.12 0 .02 0 .03.02.05.16.52.19 1.19.15 2.2-.13 3.78.72 6.96 2.61 9.71 3.17 4.62 7.5 6.96 12.87 6.96 7.36 0 15 0 22.6 0 7.02 0 14 0 20.77 0 1 0 1.74.26 2.2.77.47.52.64 1.27.67 1.98-2.58.02-6.65.11-8.9.25Z"/>
</svg>