<svg width="28" height="24" viewBox="0 0 28 24" fill="none" xmlns="http://www.w3.org/2000/svg">
<path fill-rule="evenodd" clip-rule="evenodd" d="M14 0.279419C6.89025 0.279419 0.75 4.99701 0.75 11.2353C0.75 13.93 1.92103 16.3685 3.80882 18.2443V22.7059C3.80882 23.0676 4.00137 23.402 4.31422 23.5835C4.62707 23.7651 5.01291 23.7664 5.32696 23.5869L9.11265 21.4236C10.6279 21.9199 12.2775 22.1912 14 22.1912C21.1097 22.1912 27.25 17.4736 27.25 11.2353C27.25 4.99701 21.1097 0.279419 14 0.279419ZM2.77941 11.2353C2.77941 6.49115 7.59713 2.30883 14 2.30883C20.4029 2.30883 25.2206 6.49115 25.2206 11.2353C25.2206 15.9795 20.4029 20.1618 14 20.1618C12.3391 20.1618 10.7673 19.8739 9.35533 19.3607C9.07506 19.2588 8.76417 19.2854 8.50525 19.4334L5.83824 20.9574V17.811C5.83824 17.5273 5.71948 17.2565 5.51077 17.0644C3.78234 15.4733 2.77941 13.4303 2.77941 11.2353ZM13.1658 6.54998C13.0277 6.54998 12.9158 6.66191 12.9158 6.79998V10.304H9.41177C9.2737 10.304 9.16177 10.4159 9.16177 10.554V12.2224C9.16177 12.3605 9.2737 12.4724 9.41177 12.4724H12.9158L12.9158 15.9764C12.9158 16.1145 13.0277 16.2264 13.1658 16.2264H14.8342C14.9723 16.2264 15.0842 16.1145 15.0842 15.9764V12.4724H18.5882C18.7263 12.4724 18.8382 12.3605 18.8382 12.2224V10.554C18.8382 10.4159 18.7263 10.304 18.5882 10.304H15.0842V6.79998C15.0842 6.66191 14.9723 6.54998 14.8342 6.54998H13.1658Z" fill="white"/>
</svg>
