<svg width="32" height="32" viewBox="0 0 32 32" fill="none" xmlns="http://www.w3.org/2000/svg">
<path d="M7.68919 22.3973V19.0085H6V22.3973C6.00218 23.0853 6.2767 23.7445 6.76359 24.231C7.25048 24.7175 7.91021 24.9918 8.59878 24.994H12.0079V23.3073H8.59878C8.47876 23.3074 8.35988 23.284 8.24896 23.2382C8.13804 23.1924 8.03726 23.1252 7.95234 23.0405C7.86743 22.9557 7.80004 22.8551 7.75407 22.7444C7.70811 22.6336 7.68443 22.5148 7.68443 22.3949L7.68919 22.3973Z" fill="currentColor"/>
<path d="M24.3249 22.3973C24.3254 22.5171 24.3022 22.6358 24.2568 22.7466C24.2113 22.8574 24.1444 22.9581 24.0599 23.0431C23.9755 23.128 23.875 23.1955 23.7644 23.2417C23.6538 23.2879 23.5352 23.3117 23.4154 23.312H20.0476V24.9999H23.3965C24.0851 24.9978 24.7448 24.7235 25.2317 24.237C25.7186 23.7504 25.993 23.0912 25.9952 22.4032V19.0133H24.3072L24.3249 22.3973Z" fill="currentColor"/>
<path d="M23.4095 7H20.0464V8.68788H23.3953C23.5153 8.68756 23.6342 8.71089 23.7452 8.75653C23.8561 8.80217 23.957 8.86922 24.0421 8.95385C24.1271 9.03848 24.1946 9.13903 24.2407 9.24974C24.2868 9.36046 24.3106 9.47916 24.3108 9.59907V12.9901H25.9999V9.60145C26.0034 8.91701 25.7349 8.25916 25.2534 7.77232C24.772 7.28547 24.1169 7.0094 23.4319 7.00472L23.4095 7Z" fill="currentColor"/>
<path d="M7.68926 9.60145C7.68911 9.48153 7.71258 9.36276 7.7584 9.25192C7.80422 9.14109 7.87151 9.04038 7.95631 8.95553C8.04112 8.87068 8.14177 8.80336 8.25263 8.75743C8.3635 8.71151 8.48237 8.68788 8.60238 8.68788H12.0126V7H8.60354C7.91497 7.00218 7.25524 7.27646 6.76835 7.76297C6.28146 8.24948 6.00694 8.90869 6.00476 9.59671V12.9854H7.69402L7.68926 9.60145Z" fill="currentColor"/>
<path d="M17.8995 18.7899V13.2699C17.8995 12.8399 18.2395 12.4999 18.6695 12.4999H22.5895C22.9795 12.4999 23.2895 12.8099 23.2895 13.1999C23.2895 13.5899 22.9795 13.8999 22.5895 13.8999H19.4395V15.3899H22.1395C22.5295 15.3899 22.8395 15.6999 22.8395 16.0899C22.8395 16.4799 22.5295 16.7899 22.1395 16.7899H19.4395V18.7899C19.4395 19.2199 19.0995 19.5599 18.6695 19.5599C18.2395 19.5599 17.8995 19.2199 17.8995 18.7899Z" fill="currentColor"/>
<path d="M9.2179 18.81V13.23C9.2179 12.8 9.5579 12.46 9.98789 12.46H10.1579C10.4879 12.46 10.7079 12.63 10.8579 12.86L12.7179 15.89L14.5879 12.85C14.7479 12.59 14.9779 12.46 15.2779 12.46H15.4479C15.8779 12.46 16.2179 12.8 16.2179 13.23V18.79C16.2179 19.22 15.8779 19.56 15.4479 19.56C15.0179 19.56 14.6879 19.22 14.6879 18.79V15.3L13.3379 17.38C13.1779 17.62 12.9779 17.77 12.6979 17.77C12.4179 17.77 12.2179 17.62 12.0579 17.38L10.7279 15.33V18.81C10.7279 19.24 10.3979 19.56 9.96789 19.56C9.5379 19.56 9.2179 19.24 9.2179 18.81Z" fill="currentColor"/>
</svg>
