<svg width="1em" height="1em" viewBox="0 0 32 32" fill="none" xmlns="http://www.w3.org/2000/svg">
  <g clip-path="url(#clip0_9093_11303)">
    <path
      d="M15.1198 24.9511C15.1198 24.1077 15.1178 23.2644 15.1205 22.421C15.1222 21.855 15.4607 21.5009 15.9934 21.4985C16.5341 21.4962 16.8711 21.8364 16.8744 22.4146C16.8803 23.4688 16.8805 24.5231 16.8711 25.5771C16.8647 26.2912 16.9141 27.0067 16.8372 27.7194C16.791 28.1477 16.4113 28.5123 16.0379 28.4999C15.5194 28.4826 15.131 28.1314 15.1261 27.646C15.1169 26.7477 15.1235 25.8494 15.1235 24.951H15.1197L15.1198 24.9511Z"
      fill="currentColor" />
    <path
      d="M13.086 23.3963C13.086 23.7171 13.0908 24.038 13.0849 24.3587C13.0759 24.8502 12.6976 25.3 12.2624 25.3115C11.7855 25.3241 11.3374 25.0703 11.2957 24.4895C11.2415 23.7321 11.2219 22.9692 11.3091 22.213C11.3646 21.7315 11.7815 21.4132 12.2296 21.4479C12.6777 21.4826 13.0663 21.8912 13.0841 22.3515C13.0908 22.5254 13.0874 22.6998 13.0879 22.8739C13.0884 23.0481 13.088 23.2222 13.088 23.3964H13.0859L13.086 23.3963Z"
      fill="currentColor" />
    <path
      d="M18.9821 23.4142C18.9825 23.0754 18.9784 22.7365 18.9835 22.3977C18.9907 21.9139 19.2823 21.5436 19.68 21.503C20.2156 21.4483 20.66 21.7203 20.7084 22.2323C20.7831 23.0227 20.8081 23.8234 20.6891 24.6123C20.6199 25.0715 20.1806 25.3301 19.6842 25.2611C19.3876 25.2199 18.9488 24.8993 18.9816 24.4309C18.9822 24.4218 18.9816 24.4126 18.9816 24.4034C18.9816 24.0737 18.9816 23.744 18.982 23.4143L18.9821 23.4142Z"
      fill="currentColor" />
    <path
      d="M26.6587 18.2016C26.2395 17.8377 25.7819 17.5182 25.3827 17.1303C24.5818 16.3521 23.8158 15.5456 23.1137 14.6761C22.6763 14.1343 22.2678 13.5715 21.906 12.9868C21.0718 11.6389 20.3615 10.2231 19.773 8.75275C19.379 7.76844 18.6016 5.06311 18.4068 4.75264C17.8512 3.86695 16.9563 3.64204 16.0114 3.5C15.7804 3.50909 15.5578 3.52981 15.3403 3.58601C14.1618 3.89036 13.4555 4.65848 13.1732 5.79932C12.7399 7.55009 12.0946 9.22042 11.281 10.8305C10.7548 11.8719 10.1692 12.8788 9.49144 13.8335C9.05882 14.4429 8.5867 15.0204 8.0913 15.5797C7.43659 16.3188 6.74724 17.0244 5.97647 17.6497C5.70345 17.8712 5.42455 18.0901 5.17957 18.3399C4.3548 19.181 4.27226 20.5985 4.97711 21.5349C5.66691 22.4513 7.10879 22.7772 8.15733 22.2556C8.59325 22.0387 8.99167 21.7611 9.43615 21.5521C10.2832 21.154 11.1558 20.8376 12.0628 20.6166C12.6411 20.4757 13.2218 20.3724 13.8046 20.3004C13.8069 19.6918 13.8099 19.0833 13.8115 18.4747L13.8133 18.4744C13.8133 18.1925 13.8137 17.9105 13.8137 17.6285C13.8143 17.3536 13.8143 17.0787 13.8147 16.8037C13.8241 16.4359 13.8686 16.0776 14.0317 15.7207C14.709 14.2395 16.8544 14.0028 17.8479 15.3158C18.1536 15.7198 18.2972 16.1817 18.2866 16.6738C18.2606 17.878 18.2606 19.0822 18.2603 20.2865C19.4689 20.4154 20.6409 20.6929 21.7733 21.1329C22.3923 21.3735 23.0364 21.5893 23.5662 21.9901C24.3321 22.5694 25.5256 22.6688 26.347 22.155C27.7414 21.2828 27.9016 19.281 26.6587 18.2017V18.2016ZM15.9998 13.0022C14.8551 13.0022 13.9271 12.0885 13.9271 10.9614C13.9271 9.83437 14.8551 8.92069 15.9998 8.92069C17.1445 8.92069 18.0724 9.83437 18.0724 10.9614C18.0724 12.0885 17.1445 13.0022 15.9998 13.0022Z"
      fill="currentColor" />
  </g>
  <defs>
    <clipPath id="clip0_9093_11303">
      <rect width="23" height="25" fill="currentColor" transform="translate(4.5 3.5)" />
    </clipPath>
  </defs>
</svg>
