<svg width="32" height="32" viewBox="0 0 32 32" fill="none" xmlns="http://www.w3.org/2000/svg">
<path d="M15.9162 9.89556H15.7893L12.3891 9.87696C12.3176 9.87873 12.2484 9.85209 12.1965 9.80288C12.1447 9.75367 12.1144 9.6859 12.1124 9.61441V8.16815C12.109 8.11446 12.0903 8.06285 12.0586 8.01941C12.0268 7.97598 11.9833 7.9425 11.9332 7.92296C11.8831 7.90342 11.8285 7.89862 11.7757 7.9091C11.723 7.91959 11.6742 7.94493 11.6354 7.98215L8.582 10.843C8.55615 10.8665 8.5355 10.8951 8.52137 10.927C8.50723 10.959 8.5 10.9935 8.5 11.0284C8.5 11.0633 8.50723 11.0979 8.52137 11.1298C8.5355 11.1618 8.55615 11.1904 8.582 11.2139L11.6343 14.0736C11.673 14.1111 11.7217 14.1368 11.7745 14.1475C11.8274 14.1582 11.8822 14.1535 11.9325 14.1341C11.9828 14.1146 12.0264 14.0812 12.0583 14.0377C12.0902 13.9942 12.109 13.9425 12.1124 13.8887V11.9348C12.1137 11.8992 12.1219 11.8641 12.1367 11.8317C12.1515 11.7993 12.1727 11.7701 12.1988 11.7458C12.2249 11.7215 12.2555 11.7026 12.289 11.6902C12.3224 11.6777 12.3579 11.672 12.3935 11.6733L15.8538 11.6865H15.9162C16.6343 11.6441 17.3537 11.748 18.0305 11.9919C18.7073 12.2358 19.3274 12.6147 19.8534 13.1054C20.3794 13.5962 20.8002 14.1887 21.0904 14.847C21.3806 15.5052 21.534 16.2156 21.5414 16.9349C21.5488 17.6543 21.4101 18.3677 21.1335 19.0318C20.857 19.6959 20.4485 20.297 19.9327 20.7985C19.4169 21.3 18.8046 21.6915 18.133 21.9493C17.4614 22.2072 16.7446 22.3259 16.0257 22.2983H13.4186C13.3468 22.2962 13.2771 22.3227 13.2248 22.372C13.1725 22.4212 13.1419 22.4891 13.1396 22.5609V23.8332C13.1422 23.9048 13.173 23.9725 13.2252 24.0214C13.2775 24.0704 13.347 24.0967 13.4186 24.0947H16.0891H16.2488C17.2077 24.1146 18.1607 23.9402 19.0504 23.5819C19.94 23.2236 20.7479 22.6888 21.4253 22.0098C22.1027 21.3309 22.6356 20.5218 22.9918 19.6313C23.3481 18.7408 23.5203 17.7874 23.4981 16.8286C23.4759 15.8697 23.2597 14.9253 22.8627 14.0523C22.4657 13.1792 21.896 12.3956 21.1879 11.7487C20.4798 11.1018 19.6481 10.6049 18.7428 10.2881C17.8375 9.97133 16.8775 9.84114 15.9206 9.90541L15.9162 9.89556Z" fill="currentColor" stroke="currentColor" stroke-width="0.3"/>
</svg>
