<svg width="1em" height="1em" viewBox="0 0 32 32" fill="none" xmlns="http://www.w3.org/2000/svg">
  <path
    d="M20.9567 16.6387C21.6395 16.6387 22.193 16.0852 22.193 15.4025C22.193 14.7197 21.6395 14.1662 20.9567 14.1662C20.274 14.1662 19.7205 14.7197 19.7205 15.4025C19.7205 16.0852 20.274 16.6387 20.9567 16.6387Z"
    fill="currentColor" />
  <path
    d="M11.6106 16.6387C12.2934 16.6387 12.8469 16.0852 12.8469 15.4025C12.8469 14.7197 12.2934 14.1662 11.6106 14.1662C10.9278 14.1662 10.3743 14.7197 10.3743 15.4025C10.3743 16.0852 10.9278 16.6387 11.6106 16.6387Z"
    fill="currentColor" />
  <path
    d="M19.7885 19.0989C18.206 20.5082 14.3551 20.5082 12.7789 19.0989C12.6305 18.9135 12.3647 18.8578 12.1607 18.9938C11.3015 19.7603 13.4897 20.8915 14.0151 21.0213C16.1724 21.6518 19.0405 21.59 20.5426 19.6305C20.8578 19.1422 20.147 18.6415 19.7885 19.0989Z"
    fill="currentColor" />
  <path
    d="M28.2506 13.8942C28.1703 13.8881 28.0899 13.8942 28.0034 13.919C26.6682 9.03571 21.9333 5.41964 16.2774 5.41964C13.0137 5.41964 10.059 6.625 7.87699 8.58448C7.90789 7.69437 8.0377 6.80426 8.18605 6.04396C8.34059 6.00069 8.48894 5.94506 8.62493 5.87706C9.47795 5.46291 10.0652 4.58516 10.0652 3.57143C10.0652 2.14973 8.91545 1 7.49374 1C6.07204 1 4.93468 2.14973 4.93468 3.57143C4.93468 4.34409 5.28083 5.04258 5.82479 5.51236C4.84196 8.78846 4.48344 11.601 4.44635 13.9004C4.40309 13.9004 4.35363 13.8942 4.31037 13.9004C3.38935 13.9931 2.82067 15.8846 3.04938 18.1223C3.27809 20.3599 4.1991 22.103 5.12012 22.0103C5.25611 21.9979 5.38592 21.9423 5.50336 21.8496C7.51229 25.4966 11.5796 28.0062 16.2836 28.0062C20.9876 28.0062 25.0611 25.5027 27.0638 21.8496C27.1812 21.9361 27.311 21.9979 27.447 22.0103C28.3681 22.103 29.2953 20.3599 29.5178 18.1223C29.7403 15.8846 29.1716 13.9931 28.2568 13.9004L28.2506 13.8942ZM16.2836 24.2974C11.2087 24.2974 7.09814 21.182 7.09814 17.331C7.09814 13.4801 11.2087 10.3647 16.2836 10.3647C21.3584 10.3647 25.469 13.4801 25.469 17.331C25.469 21.182 21.3584 24.2974 16.2836 24.2974Z"
    fill="currentColor" />
</svg>
