<svg width="1em" height="1em" viewBox="0 0 32 32" fill="none" xmlns="http://www.w3.org/2000/svg">
<path d="M20.96 17.3866C21.6431 17.3866 22.1962 16.8415 22.1962 16.1705C22.1962 15.4995 21.6421 14.9545 20.96 14.9545C20.2779 14.9545 19.7239 15.4995 19.7239 16.1705C19.7239 16.8415 20.2769 17.3866 20.96 17.3866Z" fill="currentColor"/>
<path d="M11.613 17.3866C12.296 17.3866 12.8491 16.8415 12.8491 16.1705C12.8491 15.4995 12.295 14.9545 11.613 14.9545C10.9309 14.9545 10.3768 15.4995 10.3768 16.1705C10.3768 16.8415 10.9309 17.3866 11.613 17.3866Z" fill="currentColor"/>
<path d="M19.7919 19.8068C18.2088 21.1931 14.3583 21.1931 12.7812 19.8068C12.6331 19.6248 12.3671 19.5697 12.1631 19.7035C11.304 20.4581 13.4922 21.5709 14.0173 21.6988C16.1745 22.3196 19.0429 22.2586 20.546 20.3302C20.8611 19.8501 20.15 19.3572 19.7919 19.8068Z" fill="currentColor"/>
<path d="M28.2549 14.6858C28.1749 14.6799 28.0939 14.6858 28.0079 14.7104C26.6727 9.90626 21.9372 6.34864 16.2806 6.34864C13.0162 6.34864 10.0619 7.53419 7.87961 9.46254C7.91061 8.58691 8.04063 7.71128 8.18864 6.96257C8.34366 6.92026 8.49168 6.86516 8.62769 6.79826C9.48079 6.39095 10.0679 5.52712 10.0679 4.52949C10.0679 3.13045 8.91772 2 7.49656 2C6.0754 2 4.93628 3.13143 4.93628 4.52949C4.93628 5.29001 5.28231 5.97674 5.82638 6.43916C4.84326 9.66227 4.48522 12.4299 4.44822 14.6917C4.40522 14.6917 4.35521 14.6858 4.3122 14.6917C3.3911 14.7832 2.82204 16.6437 3.05106 18.8456C3.28009 21.0474 4.20119 22.7623 5.1223 22.6708C5.25831 22.659 5.38833 22.6039 5.50534 22.5124C7.51457 26.1005 11.582 28.57 16.2866 28.57C20.9911 28.57 25.0655 26.1074 27.0678 22.5124C27.1848 22.598 27.3148 22.658 27.4508 22.6708C28.3719 22.7623 29.299 21.0474 29.5221 18.8456C29.7441 16.6437 29.176 14.7832 28.2609 14.6917L28.2549 14.6858ZM16.3186 26.7017C10.6729 26.7017 6.09941 22.5852 6.09941 17.4957C6.09941 12.4062 10.6729 8.29077 16.3186 8.29077C21.9642 8.29077 26.5377 12.4072 26.5377 17.4967C26.5377 22.5862 21.9642 26.7017 16.3186 26.7017Z" fill="currentColor"/>
</svg>
