<svg width="32" height="32" viewBox="0 0 32 32" fill="none" xmlns="http://www.w3.org/2000/svg">
  <g>
    <path
      d="M16.0262 15.9966C18.9077 15.9966 21.2494 13.6549 21.2494 10.7734C21.2494 7.89194 18.9077 5.55029 16.0262 5.55029C13.1447 5.55029 10.8031 7.89194 10.8031 10.7734C10.8031 13.6549 13.1447 15.9966 16.0262 15.9966ZM16.0262 6.88237C18.1716 6.88237 19.9173 8.62809 19.9173 10.7734C19.9173 12.9188 18.1716 14.6645 16.0262 14.6645C13.8809 14.6645 12.1352 12.9188 12.1352 10.7734C12.1352 8.62809 13.8809 6.88237 16.0262 6.88237Z"
      fill="currentColor" />
    <path
      d="M15.0833 13.3255C15.2095 13.4517 15.3777 13.5218 15.553 13.5218C15.5705 13.5218 15.5881 13.5218 15.6056 13.5218C15.8019 13.5078 15.9772 13.4062 16.0928 13.2484L18.6764 9.66933C18.8902 9.37137 18.8236 8.95422 18.5256 8.74039C18.2277 8.52655 17.8105 8.59316 17.5967 8.89112L15.4689 11.8357L14.3857 10.7525C14.1263 10.4931 13.7056 10.4931 13.4427 10.7525C13.1833 11.0119 13.1833 11.4361 13.4427 11.6955L15.0798 13.3325L15.0833 13.3255Z"
      fill="currentColor" />
    <path
      d="M27.6855 18.7973C27.5347 18.7973 27.391 18.8289 27.2543 18.8745L25.1966 15.8387C25.2877 15.667 25.3403 15.4777 25.3403 15.2709C25.3403 14.5943 24.79 14.0439 24.1134 14.0439C23.4369 14.0439 22.8865 14.5943 22.8865 15.2709C22.8865 15.3655 22.9005 15.4566 22.918 15.5443C21.926 16.4487 19.6439 18.0612 15.9948 18.0612C12.3456 18.0612 10.0635 16.4452 9.07148 15.5443C9.09251 15.4566 9.10303 15.3655 9.10303 15.2709C9.10303 14.5943 8.55267 14.0439 7.87611 14.0439C7.19956 14.0439 6.6492 14.5943 6.6492 15.2709C6.6492 15.4777 6.70529 15.667 6.79293 15.8387L4.73522 18.8745C4.59851 18.8289 4.45829 18.7973 4.30405 18.7973C3.57842 18.7973 2.9895 19.3863 2.9895 20.1119C2.9895 20.8375 3.57842 21.4264 4.30405 21.4264C4.48283 21.4264 4.65109 21.3914 4.80533 21.3248C5.49591 22.2082 6.76488 23.5578 8.72794 24.6515C8.73846 24.6585 8.74897 24.6655 8.75949 24.669C8.75949 24.669 8.763 24.669 8.7665 24.669C10.5683 25.6645 12.945 26.4428 15.9913 26.4428C19.0375 26.4428 21.4142 25.6645 23.216 24.669C23.216 24.669 23.2195 24.669 23.223 24.669C23.2335 24.662 23.2441 24.655 23.2546 24.6515C25.2176 23.5578 26.4866 22.2082 27.1737 21.3248C27.3279 21.3879 27.4962 21.4264 27.675 21.4264C28.4006 21.4264 28.9895 20.8375 28.9895 20.1119C28.9895 19.3863 28.4006 18.7973 27.675 18.7973H27.6855ZM24.7689 17.7001C24.3202 18.226 23.3597 19.2215 21.912 20.0979L21.1232 18.3732C22.4448 17.7632 23.3913 17.0271 23.9557 16.4978L24.7689 17.6966V17.7001ZM19.8122 18.885L20.6675 20.7534C19.5528 21.2547 18.2277 21.6368 16.7029 21.7279V19.4494C17.8702 19.3898 18.9078 19.1794 19.8122 18.8885V18.885ZM15.3007 21.7209C13.8144 21.6228 12.4928 21.2196 11.364 20.6903L12.1913 18.8815C13.0993 19.1724 14.1334 19.3828 15.3007 19.4424V21.7174V21.7209ZM8.04788 16.5013C8.61577 17.0271 9.55874 17.7667 10.8803 18.3767L10.1231 20.0278C8.71041 19.1654 7.72187 18.2014 7.24513 17.6826L8.04438 16.5013H8.04788ZM5.62911 20.0698L6.43888 18.8745C7.05233 19.5125 8.10046 20.473 9.53069 21.3213L8.75248 23.0214C7.04883 21.9242 6.04626 20.6693 5.62911 20.0663V20.0698ZM9.97589 23.7155L10.7716 21.9768C12.0581 22.5727 13.576 23.0249 15.2972 23.1266V25.0301C13.1378 24.9354 11.3816 24.4061 9.97589 23.7155ZM16.7029 23.1301C18.4661 23.039 19.984 22.6113 21.26 22.0399L22.0206 23.7015C20.6115 24.3956 18.8552 24.9319 16.7029 25.0301V23.1301ZM23.2405 23.0074L22.5044 21.3984C23.9557 20.5466 24.9828 19.5686 25.5822 18.906L26.3674 20.0663C25.9468 20.6623 24.9372 21.9102 23.2405 23.0074Z"
      fill="currentColor" />
  </g>
</svg>
