<svg width="32" height="32" viewBox="0 0 32 32" fill="none" xmlns="http://www.w3.org/2000/svg">
  <path
    d="M25.0717 3H6.92826C4.76348 3 3 4.76348 3 6.92826V25.0717C3 27.2365 4.76348 29 6.92826 29H25.0717C27.2365 29 29 27.2365 29 25.0717V6.92826C29 4.76348 27.2365 3 25.0717 3ZM27.8696 25.0717C27.8696 26.6148 26.6148 27.8696 25.0717 27.8696H6.92826C5.38522 27.8696 4.13043 26.6148 4.13043 25.0717V6.92826C4.13043 5.38522 5.38522 4.13043 6.92826 4.13043H25.0717C26.6148 4.13043 27.8696 5.38522 27.8696 6.92826V25.0717Z"
    fill="currentColor"
  />
  <path
    d="M25.4222 18.7248C25.3007 18.7248 25.1848 18.7502 25.0746 18.7869L23.4157 16.3395C23.4892 16.2011 23.5316 16.0484 23.5316 15.8817C23.5316 15.3363 23.0879 14.8926 22.5425 14.8926C21.997 14.8926 21.5533 15.3363 21.5533 15.8817C21.5533 15.958 21.5646 16.0315 21.5788 16.1021C20.779 16.8313 18.9392 18.1313 15.9972 18.1313C13.0553 18.1313 11.2155 16.8284 10.4157 16.1021C10.4327 16.0315 10.4411 15.958 10.4411 15.8817C10.4411 15.3363 9.99745 14.8926 9.45202 14.8926C8.90658 14.8926 8.46289 15.3363 8.46289 15.8817C8.46289 16.0484 8.5081 16.2011 8.57876 16.3395L6.91984 18.7869C6.80962 18.7502 6.69658 18.7248 6.57223 18.7248C5.98723 18.7248 5.51245 19.1995 5.51245 19.7845C5.51245 20.3695 5.98723 20.8443 6.57223 20.8443C6.71636 20.8443 6.85202 20.8161 6.97636 20.7624C7.5331 21.4745 8.55615 22.5626 10.1359 23.4443C10.1444 23.45 10.1529 23.4556 10.1614 23.4584C10.1614 23.4584 10.1642 23.4584 10.167 23.4584C11.6196 24.2611 13.5357 24.8884 15.9916 24.8884C18.4475 24.8884 20.3635 24.2611 21.8161 23.4584C21.8161 23.4584 21.819 23.4584 21.8218 23.4584C21.8303 23.4556 21.8388 23.4471 21.8472 23.4443C23.4298 22.5626 24.4529 21.4745 25.0068 20.7624C25.1311 20.8132 25.2668 20.8443 25.4109 20.8443C25.9959 20.8443 26.4707 20.3695 26.4707 19.7845C26.4707 19.1995 25.9959 18.7248 25.4109 18.7248H25.4222ZM23.0681 17.843C22.7064 18.2669 21.932 19.0695 20.7648 19.7761L20.129 18.3856C21.1944 17.8939 21.9575 17.3004 22.4125 16.8737L23.0681 17.8402V17.843ZM19.072 18.7954L19.7616 20.3017C18.8629 20.7058 17.7946 21.0139 16.5653 21.0874V19.2504C17.5064 19.2024 18.3429 19.0328 19.072 18.7982V18.7954ZM15.4348 21.0845C14.2366 21.0054 13.1711 20.6804 12.2611 20.2537L12.9281 18.7954C13.6601 19.03 14.4938 19.1995 15.4348 19.2476V21.0817V21.0845ZM9.58767 16.8737C10.0455 17.2976 10.8057 17.8939 11.8711 18.3856L11.2607 19.7167C10.1218 19.0215 9.32484 18.2443 8.94049 17.8261L9.58484 16.8737H9.58767ZM7.63767 19.7506L8.29049 18.7869C8.78506 19.3013 9.63006 20.0756 10.7831 20.7624L10.1557 22.133C8.78223 21.2484 7.97397 20.2367 7.63767 19.7506ZM11.1448 22.6926L11.7864 21.2908C12.8235 21.7713 14.0472 22.1387 15.4348 22.2178V23.7524C13.694 23.6761 12.2781 23.2493 11.1448 22.6926ZM16.5653 22.2206C17.9868 22.1471 19.2105 21.8024 20.2392 21.3417L20.8581 22.6926C19.7248 23.2493 18.309 23.6761 16.5681 23.7524V22.2206H16.5653ZM21.8444 22.133L21.2453 20.8217C22.4153 20.135 23.2433 19.3465 23.7266 18.8095L24.3624 19.7478C24.0261 20.2367 23.2179 21.2456 21.8444 22.1302V22.133Z"
    fill="currentColor"
  />
  <path
    d="M16 16.7633C16.78 16.7633 17.413 16.1302 17.413 15.3502C17.413 14.7709 17.0626 14.2735 16.5652 14.0559V6.68826C16.5652 6.37739 16.3108 6.12305 16 6.12305C15.6891 6.12305 15.4347 6.37739 15.4347 6.68826V14.0559C14.9373 14.2735 14.5869 14.7709 14.5869 15.3502C14.5869 16.1302 15.22 16.7633 16 16.7633Z"
    fill="currentColor"
  />
  <path
    d="M18.066 14.1456C18.1705 14.2304 18.2977 14.2728 18.4221 14.2728C18.586 14.2728 18.7499 14.2021 18.8601 14.0636L19.8916 12.8004C20.0895 12.5573 20.0527 12.2012 19.8097 12.0062C19.5695 11.8084 19.2134 11.8452 19.0155 12.0882L17.984 13.3515C17.7862 13.5945 17.8229 13.9506 18.066 14.1456Z"
    fill="currentColor"
  />
  <path
    d="M13.1372 14.0644C13.2502 14.2001 13.4113 14.2735 13.5752 14.2735C13.6996 14.2735 13.8267 14.2311 13.9313 14.1464C14.1743 13.9485 14.2083 13.5925 14.0133 13.3522L12.9817 12.089C12.7839 11.8459 12.4278 11.812 12.1876 12.007C11.9446 12.2048 11.9106 12.5609 12.1056 12.8011L13.1372 14.0644Z"
    fill="currentColor"
  />
</svg>
