<svg width="32" height="32" viewBox="0 0 32 32" fill="none" xmlns="http://www.w3.org/2000/svg">
  <g>
    <path
      d="M26.8797 17.7263C26.7508 17.7263 26.6287 17.75 26.5099 17.7873L23.321 13.082C23.3956 12.9259 23.4397 12.7529 23.4397 12.5697C23.4397 11.9149 22.9071 11.3823 22.2523 11.3823C21.5976 11.3823 21.065 11.9149 21.065 12.5697C21.065 12.6613 21.0785 12.7529 21.0989 12.8377C20.1185 13.5399 18.1678 14.6425 15.5759 14.6425C12.9841 14.6425 11.0334 13.5399 10.053 12.8377C10.0733 12.7495 10.0869 12.6613 10.0869 12.5697C10.0869 11.9149 9.55428 11.3823 8.89953 11.3823C8.24478 11.3823 7.71216 11.9149 7.71216 12.5697C7.71216 12.7529 7.75626 12.9259 7.8309 13.082L4.64196 17.7873C4.52323 17.75 4.4011 17.7263 4.27218 17.7263C3.56994 17.7263 3 18.2962 3 18.9985C3 19.7007 3.56994 20.2706 4.27218 20.2706C4.47573 20.2706 4.6691 20.2164 4.83873 20.1315C6.15501 21.8006 9.48304 25.0099 15.5759 25.0099C21.6688 25.0099 24.9935 21.8006 26.3132 20.1315C26.4862 20.2164 26.6761 20.2706 26.8797 20.2706C27.5819 20.2706 28.1519 19.7007 28.1519 18.9985C28.1519 18.2962 27.5819 17.7263 26.8797 17.7263ZM9.00809 13.7605C9.5441 14.1709 10.4126 14.7477 11.5626 15.2124L10.4838 17.8213C10.209 17.6618 9.94102 17.4888 9.68319 17.2988C8.61456 16.5185 8.00731 15.7247 7.83768 15.4872L9.00809 13.7571V13.7605ZM12.8552 15.6467C13.4794 15.8129 14.1647 15.9316 14.8974 15.9791V19.1375C13.7644 19.0697 12.6957 18.8356 11.7017 18.4319L12.8518 15.6467H12.8552ZM14.8974 20.4979V23.6394C12.9434 23.5546 11.3319 23.1034 10.0224 22.4995L11.1861 19.6871C12.2309 20.1112 13.4658 20.4233 14.9008 20.4979H14.8974ZM16.2544 20.4979C17.6895 20.4233 18.9243 20.1112 19.9692 19.6871L21.126 22.4859C19.8132 23.0966 18.2017 23.5512 16.2544 23.6394V20.4979ZM16.2544 19.1375V15.9791C16.9906 15.9316 17.6725 15.8129 18.2967 15.6467L19.4468 18.4319C18.4528 18.839 17.3841 19.0697 16.251 19.1375H16.2544ZM19.5859 15.2158C20.7359 14.7511 21.6044 14.1743 22.1404 13.7638L23.3108 15.494C23.1378 15.7349 22.5305 16.5253 21.4653 17.3056C21.2041 17.4956 20.9361 17.6652 20.6647 17.828L19.5859 15.2192V15.2158ZM5.56811 18.8424L7.03706 16.6746C7.52897 17.2717 8.48565 18.2691 9.96138 19.0968L8.81811 21.8583C7.02349 20.7592 5.98878 19.453 5.56811 18.839V18.8424ZM22.327 21.8414L21.1905 19.0968C22.6628 18.2657 23.6229 17.2717 24.1148 16.6746L25.5804 18.839C25.1597 19.4429 24.1148 20.7456 22.327 21.8447V21.8414Z"
      fill="currentColor" />
    <path
      d="M28.3216 7.70129H26.2861V5.6658C26.2861 5.29263 25.9807 4.9873 25.6076 4.9873C25.2344 4.9873 24.9291 5.29263 24.9291 5.6658V7.70129H22.8936C22.5204 7.70129 22.2151 8.00662 22.2151 8.37979C22.2151 8.75296 22.5204 9.05829 22.8936 9.05829H24.9291V11.0938C24.9291 11.467 25.2344 11.7723 25.6076 11.7723C25.9807 11.7723 26.2861 11.467 26.2861 11.0938V9.05829H28.3216C28.6947 9.05829 29.0001 8.75296 29.0001 8.37979C29.0001 8.00662 28.6947 7.70129 28.3216 7.70129Z"
      fill="currentColor" />
  </g>
</svg>
