<svg width="32" height="32" viewBox="0 0 32 32" fill="none" xmlns="http://www.w3.org/2000/svg">
<path d="M23.372 9.26965L18.9246 9.25948V8.09597C18.9246 7.89828 18.8856 7.70253 18.81 7.5199C18.7343 7.33727 18.6233 7.17136 18.4835 7.03162C18.3437 6.89189 18.1777 6.78107 17.995 6.70552C17.8123 6.62997 17.6165 6.59116 17.4188 6.59131H14.4818C14.0829 6.59191 13.7006 6.75062 13.4185 7.03267C13.1365 7.31472 12.9777 7.69709 12.9771 8.09597V8.54218C12.9771 8.7681 12.9715 9.05389 12.9647 9.25271L8.63038 9.26739C8.4633 9.26769 8.30313 9.3342 8.18498 9.45234C8.06684 9.57049 8.0003 9.73064 8 9.89772V10.1236C8.0003 10.2907 8.06684 10.4509 8.18498 10.569C8.30313 10.6872 8.4633 10.7537 8.63038 10.754H23.3697C23.5369 10.754 23.6972 10.6876 23.8154 10.5694C23.9336 10.4512 24 10.2908 24 10.1236V9.89772C23.9991 9.73142 23.9327 9.57219 23.8151 9.4546C23.6975 9.33701 23.5383 9.27054 23.372 9.26965ZM17.4652 8.24396V9.07536C17.4653 9.09845 17.4609 9.12133 17.4521 9.1427C17.4434 9.16408 17.4305 9.18352 17.4143 9.19989C17.398 9.21627 17.3786 9.22927 17.3573 9.23814C17.336 9.24701 17.3132 9.25159 17.2901 9.25159H14.7044C14.6812 9.25159 14.6583 9.24702 14.6369 9.23816C14.6155 9.2293 14.5961 9.21633 14.5797 9.19996C14.5634 9.1836 14.5504 9.16417 14.5415 9.14279C14.5327 9.12141 14.5282 9.0985 14.5282 9.07536V8.24622C14.5282 8.19948 14.5467 8.15465 14.5797 8.1216C14.6128 8.08855 14.6576 8.06999 14.7044 8.06999H17.2901C17.3132 8.06999 17.336 8.07455 17.3573 8.08342C17.3786 8.09229 17.398 8.10529 17.4143 8.12167C17.4305 8.13805 17.4434 8.15749 17.4521 8.17886C17.4609 8.20023 17.4653 8.22313 17.4652 8.24622V8.24396Z" fill="currentColor"/>
<path d="M21.8673 11.2046L21.3115 11.156C21.2048 11.1466 21.0987 11.179 21.0155 11.2464C20.9534 11.2964 20.9081 11.3642 20.8856 11.4407L19.8294 23.2385C19.782 23.984 19.4386 23.984 19.3256 23.984L12.6405 24.0044C12.262 23.975 12.2214 23.3458 12.2203 23.3266L11.1381 11.5582C11.1296 11.4517 11.0792 11.353 10.998 11.2837C10.9578 11.2474 10.9102 11.2202 10.8586 11.2038C10.807 11.1875 10.7524 11.1823 10.6986 11.1888L10.1418 11.2385C10.0889 11.2422 10.0373 11.2565 9.99001 11.2803C9.9427 11.3042 9.90056 11.3372 9.86612 11.3774C9.8313 11.4186 9.80498 11.4662 9.78869 11.5176C9.7724 11.569 9.76649 11.6231 9.77125 11.6768L10.8579 23.9694C10.8491 24.3393 10.9864 24.6979 11.2402 24.9673C11.4939 25.2367 11.8436 25.3952 12.2135 25.4085L19.782 25.3757C20.0694 25.3904 20.3519 25.296 20.5727 25.1114C20.7576 24.9335 20.9046 24.7199 21.0047 24.4837C21.1049 24.2474 21.1563 23.9933 21.1556 23.7367L22.2254 11.6497C22.2356 11.5434 22.2038 11.4374 22.1369 11.3542C22.07 11.2711 21.9732 11.2174 21.8673 11.2046Z" fill="currentColor"/>
<path d="M14.0266 22.4297C14.0495 22.4313 14.0726 22.4313 14.0955 22.4297C14.1747 22.421 14.2513 22.3967 14.3211 22.3583C14.3908 22.3199 14.4523 22.2681 14.5019 22.2058C14.5516 22.1436 14.5884 22.0722 14.6104 21.9956C14.6323 21.9191 14.639 21.839 14.6299 21.7599L13.6403 13.055C13.6351 12.9731 13.6133 12.8933 13.5762 12.8201C13.5392 12.747 13.4877 12.6821 13.4248 12.6295C13.362 12.5768 13.2891 12.5375 13.2106 12.5139C13.1321 12.4902 13.0497 12.4828 12.9682 12.492C12.8867 12.5012 12.808 12.5268 12.7367 12.5673C12.6655 12.6079 12.6032 12.6624 12.5536 12.7277C12.5041 12.7931 12.4684 12.8677 12.4485 12.9473C12.4287 13.0268 12.4253 13.1096 12.4384 13.1905L13.4268 21.8954C13.4442 22.0424 13.5148 22.1779 13.6253 22.2763C13.7358 22.3748 13.8786 22.4294 14.0266 22.4297Z" fill="currentColor"/>
<path d="M16.6835 21.8243V13.1194C16.6835 12.9588 16.6197 12.8048 16.5061 12.6912C16.3926 12.5777 16.2386 12.5139 16.078 12.5139C15.9174 12.5139 15.7634 12.5777 15.6499 12.6912C15.5363 12.8048 15.4725 12.9588 15.4725 13.1194V21.8243C15.4725 21.9849 15.5363 22.1389 15.6499 22.2524C15.7634 22.366 15.9174 22.4298 16.078 22.4298C16.2386 22.4298 16.3926 22.366 16.5061 22.2524C16.6197 22.1389 16.6835 21.9849 16.6835 21.8243Z" fill="currentColor"/>
<path d="M18.1248 22.4299C18.2751 22.4297 18.42 22.3737 18.5313 22.2726C18.6426 22.1716 18.7123 22.0327 18.7269 21.8831L19.5651 13.1782C19.573 13.0986 19.5652 13.0182 19.542 12.9416C19.5188 12.8651 19.4807 12.7938 19.4299 12.732C19.3791 12.6702 19.3165 12.619 19.2459 12.5814C19.1753 12.5438 19.098 12.5205 19.0183 12.5129C18.8586 12.4995 18.7 12.5491 18.5764 12.6511C18.4527 12.753 18.3738 12.8992 18.3564 13.0585L17.5182 21.7634C17.5028 21.9235 17.5515 22.0832 17.6539 22.2073C17.7562 22.3315 17.9036 22.4099 18.0638 22.4253L18.1248 22.4299Z" fill="currentColor"/>
</svg>
