<svg width="32" height="32" viewBox="0 0 32 32" fill="none" xmlns="http://www.w3.org/2000/svg">
<path d="M22.1172 23.9049C21.8793 23.9049 21.6443 23.8042 21.4793 23.6111C21.1799 23.2586 21.2219 22.727 21.5744 22.4277C23.4964 20.791 24.5987 18.4046 24.5987 15.8839C24.5987 13.3632 23.5496 11.0998 21.7227 9.46878C21.3758 9.16104 21.3478 8.62948 21.6555 8.28256C21.9633 7.93565 22.4948 7.90767 22.8418 8.21542C25.0268 10.1654 26.2773 12.9603 26.2773 15.8839C26.2773 18.8075 24.9596 21.7507 22.6627 23.7062C22.506 23.8405 22.3102 23.9077 22.12 23.9077L22.1172 23.9049Z" fill="currentColor"/>
<path d="M9.99754 24C9.81009 24 9.61985 23.9384 9.46318 23.807C7.08794 21.8486 5.72546 18.9586 5.72546 15.8811C5.72546 12.8036 6.97883 10.1626 9.16103 8.21262C9.50794 7.90487 10.0367 7.93565 10.3473 8.27976C10.655 8.62668 10.627 9.15544 10.2801 9.46599C8.45321 11.097 7.40408 13.4359 7.40408 15.8811C7.40408 18.455 8.54554 20.8722 10.5319 22.5144C10.89 22.8082 10.9404 23.3397 10.6438 23.695C10.4787 23.8965 10.2381 24 9.99474 24H9.99754Z" fill="currentColor"/>
<path d="M19.2467 20.5841C19.0089 20.5841 18.7711 20.4833 18.6033 20.2847C18.3039 19.9294 18.3515 19.4006 18.704 19.1013C19.658 18.2983 20.2063 17.1233 20.2063 15.8783C20.2063 14.7005 19.7083 13.5702 18.8411 12.7757C18.4997 12.4624 18.4774 11.9308 18.7879 11.5895C19.1012 11.2482 19.6328 11.2258 19.9741 11.5363C21.1883 12.6498 21.8849 14.2305 21.8849 15.8783C21.8849 17.6213 21.1184 19.2635 19.7867 20.3854C19.63 20.5169 19.437 20.5813 19.2467 20.5813V20.5841Z" fill="currentColor"/>
<path d="M12.7533 20.5841C12.563 20.5841 12.37 20.5197 12.2133 20.3882C10.8788 19.2664 10.1151 17.6241 10.1151 15.8812C10.1151 14.2361 10.8117 12.6526 12.0259 11.5391C12.3672 11.2258 12.8988 11.2482 13.2121 11.5923C13.5254 11.9336 13.5031 12.4652 13.1589 12.7785C12.2917 13.5731 11.7937 14.7061 11.7937 15.8812C11.7937 17.1261 12.342 18.3012 13.296 19.1041C13.6513 19.4035 13.6961 19.9322 13.3967 20.2875C13.2317 20.4862 12.9939 20.5869 12.7533 20.5869V20.5841Z" fill="currentColor"/>
<path d="M15.9986 17.417C16.816 17.417 17.4786 16.7544 17.4786 15.937C17.4786 15.1196 16.816 14.457 15.9986 14.457C15.1812 14.457 14.5186 15.1196 14.5186 15.937C14.5186 16.7544 15.1812 17.417 15.9986 17.417Z" fill="currentColor"/>
</svg>
