<svg width="32" height="32" viewBox="0 0 32 32" fill="none" xmlns="http://www.w3.org/2000/svg">
<path d="M16.0002 7.39253H16C14.2974 7.39278 12.6331 7.89787 11.2176 8.84396C9.80207 9.79005 8.69891 11.1346 8.04753 12.7077C7.39615 14.2807 7.2258 16.0116 7.55811 17.6815C7.89042 19.3513 8.71047 20.8851 9.91447 22.089C11.1185 23.2928 12.6523 24.1126 14.3222 24.4446C15.9921 24.7767 17.723 24.6061 19.296 23.9545C20.869 23.3029 22.2134 22.1995 23.1592 20.7838C24.1051 19.3682 24.61 17.7038 24.61 16.0012V16.0011C24.606 13.7189 23.6976 11.5314 22.0838 9.91785C20.47 8.30426 18.2823 7.39617 16.0002 7.39253ZM15.9999 26.4C13.943 26.4 11.9324 25.79 10.2221 24.6473C8.51186 23.5045 7.17881 21.8803 6.39166 19.9799C5.60451 18.0796 5.39855 15.9885 5.79984 13.9711C6.20112 11.9537 7.19166 10.1006 8.64613 8.64609C10.1006 7.19162 11.9537 6.20112 13.9711 5.79984C15.9885 5.39855 18.0796 5.60451 19.98 6.39166C21.8803 7.17881 23.5045 8.51181 24.6473 10.2221C25.79 11.9323 26.4 13.943 26.4 15.9999C26.3971 18.7573 25.3005 21.4009 23.3507 23.3507C21.4009 25.3004 18.7573 26.3971 15.9999 26.4Z" fill="currentColor" stroke="currentColor" stroke-width="0.2"/>
</svg>
