<svg width="32" height="32" viewBox="0 0 32 32" fill="none" xmlns="http://www.w3.org/2000/svg">
<path d="M24.0217 8H7.97798C7.46538 8 6.97371 8.20363 6.61125 8.5661C6.24879 8.92856 6.04532 9.42016 6.04532 9.93276V22.0672C6.04532 22.5798 6.24879 23.0714 6.61125 23.4339C6.97371 23.7964 7.46538 24 7.97798 24H24.0217C24.5343 24 25.026 23.7964 25.3884 23.4339C25.7509 23.0714 25.9547 22.5798 25.9547 22.0672V9.93276C25.9547 9.42016 25.7509 8.92856 25.3884 8.5661C25.026 8.20363 24.5343 8 24.0217 8ZM23.9179 19.7692C22.9171 18.7684 22.1141 17.9228 21.2684 17.1159C21.102 16.9316 20.8988 16.7843 20.6719 16.6835C20.445 16.5827 20.1994 16.5306 19.9511 16.5306C19.7029 16.5306 19.4573 16.5827 19.2304 16.6835C19.0035 16.7843 18.8003 16.9316 18.6339 17.1159C18.5114 17.2111 18.4014 17.3212 18.3062 17.4436C17.7295 18.3193 17.2979 18.0453 16.7675 17.3486C15.9243 16.2402 15.0073 15.1881 14.1003 14.1298C12.997 12.8388 11.9936 12.8438 10.8602 14.1373C9.76569 15.3568 8.8313 16.7108 8.07938 18.1667C8.07938 15.7285 8.07938 12.7412 8.07938 10.5532C8.07938 10.0416 8.39325 9.92776 8.80107 9.92776C13.5748 9.92776 18.3478 9.92776 23.1198 9.92776C23.6402 9.92776 23.9255 10.1417 23.9243 10.7046C23.9155 13.6294 23.9179 16.5679 23.9179 19.7692Z" fill="currentColor"/>
<path d="M20.9508 10.876C20.4202 10.8921 19.9154 11.109 19.5386 11.4828C19.1617 11.8567 18.9408 12.3597 18.9204 12.8901C18.9182 13.4263 19.1292 13.9413 19.5068 14.322C19.8844 14.7026 20.3975 14.9177 20.9337 14.9198C21.4698 14.922 21.9851 14.7111 22.3658 14.3335C22.7464 13.9559 22.9613 13.4425 22.9635 12.9064C22.9468 12.3762 22.7301 11.872 22.3566 11.4952C21.9831 11.1185 21.4808 10.8973 20.9508 10.876Z" fill="currentColor"/>
</svg>
