<svg width="32" height="32" viewBox="0 0 32 32" fill="none" xmlns="http://www.w3.org/2000/svg">
<path d="M15.9988 7.44149C15.9513 7.4406 15.905 7.45632 15.8679 7.48596L7.59041 13.8089C7.55565 13.8359 7.52991 13.8728 7.51667 13.9147C7.50342 13.9567 7.5033 14.0017 7.51629 14.0437L10.7197 24.4115C10.7333 24.4556 10.7606 24.4942 10.7978 24.5216C10.8349 24.5489 10.88 24.5636 10.9261 24.5635H21.0703C21.1165 24.5636 21.1614 24.5489 21.1986 24.5216C21.2357 24.4942 21.2631 24.4556 21.2766 24.4115L24.4801 14.0437C24.493 14.0017 24.4929 13.9567 24.4797 13.9147C24.4664 13.8728 24.4407 13.8359 24.4059 13.8089L16.1285 7.48596C16.0918 7.4565 16.0459 7.44078 15.9988 7.44149ZM15.9988 5.50061C16.4717 5.50012 16.9315 5.65558 17.3071 5.9429L25.5846 12.2646C25.9347 12.5322 26.1943 12.9007 26.3286 13.3204C26.4629 13.7401 26.4654 14.1908 26.3357 14.612L23.1322 24.9798C22.996 25.4199 22.7226 25.8049 22.3517 26.0784C21.9809 26.3518 21.5323 26.4994 21.0715 26.4994H10.9273C10.4668 26.4991 10.0184 26.3515 9.64784 26.078C9.27727 25.8046 9.00395 25.4197 8.86785 24.9798L5.66434 14.612C5.53464 14.1908 5.53712 13.7401 5.67142 13.3204C5.80573 12.9007 6.06543 12.5322 6.41552 12.2646L14.6929 5.9429C15.0678 5.65601 15.5267 5.50057 15.9988 5.50061Z" fill="currentColor" stroke="currentColor" stroke-width="0.2"/>
</svg>
