<svg width="1em" height="1em" viewBox="0 0 32 32" fill="none" xmlns="http://www.w3.org/2000/svg">
<path d="M21.0574 13.4481H18.4934C17.7734 12.4321 17.1384 11.9321 16.5544 11.9201C15.7744 11.9041 13.7184 11.9121 12.3134 11.9201H11.1384C10.6004 11.9201 10.0284 12.4191 9.39238 13.4481H6.59438C6.23738 13.4481 5.89538 13.5901 5.64338 13.8431C5.39138 14.0951 5.24938 14.4371 5.24838 14.7941V23.1941C5.24838 23.5511 5.39138 23.8931 5.64338 24.1451C5.89538 24.3971 6.23738 24.5391 6.59438 24.5401H21.0584C21.4154 24.5401 21.7574 24.3971 22.0094 24.1441C22.2614 23.8911 22.4034 23.5501 22.4044 23.1931V14.7931C22.4044 14.4361 22.2614 14.0951 22.0084 13.8421C21.7564 13.5901 21.4144 13.4481 21.0574 13.4471V13.4481ZM17.2894 18.6671C17.2894 19.3521 17.0864 20.0221 16.7054 20.5911C16.3244 21.1611 15.7844 21.6041 15.1514 21.8671C14.5184 22.1291 13.8224 22.1981 13.1504 22.0641C12.4784 21.9301 11.8614 21.6011 11.3774 21.1161C10.8934 20.6321 10.5634 20.0151 10.4294 19.3431C10.2954 18.6711 10.3644 17.9751 10.6264 17.3421C10.8884 16.7091 11.3324 16.1681 11.9014 15.7881C12.4714 15.4071 13.1404 15.2041 13.8254 15.2041C14.7434 15.2051 15.6234 15.5711 16.2734 16.2201C16.9224 16.8691 17.2874 17.7491 17.2894 18.6671ZM19.9294 16.5231C19.7764 16.5231 19.6274 16.4781 19.5004 16.3931C19.3734 16.3081 19.2744 16.1881 19.2164 16.0471C19.1584 15.9061 19.1424 15.7511 19.1724 15.6011C19.2024 15.4511 19.2754 15.3141 19.3834 15.2061C19.4914 15.0981 19.6284 15.0251 19.7784 14.9951C19.9284 14.9651 20.0834 14.9811 20.2244 15.0391C20.3654 15.0971 20.4854 15.1961 20.5704 15.3231C20.6554 15.4501 20.7004 15.5991 20.7004 15.7521C20.7004 15.9561 20.6194 16.1521 20.4754 16.2961C20.3314 16.4411 20.1364 16.5221 19.9324 16.5231H19.9294Z" fill="currentColor"/>
<path d="M13.8264 21.1761C15.2124 21.1761 16.3354 20.0531 16.3354 18.6671C16.3354 17.2811 15.2124 16.1581 13.8264 16.1581C12.4404 16.1581 11.3174 17.2811 11.3174 18.6671C11.3174 20.0531 12.4404 21.1761 13.8264 21.1761Z" fill="currentColor"/>
<path d="M8.66639 13.2241H6.84439C6.75539 13.2241 6.66939 13.1891 6.60639 13.1261C6.54339 13.0631 6.50839 12.9781 6.50839 12.8881C6.50839 12.7981 6.54339 12.7131 6.60639 12.6501C6.66939 12.5871 6.75439 12.5521 6.84439 12.5521H8.66639C8.75539 12.5521 8.84139 12.5871 8.90439 12.6501C8.96739 12.7131 9.00339 12.7981 9.00339 12.8881C9.00339 12.9781 8.96739 13.0631 8.90439 13.1261C8.84139 13.1891 8.75539 13.2241 8.66639 13.2241Z" fill="currentColor"/>
<path d="M19.4184 9.11022H18.8304V8.52322C18.8314 8.49122 18.8264 8.46022 18.8154 8.43022C18.8044 8.40022 18.7874 8.37322 18.7654 8.35022C18.7434 8.32722 18.7174 8.30922 18.6884 8.29622C18.6594 8.28422 18.6284 8.27722 18.5964 8.27722C18.5644 8.27722 18.5334 8.28322 18.5044 8.29622C18.4754 8.30822 18.4494 8.32722 18.4274 8.35022C18.4054 8.37322 18.3884 8.40022 18.3774 8.43022C18.3664 8.46022 18.3614 8.49122 18.3624 8.52322V9.11022H17.7744C17.7124 9.11022 17.6524 9.13522 17.6084 9.17922C17.5644 9.22322 17.5394 9.28322 17.5394 9.34522C17.5394 9.40722 17.5644 9.46722 17.6084 9.51122C17.6524 9.55522 17.7124 9.58022 17.7744 9.58022H18.3624V10.1682C18.3654 10.2282 18.3904 10.2852 18.4344 10.3272C18.4784 10.3692 18.5364 10.3922 18.5964 10.3922C18.6564 10.3922 18.7154 10.3692 18.7584 10.3272C18.8024 10.2852 18.8274 10.2282 18.8304 10.1682V9.58022H19.4184C19.4804 9.58022 19.5404 9.55522 19.5844 9.51122C19.6284 9.46722 19.6534 9.40722 19.6534 9.34522C19.6534 9.28322 19.6284 9.22322 19.5844 9.17922C19.5404 9.13522 19.4804 9.11022 19.4184 9.11022Z" fill="currentColor"/>
<path d="M24.0994 9.81516L26.0564 10.3872C26.3234 10.4652 26.3234 10.8432 26.0564 10.9212L24.0994 11.4932C23.9524 11.5362 23.8374 11.6512 23.7944 11.7982L23.2224 13.7552C23.1444 14.0222 22.7664 14.0222 22.6884 13.7552L22.1164 11.7982C22.0734 11.6512 21.9584 11.5362 21.8114 11.4932L19.8544 10.9212C19.5874 10.8432 19.5874 10.4652 19.8544 10.3872L21.8114 9.81516C21.9584 9.77216 22.0734 9.65716 22.1164 9.51016L22.6884 7.55316C22.7664 7.28616 23.1444 7.28616 23.2224 7.55316L23.7944 9.51016C23.8374 9.65716 23.9524 9.77216 24.0994 9.81516Z" fill="currentColor"/>
</svg>
