<svg width="32" height="32" viewBox="0 0 32 32" fill="none" xmlns="http://www.w3.org/2000/svg">
<path d="M25.1536 12.4997H22.5892C21.8692 11.4833 21.2344 10.9841 20.65 10.9721C19.87 10.9565 17.8143 10.9637 16.4091 10.9721H15.2344C14.6968 10.9721 14.1244 11.4713 13.4884 12.4997H10.6912C10.3345 12.5003 9.99255 12.6422 9.74022 12.8943C9.48789 13.1464 9.34574 13.4882 9.34479 13.8449V22.2449C9.34542 22.6018 9.48749 22.9439 9.73986 23.1962C9.99222 23.4486 10.3343 23.5906 10.6912 23.5913H25.1548C25.5115 23.5903 25.8533 23.4481 26.1054 23.1958C26.3575 22.9435 26.4994 22.6016 26.5 22.2449V13.8449C26.4991 13.4882 26.3568 13.1464 26.1045 12.8943C25.8522 12.6422 25.5103 12.5003 25.1536 12.4997ZM21.3856 17.7185C21.3856 18.4034 21.1825 19.073 20.8019 19.6425C20.4214 20.2121 19.8805 20.6559 19.2477 20.9181C18.6149 21.1802 17.9185 21.2488 17.2467 21.1151C16.5749 20.9815 15.9579 20.6517 15.4735 20.1673C14.9892 19.683 14.6593 19.0659 14.5257 18.3941C14.3921 17.7223 14.4607 17.026 14.7228 16.3932C14.9849 15.7604 15.4288 15.2195 15.9983 14.8389C16.5678 14.4584 17.2374 14.2553 17.9224 14.2553C18.8405 14.2565 19.7207 14.6218 20.3699 15.271C21.0191 15.9202 21.3843 16.8004 21.3856 17.7185ZM24.0256 15.5741C23.873 15.5741 23.7238 15.5288 23.5969 15.4441C23.47 15.3593 23.3711 15.2388 23.3127 15.0978C23.2543 14.9568 23.239 14.8016 23.2688 14.652C23.2986 14.5023 23.372 14.3648 23.4799 14.2569C23.5879 14.149 23.7253 14.0755 23.875 14.0457C24.0247 14.0159 24.1798 14.0312 24.3208 14.0896C24.4618 14.148 24.5823 14.2469 24.6671 14.3738C24.7519 14.5007 24.7972 14.6499 24.7972 14.8025C24.7972 15.0065 24.7163 15.2022 24.5724 15.3468C24.4285 15.4914 24.2332 15.5731 24.0292 15.5741H24.0256Z" fill="currentColor"/>
<path d="M17.9224 20.2278C19.3082 20.2278 20.4316 19.1043 20.4316 17.7186C20.4316 16.3328 19.3082 15.2094 17.9224 15.2094C16.5366 15.2094 15.4132 16.3328 15.4132 17.7186C15.4132 19.1043 16.5366 20.2278 17.9224 20.2278Z" fill="currentColor"/>
<path d="M12.7624 12.2753H10.9408C10.8517 12.2753 10.7662 12.2399 10.7032 12.1768C10.6402 12.1138 10.6048 12.0284 10.6048 11.9393C10.6048 11.8502 10.6402 11.7647 10.7032 11.7017C10.7662 11.6387 10.8517 11.6033 10.9408 11.6033H12.7624C12.8515 11.6033 12.937 11.6387 13 11.7017C13.063 11.7647 13.0984 11.8502 13.0984 11.9393C13.0984 12.0284 13.063 12.1138 13 12.1768C12.937 12.2399 12.8515 12.2753 12.7624 12.2753Z" fill="currentColor"/>
<path d="M10.5088 8.62729H8.94158V7.06128C8.94527 6.97695 8.9319 6.89276 8.90217 6.81376C8.87245 6.73476 8.82702 6.66259 8.76865 6.60161C8.71029 6.54063 8.64017 6.49211 8.56255 6.45895C8.48492 6.4258 8.40138 6.40869 8.31697 6.40869C8.23256 6.40869 8.14908 6.4258 8.07146 6.45895C7.99384 6.49211 7.92372 6.54063 7.86536 6.60161C7.80699 6.66259 7.76156 6.73476 7.73184 6.81376C7.70211 6.89276 7.68866 6.97695 7.69236 7.06128V8.62729H6.1252C5.95938 8.62729 5.80035 8.69315 5.68311 8.81039C5.56586 8.92764 5.5 9.08667 5.5 9.25248C5.5 9.4183 5.56586 9.57733 5.68311 9.69457C5.80035 9.81182 5.95938 9.87768 6.1252 9.87768H7.69236V11.4449C7.69941 11.6058 7.76833 11.7578 7.88469 11.8692C8.00106 11.9805 8.1559 12.0427 8.31697 12.0427C8.47804 12.0427 8.63295 11.9805 8.74932 11.8692C8.86568 11.7578 8.93452 11.6058 8.94158 11.4449V9.87768H10.5088C10.6746 9.87768 10.8337 9.81182 10.9509 9.69457C11.0682 9.57733 11.134 9.4183 11.134 9.25248C11.134 9.08667 11.0682 8.92764 10.9509 8.81039C10.8337 8.69315 10.6746 8.62729 10.5088 8.62729Z" fill="currentColor"/>
</svg>
