<svg width="32" height="32" viewBox="0 0 32 32" fill="none" xmlns="http://www.w3.org/2000/svg">
<path fill-rule="evenodd" clip-rule="evenodd" d="M7.89177 8.24789H9.45901C9.62482 8.24789 9.78385 8.31375 9.9011 8.431C10.0183 8.54825 10.0842 8.70728 10.0842 8.87309C10.0842 9.0389 10.0183 9.19793 9.9011 9.31518C9.78385 9.43243 9.62482 9.49829 9.45901 9.49829H7.89177V11.0655C7.88472 11.2264 7.81587 11.3784 7.69951 11.4898C7.58315 11.6011 7.42824 11.6633 7.26716 11.6633C7.10609 11.6633 6.95125 11.6011 6.83489 11.4898C6.71852 11.3784 6.64961 11.2264 6.64255 11.0655V9.49829H5.07539C4.90958 9.49829 4.75055 9.43243 4.6333 9.31518C4.51605 9.19793 4.4502 9.0389 4.4502 8.87309C4.4502 8.70728 4.51605 8.54825 4.6333 8.431C4.75055 8.31375 4.90958 8.24789 5.07539 8.24789H6.64255V6.68188C6.63886 6.59756 6.65231 6.51336 6.68203 6.43436C6.71175 6.35536 6.75719 6.2832 6.81555 6.22222C6.87392 6.16124 6.94403 6.11271 7.02166 6.07956C7.09928 6.04641 7.18276 6.0293 7.26716 6.0293C7.35157 6.0293 7.43512 6.04641 7.51274 6.07956C7.59037 6.11271 7.66048 6.16124 7.71885 6.22222C7.77721 6.2832 7.82265 6.35536 7.85237 6.43436C7.88209 6.51336 7.89547 6.59756 7.89177 6.68188V8.24789ZM20.7173 10.9897H23.0018C23.3195 10.9902 23.6241 11.1166 23.8489 11.3412C24.0737 11.5658 24.2004 11.8703 24.2012 12.188V19.6712C24.2007 19.9889 24.0743 20.2935 23.8497 20.5183C23.6251 20.7431 23.3206 20.8698 23.0028 20.8706H9.89965C9.58171 20.87 9.27696 20.7435 9.05214 20.5187C8.82733 20.2939 8.70076 19.9891 8.7002 19.6712V12.188C8.70104 11.8703 8.82768 11.5658 9.05247 11.3412C9.27725 11.1166 9.58189 10.9902 9.89965 10.9897H12.3915C12.9581 10.0735 13.468 9.6288 13.947 9.6288H15.1026C16.3545 9.62131 18.2949 9.6149 18.9898 9.6288C19.5104 9.63949 20.0758 10.0842 20.7173 10.9897ZM19.0159 17.3529C19.3549 16.8455 19.5359 16.249 19.5359 15.6388C19.5348 14.8209 19.2094 14.0369 18.631 13.4585C18.0527 12.8802 17.2686 12.5548 16.4507 12.5536C15.8405 12.5536 15.244 12.7346 14.7367 13.0736C14.2293 13.4126 13.8339 13.8944 13.6004 14.4582C13.3669 15.0219 13.3057 15.6422 13.4248 16.2407C13.5438 16.8392 13.8377 17.3889 14.2692 17.8204C14.7006 18.2519 15.2503 18.5457 15.8488 18.6647C16.4473 18.7838 17.0676 18.7227 17.6314 18.4892C18.1951 18.2557 18.6769 17.8602 19.0159 17.3529ZM21.615 13.6126C21.728 13.6882 21.8609 13.7285 21.9969 13.7285H22.0001C22.1818 13.7276 22.3558 13.6548 22.484 13.526C22.6123 13.3972 22.6843 13.2229 22.6843 13.0411C22.6843 12.9052 22.6439 12.7723 22.5684 12.6592C22.4929 12.5462 22.3855 12.4581 22.2599 12.4061C22.1343 12.354 21.9961 12.3404 21.8627 12.3669C21.7294 12.3935 21.6069 12.4589 21.5108 12.555C21.4147 12.6512 21.3492 12.7737 21.3227 12.907C21.2962 13.0403 21.3098 13.1786 21.3618 13.3042C21.4139 13.4298 21.502 13.5371 21.615 13.6126ZM16.4508 17.8742C17.6853 17.8742 18.6861 16.8734 18.6861 15.6389C18.6861 14.4044 17.6853 13.4036 16.4508 13.4036C15.2162 13.4036 14.2155 14.4044 14.2155 15.6389C14.2155 16.8734 15.2162 17.8742 16.4508 17.8742ZM8.55023 23.7257V24.6206C8.55023 24.952 8.2816 25.2206 7.95023 25.2206C7.61886 25.2206 7.35023 24.952 7.35023 24.6206V22.1206C7.35023 21.7892 7.61886 21.5206 7.95023 21.5206H10.4502C10.7816 21.5206 11.0502 21.7892 11.0502 22.1206C11.0502 22.452 10.7816 22.7206 10.4502 22.7206H9.21099C10.9578 24.0585 13.6623 24.7707 16.4503 24.7707C19.2383 24.7707 21.9428 24.0585 23.6896 22.7206H22.4502C22.1188 22.7206 21.8502 22.452 21.8502 22.1206C21.8502 21.7892 22.1188 21.5206 22.4502 21.5206H24.9502C25.2816 21.5206 25.5502 21.7892 25.5502 22.1206V24.6206C25.5502 24.952 25.2816 25.2206 24.9502 25.2206C24.6188 25.2206 24.3502 24.952 24.3502 24.6206V23.7258C22.3158 25.2501 19.3424 25.9707 16.4503 25.9707C13.5582 25.9707 10.5847 25.2501 8.55023 23.7257Z" fill="currentColor"/>
</svg>
