<svg width="32" height="32" viewBox="0 0 32 32" fill="none" xmlns="http://www.w3.org/2000/svg">
<path d="M10.45 21.5205C10.7812 21.5205 11.0493 21.789 11.0496 22.1201C11.0496 22.4515 10.7813 22.7207 10.45 22.7207H9.15015C10.8237 24.069 13.4102 24.7871 16.0769 24.7871C18.7439 24.7871 21.331 24.0692 23.0046 22.7207H22.45C22.1186 22.7207 21.8503 22.4515 21.8503 22.1201C21.8506 21.789 22.1187 21.5205 22.45 21.5205H24.95C25.2812 21.5205 25.5493 21.789 25.5496 22.1201V24.6201C25.5496 24.9515 25.2813 25.2207 24.95 25.2207C24.6186 25.2207 24.3503 24.9515 24.3503 24.6201V23.0938C22.4303 25.0707 19.2044 26 16.0769 26C13.3253 26 10.4973 25.2809 8.54956 23.7617V24.6201C8.54956 24.9515 8.28132 25.2207 7.94995 25.2207C7.6186 25.2207 7.35034 24.9515 7.35034 24.6201V22.1201C7.35059 21.789 7.61875 21.5205 7.94995 21.5205H10.45ZM18.99 9.62891C19.5104 9.63986 20.0755 10.0844 20.7166 10.9893H23.0017C23.3192 10.9899 23.6237 11.1165 23.8484 11.3408C24.0732 11.5654 24.2001 11.8707 24.2009 12.1885V19.6709C24.2004 19.9887 24.0739 20.2938 23.8494 20.5186C23.6248 20.7432 23.3203 20.8702 23.0027 20.8711H9.89917C9.58132 20.8705 9.27628 20.7433 9.05151 20.5186C8.82685 20.2938 8.70052 19.9887 8.69995 19.6709V12.1885C8.7008 11.8707 8.8277 11.5654 9.05249 11.3408C9.27719 11.1165 9.58165 10.9899 9.89917 10.9893H12.3914C12.9579 10.0733 13.4682 9.62891 13.947 9.62891H15.1023C16.3541 9.62142 18.2951 9.61501 18.99 9.62891ZM16.4509 12.5537C15.8407 12.5537 15.2434 12.7342 14.7361 13.0732C14.2288 13.4122 13.8339 13.8944 13.6003 14.458C13.3669 15.0216 13.3056 15.6419 13.4246 16.2402C13.5436 16.8387 13.8378 17.3888 14.2693 17.8203C14.7007 18.2517 15.25 18.546 15.8484 18.665C16.4469 18.7841 17.0678 18.7228 17.6316 18.4893C18.1952 18.2557 18.6764 17.8598 19.0154 17.3525C19.3543 16.8452 19.5359 16.2488 19.5359 15.6387C19.5347 14.8209 19.2088 14.0373 18.6306 13.459C18.0524 12.8808 17.2687 12.555 16.4509 12.5537ZM16.4509 13.4033C17.6853 13.4035 18.6863 14.4042 18.6863 15.6387C18.6863 16.8731 17.6853 17.8739 16.4509 17.874C15.2164 17.874 14.2156 16.8732 14.2156 15.6387C14.2156 14.4041 15.2164 13.4033 16.4509 13.4033ZM21.8621 12.3672C21.729 12.3938 21.6065 12.4588 21.5105 12.5547C21.4144 12.6508 21.3485 12.7739 21.322 12.9072C21.2956 13.0404 21.3101 13.1783 21.3621 13.3037C21.4141 13.4293 21.502 13.5368 21.615 13.6123C21.728 13.6878 21.8609 13.7285 21.9968 13.7285H21.9998C22.1815 13.7277 22.3559 13.6552 22.4841 13.5264C22.6123 13.3976 22.6843 13.2228 22.6843 13.041C22.6843 12.9051 22.6436 12.7722 22.5681 12.6592C22.4926 12.5462 22.3851 12.4583 22.2595 12.4062C22.1339 12.3542 21.9954 12.3407 21.8621 12.3672ZM7.26733 6.0293C7.35153 6.02935 7.43501 6.04606 7.51245 6.0791C7.59008 6.11226 7.66014 6.16168 7.71851 6.22266C7.77679 6.2836 7.8226 6.35565 7.85229 6.43457C7.88193 6.51343 7.89502 6.59748 7.89136 6.68164V8.24805H9.45874C9.62454 8.24805 9.78388 8.31344 9.90112 8.43066C10.0184 8.5479 10.0837 8.70725 10.0837 8.87305C10.0837 9.03886 10.0184 9.19818 9.90112 9.31543C9.78388 9.43268 9.62455 9.49805 9.45874 9.49805H7.89136V11.0654C7.8843 11.2263 7.81534 11.3789 7.69897 11.4902C7.58276 11.6013 7.42808 11.663 7.26733 11.6631C7.10639 11.6631 6.95105 11.6014 6.83472 11.4902C6.71835 11.3789 6.64939 11.2263 6.64233 11.0654V9.49805H5.07495C4.90938 9.498 4.75071 9.4324 4.63354 9.31543C4.5163 9.19818 4.44995 9.03886 4.44995 8.87305C4.44996 8.70725 4.51631 8.5479 4.63354 8.43066C4.75071 8.31372 4.9094 8.2481 5.07495 8.24805H6.64233V6.68164C6.63868 6.59751 6.65178 6.51341 6.6814 6.43457C6.71107 6.35569 6.75696 6.28357 6.81519 6.22266C6.87355 6.16168 6.94362 6.11226 7.02124 6.0791C7.09886 6.04595 7.18293 6.0293 7.26733 6.0293Z" fill="currentColor"/>
</svg>
