<svg width="32" height="32" viewBox="0 0 32 32" fill="none" xmlns="http://www.w3.org/2000/svg">
<path d="M8.68919 22.4024V19.011H7V22.4024C7.00218 23.0909 7.2767 23.7507 7.76359 24.2376C8.25048 24.7245 8.91022 24.999 9.59878 25.0012H13.0079V23.3131H9.59878C9.47877 23.3133 9.35988 23.2898 9.24896 23.244C9.13804 23.1982 9.03726 23.1309 8.95235 23.0461C8.86743 22.9613 8.80004 22.8606 8.75408 22.7497C8.70812 22.6389 8.68443 22.52 8.68443 22.4L8.68919 22.4024Z" fill="currentColor"/>
<path d="M23.3249 22.4024C23.3254 22.5223 23.3022 22.6411 23.2568 22.7519C23.2113 22.8628 23.1444 22.9637 23.0599 23.0487C22.9755 23.1337 22.875 23.2013 22.7644 23.2475C22.6538 23.2937 22.5352 23.3176 22.4154 23.3179H19.0476V25.0071H22.3965C23.0851 25.0049 23.7448 24.7304 24.2317 24.2435C24.7186 23.7566 24.993 23.0969 24.9952 22.4083V19.0157H23.3072L23.3249 22.4024Z" fill="currentColor"/>
<path d="M22.4095 6.99292H19.0464V8.68213H22.3953C22.5153 8.68182 22.6342 8.70516 22.7452 8.75084C22.8561 8.79651 22.957 8.86362 23.0421 8.94831C23.1271 9.03301 23.1946 9.13364 23.2407 9.24444C23.2868 9.35524 23.3106 9.47403 23.3108 9.59404V12.9878H25V9.59642C25.0034 8.91144 24.7349 8.25308 24.2535 7.76585C23.772 7.27862 23.1169 7.00233 22.4319 6.99764L22.4095 6.99292Z" fill="currentColor"/>
<path d="M8.6892 9.59642C8.68905 9.47641 8.71253 9.35754 8.75834 9.24662C8.80416 9.1357 8.87145 9.0349 8.95625 8.94999C9.04106 8.86507 9.14172 8.7977 9.25258 8.75174C9.36344 8.70578 9.48232 8.68213 9.60233 8.68213H13.0126V6.99292H9.60348C8.91491 6.9951 8.25518 7.2696 7.76829 7.75649C7.2814 8.24339 7.00688 8.90312 7.0047 9.59168V12.9831H8.69396L8.6892 9.59642Z" fill="currentColor"/>
<path d="M10.0394 15.1696V16.8588H11.8113C12.0131 17.8545 12.5534 18.7496 13.3405 19.392C14.1275 20.0344 15.1127 20.3846 16.1286 20.3829C17.1446 20.3812 18.1287 20.0279 18.9136 19.3829C19.6985 18.7378 20.2359 17.8409 20.4344 16.8446H22.1933V15.1554L10.0394 15.1696Z" fill="currentColor" stroke="currentColor" stroke-width="0.1" stroke-linecap="round" stroke-linejoin="round"/>
<path d="M19.1446 13.7049C19.1765 13.7462 19.217 13.7802 19.2633 13.8044C19.3096 13.8287 19.3605 13.8427 19.4127 13.8455C19.4752 13.843 19.5358 13.8236 19.5881 13.7894C19.6404 13.7552 19.6826 13.7074 19.7099 13.6512C19.7373 13.595 19.749 13.5324 19.7436 13.4701C19.7383 13.4078 19.7162 13.3481 19.6797 13.2974C19.3906 12.9004 19.0387 12.5533 18.6378 12.2697C18.6009 12.2422 18.5588 12.2225 18.5141 12.2116C18.4694 12.2007 18.423 12.1989 18.3776 12.2062C18.3322 12.2136 18.2886 12.23 18.2497 12.2545C18.2107 12.279 18.1771 12.311 18.1508 12.3488C18.1244 12.3865 18.1059 12.4291 18.0964 12.4741C18.0868 12.5191 18.0864 12.5656 18.0951 12.6108C18.1038 12.6559 18.1216 12.6989 18.1472 12.7371C18.1729 12.7753 18.2059 12.808 18.2444 12.8332C18.5907 13.0718 18.895 13.3664 19.1446 13.7049Z" fill="currentColor"/>
<path d="M15.922 12.1716C16.3354 12.1477 16.7498 12.1952 17.147 12.3121C17.1785 12.3249 17.2125 12.3298 17.2462 12.3263C17.318 12.3254 17.3877 12.3021 17.4457 12.2598C17.5037 12.2175 17.5471 12.1582 17.5699 12.0901C17.5821 12.0469 17.5857 12.0017 17.5805 11.9571C17.5752 11.9125 17.5612 11.8694 17.5392 11.8302C17.5173 11.791 17.4879 11.7566 17.4526 11.7288C17.4173 11.701 17.3769 11.6805 17.3336 11.6684C16.8618 11.5398 16.3725 11.4875 15.8842 11.5136C15.7957 11.5213 15.7133 11.562 15.6533 11.6277C15.5933 11.6933 15.5602 11.7791 15.5606 11.868C15.5672 11.9557 15.6081 12.0374 15.6744 12.0953C15.7407 12.1532 15.8271 12.1827 15.9149 12.1775L15.922 12.1716Z" fill="currentColor"/>
<path d="M13.4308 13.1709C13.513 13.171 13.5926 13.1417 13.6552 13.0882C13.9645 12.8094 14.3224 12.59 14.7112 12.4409C14.7933 12.4072 14.8586 12.3423 14.8928 12.2604C14.9271 12.1786 14.9274 12.0865 14.8937 12.0044C14.86 11.9223 14.7952 11.857 14.7133 11.8228C14.6315 11.7885 14.5393 11.7882 14.4572 11.8219C14.0049 12.0088 13.5873 12.2704 13.2217 12.5956C13.1552 12.6543 13.1145 12.7369 13.1086 12.8253C13.1026 12.9138 13.1318 13.0011 13.1897 13.0681C13.2199 13.1019 13.2572 13.1286 13.2988 13.1464C13.3405 13.1642 13.3855 13.1725 13.4308 13.1709Z" fill="currentColor"/>
<path d="M20.4687 15.1341H19.76L19.6902 14.8045C19.6765 14.7621 19.6714 14.7173 19.6752 14.6729C19.6791 14.6284 19.6918 14.5852 19.7127 14.5458C19.7559 14.4663 19.8291 14.4072 19.9159 14.3816C19.9496 14.3713 19.9846 14.3662 20.0198 14.3662C20.0912 14.3659 20.1608 14.3887 20.2181 14.4313C20.2755 14.4739 20.3174 14.534 20.3376 14.6025C20.3931 14.7721 20.4346 14.9459 20.4616 15.1223L20.4687 15.1341ZM11.7711 15.1459L11.7841 15.0845C11.8784 14.6005 12.0495 14.1347 12.2909 13.7047C12.3195 13.6525 12.3615 13.6088 12.4125 13.5781C12.4636 13.5474 12.5219 13.5307 12.5814 13.5299C12.6425 13.5308 12.7024 13.5475 12.7551 13.5783C12.7934 13.5985 12.8274 13.626 12.8551 13.6593C12.8828 13.6926 12.9036 13.731 12.9165 13.7724C12.9293 13.8137 12.9339 13.8572 12.9299 13.9003C12.9259 13.9435 12.9135 13.9854 12.8933 14.0237L12.8815 14.0438C12.6912 14.3918 12.5542 14.7665 12.4752 15.1553L11.7711 15.1459Z" fill="currentColor"/>
</svg>
