<svg width="32" height="32" viewBox="0 0 32 32" fill="none" xmlns="http://www.w3.org/2000/svg">
<g>
<path d="M20.4023 14.419H18.557C18.2565 14.419 17.9913 14.2295 17.8991 13.9493L17.3296 12.2255C17.2117 11.8688 17.4104 11.485 17.7736 11.3692C18.1405 11.2534 18.5275 11.4495 18.6444 11.8062L19.0589 13.0594H20.4014C20.7835 13.0594 21.0935 13.3638 21.0935 13.7392C21.0935 14.1146 20.7835 14.419 20.4014 14.419H20.4023Z" fill="currentColor"/>
<path d="M23.3458 16.9076C23.1309 16.9076 22.9208 16.8104 22.7858 16.6274C22.5605 16.3239 22.6299 15.899 22.9389 15.6787L23.399 15.35C23.5787 15.222 23.6158 15.0595 23.6158 14.9456C23.6158 14.7421 23.4732 14.419 23.09 14.419H22.5091C22.127 14.419 21.817 14.1145 21.817 13.7391C21.817 13.3637 22.127 13.0593 22.5091 13.0593H23.09C24.2851 13.0593 24.9991 14.0183 24.9991 14.9456C24.9991 15.5433 24.7129 16.0905 24.2119 16.4491L23.7508 16.7787C23.6281 16.8665 23.4855 16.9085 23.3458 16.9085V16.9076Z" fill="currentColor"/>
<path d="M20.7084 20.9202C20.4166 20.9202 20.1456 20.7381 20.0505 20.4505L19.4801 18.7267C19.3869 18.4474 19.4887 18.1402 19.7311 17.9675L21.2237 16.902C21.5327 16.6807 21.9653 16.7498 22.1897 17.0533C22.415 17.3568 22.3456 17.7816 22.0366 18.002L20.9509 18.7771L21.3654 20.0312C21.4833 20.3879 21.2855 20.7708 20.9214 20.8866C20.851 20.9099 20.7788 20.9202 20.7084 20.9202Z" fill="currentColor"/>
<path d="M20.3776 24.9991C19.9783 24.9991 19.5932 24.873 19.2614 24.6358L18.8022 24.3071C18.4933 24.0868 18.4239 23.6619 18.6492 23.3584C18.8726 23.0549 19.3071 22.9867 19.6151 23.208L20.0753 23.5367C20.4033 23.7674 20.9109 23.5564 20.9109 23.1333C20.9109 23.0773 20.9014 23.0203 20.8815 22.9606L20.7018 22.4171C20.5848 22.0595 20.7835 21.6766 21.1467 21.5608C21.5137 21.4487 21.8997 21.6411 22.0185 21.9978L22.1982 22.5413C22.2619 22.7355 22.2942 22.9354 22.2942 23.1333C22.2942 24.1447 21.4167 24.9991 20.3776 24.9991Z" fill="currentColor"/>
<path d="M17.4922 23.2136C17.3515 23.2136 17.2088 23.1716 17.0872 23.0838L16.0005 22.3097L14.9148 23.0838C14.6048 23.3051 14.1722 23.237 13.9488 22.9335C13.7235 22.63 13.792 22.2051 14.1019 21.9847L15.5936 20.9202C15.8351 20.7465 16.165 20.7465 16.4064 20.9202L17.8991 21.9847C18.2081 22.2051 18.2775 22.63 18.0521 22.9335C17.9171 23.1165 17.7061 23.2136 17.4922 23.2136Z" fill="currentColor"/>
<path d="M11.6243 25C10.5861 25 9.70862 24.1455 9.70862 23.1342C9.70862 22.9353 9.74094 22.7364 9.80369 22.5431L9.97957 22.0099C10.0984 21.6532 10.4863 21.4599 10.8514 21.5729C11.2146 21.6887 11.4133 22.0725 11.2963 22.4292L11.1204 22.9614C11.1005 23.0193 11.0919 23.0763 11.0919 23.1351C11.0919 23.5563 11.5929 23.7711 11.9267 23.5376L12.3963 23.2014C12.7053 22.9792 13.1388 23.0483 13.3632 23.3508C13.5885 23.6543 13.5201 24.0792 13.2111 24.3005L12.7405 24.6367C12.4058 24.8748 12.0208 25 11.6243 25Z" fill="currentColor"/>
<path d="M11.2935 20.9202C11.2222 20.9202 11.1509 20.91 11.0795 20.8866C10.7154 20.7708 10.5177 20.387 10.6356 20.0312L11.0501 18.7771L9.96435 18.0021C9.65537 17.7817 9.58597 17.3568 9.81129 17.0533C10.0357 16.7508 10.4682 16.6817 10.7772 16.9021L12.2699 17.9675C12.5132 18.1403 12.614 18.4475 12.5208 18.7267L11.9504 20.4505C11.8553 20.7381 11.5853 20.9202 11.2935 20.9202Z" fill="currentColor"/>
<path d="M8.66471 16.915C8.52401 16.915 8.3814 16.873 8.25971 16.7852L7.7891 16.45C7.28712 16.0923 7 15.5442 7 14.9466C7 14.0193 7.71494 13.0593 8.91095 13.0593H9.47758C9.85977 13.0593 10.1697 13.3637 10.1697 13.7391C10.1697 14.1145 9.85977 14.419 9.47758 14.419H8.91095C8.52686 14.419 8.38425 14.7421 8.38425 14.9466C8.38425 15.0595 8.42228 15.2211 8.60196 15.35L9.07257 15.6852C9.38156 15.9056 9.45096 16.3305 9.22564 16.6339C9.09064 16.817 8.87958 16.9141 8.66566 16.9141L8.66471 16.915Z" fill="currentColor"/>
<path d="M13.4431 14.419H11.5977C11.2155 14.419 10.9056 14.1146 10.9056 13.7392C10.9056 13.3638 11.2155 13.0594 11.5977 13.0594H12.9401L13.3556 11.8053C13.4735 11.4486 13.8699 11.2553 14.2264 11.3692C14.5906 11.485 14.7883 11.8688 14.6704 12.2255L14.1 13.9493C14.0078 14.2295 13.7435 14.419 13.4431 14.419Z" fill="currentColor"/>
<path d="M14.6647 10.7277C14.5944 10.7277 14.5221 10.7174 14.4508 10.694C14.0876 10.5782 13.8889 10.1945 14.0059 9.83774L14.1856 9.29519C14.4461 8.50799 15.1591 8 16.0005 8C16.8419 8 17.5559 8.50799 17.8154 9.29519L17.9913 9.8256C18.1101 10.1823 17.9114 10.5661 17.5483 10.6819C17.1841 10.7958 16.7934 10.6025 16.6765 10.2458L16.5006 9.71541C16.3903 9.38577 16.0908 9.35963 16.0014 9.35963C15.9121 9.35963 15.6135 9.38484 15.5033 9.71541L15.3245 10.258C15.2295 10.5456 14.9566 10.7277 14.6647 10.7277Z" fill="currentColor"/>
</g>
</svg>
