<svg width="32" height="32" viewBox="0 0 32 32" fill="none" xmlns="http://www.w3.org/2000/svg">
<g>
<path d="M16.169 7.51056C16.4598 7.54577 16.7104 7.62674 16.9138 7.75107C16.9902 7.79778 17.078 7.82256 17.1677 7.82256H17.168C17.3352 7.82256 17.4877 7.73963 17.5761 7.60076C17.7164 7.38038 17.6476 7.08912 17.4227 6.95161C17.1862 6.80702 16.9166 6.69993 16.62 6.63268L16.6057 6.55554H15.7883L15.6923 6.55837L15.6148 6.58893C15.6013 6.59169 15.5799 6.59418 15.5632 6.59633C15.5205 6.60192 15.4622 6.60946 15.3991 6.62508C15.2669 6.65772 15.1388 6.69818 15.0183 6.7455C14.8991 6.79221 14.8055 6.8816 14.7549 6.99731C14.7043 7.11302 14.7027 7.24105 14.7504 7.3579C14.798 7.47482 14.8893 7.5665 15.0073 7.61611C15.1255 7.66585 15.2562 7.66733 15.3752 7.62048C15.4561 7.58878 15.5432 7.56139 15.6342 7.5389C15.6475 7.53567 15.6681 7.53338 15.6899 7.53056C15.7397 7.52409 15.8006 7.51615 15.869 7.49804H16.101C16.1231 7.50363 16.1458 7.50787 16.169 7.5107V7.51056Z" fill="currentColor"/>
<path d="M25.966 14.0038C25.9297 13.7704 25.8683 13.5496 25.7834 13.3476C25.6825 13.1074 25.4011 12.9924 25.1557 13.0912C24.9106 13.1902 24.7933 13.4661 24.8943 13.7063C24.95 13.8388 24.9907 13.9867 25.0155 14.1458C25.0308 14.2441 25.0385 14.3407 25.0385 14.4328C25.0385 14.7406 24.9513 15.0164 24.7794 15.2526C24.6255 15.4642 24.6759 15.759 24.8917 15.9099C24.9737 15.9672 25.0701 15.9974 25.1706 15.9974C25.3258 15.9974 25.4722 15.9235 25.5623 15.7998C25.8528 15.4007 26.0001 14.9407 26.0001 14.4327C26.0001 14.2933 25.9886 14.1489 25.966 14.0037V14.0038Z" fill="currentColor"/>
<path d="M22.292 12.766L23.4281 12.7666C23.6242 12.7668 23.7935 12.7942 23.9457 12.8503C24.0237 12.8791 24.0989 12.9116 24.1689 12.9469C24.2368 12.9812 24.3128 12.9993 24.3889 12.9993C24.5698 12.9993 24.7337 12.9013 24.8165 12.7438C24.8753 12.632 24.8862 12.5043 24.847 12.3845C24.8079 12.2646 24.7235 12.1668 24.6093 12.1092C24.5066 12.0573 24.3972 12.0099 24.2842 11.9683C24.0259 11.873 23.7382 11.8246 23.429 11.8243L22.2923 11.8236C22.0273 11.8236 21.8116 12.0349 21.8115 12.2947C21.8115 12.5545 22.027 12.7659 22.2921 12.766H22.292Z" fill="currentColor"/>
<path d="M20.8684 12.766C20.9968 12.766 21.1175 12.7169 21.2083 12.6278C21.2991 12.5388 21.349 12.4204 21.3489 12.2946C21.3488 12.0349 21.1331 11.8237 20.8679 11.8237C20.4565 11.8239 20.0452 11.8243 19.6343 11.8249L19.5664 11.6186C19.527 11.4987 19.4425 11.4011 19.3282 11.3437C19.2138 11.2862 19.0836 11.2758 18.9614 11.3144C18.7091 11.3941 18.5699 11.66 18.6511 11.9074L18.7988 12.3564C18.8849 12.6178 19.0951 12.7677 19.3757 12.7677C19.8733 12.7669 20.3708 12.7663 20.8684 12.766Z" fill="currentColor"/>
<path d="M17.5495 8.59616C17.7963 9.31283 18.0348 10.0323 18.2149 10.5791C18.2793 10.7744 18.4631 10.9056 18.6723 10.9056C18.7224 10.9056 18.7721 10.8978 18.8201 10.8827C19.0724 10.8028 19.2113 10.5368 19.1299 10.2895C18.9491 9.74087 18.7096 9.01834 18.4605 8.2948C18.4194 8.17553 18.3334 8.07907 18.2184 8.02327C18.1032 7.96726 17.9728 7.95872 17.8512 7.9991C17.7296 8.03936 17.6311 8.12363 17.5741 8.23638C17.5171 8.34913 17.5083 8.47688 17.5495 8.59616Z" fill="currentColor"/>
<path d="M22.916 21.7126C22.876 21.593 22.7909 21.4958 22.6764 21.4389C22.5618 21.3821 22.4317 21.3722 22.3095 21.4115C22.0577 21.4923 21.9198 21.759 22.0022 22.0059L22.0883 22.2631C22.1753 22.5227 22.2157 22.7331 22.2157 22.9252C22.2157 22.99 22.2109 23.0544 22.2015 23.1164C22.173 23.3037 22.1107 23.4836 22.0164 23.6508C21.9543 23.7609 21.9397 23.8882 21.9753 24.0091C22.0108 24.1301 22.0924 24.2302 22.2047 24.291C22.2757 24.3295 22.356 24.3499 22.4369 24.3499C22.612 24.3499 22.7734 24.2566 22.858 24.1066C23.008 23.8406 23.1071 23.5542 23.1525 23.2554C23.1689 23.1475 23.1773 23.0365 23.1773 22.9252C23.1773 22.6304 23.1215 22.3265 23.0017 21.969L22.9159 21.7126H22.916Z" fill="currentColor"/>
<path d="M20.8994 18.6876C21.0614 19.1737 21.2227 19.66 21.3841 20.1464L21.5604 20.6779C21.6249 20.8726 21.8086 21.0034 22.0175 21.0034C22.0679 21.0034 22.118 20.9957 22.1663 20.9802C22.4184 20.8999 22.5568 20.6335 22.4748 20.3864L22.2698 19.7686C22.1179 19.3106 21.966 18.8527 21.8134 18.3949C21.7312 18.1483 21.4594 18.013 21.2071 18.0934C20.9551 18.174 20.817 18.4406 20.8994 18.6876Z" fill="currentColor"/>
<path d="M24.1686 15.9657C24.0417 15.9468 23.9148 15.9773 23.8112 16.0518C23.2323 16.4686 22.6417 16.8874 22.0863 17.2807C21.8715 17.4329 21.823 17.728 21.9782 17.9386C22.0683 18.0608 22.2141 18.1337 22.3682 18.1337C22.4697 18.1337 22.567 18.1029 22.6495 18.0445C23.206 17.6504 23.798 17.2305 24.3805 16.8112C24.484 16.7367 24.5517 16.6271 24.5711 16.5027C24.5905 16.3783 24.5593 16.254 24.4833 16.1525C24.4073 16.051 24.2954 15.9847 24.1685 15.9657H24.1686Z" fill="currentColor"/>
<path d="M21.5771 24.362C21.458 24.3146 21.3273 24.3157 21.2091 24.3648C21.1235 24.4004 21.0344 24.4288 20.9439 24.4494C20.8816 24.4636 20.8146 24.4755 20.7401 24.4886L20.6757 24.5001H20.4918C20.466 24.4936 20.4396 24.4892 20.4134 24.4866C20.1646 24.4621 19.9291 24.3784 19.6934 24.2305C19.4702 24.0906 19.1723 24.1545 19.0293 24.3734C18.8865 24.5923 18.9519 24.8843 19.1752 25.0243C19.4511 25.1973 19.7289 25.3133 20.0222 25.3775L20.0443 25.4424H20.7657L20.8103 25.4341C20.8386 25.4288 20.867 25.4238 20.8953 25.4187L20.9102 25.4161C20.9869 25.4026 21.0738 25.3873 21.1619 25.3672C21.3059 25.3344 21.4479 25.2891 21.5841 25.2326C21.7023 25.1835 21.7939 25.0922 21.8422 24.9756C21.8904 24.859 21.8893 24.7308 21.8393 24.615C21.7892 24.4991 21.6961 24.4093 21.5771 24.362Z" fill="currentColor"/>
<path d="M6.99327 14.639C6.99175 14.6297 6.991 14.6153 6.98976 14.5981C6.98619 14.5472 6.98132 14.4789 6.96154 14.4012V14.3663C6.98338 14.2826 6.98983 14.2074 6.99464 14.1512L6.99546 14.141C6.99684 14.1248 6.998 14.1087 7.00068 14.0929C7.03626 13.8824 7.11174 13.6854 7.225 13.5074C7.29292 13.4006 7.31435 13.2742 7.2853 13.1516C7.25631 13.029 7.18028 12.9248 7.07129 12.8582C6.96229 12.7917 6.83331 12.7707 6.70824 12.7991C6.58317 12.8275 6.47685 12.902 6.409 13.0088C6.2285 13.2927 6.10838 13.6057 6.05206 13.9391C6.04348 13.9901 6.03956 14.0358 6.03647 14.0725C6.03503 14.0898 6.03331 14.1134 6.03084 14.1287L6 14.2041V14.5676L6.02837 14.6338C6.02919 14.643 6.02988 14.654 6.03056 14.6632C6.0331 14.6989 6.03654 14.7478 6.04622 14.8017C6.08894 15.0405 6.16284 15.267 6.2658 15.4752C6.34567 15.6365 6.51559 15.7409 6.69862 15.7409C6.77163 15.7409 6.84217 15.725 6.90817 15.6935C7.1467 15.5802 7.24663 15.2978 7.13104 15.064C7.06696 14.9345 7.02067 14.7914 6.99333 14.6388L6.99327 14.639Z" fill="currentColor"/>
<path d="M9.42116 17.9741C9.5748 17.9741 9.72041 17.9014 9.81052 17.7796C9.96622 17.5693 9.91828 17.2741 9.70372 17.1215C9.18991 16.7561 8.67632 16.3904 8.16272 16.0246L7.96512 15.8838C7.75077 15.7312 7.44947 15.778 7.29356 15.988C7.13772 16.1983 7.18546 16.4935 7.39988 16.6462L7.59747 16.787C8.11121 17.1529 8.62501 17.5187 9.13902 17.8844C9.22164 17.9431 9.31924 17.9742 9.42109 17.9742L9.42116 17.9741Z" fill="currentColor"/>
<path d="M13.3055 10.5473C13.3537 10.5626 13.4037 10.5705 13.4541 10.5705C13.663 10.5705 13.8467 10.4395 13.9113 10.2447C14.0864 9.7162 14.2615 9.18767 14.4357 8.659C14.4751 8.53945 14.5224 8.42785 14.5762 8.32728C14.6993 8.09728 14.6086 7.81188 14.3739 7.69112C14.1392 7.57036 13.848 7.65935 13.7248 7.88935C13.6455 8.03751 13.5769 8.19899 13.5207 8.36929C13.3466 8.89755 13.1717 9.42561 12.9967 9.95368C12.957 10.0734 12.9673 10.201 13.0256 10.3132C13.084 10.4253 13.1833 10.5084 13.3055 10.5473Z" fill="currentColor"/>
<path d="M10.1916 18.0515C10.0862 18.1949 10.0726 18.3821 10.1512 18.5369C10.0612 18.8065 9.97092 19.0759 9.88054 19.3454L9.86996 19.3771C9.78383 19.6338 9.69771 19.8907 9.61193 20.1475C9.57195 20.2671 9.58198 20.3948 9.64002 20.5071C9.69805 20.6194 9.7973 20.7027 9.91934 20.7419C9.96783 20.7574 10.0182 20.7653 10.0689 20.7653C10.2774 20.7653 10.461 20.6349 10.5258 20.4406C10.6114 20.1841 10.6974 19.9278 10.7834 19.6713L10.7876 19.6588C10.9015 19.3191 11.0154 18.9794 11.1285 18.6393C11.1434 18.5947 11.1631 18.5255 11.1631 18.4398C11.1631 18.2581 11.0744 18.095 10.9134 17.9806L10.8627 17.9446C10.6477 17.7928 10.3465 17.8408 10.1916 18.0515Z" fill="currentColor"/>
<path d="M7.91786 12.8746C7.97019 12.8746 8.02205 12.8662 8.07191 12.8496C8.23915 12.7942 8.41484 12.7661 8.59409 12.7661H10.0549C10.32 12.7661 10.5357 12.5547 10.5357 12.2949C10.5357 12.0352 10.32 11.8237 10.0549 11.8237H8.59402C8.30982 11.8237 8.0305 11.8686 7.76401 11.957C7.64238 11.9973 7.54396 12.0817 7.48709 12.1944C7.43015 12.3072 7.42143 12.4351 7.46264 12.5543C7.52871 12.7459 7.71175 12.8746 7.918 12.8746H7.91786Z" fill="currentColor"/>
<path d="M18.5557 23.424L17.9026 22.9588C17.5408 22.7011 17.1791 22.4435 16.8177 22.1856C16.714 22.1114 16.587 22.0814 16.46 22.1009C16.3331 22.1205 16.2216 22.1873 16.146 22.2892C15.99 22.4992 16.0374 22.7945 16.2517 22.9474C16.644 23.2272 17.0364 23.5068 17.4289 23.7863L17.9903 24.1861C18.073 24.2451 18.1707 24.2763 18.2727 24.2763C18.4262 24.2763 18.5718 24.2037 18.6619 24.0821C18.7374 23.9804 18.7679 23.8558 18.7479 23.7315C18.7278 23.6072 18.6596 23.4979 18.5557 23.424Z" fill="currentColor"/>
<path d="M9.91028 23.4925C9.83308 23.3111 9.79393 23.12 9.794 22.9245C9.794 22.7683 9.81928 22.6089 9.86921 22.4511C9.9407 22.2247 10.0132 21.9986 10.0864 21.7728C10.1253 21.6529 10.1141 21.5253 10.0551 21.4135C9.99599 21.3017 9.89613 21.2192 9.77367 21.1811C9.65135 21.1429 9.52113 21.1538 9.40705 21.2117C9.29297 21.2695 9.20877 21.3676 9.1699 21.4876C9.096 21.7156 9.02278 21.9439 8.9506 22.1724C8.87216 22.4207 8.8324 22.6737 8.8324 22.9245C8.8324 23.2452 8.89641 23.5583 9.02278 23.8553C9.09771 24.0314 9.27189 24.1452 9.46667 24.1452C9.53027 24.1452 9.59242 24.133 9.65156 24.1089C9.8962 24.0089 10.0123 23.7324 9.91021 23.4927L9.91028 23.4925Z" fill="currentColor"/>
<path d="M15.0789 22.2679C14.7516 22.5014 14.4242 22.7347 14.0968 22.968L13.3409 23.5066C13.1266 23.6595 13.0791 23.9548 13.235 24.1648C13.3252 24.2863 13.4706 24.3588 13.6241 24.3588C13.7262 24.3588 13.8238 24.3277 13.9065 24.2687L14.5254 23.8277C14.8987 23.5617 15.2719 23.2958 15.6449 23.0297C15.7487 22.9556 15.8169 22.8463 15.8369 22.722C15.8569 22.5977 15.8262 22.4732 15.7506 22.3714C15.5947 22.1616 15.2934 22.1151 15.0791 22.2679H15.0789Z" fill="currentColor"/>
<path d="M13.4689 11.5801C13.5506 11.333 13.412 11.0667 13.1598 10.9866C13.0377 10.9478 12.9075 10.9579 12.793 11.0151C12.6787 11.0724 12.5938 11.1698 12.5543 11.2896L12.3777 11.8239L11.4877 11.8238C11.2226 11.8238 11.007 12.0351 11.007 12.295C11.007 12.5548 11.2226 12.7661 11.4877 12.7661L12.6627 12.7663C12.9684 12.7663 13.1423 12.5697 13.203 12.3857C13.2915 12.1171 13.3802 11.8486 13.4689 11.5801Z" fill="currentColor"/>
<path d="M12.2201 24.2881C12.0571 24.3776 11.8953 24.4373 11.7252 24.4705C11.7158 24.4724 11.7063 24.473 11.6968 24.4739L11.6851 24.475C11.6423 24.4792 11.5849 24.4848 11.52 24.5001H11.3569C11.281 24.4786 11.2163 24.4757 11.1844 24.4743H11.1829C10.9952 24.4438 10.8135 24.3809 10.6428 24.2873C10.5308 24.2257 10.401 24.2105 10.2773 24.2448C10.1538 24.279 10.0512 24.3583 9.98838 24.4681C9.92561 24.5778 9.91029 24.7051 9.94518 24.8262C9.98 24.9473 10.061 25.0479 10.173 25.1093C10.4469 25.2596 10.7402 25.3598 11.0455 25.4071L11.0901 25.4424H11.5867L11.6759 25.4443L11.7495 25.4158C11.759 25.4146 11.7717 25.4135 11.7834 25.4124C11.817 25.409 11.8631 25.4044 11.9136 25.3945C12.1805 25.3423 12.4418 25.2466 12.6902 25.1101C12.8022 25.0486 12.8831 24.948 12.9179 24.8268C12.9527 24.7056 12.9373 24.5784 12.8746 24.4687C12.7449 24.2422 12.4514 24.1612 12.2201 24.288V24.2881Z" fill="currentColor"/>
</g>
</svg>
