<svg width="1em" height="1em" viewBox="0 0 24 24" fill="none" xmlns="http://www.w3.org/2000/svg">
<path d="M7.18219 13.4916V16.7964C7.18219 17.0419 7.38117 17.2409 7.62663 17.2409H18.5911C18.8365 17.2409 19.0355 17.0419 19.0355 16.7964V13.4916C19.0355 13.2461 18.8365 13.0471 18.5911 13.0471H7.62663C7.38117 13.0471 7.18219 13.2461 7.18219 13.4916Z" fill="currentColor"/>
<path d="M7.18219 7.20266V10.5076C7.18219 10.753 7.38117 10.952 7.62663 10.952H15.1244C15.3699 10.952 15.5689 10.753 15.5689 10.5076V7.20266C15.5689 6.9572 15.3699 6.75822 15.1244 6.75822L7.62663 6.75822C7.38117 6.75822 7.18219 6.9572 7.18219 7.20266Z" fill="currentColor"/>
<path d="M5.728 20C5.92092 19.9998 6.10587 19.923 6.2422 19.7865C6.37853 19.65 6.45511 19.4649 6.45511 19.272L6.45511 4.72711C6.45511 4.63163 6.4363 4.53708 6.39976 4.44886C6.36322 4.36064 6.30966 4.28048 6.24215 4.21297C6.17463 4.14545 6.09447 4.09189 6.00625 4.05535C5.91804 4.01881 5.82349 4 5.728 4C5.53508 4 5.35004 4.07658 5.21354 4.21291C5.07704 4.34925 5.00024 4.53419 5 4.72711L5 19.272C5.00024 19.465 5.07701 19.65 5.21349 19.7865C5.34996 19.923 5.53499 19.9998 5.728 20Z" fill="currentColor"/>
</svg>
