<svg width="1em" height="1em" viewBox="0 0 24 24" fill="none" xmlns="http://www.w3.org/2000/svg">
<path d="M5 13.4932V16.7952C5 17.0414 5.19962 17.241 5.44586 17.241H16.4068C16.653 17.241 16.8526 17.0414 16.8526 16.7952V13.4932C16.8526 13.2469 16.653 13.0473 16.4068 13.0473H5.44586C5.19962 13.0473 5 13.2469 5 13.4932Z" fill="currentColor"/>
<path d="M8.46608 7.20391V10.5059C8.46608 10.7522 8.6657 10.9518 8.91194 10.9518H16.4068C16.653 10.9518 16.8526 10.7522 16.8526 10.5059V7.20391C16.8526 6.95767 16.653 6.75806 16.4068 6.75806L8.91194 6.75806C8.6657 6.75806 8.46608 6.95767 8.46608 7.20391Z" fill="currentColor"/>
<path d="M18.3079 20C18.1149 20 17.9299 19.9233 17.7934 19.7869C17.6569 19.6504 17.5803 19.4653 17.5803 19.2723V4.72673C17.5803 4.63122 17.5991 4.53664 17.6357 4.44841C17.6723 4.36018 17.7259 4.28003 17.7935 4.21253C17.861 4.14503 17.9413 4.09152 18.0295 4.05505C18.1178 4.01858 18.2124 3.99987 18.3079 3.99998C18.5007 3.99998 18.6857 4.07652 18.8221 4.21279C18.9585 4.34906 19.0353 4.5339 19.0356 4.72673V19.2723C19.0353 19.4653 18.9586 19.6502 18.8222 19.7866C18.6858 19.923 18.5008 19.9997 18.3079 20Z" fill="currentColor"/>
</svg>
