<svg width="1em" height="1em" viewBox="0 0 24 24" fill="none" xmlns="http://www.w3.org/2000/svg">
<path d="M15.9857 11.0206H13.3121V6.90316H15.9857C16.1735 6.88918 16.359 6.95023 16.5018 7.07286C16.6446 7.19549 16.7331 7.36979 16.7477 7.55745V10.3671C16.7331 10.5548 16.6446 10.7291 16.5018 10.8517C16.359 10.9744 16.1735 11.0345 15.9857 11.0206Z" fill="currentColor"/>
<path d="M10.848 11.0205H8.21514C8.0295 11.0311 7.84718 10.9683 7.70711 10.846C7.56704 10.7238 7.48036 10.5516 7.46579 10.3662V7.55633C7.48036 7.37096 7.56704 7.1988 7.70711 7.07651C7.84718 6.95422 8.0295 6.89168 8.21514 6.90225H10.848V11.0205Z" fill="currentColor"/>
<path d="M12.1049 4C12.2881 4.01011 12.4599 4.0925 12.5825 4.22895C12.7052 4.3654 12.7686 4.54487 12.7592 4.72808V19.2739C12.7684 19.4568 12.7047 19.636 12.5821 19.7721C12.4595 19.9083 12.2878 19.9901 12.1049 20C11.9218 19.9903 11.7501 19.9085 11.6272 19.7724C11.5044 19.6362 11.4405 19.457 11.4497 19.2739L11.4497 4.72808C11.4405 4.54478 11.5043 4.36516 11.627 4.22873C11.7498 4.09231 11.9216 4.01011 12.1049 4Z" fill="currentColor"/>
<path d="M18.4427 17.096H13.3112V12.9777H18.4427C18.6317 12.9634 18.8185 13.0241 18.9629 13.1468C19.1073 13.2694 19.1977 13.4441 19.2142 13.6329V16.4408C19.1977 16.6296 19.1073 16.8043 18.9629 16.9269C18.8185 17.0496 18.6317 17.1103 18.4427 17.096Z" fill="currentColor"/>
<path d="M10.849 17.0961H5.76367C5.57585 17.1092 5.39028 17.0477 5.2474 16.9251C5.10451 16.8025 5.01567 16.6286 5 16.441V13.633C5.01567 13.4454 5.10451 13.2714 5.2474 13.1489C5.39028 13.0263 5.57585 12.9648 5.76367 12.9778H10.8481L10.849 17.0961Z" fill="currentColor"/>
</svg>
