<svg width="1em" height="1em" viewBox="0 0 24 24" fill="none" xmlns="http://www.w3.org/2000/svg">
<path d="M5.96261 19.9998C5.76485 20.0045 5.5733 19.9306 5.42996 19.7943C5.28663 19.658 5.20324 19.4703 5.19812 19.2726V4.7274C5.20324 4.52965 5.28663 4.34202 5.42996 4.20569C5.5733 4.06935 5.76485 3.99546 5.96261 4.00024C6.06057 3.99776 6.15803 4.0146 6.24947 4.0498C6.34092 4.08501 6.42454 4.13789 6.49553 4.20542C6.56653 4.27295 6.62351 4.3538 6.66325 4.44336C6.70298 4.53293 6.72469 4.62945 6.72711 4.7274V19.2744C6.72175 19.4719 6.63827 19.6592 6.49494 19.7952C6.3516 19.9312 6.16014 20.0048 5.96261 19.9998Z" fill="currentColor"/>
<path d="M18.0374 19.9998C17.8396 20.0045 17.6481 19.9306 17.5047 19.7943C17.3614 19.658 17.278 19.4703 17.2729 19.2726V4.7274C17.278 4.52965 17.3614 4.34202 17.5047 4.20569C17.6481 4.06935 17.8396 3.99546 18.0374 4.00024C18.1353 3.99776 18.2328 4.0146 18.3242 4.0498C18.4157 4.08501 18.4993 4.13789 18.5703 4.20542C18.6413 4.27295 18.6983 4.3538 18.738 4.44336C18.7777 4.53293 18.7995 4.62945 18.8019 4.7274V19.2744C18.7965 19.4719 18.713 19.6592 18.5697 19.7952C18.4264 19.9312 18.2349 20.0048 18.0374 19.9998Z" fill="currentColor"/>
<path d="M13.7392 5.28924H10.2598C10.0144 5.28924 9.81537 5.48824 9.81537 5.73372V18.269C9.81537 18.5144 10.0144 18.7134 10.2598 18.7134H13.7392C13.9847 18.7134 14.1837 18.5144 14.1837 18.269V5.73372C14.1837 5.48824 13.9847 5.28924 13.7392 5.28924Z" fill="currentColor"/>
</svg>
