<svg width="1em" height="1em" viewBox="0 0 24 24" fill="none" xmlns="http://www.w3.org/2000/svg">
<path d="M12.833 9.56531H9.56171V12.8355C9.56171 13.2598 9.7304 13.6669 10.0305 13.967C10.3305 14.2671 10.7374 14.4355 11.1618 14.4355H14.4319V11.1654C14.4319 10.7412 14.2635 10.3343 13.9636 10.0343C13.6638 9.73424 13.2572 9.56554 12.833 9.56531Z" fill="currentColor"/>
<path fill-rule="evenodd" clip-rule="evenodd" d="M19.1111 4H10.4542C9.9633 4 9.56533 4.39797 9.56533 4.88889V8.67642H12.8335C13.4934 8.67679 14.126 8.93928 14.5923 9.40591C15.0588 9.87263 15.3208 10.5055 15.3208 11.1654V14.4347H19.1111C19.602 14.4347 20 14.0367 20 13.5458V4.88889C20 4.39797 19.602 4 19.1111 4ZM14.4347 15.3244H11.1617C10.5017 15.3244 9.86874 15.0624 9.40192 14.5955C8.93522 14.1288 8.67282 13.4957 8.67282 12.8355V9.56533H4.88889C4.39797 9.56533 4 9.9633 4 10.4542V19.1111C4 19.602 4.39797 20 4.88889 20H13.5458C14.0367 20 14.4347 19.602 14.4347 19.1111V15.3244ZM9.56171 9.56533V12.8355C9.56171 13.2598 9.7304 13.6669 10.0305 13.967C10.3305 14.2671 10.7374 14.4355 11.1617 14.4355H14.4319V11.1654C14.4319 10.7412 14.2635 10.3343 13.9636 10.0343C13.6638 9.73424 13.2572 9.56554 12.833 9.56531H9.56533V9.56533H9.56171Z" fill="currentColor"/>
</svg>
