<svg width="32" height="32" viewBox="0 0 32 32" fill="none" xmlns="http://www.w3.org/2000/svg">
<path d="M6.75 10.5H8.6C8.93 11.66 9.99 12.5 11.25 12.5C12.51 12.5 13.57 11.66 13.9 10.5H24.75C25.16 10.5 25.5 10.17 25.5 9.75C25.5 9.33 25.16 9 24.75 9H13.89C13.57 7.85 12.51 7 11.25 7C9.99 7 8.93 7.85 8.61 9H6.75C6.34 9 6 9.34 6 9.75C6 10.16 6.34 10.5 6.75 10.5ZM10 9.75C10 9.47 10.09 9.21 10.25 9C10.48 8.7 10.84 8.5 11.25 8.5C11.66 8.5 12.02 8.7 12.25 9C12.41 9.21 12.5 9.47 12.5 9.75C12.5 10.03 12.41 10.29 12.25 10.5C12.02 10.8 11.66 11 11.25 11C10.84 11 10.48 10.8 10.25 10.5C10.09 10.29 10 10.03 10 9.75Z" fill="currentColor"/>
<path d="M24.75 15.8H22.9C22.57 14.64 21.51 13.8 20.25 13.8C18.99 13.8 17.93 14.64 17.6 15.8H6.75C6.34 15.8 6 16.14 6 16.55C6 16.96 6.34 17.3 6.75 17.3H17.6C17.93 18.46 18.99 19.3 20.25 19.3C21.51 19.3 22.57 18.46 22.9 17.3H24.75C25.16 17.3 25.5 16.96 25.5 16.55C25.5 16.14 25.16 15.8 24.75 15.8ZM21.5 16.55C21.5 16.83 21.41 17.09 21.25 17.3C21.02 17.6 20.66 17.8 20.25 17.8C19.84 17.8 19.48 17.6 19.25 17.3C19.09 17.09 19 16.83 19 16.55C19 16.27 19.09 16.01 19.25 15.8C19.48 15.5 19.84 15.3 20.25 15.3C20.66 15.3 21.02 15.5 21.25 15.8C21.41 16.01 21.5 16.27 21.5 16.55Z" fill="currentColor"/>
<path d="M24.75 22.59H16.4C16.07 21.44 15.01 20.59 13.75 20.59C12.49 20.59 11.43 21.44 11.1 22.59H6.75C6.34 22.59 6 22.93 6 23.34C6 23.75 6.34 24.09 6.75 24.09H11.1C11.43 25.25 12.49 26.09 13.75 26.09C15.01 26.09 16.07 25.25 16.4 24.09H24.75C25.16 24.09 25.5 23.76 25.5 23.34C25.5 22.92 25.16 22.59 24.75 22.59ZM15 23.34C15 23.62 14.91 23.88 14.75 24.09C14.52 24.39 14.16 24.59 13.75 24.59C13.34 24.59 12.98 24.39 12.75 24.09C12.59 23.88 12.5 23.62 12.5 23.34C12.5 23.06 12.59 22.8 12.76 22.59C12.98 22.29 13.34 22.09 13.75 22.09C14.16 22.09 14.52 22.29 14.74 22.59C14.91 22.8 15 23.06 15 23.34Z" fill="currentColor"/>
</svg>
