<svg width="32" height="32" viewBox="0 0 32 32" fill="none" xmlns="http://www.w3.org/2000/svg">
<path d="M23.5001 14.0006H17.0002V7.50036C17.0002 7.10246 16.8422 6.72076 16.5608 6.43941C16.2794 6.15805 15.8979 6 15.5 6C15.1021 6 14.7203 6.15805 14.4389 6.43941C14.1575 6.72076 13.9994 7.10246 13.9994 7.50036V14.0006H7.49963C7.10185 14.0006 6.72043 14.1584 6.43916 14.4397C6.15788 14.7209 6 15.1023 6 15.5C6 15.8977 6.15788 16.2791 6.43916 16.5603C6.72043 16.8416 7.10185 16.9997 7.49963 16.9997H13.9994V23.5C13.9994 23.8978 14.1575 24.2792 14.4389 24.5606C14.7203 24.8419 15.1021 25 15.5 25C15.8979 25 16.2794 24.8419 16.5608 24.5606C16.8422 24.2792 17.0002 23.8978 17.0002 23.5V16.9997H23.5001C23.8978 16.9997 24.2793 16.8416 24.5605 16.5603C24.8418 16.2791 25 15.8977 25 15.5C25 15.1023 24.8418 14.7209 24.5605 14.4397C24.2793 14.1584 23.8978 14.0006 23.5001 14.0006Z" fill="currentColor"/>
</svg>
