<svg width="1em" height="1em" viewBox="0 0 24 24" fill="none" xmlns="http://www.w3.org/2000/svg">
<path d="M12.5888 15.9117V13.3259H17.2212V15.9117C17.2213 16.0084 17.2023 16.1041 17.1654 16.1934C17.1285 16.2828 17.0744 16.3639 17.0061 16.4324C16.9378 16.5008 16.8568 16.5552 16.7676 16.5923C16.6783 16.6294 16.5826 16.6484 16.4859 16.6485H13.3258C13.1305 16.6483 12.9434 16.5705 12.8054 16.4324C12.6674 16.2942 12.5899 16.107 12.5899 15.9117H12.5888Z" fill="currentColor"/>
<path d="M12.5888 10.6581V8.07118C12.5888 7.87597 12.6665 7.68879 12.8045 7.55076C12.9425 7.41272 13.1297 7.33525 13.3249 7.33525H16.4859C16.6809 7.33549 16.868 7.41318 17.0059 7.55119C17.1437 7.6892 17.2212 7.87613 17.2212 8.07118V10.6581H12.5888Z" fill="currentColor"/>
<path d="M20 11.9923C20.0007 12.0884 19.9823 12.1839 19.9462 12.2729C19.91 12.362 19.8566 12.4428 19.789 12.5112C19.7215 12.5796 19.6411 12.6339 19.5525 12.6712C19.4639 12.7084 19.3688 12.728 19.2727 12.7284H4.72619C4.63016 12.7279 4.53515 12.7083 4.44666 12.6709C4.35818 12.6336 4.27799 12.5794 4.21054 12.511C4.14309 12.4426 4.08976 12.3617 4.05363 12.2727C4.0175 12.1837 3.99932 12.0883 4.00003 11.9923C3.99921 11.8962 4.01734 11.801 4.05341 11.7119C4.08949 11.6228 4.14286 11.5416 4.21032 11.4732C4.27779 11.4047 4.35812 11.3504 4.44666 11.313C4.53521 11.2756 4.63008 11.2561 4.72619 11.2555H19.2727C19.3689 11.2561 19.4641 11.2757 19.5527 11.313C19.6413 11.3504 19.7215 11.4047 19.789 11.4732C19.8566 11.5416 19.91 11.6226 19.9462 11.7117C19.9823 11.8008 20.0007 11.8962 20 11.9923Z" fill="currentColor"/>
<path d="M6.77606 18.2478V13.3446H11.4093V18.2478C11.4093 18.3446 11.3902 18.4403 11.3531 18.5297C11.3161 18.6191 11.2618 18.7004 11.1934 18.7689C11.125 18.8373 11.0436 18.8916 10.9542 18.9286C10.8648 18.9656 10.7691 18.9848 10.6723 18.9848H7.51308C7.31771 18.9846 7.13037 18.9068 6.99222 18.7687C6.85407 18.6305 6.7763 18.4432 6.77606 18.2478Z" fill="currentColor"/>
<path d="M6.77606 10.6385V5.73615C6.77653 5.54078 6.85455 5.35349 6.99287 5.21551C7.13119 5.07752 7.31857 5 7.51395 5H10.6732C10.8685 5 11.0559 5.0775 11.194 5.21551C11.3322 5.35351 11.41 5.54086 11.4102 5.73615V10.6385H6.77606Z" fill="currentColor"/>
</svg>
