<svg xmlns="http://www.w3.org/2000/svg" viewBox="0 0 80 80">
<path d="M40.274 14.08c-.265-.188-.605-.235-.912-.125L17.87 21.591c-.398.142-.665.52-.665.942v22.623c-1.223-1.107-2.905-1.793-4.76-1.793-3.728 0-6.76 2.766-6.76 6.164 0 3.398 3.032 6.164 6.76 6.164 3.728 0 6.76-2.766 6.76-6.164 0-.091-.011-.179-.015-.27.002-.026.015-.048.015-.074V30.712l19.492-6.585v13.669c-1.205-1.08-2.854-1.749-4.674-1.749-3.68 0-6.674 2.73-6.674 6.087 0 3.357 2.994 6.087 6.674 6.087 3.68 0 6.674-2.73 6.674-6.087V14.897C40.697 14.572 40.539 14.267 40.274 14.08zM12.445 53.691c-2.625 0-4.76-1.868-4.76-4.164 0-2.296 2.135-4.164 4.76-4.164 2.625 0 4.76 1.868 4.76 4.164C17.205 51.823 15.07 53.691 12.445 53.691zM19.205 28.601v-5.362l19.492-6.925v5.701L19.205 28.601zM34.023 46.221c-2.577 0-4.674-1.833-4.674-4.087 0-2.254 2.097-4.087 4.674-4.087 2.577 0 4.674 1.833 4.674 4.087C38.697 44.388 36.6 46.221 34.023 46.221zM73.89 28.52c-.266-.187-.607-.231-.913-.124l-19.862 7.122c-.397.143-.663.52-.663.941v19.218c-1.205-1.08-2.854-1.749-4.674-1.749-3.68 0-6.674 2.73-6.674 6.087 0 3.357 2.994 6.087 6.674 6.087 3.68 0 6.674-2.73 6.674-6.087V44.672c.059-.008.117-.021.175-.041l19.003-6.304c.409-.136.685-.519.685-.949v-8.04C74.315 29.013 74.156 28.707 73.89 28.52zM47.778 64.102c-2.577 0-4.674-1.833-4.674-4.087 0-2.254 2.097-4.087 4.674-4.087 2.577 0 4.674 1.833 4.674 4.087C52.452 62.269 50.355 64.102 47.778 64.102zM72.315 36.656l-17.863 5.925v-5.417l17.863-6.405V36.656z"/>
</svg>