<svg xmlns="http://www.w3.org/2000/svg" viewBox="0 0 80 80">
<path d="M66.486 5.831c-.04-1.089-1.238-1.732-2.168-1.164l-15.593 9.517c-.815.497-.782 1.692.059 2.143l.499.268-8.999 16.757-1.353-.726-3.287 6.121 1.353.727-3.087 5.749c-.239.446-.072 1.002.373 1.241l6.738 3.619c-5.34 9.437-12.018 12.499-16.577 13.421-.02-1.728 1.69-4.129 2.745-5.44.162-.201-.067-.475-.296-.358-1.481.749-4.094 1.927-5.527 1.714-1.468-.218-2.911-3.311-3.631-5.107-.096-.239-.444-.179-.457.078-.077 1.426-.477 3.68-2.108 5.207-1.64 1.536-3.848 1.681-5.212 1.59-.25-.017-.353.311-.139.441 1.427.863 3.746 2.546 3.96 4.479.204 1.839-.843 3.778-1.729 5.054-.149.215.103.474.324.335 1.191-.747 2.92-1.494 4.465-.874 1.728.693 2.865 2.702 3.431 3.966.102.228.441.163.457-.086.108-1.637.543-4.48 2.252-5.018 1.986-.625 4.211-.393 5.473-.169.244.043.382-.265.189-.42-1.001-.807-2.65-2.26-3.566-3.686.759-.166 1.561-.379 2.406-.666 4.264-1.45 10.292-5 15.152-13.593l5.429 2.916c.062.033.133.032.2.05l-9.651 17.972c-.239.446-.072 1.002.374 1.241.138.074.286.108.432.108.327 0 .643-.174.808-.482l13.149-24.486 1.353.727 3.287-6.121-2.337-1.255 8.998-16.758.669.36c.841.452 1.855-.18 1.819-1.134L66.486 5.831zM42.713 48.911C42.713 48.911 42.713 48.91 42.713 48.911c-.001-.001-.001-.001-.002-.001l-6.754-3.627 2.654-4.943 12.166 6.533-2.655 4.943L42.713 48.911zM54.064 40.751l-12.166-6.533 8.999-16.758 12.166 6.533L54.064 40.751z"/>
</svg>