<svg xmlns="http://www.w3.org/2000/svg" viewBox="0 0 80 80">
<path d="M58.683 7.915c-.091-.399-.445-.683-.855-.684L22.166 7.155c-.001 0-.001 0-.002 0-.41 0-.766.284-.857.685-.028.123-2.7 12.087-1.958 23.295h-.011l.081.953c.451 5.297 1.641 9.579 3.535 12.725 2.243 3.731 5.428 6.542 9.466 8.355.816.365 1.655.646 2.503.89.022.026.032.058.058.082.257.245 6.161 6.068 1.862 17.676L27.67 73.1c-.457.064-.787.471-.755.931.032.46.415.817.876.817h24.101c.461 0 .844-.358.876-.817.032-.461-.297-.868-.754-.931l-9.169-1.283c-3.998-11.106 1.112-16.905 1.787-17.605 1.012-.256 2.01-.575 2.975-1.005 4.018-1.788 7.191-4.587 9.431-8.319 1.912-3.2 3.102-7.507 3.535-12.802l.078-.951h-.007C61.383 19.952 58.712 8.037 58.683 7.915zM22.968 32.955l2.676 1.255c.166 11.293 7.363 15.058 7.363 15.058C22.968 45.503 22.968 32.955 22.968 32.955zM58.883 31.135H21.109c-.647-9.46 1.222-19.54 1.768-22.221l34.238.074C57.661 11.656 59.53 21.697 58.883 31.135z"/>
</svg>