<svg xmlns="http://www.w3.org/2000/svg" viewBox="0 0 80 80">
<path d="M72.861 26.524C72 17.559 64.868 10.424 55.902 9.558 49.851 8.975 44.059 11.22 40 15.724c-4.058-4.502-9.845-6.753-15.895-6.167C15.138 10.419 8.003 17.553 7.139 26.52c-.232 2.41-.016 4.793.641 7.084.705 2.457 2.031 4.818 3.941 7.017l24.479 28.182c.956 1.101 2.34 1.732 3.798 1.732 1.458 0 2.843-.632 3.799-1.732l24.48-28.182c1.911-2.2 3.236-4.561 3.941-7.016C72.876 31.316 73.092 28.933 72.861 26.524zM69.336 32.777c-.583 2.032-1.701 4.009-3.322 5.877l-24.48 28.182c-.783.902-2.284.902-3.067 0l-24.48-28.182c-1.621-1.866-2.739-3.844-3.323-5.878-.553-1.927-.734-3.935-.538-5.969.714-7.418 6.848-13.55 14.267-14.264.529-.051 1.056-.076 1.58-.076 4.537 0 8.79 1.894 11.854 5.326 1.109 1.242 3.238 1.242 4.348 0 3.419-3.831 8.318-5.745 13.44-5.249l0 0c7.417.716 13.548 6.85 14.26 14.267C70.07 28.844 69.889 30.851 69.336 32.777zM32.729 23.234c-.364 0-.476.364-.504.672-.42 3.192-2.968 7-4.228 9.744-1.176-2.912-1.932-7.056-3.388-8.903-.476-.589-1.316-1.513-3.052-1.513-.56 0-.896.196-.896.504 0 .42.28 1.288.28 3.612 0 4.312-.812 7.868-.812 10.444 0 1.848.672 2.436 1.624 2.436.728 0 1.736-.336 1.736-.84 0-.28-.504-.98-.504-3.164 0-1.708.168-3.976.364-6.076 1.54 3.276 1.904 8.4 4.368 8.4.588 0 .896-.364.952-.756.476-2.717 2.072-5.376 3.36-7.729-.196 3.108-.7 5.712-.7 7.729 0 1.848 1.26 2.52 2.408 2.52.532 0 1.624-.28 1.624-.924 0-.28-.616-.532-.616-2.38 0-3.22 1.204-9.408 1.204-11.396C35.95 24.298 34.718 23.234 32.729 23.234zM60.729 31.746c0-1.513-.924-2.408-2.016-2.408-1.344 0-2.632 1.008-3.472 2.408-.336-1.372-1.092-2.269-2.296-2.269-1.428 0-2.408 1.064-3.052 2.38-.336-1.372-1.316-2.156-2.184-2.156-.336 0-.644.112-.644.393 0 .42.224.784.224 2.128 0 .158-.011.327-.022.495-.416.261-.923.429-1.518.429h-.336c-.112-2.156-.784-3.444-2.296-3.444-.084 0-.168 0-.224.028-.364-.196-.784-.28-1.232-.28-2.66 0-4.9 2.996-4.9 6.244 0 2.688 1.624 4.396 3.92 4.396 2.604 0 4.368-2.24 4.676-5.404.588-.01 1.176-.12 1.707-.311-.195 1.179-.447 2.346-.447 3.083 0 1.848 1.204 2.659 2.072 2.659.728 0 .868-.531.868-1.092 0-4.116 1.232-7.111 2.464-7.111.644 0 .84 1.008.84 2.296v.392c-.476 1.372-.84 3.22-.84 3.612 0 .979.448 1.735 1.484 1.735.756 0 1.204-.588 1.484-1.512.308-1.063.476-3.276.476-4.592v-.168c.476-1.008 1.092-1.792 1.68-1.792.42 0 .7.364.7.896 0 1.316-.728 2.66-.728 4.396 0 1.456.616 2.939 2.576 2.939.756 0 1.316-.363 1.316-.783 0-.336-1.008-.757-1.008-2.94C60.001 35.246 60.729 33.762 60.729 31.746zM41.158 38.242c-.924 0-1.484-1.231-1.484-2.8 0-2.156.924-4.452 1.876-4.452h.056c-.112.28-.14.561-.14.812 0 1.092.56 1.988 1.68 2.492C43.118 36.226 42.418 38.242 41.158 38.242zM59.056 15.857c-.745-.362-1.643-.049-2.003.695-.361.746-.05 1.644.696 2.004 4.365 2.115 4.836 6.129 4.855 6.314.074.775.727 1.357 1.492 1.357.045 0 .09-.002.136-.006.825-.074 1.434-.803 1.36-1.628C65.57 24.356 65.001 18.736 59.056 15.857z"/>
</svg>