<svg xmlns="http://www.w3.org/2000/svg" viewBox="0 0 80 80">
<path d="M60.828 69.449c-4.651-3.604-10.483-2.383-13.439-1.39-.195.066-.121.358.082.325 6.129-1.005 9.469 1.678 10.976 3.491.625.752 1.743.847 2.47.193C61.706 71.356 61.668 70.099 60.828 69.449zM30.656 67.606c-2.894-1.161-8.647-2.713-13.497.619-.875.601-.986 1.854-.239 2.608.688.695 1.809.664 2.476-.051 1.608-1.724 5.097-4.21 11.158-2.856C30.756 67.97 30.847 67.683 30.656 67.606zM69.724 49.517c0-1.122-1.012-1.984-2.117-1.789-13.695 2.417-21.83 13.19-24.535 17.399-.112.174.131.356.268.201 10.575-11.932 20.75-13.767 24.68-14.001C68.978 51.27 69.724 50.477 69.724 49.517zM60.843 33.522 60.843 33.522c-.457-.838-1.523-1.121-2.338-.624C46.68 40.099 43.776 52.582 43.105 56.97c-.031.202.257.27.326.078 5.136-14.36 13.228-19.583 16.67-21.224C60.964 35.413 61.3 34.361 60.843 33.522zM26.424 25.14c-.947-.657-2.245-.452-2.937.47-.716.955-.51 2.307.454 3.011 3.938 2.875 13.04 11.792 15.856 34.14.026.208.333.192.335-.018C40.189 55.574 39.247 34.043 26.424 25.14zM23.948 43.06c-.952-.509-2.133-.039-2.461.99-.281.881.183 1.825 1.053 2.14 2.976 1.079 9.438 4.35 13.179 13.2.074.175.337.115.322-.075C35.826 56.594 34.297 48.598 23.948 43.06zM5.694 53.258c-1.006.068-1.753.962-1.633 1.963.119.993 1.041 1.687 2.028 1.523 4.243-.707 15.359-1.467 26.571 6.865.157.116.353-.079.235-.235C30.771 60.572 22.876 52.102 5.694 53.258zM66.619 38.071 69.578 37.06 72.088 38.923 72.04 35.797 74.588 33.985 71.6 33.065 70.665 30.082 68.866 32.639 65.74 32.607 67.616 35.108zM14.286 41.484 16.382 43.804 16.948 40.729 19.802 39.452 17.052 37.964 16.72 34.855 14.455 37.01 11.395 36.365 12.745 39.186 11.186 41.896zM43.576 32.2 45.487 33.809 45.602 31.314 47.724 29.994 45.386 29.113 44.786 26.688 43.226 28.639 40.734 28.46 42.107 30.547 41.167 32.861zM73.673 57.717 73.225 55.259 71.547 57.11 69.07 56.777 70.312 58.945 69.23 61.196 71.676 60.685 73.484 62.41 73.753 59.926 75.952 58.74zM53.554 19.809 57.35 18.67 60.441 21.153 60.532 17.19 63.847 15.017 60.106 13.707 59.065 9.882 56.662 13.035 52.703 12.844 54.959 16.103zM15.513 23.557 17.904 20.395 21.864 20.573 19.596 17.322 20.989 13.61 17.196 14.762 14.097 12.291 14.021 16.254 10.712 18.438 14.458 19.736zM36.784 19.764c-1.0239 0-1.854.8301-1.854 1.854 0 1.0239.8301 1.854 1.854 1.854 1.0239 0 1.854-.8301 1.854-1.854 0-1.0239-.8301-1.854-1.854-1.854ZM60.027 61.26c0-1.024-.83-1.854-1.854-1.854-1.024 0-1.854.83-1.854 1.854 0 1.024.829 1.854 1.854 1.854C59.197 63.113 60.027 62.283 60.027 61.26zM17.249 62.401c0-1.024-.83-1.854-1.854-1.854-1.024 0-1.854.83-1.854 1.854 0 1.024.83 1.854 1.854 1.854C16.419 64.254 17.249 63.424 17.249 62.401zM60.17 42.009c-1.0239 0-1.854.8301-1.854 1.854 0 1.0239.8301 1.854 1.854 1.854 1.0239 0 1.854-.8301 1.854-1.854 0-1.0239-.8301-1.854-1.854-1.854ZM42.488 9.497c-1.2603 0-2.282 1.0217-2.282 2.282 0 1.2603 1.0217 2.282 2.282 2.282 1.2603 0 2.282-1.0217 2.282-2.282 0-1.2603-1.0217-2.282-2.282-2.282ZM70.722 19.764c-1.0239 0-1.854.8301-1.854 1.854 0 1.0239.8301 1.854 1.854 1.854 1.0239 0 1.854-.8301 1.854-1.854 0-1.0239-.8301-1.854-1.854-1.854ZM8.55 30.316c1.024 0 1.854-.83 1.854-1.854 0-1.024-.83-1.854-1.854-1.854-1.024 0-1.854.83-1.854 1.854C6.696 29.486 7.526 30.316 8.55 30.316z"/>
</svg>