<svg xmlns="http://www.w3.org/2000/svg" viewBox="0 0 80 80">
<path d="M67.553 38.378c.019.001.038.001.057.001.47 0 .865-.366.895-.84l.138-2.191c.031-.495-.345-.921-.839-.953-.497-.026-.921.345-.952.839l-.138 2.191C66.682 37.92 67.058 38.346 67.553 38.378zM67.472 39.66c-.498-.021-.921.346-.952.84l-.137 2.191c-.031.494.345.92.839.952.019.001.038.001.058.001.47 0 .864-.366.894-.841l.137-2.191C68.343 40.118 67.967 39.692 67.472 39.66zM68.154 39.059c-.031.495.345.921.839.953l2.191.138c.02.001.038.001.058.001.47 0 .865-.366.894-.84.032-.495-.344-.921-.839-.953l-2.191-.138C68.61 38.195 68.185 38.565 68.154 39.059zM62.888 38.727c-.031.495.345.921.839.953l2.191.138c.019.001.038.001.057.001.47 0 .865-.366.895-.84.031-.495-.345-.921-.839-.953l-2.191-.138C63.346 37.854 62.919 38.233 62.888 38.727zM46.48 19.32l-.084 1.825c-.023.495.36.916.855.938.014.001.028.001.042.001.477 0 .873-.375.896-.856l.084-1.825c.023-.495-.359-.916-.854-.938C46.921 18.445 46.502 18.825 46.48 19.32zM47.048 26.47c.014.001.028.001.043.001.477 0 .873-.375.895-.856l.084-1.826c.023-.495-.36-.916-.855-.938-.497-.022-.915.359-.938.854l-.084 1.826C46.171 26.028 46.553 26.448 47.048 26.47zM47.617 22.485c-.023.495.36.915.855.938l1.825.084c.014.001.028.001.043.001.477 0 .873-.375.895-.856.023-.495-.359-.915-.854-.938l-1.826-.084C48.077 21.606 47.64 21.99 47.617 22.485zM44.086 23.221l1.825.083c.014.001.027.001.042.001.477 0 .874-.375.896-.857.022-.495-.36-.915-.856-.937l-1.826-.083c-.496-.067-.915.359-.937.856C43.207 22.78 43.591 23.199 44.086 23.221zM61.181 29.725c.006 0 .012 0 .017 0 .496-.009.89-.418.881-.914l-.035-1.827c-.009-.497-.414-.906-.914-.881-.496.009-.89.418-.881.914l.035 1.827C60.293 29.335 60.693 29.725 61.181 29.725zM61.264 34.116c.005 0 .012 0 .018 0 .495-.009.89-.418.88-.914l-.034-1.827c-.01-.496-.427-.879-.915-.881-.495.009-.89.418-.88.914l.034 1.827C60.376 33.726 60.776 34.116 61.264 34.116zM61.59 30.102c.009.49.409.881.897.881.005 0 .011 0 .016 0l1.827-.034c.495-.009.89-.418.881-.914-.009-.495-.395-.879-.914-.881l-1.827.034C61.975 29.197 61.581 29.607 61.59 30.102zM58.079 29.272c-.495.01-.89.418-.88.915.009.49.409.88.897.88.006 0 .012 0 .018 0l1.827-.035c.496-.01.89-.418.88-.915-.009-.495-.413-.842-.914-.88L58.079 29.272zM43.318 13.592c-.011.495.381.906.877.917l2.195.049c.007 0 .014 0 .021 0 .486 0 .886-.389.897-.878.011-.495-.382-.906-.878-.917l-2.195-.049C43.746 12.714 43.329 13.096 43.318 13.592zM38.92 14.39l2.195.049c.007 0 .014 0 .021 0 .486 0 .886-.389.897-.878.012-.495-.382-.906-.877-.917l-2.195-.049c-.501-.039-.906.381-.917.878C38.032 13.968 38.424 14.379 38.92 14.39zM42.661 14.219c-.512-.005-.906.382-.917.878l-.049 2.195c-.012.495.381.906.876.917.008 0 .014 0 .021 0 .486 0 .886-.389.897-.878l.049-2.195C43.549 14.641 43.156 14.23 42.661 14.219zM42.689 12.934c.008 0 .014 0 .021 0 .486 0 .886-.389.897-.878l.049-2.195c.011-.495-.382-.906-.878-.917-.512-.019-.906.382-.917.878l-.049 2.195C41.801 12.512 42.194 12.923 42.689 12.934zM74.795 42.469c-.329-.37-.897-.403-1.267-.073-.045.041-4.542 3.968-10.17 2.214-3.51-1.096-7.071-.664-9.696.004-.157-.517-.34-1.047-.578-1.604-.436-1.02-1.005-2.075-1.667-3.142 1.815-1.146 3.885-2.181 6.047-2.721.481-.121.773-.608.653-1.089-.121-.481-.607-.769-1.088-.653-2.394.598-4.649 1.723-6.605 2.959-1.176-1.664-2.583-3.331-4.168-4.916-.334-.334-.673-.656-1.013-.974 1.572-1.337 3.65-2.601 6.441-3.532 7.436-2.479 11.598-9.576 11.771-9.877.248-.428.101-.977-.329-1.225-.429-.25-.977-.101-1.226.328-.039.068-4.008 6.812-10.784 9.072-3.142 1.047-5.47 2.493-7.222 4.026-1.104-.94-2.226-1.781-3.341-2.52.331-.856.603-1.777.755-2.749.077-.49-.259-.949-.748-1.025-.489-.077-.949.257-1.025.747-.112.717-.303 1.405-.538 2.059-.781-.447-1.552-.837-2.304-1.159-.328-.14-.643-.255-.957-.367.996-3.012 1.791-7.109.414-10.474-2.018-4.933 1.374-9.39 1.409-9.433.303-.391.234-.954-.157-1.259-.39-.305-.953-.237-1.258.153-.168.214-4.075 5.304-1.655 11.218 1.179 2.881.423 6.568-.493 9.304-2.066-.419-3.724-.114-4.778.942-.537.537-.877 1.232-1.033 2.054-.033.043-.076.077-.101.127L7.248 69.589c-.488.955-.309 2.058.452 2.813.47.466 1.071.707 1.686.707.381 0 .768-.093 1.132-.283l41.117-21.488c.526-.189.984-.473 1.364-.853.939-.939 1.291-2.351 1.063-4.107 2.396-.611 5.645-1.024 8.761-.055 6.586 2.053 11.684-2.397 11.897-2.587C75.092 43.407 75.125 42.84 74.795 42.469zM28.43 32.142c.172.646.397 1.321.702 2.035 1.318 3.081 3.743 6.478 6.829 9.563 3.086 3.086 6.482 5.512 9.563 6.829.79.338 1.539.589 2.245.764l-8.303 4.339c-.169-.359-.305-.753-.45-1.177-.365-1.063-.779-2.267-1.874-3.361-1.128-1.128-2.396-1.57-3.515-1.959-.803-.279-1.496-.52-1.935-.959-.561-.561-.815-1.299-1.109-2.153-.365-1.063-.779-2.267-1.873-3.361-1.128-1.128-2.396-1.57-3.515-1.959-.353-.123-.68-.241-.979-.369L28.43 32.142zM16.762 66.039c-.802-.279-1.495-.519-1.933-.957l0 0c-.561-.562-.815-1.3-1.109-2.155-.131-.381-.274-.776-.444-1.177l1.527-2.983c.444.213.911.375 1.37.535.983.342 1.999.696 2.836 1.533.801.802 1.114 1.712 1.446 2.676.198.575.413 1.159.721 1.719l-2.792 1.459C17.823 66.421 17.263 66.213 16.762 66.039zM22.153 62.928c-.365-1.063-.779-2.267-1.874-3.361-1.128-1.128-2.396-1.57-3.514-1.959-.418-.146-.804-.282-1.143-.44l2.72-5.315c.244.166.464.347.668.55.801.802 1.114 1.712 1.446 2.676.335.975.682 1.984 1.536 2.838.73.73 1.687 1.063 2.614 1.385.983.342 1.998.696 2.836 1.534.237.236.436.505.62.796L22.766 64.4C22.52 63.965 22.34 63.474 22.153 62.928zM28.71 59.567c-1.128-1.128-2.396-1.57-3.515-1.959-.802-.279-1.495-.52-1.934-.959-.561-.562-.815-1.299-1.108-2.154-.365-1.063-.779-2.267-1.874-3.361-.33-.331-.712-.613-1.122-.874l1.524-2.979c.285.769.641 1.534 1.311 2.204.73.73 1.687 1.063 2.614 1.385.983.342 1.998.696 2.835 1.533.802.802 1.115 1.712 1.446 2.676.335.975.682 1.984 1.536 2.838.649.649 1.479.982 2.307 1.275l-3.085 1.612C29.374 60.352 29.077 59.934 28.71 59.567zM33.627 57.608c-.803-.279-1.496-.52-1.935-.959-.561-.562-.815-1.299-1.109-2.154-.365-1.063-.778-2.267-1.873-3.361-1.128-1.128-2.396-1.57-3.515-1.959-.802-.279-1.495-.52-1.934-.959-.561-.562-.815-1.299-1.108-2.153-.108-.315-.225-.637-.355-.964l1.601-3.127c.394.177.802.325 1.207.466.983.342 1.998.696 2.835 1.533.802.802 1.115 1.712 1.446 2.675.335.976.682 1.984 1.536 2.838.729.73 1.688 1.063 2.614 1.385.983.342 1.999.696 2.836 1.533.802.802 1.114 1.712 1.446 2.675.163.475.331.957.557 1.426l-3.016 1.576C34.431 57.899 34.009 57.741 33.627 57.608zM9.687 71.235c-.362.193-.627-.013-.724-.11-.076-.075-.307-.347-.117-.721l3.32-6.489c.3.846.656 1.697 1.392 2.434l.635-.634L13.56 66.35c.729.73 1.687 1.063 2.612 1.384.042.015.085.031.127.046L9.687 71.235zM51.732 49.216c-.916.916-2.921.806-5.501-.297-2.876-1.23-6.072-3.52-9-6.448-2.928-2.928-5.218-6.124-6.448-9.001-1.104-2.58-1.212-4.585-.297-5.501.412-.412 1.043-.616 1.849-.616.316 0 .666.043 1.031.105-.521 1.282-.962 2.113-.975 2.138-.236.436-.073.98.363 1.216.135.073.282.108.426.108.319 0 .627-.17.79-.47.061-.114.573-1.077 1.15-2.521.282.101.569.208.867.335.745.319 1.513.712 2.291 1.166-1.178 2.304-2.692 3.847-2.715 3.869-.349.352-.348.919.002 1.27.175.174.405.262.634.262.229 0 .459-.088.634-.263.1-.1 1.684-1.711 2.968-4.17.93.629 1.865 1.335 2.791 2.116-3.187 3.439-3.742 6.913-3.773 7.139-.07.49.269.942.759 1.013.044.007.087.01.13.01.438 0 .821-.321.887-.766.03-.197.526-3.197 3.34-6.21.354.328.706.665 1.053 1.012 1.504 1.504 2.836 3.079 3.946 4.645-3.041 2.162-5.067 4.338-5.21 4.494-.335.365-.311.932.054 1.268.172.159.39.237.607.237.242 0 .484-.097.661-.29.033-.036 1.981-2.124 4.884-4.199.598.968 1.112 1.925 1.507 2.847.21.492.372.954.511 1.401-1.363.457-2.241.884-2.34.933-.443.221-.622.76-.402 1.203.157.316.474.497.804.497.135 0 .272-.031.4-.094.021-.01.747-.361 1.911-.759C52.407 47.925 52.218 48.729 51.732 49.216z"/>
</svg>