<svg xmlns="http://www.w3.org/2000/svg" viewBox="0 0 80 80">
<path d="M59.352 26.323c0-12.797-8.681-23.207-19.352-23.207-10.671 0-19.352 10.41-19.352 23.207 0 5.895 2.28 11.599 6.421 16.06 2.912 3.137 6.447 5.286 9.892 6.114-1.022 1.02-1.637 2.194-1.748 2.415-.13.261-.146.564-.042.837.103.273.317.489.587.597.96.383 2.046.558 3.122.616.531.431 2.767 2.583.81 6.987-1.514 3.407-.69 5.14.037 6.669.618 1.299 1.201 2.524.433 5.193-.936 3.248-1.011 5.611-.222 7.023.473.847 1.099 1.077 1.279 1.127C41.31 79.988 41.404 80 41.497 80c.456 0 .875-.301 1.004-.762.144-.516-.127-1.049-.612-1.246-.108-.102-1.016-1.126.274-5.604.987-3.426.133-5.221-.553-6.665-.662-1.391-1.14-2.396-.015-4.926 1.564-3.519.98-6.199-.052-7.897 1.695-.161 2.982-.484 3.089-.511.315-.08.574-.303.7-.602.127-.299.108-.64-.052-.922-.567-.999-1.161-1.809-1.779-2.431C51.559 46.389 59.352 37.602 59.352 26.323zM37.771 50.751c.619-.825 1.533-1.731 2.484-1.756.893-.015 1.73.742 2.414 1.662C41.288 50.875 39.382 51.035 37.771 50.751zM40 46.803c-6.874 0-17.267-8.168-17.267-20.48 0-11.647 7.746-21.123 17.267-21.123 9.522 0 17.268 9.476 17.268 21.123C57.268 38.045 48.151 46.803 40 46.803zM37.743 7.989c-.253.083-6.231 2.14-9.597 8.873-.258.515-.049 1.141.466 1.398.15.074.308.11.465.11.382 0 .75-.211.933-.576 2.966-5.933 8.34-7.811 8.394-7.829.545-.183.839-.773.657-1.318C38.88 8.102 38.29 7.809 37.743 7.989zM27.617 20.894c-.515-.255-1.141-.05-1.398.466-.077.154-.752 1.584-.752 4.321 0 .576.467 1.042 1.042 1.042.576 0 1.042-.466 1.042-1.042 0-2.216.519-3.36.536-3.396C28.338 21.772 28.129 21.151 27.617 20.894z"/>
</svg>