<svg xmlns="http://www.w3.org/2000/svg" viewBox="0 0 80 80">
<path d="M73.576 61.278h-3.477V48.952c0-2.46-2.001-4.462-4.462-4.462h-2.865V34.007c0-2.162-1.76-3.922-3.923-3.922h-2.128v-5.404c0-1.416-1.152-2.568-2.569-2.568h-1.954c-1.416 0-2.569 1.152-2.569 2.568v5.404h-6.083v-7.71c0-1.416-1.152-2.568-2.569-2.568h-1.955c-1.416 0-2.569 1.152-2.569 2.568v7.71h-6.082v-5.404c0-1.416-1.152-2.568-2.569-2.568h-1.955c-1.416 0-2.569 1.152-2.569 2.568v5.404h-2.127c-2.163 0-3.922 1.76-3.922 3.922V44.49h-2.866c-2.46 0-4.462 2.002-4.462 4.462v12.326H6.424c-1.573 0-2.852 1.279-2.852 2.851v4.112c0 1.573 1.279 2.852 2.852 2.852h67.152c1.573 0 2.852-1.279 2.852-2.852v-4.112C76.428 62.557 75.148 61.278 73.576 61.278zM51.451 24.681c0-.412.335-.746.746-.746h1.954c.412 0 .747.335.747.746v5.404h-3.447V24.681zM38.276 22.376c0-.412.335-.746.746-.746h1.955c.412 0 .747.335.747.746v7.71h-3.448V22.376zM25.847 23.935h1.955c.412 0 .747.335.747.746v5.404h-3.448v-5.404C25.101 24.27 25.436 23.935 25.847 23.935zM21.151 31.907h3.038.911 3.448 9.727 3.448 9.728 3.447.911 3.039c1.158 0 2.1.942 2.1 2.1v10.688c-1.143.385-1.91 1.103-2.604 1.769-.9.863-1.611 1.545-3.119 1.545-1.508 0-2.219-.682-3.119-1.545-1.003-.962-2.139-2.052-4.381-2.052-2.24 0-3.376 1.09-4.378 2.052-.899.863-1.609 1.545-3.116 1.545-1.505 0-2.214-.682-3.113-1.545-1.002-.962-2.136-2.052-4.375-2.052-2.239 0-3.375 1.09-4.377 2.052-.899.863-1.608 1.545-3.114 1.545-1.506 0-2.216-.682-3.114-1.545-.787-.756-1.666-1.584-3.09-1.906V34.007C19.051 32.849 19.993 31.907 21.151 31.907zM14.363 46.312h4.177c1.002.196 1.612.769 2.339 1.467 1.002.962 2.137 2.052 4.376 2.052 2.239 0 3.375-1.09 4.377-2.052.899-.863 1.608-1.545 3.114-1.545 1.505 0 2.214.682 3.113 1.545 1.002.962 2.136 2.052 4.375 2.052 2.24 0 3.376-1.09 4.378-2.052.899-.863 1.609-1.545 3.116-1.545 1.509 0 2.219.682 3.119 1.545 1.002.962 2.139 2.052 4.38 2.052 2.241 0 3.377-1.09 4.38-2.052.728-.698 1.34-1.271 2.343-1.467h3.688c1.456 0 2.64 1.185 2.64 2.64v12.326H11.723V48.952C11.723 47.496 12.907 46.312 14.363 46.312zM74.606 68.241c0 .567-.462 1.03-1.03 1.03H6.424c-.567 0-1.029-.463-1.029-1.03v-4.112c0-.567.462-1.029 1.029-1.029h4.388.911 56.554.911 4.388c.568 0 1.03.462 1.03 1.029V68.241zM39.636 18.577c.116.05.24.076.364.076.115 0 .23-.021.339-.065 1.849-.741 2.92-1.847 3.184-3.289.531-2.901-2.553-5.828-2.906-6.153-.365-.335-.931-.318-1.274.041-2.062 2.15-2.921 4.168-2.554 5.998C37.255 17.516 39.539 18.535 39.636 18.577zM40.024 11.155c.851.972 1.938 2.556 1.705 3.818-.129.698-.695 1.288-1.685 1.756-.459-.286-1.272-.918-1.469-1.902C38.37 13.805 38.87 12.546 40.024 11.155zM26.267 20.822c.116.05.24.076.364.076.115 0 .23-.021.339-.066 1.849-.74 2.921-1.846 3.184-3.289.53-2.901-2.553-5.827-2.907-6.152-.365-.336-.931-.317-1.274.041-2.061 2.149-2.92 4.168-2.554 5.997C23.886 19.76 26.17 20.78 26.267 20.822zM26.656 13.4c.851.972 1.936 2.555 1.704 3.818-.128.697-.695 1.288-1.684 1.756-.463-.289-1.28-.924-1.473-1.915C25.006 16.038 25.506 14.785 26.656 13.4zM52.736 20.832c.109.044.224.066.339.066.124 0 .248-.026.364-.076.097-.042 2.381-1.062 2.847-3.392.366-1.83-.493-3.848-2.554-5.997-.343-.358-.909-.376-1.274-.041-.354.325-3.437 3.251-2.907 6.152C49.815 18.986 50.887 20.092 52.736 20.832zM53.05 13.4c1.151 1.385 1.651 2.638 1.453 3.659-.193.991-1.009 1.626-1.473 1.915-.99-.468-1.556-1.059-1.684-1.756C51.113 15.955 52.199 14.372 53.05 13.4z"/>
</svg>