<svg xmlns="http://www.w3.org/2000/svg" viewBox="0 0 80 80">
<path d="M62.22 34.465h-7.619V30.47c.488.153 1 .244 1.527.244 2.845 0 5.16-2.315 5.16-5.16 0-1.387-.552-2.7-1.53-3.666.002-.051.002-.102.002-.153 0-2.093-1.294-3.985-3.203-4.772-.483-1.993-2.138-3.54-4.165-3.879-.971-1.327-2.497-2.109-4.156-2.109-.959 0-1.882.263-2.684.754-.913-1.552-2.584-2.536-4.444-2.536-1.025 0-2 .296-2.846.859-.732-.142-1.474-.121-2.174.045-.844-1.767-2.653-2.941-4.655-2.941-2.823 0-5.124 2.279-5.159 5.094-1.345.017-2.608.55-3.554 1.485-.475-.142-.968-.213-1.471-.213-1.902 0-3.636 1.045-4.534 2.699-2.273.556-3.936 2.634-3.936 5.007 0 .666.13 1.33.38 1.945-.577.85-.889 1.86-.889 2.894 0 2.496 1.783 4.582 4.141 5.057v31.698c0 5.151 4.176 9.326 9.326 9.326h19.537c4.841 0 8.82-3.689 9.281-8.41h7.665c3.755 0 6.81-3.055 6.81-6.81V41.274C69.03 37.52 65.975 34.465 62.22 34.465zM13.934 26.064c0-.824.294-1.624.827-2.254.22-.261.259-.63.097-.931-.275-.514-.415-1.07-.415-1.653 0-1.709 1.275-3.192 2.964-3.449.282-.044.523-.229.637-.491.556-1.276 1.815-2.101 3.205-2.101.48 0 .945.096 1.383.285.343.15.745.049.979-.244.813-1.015 2.142-1.506 3.415-1.247.273.056.555-.03.751-.227.196-.197.281-.478.227-.751-.045-.227-.068-.458-.068-.686 0-1.927 1.569-3.496 3.496-3.496 1.554 0 2.936 1.044 3.36 2.541.066.23.226.42.441.523.216.102.465.109.685.015.714-.305 1.511-.369 2.299-.149.255.068.528.016.736-.147.622-.488 1.367-.746 2.153-.746 1.524 0 2.861.975 3.328 2.425.088.274.311.483.59.552.279.073.574-.008.78-.209.657-.636 1.52-.986 2.431-.986 1.216 0 2.327.621 2.971 1.66.138.224.375.369.637.391 1.614.137 2.944 1.402 3.161 3.009.044.325.274.593.588.686 1.475.436 2.504 1.815 2.504 3.351 0 .137-.01.27-.025.401-.031.278.079.553.294.732.8.668 1.259 1.646 1.259 2.686 0 1.927-1.568 3.496-3.496 3.496-1.454 0-2.77-.919-3.276-2.287-.095-.255-.308-.448-.572-.516-.263-.065-.544-.002-.751.175-.98.842-2.398 1.078-3.599.585-.38-.154-.816-.01-1.027.342-.64 1.065-1.761 1.701-2.996 1.701-.849 0-1.669-.312-2.311-.878-.227-.201-.545-.262-.831-.16-.285.102-.493.352-.541.65-.276 1.701-1.725 2.934-3.447 2.934-1.099 0-2.114-.506-2.783-1.388-.162-.213-.409-.33-.663-.33-.124 0-.249.028-.366.086-.486.238-1.002.359-1.534.359-1.609 0-3.003-1.092-3.39-2.655-.065-.265-.255-.479-.509-.577-.254-.096-.539-.065-.764.087-1.389.941-3.408.702-4.546-.556-.205-.225-.516-.319-.812-.251-.296.072-.529.299-.608.594-.408 1.527-1.795 2.593-3.373 2.593C15.502 29.56 13.934 27.991 13.934 26.064zM24.304 64.125c0 .914-.741 1.655-1.655 1.655-.914 0-1.655-.741-1.655-1.655V37.138c0-.914.741-1.655 1.655-1.655.914 0 1.655.741 1.655 1.655V64.125zM32.96 64.125c0 .914-.741 1.655-1.655 1.655-.914 0-1.655-.741-1.655-1.655V37.138c0-.914.741-1.655 1.655-1.655.914 0 1.655.741 1.655 1.655V64.125zM41.616 64.125c0 .914-.741 1.655-1.655 1.655-.914 0-1.655-.741-1.655-1.655V37.138c0-.914.741-1.655 1.655-1.655.914 0 1.655.741 1.655 1.655V64.125zM50.272 64.125c0 .914-.741 1.655-1.655 1.655-.914 0-1.655-.741-1.655-1.655V37.138c0-.914.741-1.655 1.655-1.655.914 0 1.655.741 1.655 1.655V64.125zM65.465 56.926c0 1.789-1.456 3.245-3.245 3.245h-7.619V38.029h7.619c1.79 0 3.245 1.456 3.245 3.245V56.926z"/>
</svg>