<svg xmlns="http://www.w3.org/2000/svg" viewBox="0 0 80 80">
<path d="M50.64 25.719c-.563-.563-1.479-.563-2.042 0l-1.67 1.67c-.518.518-.536 1.323-.101 1.889-3.336 3.317-9.138 8.708-13.216 9.873-4.185 1.196-9.564 2.391-15.99 8.817L5.122 60.467c-1.187 1.187-1.187 3.111.001 4.298L15.472 75.11c1.187 1.187 3.111 1.186 4.297 0l12.499-12.5c6.426-6.426 7.622-11.806 8.817-15.99 1.168-4.087 6.578-9.904 9.893-13.237.555.334 1.276.288 1.754-.19l1.67-1.67c.563-.563.563-1.479-.001-2.042L50.64 25.719zM17.546 49.687l13.001 13.001-6.426 6.426L11.12 56.113 17.546 49.687zM8.547 66.332l-1.305-1.305c-.369-.369-.369-.968 0-1.337l5.13-5.129 2.643 2.642-5.13 5.129C9.515 66.701 8.916 66.701 8.547 66.332zM30.624 62.611l.222-.222 0 0L30.624 62.611zM36.581 41.822c-2.391 1.793-9.014 6.827-11.828 9.641l-2.117 2.117-2.643-2.642 2.092-2.092c5.38-5.38 8.07-5.38 12.702-8.219 4.633-2.839 9.116-7.024 12.703-10.61l.997.997C44.303 35.198 38.972 40.029 36.581 41.822zM49.42 30.776l-1.918-1.918c-.247-.246-.247-.648 0-.895l1.67-1.67c.247-.247.648-.247.895 0l1.918 1.918L49.42 30.776zM66.833 26.855c-4.246-.622-8.901.896-10.985 1.704-.117.046-.062.221.061.194 5.276-1.118 9.024-.551 10.6-.186.465.108.929-.177 1.044-.64C67.675 27.428 67.342 26.929 66.833 26.855zM69.256 21.19c-6.479.232-11.157 3.626-12.964 5.174-.102.087.012.246.128.179 5.807-3.39 11.049-3.723 12.875-3.724.398 0 .736-.288.801-.681C70.182 21.627 69.774 21.172 69.256 21.19zM55.644 20.776c1.388-1.753 4.212-5.753 4.869-9.993.079-.508-.299-.974-.813-1.003-.477-.028-.885.332-.92.808-.116 1.614-.679 5.362-3.304 10.073C55.415 20.771 55.565 20.875 55.644 20.776zM51.334 24.047c1.309-1.926 4.104-6.846 3.625-13.175-.038-.506-.526-.853-1.014-.715-.375.106-.618.467-.575.854.198 1.776.443 6.913-2.224 12.931C51.092 24.062 51.26 24.156 51.334 24.047zM53.901 26.559l12.817-11.597c.458-.414.48-1.119.049-1.53-.418-.4-1.096-.362-1.496.083L53.709 26.368C53.591 26.5 53.769 26.679 53.901 26.559zM77.076 5.804 74.392 3.12c-.923-.923-2.424-.923-3.347 0l-1.573 1.573c-.595.595-.599 1.559-.013 2.16L67.621 8.69c-.553.553-.553 1.453 0 2.006l1.88 1.879c.553.553 1.453.553 2.006 0l1.837-1.837c.601.585 1.565.582 2.16-.013l1.573-1.573C77.999 8.229 77.999 6.727 77.076 5.804zM69.159 11.038l-.94-.94c-.223-.223-.223-.587 0-.811l1.836-1.836L71.4 8.796 69.159 11.038zM72.297 8.497l-2.228-2.228c-.27-.27-.27-.709 0-.978l1.573-1.573c.593-.593 1.559-.593 2.152 0l1.641 1.641L72.297 8.497z"/>
</svg>