<svg xmlns="http://www.w3.org/2000/svg" viewBox="0 0 80 80">
<path d="M70.384 30.247c0-11.891-8.074-21.565-17.999-21.565-4.272 0-8.196 1.8-11.286 4.79-3.18-5.646-8.534-9.097-14.275-9.097-9.489 0-17.208 9.245-17.208 20.608 0 5.234 2.025 10.299 5.701 14.259 2.516 2.712 5.561 4.604 8.546 5.383-.81.867-1.295 1.792-1.388 1.978-.133.265-.148.574-.042.852.105.278.322.498.598.608.847.339 1.804.497 2.751.552.503.426 2.28 2.271.638 5.964-1.361 3.063-.62 4.623.034 5.999.556 1.169 1.036 2.178.373 4.48-.836 2.902-.898 5.023-.183 6.302.444.795 1.042 1.014 1.214 1.061.095.027.191.039.286.039.464 0 .891-.307 1.021-.776.144-.516-.119-1.049-.597-1.257-.103-.12-.768-1.079.299-4.782.885-3.073.12-4.684-.496-5.978-.567-1.193-.976-2.054-.011-4.226 1.346-3.029.913-5.368.054-6.905 1.396-.149 2.44-.407 2.53-.43.32-.082.584-.309.714-.613.129-.305.109-.652-.054-.939-.457-.805-.935-1.466-1.431-2.003 2.431-.654 4.822-1.986 6.936-3.893.885 1.605 1.958 3.127 3.243 4.511 2.658 2.864 5.878 4.851 9.029 5.651-.882.923-1.413 1.932-1.512 2.13-.133.265-.148.574-.043.852.106.278.322.498.598.608.89.356 1.895.52 2.891.576.503.419 2.45 2.375.694 6.327-1.418 3.192-.646 4.817.036 6.25.587 1.236 1.095 2.302.394 4.736-.873 3.031-.939 5.242-.197 6.572.456.816 1.066 1.04 1.242 1.088C53.58 79.988 53.676 80 53.77 80c.464 0 .891-.307 1.022-.776.145-.519-.123-1.056-.606-1.261-.106-.114-.851-1.101.293-5.075.923-3.205.124-4.884-.517-6.234-.601-1.264-1.034-2.177-.012-4.477 1.424-3.204.94-5.666.02-7.264 1.5-.154 2.629-.434 2.724-.459.32-.082.584-.309.713-.613.13-.305.11-.652-.053-.939-.496-.874-1.016-1.587-1.556-2.155C63.237 48.772 70.384 40.656 70.384 30.247zM25.119 46.423c.519-.647 1.223-1.287 1.937-1.305.575.018 1.214.411 1.862 1.22C27.806 46.498 26.376 46.605 25.119 46.423zM26.824 42.901c-6.833 0-15.085-7.993-15.085-17.918 0-10.193 6.767-18.485 15.085-18.485 5.163 0 9.993 3.292 12.75 8.626-3.204 3.895-5.188 9.235-5.188 15.124 0 2.905.612 5.754 1.746 8.413C33.344 41.354 29.99 42.901 26.824 42.901zM50.498 52.78c.557-.711 1.335-1.443 2.129-1.463.748.018 1.455.599 2.051 1.367C53.539 52.86 51.928 53.008 50.498 52.78zM52.385 49.095c-7.191 0-15.877-8.407-15.877-18.848 0-10.721 7.122-19.442 15.877-19.442 8.755 0 15.876 8.721 15.876 19.442C68.261 41.034 59.879 49.095 52.385 49.095zM50.267 13.195c-.235.078-5.802 1.993-8.934 8.258-.262.524-.05 1.162.475 1.424.152.076.314.112.474.112.389 0 .764-.215.95-.587 2.725-5.45 7.66-7.178 7.71-7.194.555-.187.854-.787.669-1.342C51.424 13.309 50.823 13.008 50.267 13.195zM40.973 25.138c-.523-.26-1.162-.051-1.424.475-.073.144-.706 1.485-.706 4.04 0 .587.475 1.061 1.061 1.061.586 0 1.061-.475 1.061-1.061 0-2.013.466-3.057.486-3.1C41.707 26.031 41.494 25.4 40.973 25.138zM24.789 8.679c-.225.075-5.551 1.907-8.546 7.897-.262.524-.05 1.162.475 1.424.152.076.314.112.474.112.389 0 .764-.215.95-.587 2.588-5.175 7.274-6.818 7.321-6.835.554-.186.854-.786.668-1.341C25.946 8.793 25.345 8.491 24.789 8.679zM15.967 20.067c-.524-.26-1.161-.05-1.424.475-.069.139-.678 1.429-.678 3.874 0 .587.475 1.061 1.061 1.061.586 0 1.061-.475 1.061-1.061 0-1.906.441-2.895.459-2.935C16.702 20.958 16.489 20.327 15.967 20.067z"/>
</svg>