<svg xmlns="http://www.w3.org/2000/svg" viewBox="0 0 80 80">
<path d="M59.641 28.125C59.641 15.099 50.83 4.5 40 4.5 29.17 4.5 20.359 15.099 20.359 28.125c0 11.602 8.941 21.139 17.263 22.725-1.369 1.13-2.197 2.746-2.248 2.849-.09.18-.1.389-.029.577.072.187.218.336.405.412 1.013.405 2.17.575 3.31.621.044.014.082.04.128.048.031.005.75.129 1.118.811.464.858.258 2.368-.58 4.253-1.569 3.53-.7 5.027.067 6.348.65 1.121 1.212 2.089.421 4.835-.963 3.343-1.042 5.772-.234 7.219.479.857 1.109 1.09 1.291 1.14C41.363 79.988 41.456 80 41.547 80c.449 0 .861-.296.987-.75.142-.511-.128-1.037-.61-1.229-.108-.095-1.098-1.134.26-5.851 1.033-3.586.118-5.164-.618-6.431-.644-1.11-1.11-1.912.034-4.486 1.139-2.562 1.304-4.606.497-6.078 1.444-.173 2.504-.436 2.6-.46.216-.055.395-.208.483-.415.087-.205.074-.44-.037-.635-.729-1.284-1.496-2.237-2.296-2.882C51.272 49.05 59.641 39.931 59.641 28.125zM28.149 33.727c-1.019 0-1.846-.826-1.846-1.846 0-1.02.826-1.846 1.846-1.846 1.02 0 1.846.826 1.846 1.846C29.994 32.901 29.168 33.727 28.149 33.727zM36.313 13.029c-4.102 2.84-6.541 7.367-6.897 12.293-.06.832-.656 1.538-1.538 1.538-.788 0-1.598-.709-1.538-1.538.213-2.945.96-5.817 2.39-8.413 1.455-2.643 3.56-4.826 6.031-6.536.686-.475 1.709-.124 2.105.552C37.307 11.681 36.995 12.557 36.313 13.029z"/>
</svg>