<svg xmlns="http://www.w3.org/2000/svg" viewBox="0 0 80 80">
<path d="M48.667 78.449c-6.724-.194-8.075-2.721-8.075-6.737V51.468c0-2.131 0-4.143 1.453-6.47.347-.555.896-1.181 1.533-1.907 2.013-2.295 5.055-5.766 5.296-11.541.076-1.815-.051-4.573-.379-8.198 0 0 0 0 0-.001-.778-8.703-2.466-19.707-2.483-19.817-.04-.257-.261-.447-.521-.447H33.4c-.26 0-.481.189-.521.447-.017.11-1.705 11.114-2.483 19.817 0 0 0 .001 0 .001-.328 3.625-.455 6.383-.379 8.198.241 5.775 3.283 9.246 5.296 11.541.636.725 1.186 1.352 1.533 1.907 1.453 2.326 1.453 4.339 1.453 6.47v20.244c0 4.016-1.35 6.543-8.076 6.737-.427.013-.765.369-.755.794C29.479 79.668 29.819 80 30.244 80h18.404c.424 0 .765-.332.776-.756C49.434 78.819 49.095 78.463 48.667 78.449zM41.253 34.674c-.206.189-.526.174-.715-.032-.189-.206-.174-.526.032-.715.206-.189.526-.174.715.032C41.474 34.165 41.46 34.486 41.253 34.674zM40.064 28.852c0-.372.302-.674.674-.674.372 0 .674.302.674.674 0 .372-.302.674-.674.674C40.366 29.526 40.064 29.225 40.064 28.852zM43.048 37.95c-.275.251-.702.232-.953-.043-.251-.275-.232-.702.044-.953.275-.251.702-.232.953.043C43.343 37.272 43.323 37.699 43.048 37.95zM42.762 31.887c-.372 0-.674-.302-.674-.674 0-.372.302-.674.674-.674.372 0 .674.302.674.674C43.436 31.585 43.134 31.887 42.762 31.887zM44.626 26.581c-.206.188-.526.174-.715-.033-.188-.206-.173-.526.032-.715.207-.188.527-.174.715.033C44.847 26.072 44.832 26.392 44.626 26.581zM32.576 25.214h1.714c0 0-2.241 8.955 2.133 15.231C36.423 40.445 30.996 37.33 32.576 25.214zM31.498 22.873c.702-7.567 2.039-16.634 2.355-18.731h11.186c.315 2.096 1.652 11.163 2.355 18.731H31.498zM40.064 41.498c-.279 0-.506-.227-.506-.506 0-.279.226-.506.506-.506.28 0 .506.226.506.506C40.57 41.272 40.343 41.498 40.064 41.498z"/>
</svg>