<svg xmlns="http://www.w3.org/2000/svg" viewBox="0 0 80 80">
<path d="M64.132 66.541l-3.746-7.9-4.62-9.742-2.441-5.135L49.35 35.41l-2.501-5.29c-.012 0-.012 0-.012 0l-3.207-6.775c.143-.024.287-.072.419-.155.514-.299.79-.862.694-1.46l-.299-1.807 1.795.323c.587.108 1.173-.156 1.472-.682.299-.515.251-1.149-.131-1.604l-1.161-1.424 1.724-.622c.562-.203.933-.718.933-1.317 0-.599-.359-1.125-.922-1.34l-1.711-.634 1.172-1.4c.395-.467.455-1.089.156-1.616-.299-.527-.874-.79-1.46-.694L44.503 9.21l.323-1.807c.095-.587-.168-1.161-.683-1.46-.514-.311-1.149-.251-1.616.12l-1.412 1.161-.622-1.711c-.203-.574-.73-.934-1.328-.934-.598.024-1.126.347-1.329.91L37.19 7.2l-1.4-1.173c-.455-.383-1.089-.443-1.615-.143-.515.299-.79.861-.694 1.46l.299 1.808-1.795-.323c-.598-.108-1.173.155-1.472.682-.299.515-.252 1.149.131 1.616l1.161 1.412-1.723.622c-.562.204-.933.718-.933 1.317 0 .599.359 1.125.922 1.34l1.712.646-1.185 1.389c-.383.467-.443 1.101-.144 1.616.299.527.874.79 1.46.694l1.807-.299-.323 1.807c-.096.586.168 1.161.683 1.472.06.036.119.072.191.096l-1.58 3.327-5.135 10.832-4.608 9.683c0 0 0 0 0 .012l-4.464 9.407-4.764 10.042c-.048.096-.072.203-.072.299 0 .323.048.634.144.934.694 2.178 3.65 3.854 7.672 5.039 4.009 1.185 9.084 1.879 13.979 2.095 1.137.048 2.298.072 3.483.072 12.256 0 25.278-2.849 25.278-8.139C64.204 66.744 64.18 66.637 64.132 66.541zM34.689 22.101c-.048-.024-.131-.096-.108-.227l.466-2.633c.036-.191-.023-.383-.167-.527-.132-.131-.335-.203-.527-.167l-2.633.443c-.131.024-.203-.06-.227-.108-.024-.06-.06-.155.024-.251l1.723-2.047c.12-.156.168-.347.12-.539-.048-.191-.192-.347-.371-.407l-2.501-.946c-.12-.048-.144-.144-.144-.203 0-.06.024-.168.144-.203l2.513-.922c.18-.06.323-.216.371-.395.06-.192.012-.395-.108-.539l-1.699-2.071c-.084-.108-.048-.203-.024-.251.036-.048.096-.12.227-.108l2.633.467c.191.036.394-.024.527-.155.144-.144.203-.335.167-.527L34.665 7.14c-.024-.12.06-.191.108-.215.047-.036.143-.072.251.024l2.047 1.711c.143.132.347.179.538.12.179-.048.335-.179.407-.359l.933-2.513c.048-.12.155-.132.216-.132.06.036.155.012.203.143l.909 2.514c.072.179.216.323.407.371.179.048.383.012.538-.12l2.059-1.699c.108-.084.203-.048.251-.012.048.024.131.096.108.227l-.467 2.633c-.036.192.024.383.168.527.131.132.335.204.527.168l2.633-.443c.131-.012.203.06.227.12.024.048.06.144-.024.239l-1.723 2.047c-.12.155-.168.347-.12.538.048.192.192.347.371.407l2.501.946c.12.048.144.143.144.204 0 .06-.024.167-.144.203l-2.514.922c-.179.06-.323.215-.371.395-.06.192-.012.395.108.539l1.699 2.071c.084.108.048.204.024.252-.036.048-.096.12-.227.108l-2.633-.467c-.191-.036-.395.024-.527.155-.143.144-.203.335-.168.527l.431 2.645c.024.12-.06.191-.108.215-.048.036-.144.072-.252-.012l-.227-.191-1.819-1.532c-.143-.132-.347-.18-.538-.12-.18.048-.335.18-.407.359l-.933 2.514c-.048.12-.155.131-.216.131-.06.012-.155-.012-.203-.143l-.909-2.514c-.072-.179-.216-.323-.407-.371-.048-.012-.108-.024-.155-.024-.144 0-.275.048-.383.143l-2.059 1.699c-.048.036-.108.048-.144.048C34.748 22.137 34.713 22.125 34.689 22.101zM33.875 27.439c.479-.191.945-.407 1.424-.61.263-.12.527-.228.79-.347.778-.347 1.556-.706 2.322-1.089 1.125-.562 2.227-1.161 3.304-1.771.12-.06.251-.12.359-.191l3.184 6.691c-.108.06-.216.12-.323.179-.922.503-1.855.994-2.801 1.472-1.113.551-2.238 1.065-3.363 1.556-.359.155-.718.287-1.077.443-.766.323-1.532.634-2.31.934-.431.156-.85.299-1.28.455-.694.251-1.389.491-2.083.706-.455.144-.909.275-1.352.407-.383.108-.766.215-1.137.311L33.875 27.439zM24.096 48.025c.227-.036.479-.096.718-.156.275-.048.551-.108.826-.167.311-.084.622-.156.946-.24.264-.072.539-.131.814-.215.323-.084.646-.179.97-.275.275-.084.551-.155.826-.251.323-.096.658-.215.994-.323.275-.084.551-.179.826-.275.335-.108.67-.239 1.005-.371.275-.096.563-.191.838-.299.335-.131.682-.275 1.029-.419.275-.108.551-.216.814-.335.383-.156.766-.335 1.149-.503.239-.108.479-.203.706-.311.622-.288 1.245-.574 1.855-.886.958-.467 1.891-.969 2.813-1.472.311-.179.598-.359.91-.539.598-.347 1.197-.694 1.783-1.053.335-.215.67-.431 1.005-.658.515-.335 1.03-.67 1.532-1.005.335-.239.67-.491.994-.73.335-.239.682-.467.993-.706l3.327 6.99c-.371.263-.742.515-1.125.778-.311.215-.622.431-.946.634-.479.323-.981.634-1.484.934-.311.203-.622.407-.945.598-.551.323-1.113.634-1.676.958-.287.155-.562.323-.85.479-.861.467-1.723.922-2.609 1.365-7.146 3.531-14.53 5.805-20.79 6.379-.359.036-.694.048-1.041.06L24.096 48.025zM58.183 59.479c-.263.251-.527.515-.802.778-.311.275-.634.562-.957.838-.288.251-.563.503-.862.754-.335.288-.694.563-1.041.838-.299.251-.598.491-.922.742-.359.275-.742.551-1.125.826-.311.227-.634.467-.957.706-.395.275-.814.551-1.221.826-.323.216-.646.443-.981.658-.443.275-.898.551-1.353.826-.323.204-.634.407-.957.598-.515.299-1.041.586-1.556.886-.288.156-.563.323-.838.479-.814.443-1.64.862-2.477 1.281-1.125.562-2.262 1.089-3.411 1.58-.383.168-.778.311-1.173.479-.73.299-1.46.611-2.203.886-10.161-.443-16.984-2.669-19.341-4.895h.072c.048.012.096.012.155.012.574.06 1.197.096 1.831.096h.132c.61 0 1.245-.024 1.903-.084.12 0 .227-.012.347-.024.646-.06 1.304-.132 1.975-.239.144-.024.275-.048.419-.06.682-.12 1.389-.251 2.106-.407.12-.024.227-.048.335-.072.742-.167 1.484-.347 2.25-.562.036-.012.072-.012.108-.024.778-.216 1.568-.467 2.37-.73.12-.036.251-.084.383-.12.766-.264 1.544-.539 2.334-.838.144-.06.299-.12.443-.179.79-.299 1.58-.634 2.382-.982.12-.048.239-.108.359-.156.838-.371 1.676-.766 2.501-1.173.838-.419 1.664-.85 2.466-1.292.072-.036.144-.072.203-.108.766-.431 1.508-.862 2.251-1.304.095-.06.203-.12.299-.18.706-.443 1.4-.886 2.071-1.329.108-.084.215-.155.323-.227.658-.443 1.292-.898 1.915-1.364.095-.072.203-.143.299-.227.61-.467 1.209-.934 1.771-1.401l.252-.215c.574-.479 1.125-.97 1.639-1.46.06-.048.108-.096.156-.144.538-.515 1.053-1.017 1.52-1.532.012-.012.012-.024.023-.024.467-.515.898-1.017 1.293-1.508.024-.036.06-.072.084-.108l3.89 8.199C58.65 59.025 58.411 59.252 58.183 59.479z"/>
</svg>