<svg xmlns="http://www.w3.org/2000/svg" viewBox="0 0 80 80">
<path d="M78.248 26.453c-.161-.411-.625-.612-1.037-.453C35.347 42.4 3.18 26.478 2.86 26.315c-.394-.202-.875-.044-1.076.35-.2.395-.044.876.35 1.076.215.109 3.614 1.811 9.559 3.548-.982 1.848-4.857 9.625-5.6 18.6-.027.327.147.637.44.782.293.146.646.099.89-.119l5.218-4.666 3.587 6.295c.146.255.415.403.695.403.091 0 .183-.016.272-.048.366-.132.583-.509.515-.893-.011-.063-1.089-6.521 3.118-17.951.03-.081.035-.163.038-.245.969.177 1.96.348 2.995.504.988.149 2.024.287 3.1.413-.366 2.381-1.586 10.913-1.616 18.886-.001.318.187.607.478.735.104.046.213.067.322.067.197 0 .393-.073.543-.213l5.237-4.847 4.585 4.635c.25.253.635.311.948.142.312-.168.477-.522.403-.869-.02-.092-1.9-9.173-1.306-17.884.663.013 1.335.021 2.018.021 1.59 0 3.239-.042 4.929-.123.313 1.828 1.555 9.848.747 17.937-.034.334.146.654.45.8.11.054.229.079.346.079.205 0 .407-.078.559-.228l4.318-4.219 5.167 4.093c.235.186.555.224.828.102.272-.124.454-.39.468-.689.022-.448.488-10.735-2.528-18.889 1.474-.219 2.976-.476 4.5-.769 2.593 7.628 4.59 16.178 4.61 16.263.081.347.38.598.734.618.015.001.03.001.045.001.336 0 .64-.212.753-.532l2.072-5.829 4.891 3.722c.257.195.605.218.884.056.279-.161.434-.475.393-.794-.869-6.788-4.611-13.26-5.994-15.464 3.588-.991 7.276-2.204 11.049-3.681C78.206 27.329 78.409 26.864 78.248 26.453zM15.985 48.524l-2.444-4.29c-.12-.21-.328-.354-.566-.394-.238-.037-.482.032-.662.193l-4.396 3.931c1.171-8.401 4.947-15.484 5.354-16.23 1.819.494 3.838.979 6.05 1.421C16.735 40.19 16.08 45.4 15.985 48.524zM35.835 50.673l-3.317-3.353c-.303-.307-.795-.317-1.112-.024l-4.433 4.103c.189-7.397 1.266-14.821 1.581-16.86 2.002.201 4.14.352 6.399.433C34.539 41.129 35.298 47.312 35.835 50.673zM54.817 51.121l-4.454-3.527c-.316-.252-.769-.228-1.056.055L46.01 50.87c.431-7.266-.567-14.036-.901-16.04 2.292-.146 4.667-.375 7.117-.699C54.562 40.201 54.825 47.857 54.817 51.121zM70.817 44.872l-4.147-3.156c-.203-.155-.468-.203-.713-.13-.244.072-.439.258-.525.499l-1.545 4.345c-.787-3.115-2.236-8.543-3.949-13.613 1.701-.354 3.43-.758 5.185-1.214C66.019 32.996 69.506 38.689 70.817 44.872z"/>
</svg>