<svg xmlns="http://www.w3.org/2000/svg" viewBox="0 0 80 80">
<path d="M74.611 64.521H5.389c-.85 0-1.538.689-1.538 1.538v3.496c0 .85.689 1.538 1.538 1.538h69.222c.85 0 1.538-.689 1.538-1.538v-3.496C76.149 65.209 75.461 64.521 74.611 64.521zM28.625 23.073c0-.843-.683-1.527-1.527-1.527h-2.002c-.843 0-1.527.683-1.527 1.527v5.551h5.056V23.073zM38.746 19.018c-.843 0-1.527.684-1.527 1.527v8.079h5.056v-8.079c0-.843-.684-1.527-1.527-1.527H38.746zM25.673 20.824c.261.151.582.149.848.006 4.085-2.199.973-6.209-.099-7.407-.172-.193-.474-.198-.649-.007C21.655 17.88 24.517 20.153 25.673 20.824zM25.647 16.49c2.471 2.528.393 3.539.393 3.539C23.569 18.906 25.647 16.49 25.647 16.49zM53.479 20.831c.266.143.587.145.848-.006 1.157-.671 4.018-2.944-.1-7.408-.175-.19-.477-.185-.65.007C52.505 14.622 49.393 18.631 53.479 20.831zM54.353 16.49c0 0 2.078 2.416-.393 3.539C53.96 20.029 51.882 19.018 54.353 16.49zM39.222 18.269c.324.188.722.185 1.052.008 5.067-2.728 1.207-7.701-.122-9.188-.214-.239-.588-.245-.806-.009C34.238 14.618 37.788 17.437 39.222 18.269zM39.696 12.893c3.065 3.136-.018 4.39-.018 4.39C36.612 15.89 39.696 12.893 39.696 12.893zM56.432 23.073c0-.843-.683-1.527-1.527-1.527h-2.002c-.843 0-1.527.683-1.527 1.527v5.551h5.056V23.073zM20.951 46.825c1.86 0 2.732-.756 3.835-1.713 1.198-1.039 2.688-2.331 5.491-2.331 2.802 0 4.292 1.293 5.489 2.331 1.103.957 1.975 1.713 3.833 1.713 1.86 0 2.731-.756 3.835-1.713 1.198-1.039 2.688-2.331 5.491-2.331 2.803 0 4.293 1.293 5.491 2.331 1.103.957 1.975 1.713 3.835 1.713 1.487 0 3.323-1.333 4.119-1.964.242-.192.38-.484.38-.792v-9.642c0-2.367-1.919-4.286-4.287-4.286H21.029c-2.367 0-4.286 1.919-4.286 4.286v9.881c0 .313.143.608.39.8C17.873 45.682 19.52 46.825 20.951 46.825zM69.829 48.944c0-2.165-2.036-3.764-4.135-3.236-2.437.612-4.638 3.14-7.442 3.14-2.803 0-4.294-1.293-5.492-2.331-1.103-.957-1.975-1.713-3.835-1.713-1.86 0-2.732.756-3.835 1.713-1.197 1.039-2.688 2.331-5.491 2.331-2.803 0-4.292-1.293-5.49-2.331-1.103-.957-1.974-1.713-3.833-1.713-1.86 0-2.731.756-3.835 1.713-1.197 1.039-2.688 2.331-5.491 2.331-2.803 0-4.293-1.293-5.49-2.331-.092-.08-.203-.158-.328-.233-2.182-1.315-4.963.359-4.963 2.906v13.309h59.659V48.944z"/>
</svg>