<svg xmlns="http://www.w3.org/2000/svg" viewBox="0 0 80 80">
<path d="M39.995 15.493l-9.571-2.896c-.261-.081-.538.043-.656.289-.04.083-4.012 8.39-6.713 15.096-.001.001-.001.001-.001.001-1.13 2.798-1.893 4.955-2.268 6.413-1.203 4.669.384 8.165 1.434 10.479.328.722.611 1.347.75 1.859.585 2.157.107 3.735-.398 5.405l-4.848 16.025c-.942 3.113-2.585 4.752-7.869 3.32-.401-.106-.817.132-.926.529-.108.392.121.807.51.924l14.567 4.408c.001 0 .001 0 .001 0 .074.023.148.033.221.033.318 0 .609-.201.716-.52.128-.392-.086-.82-.481-.954-5.188-1.735-5.646-4.012-4.705-7.125l4.848-16.025c.505-1.669.982-3.247 2.666-4.718.4-.35.981-.713 1.654-1.131 2.157-1.345 5.417-3.375 7.004-7.927.496-1.421 1.057-3.64 1.668-6.595 1.47-7.08 2.77-16.197 2.783-16.289C40.419 15.829 40.256 15.572 39.995 15.493zM23.838 43.001c0 0-3.55-3.766.602-12.978l1.357.411C25.797 30.434 21.879 36.986 23.838 43.001zM26.989 44.427c-.067.221-.3.346-.521.279-.221-.067-.346-.3-.279-.522.067-.221.3-.346.522-.279C26.931 43.973 27.056 44.206 26.989 44.427zM28.485 39.393c-.1-.209-.011-.458.197-.558.209-.1.458-.012.558.197.1.209.012.458-.197.558C28.834 39.69 28.585 39.601 28.485 39.393zM29.679 42.612c-.278.133-.611.015-.744-.263-.133-.278-.016-.611.262-.744.278-.133.611-.015.744.263C30.075 42.146 29.957 42.48 29.679 42.612zM29.869 35.392c-.295-.089-.462-.4-.372-.695.089-.295.4-.462.695-.372.295.089.462.401.372.695C30.475 35.314 30.163 35.481 29.869 35.392zM31.6 37.373c-.089.295-.4.462-.695.372-.295-.089-.462-.401-.372-.695.089-.295.4-.462.695-.372C31.523 36.766 31.689 37.078 31.6 37.373zM33.651 33.991c-.209.1-.458.012-.558-.197-.099-.208-.011-.458.197-.558.208-.1.458-.012.558.197C33.948 33.641 33.859 33.891 33.651 33.991zM36.642 31.572l-12.341-3.734c2.321-5.69 5.44-12.326 6.258-14.05l8.665 2.621C38.948 18.299 37.865 25.551 36.642 31.572zM72.762 69.728c-.049-.196-.171-.36-.345-.464-.174-.105-.379-.134-.572-.085-5.312 1.31-6.917-.368-7.788-3.501l-4.481-16.133c-.466-1.681-.908-3.268-.274-5.413.151-.509.448-1.127.793-1.842 1.103-2.289 2.769-5.749 1.673-10.443-.342-1.468-1.055-3.643-2.121-6.463 0-.001-.001-.001-.001-.001-2.547-6.768-6.328-15.163-6.366-15.248-.112-.247-.388-.377-.649-.303l-9.635 2.676c-.262.072-.431.325-.399.594.011.092 1.101 9.237 2.409 16.349 0 0 0 0 0 0 .542 2.966 1.052 5.197 1.516 6.629 1.483 4.588 4.695 6.693 6.821 8.086.663.434 1.235.809 1.628 1.168 1.649 1.509 2.09 3.098 2.557 4.78l4.48 16.132c.871 3.133.36 5.4-4.866 7.015-.399.123-.624.546-.503.944.1.326.396.535.723.535.067 0 .135-.01.203-.028l14.664-4.074c.001 0 .001 0 .001 0C72.629 70.529 72.862 70.128 72.762 69.728zM45.982 28.661c-1.085-6.049-2.001-13.324-2.234-15.219l8.723-2.423c.778 1.743 3.744 8.449 5.934 14.192l-6.211 1.725L45.982 28.661zM57.172 28.853c-.123.196-.381.255-.577.132-.196-.123-.255-.381-.132-.577.123-.196.381-.255.577-.132C57.236 28.399 57.296 28.657 57.172 28.853zM47.269 30.431l1.366-.379c0 0 .197 7.632 5.071 11.665C53.705 41.716 48.691 40.435 47.269 30.431zM54.727 32.061c-.297.082-.604-.091-.686-.388-.083-.297.091-.604.388-.687.297-.082.604.091.687.388C55.198 31.671 55.024 31.978 54.727 32.061zM55.7 36.181c-.196-.123-.255-.381-.132-.577.123-.196.381-.255.577-.132.196.123.255.381.132.577C56.154 36.244 55.896 36.303 55.7 36.181zM56.839 41.749c-.223.062-.454-.069-.515-.291-.062-.223.069-.453.291-.515.222-.062.453.069.515.291C57.192 41.457 57.062 41.688 56.839 41.749zM56.862 33.494c-.297.082-.605-.091-.687-.388-.082-.297.091-.604.388-.687.297-.082.605.091.687.388C57.333 33.104 57.159 33.411 56.862 33.494zM58.432 38.261c-.164.261-.508.34-.769.176-.261-.164-.34-.508-.176-.769.164-.261.508-.34.769-.176C58.516 37.656 58.595 38 58.432 38.261zM39.009 1.438c-.301.043-.51.321-.468.622l.772 5.447c.039.274.275.473.544.473.025 0 .052-.002.077-.005.301-.043.511-.321.468-.622l-.772-5.447C39.589 1.606 39.31 1.402 39.009 1.438zM43.476 9.389c.164 0 .327-.074.436-.214l2.605-3.377c.185-.241.141-.587-.1-.772-.241-.186-.586-.141-.772.099l-2.605 3.377C42.855 8.744 42.9 9.09 43.14 9.274 43.24 9.352 43.359 9.389 43.476 9.389zM36.838 9.999c.107.107.248.161.389.161.141 0 .282-.054.389-.161.215-.215.215-.563 0-.778L33.81 5.415c-.214-.215-.564-.215-.778 0-.215.215-.215.563 0 .778L36.838 9.999z"/>
</svg>