<svg xmlns="http://www.w3.org/2000/svg" viewBox="0 0 80 80">
<path d="M40.276 14.079c-.27-.19-.61-.23-.91-.12l-21.5 7.63c-.39.14-.66.52-.66.94v22.63c-1.22-1.11-2.91-1.8-4.76-1.8-3.73 0-6.76 2.77-6.76 6.17 0 3.4 3.03 6.16 6.76 6.16 3.73 0 6.76-2.76 6.76-6.16 0-.09-.01-.18-.021-.27.01-.03.021-.05.021-.08v-18.47l19.49-6.58v13.67c-1.2-1.08-2.85-1.75-4.67-1.75-3.68 0-6.68 2.73-6.68 6.08 0 3.36 3 6.09 6.68 6.09 3.68 0 6.67-2.73 6.67-6.09v-27.23C40.696 14.569 40.535 14.269 40.276 14.079zM73.886 28.519c-.26-.18-.6-.23-.91-.12l-19.86 7.12c-.4.14-.66.52-.66.94v19.22c-1.21-1.08-2.86-1.75-4.68-1.75-3.68 0-6.67 2.73-6.67 6.09 0 3.35 2.99 6.08 6.67 6.08 3.68 0 6.68-2.73 6.68-6.08v-15.35c.05 0 .11-.02.17-.04l19-6.3c.41-.14.69-.52.69-.95v-8.04C74.316 29.009 74.156 28.709 73.886 28.519z"/>
</svg>