<svg xmlns="http://www.w3.org/2000/svg" viewBox="0 0 80 80">
<path d="M64.215 22.34h-9.619l1.425-3.49c1.106-2.707 3.152-4.925 5.761-6.244l6.472-3.271-1.102-2.179-6.472 3.271c-3.135 1.584-5.593 4.248-6.92 7.5l-1.802 4.414H36.525c-.34-7.808-6.781-14.061-14.673-14.061-8.109 0-14.706 6.597-14.706 14.705 0 8.109 6.597 14.706 14.706 14.706 3.112 0 6.147-1.004 8.651-2.827l10.811 14.325c.495.655.767 1.468.767 2.29v16.906c0 .439-.264.826-.672.987l-9.622 3.784c-.562.22-.876.788-.764 1.383.112.593.613 1.007 1.217 1.007h24.873c.604 0 1.105-.414 1.217-1.007.112-.594-.202-1.163-.764-1.383l-9.622-3.784c-.408-.161-.673-.548-.673-.987V51.478c0-.821.273-1.634.767-2.29l17.8-23.588c.468-.62.544-1.437.197-2.132C65.689 22.772 64.991 22.34 64.215 22.34zM21.852 36.365c-7.378 0-13.381-6.004-13.381-13.381 0-7.377 6.003-13.38 13.381-13.38 7.16 0 13.008 5.658 13.347 12.736h-1.774c-.062-1.119-.274-2.197-.63-3.209l-.742.306v0l-6.819 2.903h-.098c-.777 0-1.474.433-1.821 1.127-.346.696-.271 1.512.197 2.132l.27.357 3.053 7.506c.635-.303 1.225-.679 1.791-1.087l1.08 1.431C27.431 35.456 24.677 36.365 21.852 36.365zM64.604 24.667 46.804 48.256c-.696.922-1.079 2.067-1.079 3.222v16.906c0 1.079.649 2.031 1.653 2.426l8.108 3.188h-21.62l8.109-3.188c1.004-.395 1.652-1.347 1.652-2.426V51.478c0-1.155-.383-2.3-1.079-3.222L24.747 24.667c-.164-.217-.087-.429-.047-.511.041-.081.164-.27.437-.27h26.19l-4.115 10.078H34.61l8.836 11.89c.624.84 1.877.856 2.522.031l9.325-11.921h-5.443l4.115-10.078h10.251c.273 0 .396.189.437.27C64.692 24.238 64.768 24.451 64.604 24.667zM22.982 21.858l9.348-3.856c-1.14-2.393-3.075-4.335-5.465-5.482l-.309.743 0 0L22.982 21.858zM21.855 21.388l3.884-9.336c-1.215-.432-2.523-.669-3.886-.669-1.351 0-2.647.234-3.853.658l.306.742L21.855 21.388zM21.85 24.58l-3.884 9.336c1.215.432 2.522.669 3.886.669 1.351 0 2.647-.234 3.853-.658l-.306-.742L21.85 24.58zM12.131 18.279l8.594 3.575-3.856-9.348c-2.393 1.14-4.334 3.075-5.482 5.464L12.131 18.279 12.131 18.279zM20.723 24.111l-9.348 3.856c1.14 2.393 3.075 4.334 5.464 5.481l.31-.743-.001 0L20.723 24.111zM11.652 26.531l8.605-3.549-9.336-3.883c-.432 1.215-.669 2.522-.669 3.886 0 1.351.234 2.648.658 3.854L11.652 26.531 11.652 26.531z"/>
</svg>