<svg xmlns="http://www.w3.org/2000/svg" viewBox="0 0 80 80">
<path d="M59.874 20.865c-1.379-1.379-3.623-1.379-5.001 0l-1.843 1.843-3.686-3.686 1.843-1.843c1.378-1.379 1.378-3.622 0-5.001-1.379-1.379-3.623-1.379-5.001 0l-1.843 1.843v0l0 0-3.685-3.685 1.843-1.843c1.378-1.379 1.378-3.622 0-5.001C41.833 2.823 40.945 2.455 40 2.456c-.944 0-1.833.368-2.5 1.036-1.378 1.379-1.378 3.622 0 5.001l1.843 1.843-3.686 3.686v0l0 0-1.843-1.843c-1.378-1.379-3.622-1.379-5.001 0-1.378 1.379-1.378 3.622 0 5.001l1.843 1.843-3.686 3.686-1.843-1.843c-1.379-1.379-3.622-1.379-5.001 0-.668.668-1.036 1.556-1.036 2.5 0 .944.368 1.832 1.036 2.5.689.689 1.595 1.034 2.5 1.034.906 0 1.812-.345 2.5-1.034l1.843-1.843 3.686 3.685-1.843 1.843c-.668.668-1.036 1.556-1.036 2.5 0 .944.368 1.833 1.036 2.5.689.689 1.595 1.034 2.5 1.034.906 0 1.812-.344 2.5-1.034l1.843-1.843 3.686 3.686-1.843 1.843c-.667.668-1.036 1.556-1.036 2.5 0 .944.368 1.833 1.036 2.5.556.556 1.269.889 2.036.99v3.935c-1.064.216-1.866 1.156-1.866 2.284 0 1.128.801 2.068 1.866 2.284v4.142c-1.463.225-2.586 1.478-2.586 3.004v.479l.15 2.776h.054c.109 3.565.725 5.271 1.328 6.904.625 1.694 1.216 3.294 1.216 7.016 0 .272.22.491.492.491.271 0 .491-.22.491-.491 0-3.897-.649-5.656-1.276-7.357-.574-1.554-1.16-3.175-1.268-6.564h1.387c.108 3.565.725 5.271 1.328 6.904.625 1.694 1.215 3.294 1.215 7.016 0 .272.22.491.492.491.271 0 .491-.22.491-.491 0-3.897-.648-5.656-1.276-7.357-.574-1.554-1.16-3.175-1.267-6.564h1.387c.109 3.565.725 5.271 1.328 6.904.625 1.694 1.215 3.294 1.215 7.016 0 .272.22.491.492.491.271 0 .491-.22.491-.491 0-3.897-.649-5.656-1.277-7.357-.574-1.554-1.16-3.175-1.267-6.564h.026l.151-2.776v-.479c0-1.526-1.124-2.779-2.586-3.004v-4.142c1.064-.216 1.865-1.156 1.865-2.284 0-1.128-.801-2.068-1.865-2.284v-3.935c.767-.101 1.479-.434 2.036-.99.668-.668 1.036-1.556 1.036-2.5 0-.945-.368-1.833-1.036-2.5l-1.843-1.843 3.686-3.686 1.843 1.843c.689.689 1.595 1.034 2.5 1.034.906 0 1.812-.344 2.501-1.034 1.378-1.379 1.378-3.622 0-5.001l-1.843-1.843 3.686-3.685 1.843 1.843c.667.668 1.556 1.036 2.5 1.036.944 0 1.833-.368 2.5-1.036.668-.668 1.036-1.556 1.036-2.5C60.91 22.421 60.542 21.533 59.874 20.865zM35.657 31.394l-1.842-1.843-1.843-1.843 3.686-3.685 2.63 2.629 1.056 1.056L38 29.051 35.657 31.394zM33.814 17.179l1.843-1.843 1.843 1.843 1.843 1.843-3.686 3.685-3.686-3.685L33.814 17.179zM36.315 23.365 40 19.679l3.686 3.686L40 27.051l-2.676-2.676L36.315 23.365zM40.658 27.708l3.686-3.685 3.686 3.686-1.843 1.843-1.843 1.843L40.658 27.708 40.658 27.708 40.658 27.708zM44.344 22.707l-3.686-3.686.944-.945 2.741-2.741 1.843 1.843 1.843 1.843L44.344 22.707zM46.844 12.836c1.017-1.016 2.669-1.016 3.686 0 1.016 1.016 1.016 2.669 0 3.686l-1.843 1.843-3.685-3.686L46.844 12.836zM38.157 7.835c-1.016-1.016-1.016-2.669 0-3.686C38.665 3.641 39.333 3.387 40 3.387c.667 0 1.335.254 1.843.762 1.016 1.016 1.016 2.67 0 3.686L40 9.677 38.157 7.835zM40 10.993l3.685 3.685L40 18.364l-3.686-3.686L40 10.993zM29.471 12.836c.508-.508 1.176-.762 1.843-.762.667 0 1.335.254 1.843.762l1.843 1.843-3.686 3.686-1.843-1.843C28.454 15.505 28.454 13.852 29.471 12.836zM24.47 25.208c-1.016 1.016-2.669 1.016-3.686 0-1.016-1.016-1.016-2.669 0-3.686.508-.508 1.175-.762 1.843-.762.668 0 1.335.254 1.843.762l1.843 1.843v0l0 0L24.47 25.208zM27.628 23.365l3.686-3.686 3.686 3.686v0l0 0-3.686 3.686L27.628 23.365zM33.156 33.894c-1.016 1.016-2.669 1.017-3.686 0-1.016-1.016-1.016-2.669 0-3.686l1.843-1.843 1.843 1.843 1.842 1.843 0 0v0L33.156 33.894zM41.843 38.895c1.016 1.016 1.016 2.669 0 3.686-1.016 1.017-2.669 1.016-3.686 0-1.016-1.016-1.016-2.669 0-3.686L40 37.052 41.843 38.895zM40 35.737l-3.686-3.686 1.843-1.843L40 28.366l3.686 3.685L40 35.737zM50.53 30.209c1.016 1.016 1.016 2.669 0 3.686-1.016 1.017-2.669 1.016-3.686 0l-1.843-1.843 3.686-3.686L50.53 30.209zM48.686 27.051l-3.686-3.686 3.686-3.686 3.686 3.686L48.686 27.051zM59.216 25.208c-1.016 1.016-2.669 1.016-3.686 0l-1.842-1.843 0 0v0l1.842-1.843c1.017-1.016 2.67-1.016 3.686 0C60.232 22.538 60.232 24.192 59.216 25.208z"/>
</svg>