<svg xmlns="http://www.w3.org/2000/svg" viewBox="0 0 80 80">
<path d="M60.43 20.64c-.82-.816-1.91-1.263-3.07-1.26-1.16.003-2.247.457-3.062 1.277l-1.274 1.281-2.562-2.547 1.274-1.281c1.685-1.696 1.677-4.447-.018-6.132-.82-.816-1.911-1.264-3.07-1.261-1.16.003-2.247.458-3.062 1.278l-1.274 1.281-2.561-2.547 1.274-1.281c1.685-1.695 1.677-4.446-.018-6.132-.821-.817-1.912-1.265-3.07-1.262-1.158.003-2.246.458-3.063 1.279-1.685 1.695-1.677 4.446.018 6.132l1.281 1.274-2.547 2.562-1.281-1.274c-.82-.816-1.91-1.264-3.07-1.261-1.159.003-2.247.458-3.063 1.278-1.686 1.694-1.678 4.445.017 6.132l1.282 1.274-2.547 2.562-1.281-1.274c-.821-.816-1.911-1.263-3.07-1.26-1.159.003-2.247.457-3.063 1.277-.816.821-1.264 1.911-1.261 3.069.003 1.158.457 2.247 1.278 3.063.821.816 1.911 1.263 3.07 1.26 1.16-.003 2.248-.457 3.063-1.277l1.273-1.281 2.562 2.547-1.274 1.281c-.816.821-1.264 1.911-1.261 3.069.003 1.158.457 2.247 1.278 3.063.82.815 1.91 1.262 3.07 1.259 1.161-.003 2.248-.457 3.063-1.277l1.273-1.281 2.562 2.547-1.274 1.281c-.816.822-1.264 1.912-1.261 3.069.003 1.158.457 2.246 1.278 3.063.629.625 1.417 1.03 2.27 1.186l.01 3.27c-.89.33-1.527 1.18-1.524 2.185.003 1.005.645 1.851 1.537 2.176l.013 4.317c-1.293.357-2.247 1.532-2.242 2.938l.001.479.158 2.776.054 0c.119 3.564.74 5.268 1.348 6.9.63 1.692 1.225 3.291 1.236 7.013.001.272.221.491.493.49.271-.001.49-.221.489-.493-.011-3.897-.665-5.654-1.298-7.353-.578-1.552-1.169-3.171-1.287-6.56l1.387-.004c.119 3.564.74 5.268 1.348 6.9.63 1.692 1.225 3.291 1.236 7.013.001.272.222.491.493.49.271-.001.49-.221.489-.493-.011-3.897-.665-5.654-1.298-7.353-.578-1.552-1.169-3.171-1.286-6.56l1.387-.004c.12 3.564.74 5.268 1.348 6.9.63 1.692 1.225 3.291 1.236 7.013.001.272.222.491.493.49.271-.001.491-.221.49-.493-.011-3.897-.665-5.654-1.298-7.353-.578-1.552-1.169-3.171-1.286-6.56l.026 0 .143-2.777-.001-.479c-.004-1.406-.965-2.576-2.26-2.925l-.013-4.317c.89-.33 1.527-1.18 1.524-2.185-.003-1.005-.645-1.851-1.537-2.176l-.01-3.27c.853-.161 1.638-.57 2.263-1.199.817-.821 1.265-1.912 1.262-3.07-.003-1.158-.458-2.246-1.279-3.062l-1.281-1.274 2.547-2.562 1.281 1.274c.819.815 1.909 1.262 3.07 1.259 1.16-.003 2.248-.457 3.063-1.277 1.685-1.696 1.677-4.447-.018-6.132l-1.281-1.274 2.547-2.561 1.281 1.273c.821.817 1.911 1.265 3.07 1.262 1.158-.003 2.246-.458 3.062-1.279.817-.821 1.265-1.912 1.262-3.07C61.704 22.541 61.252 21.456 60.43 20.64zM59.178 23.709c.001.483-.184.937-.524 1.279-.339.342-.792.531-1.275.532-.483.001-.938-.186-1.279-.525l-1.281-1.274 1.273-1.28c.34-.342.793-.531 1.276-.532.483-.001.938.185 1.278.524C58.988 22.773 59.176 23.227 59.178 23.709zM49.992 33.7c-.339.342-.792.531-1.275.532-.483.001-.938-.186-1.279-.525l-1.281-1.274 2.547-2.562 1.281 1.274C50.691 31.848 50.695 32.994 49.992 33.7zM41.332 42.413c-.339.341-.792.53-1.276.531-.483.001-.938-.185-1.279-.524-.706-.703-.709-1.849-.007-2.555l1.274-1.281 1.281 1.274C42.03 40.56 42.033 41.705 41.332 42.413zM31.344 34.282c-.483.001-.938-.186-1.279-.525-.706-.702-.709-1.848-.007-2.555l1.274-1.281 2.562 2.547-1.274 1.281C32.28 34.092 31.827 34.281 31.344 34.282zM30.007 13.831c.34-.342.792-.531 1.276-.532.483-.001.938.185 1.279.524l1.281 1.274-2.547 2.562-1.281-1.274c-.341-.34-.53-.792-.531-1.276C29.482 14.626 29.668 14.172 30.007 13.831zM38.668 5.119c.34-.342.792-.531 1.276-.532.483-.001.938.185 1.279.524.706.703.709 1.849.007 2.555l-1.273 1.281-1.282-1.274C37.97 6.971 37.966 5.826 38.668 5.119zM48.655 13.249c.483-.001.938.185 1.279.524.342.34.53.792.532 1.276.001.483-.184.937-.524 1.279l-1.274 1.281-2.562-2.547 1.273-1.28C47.719 13.439 48.173 13.25 48.655 13.249zM46.885 19.402l-2.547 2.561-2.562-2.546 2.547-2.562L46.885 19.402zM37.446 23.772l2.547-2.561 2.562 2.546-2.547 2.561L37.446 23.772zM39.982 17.632l-2.562-2.546 2.547-2.561 2.561 2.546L39.982 17.632zM38.198 19.427l-2.547 2.562-2.562-2.547 2.547-2.562L38.198 19.427zM31.306 21.237l2.562 2.546-2.547 2.562-2.562-2.547L31.306 21.237zM35.661 25.567l2.562 2.547-2.547 2.561-2.562-2.546L35.661 25.567zM40.033 35.005l-2.562-2.546 2.547-2.561 2.562 2.546L40.033 35.005zM44.348 25.542l2.562 2.546-2.547 2.561-2.562-2.546L44.348 25.542zM48.693 26.293l-2.562-2.546 2.547-2.561 2.562 2.546L48.693 26.293zM22.632 25.621c-.483.001-.937-.185-1.279-.525-.341-.34-.53-.792-.531-1.276-.001-.482.185-.937.524-1.278.34-.342.792-.531 1.276-.532.483-.001.938.185 1.279.524l1.281 1.274-1.274 1.281C23.568 25.431 23.115 25.62 22.632 25.621z"/>
</svg>