<svg xmlns="http://www.w3.org/2000/svg" viewBox="0 0 80 80">
<path d="M77.846 41.166c-2.397-1.198-4.095-1.699-8.388-1.198-4.294.5-7.165 3.732-7.77 3.763.263-1.576.211-3.892-1.521-6.064-1.634-2.048-4.466-2.958-6.887-2.212-1.848.569-3.035 2.024-3.176 3.894-.17 2.232 1.436 3.602 3.111 3.802 1.612.194 2.902-.655 3.129-2.061.064-.394-.202-.765-.595-.829-.394-.064-.765.203-.83.597-.131.806-1.025.918-1.534.859-.74-.088-1.962-.664-1.843-2.26.133-1.743 1.413-2.391 2.163-2.622 1.576-.486 3.915-.048 5.333 1.731 2.384 2.989 1.659 5.081.792 6.458-1.349 2.147-4.053 3.202-6.788 3.202-2.434 0-4.638-.986-6.235-2.581-.376 2.655-2.652 4.699-5.41 4.699-.865 0-1.681-.206-2.408-.564-1.091 3.382-4.26 5.829-8.005 5.829-2.945 0-5.67-1.452-7.081-3.801-.703-1.17-1.108-2.877-.816-5.199.447-3.558 3.139-5.166 5.474-5.166.019 0 .039 0 .057 0 1.544.018 3.428.814 3.65 3.003.18 1.76-.646 2.612-1.48 2.823-.7.177-1.634-.069-2.03-1.026-.152-.368-.575-.543-.942-.39-.369.153-.545.574-.391.943.612 1.475 2.175 2.262 3.718 1.873 1.354-.342 2.837-1.691 2.563-4.37-.26-2.54-2.296-4.268-5.07-4.299-.025 0-.049 0-.074 0-2.952 0-6.351 2.001-6.907 6.429-.292 2.328.086 4.122.715 5.493-2.251-.077-4.228-1.208-5.464-2.915 1.706-.857 3.301-2.395 3.635-4.984.231-1.792-.411-3.359-1.762-4.302-1.342-.936-3.139-1.098-4.476-.401-1.06.553-1.671 1.591-1.671 2.846 0 1.969 1.237 2.811 2.298 2.934 1.108.125 2.097-.436 2.303-1.313.091-.388-.15-.776-.538-.867-.386-.09-.777.149-.868.538-.017.07-.302.257-.73.209-.649-.075-1.02-.622-1.02-1.5 0-.73.302-1.257.893-1.566.845-.44 2.099-.311 2.982.305.907.633 1.318 1.675 1.157 2.933-.42 3.253-3.39 4.203-4.781 4.529-.303.071-.981.123-1.239.123-3.898 0-7.059-3.161-7.059-7.059 0-3.9 3.161-7.059 7.059-7.059 1.401 0 2.703.413 3.8 1.116.816-2.281 2.95-3.923 5.488-4.023.437 1.761 1.75 4.025 5.081 4.362.219.022.432.033.632.033 2.839 0 3.911-2.082 4.08-3.261.057-.394-.217-.76-.612-.817-.389-.056-.757.216-.816.607-.037.237-.447 2.272-3.139 2.001-3.215-.324-3.938-2.848-3.945-3.973-.015-2.798 2.593-4.97 5.446-4.97 2.05 0 3.834 1.129 4.771 2.798.69-2.234 2.768-3.857 5.228-3.857 2.573 0 4.987 1.728 5.306 4.171.094.722-.081 1.869-.713 2.714-.475.637-1.173 1.003-2.136 1.119-1.935.233-2.429-1.122-2.45-1.18-.13-.377-.541-.577-.917-.448-.378.13-.578.54-.448.917.275.799 1.318 2.182 3.385 2.182.194 0 .395-.012.605-.037 1.357-.165 2.409-.736 3.124-1.697.897-1.206 1.018-2.732.991-3.669 6.154-1.753 10.057 1.56 12.444 3.852.393.304.742.603 1.062.93 1.123.822 3.18 2.546 6.142 2.087C74.251 33.976 77.846 41.166 77.846 41.166z"/>
</svg>