<svg xmlns="http://www.w3.org/2000/svg" viewBox="0 0 80 80">
<path d="M77.084 40.894c-.04-.079-.997-1.966-3.097-3.681-1.942-1.586-5.266-3.321-10.074-2.577-2.463.381-4.208-.917-5.363-1.776-.069-.051-.136-.101-.199-.148-.299-.302-.641-.6-1.067-.933-4.027-3.854-8.425-5.227-13.081-4.087-.27-1.14-1.23-3.242-4.639-4.343-5.184-1.675-7.425 2.673-7.425 2.673 0 0-2.191-3.025-6.773-1.634-4.549 1.381-4.759 5.171-4.672 6.573-2.292.549-3.913 1.99-4.847 3.065-2.362-1.691-8.084-1.658-10.959 1.723C2.363 38.72 1.32 43.624 5.63 47.78c3.917 3.777 8.998 1.608 9.576 1.343.479.758 2.02 2.663 5.578 3.016.25.695 1.843 4.312 8.014 4.849 7.287.634 9.208-5.346 9.208-5.346 7.128 1.337 7.871-3.861 7.871-3.861 0 0 2.079 2.079 7.128 1.634 4.614-.407 6.372-3.441 6.95-4.871.504-.126 1.079-.511 1.872-1.041 1.45-.97 3.64-2.435 6.26-2.74 4.198-.489 5.728-.007 8.001 1.129l.305.153c.541.27 1.114-.303.844-.844L77.084 40.894zM67.915 39.285c-2.976.347-5.346 1.932-6.914 2.981-.22.147-.463.31-.687.452.057-1.466-.262-3.28-1.637-5.004-1.64-2.054-4.482-2.967-6.912-2.219-1.855.57-3.046 2.032-3.189 3.907-.171 2.241 1.442 3.615 3.122 3.815 1.617.196 2.912-.656 3.141-2.067.064-.395-.203-.768-.597-.832-.397-.065-.769.203-.833.598-.132.808-1.029.922-1.54.863-.743-.089-1.969-.667-1.849-2.269.134-1.748 1.418-2.398 2.171-2.63 1.582-.489 3.928-.049 5.351 1.738 2.392 2.998 1.665 5.098.796 6.481-1.354 2.155-4.068 3.212-6.812 3.212-2.443 0-4.654-.989-6.257-2.589-.377 2.663-2.661 4.715-5.429 4.715-.867 0-1.687-.208-2.416-.566-1.094 3.393-4.276 5.85-8.033 5.85-2.957 0-5.691-1.457-7.106-3.814-.705-1.175-1.112-2.887-.82-5.219.448-3.57 3.151-5.184 5.495-5.184.018 0 .039.001.056.001 1.55.018 3.439.817 3.664 3.013.181 1.766-.649 2.621-1.485 2.832-.702.178-1.64-.068-2.038-1.029-.153-.37-.578-.545-.946-.392-.371.153-.546.576-.392.946.613 1.481 2.182 2.271 3.73 1.88 1.359-.343 2.847-1.697 2.571-4.385-.26-2.548-2.303-4.283-5.086-4.314H26.96c-2.963 0-6.374 2.008-6.932 6.453-.199 1.587-.087 2.927.203 4.055-2.45-.442-3.473-1.758-3.762-2.22 1.205-.92 2.187-2.281 2.441-4.25.232-1.798-.413-3.371-1.769-4.317-1.347-.94-3.15-1.102-4.492-.402-1.063.555-1.677 1.596-1.677 2.856 0 1.977 1.243 2.822 2.306 2.945 1.112.125 2.104-.438 2.311-1.317.092-.389-.15-.78-.539-.87-.388-.091-.78.15-.872.539-.016.071-.303.258-.732.209-.652-.076-1.023-.624-1.023-1.504 0-.734.303-1.262.897-1.573.846-.441 2.106-.312 2.992.307.91.634 1.323 1.68 1.161 2.942-.422 3.266-3.404 4.218-4.8 4.546-.304.071-.985.123-1.243.123-3.912 0-7.084-3.172-7.084-7.084 0-3.913 3.172-7.085 7.084-7.085 1.406 0 2.712.414 3.814 1.121.001-.002.07.047.171.118.407.289.971.207 1.273-.191.723-.952 2.207-2.541 4.361-3.054.636 1.557 2.015 3.184 4.802 3.465.22.022.434.033.636.033 2.848 0 3.925-2.09 4.094-3.272.056-.397-.218-.763-.615-.821-.391-.056-.759.217-.818.61-.037.238-.448 2.28-3.151 2.008-3.226-.325-3.952-2.859-3.959-3.987-.015-2.808 2.603-4.988 5.465-4.988 2.058 0 3.848 1.133 4.788 2.808.692-2.241 2.779-3.87 5.247-3.87 2.583 0 5.005 1.735 5.326 4.185.095.725-.082 1.876-.716 2.724-.477.64-1.178 1.007-2.144 1.124-1.943.233-2.437-1.127-2.458-1.185-.131-.379-.543-.579-.921-.448-.379.129-.581.541-.45.919.276.802 1.323 2.191 3.398 2.191.195 0 .395-.012.607-.039 1.362-.165 2.418-.738 3.135-1.702.695-.934.925-2.058.982-2.956 4.294-1.147 8.218.056 11.987 3.675l.059.051c.407.317.722.592.991.867l.043.044.05.036c.075.055.155.114.238.176 1.188.884 3.399 2.528 6.477 2.052 3.404-.527 6.385.22 8.861 2.221.502.406.932.825 1.293 1.222C72.641 39.053 70.83 38.946 67.915 39.285z"/>
</svg>