<svg xmlns="http://www.w3.org/2000/svg" viewBox="0 0 80 80">
<path d="M10.98 17.372H6.615c-.636 0-1.152.516-1.152 1.152v1.03c0 .636.516 1.153 1.152 1.153h4.365c.636 0 1.152-.516 1.152-1.153v-1.03C12.132 17.888 11.616 17.372 10.98 17.372zM10.98 59.293H6.615c-.636 0-1.152.516-1.152 1.153v1.03c0 .636.516 1.152 1.152 1.152h4.365c.636 0 1.152-.516 1.152-1.152v-1.03C12.132 59.809 11.616 59.293 10.98 59.293zM6.186 58.34h5.223c.395 0 .712-.324.699-.719C12.01 54.735 11.656 43.957 11.656 40c0-3.957.354-14.735.452-17.621.013-.395-.304-.719-.699-.719H6.186c-.395 0-.712.324-.699.719C5.585 25.265 5.939 36.043 5.939 40c0 3.957-.354 14.735-.452 17.621C5.474 58.016 5.791 58.34 6.186 58.34zM6.704 22.86h4.187c-.104 3.103-.436 13.323-.436 17.14 0 3.819.332 14.039.436 17.141H6.704C6.808 54.037 7.139 43.818 7.139 40 7.139 36.183 6.807 25.963 6.704 22.86zM73.385 17.372H69.02c-.636 0-1.152.516-1.152 1.152v1.03c0 .636.516 1.153 1.152 1.153h4.364c.637 0 1.152-.516 1.152-1.153v-1.03C74.537 17.888 74.021 17.372 73.385 17.372zM73.385 59.293H69.02c-.636 0-1.152.516-1.152 1.153v1.03c0 .636.516 1.152 1.152 1.152h4.364c.637 0 1.152-.516 1.152-1.152v-1.03C74.537 59.809 74.021 59.293 73.385 59.293zM68.591 58.34h5.223c.395 0 .712-.324.698-.719C74.415 54.735 74.061 43.957 74.061 40c0-3.957.354-14.735.452-17.621.014-.395-.303-.719-.698-.719h-5.223c-.396 0-.712.324-.699.719C67.99 25.265 68.344 36.043 68.344 40c0 3.957-.354 14.735-.452 17.621C67.879 58.016 68.196 58.34 68.591 58.34zM69.109 22.86h4.187c-.122 3.663-.435 13.414-.435 17.14 0 3.727.313 13.476.435 17.141h-4.187c.122-3.663.435-13.414.435-17.141C69.544 36.274 69.231 26.522 69.109 22.86zM65.206 21.708c-.016 0-.032 0-.049.001C61.931 21.906 49.641 22.612 40 22.612c-8.864 0-21.833-.714-25.161-.906-.016-.001-.031-.001-.046-.001-.421 0-.769.335-.783.762C13.909 25.479 13.561 36.083 13.561 40c0 3.918.348 14.527.449 17.535.015.427.362.762.783.762.015 0 .03 0 .044-.001 3.431-.188 17.086-.908 25.162-.908 9.641 0 21.931.707 25.158.903.016.001.032.001.048.001.422 0 .77-.335.784-.762.102-3.015.449-13.614.449-17.53 0-3.916-.347-14.514-.449-17.53C65.975 22.043 65.628 21.708 65.206 21.708zM64.805 57.067C60.835 56.83 49.232 56.188 40 56.188c-7.742 0-20.481.653-24.805.887C15.077 53.518 14.762 43.7 14.762 40c0-3.74.315-13.523.434-17.071 4.163.237 16.31.883 24.805.883 9.253 0 20.879-.644 24.805-.88.119 3.551.434 13.342.434 17.067C65.239 43.726 64.924 53.517 64.805 57.067zM40 25.612c-7.484 0-17.834-.502-23.066-.784-.141 4.344-.373 12-.373 15.172 0 3.174.232 10.836.373 15.18 5.415-.282 16.159-.792 23.066-.792 8.124 0 18.043.493 23.066.776C63.207 50.82 63.439 43.172 63.439 40c0-3.172-.232-10.819-.373-15.163C58.043 25.12 48.133 25.612 40 25.612zM62.099 54.109c-5.359-.293-14.496-.721-22.1-.721-6.479 0-16.24.442-22.099.741C17.761 49.716 17.561 42.91 17.561 40c0-2.935.199-9.721.339-14.119 5.626.296 15.097.731 22.099.731 7.618 0 16.747-.428 22.1-.72.14 4.398.339 11.18.339 14.108C62.439 42.929 62.24 49.711 62.099 54.109z"/>
</svg>