<svg xmlns="http://www.w3.org/2000/svg" viewBox="0 0 80 80">
<path d="M40 9C22.907 9 9 22.906 9 40c0 17.094 13.907 31 31 31 17.094 0 31-13.906 31-31C71 22.906 57.094 9 40 9zM40 69c-15.99 0-29-13.01-29-29 0-15.99 13.01-29 29-29 15.991 0 29 13.01 29 29C69 55.99 55.991 69 40 69zM66.945 38.246c-.849-13.438-11.753-24.342-25.191-25.191-16.294-1.03-29.728 12.404-28.698 28.698.849 13.438 11.753 24.342 25.191 25.191C54.541 67.974 67.974 54.541 66.945 38.246zM51.625 48.769c0 1.577-1.278 2.856-2.856 2.856H31.231c-1.578 0-2.856-1.279-2.856-2.856V31.231c0-1.577 1.279-2.856 2.856-2.856h17.538c1.578 0 2.856 1.279 2.856 2.856V48.769zM48.355 30.375h-16.71c-.7 0-1.27.569-1.27 1.27v16.711c0 .7.57 1.27 1.27 1.27h16.71c.7 0 1.27-.569 1.27-1.27V31.644C49.625 30.944 49.056 30.375 48.355 30.375zM47.625 47.625h-15.25v-15.25h15.25V47.625z"/>
</svg>