<svg xmlns="http://www.w3.org/2000/svg" viewBox="0 0 80 80">
<path d="M48.788 42.081 52.001 42.081 52.001 45.294 48.788 45.294 48.788 42.081ZM43.306 42.081 46.519 42.081 46.519 45.294 43.306 45.294 43.306 42.081ZM43.306 47.563 46.519 47.563 46.519 50.775 43.306 50.775 43.306 47.563ZM48.788 47.563 52.001 47.563 52.001 50.775 48.788 50.775 48.788 47.563ZM43.306 32.407 52.001 32.407 52.001 35.266 43.306 35.266 43.306 32.407ZM73.332 36.748l-30.08-30.08c-1.793-1.793-4.711-1.793-6.504 0l-30.08 30.08C5.8 37.616 5.321 38.771 5.321 40c0 1.229.479 2.384 1.347 3.252l30.08 30.08c.897.896 2.074 1.345 3.252 1.345 1.178 0 2.355-.448 3.252-1.345l30.08-30.08c.869-.868 1.347-2.023 1.347-3.252C74.679 38.771 74.201 37.616 73.332 36.748zM28.252 53.242h-2.269V36.127h2.269V53.242zM37.848 53.242h-2.269V36.127h2.269V53.242zM38.473 33.697h-5.4v19.545h-2.269V33.697h-5.401v-2.27h13.07V33.697zM38.473 27.892h-13.07v-2.27h13.07V27.892zM54.269 51.91c0 .627-.508 1.135-1.134 1.135H42.171c-.626 0-1.134-.508-1.134-1.135V40.946c0-.627.508-1.135 1.134-1.135h10.964c.626 0 1.134.508 1.134 1.135V51.91zM54.269 36.401c0 .627-.508 1.135-1.134 1.135H42.171c-.626 0-1.134-.508-1.134-1.135v-5.129c0-.627.508-1.135 1.134-1.135h10.964c.626 0 1.134.508 1.134 1.135V36.401zM54.597 27.892H40.826v-2.27h13.771V27.892z"/>
</svg>