<svg xmlns="http://www.w3.org/2000/svg" viewBox="0 0 80 80">
<path d="M36.317 50.16c-2.584 0-4.687 2.104-4.687 4.689 0 2.585 2.103 4.686 4.687 4.686 2.581 0 4.684-2.1 4.684-4.686C41 52.265 38.897 50.16 36.317 50.16zM40 10c-16.542 0-30 13.458-30 30 0 16.542 13.458 30 30 30 16.542 0 30-13.458 30-30C70 23.458 56.542 10 40 10zM45.881 19.227c2.601 0 4.708 2.107 4.708 4.709 0 2.602-2.107 4.709-4.708 4.709-2.597 0-4.703-2.108-4.703-4.709C41.178 21.334 43.285 19.227 45.881 19.227zM51.822 56.47c-.641 4.022-3.737 8.501-8.983 10.589-.933.097-1.879.15-2.838.15-15.003 0-27.209-12.207-27.209-27.209 0-15.003 12.206-27.209 27.209-27.209.201 0 .396.026.596.03-.353.173-.697.365-1.03.582-2.721 1.766-4.533 4.663-5.027 8.714-.91 7.513 3.622 12.349 8.896 16.782C48.711 43.333 53.296 47.181 51.822 56.47z"/>
</svg>