<svg xmlns="http://www.w3.org/2000/svg" viewBox="0 0 80 80">
<path d="M25.403 25.623 38.473 25.623 38.473 27.893 25.403 27.893 25.403 25.623ZM40.826 25.623 54.597 25.623 54.597 27.893 40.826 27.893 40.826 25.623ZM25.403 33.697 30.804 33.697 30.804 53.242 33.073 53.242 33.073 33.697 38.473 33.697 38.473 31.428 25.403 31.428ZM25.983 36.127 28.252 36.127 28.252 53.242 25.983 53.242 25.983 36.127ZM35.579 36.127 37.848 36.127 37.848 53.242 35.579 53.242 35.579 36.127ZM53.135 30.138H42.171c-.626 0-1.134.508-1.134 1.135v5.129c0 .627.508 1.135 1.134 1.135h10.964c.626 0 1.134-.508 1.134-1.135v-5.129C54.269 30.645 53.762 30.138 53.135 30.138zM52.001 35.266h-8.695v-2.859h8.695V35.266zM53.135 39.811H42.171c-.626 0-1.134.508-1.134 1.135V51.91c0 .627.508 1.135 1.134 1.135h10.964c.626 0 1.134-.508 1.134-1.135V40.946C54.269 40.319 53.762 39.811 53.135 39.811zM46.519 50.775h-3.213v-3.212h3.213V50.775zM46.519 45.294h-3.213v-3.213h3.213V45.294zM52.001 50.775h-3.213v-3.212h3.213V50.775zM52.001 45.294h-3.213v-3.213h3.213V45.294zM73.332 36.748l-30.08-30.08c-1.793-1.793-4.71-1.793-6.504 0l-30.08 30.08C5.8 37.616 5.321 38.771 5.321 40c0 1.229.479 2.384 1.347 3.252l30.08 30.08c.897.896 2.074 1.345 3.252 1.345 1.178 0 2.355-.448 3.252-1.345l30.08-30.08c.869-.868 1.347-2.023 1.347-3.252C74.679 38.771 74.201 37.616 73.332 36.748zM71.918 41.838l-30.08 30.08c-1.013 1.014-2.662 1.014-3.675 0l-30.08-30.08C7.592 41.347 7.321 40.694 7.321 40c0-.694.271-1.347.761-1.838l30.08-30.08c.507-.507 1.172-.76 1.838-.76.666 0 1.331.253 1.838.76l30.08 30.08c.491.491.761 1.144.761 1.838C72.679 40.694 72.409 41.347 71.918 41.838z"/>
</svg>