<svg xmlns="http://www.w3.org/2000/svg" viewBox="0 0 80 80">
<path d="M57.81 51.897c-.956 0-1.733.775-1.733 1.733 0 .958.777 1.735 1.733 1.735.958 0 1.735-.777 1.735-1.735C59.545 52.672 58.768 51.897 57.81 51.897zM40.002 51.574c-.956 0-1.732.775-1.732 1.733 0 .958.777 1.735 1.732 1.735.958 0 1.735-.777 1.735-1.735C41.737 52.349 40.96 51.574 40.002 51.574zM22.294 51.25c-.958 0-1.732.774-1.732 1.733 0 .958.774 1.735 1.732 1.735.958 0 1.735-.777 1.735-1.735C24.029 52.025 23.252 51.25 22.294 51.25zM61.061 27.815c-.503-1.107-1.028-2.168-1.561-3.154-.044-.104-.094-.193-.123-.228-1.516-2.801-3.221-5.322-5.032-7.451-.073-.099-.146-.182-.199-.235-4.41-5.119-9.302-7.824-14.149-7.824-4.853 0-9.744 2.705-14.112 7.791-.083.087-.155.17-.193.224-1.834 2.156-3.533 4.665-5.047 7.458-.058.087-.104.175-.143.265-.526.969-1.035 1.999-1.555 3.141 0 0 0 0 0 0-.261.52-6.353 12.866-3.546 25.359.002.009.008.016.01.025.003.011-.001.022.002.033.227.768.452 1.433.687 2.029.029.097.066.188.111.276 1.128 2.804 2.765 5.352 4.908 7.62.062.064.124.128.137.134 4.77 4.957 11.601 7.799 18.741 7.799 7.25 0 13.908-2.77 18.686-7.739.076-.064.138-.129.245-.241 2.102-2.225 3.747-4.787 4.872-7.581.039-.085.074-.174.103-.269.245-.624.469-1.288.685-2.025.001-.005 0-.009.002-.014.001-.004.004-.007.005-.012C67.754 41.047 61.416 28.501 61.061 27.815zM22.044 25.44c.02-.036.033-.061.047-.1.019-.027.037-.056.053-.085 1.462-2.703 3.099-5.125 4.9-7.244.029-.038.058-.07.121-.139 2.832-3.295 7.356-7.224 12.833-7.224 5.469 0 10.001 3.929 12.871 7.259.033.033.061.065.125.148 1.77 2.082 3.407 4.504 4.913 7.27.014.039.032.077.051.113.21.388.419.788.626 1.199-2.266-.366-4.575.742-6.238 3.043l-.879 1.214c-.412.57-.861 1.009-1.33 1.302-1.347.831-2.726.315-3.897-1.302l-.876-1.211c-1.452-2.008-3.359-3.113-5.37-3.113-2.01 0-3.916 1.105-5.367 3.113l-.873 1.208c-.796 1.101-1.726 1.707-2.616 1.707-.889 0-1.817-.606-2.613-1.706l-.874-1.209c-1.662-2.299-3.971-3.416-6.234-3.044C21.624 26.227 21.833 25.829 22.044 25.44zM19.747 30.268c.787-.756 1.661-1.162 2.535-1.162 1.175 0 2.351.731 3.313 2.063l.876 1.209c1.284 1.779 2.941 2.756 4.667 2.756 1.728 0 3.386-.98 4.67-2.756l.873-1.209c.963-1.332 2.141-2.063 3.313-2.063 1.175 0 2.351.731 3.313 2.063l.878 1.211c.642.888 1.378 1.576 2.167 2.044.792.466 1.636.709 2.5.709 1.726 0 3.383-.977 4.669-2.754l.878-1.214c.96-1.33 2.136-2.063 3.311-2.063.897 0 1.792.43 2.595 1.223.791 1.876 1.995 5.128 2.744 9.016-1.445-1.993-3.342-3.093-5.339-3.093-2 .002-3.897 1.103-5.345 3.101l-.878 1.216c-.401.553-.835.982-1.282 1.272-.446.292-.905.444-1.354.444-.898 0-1.834-.611-2.635-1.718l-.878-1.212c-1.446-1.998-3.345-3.101-5.346-3.101-2 0-3.899 1.103-5.345 3.103l-.874 1.209c-.801 1.105-1.737 1.716-2.638 1.716-.897 0-1.834-.61-2.635-1.716l-.876-1.212c-1.445-1.998-3.345-3.101-5.345-3.101-1.917 0-3.736 1.022-5.157 2.864C17.862 35.273 19.001 32.097 19.747 30.268zM62.279 54.655c-.013.032-.056.144-.065.177-1.061 2.63-2.589 5.012-4.586 7.125l.628.593-.755-.469c-4.511 4.688-10.728 7.27-17.503 7.27-6.673 0-13.05-2.65-17.496-7.27-.02-.021-.149-.152-.171-.17-1.961-2.075-3.487-4.456-4.574-7.154-.009-.035-.02-.07-.034-.104-.162-.408-.319-.854-.477-1.351.571-.463 1.089-1.017 1.547-1.652l.875-1.211c.796-1.099 1.725-1.704 2.614-1.706.889 0 1.817.606 2.613 1.705l.876 1.212c1.45 2.007 3.356 3.111 5.367 3.111 2.013 0 3.92-1.105 5.369-3.113l.874-1.207c.795-1.1 1.723-1.706 2.613-1.706.89 0 1.818.605 2.614 1.704l.878 1.211c.71.982 1.527 1.75 2.429 2.282.938.552 1.926.831 2.938.831 2.011 0 3.917-1.105 5.366-3.112l.882-1.215c.793-1.098 1.72-1.703 2.611-1.703.89 0 1.819.605 2.613 1.703l.878 1.216c.462.639.982 1.193 1.55 1.655C62.603 53.786 62.446 54.231 62.279 54.655zM63.413 50.355c-.05-.064-.103-.12-.152-.188l-.88-1.216c-1.284-1.776-2.942-2.754-4.667-2.754-1.725 0-3.383.978-4.667 2.754l-.878 1.214c-.48.666-1.016 1.182-1.576 1.53-.562.35-1.148.533-1.737.533-1.175 0-2.351-.731-3.313-2.063l-.876-1.212c-1.286-1.776-2.944-2.753-4.67-2.753-1.725 0-3.383.977-4.667 2.756l-.876 1.207c-.96 1.332-2.138 2.063-3.313 2.063-1.173 0-2.351-.731-3.313-2.061l-.874-1.212c-1.286-1.776-2.944-2.756-4.669-2.756-1.726.002-3.384.98-4.667 2.756l-.876 1.212c-.028.039-.059.07-.087.108-.241-1.884-.291-3.753-.205-5.561.85-.519 1.64-1.243 2.324-2.188l.876-1.211c.801-1.105 1.735-1.716 2.635-1.716.897 0 1.836.61 2.635 1.716l.876 1.211c1.445 2 3.345 3.101 5.345 3.101 2 0 3.9-1.101 5.348-3.104l.874-1.207c.801-1.108 1.738-1.718 2.635-1.718.9 0 1.837.61 2.636 1.718l.878 1.211c.722.999 1.559 1.774 2.464 2.3.908.526 1.883.801 2.882.801 2 0 3.899-1.103 5.345-3.101l.878-1.214c.801-1.108 1.737-1.716 2.635-1.718.898 0 1.834.611 2.635 1.716l.881 1.216c.724 1.003 1.565 1.768 2.473 2.29C63.776 46.626 63.701 48.49 63.413 50.355z"/>
</svg>