<svg xmlns="http://www.w3.org/2000/svg" viewBox="0 0 80 80">
<path d="M50.171 50.35c4.659-1.774 7.101-5.134 7.101-9.884 0-6.768-3.395-10.717-6.243-12.838-.335-.25-.688-.483-1.044-.711l.135-.216c1.221-1.94 3.264-5.188 4.648-8.773 1.754-4.543 2.703-11.131 1.255-14.291-.388-.846-.932-1.398-1.619-1.644C51.119.818 46.636 6.737 44.085 12.9c-1.963 4.745-2.576 9.324-2.75 11.081-.448-.037-.894-.06-1.335-.06-.556 0-1.172.041-1.828.124-.166-1.712-.771-6.347-2.757-11.146-2.55-6.162-7.033-12.086-10.319-10.907-.686.245-1.231.798-1.618 1.644-1.448 3.16-.5 9.748 1.254 14.291 1.499 3.881 3.636 7.329 4.957 9.282-3.813 2.547-6.961 6.757-6.961 13.256 0 4.75 2.442 8.11 7.102 9.883-1.759 2.703-7.341 11.726-7.099 17.033.187 4.069 1.865 6.744 5.258 8.411.898 1.492 2.684 2.368 5.126 2.368 2.824 0 4.78-1.164 5.481-3.11.469.036.944.062 1.428.062.552 0 1.094-.031 1.625-.079.696 1.957 2.654 3.128 5.487 3.128 2.419 0 4.195-.86 5.102-2.327 4.164-1.932 4.881-5.203 5.03-8.452C57.512 62.075 51.93 53.053 50.171 50.35zM35.692 70.615c-.432-.653-1.183-1.599-2.608-1.599-1.16 0-1.808.51-2.234 1.046-.798-1.058-1.332-2.312-1.611-3.741.49.069 1.059.12 1.719.12 3.325 0 8.687-1.245 14.924-7.305.311.063.63.102.957.102.742 0 1.512-.161 2.247-.476.344-.147.658-.329.953-.527.258.758.479 1.52.637 2.283-4.276 5.632-8.918 9.131-13.81 10.413C36.47 70.796 36.064 70.696 35.692 70.615zM29.007 63.899c0-1.911.389-3.934 1.089-5.904.38.296.798.564 1.274.768.735.314 1.504.476 2.247.476.387 0 .767-.044 1.13-.133 1.124-.272 1.961-.936 2.359-1.864.398-.928.299-1.992-.277-2.994-.544-.945-1.46-1.729-2.579-2.209-.178-.076-.357-.124-.537-.181.289-.309.583-.599.885-.865.563.292 1.397.583 2.508.583 1.471 0 3.424-.525 5.835-2.22 1.222.546 2.403 1.427 3.486 2.607-.075.028-.149.044-.224.075-1.118.479-2.034 1.264-2.578 2.209-.577 1.002-.676 2.065-.278 2.994.308.718.883 1.271 1.644 1.614-7.295 6.924-13.224 7.066-15.885 6.629C29.047 64.975 29.007 64.45 29.007 63.899zM33.771 53.16c.877.376 1.588.979 2.002 1.696.381.661.457 1.338.213 1.905l0 0c-.243.568-.786.98-1.527 1.16-.805.194-1.731.098-2.609-.279-1.751-.75-2.745-2.365-2.215-3.602.348-.812 1.268-1.261 2.354-1.261C32.557 52.78 33.17 52.902 33.771 53.16zM35.307 50.425c1.501-1.122 3.115-1.73 4.718-1.73.664 0 1.329.112 1.989.312C38.712 51.17 36.484 50.903 35.307 50.425zM48.605 57.642c-.878.376-1.804.474-2.609.279-.741-.18-1.283-.592-1.526-1.16l0 0c-.243-.567-.167-1.244.213-1.905.414-.718 1.125-1.32 2.001-1.696.601-.258 1.214-.38 1.782-.38 1.086 0 2.006.449 2.354 1.261C51.349 55.277 50.356 56.892 48.605 57.642zM49.591 51.711c-.568-.141-1.191-.167-1.832-.085-.133-.158-.271-.305-.407-.455.565-.121 1.107-.26 1.625-.416C49.135 50.997 49.344 51.319 49.591 51.711zM45.212 13.367c2.611-6.31 6.633-11 8.783-10.226.365.13.674.468.92 1.003 1.138 2.483.55 8.594-1.284 13.344-1.342 3.476-3.269 6.537-4.543 8.563l-.156.25c-.299-.164-.603-.319-.912-.468.648-1.2 1.432-2.788 2.087-4.527 1.215-3.223 2.55-9.532.885-10.631-.293-.194-.642-.235-1.01-.119-1.532.482-3.464 3.834-4.699 6.941-1.064 2.678-1.659 5.377-1.924 6.777-.271-.054-.54-.103-.811-.145C42.716 22.468 43.319 17.943 45.212 13.367zM44.154 24.444c.255-1.358.837-4.012 1.884-6.646 1.333-3.355 3.133-6.135 4.188-6.467.171-.055.26-.017.318.021.837.553.398 5.434-1.197 9.666-.648 1.719-1.425 3.289-2.064 4.469C46.269 25.053 45.218 24.703 44.154 24.444zM25.87 17.488c-1.834-4.75-2.422-10.86-1.284-13.344.245-.535.555-.873.919-1.003 2.15-.776 6.171 3.915 8.783 10.226 1.935 4.675 2.522 9.302 2.675 10.873-.261.051-.527.11-.796.174-.25-1.354-.849-4.144-1.95-6.916-1.235-3.107-3.167-6.459-4.699-6.941-.368-.115-.717-.074-1.01.119-1.665 1.099-.33 7.408.885 10.631.696 1.848 1.538 3.528 2.222 4.776-.299.152-.597.311-.892.481C29.437 24.665 27.336 21.285 25.87 17.488zM32.349 25.729c-.674-1.226-1.507-2.886-2.195-4.709-1.596-4.232-2.034-9.113-1.197-9.666.058-.038.147-.075.318-.021 1.054.332 2.854 3.111 4.187 6.467 1.093 2.751 1.68 5.526 1.917 6.82C34.389 24.896 33.366 25.263 32.349 25.729zM23.948 40.466c0-11.579 10.815-15.325 16.052-15.325 6.207 0 16.053 4.161 16.053 15.325 0 5.271-3.283 8.52-9.745 9.667-1.933-1.72-4.106-2.657-6.283-2.657-2.182 0-4.358.939-6.292 2.664C27.243 48.998 23.948 45.748 23.948 40.466zM32.689 51.18c-.122.134-.243.268-.362.408-.738-.043-1.435.073-2.044.324.302-.482.556-.877.74-1.158C31.555 50.914 32.109 51.057 32.689 51.18zM23.95 67.325c-.151-3.292 2.269-8.365 4.381-12.126.095.64.372 1.274.81 1.848-.877 2.267-1.353 4.627-1.353 6.852 0 2.743.698 5.053 2.077 6.884-1.215.332-2.532.943-2.532 2.585 0 .238.038.455.066.678C25.203 72.574 24.091 70.41 23.95 67.325zM33.116 76.942c-1.071 0-4.564-.258-4.564-3.574 0-.824.543-1.183 2.423-1.6l.25-.055.228-.369c.363-.595.676-1.109 1.631-1.109.855 0 1.268.542 1.718 1.25l.138.216.25.054c1.907.405 2.489.782 2.489 1.613C37.679 76.684 34.186 76.942 33.116 76.942zM38.852 73.85c.014-.161.046-.313.046-.482 0-.906-.404-1.491-.966-1.897 4.575-1.44 8.914-4.745 12.924-9.853.11.771.186 1.538.186 2.282 0 2.441-.612 4.486-1.804 6.098-.459-.508-1.125-.981-2.133-.981-1.581 0-2.215.946-2.627 1.618-1.333.303-3.125.817-3.125 2.733 0 .163.032.308.045.464C40.563 73.9 39.694 73.907 38.852 73.85zM47.137 76.942c-1.071 0-4.564-.258-4.564-3.574 0-.824.543-1.183 2.423-1.6l.25-.055.228-.369c.362-.595.676-1.109 1.631-1.109.855 0 1.268.542 1.718 1.25l.137.216.25.054c1.907.405 2.489.782 2.489 1.613C51.701 76.684 48.207 76.942 47.137 76.942zM56.051 67.325c-.137 2.992-.757 5.231-3.204 6.796.035-.246.073-.489.073-.753 0-1.722-1.434-2.317-2.708-2.637 1.355-1.826 2.05-4.118 2.05-6.832 0-2.112-.433-4.358-1.229-6.523.442-.486.779-1.025.964-1.588C54.023 59.476 56.194 64.202 56.051 67.325zM34.983 39.254c1.144 0 2.071-.927 2.071-2.071 0-1.144-.927-2.071-2.071-2.071-1.144 0-2.071.927-2.071 2.071C32.912 38.327 33.839 39.254 34.983 39.254zM45.223 39.254c1.144 0 2.071-.927 2.071-2.071 0-1.144-.927-2.071-2.071-2.071-1.144 0-2.071.927-2.071 2.071C43.152 38.327 44.08 39.254 45.223 39.254zM40 41.99c.861 0 2.008-1.067 2.008-1.913 0-.845-.899-1.339-2.008-1.339-1.109 0-2.008.494-2.008 1.339C37.992 40.922 39.139 41.99 40 41.99zM36.342 43.818c0-.225-.182-.406-.406-.406-.224 0-.406.182-.406.406 0 1.345 1.094 2.438 2.438 2.438.848 0 1.595-.437 2.032-1.095.437.659 1.184 1.095 2.032 1.095 1.345 0 2.438-1.094 2.438-2.438 0-.225-.182-.406-.406-.406-.224 0-.406.182-.406.406 0 .896-.729 1.626-1.626 1.626-.897 0-1.625-.729-1.625-1.626 0-.225-.182-.406-.407-.406-.224 0-.406.182-.406.406 0 .896-.729 1.626-1.625 1.626C37.072 45.444 36.342 44.715 36.342 43.818zM32.08 43.497l-4.744 1.354c-.216.062-.341.286-.279.502.051.179.214.295.391.295.037 0 .075-.005.112-.016l4.744-1.354c.216-.062.341-.286.279-.502C32.52 43.559 32.296 43.434 32.08 43.497zM32.925 41.083l-5.353-1.715c-.214-.073-.443.048-.511.263-.068.214.049.442.263.511l5.353 1.715c.041.014.083.02.124.02.172 0 .332-.109.387-.282C33.257 41.38 33.139 41.151 32.925 41.083zM52.663 44.85l-4.743-1.354c-.216-.061-.441.063-.502.279-.061.216.063.44.279.502l4.744 1.354c.037.011.075.016.112.016.177 0 .339-.116.39-.295C53.005 45.137 52.88 44.912 52.663 44.85zM46.812 41.594c.055.173.215.282.387.282.041 0 .083-.006.124-.02l5.353-1.715c.214-.068.332-.297.263-.511-.069-.215-.297-.336-.511-.263l-5.353 1.715C46.861 41.151 46.743 41.38 46.812 41.594z"/>
</svg>