<svg xmlns="http://www.w3.org/2000/svg" viewBox="0 0 80 80">
<path d="M49.337 50.162c3.952-1.294 7.505-4.005 7.505-9.691 0-6.771-3.46-11.074-7.599-13.516 1.261-1.846 3.547-5.462 5.11-9.514 2.259-5.859 2.876-14.293 0-15.321-2.876-1.028-7.189 4.73-9.654 10.693-2.262 5.473-2.728 10.812-2.789 11.654-.667-.082-1.308-.121-1.91-.121-.741 0-1.553.065-2.409.201-.032-.49-.441-6.04-2.795-11.734C32.331 6.85 28.018 1.092 25.142 2.12c-2.876 1.028-2.259 9.462 0 15.321 1.641 4.254 4.077 8.027 5.29 9.776-3.972 2.483-7.274 6.719-7.274 13.254 0 5.686 3.553 8.397 7.505 9.691-.856 1.279-7.765 11.795-7.503 17.518.162 3.549 1.501 6.346 5.113 8.065C29.093 77.277 30.919 78 33.041 78c1.012 0 1.957-.165 2.758-.503 1.279.107 2.675.163 4.201.163 1.611 0 3.079-.062 4.415-.181C45.225 77.829 46.184 78 47.214 78c2.198 0 4.078-.775 4.852-2.422 3.358-1.73 4.617-4.462 4.774-7.897C57.101 61.957 50.193 51.441 49.337 50.162zM53.083 45.417c-.052.181-.216.299-.395.299-.037 0-.075-.005-.113-.016l-4.795-1.37c-.218-.062-.345-.29-.282-.508.062-.218.29-.345.508-.283l4.795 1.37C53.019 44.971 53.145 45.198 53.083 45.417zM53.079 39.626c.069.216-.05.448-.266.517l-5.411 1.736c-.042.013-.084.02-.125.02-.174 0-.335-.111-.391-.286-.069-.216.05-.448.266-.517l5.411-1.736C52.778 39.29 53.01 39.41 53.079 39.626zM46.335 17.383c1.532-3.861 3.893-7.498 5.135-6.678 1.242.82.384 6.415-1.047 10.216-.79 2.097-1.769 3.986-2.49 5.26-1.217-.577-2.469-.974-3.659-1.212C44.385 24.267 44.968 20.827 46.335 17.383zM40 38.723c1.121 0 2.03.5 2.03 1.355 0 .855-1.16 1.935-2.03 1.935-.87 0-2.03-1.08-2.03-1.935C37.97 39.223 38.879 38.723 40 38.723zM39.589 43.864c0-.227.184-.411.411-.411.227 0 .411.184.411.411 0 .907.737 1.645 1.643 1.645.906 0 1.643-.738 1.643-1.645 0-.227.184-.411.411-.411.227 0 .411.184.411.411 0 1.361-1.106 2.468-2.465 2.468-.857 0-1.612-.44-2.054-1.107-.442.666-1.197 1.107-2.054 1.107-1.359 0-2.465-1.107-2.465-2.468 0-.227.184-.411.411-.411.227 0 .411.184.411.411 0 .907.737 1.645 1.643 1.645C38.852 45.509 39.589 44.771 39.589 43.864zM40.025 48.594c.656 0 1.298.089 1.925.255-3.618 2.474-5.849 1.881-6.776 1.395C36.653 49.206 38.295 48.594 40.025 48.594zM29.072 20.964c-1.432-3.803-2.29-9.401-1.047-10.222 1.242-.821 3.605 2.818 5.138 6.682 1.456 3.669 2.024 7.333 2.077 7.692-1.162.273-2.383.702-3.567 1.303C30.944 25.147 29.903 23.172 29.072 20.964zM26.921 39.626c.069-.216.3-.336.517-.266l5.411 1.736c.216.069.335.301.266.517-.056.175-.217.286-.391.286-.042 0-.084-.006-.125-.02l-5.411-1.736C26.971 40.074 26.852 39.842 26.921 39.626zM27.425 45.699c-.038.011-.076.016-.113.016-.179 0-.343-.118-.395-.299-.062-.219.064-.446.282-.508l4.795-1.37c.218-.063.446.064.508.283.062.218-.064.446-.282.508L27.425 45.699zM28.272 64.596c0-2.425.569-4.983 1.562-7.325.447.463 1.017.863 1.686 1.15 2.085.894 4.319.35 4.989-1.216.67-1.566-.477-3.56-2.563-4.455-.376-.161-.756-.274-1.131-.344.234-.27.474-.53.721-.777.523.396 1.72 1.111 3.55 1.111 1.774 0 4.143-.676 7.066-2.96 1.145.671 2.205 1.599 3.148 2.702-.262.068-.525.157-.786.269-2.086.895-3.233 2.889-2.563 4.455.242.566.691.997 1.261 1.276-4.415 4.369-8.292 6.131-11.013 6.809-2.994.745-5.126.339-5.902.131C28.282 65.151 28.272 64.877 28.272 64.596zM35.222 71.436c-.005.001-.01.001-.015.002-.413-.644-1-1.458-2.197-1.458-1.383 0-1.833.861-2.237 1.52-.107-.015-.216-.03-.318-.047-.857-1.059-1.494-2.342-1.851-3.861.579.102 1.325.187 2.22.187 1.043 0 2.285-.114 3.687-.448 4.548-1.081 9.007-3.958 13.3-8.566.375-.07.754-.183 1.13-.344.528-.227.995-.524 1.389-.867.291.715.546 1.447.753 2.19C46.254 66.473 40.789 70.509 35.222 71.436zM49.518 71.548c-.027-.006-.052-.012-.079-.017-.416-.655-1.001-1.551-2.257-1.551-1.415 0-1.854.903-2.266 1.566-1.736.385-2.932.814-2.932 2.221 0 .526.078.999.222 1.424-.707.089-1.436.136-2.182.136-.676 0-1.339-.038-1.984-.111.149-.43.229-.912.229-1.448 0-.358-.078-.654-.222-.902 5.699-1.794 10.287-6.188 13.587-10.428.094.725.143 1.447.143 2.158C51.778 67.542 50.938 69.843 49.518 71.548zM36.986 36.79c0 1.144-.927 2.071-2.071 2.071-1.144 0-2.071-.927-2.071-2.071 0-1.144.927-2.071 2.071-2.071C36.059 34.719 36.986 35.646 36.986 36.79zM47.125 36.79c0 1.144-.927 2.071-2.071 2.071-1.144 0-2.071-.927-2.071-2.071 0-1.144.927-2.071 2.071-2.071C46.198 34.719 47.125 35.646 47.125 36.79z"/>
</svg>