<svg xmlns="http://www.w3.org/2000/svg" viewBox="0 0 80 80">
<path d="M64.552 22.112c-.283-.104-.6-.013-.787.225l-5.52 6.993h-5.484c-.472-4.764-5.747-6.498-9.098-6.82l.342-7.904 4.731-6.702c.153-.216.171-.499.046-.732-.125-.232-.361-.373-.633-.371l-17.07.38c-.259.006-.493.154-.61.386-.117.23-.096.508.054.719l5.232 7.395.34 6.903c-7.385 1.488-8.805 6.747-9.077 8.658h-4.391l-6.281-7.027c-.187-.209-.479-.286-.744-.197-.265.089-.452.327-.476.605-.772 9.199 1.827 17.85 1.938 18.213.072.239.267.421.51.478.243.059.498-.021.669-.202l4.491-4.768 5.135-.325c1.247 4.924 5.852 6.619 7.484 7.072v11.983c-1.76.75-4.688 1.321-5.994 1.554-.433-1.925-1.125-2.665-1.211-2.751-.172-.172-.42-.238-.656-.187-.236.057-.427.23-.503.461-.229.692-.46 1.277-.666 1.752-.826-2.066-2.271-3.692-2.349-3.779-.193-.215-.5-.29-.771-.186-.271.104-.45.363-.45.653v5.132l-1.804-2.258c-.185-.232-.496-.324-.778-.224-.28.098-.468.362-.468.66 0 2.623.357 4.377.75 5.511l-2.085-.813c-.25-.098-.534-.043-.731.14-.196.183-.271.462-.192.719 1.563 5.067 3.896 7.44 3.994 7.539.131.131.309.205.495.205h35.22c.235 0 .455-.118.585-.314 2.858-4.335 2.703-11.186 2.695-11.476-.008-.291-.195-.547-.471-.642-.275-.097-.581-.01-.767.213l-2.083 2.497 1.397-7.267c.052-.269-.058-.542-.28-.701-.222-.159-.517-.175-.754-.038-1.798 1.026-3.232 3.378-4.071 5.04l-.637-2.327c-.069-.254-.275-.447-.533-.501-.259-.055-.524.042-.688.248-1.074 1.342-1.949 3.184-2.415 4.268-1.644-1.161-4.392-2.327-5.485-2.77l.35-12.278c7.859-1.228 8.736-7.137 8.802-9.164l5.175-.644 5.492 4.936c.204.184.495.232.746.122.251-.108.416-.354.422-.627l.381-16.989C65.021 22.485 64.835 22.214 64.552 22.112zM29.909 59.95c-.102.169-.214.329-.339.471-.004-.146-.011-.283-.018-.407C29.661 59.995 29.779 59.974 29.909 59.95zM51.816 58.003l.753 2.752c.08.292.338.499.641.515.301-.014.579-.166.688-.448.014-.038 1.171-3.015 2.866-4.931l-1.536 7.987c-.061.313.099.628.388.765.288.135.632.062.837-.185l2.521-3.021c-.149 2.197-.638 5.769-2.204 8.363H22.245c-.487-.568-1.844-2.318-2.982-5.351l2.417.943c.304.116.646.005.829-.266.183-.271.148-.639-.075-.877-.011-.012-.936-1.037-1.236-4.235l1.711 2.142c.185.233.497.326.778.224.28-.098.468-.362.468-.66V56.73c.552.889 1.12 2.033 1.287 3.182.042.287.257.519.541.582.283.06.576-.055.736-.298.025-.038.483-.739 1.044-2.102.126.376.25.851.349 1.436.014.129.142 1.408.001 2.315-.041.264.073.528.292.681.22.153.507.168.741.037.043-.024.731-.413 1.374-1.106.169.647.323 1.421.323 2.079 0 .276.163.527.416.64.253.114.548.064.753-.12.056-.05 1.02-.926 1.832-2.04.277 1.096.484 2.691-.058 4.182-.01.026-.006.053-.012.08-.011.047-.02.092-.021.14-.001.045.003.087.011.131.008.044.017.086.032.128.017.045.039.085.064.125.015.023.02.05.037.072.01.012.025.017.036.028.042.046.093.082.148.116.032.02.06.044.094.058.011.005.019.014.029.018.079.028.16.042.239.042 0 0 0 0 0 0 0 0 0 0 0 0 .001 0 .003-.001.005-.001.073 0 .145-.013.212-.036.021-.007.04-.02.06-.029.048-.021.096-.044.139-.076.006-.005.014-.006.021-.011.037-.029.072-.077.108-.11.002-.002.005-.004.007-.007 1.014-.943 1.913-3.459 2.404-5.066 1.018 1.29 1.988 2.903 2 2.924.162.269.482.399.785.314.303-.082.514-.356.516-.67.007-1.156.242-2.178.519-2.986.745 2.158 2.354 4.078 2.446 4.188.161.19.411.28.654.237.244-.042.448-.211.536-.443.475-1.268.581-2.607.579-3.553 1.055.68 2.271 1.759 2.764 2.23.185.176.451.238.694.162.244-.077.426-.28.477-.53.237-1.187.667-1.992.671-2 .01-.018.009-.038.017-.057.006-.013.018-.02.023-.033C50.089 61.56 50.798 59.677 51.816 58.003zM48.57 61.525c-.083.196-.175.428-.27.72-.905-.783-2.323-1.906-3.404-2.276-.229-.077-.483-.032-.671.121-.188.153-.282.394-.25.634.002.018.171 1.334-.079 2.812-.825-1.235-1.774-3.036-1.637-4.413.032-.316-.153-.614-.451-.726-.298-.109-.634-.008-.817.253-.053.074-1.035 1.488-1.478 3.672-.568-.828-1.28-1.786-1.938-2.445-.177-.177-.436-.247-.678-.181-.242.065-.43.255-.495.498-.229.869-.565 1.948-.938 2.938-.187-1.701-.77-2.986-.81-3.072-.114-.247-.362-.405-.635-.405-.002 0-.005 0-.007 0-.275.003-.523.167-.633.419-.294.669-.826 1.364-1.306 1.911-.215-1.116-.566-2.11-.648-2.334 1.621-.345 3.655-.863 4.941-1.502l0 0c.126-.061 2.666-1.242 6.28.391.004.002.01.001.015.003.008.003.014.01.021.012C43.909 59.026 47.133 60.401 48.57 61.525zM63.268 38.221l-4.596-4.131c-.151-.136-.354-.202-.555-.174l-6.11.76c-.374.046-.644.383-.61.759.027.3.557 7.359-8.167 8.41-.344.042-.606.329-.616.676l-.352 12.363c-2.432-.853-4.393-.626-5.509-.339V44.54c0-.339-.244-.629-.577-.689-.246-.044-6.03-1.151-7.065-6.698-.065-.35-.383-.585-.732-.57l-6.01.38c-.177.011-.343.089-.465.219l-3.823 4.059c-.625-2.466-1.919-8.452-1.663-14.844l5.373 6.012c.133.148.322.233.521.233h5.34c.387 0 .7-.313.7-.7 0-.066.098-6.684 8.584-8.09.351-.058.602-.37.584-.725l-.38-7.72c-.006-.133-.051-.262-.128-.37l-4.589-6.485 14.365-.32-4.049 5.736c-.078.109-.122.239-.128.373l-.38 8.79c-.008.186.058.366.184.504.125.137.3.218.486.226.347.015 8.49.432 8.49 6.171 0 .387.313.7.7.7h6.49c.214 0 .417-.099.549-.267l4.434-5.617L63.268 38.221zM42.571 26.662c-.191-.037-.389.01-.544.127-.156.115-.257.291-.278.484-.148 1.333-.257 2.925-.324 4.731-.007.196.069.387.209.524.131.129.307.201.491.201.013 0 .025-.001.038-.001 2.076-.114 3.849-.324 5.267-.625.185-.039.346-.151.447-.311.101-.16.133-.354.088-.538C47.355 28.72 45.591 27.217 42.571 26.662zM42.856 31.284c.051-1.128.12-2.158.206-3.08 1.729.457 2.788 1.309 3.323 2.676C45.368 31.057 44.186 31.191 42.856 31.284zM47.256 34.721c-1.212.05-3.104.13-5.237.24-.371.02-.662.324-.664.695-.01 1.981.021 3.662.051 4.723.005.211.105.407.271.535.124.096.274.146.428.146.053 0 .106-.006.159-.019 3.009-.701 5.034-2.641 5.702-5.461.05-.213-.002-.438-.142-.606C47.685 34.806 47.477 34.701 47.256 34.721zM42.783 39.434c-.016-.805-.031-1.886-.03-3.109 1.35-.067 2.578-.122 3.563-.164C45.691 37.705 44.471 38.836 42.783 39.434zM38.115 35.192c-1.658.118-3.57.263-5.179.442-.22.024-.415.151-.527.343-.111.191-.126.424-.039.627.949 2.225 2.867 3.848 5.262 4.454.057.015.114.021.172.021.139 0 .276-.042.393-.121.166-.112.275-.29.301-.489.176-1.351.299-2.882.366-4.551.008-.199-.069-.393-.212-.531C38.509 35.25 38.314 35.183 38.115 35.192zM37.209 39.458c-1.299-.5-2.378-1.385-3.1-2.538 1.076-.104 2.231-.194 3.32-.274C37.377 37.644 37.303 38.585 37.209 39.458zM38.448 26.691c-.153-.121-.35-.175-.542-.143-3.177.5-5.366 2.424-6.004 5.279-.045.2.001.41.125.574.124.164.313.266.519.277.628.035 2.894.15 5.669.15.187 0 .367-.075.498-.209.132-.133.204-.313.202-.501-.029-2.082-.124-3.914-.202-4.934C38.697 26.991 38.601 26.812 38.448 26.691zM33.514 31.326c.63-1.611 1.986-2.751 3.856-3.238.053.874.104 2.038.132 3.34C35.843 31.416 34.421 31.366 33.514 31.326z"/>
</svg>