<svg xmlns="http://www.w3.org/2000/svg" viewBox="0 0 80 80">
<path d="M67.976 20.204c-2.458-5.314-5.312-8.433-8.331-8.101-3.02.332-5.547 4.25-5.882 7.496-.335 3.246-3.023 4.138-3.023 4.138-.768-6.163-3.216-9.177-5.464-11.658-2.248-2.481-8.888-5.088-12.39 1.68-3.094 5.981.293 13.551.293 13.551 0 0-8.119-6.817-13.547-7.969-2.713-.576-4.781.996-5.704 6.96-.923 5.964.163 15.524 1.528 15.861 2.781.687 1.984-2.5 4.605-2.999 2.621-.499 3.954 1.694 5.784 1.159 1.83-.534 1.557-2.055 4.199-3.098 2.642-1.042 6.722-.352 8.148 7.209 1.426 7.561.168 8.775-3.418 11.166-3.586 2.391-9.164.199-12.95 1.195-3.786.996-6.574 4.184-6.355 5.63.219 1.447 4.961.346 8.065.488 3.104.142 7.255 2.249 9.447 4.241 2.191 1.992 13.547 9.762 20.747 2.075 7.2-7.687 1.367-20.204-.256-27.416-1.623-7.212-2.561-10.12 1.767-12.663 4.328-2.543 5.434 1.747 7.208 1.147 1.774-.6.816-2.388 3.075-3.252 2.259-.864 3.319.664 4.375.122C70.952 26.624 70.434 25.518 67.976 20.204zM43.888 18.442c1.234-.005 1.96 1.057 1.966 2.617.006 1.56-1.108 3.028-1.943 3.031-.758.003-1.961-1.456-1.967-3.016C41.936 19.515 42.731 18.447 43.888 18.442zM39.547 25.205c-.683.329-2.397-.47-3.074-1.875-.677-1.405-.42-2.712.622-3.214 1.112-.536 2.224.111 2.901 1.516C40.673 23.038 40.299 24.843 39.547 25.205zM45.064 37.696c-.998.238-3.208-2.04-3.883-4.869-.675-2.829-.084-5.012 1.439-5.375 1.625-.388 3.036 1.318 3.711 4.146C47.006 34.427 46.165 37.433 45.064 37.696z"/>
</svg>