<svg xmlns="http://www.w3.org/2000/svg" viewBox="0 0 80 80">
<path d="M56.756 16.68c-5.49-4.84-11.77-7.18-17.71-7.18-4.19 0-8.2 1.16-11.66 3.43-.94.62-1.84 1.32-2.69 2.1-2.45 2.26-4.49 5.2-5.93 8.78-.44 1.11-.84 2.29-1.21 3.53-.29 1.02-.56 2.07-.81 3.16-3.225 14.225-2.331 33.651-2.023 38.739.043.713.634 1.261 1.349 1.261h47.103c.685 0 1.26-.506 1.341-1.186C65.34 62.414 68.861 27.364 56.756 16.68zM61.716 67.5h-44.08c-.35-6.96-.88-25.51 2.49-38.18l4.36-1.53 2.3 2.37.62-.47-1.97-3.46c-.16-.27-.47-.42-.79-.36l-.16.04-3.56.74c.19-.59.41-1.17.63-1.73 1.48-3.71 3.75-6.71 6.55-8.82l5.6 1.76-4.74 4.53c-.18.15-.29.38-.29.63.01.45.38.8.82.79l5.37-.11-1.91 3.29.53.36 3.14-3.97c.34-.4.03-1.07-.5-1.06h-.06l-4.28-.08 5.09-3.99c.17-.14.31-.33.39-.55.23-.65-.15-1.37-.81-1.56l-5.32-1.88c2.4-1.15 5.07-1.76 7.91-1.76 5.44 0 11.02 2.28 15.72 6.43 4.42 3.9 6.53 12.09 7.39 21l-4.37.51c-.88.03-1.53.89-1.29 1.74l1.45 5.41c-.93.84-2.84 2.58-2.86 2.6-.15.13-.24.32-.23.52l.01 4.38-5.08 4.86.45.51 5.79-4.54c.15-.12.24-.3.24-.5 0-.02.01-3.21.01-4.33l3.4-2.4c.26-.18.41-.49.37-.81l-.01-.15-.47-4.52 2.82-.33C62.976 51.98 62.406 61.4 61.716 67.5zM34.21 39.726c1.215-1.373.848-3.648-.114-5.094-1.145-1.717-3.202-2.467-5.793-2.111-1 .137-1.792.703-2.122 1.516-.158.391-.175.76-.187 1.004l-.521 10.804 2.665.129L28.3 42.6l5.362 3.819 1.547-2.174-4.039-2.877C32.517 40.9 33.615 40.398 34.21 39.726zM28.452 39.438l.206-4.269c0-.002 0-.003 0-.004.002-.001.005-.001.007-.001 1.078-.148 2.509-.104 3.21.948.467.7.538 1.617.337 1.844-.416.45-2.623 1.131-3.454 1.387C28.652 39.377 28.55 39.408 28.452 39.438zM39.109 31.779c.165 3.662.208 10.684.135 14.28l2.667.055c.074-3.638.03-10.744-.137-14.454L39.109 31.779zM50.127 40.919c.91-.011 1.792-.137 2.638-.431.975-.338 1.808-.982 2.41-1.864.98-1.434.569-4.539-1.21-5.873-.945-.707-1.848-1.043-2.841-1.058-.993.007-1.89.238-2.689.464-.576.161-.974.686-.974 1.284l-.003 12.474h2.668L50.127 40.919zM50.129 34.474c.33-.071.648-.106.955-.112.414.006.797.164 1.281.525.592.444.787 1.859.607 2.232-.277.405-.651.699-1.081.848-.565.196-1.163.301-1.763.284L50.129 34.474z"/>
</svg>