<svg xmlns="http://www.w3.org/2000/svg" viewBox="0 0 80 80">
<path d="M74.507 31.461c-.032-.337-.201-.644-.369-.938-1.246-2.184-2.829-4.44-5.236-5.163-2.215-.666-4.613.144-6.621 1.293-2.008 1.149-3.826 2.645-5.962 3.534-1.301.541-2.852.825-4.078.129-1.225-.696-1.675-2.695-.525-3.511 1.386-.983 4.384.652 5.099-.889.217-.468.123-1.016.005-1.518-.672-2.849-2.449-5.992-4.567-8.013-1.624-1.549-3.706-2.648-5.93-3.005-3.425-.549-6.822-.505-9.898 1.282-2.935 1.705-5.229 4.631-5.795 8.019-.319 1.906-.336 4.207-1.966 5.246-1.757 1.119-4.141-.177-5.308-1.903-1.167-1.726-1.674-3.85-2.947-5.499-1.235-1.599-2.364-2.419-4.85-3.557-2.055-.941-6.116-.979-8.135.035-2.352 1.181-2.071 3.333-1.655 5.931.302 1.891 1.556 3.829 3.254 4.408.898.307 1.877.06 2.823-.012.947-.072 2.06.132 2.505.971.301.567.202 1.251.167 1.892-.104 1.94.687 4.133 2.492 4.853.602.24 1.275.3 1.838.622 1.839 1.053 1.337 3.938 2.608 5.634 1.029 1.373 2.956 1.649 4.391 2.59 2.573 1.687 3.172 5.19 3.095 8.267-.077 3.076-.693 8.993 1.629 10.335 4.578 2.648 7.077-1.379 9.574-.146 1.318.65 2.098 2.025 3.206 2.991 2.976 2.595 7.727 1.718 10.985-.514 1.061-.727 2.054-1.585 3.248-2.062 2.856-1.141 6.275.501 9.291-.102 2.759-.552 2.069-1.931.896-4.028-1.143-2.044 8.208-2.455 1.173-6.765-1.638-1.003-3.358-1.834-4.985-2.855-1.531-.961-2.754-2.331-3.955-3.683-.867-.976-1.797-2.213-1.41-3.46.537-1.73 2.952-1.798 4.717-1.39 1.765.408 4.027.763 5.028-.747 1.053-1.589-.241-4.112 1.097-5.469.736-.747 1.913-.737 2.947-.906C73.416 33.189 74.606 32.505 74.507 31.461zM34.998 29.745c-.278-.347-.505-.734-.675-1.145-.179-.435-.292-.897-.347-1.364-.093-.795-.007-1.637.406-2.322.414-.685 1.2-1.177 1.996-1.088.094.01.192.031.264.092.127.107.132.297.133.463.009 1.422.421 2.641 1.394 3.694.226.244.484.471.63.769.283.576.058 1.324-.443 1.726-.5.402-1.213.479-1.826.291C35.918 30.671 35.398 30.246 34.998 29.745zM45.079 37.556c-.737 1.29-2.207 1.931-3.173 1.931-.69 0-1.793-.138-2.897-1.241-1.191-1.191-1.613-1.999-2.295-3.726-.116-.295-.215-.653-.025-.907.148-.198.43-.254.67-.2.241.054.45.197.652.338.388.271.972.595 1.412.771 1.379.552 2.715.512 3.31.276.64-.253 1.524-.716 2.162-.973.266-.107.609-.181.806.027.076.081.113.19.14.297C46.102 35.169 45.631 36.59 45.079 37.556zM47.166 26.684c-.055.468-.168.929-.347 1.364-.169.411-.397.798-.675 1.145-.401.501-.92.926-1.534 1.115-.613.188-1.326.111-1.826-.291-.5-.402-.725-1.15-.443-1.726.147-.299.404-.525.63-.769.973-1.053 1.385-2.272 1.394-3.694.001-.166.007-.355.133-.463.072-.061.17-.081.264-.092.795-.089 1.582.403 1.996 1.088C47.174 25.047 47.259 25.889 47.166 26.684z"/>
</svg>