<svg xmlns="http://www.w3.org/2000/svg" viewBox="0 0 80 80">
<path d="M56.08 23.389c-2.248-1.392-4.751-2.175-7.392-2.175-.63 0-1.252.046-1.865.133-1.49-.837-3.081-1.416-4.739-1.708 1.141-4.465 3.843-7.407 3.843-7.407L40 11c-1.559 3.591-2.228 6.55-2.51 8.589-1.775.274-3.475.877-5.06 1.773-.641-.095-1.291-.147-1.951-.147-2.692 0-5.242.811-7.524 2.255-8.118 1.026-14.47 10.16-14.47 21.279C8.485 55.868 14.836 65 22.954 66.027c2.282 1.444 4.832 2.255 7.524 2.255 1.196 0 2.364-.161 3.494-.465C35.76 68.582 37.663 69 39.641 69c1.963 0 3.853-.411 5.629-1.166 1.106.291 2.249.447 3.419.447 2.641 0 5.143-.782 7.392-2.175 8.574-.394 15.435-9.803 15.435-21.359C71.516 33.191 64.654 23.783 56.08 23.389zM40.194 41.239l3.938 7.018H36.08L40.194 41.239zM30.119 29.478l5.847 10.42H24.011L30.119 29.478zM42.407 60.227l-.431-4.521-3.952-.359-1.63 4.656C26.761 58.002 24.73 48.257 24.73 48.257c0 0 2.391 1.431 6.248 2.588l.219 3.424 3.747.761.595-3.141c3.049.483 6.564.609 10.307-.064l.44 3.522 3.234-.719.353-3.83c1.846-.615 3.723-1.444 5.608-2.541C55.482 48.257 53.718 58.891 42.407 60.227zM44.132 39.897l6.108-10.42 5.847 10.42H44.132z"/>
</svg>