<svg xmlns="http://www.w3.org/2000/svg" viewBox="0 0 80 80">
<path d="M54.177 60.086c-1.856-.261-3.131 1.275-3.536 2.377-.143.39-.197.706-.244.986-.06.354-.1.588-.304.912-.129.205-.43.384-.726.445.447-.987.314-2.123-.417-2.863-.563-.572-1.505-.819-2.396-.628-.739.158-1.291.593-1.514 1.193-.268.72-.026 1.45.168 2.036.229.693.252.892.114 1.015-.107.095-.277.094-.401.078-.327-.046-.678-.259-.835-.506-.213-.337-.302-.764-.397-1.216-.067-.324-.137-.649-.245-.963-.368-1.073-1.408-2.061-2.683-1.904-1.332.176-2.077 1.417-1.994 3.318.007.179.051 1.748-.802 1.834-.549.049-.962-.564-1.023-1.032-.042-.329-.012-.687.02-1.065.04-.47.081-.955-.003-1.47-.11-.682-.516-1.33-1.083-1.734-.482-.342-1.05-.48-1.601-.382-.379.066-.634.427-.569.807.145.85.237 1.599-.102 2.152-.179.293-.45.503-.69.534-.136.018-.246-.022-.361-.133-.188-.178-.205-.534-.173-1.015.055-.831-.481-1.604-.94-2.105-.405-.441-1.126-.638-1.753-.476-.497.129-.843.459-.951.907-.014.059-.021.119-.02.179.089 4.211 2.719 8.296 6.699 10.406 2.049 1.087 4.424 1.63 6.781 1.63 2.356 0 4.693-.543 6.667-1.629 3.925-2.16 5.916-5.859 5.916-10.996C54.778 60.431 54.521 60.136 54.177 60.086zM48.187 70.549c-3.55 1.955-8.42 1.95-12.117-.011-3.448-1.829-5.755-5.303-5.944-8.912.093.018.237.029.28.077.366.4.592.819.576 1.068-.031.472-.096 1.454.605 2.121.419.398.955.581 1.508.506.664-.087 1.3-.532 1.703-1.191.4-.654.471-1.367.431-2.022.178.186.311.437.349.674.056.345.024.725-.01 1.127-.037.436-.075.887-.013 1.363.154 1.188 1.18 2.387 2.552 2.245 1.353-.136 2.142-1.396 2.06-3.287-.018-.412-.015-1.765.778-1.869.551-.088 1.022.522 1.176.971.089.258.144.526.199.794.11.529.235 1.129.585 1.68.375.592 1.091 1.04 1.824 1.143.588.081 1.13-.067 1.525-.419.859-.764.513-1.81.284-2.501-.138-.417-.281-.849-.185-1.107.052-.139.241-.258.495-.312.416-.088.881.013 1.107.241.468.475.288 1.262-.157 1.748-.223.244-.245.609-.055.878.323.455.839.693 1.477.678.81-.022 1.656-.484 2.058-1.122.354-.561.431-1.021.499-1.426.041-.24.079-.469.178-.736.129-.351.619-1.201 1.407-1.431C53.183 65.72 51.444 68.757 48.187 70.549zM63.846 25.466C62.098 12.945 54.247 6.595 40.509 6.595c-14.522 0-21.734 4.771-24.114 15.952C14.266 32.553 18.37 41.43 20.232 44.78c1.124 2.029 2.787 2.389 4.254 2.705.96.208 1.868.403 2.723 1.01 1.442 1.012 1.178 3.324.945 5.365-.091.8-.178 1.557-.163 2.218.024 1.042.353 1.774.976 2.179.72.468 1.711.423 3.037-.133.847-.368 1.02-1.398 1.173-2.307.214-1.271.36-1.493.653-1.458.117.011.207.038.233.071.137.167.065.857.018 1.315-.084.81-.18 1.729.203 2.505.316.639.886 1.062 1.645 1.225 1.21.258 2.69-.207 3.421-.81.492-.405.712-1.17.967-2.057.251-.872.589-2.061 1.095-2.012.531.061.604.113.715 1.285.05.527.112 1.185.332 1.896.307.98 1.071 1.633 2.096 1.79.161.024.325.036.49.036 1.053 0 2.133-.485 2.653-1.235.369-.536.439-1.305.515-2.117.147-1.596.323-2.021.848-2.021.007 0 .014 0 .021.001.153.003.269.06.389.19.642.697.767 2.789.695 3.943-.015.233.088.458.273.6.185.142.43.18.65.107.446-.152 4.365-1.56 4.543-4.254.076-1.237-.377-1.921-.708-2.419-.335-.506-.415-.626.147-1.388.446-.604.977-.811 1.711-1.097 1.358-.527 3.047-1.185 4.797-4.553C64.161 40.376 64.674 31.39 63.846 25.466zM60.338 44.719c-1.506 2.898-2.864 3.426-4.061 3.892-.809.314-1.644.64-2.331 1.569-1.058 1.434-.71 2.204-.187 2.993.281.424.524.791.477 1.557-.075 1.131-1.531 2.083-2.658 2.625-.032-1.172-.229-2.958-1.077-3.88-.376-.409-.857-.632-1.39-.644-.021 0-.041 0-.061 0-1.927 0-2.11 1.979-2.231 3.292-.05.543-.113 1.218-.272 1.45-.262.378-1.058.718-1.78.611-.504-.077-.822-.347-.971-.822-.176-.571-.229-1.124-.275-1.612-.1-1.046-.224-2.348-1.952-2.543-.08-.009-.157-.014-.231-.014-1.495 0-1.996 1.741-2.366 3.029-.14.485-.351 1.219-.512 1.363-.402.33-1.45.689-2.238.521-.336-.072-.56-.228-.683-.476-.203-.413-.133-1.088-.065-1.74.089-.85.18-1.729-.327-2.348-.274-.335-.673-.529-1.184-.578-1.698-.159-1.991 1.58-2.167 2.62-.067.4-.192 1.146-.342 1.251-1.152.485-1.59.334-1.725.246-.277-.18-.331-.726-.338-1.035-.013-.566.068-1.276.154-2.027.264-2.309.592-5.181-1.529-6.669-1.086-.77-2.227-1.017-3.234-1.233-1.402-.303-2.509-.542-3.325-2.016-1.787-3.215-5.723-11.721-3.692-21.264 2.215-10.404 9.017-14.843 22.745-14.843 19.487 0 21.341 13.295 21.95 17.664C63.257 31.369 62.785 39.989 60.338 44.719zM49.992 26.981c-3.47-.208-6.525 3.448-6.809 8.162-.284 4.714 2.302 8.708 5.783 8.915 3.481.219 6.526-3.437 6.81-8.151C56.059 31.193 53.473 27.199 49.992 26.981zM31.626 27.025c-3.459.393-5.838 4.507-5.303 9.199.523 4.703 3.754 8.184 7.224 7.802 3.459-.393 5.837-4.507 5.303-9.21C38.327 30.124 35.097 26.632 31.626 27.025zM41.677 46.545c-1.386 0-2.516.71-2.516 1.596 0 .885 1.129 1.596 2.516 1.596 1.386 0 2.504-.711 2.504-1.596C44.181 47.255 43.063 46.545 41.677 46.545z"/>
</svg>