<svg xmlns="http://www.w3.org/2000/svg" viewBox="0 0 80 80">
<path d="M77.373 21.29c-.02-.008-.065-.024-.121-.044-.919-1.297-4.423-5.139-13.091-3.924-9.947 1.4-17.625 12.417-17.948 12.886-.13.189-.168.429-.111.651.056.224.21.413.415.519.093.047 2.252 1.202 1.648 5.125-.408 2.652-1.677 3.942-2.523 4.523-.263-1.818-.168-4.586-.095-5.668.021-.309-.138-.602-.409-.753-.271-.15-.604-.133-.855.049-2.405 1.724-3.713 3.824-4.417 5.47-.704-1.646-2.012-3.746-4.418-5.47-.251-.181-.585-.198-.855-.049-.271.151-.43.444-.409.754.073 1.081.168 3.847-.095 5.666-.848-.582-2.115-1.871-2.523-4.522-.502-3.262.903-4.607 1.44-4.993.142-.089.245-.151.253-.156.08-.046.147-.106.205-.174.009-.01.015-.022.024-.033.005-.007.014-.009.019-.016.012-.016.014-.036.024-.052.033-.053.06-.108.079-.168.005-.015.018-.027.022-.042.001-.004 0-.009 0-.013.004-.017.004-.035.007-.052.012-.067.013-.136.007-.206-.002-.022.004-.044 0-.067-.001-.005-.003-.009-.004-.014-.001-.005 0-.009 0-.013-.018-.088-.052-.17-.096-.245-.006-.01-.014-.019-.021-.029-.004-.006-.004-.014-.008-.02-.322-.469-8.001-11.485-17.947-12.886-10.15-1.428-13.231 4.1-13.357 4.336-.004.008-.002.018-.006.026-.054.111-.083.23-.083.355 0 .032.012.061.016.093.008.064.009.129.033.192.011.029.034.048.048.074.01.019.007.042.019.061.013.02.036.028.05.046.058.077.125.139.205.189.026.017.046.038.074.052.11.054.229.083.353.083.009 0 .017.006.025.006.053.004 5.2-.146 8.068 3.615 2.26 2.963 2.513 5.54.75 7.661-.002.002-.003.006-.005.008-.007.009-.011.02-.018.03-.049.066-.085.137-.111.213-.009.026-.016.051-.022.078-.017.069-.023.139-.021.21.001.022-.002.044 0 .067.009.079.029.158.062.233.005.01.013.018.018.028.004.009.003.018.008.027.009.016.024.026.034.041.039.062.085.116.138.165.019.017.036.035.056.05.073.055.153.098.242.126.009.003.019.002.028.005.058.016.117.03.179.032.037.001 3.72.167 5.846 3.236 1.254 1.811 1.578 3.63 1.338 5.15-.433.86-.835 1.756-1.191 2.693-.002.006 0 .011-.002.017-.032.091-.048.185-.046.28 0 .03.01.057.014.086.009.072.021.144.05.212.019.043.05.079.076.118.025.039.042.081.074.115.005.005.012.007.017.012.031.032.071.054.108.08.046.034.091.068.143.09.012.005.021.016.033.021.036.013.072.012.108.02.044.01.087.022.133.024.014.001.028.008.042.008.048 0 .093-.013.14-.021.025-.005.05-.004.075-.011.086-.024.168-.061.242-.112.002-.001.004-.001.006-.003.019-.012 1.885-1.3 4.021-.918 1.381.248 2.612 1.146 3.657 2.668 1.319 1.922 2.216 3.846 3.082 5.706 2.004 4.302 3.734 8.016 9.547 8.016 5.812 0 7.542-3.714 9.546-8.016.866-1.86 1.763-3.784 3.082-5.706 1.045-1.522 2.275-2.42 3.657-2.668 2.14-.392 4.002.904 4.019.917.113.081.242.116.373.131.039.006.076.018.116.018.011 0 .021-.006.032-.006.027-.002.053-.01.08-.015.057-.008.115-.01.171-.031.413-.157.621-.619.464-1.032-.365-.962-.777-1.883-1.224-2.763-.219-1.506.113-3.297 1.349-5.081 2.125-3.069 5.808-3.235 5.843-3.236.052-.001.101-.015.151-.026.227-.044.434-.174.552-.393.171-.315.099-.688-.14-.932-1.727-2.115-1.468-4.678.778-7.622 2.855-3.744 8.017-3.622 8.07-3.615.069.003.138-.004.206-.02.351.04.7-.143.835-.488C77.987 21.916 77.785 21.452 77.373 21.29zM64.385 18.906c5.218-.732 8.291.506 9.973 1.709-4.187-.528-12.514-.226-23.71 6.731C53.702 24.062 58.712 19.705 64.385 18.906zM15.347 18.906c5.439.766 10.284 4.818 13.368 8.047-11.181-6.763-19.412-6.866-23.403-6.292C6.981 19.443 10.064 18.164 15.347 18.906zM12.288 25.479c-1.335-1.751-3.049-2.768-4.649-3.374 4.538-.147 12.339.951 22.36 7.559-6.706-.159-12.641 1.876-15.737 3.194C14.847 30.996 14.62 28.535 12.288 25.479zM19.516 37.749c-1.346-1.944-3.154-2.92-4.613-3.415 3.054-1.287 9.025-3.338 15.593-3.065-2.358 1.699-6.369 5.041-9.475 9.931C20.771 40.023 20.276 38.846 19.516 37.749zM55.889 44.942c-1.827.322-3.413 1.446-4.714 3.341-1.395 2.032-2.36 4.106-3.213 5.938-1.918 4.116-3.304 7.091-8.096 7.091-4.793 0-6.179-2.975-8.096-7.091-.853-1.831-1.819-3.905-3.213-5.938-1.301-1.895-2.887-3.019-4.713-3.341-.372-.065-.733-.094-1.083-.094-.682 0-1.316.108-1.873.263.076-.241.131-.489.181-.739 2.534-4.916 6.267-8.543 8.94-10.698-.165.847-.211 1.853-.024 3.072.779 5.057 4.284 6.186 4.433 6.23.421.132.866-.105.998-.525.431-1.376.473-3.735.44-5.378 2.802 2.728 3.212 5.928 3.216 5.962.045.404.386.709.793.71 0 0 .001 0 .002 0 .405 0 .747-.305.794-.708.004-.036.414-3.236 3.216-5.964-.033 1.643.01 4.002.44 5.378.131.42.578.657.998.525.149-.045 3.654-1.174 4.433-6.23.189-1.229.142-2.242-.027-3.094 2.659 2.139 6.38 5.743 8.921 10.631.052.28.118.557.202.827C58.003 44.879 56.984 44.75 55.889 44.942zM60.216 37.749c-.753 1.088-1.246 2.256-1.499 3.422-3.104-4.875-7.104-8.207-9.457-9.903 6.547-.281 12.522 1.771 15.583 3.061C63.381 34.823 61.566 35.798 60.216 37.749zM67.443 25.479c-2.326 3.049-2.558 5.506-1.978 7.367-3.064-1.302-8.874-3.289-15.457-3.188 9.836-6.485 17.538-7.662 22.108-7.563C70.509 22.701 68.785 23.72 67.443 25.479zM37.166 43.871c-.638 0-1.155.724-1.155 1.618 0 .894.517 1.618 1.155 1.618.639 0 1.156-.725 1.156-1.618C38.322 44.596 37.805 43.871 37.166 43.871zM42.405 43.871c-.638 0-1.156.724-1.156 1.618 0 .894.518 1.618 1.156 1.618.638 0 1.156-.725 1.156-1.618C43.561 44.596 43.043 43.871 42.405 43.871z"/>
</svg>