<svg xmlns="http://www.w3.org/2000/svg" viewBox="0 0 80 80">
<path d="M74.83 30.122c-1.307-2.279-3.005-4.72-5.695-5.525-2.126-.637-4.568-.179-7.257 1.364-.751.429-1.479.909-2.184 1.373-1.232.812-2.397 1.578-3.695 2.111-.782.334-2.259.799-3.365.181-.435-.25-.757-.811-.783-1.362-.012-.255.035-.601.329-.808.387-.275 1.233-.191 1.982-.117 1.225.121 2.75.271 3.371-1.081.321-.674.221-1.379.066-2.044-.716-3.008-2.6-6.309-4.801-8.41-1.782-1.7-4.039-2.843-6.357-3.219-2.71-.429-6.739-.751-10.418 1.38-3.296 1.916-5.606 5.127-6.179 8.583-.058.336-.106.684-.155 1.034-.214 1.547-.417 3.008-1.457 3.67-1.287.821-3.217-.205-4.214-1.683-.504-.74-.877-1.565-1.272-2.439-.474-1.049-.964-2.134-1.709-3.094-1.301-1.693-2.504-2.581-5.15-3.799-2.343-1.073-6.632-1.046-8.825.055-2.926 1.464-2.479 4.284-2.084 6.771.366 2.326 1.921 4.397 3.783 5.038.86.294 1.734.19 2.505.098.215-.025.43-.051.644-.067.672-.052 1.476.062 1.731.543.153.286.124.721.093 1.181l-.018.294c-.118 2.163.761 4.745 2.988 5.636.28.112.573.193.866.271.33.088.643.172.878.305.758.436.986 1.414 1.251 2.547.231.992.472 2.019 1.112 2.872.774 1.039 1.9 1.521 2.989 1.988.583.25 1.133.486 1.608.798 2.371 1.551 2.793 4.973 2.73 7.57-.01.406-.029.861-.05 1.35-.147 3.503-.35 8.301 2.08 9.698 3.009 1.741 5.318.871 7.005.239 1.208-.455 1.924-.693 2.616-.352.685.337 1.235.957 1.817 1.614.378.426.769.867 1.219 1.257 1.459 1.273 3.241 1.795 5.067 1.795 2.443-.001 4.964-.935 6.891-2.255.279-.189.554-.39.83-.589.757-.549 1.471-1.066 2.27-1.385 1.382-.554 2.988-.354 4.688-.142 1.466.184 2.981.375 4.458.078.815-.162 1.95-.488 2.393-1.445.508-1.097-.176-2.356-.921-3.7.19-.226.867-.592 1.285-.817 1.204-.652 2.569-1.391 2.605-2.753.031-1.148-.901-2.24-3.024-3.541-.775-.476-1.569-.912-2.363-1.347-.871-.478-1.77-.972-2.618-1.51-1.441-.903-2.635-2.243-3.789-3.539-.715-.803-1.503-1.834-1.242-2.683.395-1.269 2.646-1.113 3.776-.857 1.339.317 4.471 1.052 5.869-1.076.641-.962.612-2.108.585-3.12-.024-.944-.045-1.76.42-2.236.391-.396 1.099-.486 1.848-.581.222-.028.443-.057.655-.091 1.493-.243 2.934-1.269 2.796-2.761C75.257 30.901 75.053 30.512 74.83 30.122zM72.247 32.569c-.194.032-.395.057-.596.083-.941.119-2.007.254-2.789 1.048-.94.962-.907 2.256-.878 3.397.022.85.043 1.652-.32 2.196-.697 1.061-2.594.771-4.174.4-2.18-.493-4.972-.286-5.665 1.943-.56 1.822.937 3.502 1.576 4.22 1.229 1.379 2.499 2.806 4.129 3.828.887.562 1.81 1.069 2.702 1.559.771.423 1.542.846 2.296 1.308 2.171 1.331 2.265 2.012 2.261 2.135-.012.438-1.068 1.01-1.768 1.389-.954.516-1.855 1.004-2.093 1.82-.109.375-.06.766.143 1.13.452.813 1.07 1.927.896 2.303-.036.077-.231.345-1.254.549-1.222.242-2.545.078-3.946-.098-1.827-.228-3.715-.465-5.481.244-.981.391-1.812.992-2.614 1.575-.263.189-.525.38-.793.563-2.968 2.033-7.356 2.884-10.005.574-.373-.323-.712-.706-1.072-1.111-.659-.744-1.341-1.513-2.306-1.987-.475-.235-.942-.327-1.403-.327-.848 0-1.675.312-2.484.615-1.616.606-3.287 1.235-5.643-.127-1.589-.914-1.396-5.503-1.28-8.245.021-.498.041-.964.051-1.378.104-4.308-1.09-7.402-3.454-8.948-.592-.388-1.233-.663-1.854-.93-.936-.401-1.819-.78-2.339-1.477-.44-.586-.632-1.407-.835-2.277-.305-1.307-.651-2.787-2.016-3.572-.418-.236-.864-.355-1.258-.461-.229-.062-.46-.121-.682-.211-1.485-.594-2.071-2.522-1.987-4.066l.017-.271c.041-.603.091-1.354-.278-2.041-.525-.987-1.75-1.505-3.267-1.385-.235.019-.472.047-.708.074-.66.079-1.284.153-1.798-.022-1.303-.448-2.447-2.035-2.721-3.773-.458-2.886-.48-4.24 1.222-5.091 1.741-.874 5.565-.89 7.439-.031 2.399 1.104 3.42 1.849 4.552 3.322.632.813 1.062 1.767 1.518 2.775.406.897.825 1.825 1.406 2.678 1.411 2.091 4.259 3.5 6.398 2.134 1.663-1.059 1.938-3.045 2.182-4.799.046-.333.092-.663.147-.987.496-2.996 2.517-5.787 5.405-7.466 2.498-1.447 5.386-1.813 9.362-1.184 2 .323 3.955 1.317 5.506 2.796 1.993 1.903 3.7 4.896 4.348 7.621.088.378.155.76.042.998-.139.301-.819.26-1.765.166-1.027-.101-2.19-.216-3.063.404-.68.479-1.045 1.277-1.002 2.188.052 1.103.673 2.152 1.591 2.68 1.267.71 2.966.675 4.772-.096 1.431-.588 2.715-1.434 3.957-2.252.684-.45 1.391-.916 2.099-1.32 2.293-1.316 4.313-1.728 6.002-1.22 2.152.645 3.617 2.782 4.767 4.788v.001c.137.239.252.451.268.617C73.752 31.998 72.974 32.451 72.247 32.569zM45.702 33.846c-.201-.201-.54-.127-.805-.021-.635.254-1.525.72-2.16.974-.604.233-1.938.275-3.314-.275-.435-.18-1.027-.498-1.409-.773-.202-.138-.413-.286-.657-.339-.244-.053-.519 0-.667.201-.191.254-.096.614.021.911.688 1.726 1.112 2.531 2.298 3.717 1.101 1.112 2.203 1.25 2.891 1.25.975 0 2.436-.646 3.177-1.938.551-.964 1.027-2.383.762-3.399C45.818 34.036 45.776 33.93 45.702 33.846zM44.76 23.277c-.095.011-.19.032-.265.085-.126.106-.126.297-.126.466-.011 1.419-.424 2.637-1.398 3.696-.222.244-.487.466-.625.763-.286.582-.063 1.324.435 1.726.508.402 1.217.487 1.832.297.614-.191 1.133-.614 1.535-1.112.275-.349.498-.741.667-1.144.18-.445.297-.9.35-1.366.096-.794.011-1.641-.402-2.33C46.348 23.679 45.554 23.182 44.76 23.277zM38.353 30.573c.508-.402.73-1.154.444-1.726-.148-.307-.402-.53-.625-.773-.974-1.059-1.387-2.277-1.397-3.696 0-.169-.011-.349-.138-.466-.063-.053-.169-.074-.265-.085-.794-.095-1.578.402-1.991 1.08-.413.689-.498 1.536-.402 2.33.053.466.159.932.338 1.366.17.403.402.794.678 1.144.402.498.921.921 1.535 1.112C37.145 31.05 37.855 30.965 38.353 30.573z"/>
</svg>