<svg xmlns="http://www.w3.org/2000/svg" viewBox="0 0 80 80">
<path d="M64.595 38.155c5.495-1.12 12.847 5.758 12.847 5.758-1.66-5.692-3.083-10.672-9.012-13.518-2.94-1.412-7.655-1.897-7.655-1.897-3.295 9.106-10.626 11.552-12.712 12.076-.006-2.74-1.233-5.687-2.518-7.299-1.195 3.669-2.949 6.132-5.469 6.132-2.551 0-4.327-2.522-5.511-6.264-1.311 1.577-2.542 4.45-2.614 7.197-2.069-.518-9.423-2.956-12.724-12.08 0 0-4.715.486-7.656 1.897-5.929 2.846-7.352 7.826-9.012 13.518 0 0 7.352-6.878 12.847-5.758 0 0-2.428 3.162-2.539 6.713 0 0 4.771-2.651 9.613-2.852 0 0-1.549 2.371.648 6.047 0 0 3.814-3.443 9.366-3.291 1.173 4.104 4.088 7.204 7.506 7.204 3.353 0 6.227-2.979 7.442-6.966 5.586-.181 9.43 3.29 9.43 3.29 2.198-3.676.648-6.047.648-6.047 4.841.201 9.613 2.852 9.613 2.852C67.023 41.317 64.595 38.155 64.595 38.155zM37.584 47.205c-1.291.177-2.539-1.156-2.789-2.978-.25-1.822.593-3.442 1.884-3.619 1.291-.177 2.539 1.156 2.789 2.978C39.718 45.408 38.875 47.028 37.584 47.205zM45.205 44.228c-.25 1.822-1.499 3.155-2.789 2.978-1.291-.177-2.134-1.797-1.884-3.619.25-1.822 1.499-3.155 2.789-2.978C44.611 40.786 45.455 42.406 45.205 44.228zM37.19 42.664c-.865.119-1.454 1.031-1.316 2.037.138 1.006.951 1.725 1.816 1.606.865-.119 1.454-1.03 1.316-2.036C38.868 43.265 38.056 42.545 37.19 42.664zM42.809 42.664c-.865-.119-1.678.601-1.816 1.607-.138 1.006.451 1.918 1.316 2.036.865.119 1.678-.601 1.816-1.606C44.264 43.694 43.675 42.783 42.809 42.664z"/>
</svg>