<svg xmlns="http://www.w3.org/2000/svg" viewBox="0 0 80 80">
<path d="M71.349 56.461l-15.946.552-5.254-7.979c.629-.597 1.197-1.22 1.709-1.861 1.482.843 3.194 1.328 5.021 1.328 4.849 0 8.902-3.395 9.92-7.937l2.235-.274-.729-5.948-1.974.242c-1.492-3.76-5.16-6.421-9.452-6.421-2.642 0-5.048 1.008-6.856 2.66-.564-.421-1.173-.822-1.825-1.198l3.432-8.886 16.992-3.918c.458-.106.326-.79-.138-.717l-18.056 2.812-5.152 9.299c-.316-.127-.639-.249-.968-.366l-1.577-10.478 10.693-9.446c.347-.307-.079-.841-.455-.571l-12.314 8.851.22 10.658c-1.976-.444-4.125-.732-6.422-.835l-2.057-7.471 7.225-14.03c.214-.415-.387-.757-.635-.361l-8.74 13.968.954 7.891c-.973.056-1.917.172-2.829.343l-3.889-12.511L8.538 18.467c-.45.13-.284.804.176.709l14.529-3.004 2.129 10.989c-5.885 2.045-9.996 6.526-11.279 11.601l-2.572.315 1.045 8.529 2.326-.285c2.22 4.545 7.259 8.046 13.484 8.83l.187 11.171-13.129-1.014c-.468-.036-.548.654-.084.726l14.903 2.301 1.183-13.022c.812-.015 1.639-.076 2.476-.186.203-.027.405-.055.607-.085l.495 7.922L46.78 75.897c.328.333.841-.132.54-.491L37.028 63.106l.427-7.625c2.197-.515 4.239-1.218 6.094-2.072l2.046 10.3 17.23 4.361c.455.115.651-.552.206-.701L47.388 62.14l-.712-10.423c.365-.231.72-.468 1.064-.712l6.863 8.039 16.8-1.855C71.868 57.138 71.818 56.444 71.349 56.461zM63.594 40.434c.506 1.016-.038 2.315-1.214 2.9-1.177.586-2.541.237-3.046-.779-.506-1.016.038-2.315 1.214-2.9C61.724 39.069 63.088 39.418 63.594 40.434zM58.298 34.108c.246-1.108 1.485-1.776 2.768-1.492 1.283.284 2.125 1.413 1.879 2.521-.246 1.108-1.485 1.776-2.768 1.492C58.894 36.345 58.052 35.216 58.298 34.108zM32.281 43.459l-7.414 5.517-1.034-13.62 8.276 3.965 7.241-6.552 1.552 14.827L32.281 43.459z"/>
</svg>