<svg xmlns="http://www.w3.org/2000/svg" viewBox="0 0 80 80">
<path d="M72.579 47.636c-.291-.17-.655-.138-.912.078-4.673 3.895-11.431 5.193-13.417 5.503L39.982 13.242c-.753-1.61-2.169-2.801-3.885-3.268-1.716-.465-3.541-.156-5.005.852l-9.684 6.658-5.296-6.179c-.245-.286-.655-.362-.986-.184-.331.178-.493.562-.39.924l3.842 13.448c.063.221.219.404.426.503.208.099.448.104.659.013l11.965-5.128-8.099 32.395c-3.183-.147-8.349-1.318-10.105-1.735v-5.134c0-.348-.225-.655-.556-.762-.331-.108-.693.013-.895.297L7.17 52.667c-.203.283-.198.666.011.945 5.911 7.882 21.393 12.625 32.677 12.625.213 0 .425-.001.635-.005 29.152-.47 32.353-17.062 32.475-17.769C73.025 48.134 72.87 47.803 72.579 47.636zM66.496 56.216c-3.844 3.71-11.48 8.183-26.028 8.417C29.741 64.777 14.799 60.461 8.819 53.11l3.004-4.207v3.268c0 .367.25.688.606.776.317.079 7.783 1.933 11.688 1.943.001 0 .002.001.004.001.083.003 8.383.318 11.607 1.393.084.028.169.041.253.041.335 0 .647-.212.759-.547.14-.419-.087-.872-.506-1.012-2.783-.928-8.716-1.311-11.07-1.43l8.406-33.625.933-3.318c.12-.426-.128-.867-.553-.987-.425-.115-.867.129-.987.554l-.834 2.966-12.262 5.256-2.587-9.056 3.381 3.945c.266.311.724.37 1.061.139l10.277-7.065c1.078-.74 2.418-.968 3.679-.626 1.261.343 2.302 1.219 2.853 2.395l18.513 40.511c.144.314.473.509.816.463.322-.035 7.117-.828 12.753-4.429C69.929 51.985 68.686 54.1 66.496 56.216zM38.989 23.794c-.14-.419-.594-.648-1.012-.506-.419.14-.646.593-.506 1.012.139.418 3.453 10.294 6.864 14.842.157.21.397.32.641.32.167 0 .335-.052.479-.16.354-.265.425-.767.16-1.119C42.36 33.842 39.022 23.893 38.989 23.794z"/>
</svg>