<svg xmlns="http://www.w3.org/2000/svg" viewBox="0 0 80 80">
<path d="M49.647 29.659c-.354-.176-.781-.028-.955.325-.174.353-.028.781.326.954 7.543 3.708 12.228 11.217 12.228 19.598 0 12.032-9.789 21.82-21.82 21.82-12.031 0-21.82-9.789-21.82-21.82 0-8.364 4.672-15.867 12.195-19.581.353-.174.498-.603.323-.956-.174-.353-.601-.497-.955-.324-8.013 3.956-12.99 11.949-12.99 20.86 0 12.818 10.429 23.246 23.247 23.246 12.818 0 23.247-10.428 23.247-23.246C62.673 41.608 57.682 33.609 49.647 29.659zM33.474 35.277c.367-.144.548-.557.405-.924-.143-.366-.557-.547-.925-.404-6.778 2.653-11.333 9.319-11.333 16.588 0 9.818 7.988 17.804 17.805 17.804 9.817 0 17.805-7.986 17.805-17.804 0-7.286-4.57-13.958-11.371-16.603-.367-.142-.781.038-.924.406-.143.368.039.781.406.924 6.257 2.433 10.461 8.57 10.461 15.273 0 9.03-7.347 16.378-16.378 16.378-9.031 0-16.378-7.348-16.378-16.378C23.048 43.851 27.238 37.719 33.474 35.277zM25.068 22.427c-.001.017-.01.032-.01.05 0 .01.005.018.005.028.003.084.017.166.049.244.001.002.001.004.002.006.028.068.068.132.118.19l13.486 15.536c.062.147.171.274.319.354.107.057.223.085.338.085.009 0 .016-.005.025-.005.008 0 .016.005.024.005.116 0 .232-.028.339-.085.148-.08.258-.207.319-.354L53.57 22.945c.05-.058.089-.122.118-.19.001-.002.001-.004.001-.006.033-.078.046-.161.049-.244.001-.01.006-.018.006-.028 0-.017-.009-.032-.01-.05-.005-.061-.016-.119-.036-.178-.01-.028-.019-.055-.032-.082-.008-.015-.009-.032-.018-.047l-4.47-7.739c-.005-.009-.015-.012-.02-.02-.057-.091-.129-.173-.227-.233-.003-.002-.006-.002-.01-.003-.01-.006-.022-.006-.033-.012-.093-.049-.191-.073-.291-.078-.013-.001-.024-.01-.037-.01h-9.135-.049-9.135c-.012 0-.022.008-.034.009-.102.005-.201.029-.297.08-.01.005-.021.006-.03.011-.003.002-.007.002-.01.004-.098.06-.17.142-.226.233-.005.008-.016.012-.02.02l-4.47 7.739c-.009.015-.011.032-.019.047-.013.026-.022.054-.031.082C25.084 22.308 25.072 22.366 25.068 22.427zM30.258 16.136l3.426 5.628h-6.677L30.258 16.136zM39.401 16.23l3.128 5.533h-6.255L39.401 16.23zM48.544 16.136l3.251 5.628h-6.677L48.544 16.136zM39.401 35.497 35.923 23.19h6.956L39.401 35.497zM27.335 23.19h7.106l3.429 12.138L27.335 23.19zM44.362 23.19h7.106L40.932 35.327 44.362 23.19zM47.291 15.45l-3.47 5.701L40.6 15.45H47.291zM34.981 21.151l-3.47-5.701h6.692L34.981 21.151zM39.207 9.763c.394 0 .714-.319.714-.713V4.107c0-.394-.319-.713-.714-.713-.395 0-.714.319-.714.713V9.05C38.493 9.444 38.813 9.763 39.207 9.763zM47.707 11.156c.099.046.202.07.305.07.267 0 .523-.151.645-.409l2.117-4.466c.168-.355.017-.781-.339-.95-.356-.166-.781-.019-.95.339l-2.117 4.466C47.199 10.562 47.351 10.988 47.707 11.156zM55.479 15.834c.181 0 .363-.069.502-.207l3.51-3.479c.28-.276.282-.728.005-1.008-.278-.281-.729-.281-1.009-.005l-3.51 3.479c-.28.276-.282.728-.005 1.008C55.111 15.764 55.295 15.834 55.479 15.834zM30.453 10.817c.122.258.378.409.645.409.103 0 .207-.023.305-.07.356-.168.508-.595.339-.95l-2.117-4.466c-.169-.358-.595-.505-.95-.339-.356.168-.507.595-.339.95L30.453 10.817zM23.129 15.627c.139.138.321.207.502.207.183 0 .368-.07.507-.211.278-.28.275-.732-.005-1.008l-3.51-3.479c-.28-.279-.732-.278-1.009.005-.278.28-.275.732.005 1.008L23.129 15.627z"/>
</svg>