<svg xmlns="http://www.w3.org/2000/svg" viewBox="0 0 80 80">
<path d="M74.349 29.533c-.105-.149-1.434-1.989-3.739-3.81l1.982-.675c.225-.077.395-.264.449-.496.054-.231-.016-.474-.184-.642-3.852-3.852-6.799-4.46-7.677-4.556-.851-1.815-2.155-3.065-3.468-3.917-.111-.656-.8-3.471-4.809-7.48-.168-.168-.411-.239-.642-.184-.231.054-.419.223-.496.448l-.678 1.992c-2.098-2.869-4.433-4.382-4.48-4.411-.206-.13-.465-.142-.681-.029-.216.111-.358.328-.372.571-.002.04-.269 4.14-2.115 5.986l-.293.29c-1.753 1.721-6.408 6.291-6.435 12.109-.013 2.76 1.035 5.421 3.089 7.938-1.23.968-7.011 5.616-15.623 14.072.2-.824.284-1.711.134-2.61-.212-1.271-.945-2.601-1.721-4.008-1.21-2.194-2.582-4.681-2.138-7.344.041-.243-.052-.49-.243-.645-.19-.158-.45-.199-.681-.111-.08.03-7.966 3.13-6.611 12.068.456 3.013 1.62 5.127 3.46 6.283 1.113.698 2.273.912 3.237.942-4.832 4.945-10.318 10.876-16.232 17.809-.721.845-.671 2.121.118 2.91l.122.113c.403.343.897.511 1.389.511.607 0 1.209-.255 1.633-.752 7.864-9.22 15.053-16.692 20.948-22.42.026.971.235 2.142.942 3.266 1.156 1.839 3.27 3.004 6.283 3.46.706.108 1.376.157 2.01.157 7.397 0 10.03-6.694 10.058-6.768.087-.231.045-.49-.111-.681-.156-.189-.403-.286-.645-.242-2.664.441-5.151-.929-7.345-2.138-1.407-.776-2.737-1.51-4.008-1.722-.801-.134-1.595-.082-2.341.072 5.57-5.155 9.348-8.195 10.514-9.111 3.07 2.493 5.959 3.43 8.556 3.43 5.602-.001 9.855-4.253 11.692-6.092 3.034-3.033 6.338-2.529 6.475-2.508.274.046.551-.075.699-.31C74.518 30.063 74.51 29.76 74.349 29.533zM71.074 24.11l-1.838.626c-.933-.617-1.978-1.186-3.13-1.647-.001-.009.004-.016.003-.025-.054-.806-.199-1.526-.386-2.202C66.746 21.137 68.658 21.911 71.074 24.11zM64.663 22.595c-1.078-.312-2.224-.527-3.449-.569-1.001-.037-2.002.038-3 .22.361-2.679.06-5.047-.591-7.094C59.218 15.526 63.988 17.113 64.663 22.595zM56.704 9.734c1.928 2.084 2.844 3.734 3.278 4.769-1.49-.648-2.672-.82-2.703-.824-.068-.01-.133.002-.198.012-.309-.725-.665-1.388-1.038-2.016L56.704 9.734zM48.109 13.603l.302-.299c1.534-1.534 2.144-4.144 2.378-5.672 2.18 1.73 7.347 6.781 5.982 14.95-4.104 1.176-8.161 4.181-12.113 8.978-1.719-2.192-2.583-4.481-2.573-6.825C42.111 19.492 46.469 15.214 48.109 13.603zM18.277 43.883c-.913-6.024 2.817-8.977 4.709-10.066-.01 2.606 1.259 4.906 2.397 6.969.717 1.302 1.396 2.532 1.569 3.57.331 1.986-.809 4.027-1.469 5.012-3.675-3.778-3.094-8.843-3.087-8.897.048-.376-.218-.721-.595-.77-.378-.052-.721.216-.771.594-.031.236-.649 5.451 3.099 9.643-.842.037-1.984-.076-3.033-.74C19.617 48.263 18.669 46.475 18.277 43.883zM38.549 46.175c1.039.174 2.268.851 3.57 1.569 2.056 1.134 4.346 2.398 6.942 2.397.009 0 .019 0 .028 0-1.089 1.893-4.043 5.612-10.066 4.71-2.592-.393-4.381-1.342-5.316-2.821-.663-1.049-.777-2.191-.74-3.032 3.087 2.759 6.728 3.155 8.529 3.155.644 0 1.052-.049 1.115-.058.376-.049.641-.393.593-.77-.049-.376-.393-.652-.77-.595-.053.005-5.119.588-8.898-3.089C34.518 46.983 36.554 45.846 38.549 46.175zM32.571 46.632c-.304.214-.495.369-.525.394-.003.002-.003.006-.006.008-.003.003-.008.004-.011.007-.088.078-.143.177-.18.281-.001.002-.003.003-.003.005-6.14 5.897-13.812 13.793-22.249 23.685-.275.323-.761.361-1.127.045-.281-.281-.299-.737-.04-1.04 6.383-7.484 12.266-13.792 17.361-18.951.004-.001.007-.006.011-.007.106-.038.206-.093.286-.183.003-.004.004-.008.007-.012.002-.003.006-.003.007-.005.023-.028.156-.191.342-.452C36.663 40.12 43.566 34.599 44.71 33.702c.139.148.267.298.413.444.258.258.512.477.767.712C44.26 36.151 39.434 40.088 32.571 46.632zM66.222 32.144c-4.541 4.539-11.568 9.588-20.126 1.029-.184-.184-.361-.369-.533-.554.022-.021.044-.044.064-.068 5.113-6.248 10.342-9.341 15.529-9.151 5.398.184 9.43 3.908 11.152 5.819C70.793 29.344 68.43 29.936 66.222 32.144z"/>
</svg>