<svg xmlns="http://www.w3.org/2000/svg" viewBox="0 0 80 80">
<path d="M64.983 26.395c-.17-.445-.531-.778-.99-.91-.938-.272-1.874-.516-2.807-.748.121-.217.235-.439.33-.68 1.406-3.568 2.98-8.209 2.996-8.255.009-.026.005-.052.01-.078.271-.97-.004-2.03-.799-2.982-1.695-2.027-4.37-1.646-5.534-1.354-.809-1.5-2.71-3.488-5.614-2.756-1.436.36-2.045 1.158-2.305 1.775l-.005-.002c-.01.019-.695 1.388-1.562 3.4-.08-2.91-.196-5.351-.198-5.387-.002-.032-.017-.057-.023-.087-.117-1.11-.834-2.092-2.045-2.752-2.646-1.446-5.333.138-6.394.911-1.445-1.249-4.28-2.596-7.045-.62-1.346.961-1.651 2.037-1.667 2.779l-.004-.001c-.003.031-.193 2.157-.259 5.097-.828-2.054-1.51-3.665-1.52-3.688-.01-.026-.031-.043-.045-.066-.443-.903-1.352-1.512-2.579-1.692-2.613-.391-4.356 1.679-5.032 2.67-1.601-.58-4.339-.796-6.024 1.677-.844 1.237-.756 2.249-.534 2.881l-.005.002c.012.038 1.182 3.806 2.643 7.908.081.227.348.825.722 1.368-1.084.255-1.986.491-2.673.682-.462.128-.826.458-.999.904-.172.446-.125.935.131 1.34l17.661 27.974c-.656-.119-1.275-.108-1.748.152-.391.216-.857.681-.857 1.675v4.463c0 1.184.539 1.715.992 1.951.302.158.657.226 1.042.226 1.279 0 2.897-.749 4.125-1.441-.722 1.955-2.212 5.161-4.822 7.424-.222.192-.286.51-.155.773.131.263.423.402.711.343l2.459-.527-1.405 2.35c-.374.626-.42 1.397-.124 2.063.297.667.901 1.148 1.593 1.284l2.875.676c.154.037.316.015.455-.061l2.231-1.216 2.116 1.209c.098.056.209.084.319.084.057 0 .113-.007.168-.022l3.202-.862c.724-.167 1.317-.678 1.587-1.37.27-.692.182-1.47-.236-2.082l-1.383-2.026 2.331.499c.288.06.58-.08.711-.343.131-.263.068-.582-.155-.773-2.594-2.248-4.081-5.429-4.808-7.387 1.219.681 2.801 1.404 4.057 1.404.385 0 .739-.068 1.042-.226.453-.237.992-.767.992-1.951v-4.463c0-.993-.466-1.459-.857-1.675-.563-.312-1.333-.271-2.126-.072L64.85 27.726C65.103 27.325 65.152 26.839 64.983 26.395zM60.318 23.586c-.121.307-.278.578-.449.829-3.342-.769-6.631-1.296-9.818-1.632 1.39-4.861 3.691-4.707 7.414-4.435.441.032.894.066 1.358.091 1.404.074 2.63-.121 3.596-.538C61.841 19.54 61.057 21.711 60.318 23.586zM23.134 23.826c-1.479-3.757.184-5.077 3.115-7.381l.804-.636c1.098-.878 1.884-1.84 2.328-2.793.498 1.216 1.109 2.736 1.678 4.222.006.312.014.626.025.942.037 1.111.259 2.045.625 2.835-.296 1.002-.96 1.597-.967 1.603-.067.058-.119.127-.157.201-2.194.228-4.216.512-6.037.815C24.054 23.697 23.579 23.762 23.134 23.826zM20.969 17.394c-.195-.625-.356-1.321-.47-1.891.139.015.276.035.425.035.77 0 1.66-.192 2.477-.493.904-.333 1.712-.791 2.273-1.291.071-.063.125-.123.185-.184.172.358.354.754.506 1.131-.041.034-.074.068-.117.102l-.795.63c-.912.716-1.768 1.389-2.463 2.111-.034 0-.068 0-.102 0C22.228 17.544 21.585 17.486 20.969 17.394zM22.503 12.601c.849-.313 1.546-.412 2.028-.412.352 0 .589.052.69.113-.088.262-.793.993-2.263 1.533-1.557.573-2.6.428-2.727.341C20.246 13.961 20.946 13.174 22.503 12.601zM32.365 22.65c.07-.11.138-.229.206-.356.061.063.106.141.171.2.048.043.097.075.145.115C32.713 22.623 32.537 22.635 32.365 22.65zM36.179 22.401c-.753-6.242 2.079-7.17 6.328-8.534.37-.118.747-.24 1.128-.367 1.6-.534 2.856-1.304 3.699-2.207.073 2.001.154 4.743.154 7.126 0 2.991-2.42 3.94-2.527 3.981-.001 0-.001 0-.001.001C41.886 22.255 38.943 22.272 36.179 22.401zM36.706 10.545c.865.465 2.13.694 3.354.694 1.193 0 2.423-.218 3.286-.659.051.504.096 1.081.11 1.61-.079.028-.146.06-.227.088-.377.126-.749.245-1.115.363-1.238.398-2.429.781-3.479 1.294-.778-.278-1.515-.617-2.194-.992C36.478 12.128 36.595 11.239 36.706 10.545zM40.06 8.272c1.977 0 3.039.599 3.13.839-.091.241-1.153.84-3.13.84-2.004 0-3.067-.616-3.133-.831C36.993 8.887 38.056 8.272 40.06 8.272zM47.17 22.432c.024.035.046.072.07.106-.057-.004-.113-.008-.169-.012C47.104 22.495 47.137 22.465 47.17 22.432zM57.56 13.016c1.457.572 2.145 1.319 2.227 1.584-.24.137-1.253.216-2.71-.359-1.543-.608-2.224-1.41-2.262-1.559.066-.064.292-.123.649-.123C55.948 12.558 56.671 12.666 57.56 13.016zM54.13 13.855c.072.079.143.159.232.242.55.512 1.347.989 2.244 1.342.846.332 1.774.548 2.566.548.089 0 .167-.015.252-.021-.11.383-.239.802-.377 1.188-.054-.002-.1.002-.155-.002-.455-.024-.899-.057-1.332-.088-.784-.058-1.547-.113-2.278-.113-.241 0-.478.005-.712.02-.497-.442-.942-.916-1.344-1.397C53.496 14.98 53.837 14.355 54.13 13.855zM62.735 13.57c.6.718.759 1.459.446 2.083-.315.63-1.199 1.261-2.757 1.452.311-.963.546-1.941.561-2.001.004-.01.013-.016.017-.026.134-.34.217-1.041-.726-1.919-.252-.234-.561-.46-.902-.67C60.405 12.375 61.816 12.471 62.735 13.57zM52.887 9.883c1.908-.481 3.132.625 3.783 1.523-.422-.089-.827-.137-1.195-.138-.002 0-.003 0-.005 0-1.286 0-1.702.57-1.836.91-.004.011-.008.026-.012.038-.117.181-.724 1.133-1.262 2.187-.861-1.352-1.248-2.658-.911-3.482C51.656 10.419 52.14 10.071 52.887 9.883zM50.359 13.24c.473 1.36 1.438 2.782 2.619 3.991-1.745.511-3.188 1.859-4.14 5.092-.29-.191-.611-.511-.804-1 .432-.741.742-1.694.742-2.904 0-.443-.003-.901-.008-1.362C49.327 15.603 49.894 14.278 50.359 13.24zM45.821 6.71c.97.529 1.464 1.279 1.39 2.111-.075.844-.8 1.939-2.489 2.821-.067-1.196-.239-2.422-.248-2.486-.001-.002-.002-.003-.002-.004.001-.014.008-.026.008-.04 0-1.134-1.383-1.783-2.997-2.019C42.54 6.484 44.236 5.845 45.821 6.71zM33.747 6.918c.782-.559 1.552-.764 2.263-.764 1.096 0 2.039.488 2.679.932-1.635.23-3.049.88-3.049 2.026 0 .013.007.023.007.035-.035.172-.315 1.579-.444 3.023-1.578-1.117-2.599-2.411-2.584-3.48C32.627 8.043 33.007 7.446 33.747 6.918zM32.441 11.36c1.042 1.298 2.746 2.53 4.802 3.411-1.764 1.325-2.802 3.428-2.389 7.434-.373-.095-.839-.289-1.259-.677-.761-.704-1.173-1.844-1.224-3.39C32.287 15.557 32.356 13.107 32.441 11.36zM26.735 9.573c.926.136 1.536.584 1.719 1.259.184.68-.057 1.737-1.093 2.916-.394-.894-.846-1.743-.903-1.848-.005-.015-.009-.033-.014-.047-.34-.925-1.59-1.091-2.939-.853C24.199 10.225 25.318 9.356 26.735 9.573zM16.548 15.101c-.18-.511-.052-1.093.383-1.73.798-1.172 1.879-1.493 2.825-1.493.366 0 .707.05 1.009.116-.373.214-.706.447-.98.69-.964.856-.896 1.559-.769 1.902.003.009.011.014.014.023.027.176.208 1.317.514 2.486C18.001 16.657 16.844 15.94 16.548 15.101zM17.349 17.617c1.276.687 2.966 1.084 4.652 1.187-.8 1.325-1.008 2.928-.17 5.221-.759.123-1.389.236-1.866.326-.264-.309-.613-.874-.781-1.347C18.467 20.993 17.821 19.061 17.349 17.617zM16.24 27.044c-.049-.078-.032-.152-.018-.189.014-.037.052-.103.141-.128.88-.244 2.11-.562 3.638-.902.038.004.076.023.114.023.148 0 .292-.032.424-.099.068-.034.182-.071.317-.109.545-.115 1.128-.232 1.736-.348.09-.014.179-.028.261-.039l.843-.121-.018-.041c.211-.038.419-.076.637-.113 6.018-.787 15.75-1.382 19.656 2.21 1.329 1.223 1.847 2.818 1.585 4.877-1.177 9.223-3.801 23.417-3.895 23.931-.61.156-1.115.521-1.461.862-.388-.383-.968-.811-1.683-.921-.653-.097-1.303.093-1.879.559-.203.164-.361.352-.497.551-.37-.211-.862-.472-1.408-.714L16.24 27.044zM43.379 58.359c-.011 1.039-1.272 2.728-3.181 4.288-1.908-1.56-3.169-3.25-3.18-4.288-.004-.349.132-.624.427-.861.247-.2.489-.298.734-.298.046 0 .092.003.138.01.612.091 1.18.751 1.346.997.119.178.32.285.534.285.001 0 .002 0 .003 0 .213 0 .414-.107.533-.283.168-.247.735-.908 1.347-.999.292-.049.578.049.872.287C43.246 57.735 43.382 58.01 43.379 58.359zM31.796 62.805c-.074-.039-.301-.157-.301-.81v-4.463c0-.441.145-.522.192-.548.606-.34 2.506.404 4.049 1.323-.001.023-.007.043-.007.066.003.22.04.442.094.665l-2.776.222c-.354.028-.619.339-.591.693.027.337.309.592.641.592.017 0 .035 0 .052-.002l3.193-.255c.134.232.28.462.443.686C35.082 62.064 32.631 63.241 31.796 62.805zM37.894 62.273c.611.63 1.218 1.152 1.638 1.49-.117 2.738-1.82 5.815-3.016 7.646v-1.603c0-.022-.013-.041-.015-.063-.006-.056-.016-.107-.036-.16-.013-.034-.027-.064-.045-.096-.027-.046-.06-.085-.098-.124-.017-.018-.026-.042-.046-.058-.012-.009-.027-.011-.039-.019-.014-.009-.021-.024-.036-.032-.035-.021-.072-.025-.109-.039-.034-.013-.065-.029-.1-.036-.067-.013-.132-.01-.197-.002-.02.002-.039-.005-.059-.001l-1.794.385C36.219 66.911 37.405 63.813 37.894 62.273zM46.379 74.412c-.117.3-.364.512-.7.59l-2.968.8-2.198-1.255c-.194-.109-.431-.111-.627-.006l-2.33 1.269-2.659-.625c-.309-.061-.56-.261-.689-.549-.128-.288-.109-.608.053-.879l.967-1.618v1.294c0 .274.173.518.431.608.07.024.142.036.213.036.192 0 .379-.086.504-.242.138-.173 2.617-3.313 3.82-6.872 1.203 3.559 3.683 6.7 3.821 6.872.124.156.311.242.503.242.071 0 .143-.012.213-.036.258-.09.431-.334.431-.608v-1.541l1.115 1.633C46.459 73.789 46.496 74.113 46.379 74.412zM44.654 69.176c-.002-.001-.005.001-.007 0-.088-.018-.178-.017-.267.003-.027.006-.05.023-.077.033-.05.018-.101.031-.147.063-.008.005-.011.013-.018.019-.007.005-.017.006-.024.012-.022.018-.032.045-.051.065-.039.041-.076.081-.103.13-.016.03-.026.062-.037.095-.019.053-.032.105-.037.161-.002.018-.012.033-.012.051v1.603c-1.196-1.83-2.898-4.906-3.016-7.642.419-.337 1.028-.86 1.639-1.49.49 1.541 1.677 4.636 3.95 7.284L44.654 69.176zM48.65 56.984c.048.026.192.106.192.548v4.463c0 .653-.226.771-.301.81-.828.43-3.247-.724-4.951-1.807.168-.231.321-.468.46-.707l2.839.251c.019.002.038.002.058.002.33 0 .611-.252.64-.587.031-.354-.23-.667-.584-.698l-2.432-.215c.055-.225.093-.45.096-.671 0-.034-.009-.065-.01-.099C46.043 57.462 48.021 56.638 48.65 56.984zM63.76 27.038 45.143 56.547c-.34.166-.649.331-.902.475-.133-.189-.286-.369-.48-.526-.001 0-.001 0-.001 0-.254-.205-.525-.348-.801-.445.33-1.79 2.753-15.043 3.873-23.822.315-2.469-.355-4.484-1.991-5.988-1.475-1.357-3.638-2.176-6.09-2.64 7.465-.149 16.063.568 24.884 3.121.092.027.129.094.144.131C63.796 26.898 63.806 26.966 63.76 27.038z"/>
</svg>