<svg xmlns="http://www.w3.org/2000/svg" viewBox="0 0 80 80">
<path d="M40.896 64.613c.123 2.838 1.881 6.02 3.127 7.923v-1.669c0-.011.011-.033.011-.045 0-.067.011-.111.033-.167.011-.033.022-.067.045-.1.022-.056.055-.089.1-.133.022-.022.034-.056.056-.067.011-.011.011-.011.022-.011.011-.011.011-.022.022-.022.045-.033.1-.045.145-.067.033-.011.055-.022.089-.033.089-.022.178-.022.278 0l1.858.401c-2.359-2.749-3.583-5.965-4.095-7.556C41.954 63.723 41.33 64.258 40.896 64.613zM45.359 73.037v1.591c0 .29-.178.546-.456.634-.067.022-.145.033-.211.033-.2 0-.4-.089-.523-.245-.145-.178-2.715-3.439-3.962-7.133-1.246 3.694-3.816 6.955-3.961 7.133-.134.156-.323.245-.523.245-.078 0-.156-.011-.222-.033-.267-.089-.446-.345-.446-.634v-1.335l-1.001 1.669c-.167.289-.189.623-.055.913.133.3.39.512.712.579l2.76.646 2.415-1.313c.2-.111.445-.111.645 0l2.282 1.302 3.082-.823c.345-.089.601-.3.723-.612.122-.312.078-.646-.111-.924L45.359 73.037zM35.644 70.222c.067-.011.134-.011.2 0 .034.011.067.022.101.033.045.022.078.022.122.045.011.011.022.022.033.033.011.011.022.011.034.022.022.011.033.033.055.055.034.045.067.078.101.134.022.033.033.056.045.1.022.044.033.1.033.156.011.033.022.045.022.067v1.669c1.235-1.903 3.005-5.097 3.127-7.934-.434-.345-1.068-.89-1.703-1.547-.5 1.602-1.736 4.818-4.095 7.567l1.858-.401C35.6 70.211 35.622 70.222 35.644 70.222zM48.964 57.581c-.645-.367-2.693.49-4.139 1.335 0 .033.011.067.011.1 0 .234-.045.467-.1.701l2.526.222c.367.033.634.356.601.723-.022.345-.323.601-.657.601h-.066l-2.938-.256c-.145.245-.3.49-.479.734 1.769 1.124 4.273 2.314 5.13 1.869.078-.045.311-.167.311-.835v-4.629C49.164 57.681 49.02 57.603 48.964 57.581zM36.212 60.997l-3.316.267H32.84c-.345 0-.635-.256-.657-.612-.033-.367.245-.69.612-.712l2.871-.234c-.056-.234-.089-.467-.089-.69V58.95c-1.602-.957-3.572-1.725-4.195-1.369-.055.022-.2.111-.2.568v4.629c0 .668.234.79.312.835.868.456 3.405-.768 5.174-1.903C36.501 61.476 36.345 61.242 36.212 60.997zM40.763 58.849c-.122.178-.334.289-.556.289-.222 0-.434-.111-.556-.289-.167-.256-.756-.946-1.391-1.035-.055-.011-.1-.011-.145-.011-.256 0-.512.1-.768.3-.3.256-.445.534-.434.901.011 1.068 1.313 2.826 3.294 4.44 1.981-1.614 3.283-3.372 3.294-4.44.011-.367-.134-.645-.446-.901-.3-.245-.6-.345-.901-.289C41.52 57.904 40.93 58.593 40.763 58.849zM61.772 14.127c0 .011-.011.011-.011.022-.011.067-.256 1.079-.579 2.07 1.614-.189 2.526-.846 2.86-1.502.323-.645.155-1.413-.468-2.159-.957-1.135-2.415-1.235-3.483-1.124.356.223.668.456.935.701C62.006 13.048 61.917 13.771 61.772 14.127zM55.362 11.634c.045.156.745.99 2.348 1.625 1.513.59 2.559.512 2.804.367-.078-.278-.801-1.046-2.303-1.647-.924-.356-1.669-.468-2.181-.468C55.663 11.512 55.429 11.567 55.362 11.634zM54.127 11.156c0-.011.011-.033.011-.044.145-.345.567-.935 1.903-.935 0 0 0 0 .011 0 .378 0 .79.045 1.235.134-.679-.924-1.947-2.07-3.928-1.569-.768.189-1.269.556-1.491 1.068-.345.857.055 2.215.945 3.617C53.37 12.324 54.005 11.345 54.127 11.156zM44.646 7.94c0 .011-.011.022-.011.033v.011c.011.067.189 1.335.256 2.571 1.758-.913 2.504-2.048 2.581-2.927.078-.857-.434-1.636-1.436-2.181-1.647-.901-3.405-.234-4.496.39C43.211 6.082 44.646 6.76 44.646 7.94zM36.812 7.951c.067.223 1.168.857 3.249.857 2.048 0 3.149-.623 3.249-.868-.1-.256-1.201-.879-3.249-.879C37.981 7.061 36.879 7.706 36.812 7.951zM35.021 11.111c.134-1.502.434-2.96.467-3.138 0-.011-.011-.022-.011-.033 0-1.191 1.469-1.869 3.161-2.103-.657-.456-1.636-.968-2.771-.968-.745 0-1.536.211-2.348.79-.768.546-1.168 1.168-1.168 1.836C32.328 8.608 33.385 9.954 35.021 11.111zM25.941 10.777c.011.011.011.033.022.045.055.111.523.99.935 1.925 1.068-1.224 1.325-2.326 1.135-3.027-.189-.701-.823-1.168-1.791-1.302-1.469-.234-2.626.668-3.349 1.48C24.294 9.642 25.596 9.821 25.941 10.777zM19.498 13.192c.134.089 1.213.234 2.826-.356 1.525-.556 2.259-1.324 2.348-1.591-.1-.067-.344-.122-.712-.122-.501 0-1.224.111-2.103.434C20.243 12.146 19.52 12.958 19.498 13.192zM18.785 16.219c-.311-1.213-.5-2.404-.534-2.582 0-.011-.011-.011-.011-.022-.134-.356-.2-1.09.801-1.981.278-.245.623-.49 1.012-.712-.311-.067-.668-.122-1.046-.122-.979 0-2.103.334-2.926 1.558-.456.657-.59 1.258-.4 1.792C15.992 15.017 17.183 15.763 18.785 16.219zM55.841 16.063c.768 0 1.558.056 2.37.122.445.034.901.067 1.38.089h.155c.145-.4.278-.835.39-1.235-.078.011-.167.022-.256.022-.823 0-1.781-.223-2.66-.568-.935-.367-1.758-.857-2.326-1.391-.1-.089-.167-.167-.245-.245-.3.512-.657 1.157-.935 1.78.412.501.879.99 1.391 1.447C55.352 16.074 55.596 16.063 55.841 16.063zM22.358 16.675c.723-.746 1.613-1.447 2.559-2.181l.823-.656c.045-.033.078-.067.123-.1-.156-.4-.345-.812-.523-1.179l-.189.189c-.59.523-1.424 1.001-2.359 1.346-.845.312-1.769.501-2.571.501-.155 0-.3-.011-.445-.033.122.59.29 1.313.49 1.958.635.1 1.302.156 1.992.156H22.358zM43.345 11.222c.089-.033.156-.067.234-.1-.011-.545-.055-1.146-.111-1.669-.89.467-2.17.69-3.405.69-1.268 0-2.581-.234-3.483-.723-.111.723-.234 1.647-.267 2.493.701.39 1.469.734 2.27 1.024 1.091-.534 2.326-.924 3.606-1.346C42.565 11.478 42.955 11.345 43.345 11.222zM50.422 22.117c3.305.345 6.721.89 10.182 1.691.178-.267.345-.545.467-.868.768-1.936 1.581-4.195 2.182-5.886-1.002.434-2.282.634-3.739.556-.478-.022-.946-.067-1.402-.1C54.25 17.232 51.869 17.076 50.422 22.117zM49.164 21.638c.991-3.349 2.481-4.752 4.295-5.286-1.224-1.246-2.226-2.726-2.715-4.139-.49 1.079-1.068 2.459-1.658 3.962.011.478.011.957.011 1.413 0 1.257-.323 2.248-.768 3.016C48.53 21.104 48.864 21.438 49.164 21.638zM42.599 12.869c-4.407 1.413-7.344 2.37-6.566 8.847 1.491-.067 3.027-.111 4.607-.111 1.469 0 2.971.033 4.507.111.111-.045 2.615-1.024 2.615-4.128 0-2.471-.078-5.319-.155-7.389-.879.935-2.181 1.736-3.839 2.292C43.378 12.613 42.988 12.747 42.599 12.869zM33.363 20.815c.434.4.913.601 1.302.701-.434-4.162.645-6.343 2.481-7.711-2.136-.913-3.906-2.192-4.985-3.539-.089 1.814-.156 4.351-.067 7.033C32.139 18.901 32.573 20.08 33.363 20.815zM26.575 14.884 25.74 15.54c-3.037 2.392-4.762 3.761-3.227 7.656.456-.067.946-.133 1.469-.2 1.881-.312 3.983-.612 6.253-.846.045-.078.089-.145.167-.211 0 0 .69-.623 1.001-1.658-.379-.823-.612-1.792-.645-2.938-.011-.334-.022-.656-.033-.979-.59-1.547-1.224-3.116-1.736-4.384C28.533 12.97 27.71 13.971 26.575 14.884zM16.516 16.753c.49 1.502 1.157 3.505 1.903 5.586.167.49.534 1.079.801 1.402.501-.1 1.157-.211 1.936-.345-.868-2.37-.645-4.039.178-5.408C19.587 17.877 17.84 17.465 16.516 16.753zM64.654 26.334c-.011-.045-.055-.111-.145-.134-8.579-2.484-16.953-3.294-24.35-3.256-.199.001-.224.284-.032.334 1.953.507 3.655 1.278 4.897 2.422 1.691 1.558 2.381 3.65 2.059 6.209-1.157 9.102-3.672 22.845-4.017 24.704.289.1.567.245.835.456.2.167.356.345.501.545.255-.145.578-.322.935-.49l19.307-30.601C64.687 26.445 64.676 26.379 64.654 26.334zM36 57.636c.134-.2.3-.4.512-.567.601-.479 1.269-.679 1.947-.579.745.111 1.346.556 1.747.957.356-.356.879-.734 1.514-.89.1-.534 2.815-15.256 4.039-24.815.278-2.136-.267-3.794-1.647-5.063-4.051-3.728-14.143-3.105-20.375-2.292-.234.045-4.44.879-4.473.879-1.591.356-2.86.679-3.772.935-.1.022-.133.1-.145.134-.022.033-.033.111.011.2l19.173 30.368C35.099 57.147 35.611 57.425 36 57.636z"/>
</svg>