<svg xmlns="http://www.w3.org/2000/svg" viewBox="0 0 80 80">
<path d="M35.371 42.19c.352-1.027.63-2.028.825-2.997.031-.153.06-.304.087-.455.042-.244.084-.486.115-.725.05-.374.088-.742.109-1.102.007-.126.004-.248.007-.373.008-.304.005-.603-.01-.896-.007-.122-.014-.244-.024-.364-.034-.39-.082-.774-.162-1.141-.48-2.21-1.812-3.863-3.96-4.912-2.109-1.03-4.115-1.184-5.962-.452-4.071 1.608-6.142 6.944-6.162 6.997-.066.174-.215.303-.396.345-.182.043-.371-.01-.507-.138-.04-.038-3.913-3.646-8.08-3.646-.171 0-.342.005-.514.018-1.979.146-3.719 1.154-5.17 2.996-1.479 1.877-1.962 3.944-1.435 6.143 1.589 6.639 11.818 13.531 21.007 17.844 4.193-5.155 8.294-11.495 10.229-17.134 0 0 0 0 0 0C35.37 42.195 35.371 42.193 35.371 42.19zM73.879 28.661c-1.959-2.524-4.323-3.915-7.026-4.134-5.916-.465-11.624 4.771-11.681 4.824-.136.126-.327.175-.508.134-.181-.042-.328-.173-.394-.347-.027-.073-2.787-7.32-8.291-9.539-1.063-.428-2.166-.642-3.302-.642-1.553 0-3.168.399-4.831 1.197-2.94 1.409-4.774 3.652-5.451 6.664-.082.364-.12.75-.169 1.132.207.086.413.171.622.272 2.469 1.206 4.003 3.116 4.559 5.676.601 2.766-.021 6.141-1.384 9.706 2.889 5.961 7.021 12.098 11.219 17.322C59.658 55.231 73.557 46.03 75.774 37.06 76.515 34.063 75.878 31.237 73.879 28.661z"/>
</svg>