<svg xmlns="http://www.w3.org/2000/svg" viewBox="0 0 80 80">
<path d="M32.59 54.831 13.356 71.654 66.644 71.654 47.41 54.831zM12.912 39.349 12.912 69.772 30.944 54.001zM67.088 69.772 67.088 39.349 49.057 54.001zM24.102 28.966 24.102 28.966c.396.576.816 1.157 1.262 1.745.005.007.011.014.016.021.434.573.892 1.15 1.373 1.733.022.027.044.054.066.081.461.556.942 1.115 1.443 1.678.049.055.097.111.147.166.474.529.968 1.061 1.478 1.596.085.089.166.177.251.266.48.499.98 1 1.49 1.502.124.122.243.244.369.366.483.47.986.942 1.495 1.414.163.151.319.301.484.453.502.458 1.023.917 1.548 1.377.183.16.357.32.543.48.71.613 1.44 1.226 2.19 1.839.893.729 2.19.729 3.084 0 .757-.618 1.493-1.237 2.21-1.856.185-.16.359-.319.541-.479.532-.465 1.058-.931 1.566-1.395.173-.158.337-.316.507-.474.506-.47 1.005-.94 1.487-1.408.141-.137.275-.274.414-.411.499-.494.989-.986 1.46-1.476.104-.108.203-.216.306-.324.496-.523.978-1.043 1.44-1.562.067-.075.132-.15.199-.225.49-.554.96-1.103 1.411-1.649.035-.043.069-.085.104-.127.476-.58.928-1.155 1.357-1.726.009-.012.018-.025.028-.037 3.546-4.721 5.497-9.072 5.487-12.582-.007-2.695-1.096-4.881-3.328-6.681-2.199-1.775-4.508-2.493-6.866-2.132-5.229.8-9.116 6.546-9.154 6.604l-.71 1.063-.712-1.063c-.039-.057-3.944-5.811-9.16-6.605-.393-.06-.784-.089-1.173-.089-1.947 0-3.856.745-5.687 2.223-2.231 1.801-3.319 3.987-3.327 6.681C19.733 21.069 21.276 24.852 24.102 28.966L24.102 28.966zM47.429 53.122l19.822-16.106-9.921-7.735c-4.688 7.028-11.969 13.326-14.908 15.725-.76.621-1.691.931-2.623.931-.931 0-1.862-.31-2.622-.931-3.655-2.984-10.377-8.923-14.805-15.493l-9.624 7.503 19.822 16.106H47.429z"/>
</svg>