<svg xmlns="http://www.w3.org/2000/svg" viewBox="0 0 80 80">
<path d="M64.921 21.201c0 0-12.205 6.063-17.281 3.72-.534-.246-.643-.954-.198-1.337 2.59-2.228 4.171-5.596 3.958-9.327C51.065 8.39 46.204 3.677 40.33 3.511c-6.458-.182-11.75 4.998-11.75 11.415 0 3.462 1.543 6.563 3.976 8.657.446.384.337 1.091-.197 1.338-5.076 2.343-17.281-3.72-17.281-3.72-4.828-1.91-7.28.945-7.509 4.152v0c0 3.223 2.818 4.93 5.845 6.277 2.956 1.316 9.678 3.743 12.796 4.61 1.134.315 2.177 2.185 2.411 3.339 1.66 8.174-8.302 28.553-8.302 28.553-1.196 3.186.431 6.771 3.617 7.968l0 0c3.186 1.196 6.771-.431 7.968-3.617l6.106-13.686c.767-1.719 3.208-1.719 3.975 0l6.106 13.686c1.196 3.186 4.782 4.814 7.968 3.617 3.186-1.196 4.814-4.782 3.617-7.968 0 0-9.962-20.38-8.302-28.553.234-1.154 1.27-3.047 2.411-3.339 3.41-.873 9.56-3.226 12.796-4.61 2.882-1.232 5.845-3.055 5.845-6.277v0C72.2 22.146 69.561 19.291 64.921 21.201zM34.29 13.277c0-.874.708-1.582 1.582-1.582.874 0 1.582.708 1.582 1.582 0 .873-.708 1.582-1.582 1.582C34.998 14.859 34.29 14.15 34.29 13.277zM40 50.818c-1.079 0-1.953-.875-1.953-1.953 0-1.078.874-1.953 1.953-1.953 1.079 0 1.953.874 1.953 1.953C41.953 49.944 41.079 50.818 40 50.818zM40 43.575c-1.079 0-1.953-.874-1.953-1.953 0-1.079.874-1.953 1.953-1.953 1.079 0 1.953.874 1.953 1.953C41.953 42.701 41.079 43.575 40 43.575zM40 36.331c-1.079 0-1.953-.874-1.953-1.953 0-1.079.874-1.953 1.953-1.953 1.079 0 1.953.874 1.953 1.953C41.953 35.457 41.079 36.331 40 36.331zM44.681 19.295l-.122.118c-.679.66-2.092 2.034-4.559 2.034-2.772 0-4.25-1.662-4.735-2.209-.352-.396-.316-1.002.08-1.354.396-.351 1.002-.316 1.354.08.647.728 1.608 1.565 3.301 1.565 1.688 0 2.611-.898 3.222-1.492l.134-.129c.383-.366.99-.353 1.356.03C45.077 18.322 45.064 18.929 44.681 19.295zM44.128 14.713c-.874 0-1.582-.708-1.582-1.582 0-.874.708-1.582 1.582-1.582.873 0 1.582.708 1.582 1.582C45.71 14.005 45.002 14.713 44.128 14.713z"/>
</svg>