<svg xmlns="http://www.w3.org/2000/svg" viewBox="0 0 80 80">
<path d="M65.024 66.837h-50.06c-.504 0-.909.416-.909.92v7.021h51.889v-7.021C65.944 67.254 65.539 66.837 65.024 66.837zM16.947 59.717 16.257 64.647 63.743 64.647 63.041 59.717zM54.158 52.093c-1.172.526-2.388 1.063-4.097 1.063-1.61 0-2.859-.471-4.184-.975-1.577-.603-3.21-1.227-5.882-1.227-2.53 0-4.217.603-5.86 1.183-1.457.526-2.837 1.019-4.612 1.019-1.818 0-3.1-.416-4.348-.822-1.271-.416-2.596-.843-4.699-.865-2.782-.033-5.751.723-7.372 1.216 1.03 1.709 2.223 3.33 3.571 4.842h46.642c1.359-1.512 2.552-3.133 3.582-4.842-1.742-.635-5.148-1.731-8.073-1.731C56.699 50.954 55.407 51.535 54.158 52.093zM32.819 50.286c.197-.066.383-.132.58-.208 1.731-.613 3.681-1.314 6.594-1.314 3.078 0 5.061.756 6.66 1.369.296.11.57.208.833.307.953-1.435 1.478-3.078 1.478-4.82 0-2.432-.975-4.688-2.705-6.332-1.555 1.533-3.692 2.498-6.058 2.498-2.355 0-4.502-.964-6.057-2.498-1.731 1.643-2.706 3.9-2.706 6.332C31.439 47.295 31.932 48.884 32.819 50.286zM40.202 39.595c3.549 0 6.441-2.892 6.441-6.441 0-2.059-1.008-3.987-2.651-5.192-1.052.679-2.312 1.084-3.648 1.084-1.413 0-2.717-.438-3.79-1.183-1.731 1.205-2.782 3.166-2.782 5.291C33.772 36.703 36.653 39.595 40.202 39.595zM40.071 30.284c.602 0 1.095.482 1.095 1.095 0 .602-.493 1.095-1.095 1.095-.613 0-1.095-.493-1.095-1.095C38.976 30.766 39.457 30.284 40.071 30.284zM40.071 34.392c.602 0 1.095.482 1.095 1.095 0 .602-.493 1.095-1.095 1.095-.613 0-1.095-.493-1.095-1.095C38.976 34.873 39.457 34.392 40.071 34.392zM35.82 22.342c0 2.487 2.027 4.513 4.524 4.513 2.487 0 4.513-2.026 4.513-4.513 0-.646-.142-1.282-.405-1.862l-6.945-1.654C36.445 19.68 35.82 20.962 35.82 22.342zM41.714 21.52c.449 0 .822.362.822.822 0 .449-.373.822-.822.822-.46 0-.822-.373-.822-.822C40.893 21.882 41.254 21.52 41.714 21.52zM38.154 20.699c.449 0 .822.362.822.822 0 .449-.373.822-.822.822-.46 0-.822-.373-.822-.822C37.332 21.06 37.694 20.699 38.154 20.699zM39.38 10.599 38.954 16.92 43.631 18.026 46.074 12.396zM39.994 5.221c-17.285 0-31.35 14.065-31.35 31.362 0 4.973 1.172 9.804 3.374 14.142 1.599-.504 5.028-1.446 8.347-1.446h.132c2.443.022 3.998.526 5.367.975 1.172.383 2.18.712 3.658.712.373 0 .734-.033 1.085-.076-.887-1.61-1.359-3.407-1.359-5.269 0-3.111 1.293-5.992 3.549-8.062-.767-1.293-1.216-2.793-1.216-4.404 0-.307.022-.613.055-.92l-5.302-3.352c-.504-.329-.657-1.008-.34-1.512.328-.515 1.008-.668 1.512-.339l4.689 2.958c.57-1.435 1.512-2.706 2.76-3.67-.833-1.117-1.326-2.487-1.326-3.976 0-1.512.515-2.947 1.413-4.108l-.153-.033c-.592-.143-.953-.734-.822-1.325.142-.581.734-.942 1.325-.811l1.391.34.504-7.285c.022-.329.186-.624.449-.822.274-.186.603-.252.921-.164l9.212 2.476c.307.087.57.296.701.58.143.285.154.624.022.909l-2.804 6.441 1.107.263c.592.142.953.734.81 1.325-.098.416-.427.701-.822.8.099.46.164.931.164 1.413 0 1.555-.536 2.979-1.424 4.119 1.161.942 2.049 2.158 2.596 3.527l4.688-2.958c.515-.329 1.183-.175 1.512.339.318.504.164 1.183-.34 1.512l-5.313 3.352c.033.307.066.613.066.92 0 1.61-.449 3.111-1.227 4.404 2.267 2.07 3.549 4.951 3.549 8.062 0 1.895-.471 3.713-1.38 5.335.098 0 .186.011.285.011 1.238 0 2.104-.383 3.199-.876 1.391-.613 2.969-1.326 5.564-1.326 3.484 0 7.394 1.314 9.158 1.983 2.202-4.349 3.374-9.19 3.374-14.164C71.356 19.286 57.291 5.221 39.994 5.221zM14.877 31.927c-.613 0-1.095-.493-1.095-1.095 0-.613.482-1.095 1.095-1.095.602 0 1.095.482 1.095 1.095C15.972 31.434 15.479 31.927 14.877 31.927zM18.163 43.976c-.613 0-1.095-.493-1.095-1.095 0-.613.482-1.095 1.095-1.095.602 0 1.095.482 1.095 1.095C19.258 43.483 18.765 43.976 18.163 43.976zM19.258 22.616c-.613 0-1.095-.493-1.095-1.095 0-.613.482-1.095 1.095-1.095.602 0 1.095.482 1.095 1.095C20.354 22.123 19.86 22.616 19.258 22.616zM26.378 36.309c0 .602-.493 1.095-1.095 1.095-.613 0-1.095-.493-1.095-1.095 0-.613.482-1.095 1.095-1.095C25.885 35.213 26.378 35.695 26.378 36.309zM26.652 13.579c-.613 0-1.095-.493-1.095-1.095 0-.613.482-1.095 1.095-1.095.602 0 1.095.482 1.095 1.095C27.748 13.086 27.254 13.579 26.652 13.579zM28.295 20.973c-.613 0-1.095-.493-1.095-1.095 0-.613.482-1.095 1.095-1.095.602 0 1.095.482 1.095 1.095C29.391 20.48 28.898 20.973 28.295 20.973zM53.49 37.678c-.613 0-1.095-.493-1.095-1.095 0-.613.482-1.095 1.095-1.095.602 0 1.095.482 1.095 1.095C54.585 37.185 54.092 37.678 53.49 37.678zM53.764 21.794c-.613 0-1.095-.493-1.095-1.095 0-.613.482-1.095 1.095-1.095.602 0 1.095.482 1.095 1.095C54.859 21.301 54.366 21.794 53.764 21.794zM53.764 13.579c-.613 0-1.095-.493-1.095-1.095 0-.613.482-1.095 1.095-1.095.602 0 1.095.482 1.095 1.095C54.859 13.086 54.366 13.579 53.764 13.579zM58.419 45.893c-.613 0-1.095-.493-1.095-1.095 0-.613.482-1.095 1.095-1.095.602 0 1.095.482 1.095 1.095C59.514 45.4 59.021 45.893 58.419 45.893zM60.336 30.831c-.613 0-1.095-.493-1.095-1.095 0-.613.482-1.095 1.095-1.095.602 0 1.095.482 1.095 1.095C61.431 30.338 60.938 30.831 60.336 30.831zM62.801 22.89c-.613 0-1.095-.493-1.095-1.095 0-.613.482-1.095 1.095-1.095.602 0 1.095.482 1.095 1.095C63.896 22.397 63.403 22.89 62.801 22.89zM66.361 40.142c-.613 0-1.095-.493-1.095-1.095 0-.613.482-1.095 1.095-1.095.602 0 1.095.482 1.095 1.095C67.456 39.649 66.963 40.142 66.361 40.142z"/>
</svg>