<svg xmlns="http://www.w3.org/2000/svg" viewBox="0 0 80 80">
<path d="M54.283 24.4c.484.727 1.232 1.188 2.163 1.336 4.335.684 12.856-5.923 13.814-6.678.494-.391.578-1.107.189-1.601-.391-.494-1.107-.579-1.601-.188-3.314 2.616-9.517 6.611-12.045 6.216-.387-.061-.537-.219-.624-.349-1.749-2.623-4.532-1.562-7.531-.182 2.09-1.991 3.874-4.165 4.885-6.185 1.561-3.123.926-5.061.119-6.138-1.387-1.851-3.833-2.084-6.71-.642-3.838 1.924-8.379 6.948-9.876 12.218-2.316-4-6.085-7.839-9.093-9.258-2.25-1.063-3.695-.636-4.511-.092-1.471.981-1.914 2.726-1.213 4.788 1.069 3.146 4.932 7.254 9.326 9.455-8.394-1.648-16.747-6.732-16.847-6.792-.536-.329-1.238-.164-1.568.374-.329.535-.162 1.237.374 1.567.337.208 5.76 3.51 12.387 5.705H12.243c-1.416 0-2.568 1.153-2.568 2.569v7.667c0 1.416 1.152 2.569 2.568 2.569h2.413v25.292c0 2.536 2.063 4.599 4.599 4.599h35.988c2.536 0 4.599-2.063 4.599-4.599V40.757h2.414c1.416 0 2.568-1.153 2.568-2.569v-7.667c0-1.416-1.152-2.569-2.568-2.569H42.127c2.631-.682 4.888-1.726 6.823-2.626C52.523 23.662 53.59 23.361 54.283 24.4zM47.964 12.025c.628-.315 1.556-.692 2.396-.692.572 0 1.103.175 1.469.663.765 1.02.24 2.604-.334 3.753-1.858 3.715-6.442 7.817-10.339 10.092-.735.177-1.493.325-2.283.422C38.415 20.794 43.633 14.196 47.964 12.025zM24.407 16.911c-.539-1.587.107-2.017.319-2.159.194-.129.431-.18.683-.18.558 0 1.191.248 1.591.437 3.553 1.676 8.033 7.208 9.461 11.311C31.403 25.72 25.592 20.401 24.407 16.911zM56.618 42.696h-15.02v25.34h-8.337v-25.34H17.88v-2.279h15.381v-9.98h8.337v9.98h15.02V42.696z"/>
</svg>