<svg xmlns="http://www.w3.org/2000/svg" viewBox="0 0 80 80">
<path d="M73.684 57.411c.043-2.038.235-4.265.444-6.625.6-6.786 1.28-14.479-1.577-20.416-2.234-4.612-9.184-11.313-14.992-11.313-3.769 0-6.739-2.229-8.907-3.857-.722-.542-1.346-1.011-1.907-1.331-2.43-1.394-6.557-1.969-10.188 1.008-1.349 1.106-2.868 1.755-4.791 2.577-2.736 1.169-6.142 2.624-10.728 6.105-7.074 5.37-9.783 13.504-10.331 15.376-.119.039-.233.086-.354.121-.271.078-.544.159-.799.27-4.526 1.933-5.434 4.493-5.397 6.299.049 2.478 1.897 4.508 3.612 5.161 3.304 1.244 7.095-.111 8.336-.555.834-.291 1.716-.178 2.365.309 3.806 2.837 10.441.903 13.111-.056.525-.185 1.075-.199 1.562-.037 5.109 1.593 11.758.835 14.388.432.403-.066.825-.024 1.223.119 2.629.94 5.037 1.41 7.2 1.41 1.453 0 2.798-.213 4.024-.638 2.799-.97 4.306-4.08 3.362-6.927-.277-.85-.683-1.626-1.181-2.327-.354-2.197-.23-3.604-.039-4.426 3.595 5.05 4.342 15.74 4.485 18.838-1.143.718-1.984 1.772-2.359 3.051-.404 1.391-.234 2.872.481 4.171.77 1.399 2.062 2.42 3.638 2.877.574.168 1.165.251 1.752.251 1.01 0 2.008-.246 2.882-.726 1.296-.71 2.233-1.865 2.635-3.25 0 0 0 0 0-.001C76.252 61.165 75.463 58.858 73.684 57.411zM21.969 24.785c4.435-3.367 7.743-4.781 10.401-5.916 1.955-.836 3.644-1.556 5.163-2.802 3.021-2.474 6.343-2.068 8.447-.86.479.273 1.067.714 1.747 1.226 2.21 1.658 5.549 4.166 9.832 4.166 4.959 0 11.57 6.238 13.605 10.442 2.672 5.554 2.012 13.023 1.43 19.612-.181 2.048-.353 4.004-.427 5.839-.214-.088-.431-.162-.651-.223-.341-.101-.686-.163-1.032-.205-.11-.013-.219-.016-.328-.024-.137-.009-.274-.03-.411-.03-.113 0-.224.017-.337.023-.1.005-.2.01-.3.02-.336.035-.669.089-.994.181-.001 0-.001 0-.002 0-.252-4.63-1.305-15.562-5.649-20.15-.027-.028-.064-.041-.095-.064-1.805-2.697-3.412-4.9-5.311-6.8-.301-.301-.788-.301-1.089 0-.3.301-.3.788.001 1.089 1.546 1.546 2.971 3.367 5.002 6.391-.302.653-.665 1.886-.56 3.992-.038-.029-.076-.05-.115-.078-.163-.119-.327-.231-.489-.333-.071-.045-.142-.085-.213-.127-.138-.081-.274-.157-.409-.227-.071-.037-.141-.073-.212-.107-.14-.067-.274-.128-.408-.185-.056-.024-.113-.049-.168-.071-.184-.073-.361-.14-.527-.194-.656-.218-1.178-.656-1.468-1.229-1.901-3.822-6.824-4.668-13.507-2.33-.79.281-1.681.15-2.324-.337-5.596-4.26-12.878-1.626-15.748-.296-.431.2-.917.27-1.407.211-.553-.07-1.082-.105-1.6-.126-.094-.004-.187-.008-.28-.01-.513-.012-1.013-.006-1.493.024-.015.001-.028.003-.042.004-.481.031-.942.085-1.389.153-.048.008-.097.013-.145.021-.452.073-.887.161-1.302.265-.031.008-.06.016-.09.024-.405.104-.793.219-1.163.346-.02.007-.041.013-.061.02-.376.13-.733.271-1.073.418-.043.019-.084.038-.126.056-.33.147-.648.298-.943.455 0 0-.001 0-.001 0-.295.157-.567.316-.827.475-.021.013-.047.026-.068.039C13.995 34.468 16.744 28.752 21.969 24.785zM59.474 50.316c-2.675.926-6.203.661-10.199-.767-.441-.16-.905-.241-1.365-.241-.208 0-.415.016-.619.049-2.516.385-8.886 1.115-13.675-.376-.795-.265-1.698-.248-2.55.05-1.906.684-8.378 2.729-11.674.274-1.058-.795-2.477-.99-3.801-.527-1.114.399-4.503 1.61-7.276.566-1.233-.469-2.584-2.037-2.619-3.752-.038-1.91 1.505-3.588 4.466-4.853.198-.086.408-.144.616-.204.291-.084.592-.17.928-.331.189-.102.36-.205.533-.349 1.691-1.402 5.366-3.639 10.984-2.942.777.098 1.553-.02 2.246-.341 2.042-.946 9.1-3.736 14.169.125 1.068.811 2.477 1.018 3.767.565 3.447-1.209 9.54-2.609 11.619 1.567.477.942 1.315 1.651 2.359 2 .122.04.251.086.385.139.936.366 2.114 1.042 3.037 2.278.462.612.822 1.309 1.071 2.077C62.559 47.38 61.481 49.619 59.474 50.316zM74.154 62.872c-.288.989-.961 1.817-1.897 2.33-1.028.565-2.29.692-3.464.346-1.182-.342-2.148-1.102-2.719-2.14-.516-.939-.641-2.003-.352-2.997.302-1.032 1.019-1.882 2.017-2.39.286-.144.587-.247.894-.325.102-.026.206-.037.309-.056.212-.038.425-.066.641-.074.162-.006.324-.006.488.006.078.005.155.008.233.017.263.032.526.08.787.158.487.135.948.353 1.371.649C73.948 59.433 74.628 61.233 74.154 62.872z"/>
</svg>