<svg xmlns="http://www.w3.org/2000/svg" viewBox="0 0 80 80">
<path d="M69.084 67.736 53.002 51.706c-.088-.089-.108-.191-.061-.307.048-.115.135-.173.26-.173h7.394c1.151 0 2.178-.687 2.617-1.75.44-1.064.197-2.275-.618-3.087L50.74 34.572c-.088-.088-.108-.19-.061-.305.048-.116.135-.174.26-.174h4.234c1.151 0 2.178-.687 2.617-1.75.44-1.064.197-2.275-.618-3.087l-10.446-10.41c.146-.299.234-.63.234-.984v-3.254c0-1.795-1.18-3.324-2.836-3.941.061-.412.099-.831.099-1.259 0-3.354-1.856-5.981-4.224-5.981-2.368 0-4.224 2.627-4.224 5.981 0 .429.031.851.092 1.262-1.651.619-2.827 2.147-2.827 3.939v3.254c0 .354.088.685.234.984l-10.445 10.41c-.815.812-1.057 2.024-.618 3.087.44 1.064 1.467 1.75 2.618 1.75h4.234c.124 0 .212.058.26.174.047.115.027.217-.062.306L17.406 46.389c-.815.812-1.057 2.024-.618 3.087.44 1.064 1.467 1.75 2.618 1.75h7.393c.125 0 .212.058.26.173.048.116.027.218-.061.307L10.916 67.736c-.815.812-1.057 2.024-.618 3.087.44 1.064 1.467 1.75 2.618 1.75h54.169c1.151 0 2.178-.687 2.617-1.75C70.141 69.759 69.899 68.547 69.084 67.736zM40 5.729c.907 0 1.922 1.573 1.922 3.678 0 .329-.032.649-.08.961h-3.687c-.048-.311-.076-.632-.076-.961C38.078 7.302 39.093 5.729 40 5.729zM35.342 14.608c0-1.068.961-1.937 2.142-1.937h5.032c1.182 0 2.142.869 2.142 1.937l.037 3.215h-9.353V14.608zM67.574 69.944c-.041.098-.17.327-.49.327H12.916c-.32 0-.449-.229-.49-.327-.04-.099-.111-.352.116-.578l16.081-16.029c.743-.741.965-1.846.564-2.816-.401-.97-1.338-1.596-2.388-1.596h-7.393c-.32 0-.449-.229-.49-.327-.04-.099-.111-.352.116-.578l11.853-11.814c.744-.741.965-1.846.564-2.816-.401-.97-1.338-1.598-2.387-1.598h-4.234c-.32 0-.449-.229-.49-.327-.04-.099-.111-.352.116-.578l10.801-10.765c.017 0 .033.005.049.005h9.391c.017 0 .033-.005.05-.005l10.801 10.765c.227.226.156.479.116.578-.041.098-.17.327-.49.327h-4.234c-1.049 0-1.987.627-2.388 1.598-.401.971-.179 2.075.564 2.815l11.854 11.816c.227.226.156.479.116.578-.041.098-.17.327-.49.327H53.2c-1.049 0-1.987.626-2.387 1.596-.401.97-.18 2.075.564 2.816l16.081 16.029C67.685 69.592 67.615 69.845 67.574 69.944z"/>
</svg>