<svg xmlns="http://www.w3.org/2000/svg" viewBox="0 0 80 80">
<path d="M72.146 34.838c-.526-1.62-1.9-2.777-3.585-3.021l-15.834-2.302-5.107-10.348c.48-.403.792-1 .792-1.675v-3.154c0-1.74-1.144-3.223-2.749-3.821.059-.399.096-.805.096-1.221 0-3.251-1.799-5.798-4.095-5.798-2.296 0-4.095 2.547-4.095 5.798 0 .416.03.825.089 1.223-1.601.6-2.742 2.081-2.742 3.818v3.154c0 .675.312 1.272.792 1.675l-5.107 10.348-15.833 2.302c-1.685.244-3.059 1.402-3.585 3.021-.526 1.62-.096 3.365 1.124 4.553l11.457 11.168-2.705 15.77c-.288 1.677.389 3.342 1.766 4.343 1.378 1.001 3.169 1.131 4.677.338l14.162-7.445 14.162 7.445c.655.344 1.365.516 2.07.516.917 0 1.828-.288 2.607-.853 1.377-1.002 2.054-2.666 1.766-4.343l-2.705-15.77 11.457-11.168C72.242 38.203 72.673 36.458 72.146 34.838zM41.665 5.73c.88 0 1.863 1.525 1.863 3.566 0 .319-.031.629-.078.932h-3.575c-.046-.302-.073-.612-.073-.932C39.802 7.255 40.785 5.73 41.665 5.73zM37.149 14.338c0-1.035.932-1.878 2.077-1.878h4.878c1.145 0 2.077.842 2.077 1.878l.036 3.118h-9.068V14.338zM69.464 37.793 57.167 49.781l2.903 16.925c.146.847-.183 1.654-.878 2.16-.695.504-1.566.569-2.326.169l-15.2-7.992-15.2 7.992c-.761.399-1.631.335-2.326-.169-.695-.506-1.024-1.313-.878-2.16l2.903-16.925L13.865 37.793c-.616-.601-.825-1.447-.559-2.265.265-.817.932-1.379 1.783-1.503l16.994-2.47 5.857-11.867h7.448l5.857 11.867 16.995 2.47c.851.124 1.517.686 1.783 1.503C70.289 36.345 70.08 37.192 69.464 37.793z"/>
</svg>