<svg xmlns="http://www.w3.org/2000/svg" viewBox="0 0 80 80">
<path d="M57.299 24.39c.484.726 1.231 1.188 2.162 1.335 4.333.684 12.847-5.919 13.804-6.674.494-.39.578-1.106.188-1.6-.39-.494-1.106-.578-1.599-.188-3.312 2.614-9.51 6.607-12.037 6.212-.387-.061-.536-.219-.623-.349-1.748-2.622-4.529-1.561-7.526-.182 2.088-1.989 3.872-4.162 4.881-6.181 1.56-3.121.926-5.058.119-6.134-1.387-1.85-3.83-2.083-6.705-.642-3.835 1.922-8.374 6.944-9.869 12.21-2.314-3.998-6.081-7.834-9.087-9.251-2.249-1.062-3.693-.636-4.508-.092-1.47.981-1.912 2.724-1.213 4.784 1.068 3.144 4.929 7.249 9.319 9.448-8.389-1.647-16.736-6.727-16.835-6.788-.536-.329-1.237-.163-1.567.374-.329.535-.162 1.236.374 1.566.319.197 5.219 3.181 11.38 5.359H15.21c-1.603 0-2.908 1.305-2.908 2.909v7.662c0 1.603 1.304 2.909 2.908 2.909h2.071v24.933c0 2.722 2.215 4.937 4.937 4.937h12.382 11.202 12.381c2.722 0 4.937-2.215 4.937-4.937V41.077h2.07c1.603 0 2.908-1.305 2.908-2.909v-7.662c0-1.603-1.305-2.909-2.908-2.909H46.357c2.12-.661 3.981-1.524 5.612-2.283C55.54 23.652 56.606 23.351 57.299 24.39zM44.662 29.875V38.8h-8.925v-8.925H44.662zM50.984 12.023c.627-.315 1.555-.692 2.394-.692.572 0 1.102.175 1.468.663.764 1.02.24 2.602-.334 3.75-1.856 3.713-6.438 7.812-10.332 10.085-.734.177-1.492.325-2.282.421C41.442 20.786 46.656 14.193 50.984 12.023zM27.443 16.906c-.539-1.586.107-2.016.319-2.157.194-.129.431-.18.683-.18.558 0 1.19.248 1.59.437 3.55 1.675 8.028 7.203 9.454 11.304C34.435 25.709 28.627 20.394 27.443 16.906zM14.579 38.169v-7.662c0-.348.283-.632.63-.632H33.46V38.8H18.419 15.21C14.862 38.8 14.579 38.517 14.579 38.169zM19.558 66.011V41.077H33.46V68.67H22.217C20.751 68.67 19.558 67.477 19.558 66.011zM35.737 68.67V41.077h8.925V68.67H35.737zM60.842 66.011c0 1.467-1.194 2.66-2.66 2.66H46.939V41.077h13.903V66.011zM65.82 30.507v7.662c0 .348-.283.632-.631.632H61.98 46.939v-8.925h18.25C65.537 29.875 65.82 30.158 65.82 30.507z"/>
</svg>