<svg xmlns="http://www.w3.org/2000/svg" viewBox="0 0 80 80">
<path d="M70.087 19.094c-1.96 0-3.744.75-5.096 1.97-10.227-8.665-27.873-7.417-36.048-.41-5.773 4.947-7.057 9.802-7.907 13.014-.427 1.613-.735 2.778-1.389 3.105-2.807 1.403-3.032 3.342-3.196 4.759-.137 1.181-.243 1.769-1.152 2.256-2.349 1.259-3.683 3.381-4.088 6.45-3.859.267-6.919 3.483-6.919 7.408 0 4.1 3.335 7.435 7.434 7.435h50.432c4.099 0 7.434-3.335 7.434-7.435 0-3.868-2.97-7.052-6.75-7.399-.14-1.827-.75-3.893-3.137-5.324-.975-.585-1.255-1.644-1.58-2.87-.381-1.437-.812-3.065-2.535-3.925-1.011-.506-1.697-1.29-1.981-2.269-.386-1.326-.047-2.93.98-4.641 1.795-2.992 5.127-3.914 7.898-4.121.2 4.026 3.528 7.242 7.602 7.242 4.202 0 7.621-3.419 7.621-7.621C77.71 22.516 74.289 19.094 70.087 19.094zM67.877 57.645c0 3.154-2.566 5.721-5.72 5.721H11.725c-3.154 0-5.72-2.566-5.72-5.721 0-3.155 2.566-5.72 5.72-5.72h50.432C65.311 51.925 67.877 54.49 67.877 57.645zM53.117 30.334c-1.278 2.131-1.678 4.208-1.155 6.003.422 1.449 1.41 2.597 2.86 3.322.981.491 1.265 1.396 1.645 2.832.368 1.387.784 2.958 2.356 3.902 1.669 1 2.158 2.387 2.293 3.819H12.933c.359-2.401 1.358-3.94 3.175-4.913 1.738-.931 1.908-2.393 2.045-3.569.152-1.306.283-2.435 2.261-3.423 1.346-.673 1.758-2.229 2.279-4.2.795-3.006 1.997-7.549 7.366-12.151 7.658-6.563 24.193-7.729 33.795.39-.627.892-1.066 1.923-1.263 3.038C58.184 25.657 54.909 27.348 53.117 30.334zM70.087 32.623c-3.257 0-5.907-2.65-5.907-5.907 0-3.257 2.65-5.907 5.907-5.907 3.257 0 5.907 2.65 5.907 5.907C75.994 29.973 73.344 32.623 70.087 32.623zM34.239 44.434H23.095c-.473 0-.857.384-.857.857 0 .473.384.857.857.857h11.144c.473 0 .857-.384.857-.857C35.096 44.818 34.712 44.434 34.239 44.434z"/>
</svg>