<svg xmlns="http://www.w3.org/2000/svg" viewBox="0 0 80 80">
<path d="M50.167 19.454c.783-.783.783-2.06 0-2.844l-4.015-4.014c-.784-.783-2.06-.783-2.844 0L31.715 24.19c.097-.283.19-.574.276-.878 1.048-1.766 1.691-3.525 2.241-5.034.949-2.602 1.343-3.328 2.13-3.177.678.135 1.354-.024 1.954-.46 2.627-1.908 3.625-9.361 3.799-10.836.064-.549-.328-1.046-.876-1.11-.548-.071-1.045.328-1.11.876-.363 3.079-1.496 8.368-2.988 9.452-.185.134-.295.137-.387.117-2.116-.427-3.091 1.114-3.887 3.088-.027-1.811-.25-3.541-.715-4.934-.842-2.527-2.247-3.233-3.277-3.381-1.777-.257-3.242.942-4.019 3.283-1.007 3.031-.813 7.835 1.041 11.377-3.263-.796-7.072-.804-9.325.005-1.803.647-2.361 1.679-2.511 2.43-.272 1.358.44 2.566 1.955 3.312 1.169.576 2.883.889 4.754.889 1.363 0 2.805-.178 4.182-.527-5.102 3.133-11.367 4.658-11.446 4.678-.537.128-.869.668-.741 1.205.11.459.52.768.972.768.077 0 .155-.009.233-.027.313-.075 5.799-1.408 10.856-4.228l-7.701 7.701c-.782.783-.782 2.06.001 2.844l4.014 4.014c.392.392.907.588 1.421.588.515 0 1.03-.196 1.422-.588L50.167 19.454C50.167 19.455 50.167 19.455 50.167 19.454zM26.755 11.827c.247-.742.786-1.943 1.689-1.943.049 0 .099.003.149.011.855.122 1.376 1.173 1.663 2.033.96 2.882.72 7.364-.11 10.556-.264.431-.549.86-.87 1.281C26.327 21.128 25.654 15.143 26.755 11.827zM16.901 26.527c-1.004-.495-.913-.953-.878-1.126.094-.469.808-.79 1.225-.939.941-.338 2.18-.493 3.517-.493 2.413 0 5.143.504 7.006 1.345C24.803 27.474 19.26 27.69 16.901 26.527zM33.647 34.153l-5.037-5.037 5.037-5.037 5.037 5.037L33.647 34.153zM57.373 49.481H45.386h-8.298H25.1c-.387 0-.7.313-.7.7v19.315c0 1.938 1.577 3.515 3.515 3.515h9.172 8.298 9.173c1.938 0 3.514-1.577 3.514-3.515V50.182C58.073 49.795 57.759 49.481 57.373 49.481zM45.027 71.353h-7.58V51.14h7.58V71.353zM65.783 28.9c-.081-.248-.295-.429-.554-.467l-4.896-.711-2.19-4.438c-.231-.467-.999-.467-1.229 0l-2.19 4.438-4.896.711c-.258.038-.473.219-.554.467-.081.248-.013.521.174.703l3.543 3.453-.836 4.877c-.044.258.062.518.273.671.119.087.261.131.403.131.109 0 .219-.025.319-.078l4.38-2.303 4.38 2.303c.23.121.511.1.722-.053.211-.153.317-.413.273-.671l-.836-4.877 3.543-3.453C65.796 29.421 65.864 29.148 65.783 28.9zM47.269 38.733c-.067-.207-.246-.357-.461-.389l-2.896-.422-1.295-2.624c-.192-.391-.832-.391-1.025 0l-1.295 2.624-2.896.422c-.215.031-.394.182-.461.389-.067.207-.011.435.145.586l2.095 2.042-.495 2.885c-.037.215.051.431.228.559.176.129.409.146.602.044l2.59-1.362 2.59 1.362c.083.044.175.065.266.065.119 0 .236-.037.336-.109.176-.128.264-.344.228-.559l-.495-2.885 2.096-2.042C47.281 39.168 47.337 38.94 47.269 38.733z"/>
</svg>