<svg width="1em" height="1em" viewBox="0 0 22 22" fill="none" xmlns="http://www.w3.org/2000/svg">
<path d="M5.12886 7.58354H6.35633V8.81101C6.35633 9.26108 6.72458 9.62933 7.17465 9.62933C7.62472 9.62933 7.99296 9.26108 7.99296 8.81101V7.58354H9.22043C9.67051 7.58354 10.0387 7.2153 10.0387 6.76522C10.0387 6.31515 9.67051 5.94691 9.22043 5.94691H7.99296V4.71944C7.99296 4.26936 7.62472 3.90112 7.17465 3.90112C6.72458 3.90112 6.35633 4.26936 6.35633 4.71944V5.94691H5.12886C4.67879 5.94691 4.31055 6.31515 4.31055 6.76522C4.31055 7.2153 4.67879 7.58354 5.12886 7.58354Z" fill="currentColor"/>
<path d="M17.6642 0.5H4.33585C2.21846 0.5 0.5 2.21846 0.5 4.33585V17.6642C0.5 19.7815 2.21846 21.5 4.33585 21.5H17.6642C19.7815 21.5 21.5 19.7815 21.5 17.6642V4.33585C21.5 2.21846 19.7815 0.5 17.6642 0.5ZM16.6055 15.3422H12.5139C12.0638 15.3422 11.6956 14.9739 11.6956 14.5239C11.6956 14.0738 12.0638 13.7056 12.5139 13.7056H16.6055C17.0555 13.7056 17.4238 14.0738 17.4238 14.5239C17.4238 14.9739 17.0555 15.3422 16.6055 15.3422ZM2.70945 19.2906C2.29518 18.8763 2.03434 18.2983 2.03434 17.6642V4.33585C2.03434 3.06746 3.06746 2.03434 4.33585 2.03434H17.6642C18.2983 2.03434 18.8763 2.29006 19.2906 2.70945L2.70945 19.2906Z" fill="currentColor"/>
</svg>
