<svg width="1em" height="1em" viewBox="0 0 20 22" fill="none" xmlns="http://www.w3.org/2000/svg">
<path d="M19.8015 10.756C19.4789 8.58808 18.4386 6.591 16.847 5.08407C15.2554 3.57714 13.2043 2.64735 11.022 2.44363V2.24456C11.0418 2.24456 11.5405 2.25776 12.0273 2.25776C12.3189 2.25776 12.5551 2.25775 12.7148 2.24456C12.7682 2.24326 12.821 2.23087 12.8694 2.20816C12.9178 2.18544 12.9608 2.15277 12.996 2.11249C13.135 1.85287 13.1869 1.55534 13.1438 1.26401C13.1431 0.928764 13.0096 0.607697 12.7724 0.370764C12.5352 0.133831 12.2138 0.00034849 11.8785 0H7.90707C7.67422 0.0262718 7.45137 0.109274 7.25799 0.241593C7.0646 0.373911 6.90651 0.551734 6.79767 0.759245C6.68884 0.966756 6.63262 1.19752 6.63371 1.43184C6.63481 1.66616 6.69302 1.89666 6.80379 2.10314C6.84738 2.15227 6.90146 2.19129 6.96196 2.21685C7.02245 2.24242 7.08801 2.25398 7.15362 2.251H8.76198V2.48325L8.6763 2.51224C6.75959 2.79623 4.97013 3.6423 3.53424 4.94331C2.09835 6.24432 1.08044 7.94205 0.60936 9.82154C0.13828 11.701 0.235155 13.6777 0.887675 15.5022C1.54019 17.3266 2.71895 18.9167 4.27512 20.0712C5.8313 21.2256 7.69482 21.8928 9.6301 21.9881C11.5654 22.0834 13.4857 21.6025 15.1478 20.6066C16.8098 19.6106 18.1392 18.1441 18.9678 16.3925C19.7964 14.641 20.0869 12.6833 19.8028 10.7667L19.8015 10.756ZM10.0746 19.5658C8.62267 19.5658 7.20349 19.1352 5.99623 18.3285C4.78897 17.5218 3.84797 16.3753 3.29233 15.0338C2.73669 13.6924 2.59127 12.2165 2.87453 10.7924C3.1578 9.36836 3.85693 8.06026 4.88362 7.03356C5.91031 6.00687 7.21841 5.30774 8.64247 5.02448C10.0665 4.74122 11.5428 4.88631 12.8842 5.44195C14.2256 5.99759 15.3722 6.9386 16.1789 8.14586C16.9855 9.35312 17.4161 10.7726 17.4161 12.2246C17.4165 13.1888 17.2267 14.1436 16.8579 15.0345C16.4891 15.9254 15.9484 16.735 15.2666 17.4169C14.5849 18.0988 13.7754 18.6395 12.8845 19.0085C11.9937 19.3775 11.0389 19.5659 10.0746 19.5658Z" fill="currentColor"/>
<path d="M12.3891 8.05513L9.85588 10.7165C9.76604 10.8113 9.6958 10.9228 9.64907 11.0448C9.60234 11.1667 9.57987 11.2966 9.58336 11.4271C9.58685 11.5577 9.61618 11.6863 9.66937 11.8056C9.72255 11.9249 9.79879 12.0324 9.89357 12.1223C9.98834 12.2121 10.0999 12.2827 10.2218 12.3294C10.3438 12.3761 10.4736 12.3983 10.6042 12.3948C10.7347 12.3913 10.8634 12.362 10.9827 12.3088C11.1019 12.2556 11.2095 12.1797 11.2993 12.0849L13.8312 9.4248C14.0038 9.23199 14.0946 8.97953 14.0841 8.72096C14.0736 8.4624 13.9628 8.21819 13.7752 8.03999C13.5875 7.86179 13.3378 7.76364 13.079 7.76651C12.8203 7.76938 12.5727 7.87282 12.3891 8.05513Z" fill="currentColor"/>
<path d="M2.56778 2.70735L0.427595 4.77612C0.2416 4.95591 0.236569 5.25243 0.416358 5.43843L1.12521 6.17174C1.305 6.35774 1.60152 6.36277 1.78752 6.18298L3.9277 4.11421C4.11369 3.93442 4.11873 3.63789 3.93894 3.4519L3.23009 2.71858C3.0503 2.53259 2.75377 2.52756 2.56778 2.70735Z" fill="currentColor"/>
</svg>
