<svg width="1em" height="1em" viewBox="0 0 32 32" fill="none" xmlns="http://www.w3.org/2000/svg">
<path d="M21.1375 13.4994H18.5735C17.8535 12.4834 17.2185 11.9834 16.6345 11.9714C15.8545 11.9554 13.7985 11.9634 12.3935 11.9714H11.2185C10.6805 11.9714 10.1085 12.4704 9.47249 13.4994H6.67449C6.31749 13.4994 5.97549 13.6414 5.72349 13.8944C5.47149 14.1464 5.32949 14.4884 5.32849 14.8454V23.2454C5.32849 23.6024 5.47149 23.9444 5.72349 24.1964C5.97549 24.4484 6.31749 24.5904 6.67449 24.5914H21.1385C21.4955 24.5914 21.8375 24.4484 22.0895 24.1954C22.3415 23.9424 22.4835 23.6014 22.4845 23.2444V14.8444C22.4845 14.4874 22.3415 14.1464 22.0885 13.8934C21.8365 13.6414 21.4945 13.5004 21.1375 13.4994ZM17.3695 18.7184C17.3695 19.4034 17.1665 20.0734 16.7855 20.6424C16.4045 21.2124 15.8645 21.6554 15.2315 21.9184C14.5985 22.1804 13.9025 22.2494 13.2305 22.1154C12.5585 21.9814 11.9415 21.6524 11.4575 21.1674C10.9735 20.6834 10.6435 20.0664 10.5095 19.3944C10.3755 18.7224 10.4445 18.0264 10.7065 17.3934C10.9685 16.7604 11.4125 16.2194 11.9815 15.8394C12.5515 15.4584 13.2205 15.2554 13.9055 15.2554C14.8235 15.2564 15.7035 15.6224 16.3535 16.2714C17.0025 16.9204 17.3675 17.8004 17.3695 18.7184ZM20.0095 16.5734C19.8565 16.5734 19.7075 16.5284 19.5805 16.4434C19.4535 16.3584 19.3545 16.2384 19.2965 16.0974C19.2385 15.9564 19.2225 15.8014 19.2525 15.6514C19.2825 15.5014 19.3555 15.3644 19.4635 15.2564C19.5715 15.1484 19.7085 15.0754 19.8585 15.0454C20.0085 15.0154 20.1635 15.0314 20.3045 15.0894C20.4455 15.1474 20.5655 15.2464 20.6505 15.3734C20.7355 15.5004 20.7805 15.6494 20.7805 15.8024C20.7805 16.0064 20.6995 16.2024 20.5555 16.3464C20.4115 16.4914 20.2165 16.5724 20.0125 16.5734H20.0095Z" fill="currentColor"/>
<path d="M13.9065 21.2275C15.2925 21.2275 16.4155 20.1045 16.4155 18.7185C16.4155 17.3325 15.2925 16.2095 13.9065 16.2095C12.5205 16.2095 11.3975 17.3325 11.3975 18.7185C11.3975 20.1045 12.5205 21.2275 13.9065 21.2275Z" fill="currentColor"/>
<path d="M8.7465 13.2754H6.9245C6.8355 13.2754 6.7495 13.2404 6.6865 13.1774C6.6235 13.1144 6.5885 13.0294 6.5885 12.9394C6.5885 12.8494 6.6235 12.7644 6.6865 12.7014C6.7495 12.6384 6.8345 12.6034 6.9245 12.6034H8.7465C8.8355 12.6034 8.9215 12.6384 8.9845 12.7014C9.0475 12.7644 9.0835 12.8494 9.0835 12.9394C9.0835 13.0294 9.0475 13.1144 8.9845 13.1774C8.9215 13.2404 8.8355 13.2754 8.7465 13.2754Z" fill="currentColor"/>
<path d="M26.0455 9.62745H24.4785V8.06145C24.4825 7.97745 24.4685 7.89245 24.4395 7.81345C24.4095 7.73445 24.3645 7.66245 24.3055 7.60145C24.2475 7.54045 24.1775 7.49145 24.0995 7.45845C24.0215 7.42545 23.9385 7.40845 23.8535 7.40845C23.7685 7.40845 23.6855 7.42545 23.6075 7.45845C23.5295 7.49145 23.4595 7.54045 23.4015 7.60145C23.3435 7.66245 23.2975 7.73445 23.2675 7.81345C23.2375 7.89245 23.2245 7.97645 23.2285 8.06145V9.62745H21.6615C21.4955 9.62745 21.3365 9.69345 21.2195 9.81045C21.1025 9.92745 21.0365 10.0864 21.0365 10.2524C21.0365 10.4184 21.1025 10.5774 21.2195 10.6944C21.3365 10.8114 21.4955 10.8774 21.6615 10.8774H23.2285V12.4444C23.2355 12.6054 23.3045 12.7574 23.4205 12.8684C23.5365 12.9794 23.6915 13.0424 23.8525 13.0424C24.0135 13.0424 24.1685 12.9804 24.2845 12.8684C24.4005 12.7574 24.4695 12.6054 24.4765 12.4444V10.8774H26.0435C26.2095 10.8774 26.3685 10.8114 26.4855 10.6944C26.6025 10.5774 26.6685 10.4184 26.6685 10.2524C26.6685 10.0864 26.6025 9.92745 26.4855 9.81045C26.3685 9.69345 26.2095 9.62745 26.0435 9.62745H26.0455Z" fill="currentColor"/>
</svg>
