<svg width="1em" height="1em" viewBox="0 0 32 32" fill="none" xmlns="http://www.w3.org/2000/svg">
<path d="M22.808 13.5372H20.244C19.524 12.5212 18.889 12.0212 18.305 12.0092C17.525 11.9932 15.469 12.0012 14.064 12.0092H12.889C12.351 12.0092 11.779 12.5082 11.143 13.5372H8.346C7.989 13.5372 7.647 13.6792 7.395 13.9322C7.143 14.1842 7.001 14.5262 7 14.8832V23.2832C7 23.6402 7.143 23.9822 7.395 24.2342C7.647 24.4862 7.989 24.6282 8.346 24.6292H22.81C23.167 24.6292 23.509 24.4862 23.761 24.2332C24.013 23.9802 24.155 23.6392 24.156 23.2822V14.8822C24.156 14.5252 24.013 14.1842 23.76 13.9312C23.508 13.6792 23.166 13.5372 22.809 13.5362L22.808 13.5372ZM19.04 18.7552C19.04 19.4402 18.837 20.1102 18.456 20.6792C18.075 21.2492 17.535 21.6922 16.902 21.9552C16.269 22.2172 15.573 22.2862 14.901 22.1522C14.229 22.0182 13.612 21.6892 13.128 21.2042C12.644 20.7202 12.314 20.1032 12.18 19.4312C12.046 18.7592 12.115 18.0632 12.377 17.4302C12.639 16.7972 13.083 16.2562 13.652 15.8762C14.222 15.4952 14.891 15.2922 15.576 15.2922C16.494 15.2932 17.374 15.6592 18.024 16.3082C18.673 16.9572 19.038 17.8372 19.04 18.7552ZM21.68 16.6112C21.527 16.6112 21.378 16.5662 21.251 16.4812C21.124 16.3962 21.025 16.2762 20.967 16.1352C20.909 15.9942 20.893 15.8392 20.923 15.6892C20.953 15.5392 21.026 15.4022 21.134 15.2942C21.242 15.1862 21.379 15.1132 21.529 15.0832C21.679 15.0532 21.834 15.0692 21.975 15.1272C22.116 15.1852 22.236 15.2842 22.321 15.4112C22.406 15.5382 22.451 15.6872 22.451 15.8402C22.451 16.0442 22.37 16.2402 22.226 16.3842C22.082 16.5292 21.887 16.6102 21.683 16.6112H21.68Z" fill="currentColor"/>
<path d="M15.577 21.2652C16.963 21.2652 18.086 20.1422 18.086 18.7562C18.086 17.3702 16.963 16.2472 15.577 16.2472C14.191 16.2472 13.068 17.3702 13.068 18.7562C13.068 20.1422 14.191 21.2652 15.577 21.2652Z" fill="currentColor"/>
<path d="M10.417 13.3123H8.59503C8.50603 13.3123 8.42003 13.2773 8.35703 13.2143C8.29403 13.1513 8.25903 13.0663 8.25903 12.9763C8.25903 12.8863 8.29403 12.8013 8.35703 12.7383C8.42003 12.6753 8.50503 12.6403 8.59503 12.6403H10.417C10.506 12.6403 10.592 12.6753 10.655 12.7383C10.718 12.8013 10.754 12.8863 10.754 12.9763C10.754 13.0663 10.718 13.1513 10.655 13.2143C10.592 13.2773 10.506 13.3123 10.417 13.3123Z" fill="currentColor"/>
</svg>
