<svg width="1em" height="1em" viewBox="0 0 32 32" fill="none" xmlns="http://www.w3.org/2000/svg">
<path d="M23.808 10.5372H21.244C20.524 9.52124 19.889 9.02124 19.305 9.00924C18.525 8.99324 16.469 9.00124 15.064 9.00924H13.889C13.351 9.00924 12.779 9.50824 12.143 10.5372H9.346C8.989 10.5372 8.647 10.6792 8.395 10.9322C8.143 11.1842 8.001 11.5262 8 11.8832V20.2832C8 20.6402 8.143 20.9822 8.395 21.2342C8.647 21.4862 8.989 21.6282 9.346 21.6292H23.81C24.167 21.6292 24.509 21.4862 24.761 21.2332C25.013 20.9802 25.155 20.6392 25.156 20.2822V11.8822C25.156 11.5252 25.013 11.1842 24.76 10.9312C24.508 10.6792 24.166 10.5372 23.809 10.5362L23.808 10.5372ZM20.04 15.7552C20.04 16.4402 19.837 17.1102 19.456 17.6792C19.075 18.2492 18.535 18.6922 17.902 18.9552C17.269 19.2172 16.573 19.2862 15.901 19.1522C15.229 19.0182 14.612 18.6892 14.128 18.2042C13.644 17.7202 13.314 17.1032 13.18 16.4312C13.046 15.7592 13.115 15.0632 13.377 14.4302C13.639 13.7972 14.083 13.2562 14.652 12.8762C15.222 12.4952 15.891 12.2922 16.576 12.2922C17.494 12.2932 18.374 12.6592 19.024 13.3082C19.673 13.9572 20.038 14.8372 20.04 15.7552ZM22.68 13.6112C22.527 13.6112 22.378 13.5662 22.251 13.4812C22.124 13.3962 22.025 13.2762 21.967 13.1352C21.909 12.9942 21.893 12.8392 21.923 12.6892C21.953 12.5392 22.026 12.4022 22.134 12.2942C22.242 12.1862 22.379 12.1132 22.529 12.0832C22.679 12.0532 22.834 12.0692 22.975 12.1272C23.116 12.1852 23.236 12.2842 23.321 12.4112C23.406 12.5382 23.451 12.6872 23.451 12.8402C23.451 13.0442 23.37 13.2402 23.226 13.3842C23.082 13.5292 22.887 13.6102 22.683 13.6112H22.68Z" fill="currentColor"/>
<path d="M16.577 18.2652C17.963 18.2652 19.086 17.1422 19.086 15.7562C19.086 14.3702 17.963 13.2472 16.577 13.2472C15.191 13.2472 14.068 14.3702 14.068 15.7562C14.068 17.1422 15.191 18.2652 16.577 18.2652Z" fill="currentColor"/>
<path d="M11.417 10.3123H9.59503C9.50603 10.3123 9.42003 10.2773 9.35703 10.2143C9.29403 10.1513 9.25903 10.0663 9.25903 9.97626C9.25903 9.88626 9.29403 9.80126 9.35703 9.73826C9.42003 9.67526 9.50503 9.64026 9.59503 9.64026H11.417C11.506 9.64026 11.592 9.67526 11.655 9.73826C11.718 9.80126 11.754 9.88626 11.754 9.97626C11.754 10.0663 11.718 10.1513 11.655 10.2143C11.592 10.2773 11.506 10.3123 11.417 10.3123Z" fill="currentColor"/>
</svg>
