<svg xmlns="http://www.w3.org/2000/svg" viewBox="0 0 80 80">
<path d="M41.466 31.801c0-.252.028-.532.14-.812H41.55c-.952 0-1.876 2.296-1.876 4.452 0 1.568.56 2.8 1.484 2.8 1.26 0 1.96-2.016 1.988-3.947C42.026 33.79 41.466 32.893 41.466 31.801zM71.368 26.666c-.787-8.192-7.417-14.825-15.609-15.616-5.852-.565-11.165 1.779-14.703 5.744-.568.636-1.542.636-2.11 0-3.537-3.963-8.847-6.307-14.696-5.744-8.193.788-14.827 7.42-15.616 15.613-.22 2.281.002 4.481.589 6.527.688 2.395 1.998 4.566 3.632 6.447l24.479 28.182c1.408 1.621 3.924 1.621 5.332 0l24.48-28.182c1.634-1.881 2.945-4.051 3.632-6.447C71.364 31.145 71.586 28.945 71.368 26.666zM35.362 39.389c0 .644-1.092.924-1.624.924-1.148 0-2.408-.672-2.408-2.52 0-2.017.504-4.62.7-7.729-1.288 2.353-2.884 5.012-3.36 7.729-.056.392-.364.756-.952.756-2.464 0-2.828-5.124-4.368-8.4-.196 2.101-.364 4.368-.364 6.076 0 2.184.504 2.884.504 3.164 0 .504-1.008.84-1.736.84-.952 0-1.624-.588-1.624-2.436 0-2.576.812-6.133.812-10.444 0-2.324-.28-3.192-.28-3.612 0-.308.336-.504.896-.504 1.736 0 2.576.924 3.052 1.513 1.456 1.848 2.212 5.991 3.388 8.903 1.26-2.744 3.808-6.552 4.228-9.744.028-.308.14-.672.504-.672 1.988 0 3.22 1.064 3.22 2.38 0 1.988-1.204 8.177-1.204 11.396C34.745 38.857 35.362 39.109 35.362 39.389zM59.693 40.117c-1.96 0-2.576-1.483-2.576-2.939 0-1.736.728-3.08.728-4.396 0-.531-.28-.896-.7-.896-.588 0-1.204.784-1.68 1.792v.168c0 1.315-.168 3.528-.476 4.592-.28.924-.728 1.512-1.484 1.512-1.036 0-1.484-.756-1.484-1.735 0-.393.364-2.24.84-3.612V34.21c0-1.288-.196-2.296-.84-2.296-1.232 0-2.464 2.995-2.464 7.111 0 .561-.14 1.092-.868 1.092-.868 0-2.072-.812-2.072-2.659 0-.737.251-1.904.447-3.083-.531.19-1.119.301-1.707.311-.308 3.164-2.072 5.404-4.676 5.404-2.296 0-3.92-1.708-3.92-4.396 0-3.248 2.24-6.244 4.9-6.244.448 0 .868.084 1.232.28.056-.028.14-.028.224-.028 1.512 0 2.184 1.288 2.296 3.444h.336c.595 0 1.103-.168 1.518-.429.011-.168.022-.337.022-.495 0-1.344-.224-1.708-.224-2.128 0-.28.308-.393.644-.393.868 0 1.848.784 2.184 2.156.644-1.315 1.624-2.38 3.052-2.38 1.204 0 1.96.896 2.296 2.269.84-1.4 2.128-2.408 3.472-2.408 1.092 0 2.016.896 2.016 2.408 0 2.016-.728 3.499-.728 4.647 0 2.184 1.008 2.604 1.008 2.94C61.009 39.754 60.449 40.117 59.693 40.117zM64.231 26.221c-.045.004-.091.006-.135.006-.766 0-1.418-.582-1.492-1.357-.02-.187-.49-4.2-4.855-6.314-.746-.36-1.057-1.258-.696-2.004.361-.744 1.258-1.059 2.004-.695 5.944 2.879 6.513 8.499 6.535 8.737C65.665 25.419 65.056 26.147 64.231 26.221z"/>
</svg>