<svg xmlns="http://www.w3.org/2000/svg" viewBox="0 0 80 80">
<path d="M78.246 26.447c-.16-.41-.62-.61-1.03-.45-41.87 16.4-74.04.48-74.36.32-.39-.21-.87-.05-1.07.35-.2.39-.05.87.35 1.07.21.11 3.61 1.81 9.56 3.55-.98 1.85-4.86 9.63-5.6 18.6-.03.33.14.64.44.78.29.15.64.1.89-.12l5.21-4.66 3.59 6.29c.15.26.42.41.7.41.09 0 .18-.02.27-.05.36-.13.58-.51.51-.89-.01-.07-1.08-6.53 3.12-17.96.03-.08.04-.16.04-.24.97.18 1.96.35 3 .5.98.15 2.02.29 3.1.42-.37 2.38-1.59 10.91-1.62 18.88 0 .32.19.61.48.74.1.04.21.07.32.07.2 0 .39-.08.54-.22l5.24-4.84 4.58 4.63c.25.25.64.31.95.14.31-.17.479-.52.41-.87-.02-.09-1.9-9.17-1.31-17.88.66.01 1.33.02 2.02.02 1.59 0 3.24-.04 4.93-.12.31 1.82 1.55 9.84.74 17.93-.03.34.15.66.45.8.11.06.23.08.35.08.2 0 .41-.08.56-.22l4.32-4.22 5.16 4.09c.24.18.56.22.83.1.27-.12.45-.39.47-.69.02-.45.49-10.73-2.53-18.89 1.48-.22 2.98-.47 4.5-.77 2.59 7.63 4.59 16.18 4.61 16.27.08.34.38.59.74.61h.04c.34 0 .64-.21.75-.53l2.08-5.83 4.89 3.73c.25.19.6.21.88.05.28-.16.44-.47.39-.79-.86-6.79-4.61-13.26-5.99-15.47 3.59-.99 7.28-2.2 11.05-3.68C78.207 27.328 78.407 26.868 78.246 26.447z"/>
</svg>