<svg xmlns="http://www.w3.org/2000/svg" viewBox="0 0 80 80">
<path d="M72.861 26.524C72 17.559 64.868 10.424 55.902 9.558 49.851 8.977 44.059 11.219 40 15.724c-4.058-4.502-9.845-6.755-15.895-6.167C15.138 10.419 8.003 17.553 7.139 26.52c-.232 2.41-.016 4.793.641 7.084.705 2.457 2.031 4.818 3.941 7.017l24.479 28.182c.956 1.101 2.34 1.732 3.798 1.732 1.458 0 2.843-.632 3.799-1.732l24.48-28.182c1.911-2.2 3.236-4.561 3.941-7.016C72.876 31.316 73.092 28.933 72.861 26.524zM69.336 32.777c-.583 2.032-1.701 4.009-3.322 5.877l-24.48 28.182c-.783.902-2.284.902-3.067 0l-24.48-28.182c-1.621-1.866-2.739-3.844-3.323-5.878-.553-1.927-.734-3.935-.538-5.969.714-7.418 6.848-13.55 14.267-14.264.529-.051 1.056-.076 1.58-.076 4.537 0 8.79 1.894 11.854 5.326 1.109 1.242 3.238 1.242 4.348 0 3.419-3.831 8.318-5.742 13.44-5.249l0 0c7.417.716 13.548 6.85 14.26 14.267C70.07 28.844 69.889 30.851 69.336 32.777zM28.178 24.234c-3.332 0-6.048 1.568-6.048 2.8 0 .561.336.757.476.757.14 0 .504-.196 1.008-.421-.56 2.437-1.288 7.673-1.288 11.032 0 2.156 2.072 2.884 4.844 2.884 4.536 0 8.344-3.332 8.344-9.38C35.514 27.622 32.937 24.234 28.178 24.234zM27.366 39.354c-.56 0-1.064-.028-1.568-.168-.084-.336-.112-.756-.112-1.372 0-2.828.784-9.324 1.064-11.284.112 0 .224-.027.336-.027 2.856 0 5.068 2.296 5.068 5.768C32.154 37.226 29.661 39.354 27.366 39.354zM53.545 23.366c-.56 0-.896.196-.896.505 0 .42.588 1.371.588 4.06 0 1.147-.028 2.072-.056 2.884-.392-.224-.896-.364-1.484-.364-2.66 0-4.928 3.36-4.928 6.776 0 .079.015.143.018.219-.325.865-.829 1.46-1.529 1.46-.532 0-.924-.336-.924-1.288 0-1.008.476-1.903.476-3.023 0-.616-.224-.84-.504-.924.112-.252.168-.561.168-.924 0-1.484-1.204-2.297-2.828-2.297-3.052 0-5.264 3.36-5.264 6.889 0 2.744 1.708 3.752 3.248 3.752 1.12 0 2.044-.7 2.66-1.624.504.868 1.372 1.288 2.296 1.288 1.285 0 2.099-.712 2.591-1.533.594 1.294 1.753 1.869 2.841 1.869 1.12 0 2.044-.616 2.744-1.4.364.812 1.064 1.428 2.324 1.428.756 0 1.316-.363 1.316-.783 0-.336-1.092-.673-1.092-3.248 0-3.893 1.316-8.036 1.316-11.368C56.625 24.402 55.533 23.366 53.545 23.366zM40.329 39.018c-.868 0-1.26-1.316-1.26-2.632 0-1.933.952-4.256 2.044-4.256.308 0 .504.279.504.672 0 .868-.504 1.428-.504 1.792 0 .336.42.476.924.476h.224C42.094 37.786 41.225 39.018 40.329 39.018zM50.857 39.018c-.784 0-1.344-.896-1.344-2.464 0-2.044.98-4.396 1.932-4.396.28 0 .476.28.476.729 0 .616-.42 1.12-.42 1.68 0 .448.336.672.756.672.168 0 .364-.027.532-.084C52.481 37.758 51.809 39.018 50.857 39.018zM59.056 15.857c-.745-.362-1.643-.049-2.003.695-.361.746-.05 1.644.696 2.004 4.365 2.115 4.836 6.129 4.855 6.314.074.775.727 1.357 1.492 1.357.045 0 .09-.002.136-.006.825-.074 1.434-.803 1.36-1.628C65.57 24.356 65.001 18.736 59.056 15.857z"/>
</svg>