<svg xmlns="http://www.w3.org/2000/svg" viewBox="0 0 80 80">
<path d="M70.093 30.21c0-11.927-8.067-21.632-17.983-21.632C42.194 8.578 34.126 18.283 34.126 30.21c0 5.495 2.127 10.812 5.989 14.974 2.894 3.118 6.442 5.178 9.836 5.817-1.265 1.035-2.03 2.529-2.077 2.624-.082.164-.092.356-.026.527.065.172.199.309.37.377.913.365 1.953.522 2.981.567l.382-.01c.053.068.104.141.148.224.481.889.268 2.455-.6 4.407-1.626 3.657-.725 5.208.068 6.576.674 1.16 1.256 2.163.437 5.008-.998 3.463-1.079 5.98-.243 7.478.496.888 1.149 1.129 1.337 1.181C52.825 79.988 52.921 80 53.015 80c.465 0 .892-.307 1.023-.777.147-.529-.132-1.075-.631-1.273-.113-.099-1.138-1.174.27-6.061 1.07-3.715.121-5.349-.641-6.661-.668-1.151-1.149-1.98.035-4.647 1.007-2.266 1.273-4.136.812-5.585 1.4-.158 2.436-.416 2.528-.44.199-.051.362-.192.442-.38.08-.189.067-.403-.033-.581-.667-1.175-1.368-2.06-2.1-2.657C62.432 49.35 70.093 41.019 70.093 30.21zM41.333 35.496c-.897 0-1.625-.727-1.625-1.624 0-.897.727-1.625 1.625-1.625.898 0 1.625.727 1.625 1.625C42.958 34.769 42.23 35.496 41.333 35.496zM48.734 16.388c-3.757 2.6-5.99 6.745-6.315 11.255-.055.762-.6 1.409-1.408 1.409-.722 0-1.463-.649-1.409-1.409.195-2.697.88-5.326 2.188-7.704 1.332-2.42 3.26-4.418 5.522-5.984.629-.435 1.565-.113 1.928.505C49.644 15.153 49.359 15.956 48.734 16.388zM32.665 30.21c0-7.443 2.983-14.07 7.6-18.296-3.149-4.566-7.899-7.48-13.205-7.48-9.459 0-17.154 9.256-17.154 20.633 0 5.241 2.029 10.314 5.713 14.283 2.761 2.975 6.146 4.939 9.384 5.549-1.207.987-1.937 2.413-1.982 2.503-.079.157-.088.34-.026.503.062.163.191.294.353.359.81.324 1.725.472 2.637.527.11.081.233.145.377.168.026.004.646.111.964.699.4.741.223 2.044-.5 3.669-1.354 3.045-.604 4.335.057 5.475.561.967 1.046 1.802.363 4.171-.83 2.884-.898 4.979-.202 6.226.413.74.957.94 1.114.983.083.024.168.034.252.034.395 0 .779-.243.886-.631.131-.47-.095-.94-.566-1.071-.01-.007-1.014-.78.217-5.052.891-3.094.101-4.455-.534-5.548-.556-.958-.957-1.648.03-3.869.99-2.226 1.129-4 .415-5.272-.015-.026-.033-.046-.048-.071 1.306-.151 2.267-.391 2.353-.413.189-.049.345-.182.421-.362.077-.181.064-.385-.032-.555-.632-1.114-1.297-1.955-1.99-2.527 2.178-.453 4.35-1.465 6.33-2.94C33.804 38.341 32.665 34.328 32.665 30.21zM16.229 30.11c-.865 0-1.565-.701-1.565-1.565 0-.865.701-1.566 1.565-1.566.865 0 1.565.701 1.565 1.566C17.795 29.409 17.094 30.11 16.229 30.11zM23.84 11.883c-3.583 2.48-5.713 6.434-6.023 10.736-.052.726-.573 1.343-1.343 1.343-.689 0-1.396-.619-1.343-1.343.186-2.572.839-5.081 2.087-7.348 1.271-2.308 3.11-4.215 5.268-5.708.599-.415 1.493-.108 1.838.482C24.709 10.705 24.436 11.471 23.84 11.883z"/>
</svg>