<svg xmlns="http://www.w3.org/2000/svg" viewBox="0 0 80 80">
<path d="M78.302 29.482c-.11-.428-.546-.69-.974-.575-38.807 9.965-74.281.069-74.635-.031-.425-.118-.867.125-.989.55-.121.425.125.867.549.989.07.02 1.501.419 4.038.971C6.25 31.51 6.229 31.64 6.255 31.777l2.978 15.867c.056.301.279.543.575.624.07.02.141.028.211.028.227 0 .447-.097.602-.272l12.297-14.016c.491.052.989.102 1.494.15.001.095.014.191.051.285l6.442 16.207c.114.286.383.482.691.502.017.002.035.002.052.002.289 0 .557-.156.699-.41l8.623-15.47c.059-.105.086-.218.094-.331.483-.001.98-.014 1.469-.019.006.113.031.226.087.333l8.168 15.47c.139.264.413.427.708.427.018 0 .037 0 .055-.002.316-.021.589-.228.697-.525l5.996-16.53c.013-.036.009-.073.016-.109.306-.034.614-.075.921-.111.024.046.038.095.072.137L69.756 47c.154.19.384.297.622.297.06 0 .121-.007.181-.021.298-.069.531-.304.599-.603l3.504-15.47c.002-.008-.001-.015.001-.022 1.02-.236 2.038-.462 3.062-.726C78.154 30.347 78.411 29.91 78.302 29.482zM10.501 45.733l-2.63-14.014c3.21.656 7.682 1.441 13.105 2.074L10.501 45.733zM31.768 48.494l-5.635-14.178c4.036.347 8.462.584 13.19.624L31.768 48.494zM51.358 48.384 44.24 34.903c3.937-.084 8.047-.324 12.278-.746L51.358 48.384zM69.962 44.711 61.006 33.64c3.905-.508 7.886-1.167 11.928-2.049L69.962 44.711z"/>
</svg>