<svg xmlns="http://www.w3.org/2000/svg" viewBox="0 0 80 80">
<path d="M69.266 39.264c-1.471-3.821-3.755-6.909-6.344-9.403.922-2.385.948-4.994.01-7.338-1.603-4.01-4.474-5.698-7.525-6.365-.843-3.142-3.444-2.307-5.397-2.423.004-1.52.435-5.629 4.548-9.742.265-.264.265-.695 0-.959-.265-.265-.695-.265-.961 0-4.213 4.212-4.89 8.4-4.948 10.363-3.267-1.36-6.713-.518-7.109 3.778-4.118 1.486-7.446 4.304-7.446 8.909 0 1.292.221 2.497.641 3.606l-22.312 21.79c-.174.17-.272.403-.272.648v21.096c0 .274.124.534.338.706.162.13.363.199.567.199.065 0 .131-.007.196-.021l55.365-12.233c.415-.092.71-.46.71-.884V39.589C69.327 39.477 69.306 39.368 69.266 39.264zM61.251 23.195c1.046 2.615.657 5.524-1.067 7.979-2.149 3.06-6.008 4.833-10.317 4.648-8.611-.297-13.962-4.028-13.962-9.738 0-.192.014-.377.029-.562 1.067 2.567 2.992 5.218 7.037 6.836 1.509.605 3.945 1.162 6.46 1.162 3.431 0 7.013-1.037 8.598-4.404 2.085-4.433-.814-7.717-2.47-9.132.083-.419.131-.858.131-1.318 0-.203-.017-.37-.024-.557C58.088 18.785 60.071 20.245 61.251 23.195zM52.192 26.224c-.213.622-.777 1.048-1.725 1.3-3.914 1.046-7.047-.264-8.419-2.022-.747-.958-.929-2.004-.489-2.798.248-.446.557-.818.893-1.142 1.226 2.122 3.515 3.554 6.142 3.554 1.268 0 2.455-.269 3.485-.76C52.29 25.012 52.378 25.678 52.192 26.224zM44.642 14.736c0 0-.398 1.954-.219 4.092l0 0v0c.039.457.104.921.206 1.378 0 0 0 .001 0 .001l0 0c.205.924.555 1.812 1.136 2.52 0 0-1.209-.792-2.004-2.126-.104-.175-.2-.361-.287-.554-.008-.018-.017-.034-.025-.052-.09-.207-.167-.424-.227-.651l0 0c-.104-.399-.15-.828-.124-1.282.007-.113.022-.229.04-.346.011-.076.026-.153.041-.231.059-.29.145-.589.274-.896l0 0C43.7 15.998 44.074 15.381 44.642 14.736zM41.589 19.088c.061.403.152.795.277 1.172-.564.474-1.086 1.051-1.493 1.785-.714 1.286-.488 2.889.605 4.291 1.254 1.608 3.688 2.915 6.77 2.915.965 0 1.994-.128 3.07-.415 1.401-.374 2.296-1.105 2.661-2.176.331-.971.137-2.06-.214-3.024.787-.597 1.423-1.357 1.844-2.26 1.401 1.314 3.254 3.843 1.693 7.16-2.339 4.972-10.13 3.839-13.324 2.561-4.517-1.807-6.06-4.957-6.907-7.88C37.51 21.329 39.371 19.982 41.589 19.088zM35.593 31.382c2.349 3.722 7.354 6.014 14.211 6.251.192.007.382.01.573.01 4.694 0 8.883-2.004 11.288-5.429.14-.199.254-.409.38-.614 2.091 2.083 3.937 4.575 5.214 7.557L15.671 50.839 35.593 31.382zM67.515 60.263 13.961 72.096v-6.147l53.554-11.832V60.263zM67.515 47.43 13.961 58.988v-6.369L67.515 40.49V47.43z"/>
</svg>