<svg xmlns="http://www.w3.org/2000/svg" viewBox="0 0 80 80">
<path d="M37.358 6.298c-.457.065-.776.489-.711.946l1.195 8.428c.06.417.417.719.827.719.039 0 .079-.002.118-.008.457-.065.775-.489.711-.946l-1.195-8.428C38.238 6.552 37.816 6.23 37.358 6.298zM44.269 18.572c.25 0 .498-.112.663-.326l4.031-5.225c.282-.366.215-.891-.151-1.174-.366-.281-.891-.214-1.173.152l-4.031 5.225c-.282.366-.215.891.151 1.174C43.911 18.515 44.09 18.572 44.269 18.572zM34.007 19.52c.163.163.377.245.592.245.215 0 .428-.082.592-.245.327-.327.327-.856 0-1.183l-5.89-5.89c-.327-.327-.856-.327-1.183 0-.327.327-.327.856 0 1.183L34.007 19.52zM77.406 63.246c-.092-.431-.502-.722-.935-.653L70.17 63.49c-4.51-6.321-2.569-10.977-2.158-11.808.628-.37 1.23-.788 1.794-1.262 2.398-2.016 4.018-4.558 4.815-7.555.677-2.561.644-5.73-.099-9.42l-.258-1.178c-1.735-7.51-5.563-14.51-5.733-14.819-.188-.342-.587-.509-.962-.4l-24.065 6.876c-.377.107-.628.461-.606.852.021.364.541 8.821 3.271 16.285l.176.489c.002.004.003.008.004.013.001.001.001.001.001.001 1.345 3.515 2.998 6.199 4.911 7.977 2.271 2.112 5.004 3.407 8.125 3.853.613.086 1.227.128 1.838.13.002.001.003.004.006.005.215.113 5.153 2.816 4.581 11.217l-5.817 2.594c-.401.18-.596.638-.445 1.051.123.337.442.55.785.55.076 0 .155-.011.232-.033l16.253-4.681C77.242 64.104 77.499 63.676 77.406 63.246zM49.116 41.379l1.805-.52c2.306 7.584 8.134 9.571 8.134 9.571C51.553 49.841 49.116 41.379 49.116 41.379zM58.894 36.851c-6.192 0-9.781 1.893-11.374 3.021-2.044-5.907-2.728-12.454-2.901-14.526l22.758-6.503c.981 1.893 4.027 8.082 5.382 14.348C71.139 34.091 65.632 36.851 58.894 36.851zM38.871 29.844l-23.602-8.329c-.369-.134-.779.012-.987.344-.18.287-4.035 6.492-6.268 13.503l-.638 2.181c-.939 3.646-1.146 6.791-.615 9.348.628 3.036 2.107 5.676 4.394 7.846.446.422.925.798 1.418 1.151.004.009.003.018.008.027.109.216 2.571 5.28-2.76 11.798L3.576 66.46c-.429-.083-.855.175-.971.599-.116.425.115.866.53 1.011l15.962 5.594c.091.033.184.048.277.048.326 0 .632-.191.768-.506.173-.403.005-.872-.385-1.074L14.1 69.213c-.017-7.762 4.258-10.435 5.078-10.876.372.032.746.054 1.121.054.356 0 .715-.014 1.072-.044 3.124-.256 5.916-1.39 8.3-3.371 2.034-1.694 3.842-4.298 5.373-7.736l.219-.514c3.133-7.276 4.118-15.638 4.159-15.998C39.468 30.34 39.238 29.973 38.871 29.844zM9.578 41.835l1.863 1.428c-.868 7.879 3.708 10.806 3.708 10.806C8.486 50.574 9.578 41.835 9.578 41.835zM33.97 45.492c-1.943-1.595-6.925-4.824-14.61-3.855-6.978.87-9.684-2.955-10.28-3.987 1.686-6.285 5.169-12.461 6.275-14.332l22.32 7.877C37.387 33.246 36.341 39.723 33.97 45.492z"/>
</svg>