<svg xmlns="http://www.w3.org/2000/svg" viewBox="0 0 80 80">
<path d="M54.632 32.255H25.125c-.271 0-.526.129-.685.349-.159.22-.204.503-.121.76l13.622 41.944c.312.96 1.163 1.579 2.172 1.579.004 0 .008 0 .012 0 1.014-.005 1.865-.634 2.169-1.602L55.44 33.356c.081-.258.034-.538-.125-.755C55.155 32.383 54.901 32.255 54.632 32.255zM53.478 33.95l-.759 2.423c-.494-.125-.978-.193-1.478-.193-1.509 0-2.653.554-3.662 1.042-.724.35-1.35.653-1.937.653-.752 0-1.416-.325-2.184-.699-.955-.467-2.038-.995-3.503-.995-1.509 0-2.654.554-3.662 1.042-.725.35-1.35.653-1.938.653-.751 0-1.415-.325-2.184-.699-.955-.467-2.037-.995-3.503-.995-.529 0-1.045.074-1.58.215l-.794-2.445H53.478zM48.718 49.128c-.408.164-.796.341-1.14.507-.725.351-1.35.654-1.938.654-.752 0-1.416-.325-2.184-.699-.955-.467-2.038-.995-3.503-.995-1.509 0-2.654.554-3.662 1.042-.725.35-1.35.653-1.938.653-.752 0-1.415-.325-2.184-.699-.3-.146-.612-.291-.937-.428l-1.016-3.128c.4-.149.788-.332 1.169-.516.887-.428 1.804-.872 2.924-.872 1.074 0 1.892.4 2.759.824.877.428 1.785.871 2.928.871.976 0 1.84-.418 2.675-.823.887-.428 1.803-.872 2.925-.872 1.073 0 1.892.4 2.759.824.427.208.862.419 1.327.581L48.718 49.128zM43.454 65.917c-.555.195-1.069.43-1.52.648-.724.351-1.35.654-1.938.654-.751 0-1.414-.324-2.182-.699-.349-.17-.715-.342-1.107-.498l-.977-3.007c.447-.156.876-.362 1.297-.566.887-.429 1.804-.873 2.925-.873 1.073 0 1.892.4 2.759.824.518.253 1.054.5 1.635.669L43.454 65.917zM43.456 60.876c-.955-.467-2.038-.995-3.503-.995-1.509 0-2.654.554-3.663 1.042-.386.187-.744.356-1.083.478l-1.747-5.38c.286-.056.566-.087.85-.087 1.074 0 1.892.4 2.759.824.877.428 1.785.871 2.928.871.976 0 1.84-.418 2.675-.823.887-.428 1.803-.872 2.925-.872.319 0 .632.047.95.119l-1.693 5.401C44.397 61.326 43.948 61.117 43.456 60.876zM45.597 54.238c-1.51 0-2.654.554-3.663 1.042-.725.35-1.35.653-1.937.653-.752 0-1.415-.325-2.184-.699-.955-.467-2.038-.995-3.503-.995-.455 0-.911.071-1.371.176l-.992-3.054c.722.335 1.487.623 2.407.623.976 0 1.84-.418 2.675-.823.887-.428 1.803-.872 2.925-.872 1.073 0 1.892.4 2.759.824.877.428 1.784.871 2.928.871.869 0 1.648-.333 2.399-.692l-.987 3.149C46.568 54.32 46.089 54.238 45.597 54.238zM49.1 43.946c-.955-.467-2.038-.995-3.503-.995-1.51 0-2.654.554-3.663 1.042-.725.35-1.35.653-1.937.653-.752 0-1.415-.325-2.184-.699-.955-.467-2.038-.995-3.503-.995-1.509 0-2.653.554-3.662 1.042-.338.163-.653.313-.954.43l-2.081-6.406c.358-.086.707-.143 1.054-.143 1.073 0 1.892.4 2.759.824.877.428 1.785.871 2.928.871.976 0 1.84-.418 2.675-.823.887-.428 1.803-.872 2.925-.872 1.073 0 1.892.4 2.759.824.877.428 1.784.871 2.928.871.976 0 1.84-.418 2.675-.823.887-.428 1.803-.872 2.924-.872.324 0 .644.047.969.123l-2.018 6.436C49.837 44.305 49.481 44.132 49.1 43.946zM40.675 74.778c-.12.384-.483.394-.562.413-.104 0-.438-.03-.56-.407l-2.135-6.576c.772.368 1.584.705 2.579.705.976 0 1.841-.418 2.676-.823.038-.018.078-.036.117-.055L40.675 74.778zM57.915 13.91c.048.008.094.011.141.011.407 0 .766-.294.835-.708l.341-2.05c.077-.462-.235-.899-.696-.976-.465-.085-.899.235-.976.696l-.341 2.05C57.141 13.396 57.454 13.833 57.915 13.91zM56.739 15.811l-.341 2.05c-.077.462.235.899.696.976.048.008.094.011.141.011.407 0 .766-.294.835-.708l.341-2.05c.078-.462-.235-.899-.696-.976C57.251 15.034 56.816 15.35 56.739 15.811zM58.417 14.612c-.077.462.235.899.697.976l2.05.341c.048.008.094.011.141.011.407 0 .766-.294.835-.708.077-.462-.235-.899-.697-.976l-2.05-.341C58.931 13.83 58.494 14.152 58.417 14.612zM54.187 14.767l2.05.341c.048.008.094.011.141.011.407 0 .766-.294.835-.708.077-.462-.235-.899-.697-.976l-2.05-.341c-.461-.086-.898.236-.975.696C53.413 14.254 53.725 14.691 54.187 14.767zM32.078 17.566c.086.397.437.668.828.668.059 0 .119-.006.18-.019.457-.099.748-.55.649-1.008l-.366-1.691c-.099-.457-.547-.74-1.008-.65-.457.099-.748.55-.649 1.008L32.078 17.566zM33.785 22.297c.059 0 .12-.006.18-.019.458-.099.749-.55.65-1.008l-.366-1.691c-.099-.457-.55-.742-1.008-.65-.457.099-.748.55-.649 1.008l.366 1.691C33.044 22.026 33.395 22.297 33.785 22.297zM33.521 18.495c.086.397.437.668.828.668.059 0 .119-.006.18-.019l1.691-.365c.457-.099.748-.55.649-1.008-.099-.458-.549-.744-1.007-.65l-1.691.365C33.713 17.587 33.422 18.038 33.521 18.495zM30.286 20.043c.059 0 .119-.006.18-.019l1.691-.365c.458-.099.749-.55.649-1.008-.098-.457-.549-.743-1.007-.65l-1.691.365c-.458.099-.749.55-.649 1.008C29.544 19.772 29.895 20.043 30.286 20.043zM47.756 12.427c.095.034.193.051.29.051.347 0 .671-.213.797-.557l.593-1.625c.16-.44-.066-.927-.506-1.087-.439-.157-.926.066-1.087.506L47.25 11.34C47.09 11.779 47.316 12.267 47.756 12.427zM46.622 16.383c.346 0 .671-.213.796-.557l.593-1.625c.16-.44-.066-.927-.506-1.087-.44-.156-.926.066-1.086.506l-.593 1.625c-.16.44.066.927.506 1.087C46.427 16.367 46.525 16.383 46.622 16.383zM47.975 12.896c-.16.44.066.927.506 1.087l1.624.593c.096.034.195.051.291.051.346 0 .67-.213.796-.557.161-.44-.066-.927-.505-1.087l-1.625-.593C48.621 12.233 48.135 12.456 47.975 12.896zM44.575 12.559l1.625.592c.096.034.193.051.29.051.347 0 .671-.213.797-.558.16-.44-.066-.926-.506-1.086l-1.625-.592c-.44-.157-.927.066-1.086.507C43.909 11.913 44.135 12.399 44.575 12.559zM24.032 15.067c.025 0 .051-.001.076-.003.466-.041.811-.453.769-.92l-.185-2.07c-.042-.466-.455-.796-.919-.769-.467.041-.811.453-.769.92l.185 2.07C23.228 14.736 23.597 15.067 24.032 15.067zM24.216 16.281c-.466.041-.81.453-.769.92l.184 2.07c.039.441.409.772.843.772.025 0 .051-.001.077-.003.466-.041.81-.453.769-.92l-.184-2.07C25.094 16.583 24.681 16.247 24.216 16.281zM25.613 16.391c.025 0 .051-.001.076-.003l2.07-.184c.466-.041.81-.453.769-.92-.041-.467-.457-.812-.919-.769l-2.07.184c-.467.041-.811.453-.769.92C24.809 16.06 25.179 16.391 25.613 16.391zM20.638 16.833c.025 0 .051-.001.076-.003l2.07-.184c.467-.041.811-.453.77-.92-.042-.467-.457-.819-.92-.769l-2.07.184c-.466.041-.811.453-.769.92C19.834 16.502 20.204 16.833 20.638 16.833zM39.537 28.766c.072 0 .146-.009.219-.028.453-.121.722-.586.601-1.038-.016-.061-1.61-6.217.976-11.388 3.368-6.735.465-12.38.339-12.617-.218-.412-.729-.57-1.143-.353-.413.217-.573.728-.357 1.143.108.207 2.61 5.138-.355 11.069-2.869 5.738-1.171 12.304-1.098 12.582C38.82 28.516 39.163 28.766 39.537 28.766zM24.341 27.861c-.099.457.189.908.646 1.009.062.013.123.02.183.02.389 0 .74-.269.827-.664.013-.058 1.202-5.788-4.733-8.275-4.654-1.952-5.366-7.206-5.373-7.259-.058-.465-.483-.788-.945-.737-.464.057-.794.478-.737.943.031.255.823 6.276 6.4 8.616C25.206 23.44 24.384 27.661 24.341 27.861zM64.951 11.949c-.001 0-.001 0-.002 0-.467 0-.845.378-.847.845-.001.26-.082 6.392-5.211 8.193-4.909 1.724-6.663 7.405-6.735 7.646-.134.448.12.919.567 1.054.081.024.164.036.245.036.364 0 .7-.237.811-.603.016-.051 1.588-5.099 5.674-6.533 6.273-2.203 6.345-9.482 6.345-9.791C65.797 12.328 65.418 11.949 64.951 11.949zM49.139 17.871c-.401-.243-.922-.112-1.163.291-3.628 6.046-2.151 11.463-2.087 11.691.106.372.446.616.815.616.077 0 .154-.01.232-.032.45-.128.712-.597.584-1.047-.013-.049-1.345-4.931 1.91-10.356C49.671 18.633 49.541 18.111 49.139 17.871zM32.262 30.466c.014.001.029.001.043.001.447 0 .822-.35.846-.802.006-.128.146-3.177-1.536-6.239-.226-.411-.74-.561-1.15-.335-.41.226-.56.741-.335 1.15 1.442 2.624 1.33 5.31 1.329 5.336C31.435 30.045 31.795 30.442 32.262 30.466z"/>
</svg>