<svg xmlns="http://www.w3.org/2000/svg" viewBox="0 0 80 80">
<path d="M10.258 55.95c.822 1.62 6.841-3.685 6.841-3.685C17.099 52.265 9.436 54.33 10.258 55.95zM7.383 48.66c.426 1.766 7.507-2.008 7.507-2.008C14.89 46.652 6.956 46.894 7.383 48.66zM14.033 40.681c0 0-7.775-1.594-7.767.223C6.274 42.72 14.033 40.681 14.033 40.681zM14.578 34.673c0 0-7.198-3.344-7.61-1.575C6.557 34.868 14.578 34.673 14.578 34.673zM16.493 28.953c0 0-6.233-4.914-7.041-3.287C8.644 27.293 16.493 28.953 16.493 28.953zM19.677 23.828c0 0-4.931-6.219-6.093-4.822C12.422 20.402 19.677 23.828 19.677 23.828zM23.955 19.576c0 0-3.365-7.188-4.817-6.098C17.686 14.569 23.955 19.576 23.955 19.576zM25.818 9.38c-1.664.727 3.281 7.044 3.281 7.044C29.099 16.424 27.483 8.654 25.818 9.38zM33.263 6.934c-1.788.323 1.568 7.611 1.568 7.611C34.831 14.545 35.051 6.611 33.263 6.934zM41.072 6.271c-1.814-.098-.23 7.767-.23 7.767C40.842 14.038 42.886 6.368 41.072 6.271zM48.823 7.426c-1.742-.513-2.014 7.505-2.014 7.505C46.809 14.931 50.566 7.939 48.823 7.426zM56.099 10.337c-1.577-.901-3.691 6.838-3.691 6.838C52.408 17.175 57.676 11.239 56.099 10.337zM62.508 14.848c-1.326-1.241-5.169 5.803-5.169 5.803C57.339 20.651 63.834 16.089 62.508 14.848zM61.336 25.169c0 0 7.372-2.941 6.367-4.454C66.698 19.202 61.336 25.169 61.336 25.169zM71.405 27.622c-.629-1.704-7.223 2.866-7.223 2.866C64.182 30.488 72.033 29.326 71.405 27.622zM73.414 35.197c-.219-1.803-7.689 1.123-7.689 1.123C65.725 36.32 73.632 37 73.414 35.197zM65.883 42.351c0 0 7.538 2.485 7.741.68C73.827 41.226 65.883 42.351 65.883 42.351zM64.644 48.255c0 0 6.761 4.157 7.375 2.448C72.634 48.993 64.644 48.255 64.644 48.255zM62.077 53.714c0 0 5.621 5.604 6.612 4.082C69.681 56.274 62.077 53.714 62.077 53.714zM58.322 58.435c0 0 4.176 6.749 5.492 5.497C65.13 62.68 58.322 58.435 58.322 58.435zM57.654 68.777c1.569-.915-4.076-6.616-4.076-6.616C53.578 62.161 56.085 69.691 57.654 68.777zM50.544 72.071c1.738-.528-2.441-7.377-2.441-7.377C48.103 64.694 48.806 72.599 50.544 72.071zM42.864 73.637c1.813-.113-.674-7.741-.674-7.741C42.19 65.896 41.051 73.75 42.864 73.637zM35.032 73.389c1.79.308 1.129-7.688 1.129-7.688C36.161 65.701 33.242 73.081 35.032 73.389zM27.467 71.343c1.671.712 2.872-7.221 2.872-7.221C30.339 64.122 25.796 70.631 27.467 71.343zM20.578 67.606c1.461 1.078 4.46-6.363 4.46-6.363C25.038 61.243 19.116 66.527 20.578 67.606zM14.738 62.381c1.174 1.387 5.807-5.163 5.807-5.163C20.545 57.218 13.564 60.995 14.738 62.381zM22.789 47.185c0 0-4.029.282-3.574 1.448C19.67 49.799 22.789 47.185 22.789 47.185zM21.597 43.021c0 0-3.985-.655-3.811.585C17.96 44.845 21.597 43.021 21.597 43.021zM17.554 38.385c-.117 1.246 3.844.31 3.844.31C21.398 38.695 17.671 37.138 17.554 38.385zM18.533 33.25c-.401 1.186 3.668 1.188 3.668 1.188C22.201 34.438 18.934 32.065 18.533 33.25zM20.67 28.48c-.663 1.062 3.295 2.002 3.295 2.002C23.965 30.482 21.333 27.419 20.67 28.48zM26.595 27.04c0 0-1.855-3.588-2.745-2.708C22.959 25.212 26.595 27.04 26.595 27.04zM27.9 21.028c-1.07.65 2.046 3.268 2.046 3.268C29.946 24.296 28.969 20.378 27.9 21.028zM32.602 18.747c-1.191.386 1.238 3.652 1.238 3.652C33.84 22.399 33.793 18.361 32.602 18.747zM37.704 17.613c-1.248.101.362 3.839.362 3.839C38.066 21.452 38.952 17.511 37.704 17.613zM42.931 17.686c-1.237-.189-.533 3.819-.533 3.819C42.398 21.505 44.168 17.875 42.931 17.686zM47.999 18.962c-1.16-.469-1.399 3.593-1.399 3.593C46.6 22.555 49.16 19.431 47.999 18.962zM52.637 21.372c-1.021-.724-2.19 3.174-2.19 3.174C50.447 24.546 53.657 22.097 52.637 21.372zM53.731 27.37c0 0 3.689-1.643 2.863-2.583C55.767 23.847 53.731 27.37 53.731 27.37zM59.656 29.022c-.588-1.105-3.382 1.853-3.382 1.853C56.274 30.875 60.243 30.128 59.656 29.022zM61.659 33.85c-.316-1.211-3.718 1.023-3.718 1.023C57.941 34.873 61.976 35.061 61.659 33.85zM62.495 39.009c-.029-1.251-3.853.138-3.853.138C58.642 39.147 62.524 40.261 62.495 39.009zM62.119 44.223c.261-1.224-3.781-.754-3.781-.754C58.338 43.469 61.859 45.447 62.119 44.223zM60.55 49.208c.536-1.131-3.505-1.606-3.505-1.606C57.045 47.602 60.014 50.34 60.55 49.208zM54.833 51.327c0 0 2.259 3.348 3.041 2.371C58.656 52.721 54.833 51.327 54.833 51.327zM54.236 57.45c.987-.77-2.412-3.008-2.412-3.008C51.824 54.442 53.249 58.22 54.236 57.45zM49.829 60.261c1.138-.522-1.654-3.484-1.654-3.484C48.175 56.777 48.691 60.782 49.829 60.261zM44.893 61.98c1.227-.245-.806-3.771-.806-3.771C44.087 58.209 43.666 62.225 44.893 61.98zM39.693 62.514c1.251.044.086-3.855.086-3.855C39.779 58.659 38.442 62.47 39.693 62.514zM35.484 58.104c0 0-2.18 3.4-.973 3.731C35.719 62.167 35.484 58.104 35.484 58.104zM29.625 59.98c1.098.601 1.807-3.406 1.807-3.406C31.432 56.574 28.527 59.379 29.625 59.98zM25.298 57.047c.93.838 2.544-2.898 2.544-2.898C27.842 54.149 24.369 56.21 25.298 57.047zM24.909 50.963c0 0-3.855 1.203-3.143 2.233C22.477 54.226 24.909 50.963 24.909 50.963zM24.362 44.695c.242.875 2.686-.781 2.686-.781C27.048 43.914 24.12 43.82 24.362 44.695zM23.703 40.961c.033.908 2.794-.14 2.794-.14C26.497 40.821 23.668 40.053 23.703 40.961zM23.921 37.176c-.176.891 2.751.508 2.751.508C26.672 37.684 24.097 36.285 23.921 37.176zM25.008 33.542c-.377.826 2.56 1.129 2.56 1.129C27.568 34.671 25.385 32.716 25.008 33.542zM26.902 30.258c-.558.717 2.23 1.689 2.23 1.689C29.132 31.947 27.46 29.54 26.902 30.258zM29.504 27.498c-.708.569 1.781 2.157 1.781 2.157C31.285 29.655 30.212 26.929 29.504 27.498zM32.672 25.413c-.82.391 1.235 2.51 1.235 2.51C33.907 27.923 33.492 25.023 32.672 25.413zM36.235 24.115c-.888.191.623 2.727.623 2.727C36.858 26.842 37.122 23.924 36.235 24.115zM40.001 23.673c-.908-.019-.023 2.798-.023 2.798C39.978 26.471 40.909 23.692 40.001 23.673zM43.1 26.829c0 0 1.546-2.489.667-2.717C42.888 23.885 43.1 26.829 43.1 26.829zM47.331 25.408c-.803-.424-1.275 2.49-1.275 2.49C46.056 27.898 48.135 25.833 47.331 25.408zM50.5 27.491c-.684-.598-1.816 2.129-1.816 2.129C48.684 29.62 51.183 28.089 50.5 27.491zM50.847 31.901c0 0 2.784-.913 2.257-1.652C52.577 29.508 50.847 31.901 50.847 31.901zM52.423 34.619c0 0 2.92-.246 2.578-1.087C54.659 32.69 52.423 34.619 52.423 34.619zM56.09 37.164c-.139-.898-2.759.463-2.759.463C53.331 37.627 56.229 38.062 56.09 37.164zM56.311 40.95c.071-.906-2.792-.185-2.792-.185C53.519 40.765 56.24 41.855 56.311 40.95zM55.655 44.684c.278-.864-2.674-.824-2.674-.824C52.981 43.86 55.376 45.549 55.655 44.684zM54.154 48.167c.471-.777-2.411-1.418-2.411-1.418C51.743 46.749 53.683 48.944 54.154 48.167zM49.87 49.273c0 0 1.383 2.583 2.02 1.936C52.527 50.562 49.87 49.273 49.87 49.273zM48.987 53.649c.769-.483-1.518-2.35-1.518-2.35C47.469 51.299 48.217 54.132 48.987 53.649zM45.598 55.351c.859-.293-.936-2.637-.936-2.637C44.662 52.714 44.738 55.644 45.598 55.351zM41.606 53.446c0 0-.601 2.868.303 2.781C42.813 56.14 41.606 53.446 41.606 53.446zM38.116 56.228c.9.124.347-2.776.347-2.776C38.463 53.452 37.216 56.104 38.116 56.228zM34.426 55.355c.847.328.978-2.621.978-2.621C35.404 52.734 33.579 55.027 34.426 55.355zM31.037 53.655c.748.515 1.556-2.325 1.556-2.325C32.593 51.33 30.289 53.14 31.037 53.655zM30.181 49.315c0 0-2.66 1.23-2.051 1.903C28.74 51.892 30.181 49.315 30.181 49.315zM28.3 46.798c0 0-2.872.583-2.434 1.379C26.303 48.973 28.3 46.798 28.3 46.798z"/>
</svg>