<svg xmlns="http://www.w3.org/2000/svg" viewBox="0 0 80 80">
<path d="M37.952 46.848 29.779 72.54c-.215.677.177 1.398.863 1.584l.16.044c.686.186 1.389-.236 1.546-.93l5.953-26.294C38.352 46.717 38.022 46.628 37.952 46.848zM34.802 44.906 14.879 63.069c-.525.479-.546 1.299-.045 1.803l.117.118c.501.504 1.321.49 1.804-.032l18.303-19.795C35.215 44.993 34.974 44.75 34.802 44.906zM33.046 41.649 6.709 47.417c-.694.152-1.122.852-.94 1.539l.042.161c.181.687.899 1.085 1.578.874l25.749-7.991C33.359 41.931 33.272 41.6 33.046 41.649zM6.763 32.347l26.294 5.954c.226.051.316-.279.095-.349L7.462 29.778c-.677-.215-1.398.177-1.584.863l-.043.16C5.647 31.487 6.07 32.19 6.763 32.347zM34.838 35.057c.169.157.413-.084.256-.255L16.932 14.878c-.479-.525-1.299-.546-1.804-.045L15.01 14.95c-.505.501-.49 1.321.032 1.804L34.838 35.057zM31.044 5.769l-.161.042c-.687.182-1.084.899-.874 1.578L38 33.138c.069.221.4.134.35-.093L32.583 6.709C32.431 6.015 31.731 5.587 31.044 5.769zM42.049 33.152 50.222 7.46c.215-.677-.177-1.398-.863-1.584l-.16-.043c-.686-.186-1.389.236-1.546.929l-5.954 26.294C41.648 33.283 41.978 33.372 42.049 33.152zM45.198 35.094l19.924-18.163c.526-.479.546-1.299.045-1.803L65.05 15.01c-.501-.504-1.321-.49-1.804.032L44.943 34.837C44.786 35.007 45.027 35.25 45.198 35.094zM46.954 38.35l26.336-5.768c.695-.152 1.122-.852.941-1.539l-.042-.16c-.181-.687-.899-1.085-1.578-.874L46.862 38C46.641 38.068 46.728 38.399 46.954 38.35zM73.238 47.652l-26.294-5.954c-.226-.051-.316.279-.095.349l25.692 8.173c.677.215 1.397-.177 1.584-.863l.043-.16C74.353 48.512 73.931 47.809 73.238 47.652zM45.163 44.942c-.17-.157-.413.084-.257.255l18.162 19.924c.479.525 1.299.546 1.803.045l.118-.117c.504-.501.49-1.321-.032-1.804L45.163 44.942zM42 46.862c-.069-.221-.4-.134-.35.093l5.768 26.336c.152.694.852 1.122 1.539.941l.161-.043c.687-.181 1.084-.899.874-1.578L42 46.862zM39.875 48.417l-1.137 21.098c-.028.521.382.961.904.97.521.009.946-.418.935-.939l-.435-21.125C40.138 48.25 39.884 48.246 39.875 48.417zM35.683 47.226 24.149 64.929c-.285.437-.149 1.023.298 1.292.448.268 1.028.112 1.28-.345l10.185-18.512C35.994 47.213 35.776 47.082 35.683 47.226zM32.778 44.332c.147-.089.023-.311-.129-.233l-18.84 9.565c-.465.236-.641.811-.387 1.267.253.456.835.61 1.281.34L32.778 44.332zM10.485 38.737c-.521-.028-.961.382-.97.904-.009.521.418.946.939.935l21.125-.435c.172-.004.176-.258.004-.267L10.485 38.737zM14.125 25.726l18.512 10.185c.15.083.281-.135.137-.229L15.07 24.149c-.437-.285-1.023-.15-1.291.298C13.511 24.895 13.667 25.475 14.125 25.726zM35.667 32.777c.089.147.311.023.234-.129l-9.565-18.84c-.236-.465-.811-.641-1.267-.388-.456.253-.61.835-.341 1.281L35.667 32.777zM40.359 9.514c-.522-.009-.946.418-.936.939l.435 21.125c.003.171.258.176.267.004l1.136-21.098C41.291 9.963 40.881 9.523 40.359 9.514zM44.317 32.773 55.851 15.07c.284-.437.149-1.023-.298-1.292-.447-.268-1.028-.112-1.279.346L44.089 32.636C44.006 32.786 44.224 32.917 44.317 32.773zM47.223 35.667c-.147.089-.023.311.129.233l18.84-9.565c.465-.236.641-.811.387-1.267-.253-.456-.835-.61-1.281-.34L47.223 35.667zM48.422 39.858c-.172.004-.176.258-.004.267l21.098 1.137c.521.028.961-.382.97-.904.009-.521-.418-.946-.939-.935L48.422 39.858zM65.875 54.273 47.364 44.088c-.151-.083-.281.135-.138.229L64.93 55.85c.437.285 1.023.15 1.291-.298C66.489 55.105 66.333 54.524 65.875 54.273zM44.332 47.222c-.089-.147-.311-.023-.233.13l9.565 18.84c.236.465.811.641 1.267.388.456-.253.61-.835.341-1.281L44.332 47.222z"/>
</svg>