<svg xmlns="http://www.w3.org/2000/svg" viewBox="0 0 80 80">
<path d="M78.278 29.489c-.1-.42-.53-.67-.94-.56-38.82 9.97-74.29.07-74.65-.03-.41-.11-.84.12-.96.53-.12.42.12.85.53.96.07.02 1.52.43 4.07.98-.05.13-.07.26-.05.4l2.98 15.87c.05.29.27.53.56.61.07.02.13.02.2.02.22 0 .44-.09.59-.26l12.3-14.02c.5.05 1.01.1 1.52.15 0 .1.02.2.06.3l6.44 16.2c.11.28.37.47.67.49h.05c.28 0 .54-.15.68-.4l8.62-15.47c.06-.11.09-.22.09-.34.5 0 1.02-.01 1.52-.02 0 .12.02.24.08.35l8.17 15.47c.14.25.4.41.69.41h.05c.31-.02.57-.22.68-.51l5.99-16.53c.02-.04.01-.08.02-.12.32-.04.64-.08.96-.12.02.05.04.11.07.15l10.51 12.99c.15.18.37.28.6.28.06 0 .12 0 .18-.01.29-.07.51-.3.58-.59l3.5-15.47c.01-.01 0-.02 0-.04 1.03-.23 2.05-.46 3.08-.73C78.137 30.329 78.387 29.909 78.278 29.489z"/>
</svg>