<svg xmlns="http://www.w3.org/2000/svg" viewBox="0 0 80 80">
<path d="M51.501 34.565c0-.56.42-1.063.42-1.68 0-.448-.196-.729-.476-.729-.952 0-1.932 2.353-1.932 4.396 0 1.567.56 2.464 1.344 2.464.952 0 1.624-1.26 1.932-3.864-.168.057-.364.084-.532.084C51.837 35.237 51.501 35.013 51.501 34.565zM41.113 34.593c0-.364.504-.924.504-1.792 0-.393-.196-.672-.504-.672-1.092 0-2.044 2.323-2.044 4.256 0 1.315.392 2.632 1.26 2.632.896 0 1.764-1.232 1.932-3.948h-.224C41.534 35.069 41.113 34.929 41.113 34.593zM27.086 26.502c-.112 0-.224.027-.336.027-.28 1.96-1.064 8.456-1.064 11.284 0 .616.028 1.036.112 1.372.504.14 1.008.168 1.568.168 2.296 0 4.788-2.128 4.788-7.084C32.154 28.798 29.942 26.502 27.086 26.502zM71.368 26.666c-.787-8.192-7.417-14.825-15.609-15.616-5.852-.565-11.165 1.779-14.703 5.744-.568.636-1.542.636-2.11 0-3.537-3.963-8.847-6.307-14.696-5.744-8.193.788-14.827 7.42-15.616 15.613-.22 2.281.002 4.481.589 6.527.688 2.395 1.998 4.566 3.632 6.447l24.479 28.182c1.408 1.621 3.924 1.621 5.332 0l24.48-28.182c1.634-1.881 2.945-4.051 3.632-6.447C71.364 31.145 71.586 28.945 71.368 26.666zM27.17 41.285c-2.772 0-4.844-.728-4.844-2.884 0-3.359.728-8.596 1.288-11.032-.504.225-.868.421-1.008.421-.14 0-.476-.196-.476-.757 0-1.231 2.716-2.8 6.048-2.8 4.76 0 7.336 3.389 7.336 7.672C35.514 37.953 31.705 41.285 27.17 41.285zM56.401 40.334c0 .42-.56.783-1.316.783-1.26 0-1.96-.615-2.324-1.428-.7.784-1.624 1.4-2.744 1.4-1.087 0-2.247-.574-2.841-1.869-.492.821-1.306 1.533-2.591 1.533-.924 0-1.792-.42-2.296-1.288-.616.924-1.54 1.624-2.66 1.624-1.54 0-3.248-1.008-3.248-3.752 0-3.528 2.212-6.889 5.264-6.889 1.624 0 2.828.812 2.828 2.297 0 .363-.056.672-.168.924.28.084.504.308.504.924 0 1.12-.476 2.016-.476 3.023 0 .952.392 1.288.924 1.288.701 0 1.204-.595 1.529-1.461-.002-.076-.018-.14-.018-.219 0-3.416 2.268-6.776 4.928-6.776.588 0 1.092.141 1.484.364.028-.812.056-1.736.056-2.884 0-2.688-.588-3.64-.588-4.06 0-.309.336-.505.896-.505 1.988 0 3.08 1.036 3.08 2.353 0 3.332-1.316 7.476-1.316 11.368C55.309 39.661 56.401 39.998 56.401 40.334zM64.231 26.221c-.045.004-.091.006-.135.006-.766 0-1.418-.582-1.492-1.357-.02-.187-.49-4.2-4.855-6.314-.746-.36-1.057-1.258-.696-2.004.361-.745 1.258-1.058 2.004-.695 5.944 2.879 6.513 8.499 6.535 8.737C65.665 25.419 65.056 26.147 64.231 26.221z"/>
</svg>