<svg xmlns="http://www.w3.org/2000/svg" viewBox="0 0 80 80">
<path d="M76.184 44.307l-3.273-9.325c-.785-2.237-3.244-3.418-5.481-2.633l-4.54 1.593-.798-2.275c.324-.014.647-.06.962-.171 1.754-.617 2.681-2.546 2.065-4.301-.295-.839-.903-1.52-1.693-1.908-.005-.016-.011-.031-.017-.047-.446-1.273-1.626-2.154-2.95-2.248-.728-1.079-2.039-1.653-3.331-1.45-.88-.585-1.973-.728-2.982-.375-.555.195-1.04.526-1.419.959-.891-.703-2.09-.919-3.201-.53-.618.217-1.145.597-1.542 1.109-.197.031-.389.079-.575.144-.222.078-.433.178-.632.299-.903-.858-2.236-1.166-3.442-.743-1.706.599-2.629 2.438-2.113 4.153-.757.305-1.369.867-1.737 1.586-.302.021-.598.081-.886.182-.214.075-.404.19-.594.303-.371-.401-.83-.711-1.352-.895-1.205-.423-2.539-.116-3.441.744-.199-.121-.41-.221-.633-.299-.185-.065-.377-.112-.574-.144-.396-.512-.924-.893-1.541-1.109-1.111-.389-2.311-.172-3.201.531-.379-.433-.864-.763-1.419-.958-1.009-.353-2.102-.21-2.982.376-1.289-.2-2.602.371-3.33 1.45-1.324.095-2.503.976-2.95 2.249-.005.016-.011.031-.016.047-.79.389-1.397 1.07-1.692 1.909-.615 1.755.312 3.683 2.067 4.3.315.11.638.156.962.17l-.798 2.275-4.54-1.592c-2.237-.785-4.696.397-5.48 2.635l-3.27 9.326c-.785 2.237.397 4.696 2.635 5.48l4.567 1.602c-.712 2.909.888 5.939 3.773 6.95l11.641 4.082c3.069 1.076 6.43-.539 7.505-3.608l6.586-18.781c.161.024.324.041.488.041.07 0 .14-.002.209-.006l-.029-.474 4.875 13.891c1.077 3.069 4.438 4.683 7.507 3.606l11.64-4.085c2.885-1.012 4.484-4.043 3.771-6.951l4.567-1.603C75.788 49.003 76.969 46.544 76.184 44.307zM39.025 29.536c.223-.078.455-.118.691-.118.049 0 .099.002.148.005.291.012.553-.154.648-.427.212-.604.679-1.072 1.28-1.283.133-.047.268-.078.403-.098.211-.03.394-.164.486-.356.093-.193.083-.419-.026-.603-.069-.116-.128-.241-.174-.373-.382-1.089.193-2.286 1.281-2.668.879-.308 1.866.008 2.402.769.106.15.271.248.454.268.183.016.365-.04.5-.164.209-.191.452-.335.718-.429.173-.06.359-.098.55-.11.203-.014.389-.123.498-.295.255-.399.624-.693 1.068-.848.861-.303 1.809-.017 2.361.71.133.177.348.275.569.251.221-.021.415-.153.513-.351.245-.491.663-.859 1.177-1.039.687-.243 1.437-.11 2.008.349.157.127.365.171.561.122.939-.242 1.941.207 2.382 1.072.115.226.352.359.601.349.922-.036 1.774.528 2.078 1.397.027.077.048.154.065.231.048.21.198.381.4.457.584.218 1.037.68 1.243 1.267.382 1.089-.193 2.286-1.281 2.668-.821.29-1.747.03-2.304-.642-.133-.161-.336-.247-.547-.229-.208.018-.395.136-.5.318-.25.433-.647.763-1.119.929-.255.09-.524.132-.8.115-.312.005-.594.201-.657.51-.151.729-.657 1.309-1.355 1.554-.48.17-1.004.155-1.478-.037-.216-.086-.462-.052-.644.095-.181.147-.268.381-.227.61.181 1.014-.393 1.999-1.364 2.34-.622.219-1.295.132-1.848-.233-.256-.168-.595-.133-.81.086-.227.23-.494.401-.795.506-.909.321-1.912-.021-2.44-.828-.115-.175-.308-.282-.517-.289-.215.006-.408.091-.533.258-.248.335-.589.586-.986.725-.554.195-1.17.145-1.69-.139-.206-.112-.457-.102-.654.025-.197.128-.308.352-.291.586.072.944-.5 1.821-1.392 2.133-.527.186-1.096.154-1.599-.087-.504-.243-.883-.667-1.068-1.194-.164-.466-.156-.976.02-1.437.094-.246.028-.523-.166-.701-.254-.231-.448-.526-.562-.85-.344-.981.072-2.048.991-2.537.194-.103.321-.299.337-.518C37.693 30.528 38.241 29.812 39.025 29.536zM11.735 54.594l-4.54-1.592c-1.066-.374-1.63-1.546-1.256-2.612l3.27-9.326c.374-1.066 1.546-1.63 2.612-1.256l4.54 1.592L11.735 54.594zM14.128 59.186c-.545-.191-.831-.787-.64-1.332l5.639-16.08c.191-.544.787-.831 1.332-.64.545.191.831.787.64 1.332l-5.639 16.08C15.269 59.09 14.673 59.377 14.128 59.186zM19.286 60.995c-.544-.191-.831-.787-.64-1.332l5.639-16.08c.191-.544.787-.831 1.332-.64.545.191.831.787.641 1.332l-5.639 16.08C20.427 60.899 19.831 61.186 19.286 60.995zM25.776 62.163c-.191.545-.787.831-1.332.64-.544-.191-.831-.787-.64-1.332l5.639-16.08c.191-.545.787-.831 1.332-.641.545.191.832.787.641 1.332L25.776 62.163zM36.573 47.892l-5.639 16.08c-.191.544-.787.831-1.332.64-.545-.191-.832-.787-.641-1.332L34.6 47.2c.191-.545.787-.831 1.332-.64C36.477 46.751 36.764 47.347 36.573 47.892zM40.318 44.012c-.892-.312-1.464-1.189-1.392-2.132.018-.234-.094-.458-.29-.586-.196-.125-.447-.136-.653-.025-.521.282-1.139.332-1.691.141-.398-.141-.739-.392-.987-.727-.124-.167-.321-.26-.533-.258-.209.006-.402.114-.517.289-.528.807-1.532 1.15-2.44.829-.3-.105-.568-.276-.796-.506-.215-.219-.554-.253-.809-.085-.553.368-1.226.452-1.847.233-.972-.341-1.547-1.325-1.365-2.34.041-.229-.046-.463-.228-.61-.181-.146-.428-.181-.644-.095-.474.193-.999.208-1.479.039-.698-.245-1.204-.826-1.355-1.554-.064-.31-.348-.527-.659-.51-.272.018-.541-.024-.799-.115-.47-.165-.868-.495-1.118-.928-.105-.181-.292-.3-.5-.318-.207-.018-.412.067-.546.229-.557.672-1.483.929-2.303.643-1.089-.382-1.664-1.579-1.283-2.668.206-.586.659-1.049 1.243-1.267.202-.076.352-.248.4-.457.018-.078.039-.155.065-.232.305-.869 1.158-1.465 2.078-1.397.251-.003.487-.124.601-.349.441-.864 1.443-1.314 2.382-1.072.196.052.405.005.562-.122.57-.459 1.32-.593 2.007-.35.515.18.933.549 1.177 1.038.099.198.293.33.513.351.219.022.435-.074.569-.251.551-.727 1.5-1.013 2.361-.711.444.155.813.449 1.068.848.109.172.294.281.498.295.192.012.377.05.549.11.268.094.51.239.719.429.135.124.317.178.5.164.183-.02.348-.118.454-.268.536-.761 1.524-1.08 2.401-.77.316.111.582.309.809.548-.315.419-.549.9-.643 1.431-1.272.849-1.818 2.441-1.301 3.914.137.392.347.755.616 1.07-.155.632-.124 1.3.092 1.918.298.851.91 1.534 1.722 1.924.463.223.959.334 1.458.334.164 0 .328-.017.491-.042l1.431 4.077C40.707 44.107 40.51 44.079 40.318 44.012zM50.402 59.281c-.545.191-1.141-.096-1.332-.64l-5.643-16.079c-.191-.545.096-1.141.64-1.332.545-.191 1.141.096 1.332.64l5.643 16.079C51.233 58.493 50.946 59.09 50.402 59.281zM55.559 57.471c-.545.191-1.141-.096-1.332-.64l-5.643-16.079c-.191-.544.095-1.141.64-1.332.545-.191 1.141.096 1.332.64l5.643 16.079C56.39 56.684 56.104 57.28 55.559 57.471zM60.716 55.661c-.544.191-1.141-.095-1.332-.64l-5.643-16.079c-.191-.544.095-1.141.64-1.332.544-.191 1.141.095 1.332.64l5.643 16.079C61.548 54.873 61.261 55.47 60.716 55.661zM65.874 53.851c-.545.191-1.141-.095-1.332-.64l-5.643-16.079c-.191-.544.095-1.141.64-1.332.544-.191 1.141.096 1.332.64l5.643 16.079C66.705 53.063 66.418 53.66 65.874 53.851zM72.806 47.665l-4.54 1.593-4.63-13.192 4.54-1.593c1.066-.374 2.238.189 2.612 1.255l3.273 9.325C74.435 46.118 73.872 47.29 72.806 47.665zM36.944 18.784c.025 0 .05-.002.076-.005.292-.042.494-.311.453-.603l-.895-6.311c-.041-.291-.31-.488-.603-.453-.292.042-.495.311-.453.603l.895 6.311C36.454 18.592 36.682 18.784 36.944 18.784zM41.136 20.416c.159 0 .318-.072.422-.207l3.018-3.912c.18-.233.137-.569-.096-.748-.233-.18-.568-.136-.748.096l-3.018 3.912c-.18.233-.137.569.096.748C40.908 20.38 41.022 20.416 41.136 20.416zM33.519 21.154c.104.104.241.156.377.156.136 0 .273-.052.377-.156.208-.208.208-.546 0-.754l-4.409-4.41c-.208-.208-.546-.208-.754 0-.208.208-.208.546 0 .754L33.519 21.154z"/>
</svg>