<svg xmlns="http://www.w3.org/2000/svg" viewBox="0 0 80 80">
<path d="M49.116 41.419h4.35c.62 0 1.12-.5 1.12-1.13v-6.21c0-.62-.5-1.12-1.12-1.12h-11.19c-.62 0-1.12.5-1.12 1.12v6.21c0 .63.5 1.13 1.12 1.13h4.35v2.52h-13.67v-2.52h4.35c.62 0 1.13-.5 1.13-1.13v-6.21c0-.62-.51-1.12-1.13-1.12h-11.19c-.62 0-1.12.5-1.12 1.12v6.21c0 .63.5 1.13 1.12 1.13h4.35v2.52h-7.87v2.49h7.87v2.52h-4.35c-.62 0-1.12.5-1.12 1.12v6.22c0 .62.5 1.12 1.12 1.12h11.19c.62 0 1.13-.5 1.13-1.12v-6.22c0-.62-.51-1.12-1.13-1.12h-4.35v-2.52h13.67v2.52h-4.35c-.62 0-1.12.5-1.12 1.12v6.22c0 .62.5 1.12 1.12 1.12h11.19c.62 0 1.12-.5 1.12-1.12v-6.22c0-.62-.5-1.12-1.12-1.12h-4.35v-2.52h8.29v-2.49h-8.29V41.419zM36.185 51.199v3.96h-8.94v-3.96H36.185zM27.245 39.169v-3.97h8.94v3.97H27.245zM52.346 51.199v3.96h-8.94v-3.96H52.346zM43.406 39.169v-3.97h8.94v3.97H43.406zM54.396 28.639 49.116 28.639 49.116 26.159 54.396 26.159 54.396 23.669 49.116 23.669 49.116 20.589 46.626 20.589 46.626 23.669 41.346 23.669 41.346 26.159 46.626 26.159 46.626 28.639 41.346 28.639 41.346 31.129 54.396 31.129ZM38.236 28.639 32.956 28.639 32.956 26.159 38.236 26.159 38.236 23.669 32.956 23.669 32.956 20.589 30.466 20.589 30.466 23.669 25.185 23.669 25.185 26.159 30.466 26.159 30.466 28.639 25.185 28.639 25.185 31.129 38.236 31.129zM40 7C21.804 7 7 21.804 7 40c0 18.196 14.804 33 33 33 18.196 0 33-14.804 33-33C73 21.804 58.196 7 40 7zM40 71C22.907 71 9 57.094 9 40 9 22.906 22.907 9 40 9c17.094 0 31 13.906 31 31C71 57.094 57.094 71 40 71z"/>
</svg>