<svg xmlns="http://www.w3.org/2000/svg" viewBox="0 0 80 80">
<path d="M10.98 17.372H6.615c-.636 0-1.152.516-1.152 1.152v1.03c0 .636.516 1.153 1.152 1.153h4.365c.636 0 1.152-.516 1.152-1.153v-1.03C12.132 17.888 11.616 17.372 10.98 17.372zM10.98 59.293H6.615c-.636 0-1.152.516-1.152 1.153v1.03c0 .636.516 1.152 1.152 1.152h4.365c.636 0 1.152-.516 1.152-1.152v-1.03C12.132 59.809 11.616 59.293 10.98 59.293zM6.186 58.34h5.223c.395 0 .712-.324.699-.719C12.01 54.735 11.656 43.957 11.656 40c0-3.957.354-14.735.452-17.621.013-.395-.304-.719-.699-.719H6.186c-.395 0-.712.324-.699.719C5.585 25.265 5.939 36.043 5.939 40c0 3.957-.354 14.735-.452 17.621C5.474 58.016 5.791 58.34 6.186 58.34zM73.385 17.372H69.02c-.636 0-1.152.516-1.152 1.152v1.03c0 .636.516 1.153 1.152 1.153h4.364c.637 0 1.152-.516 1.152-1.153v-1.03C74.537 17.888 74.021 17.372 73.385 17.372zM73.385 59.293H69.02c-.636 0-1.152.516-1.152 1.153v1.03c0 .636.516 1.152 1.152 1.152h4.364c.637 0 1.152-.516 1.152-1.152v-1.03C74.537 59.809 74.021 59.293 73.385 59.293zM68.591 58.34h5.223c.395 0 .712-.324.698-.719C74.415 54.735 74.061 43.957 74.061 40c0-3.957.354-14.735.452-17.621.014-.395-.303-.719-.698-.719h-5.223c-.396 0-.712.324-.699.719C67.99 25.265 68.345 36.043 68.345 40c0 3.957-.354 14.735-.452 17.621C67.879 58.016 68.196 58.34 68.591 58.34zM65.158 21.71C61.931 21.906 49.641 22.612 40 22.612c-8.864 0-21.833-.714-25.161-.906-.442-.026-.814.318-.829.761C13.909 25.479 13.561 36.083 13.561 40c0 3.918.348 14.527.449 17.535.015.442.386.785.828.761 3.431-.188 17.086-.908 25.162-.908 9.641 0 21.931.707 25.158.903.443.027.817-.317.833-.76.102-3.016.449-13.614.449-17.53 0-3.916-.347-14.514-.449-17.53C65.975 22.026 65.601 21.683 65.158 21.71z"/>
</svg>