<svg xmlns="http://www.w3.org/2000/svg" viewBox="0 0 80 80">
<path d="M55.297 24.812c0-4.934-3.783-9.305-9.674-11.231v-1.161c0-.607-.492-1.099-1.099-1.099h-3.843V-.411h-1.363v11.732h-3.843c-.607 0-1.099.492-1.099 1.099v1.162c-5.821 1.91-9.674 6.337-9.674 11.23 0 4.915 3.923 9.395 9.815 11.278-.087.157-.141.336-.141.528v1.211c0 .367.182.691.459.89-.314.895-.598 2.15-.716 3.109-.208 1.69.18 1.82.671 1.881.491.06.899.028 1.107-1.662.115-.936.144-2.182.064-3.119h1.144c-.223.935-.368 2.305-.368 3.328 0 1.702.401 1.785.896 1.785.495 0 .896-.082.896-1.785 0-1.022-.145-2.393-.368-3.328h1.158v6.987l-2.863 2.863c-.283.283-.283.742 0 1.025l2.863 2.863v2.761c-.639.256-1.094.84-1.115 1.531-.104 3.428-.484 11.572-1.831 19.12h5.503V57.01c0-.738-.497-1.363-1.193-1.608v-2.736l2.863-2.863c.283-.283.283-.742 0-1.025l-2.863-2.863v-6.987h1.454c-.222.935-.368 2.305-.368 3.328 0 1.702.401 1.785.896 1.785.495 0 .896-.082.896-1.785 0-1.022-.145-2.393-.368-3.328h1.144c-.08.937-.051 2.183.064 3.119.208 1.69.616 1.722 1.107 1.662.491-.06.879-.191.671-1.881-.128-1.038-.45-2.42-.794-3.32.149-.187.241-.421.241-.679v-1.211c0-.194-.054-.373-.142-.531C51.446 34.187 55.297 29.768 55.297 24.812zM35.836 35.084c-7.292-10.286-1.115-18.941.003-20.355h1.817c-2.043 1.718-3.436 5.563-3.436 10.14 0 5.027 1.692 9.288 4.167 10.65h-2.244L35.836 35.084zM45.95 24.869c0-4.577-1.393-8.422-3.436-10.14h1.971c1.035 1.331 7.21 10.053.09 20.232l-.391.559h-2.402C44.256 34.157 45.95 29.886 45.95 24.869z"/>
</svg>