<svg xmlns="http://www.w3.org/2000/svg" viewBox="0 0 80 80">
<path d="M40 8C22.327 8 8 22.327 8 40c0 17.673 14.327 32 32 32 17.673 0 32-14.327 32-32C72 22.327 57.673 8 40 8zM41.347 28.64h5.283v-2.486h-5.283v-2.486h5.283v-3.079h2.486v3.079h5.283v2.486h-5.283v2.486h5.283v2.486H41.347V28.64zM54.591 40.294c0 .621-.503 1.124-1.124 1.124h-4.351v2.522h8.287v2.486h-8.287v2.522h4.351c.621 0 1.124.503 1.124 1.124v6.215c0 .621-.503 1.124-1.124 1.124H42.279c-.621 0-1.124-.503-1.124-1.124v-6.215c0-.621.503-1.124 1.124-1.124h4.351v-2.522H32.956v2.522h4.351c.621 0 1.124.503 1.124 1.124v6.215c0 .621-.503 1.124-1.124 1.124H26.119c-.621 0-1.124-.503-1.124-1.124v-6.215c0-.621.503-1.124 1.124-1.124h4.351v-2.522h-7.873V43.94h7.873v-2.522h-4.351c-.621 0-1.124-.503-1.124-1.124v-6.215c0-.621.503-1.124 1.124-1.124h11.187c.621 0 1.124.503 1.124 1.124v6.215c0 .621-.503 1.124-1.124 1.124h-4.351v2.522h13.674v-2.522h-4.351c-.621 0-1.124-.503-1.124-1.124v-6.215c0-.621.503-1.124 1.124-1.124h11.187c.621 0 1.124.503 1.124 1.124V40.294zM52.342 35.202h-8.939v3.967h8.939V35.202zM25.187 28.64h5.283v-2.486h-5.283v-2.486h5.283v-3.079h2.486v3.079h5.283v2.486h-5.283v2.486h5.283v2.486H25.187V28.64zM52.342 51.196h-8.939v3.967h8.939V51.196zM36.182 51.196h-8.939v3.967h8.939V51.196zM36.182 35.202h-8.939v3.967h8.939V35.202z"/>
</svg>