<svg xmlns="http://www.w3.org/2000/svg" viewBox="0 0 80 80">
<path d="M54.485 25.124c0-4.509-3.557-8.772-8.704-10.5.218-.275.353-.617.353-.994v-1.211c0-.888-.722-1.61-1.61-1.61h-3.843V-.411h-1.363v11.221h-3.843c-.888 0-1.61.722-1.61 1.61v1.211c0 .378.136.721.355.996-5.166 1.746-8.706 5.961-8.706 10.498 0 4.523 3.547 8.76 8.704 10.499-.218.275-.354.617-.354.995v1.211c0 .596.329 1.111.811 1.389-.248.826-.459 1.818-.557 2.61-.208 1.69.18 1.82.671 1.881.491.06.899.028 1.107-1.662.095-.774.131-1.759.095-2.608H37c-.162.881-.263 1.967-.263 2.816 0 1.702.401 1.785.896 1.785.495 0 .896-.082.896-1.785 0-.849-.101-1.936-.263-2.816h1.053v5.964h.064l-3.525 3.525c-.096.096-.15.226-.15.361 0 .135.054.266.15.361l3.632 3.632v1.591c-.892.273-1.541 1.084-1.569 2.068-.091 3.201-.441 11.464-1.711 19.05l-.1.596h6.277V57.01c0-.987-.644-1.825-1.534-2.12v-1.947l3.291-3.291c.096-.096.15-.226.15-.361 0-.135-.054-.266-.15-.361l-3.525-3.525h.064v-5.964h1.349c-.162.881-.263 1.967-.263 2.816 0 1.702.401 1.785.896 1.785.495 0 .896-.082.896-1.785 0-.849-.101-1.936-.263-2.816h1.008c-.035.849 0 1.834.095 2.608.208 1.69.616 1.722 1.107 1.662.491-.06.879-.191.671-1.881-.104-.849-.34-1.924-.61-2.782.345-.295.568-.729.568-1.217v-1.211c0-.378-.136-.721-.355-.996C50.918 33.905 54.485 29.622 54.485 25.124zM34.888 37.829v-1.211c0-.324.263-.587.587-.587h4.384c.046 0 .095.002.141.002.053 0 .114-.001.178-.002h4.348c.324 0 .587.264.587.587v1.211c0 .324-.263.587-.587.587h-9.05C35.151 38.416 34.888 38.153 34.888 37.829zM35.623 15.7c.053-.062.087-.133.106-.207.069-.073.122-.158.154-.253h1.611c-2.062 1.734-3.46 5.5-3.46 9.97 0 4.268 1.286 7.975 3.268 9.798H35.71c-.028-.113-.084-.217-.164-.301-.015-.06-.04-.118-.078-.171-3.003-4.236-3.895-8.684-2.652-13.221C33.75 17.908 35.604 15.721 35.623 15.7zM41.092 34.969c-.272.013-.796.037-1.092.037-.281 0-.572-.008-.887-.023-2.316-.935-4.053-5.111-4.053-9.773 0-5.403 2.301-9.968 5.025-9.968 2.724 0 5.025 4.565 5.025 9.968C45.11 29.915 43.425 33.996 41.092 34.969zM44.905 34.422c-.037.053-.061.11-.076.169-.109.116-.175.268-.184.429-.04-.003-.079-.012-.12-.012H42.87c1.98-1.826 3.267-5.539 3.267-9.798 0-4.47-1.398-8.236-3.46-9.97h1.804c.021.136.083.262.177.362.017.069.048.136.096.196C45.474 16.698 51.592 24.862 44.905 34.422zM34.888 12.419c0-.324.263-.587.587-.587h9.05c.324 0 .587.264.587.587v1.211c0 .324-.263.587-.587.587H40.13c-.015 0-.03-.002-.045-.002-.015 0-.03.002-.045.002h-4.565c-.324 0-.587-.264-.587-.587V12.419zM26.878 25.124c0-3.779 2.889-7.324 7.178-8.99-1.713 2.65-5.215 9.769-.128 17.932C29.717 32.383 26.878 28.854 26.878 25.124zM41.363 57.01v18.557h-4.049c1.201-7.481 1.537-15.456 1.627-18.594.019-.658.551-1.174 1.211-1.174C40.82 55.798 41.363 56.342 41.363 57.01zM40 52.349l-3.059-3.059L40 46.231l3.059 3.059L40 52.349zM46.471 33.892c4.863-7.968 1.604-14.879-.117-17.594 4.048 1.721 6.768 5.192 6.768 8.825C53.122 28.712 50.446 32.159 46.471 33.892z"/>
</svg>