<svg xmlns="http://www.w3.org/2000/svg" viewBox="0 0 80 80">
<path d="M37.982 35.365H27.916c-.743 0-1.346.601-1.346 1.345v5.291c0 .743.603 1.345 1.346 1.345h5.687v-2.69h-4.341v-2.601h7.375v7.741H23.855V36.71c0-.744-.603-1.345-1.345-1.345H6.346C5.602 35.365 5 35.966 5 36.71v10.58c0 .744.603 1.345 1.346 1.345h10.477c.743 0 1.346-.601 1.346-1.345v-5.531c0-.744-.603-1.345-1.346-1.345h-5.347v2.69h4.001v2.841H7.691v-7.89h13.473v9.086c0 .743.603 1.345 1.346 1.345h15.472c.743 0 1.345-.601 1.345-1.345V36.71C39.327 35.966 38.725 35.365 37.982 35.365zM75.655 35.365H65.589c-.743 0-1.346.601-1.346 1.345v5.291c0 .743.603 1.345 1.346 1.345h5.687v-2.69h-4.341v-2.601h7.375v7.741H61.528V36.71c0-.744-.603-1.345-1.345-1.345H44.018c-.743 0-1.346.601-1.346 1.345v10.58c0 .744.603 1.345 1.346 1.345h10.477c.743 0 1.346-.601 1.346-1.345v-5.531c0-.744-.603-1.345-1.346-1.345h-5.347v2.69h4.001v2.841h-7.786v-7.89h13.473v9.086c0 .743.603 1.345 1.346 1.345h15.472c.743 0 1.345-.601 1.345-1.345V36.71C77 35.966 76.398 35.365 75.655 35.365z"/>
</svg>