<svg xmlns="http://www.w3.org/2000/svg" viewBox="0 0 80 80">
<path d="M64.68 45.281c-1.293-.464-2.489-1.396-3.473-2.756l-.879-1.216c-.8-1.104-1.735-1.714-2.632-1.714-.898.001-1.833.609-2.633 1.715l-.878 1.214c-1.444 1.997-3.341 3.097-5.34 3.097 0 0 0 0 0 0-1.999 0-3.896-1.1-5.34-3.098l-.876-1.211c-.8-1.106-1.735-1.715-2.633-1.715-.898 0-1.834.609-2.633 1.715l-.873 1.208c-1.445 1.999-3.343 3.1-5.342 3.1-1.999 0-3.895-1.1-5.34-3.098l-.875-1.21c-.799-1.105-1.735-1.715-2.633-1.715-.898 0-1.833.609-2.632 1.715l-.875 1.21c-.984 1.36-2.179 2.292-3.471 2.756-.01.304-.024.611-.024.907 0 .418.008.835.033 1.245 0 .059 0 .125.008.184.071 1.227.239 2.421.483 3.583.329-.291.646-.635.94-1.042l.875-1.209c1.283-1.775 2.939-2.752 4.664-2.753 1.725 0 3.38.977 4.665 2.752l.875 1.21c.961 1.329 2.136 2.061 3.309 2.061 1.174 0 2.35-.732 3.311-2.061l.873-1.208c1.284-1.775 2.941-2.753 4.665-2.753 1.724 0 3.379.977 4.664 2.751l.876 1.211c.961 1.329 2.136 2.061 3.31 2.061h0c1.173 0 2.349-.732 3.31-2.061l.878-1.213c1.283-1.774 2.939-2.751 4.663-2.751 1.724 0 3.379.977 4.664 2.751l.879 1.215c.295.408.612.752.941 1.044.245-1.163.413-2.359.483-3.587.008-.059.008-.125.008-.184.025-.409.034-.827.034-1.245C64.704 45.891 64.69 45.584 64.68 45.281zM16.958 39.354c1.444-1.998 3.341-3.098 5.34-3.098 1.999 0 3.896 1.1 5.341 3.098l.875 1.21c.799 1.105 1.734 1.715 2.632 1.715.899 0 1.835-.609 2.634-1.715l.873-1.207c1.446-1.999 3.342-3.099 5.341-3.1 2 0 3.896 1.101 5.341 3.098l.877 1.211c.8 1.106 1.735 1.715 2.632 1.715h0c.898 0 1.833-.609 2.633-1.715l.878-1.214c1.444-1.997 3.34-3.096 5.339-3.097 1.999 0 3.895 1.1 5.34 3.096l.879 1.216c.105.145.213.281.322.408-.049-.296-.093-.588-.15-.888 0-.059-.017-.117-.033-.176-.442-2.377-1.125-4.853-2.018-7.33-.05-.065-.103-.124-.152-.192l-.879-1.215c-.961-1.328-2.137-2.06-3.31-2.06-1.173 0-2.349.732-3.309 2.06l-.878 1.214c-1.284 1.774-2.94 2.751-4.664 2.751 0 0 0 0 0 0-1.724 0-3.38-.977-4.663-2.751l-.876-1.211c-.962-1.329-2.137-2.061-3.31-2.061-1.173 0-2.35.731-3.311 2.061l-.873 1.208c-1.284 1.775-2.94 2.752-4.665 2.753-1.724 0-3.38-.977-4.665-2.752l-.875-1.209c-.961-1.329-2.136-2.061-3.31-2.061-1.173 0-2.349.732-3.31 2.061l-.875 1.209c-.047.065-.098.121-.146.184-.894 2.481-1.579 4.962-2.021 7.342-.017.058-.033.117-.033.176-.057.297-.1.588-.149.881.108-.127.215-.261.319-.405L16.958 39.354zM26.963 30.199l.875 1.21c.961 1.329 2.136 2.061 3.31 2.061 1.174 0 2.35-.733 3.311-2.061l.873-1.208c1.284-1.775 2.941-2.753 4.665-2.753 1.724 0 3.379.978 4.664 2.752l.876 1.211c.961 1.328 2.136 2.06 3.31 2.06h0c1.173 0 2.349-.732 3.31-2.06l.878-1.214c1.283-1.774 2.939-2.751 4.663-2.751.889 0 1.759.265 2.57.76-.488-1.072-1.007-2.131-1.566-3.161-.025-.067-.059-.125-.1-.184-1.445-2.673-3.116-5.171-4.962-7.343-.05-.067-.1-.125-.159-.184-3.876-4.502-8.503-7.518-13.482-7.518-4.979 0-9.606 3.016-13.474 7.518-.059.058-.108.117-.159.184-1.846 2.172-3.517 4.669-4.962 7.343-.042.058-.075.117-.1.184-.559 1.029-1.077 2.087-1.564 3.156.809-.492 1.675-.754 2.561-.754C24.023 27.446 25.679 28.423 26.963 30.199zM61.884 51.136l-.879-1.215c-.961-1.328-2.137-2.059-3.31-2.059-1.173 0-2.349.732-3.309 2.06l-.878 1.213c-1.284 1.775-2.94 2.752-4.664 2.752 0 0 0 0 0 0-1.724 0-3.38-.978-4.663-2.752l-.876-1.211c-.962-1.328-2.137-2.06-3.31-2.06-1.173 0-2.35.732-3.311 2.061l-.873 1.207c-1.284 1.775-2.941 2.753-4.666 2.753-1.724 0-3.379-.977-4.664-2.752l-.875-1.209c-.961-1.329-2.136-2.061-3.31-2.061-1.174.001-2.349.732-3.31 2.061l-.875 1.209c-.554.766-1.18 1.374-1.849 1.828.199.678.419 1.346.676 1.996.017.067.042.125.075.184 1.103 2.757 2.706 5.229 4.703 7.342.059.059.109.117.175.176 4.502 4.678 10.951 7.526 18.102 7.526 7.159 0 13.607-2.848 18.109-7.526.067-.058.117-.117.176-.176 1.996-2.113 3.6-4.586 4.711-7.342.025-.059.05-.117.067-.184.256-.648.476-1.315.675-1.991C63.065 52.51 62.438 51.903 61.884 51.136zM22.311 53.625c-.957 0-1.732-.775-1.732-1.732 0-.957.775-1.732 1.732-1.732.957 0 1.732.776 1.732 1.732C24.043 52.85 23.267 53.625 22.311 53.625zM40.002 53.948c-.957 0-1.732-.776-1.732-1.732 0-.957.776-1.732 1.732-1.732.956 0 1.732.775 1.732 1.732C41.734 53.173 40.959 53.948 40.002 53.948zM57.792 54.271c-.957 0-1.732-.776-1.732-1.732 0-.956.775-1.732 1.732-1.732.957 0 1.732.776 1.732 1.732C59.524 53.495 58.748 54.271 57.792 54.271z"/>
</svg>