<svg xmlns="http://www.w3.org/2000/svg" viewBox="0 0 80 80">
<path d="M51.297 62.157c-.297.81-.143 1.285-.612 2.03-.469.745-1.859 1.135-2.372.412.702-.768.873-1.968.139-2.712-.734-.744-2.409-.615-2.757.319-.409 1.1 1.021 2.503.092 3.329-.647.575-1.845.129-2.293-.576-.448-.705-.448-1.554-.713-2.326-.265-.772-1.016-1.558-1.93-1.437-1.191.157-1.432 1.544-1.386 2.593.045 1.049-.234 2.441-1.431 2.561-.956.096-1.679-.805-1.787-1.639-.108-.833.154-1.682.02-2.512-.135-.831-.929-1.705-1.873-1.54.151.887.289 1.844-.195 2.635-.483.791-1.437 1.205-2.131.544-.426-.406-.426-1.019-.39-1.569.036-.55-.364-1.156-.757-1.586-.394-.43-1.377-.416-1.507.123.083 3.911 2.493 7.769 6.327 9.803 3.834 2.033 8.988 2.095 12.783.006 3.795-2.088 5.554-5.678 5.554-10.383C52.58 60.019 51.595 61.348 51.297 62.157zM63.148 26.106c-.765-5.472-3.298-18.264-22.64-18.264-15.065 0-21.288 5.346-23.426 15.396-2.139 10.051 2.138 18.818 3.761 21.749 1.623 2.931 4.365 1.774 6.771 3.475 2.405 1.701 1.016 5.783 1.073 8.147.057 2.364 1.867 1.913 3.032 1.412 1.165-.501.333-3.99 2.174-3.815 1.841.175.296 2.82 1.018 4.278.722 1.458 3.127.895 3.989.186.861-.709.85-4.423 2.585-4.226 1.735.197 1.044 1.727 1.647 3.673.603 1.946 3.247 1.476 3.987.399.741-1.076-.099-4.483 1.973-4.441 2.072.042 1.777 4.876 1.777 4.876 0 0 3.917-1.322 4.063-3.635.146-2.313-1.925-2.138-.419-4.178 1.506-2.039 3.84-.527 6.442-5.546C63.557 40.57 63.913 31.578 63.148 26.106zM33.541 44.569c-3.462.389-6.697-3.101-7.224-7.796-.527-4.695 1.852-8.815 5.313-9.204 3.462-.389 6.697 3.101 7.224 7.795C39.382 40.059 37.003 44.18 33.541 44.569zM41.674 50.182c-1.299 0-2.352-.67-2.352-1.497 0-.827 1.053-1.497 2.352-1.497 1.299 0 2.352.67 2.352 1.497C44.026 49.512 42.973 50.182 41.674 50.182zM55.776 36.449c-.285 4.715-3.335 8.368-6.812 8.158-3.478-.21-6.066-4.203-5.781-8.918.285-4.716 3.335-8.368 6.812-8.158C53.472 27.741 56.061 31.734 55.776 36.449z"/>
</svg>