<svg xmlns="http://www.w3.org/2000/svg" viewBox="0 0 80 80">
<path d="M75.605 39.01l-6.574.018L69 38.996l-.373-.25c-2.525-2.725-4.526-5.971-5.801-9.417-1.098-2.968-1.684-6.084-1.741-9.266l4.655-4.682c.348-.348.347-.914-.004-1.264-.168-.166-.391-.258-.628-.258-.239 0-.464.093-.633.263l-4.635 4.661h-.044l-.441.086c-3.709-.141-7.42-1.021-10.76-2.556-2.874-1.322-5.491-3.111-7.783-5.321l-.018-6.603C40.793 3.899 40.394 3.5 39.898 3.5c-.491.002-.89.403-.889.895l.018 6.573-.385.383.061.062c-2.715 2.506-5.945 4.493-9.374 5.762-2.968 1.097-6.083 1.683-9.266 1.74l-4.682-4.657c-.168-.166-.391-.258-.628-.258-.239 0-.463.093-.634.264-.346.349-.344.914.004 1.262l4.661 4.635-.002.547h.086c-.148 3.69-1.027 7.379-2.554 10.698-1.323 2.875-3.112 5.492-5.321 7.783L4.39 39.205c-.492.002-.891.404-.89.896.001.49.402.89.896.89l6.573-.018L11 41.003l.369.247c2.527 2.726 4.53 5.974 5.805 9.421 1.098 2.968 1.683 6.084 1.741 9.266l-4.655 4.682c-.168.168-.261.393-.26.632 0 .238.094.463.263.63.168.168.392.26.63.26.239 0 .463-.093.632-.263l4.636-4.661h.045l.432-.087c3.711.141 7.425 1.021 10.768 2.557 2.876 1.323 5.494 3.113 7.783 5.321l.018 6.604c.002.49.402.89.893.89h.004c.491-.002.891-.403.889-.895l-.019-6.574L41.004 69l.249-.371c2.724-2.525 5.971-4.527 9.417-5.803 2.967-1.097 6.083-1.683 9.266-1.74l4.683 4.656c.168.167.391.259.628.259.239 0 .464-.093.633-.263.168-.168.261-.393.26-.632 0-.238-.094-.463-.263-.63l-4.661-4.635v-.047l-.086-.44c.141-3.711 1.021-7.422 2.556-10.759 1.322-2.875 3.112-5.492 5.321-7.783l6.604-.018c.492-.002.891-.404.889-.896C76.499 39.409 76.098 39.01 75.605 39.01zM52.239 39.073c-.982-1.072-1.762-2.344-2.261-3.69-.409-1.107-.639-2.271-.683-3.464l2.297-2.31c.169 1.491.517 2.951 1.037 4.356.669 1.811 1.652 3.555 2.867 5.1L52.239 39.073zM49.975 40.865c-.496.684-.923 1.414-1.275 2.181-.479 1.041-.824 2.18-1.015 3.339l-5.527-5.497L49.975 40.865zM50.321 43.792c.494-1.073 1.154-2.059 1.966-2.934l3.256-.009c-.934 1.174-1.72 2.452-2.346 3.813-.807 1.754-1.346 3.683-1.579 5.633L49.31 48C49.374 46.545 49.722 45.095 50.321 43.792zM49.949 39.08l-7.797.021 5.512-5.542c.133.834.348 1.652.64 2.443C48.703 37.078 49.264 38.126 49.949 39.08zM53.282 51.951c.074-2.256.604-4.514 1.536-6.543.773-1.681 1.813-3.215 3.093-4.565l3.227-.009c-1.386 1.658-2.542 3.485-3.443 5.445-1.137 2.471-1.864 5.197-2.125 7.947L53.282 51.951zM57.842 39.058c-1.542-1.646-2.764-3.616-3.539-5.711-.641-1.732-.989-3.554-1.039-5.417l2.273-2.286c.191 2.149.667 4.259 1.416 6.285.944 2.551 2.357 4.993 4.117 7.121L57.842 39.058zM46.279 22.305c2.468 1.137 5.194 1.864 7.946 2.125l-2.275 2.288c-2.257-.073-4.515-.604-6.542-1.536-1.682-.774-3.216-1.814-4.564-3.093l-.009-3.227C42.491 20.247 44.318 21.403 46.279 22.305zM44.662 26.803c1.745.807 3.674 1.346 5.634 1.579L48 30.69c-1.454-.064-2.905-.412-4.208-1.011-1.072-.493-2.058-1.154-2.933-1.967l-.009-3.256C42.021 25.389 43.299 26.176 44.662 26.803zM46.441 47.664c-.833.134-1.651.348-2.443.641-1.076.398-2.125.96-3.078 1.645l-.021-7.796L46.441 47.664zM44.617 49.979c1.108-.409 2.272-.639 3.463-.683l2.31 2.297c-1.489.169-2.949.517-4.354 1.036-1.811.669-3.555 1.651-5.1 2.867l-.009-3.256C41.999 51.257 43.271 50.477 44.617 49.979zM46.654 54.303c1.731-.641 3.553-.99 5.417-1.039l2.286 2.273c-2.152.192-4.261.667-6.285 1.416-2.552.943-4.994 2.357-7.122 4.116l-.009-3.229C42.589 56.299 44.56 55.078 46.654 54.303zM63.496 39.042l-.256-.222c-2.006-2.177-3.597-4.767-4.613-7.512-.873-2.36-1.342-4.838-1.396-7.367l2.148-2.16c.207 2.798.803 5.54 1.775 8.168 1.21 3.271 3.047 6.392 5.343 9.086L63.496 39.042zM55.938 22.709l-.341.024c-2.956-.121-5.912-.828-8.571-2.05-2.286-1.052-4.37-2.472-6.197-4.223l-.009-3.046c2.125 1.832 4.485 3.351 7.031 4.521.432.199.874.39 1.313.566 2.798 1.124 5.849 1.836 8.889 2.08L55.938 22.709zM43.045 31.301c1.06.488 2.178.829 3.337 1.017l-5.495 5.525-.021-7.817C41.549 30.521 42.278 30.948 43.045 31.301zM40.966 66.497l-.009-3.001.225-.259c2.177-2.005 4.766-3.596 7.51-4.611 2.358-.872 4.836-1.342 7.368-1.396l2.159 2.147c-2.797.207-5.539.803-8.168 1.775C46.778 62.363 43.658 64.2 40.966 66.497zM57.292 55.938l-.024-.361c.123-2.95.829-5.899 2.049-8.552 1.052-2.287 2.473-4.371 4.223-6.198l3.046-.008c-1.832 2.125-3.35 4.485-4.521 7.03-1.458 3.169-2.365 6.675-2.646 10.203L57.292 55.938zM36.955 48.699c-1.059-.488-2.178-.828-3.337-1.017l5.496-5.526.021 7.818C38.451 49.479 37.721 49.052 36.955 48.699zM30.025 39.135c.496-.685.923-1.415 1.275-2.181.479-1.041.824-2.179 1.015-3.337l5.527 5.496L30.025 39.135zM29.68 36.209c-.494 1.073-1.155 2.059-1.966 2.933l-3.255.009c.932-1.172 1.719-2.45 2.345-3.812.807-1.755 1.345-3.683 1.578-5.634l2.309 2.297C30.626 33.455 30.278 34.905 29.68 36.209zM27.761 40.927c.982 1.072 1.762 2.344 2.261 3.69.409 1.107.639 2.271.683 3.464l-2.297 2.31c-.169-1.491-.517-2.952-1.036-4.356-.669-1.81-1.652-3.554-2.868-5.099L27.761 40.927zM37.848 40.898l-5.512 5.542c-.133-.834-.348-1.652-.64-2.443-.397-1.074-.959-2.122-1.645-3.077L37.848 40.898zM26.718 28.05c-.074 2.255-.604 4.513-1.537 6.542-.773 1.68-1.812 3.215-3.092 4.565l-3.227.008c1.385-1.655 2.541-3.482 3.443-5.444 1.136-2.472 1.864-5.198 2.125-7.947L26.718 28.05zM33.559 32.336c.833-.134 1.651-.348 2.444-.641 1.075-.397 2.123-.958 3.078-1.645l.021 7.797L33.559 32.336zM35.383 30.021c-1.107.409-2.271.639-3.464.684l-2.31-2.297c1.491-.17 2.952-.518 4.356-1.037 1.811-.669 3.555-1.651 5.1-2.867l.009 3.257C38 28.744 36.729 29.523 35.383 30.021zM33.346 25.697c-1.731.641-3.553.99-5.417 1.039l-2.285-2.272c2.151-.192 4.261-.667 6.285-1.416 2.551-.943 4.993-2.357 7.122-4.117l.009 3.228C37.41 23.702 35.439 24.924 33.346 25.697zM22.158 40.942c1.543 1.646 2.764 3.617 3.539 5.712.641 1.73.989 3.552 1.039 5.417l-2.273 2.286c-.191-2.15-.666-4.26-1.415-6.286-.944-2.551-2.358-4.993-4.117-7.121L22.158 40.942zM33.721 57.695c-2.463-1.137-5.19-1.863-7.948-2.124l2.276-2.289c2.248.073 4.506.604 6.542 1.536 1.682.773 3.216 1.813 4.564 3.093l.009 3.228C37.508 59.752 35.681 58.597 33.721 57.695zM35.337 53.197c-1.754-.807-3.683-1.346-5.634-1.579L32 49.31c1.457.064 2.907.412 4.208 1.011 1.074.495 2.06 1.156 2.933 1.967l.009 3.255C37.978 54.609 36.699 53.823 35.337 53.197zM39.035 13.503l.008 3.001-.231.265c-2.175 2.003-4.762 3.592-7.503 4.605-2.361.873-4.839 1.343-7.368 1.396l-2.16-2.147c2.798-.207 5.541-.803 8.168-1.774C33.223 17.637 36.342 15.799 39.035 13.503zM22.709 24.063l.023.347c-.122 2.956-.828 5.909-2.049 8.564-1.053 2.287-2.473 4.371-4.223 6.198l-3.046.008c1.832-2.125 3.35-4.485 4.521-7.03 1.458-3.171 2.365-6.677 2.646-10.203L22.709 24.063zM16.503 40.958l.271.236c2 2.175 3.586 4.759 4.599 7.498.873 2.359 1.342 4.837 1.396 7.366l-2.147 2.16c-.208-2.797-.803-5.539-1.775-8.168-1.21-3.271-3.048-6.392-5.344-9.085L16.503 40.958zM24.063 57.291l.338-.024c2.96.122 5.917.828 8.574 2.05 2.286 1.052 4.37 2.472 6.197 4.223l.009 3.046c-2.125-1.832-4.485-3.35-7.031-4.521-3.17-1.457-6.675-2.364-10.203-2.646L24.063 57.291z"/>
</svg>