<svg xmlns="http://www.w3.org/2000/svg" viewBox="0 0 80 80">
<path d="M56.387 23.404c-2.921-1.75-6.045-2.48-9.367-2.091-1.496-.804-3.063-1.348-4.657-1.638 1.249-3.919 3.566-6.444 3.566-6.444L40 12c-1.314 3.027-1.994 5.603-2.345 7.559-1.856.245-3.687.833-5.418 1.767-3.456-.431-6.641.343-9.629 2.181C13.971 24.745 7.485 34.256 7.485 45.748c0 11.493 6.486 21.003 15.123 22.24 2.473 1.521 5.12 2.293 7.871 2.293 1.146 0 2.293-.139 3.418-.413C35.758 70.619 37.688 71 39.64 71c1.942 0 3.86-.375 5.706-1.116 3.763.898 7.604.266 11.04-1.793 9.065-.594 16.129-10.343 16.129-22.343C72.515 33.748 65.452 23.999 56.387 23.404zM56.035 66.107l-.26.012-.221.137c-3.127 1.938-6.619 2.508-10.029 1.611l-.331-.088-.315.135c-3.395 1.444-7.104 1.442-10.512-.017l-.319-.137-.334.09c-3.45.928-7.043.345-10.224-1.669l-.188-.119-.221-.028C15.456 65.071 9.485 56.16 9.485 45.748c0-10.412 5.972-19.323 13.595-20.287l.221-.028.188-.119c2.202-1.394 4.553-2.1 6.989-2.1.584 0 1.191.046 1.806.137l.339.05.299-.168c4.252-2.402 9.152-2.41 13.412-.014l.294.165.334-.047c3.055-.429 5.911.242 8.591 1.902l.221.137.26.012c8.12.374 14.481 9.317 14.481 20.36C70.515 56.792 64.155 65.734 56.035 66.107zM30.119 30.478 24.012 40.897 35.966 40.897ZM40.194 42.239 36.08 49.257 44.132 49.257ZM44.132 40.897 56.086 40.897 50.24 30.478ZM49.521 55.628l-3.234.719-.44-3.522c-3.743.672-7.259.546-10.308.064l-.595 3.141-3.748-.761-.219-3.424c-3.857-1.158-6.249-2.588-6.249-2.588 0 0 2.031 9.745 11.664 11.747l1.63-4.656 3.952.359.431 4.521c11.311-1.337 13.076-11.971 13.076-11.971-1.884 1.097-3.762 1.927-5.607 2.541L49.521 55.628z"/>
</svg>