<svg xmlns="http://www.w3.org/2000/svg" viewBox="0 0 80 80">
<path d="M78.013 43.359l-.029-.099c-1.695-5.814-3.16-10.837-9.279-13.772-2.995-1.438-7.647-1.931-7.844-1.95-.242-.031-.474.118-.557.35-3.344 9.242-10.756 11.458-12.249 11.817-.117-2.345-1.06-4.783-2.138-6.355-.064-.093-.161-.137-.257-.137-.126 0-.251.075-.3.214-1.194 3.359-2.894 5.571-5.285 5.571-2.423 0-4.152-2.272-5.332-5.713-.048-.141-.174-.217-.301-.217-.095 0-.19.043-.255.134-1.096 1.543-2.061 3.924-2.23 6.269-1.46-.348-8.908-2.548-12.262-11.819-.083-.23-.312-.383-.557-.35-.197.02-4.849.512-7.844 1.949-6.119 2.937-7.583 7.958-9.279 13.771l-.029.1C1.92 43.351 2.015 43.6 2.22 43.725c.206.128.469.099.645-.064.068-.064 6.485-5.981 11.567-5.738-.749 1.179-2.059 3.607-2.142 6.288-.006.192.092.373.256.473.164.102.369.104.537.011.044-.024 4.168-2.291 8.536-2.729-.333 1.09-.543 3.115 1.023 5.736.082.137.222.23.38.254.026.004.053.006.079.006.131 0 .26-.049.358-.138.038-.035 3.824-3.389 9.186-3.156 1.269 3.842 4.08 6.678 7.35 6.678 3.209 0 5.971-2.72 7.276-6.439 5.409-.254 9.23 3.121 9.268 3.155.099.089.227.138.358.138.026 0 .053-.002.079-.006.158-.023.298-.117.38-.254 1.566-2.621 1.356-4.646 1.023-5.736 4.361.438 8.492 2.705 8.535 2.729.168.094.374.089.538-.011.164-.1.262-.28.256-.473-.084-2.681-1.394-5.109-2.143-6.288 5.071-.291 11.5 5.676 11.568 5.739.175.163.44.191.645.064C77.985 43.838 78.08 43.59 78.013 43.359zM23.259 46.611c-1.546-3.003-.409-4.869-.359-4.948.11-.167.116-.382.018-.556-.099-.175-.283-.285-.487-.271-3.731.155-7.364 1.693-8.987 2.476.434-2.951 2.328-5.456 2.349-5.483.112-.146.141-.34.076-.513-.064-.172-.213-.3-.394-.336-4.294-.877-9.506 2.745-11.953 4.713 1.464-4.871 3.109-9.02 8.236-11.48 2.332-1.118 5.885-1.647 7.083-1.801 3.772 9.879 12.055 11.929 13.098 12.149.027 1.042.163 2.06.398 3.029C27.838 43.509 24.493 45.672 23.259 46.611zM39.995 50.345c-3.767 0-7.071-4.75-7.071-10.166 0-1.946.646-3.848 1.378-5.242 1.422 3.36 3.36 5.062 5.773 5.062 2.359 0 4.273-1.648 5.703-4.905.716 1.43 1.299 3.307 1.299 5.085C47.077 45.594 43.768 50.345 39.995 50.345zM64.526 37.218c-.181.036-.33.164-.395.336-.064.173-.035.367.077.513.021.027 1.916 2.525 2.349 5.483-1.623-.782-5.256-2.32-8.987-2.476-.208-.014-.388.096-.487.271-.099.174-.092.389.018.556.013.021 1.203 1.908-.359 4.948-1.24-.944-4.605-3.125-9.14-3.019.253-.967.408-1.983.454-3.028.983-.206 9.316-2.229 13.106-12.152 1.196.153 4.75.683 7.082 1.802 5.126 2.46 6.772 6.609 8.235 11.48C74.032 39.962 68.822 36.345 64.526 37.218zM43.331 40.199c-.078-.011-.156-.016-.234-.016-1.207 0-2.325 1.288-2.561 3.001-.25 1.823.591 3.445 1.883 3.626.075.01.149.015.223.015 1.21 0 2.335-1.282 2.571-2.999C45.464 42.002 44.623 40.379 43.331 40.199zM44.222 43.688c-.175 1.277-.958 2.134-1.579 2.134-.031 0-.062-.002-.084-.005-.191-.027-.375-.148-.536-.331.764.022 1.456-.625 1.579-1.522.13-.951-.427-1.814-1.245-1.926-.135-.019-.267-.008-.396.014.323-.543.76-.868 1.137-.868.031 0 .063.002.095.007C43.829 41.28 44.409 42.327 44.222 43.688zM36.904 40.183c-.078 0-.156.005-.234.016-1.292.18-2.133 1.803-1.883 3.626.236 1.717 1.361 2.999 2.571 2.999.074 0 .148-.005.223-.015 1.292-.18 2.133-1.803 1.883-3.626C39.23 41.471 38.111 40.183 36.904 40.183zM37.451 45.816c-.031.004-.062.006-.092.006-.621 0-1.404-.858-1.579-2.134-.187-1.361.393-2.409 1.029-2.498.032-.004.063-.007.095-.007.383 0 .827.332 1.151.889-.159-.039-.323-.057-.491-.034-.818.112-1.375.975-1.245 1.926.128.93.866 1.596 1.663 1.521C37.822 45.668 37.64 45.79 37.451 45.816z"/>
</svg>