<svg xmlns="http://www.w3.org/2000/svg" viewBox="0 0 80 80">
<path d="M52.364 34.885c-.483-.361-.867-.52-1.281-.525-.308.006-.625.041-.955.112l-.001 3.777c.601.017 1.198-.088 1.763-.284.43-.148.804-.442 1.081-.848C53.151 36.745 52.956 35.329 52.364 34.885zM65.396 42.849l-3.054.359.463 4.525.015.142c.034.329-.118.634-.37.812l-3.397 2.394c-.001 1.097-.018 4.319-.013 4.338 0 .201-.097.381-.242.497l-5.788 4.545-.449-.518 5.071-4.857-.01-4.374c0-.207.088-.394.229-.523.021-.021 1.942-1.763 2.868-2.604l-1.451-5.41c-.238-.847.412-1.705 1.284-1.739 0 0 3.058-.359 4.616-.543-.877-9.46-3.191-18.603-8.415-23.212-9.197-8.115-20.61-9.199-28.936-4.02l7.635 2.702c.665.192 1.042.905.808 1.56-.078.222-.219.409-.391.544l-5.086 3.988 4.277.083.062.001c.531-.007.841.666.503 1.066l-3.141 3.97-.532-.363 1.91-3.286-5.367.104c-.444.009-.811-.344-.819-.788-.005-.256.108-.479.289-.635 0 0 2.973-2.841 4.734-4.523l-7.613-2.392c-2.629 2.301-4.815 5.343-6.322 9.111-.517 1.292-.97 2.691-1.376 4.157l5.094-1.056.16-.033c.32-.066.635.087.789.356l1.976 3.465-.623.467-2.301-2.376-5.808 2.042c-3.648 16.487-1.868 39.673-1.868 39.673h49.557C64.365 70.498 66.271 56.803 65.396 42.849zM33.661 46.417l-5.362-3.819-.163 3.374-2.665-.129.521-10.804c.012-.244.03-.613.187-1.004.33-.812 1.122-1.379 2.122-1.516 2.592-.355 4.648.395 5.793 2.111.962 1.445 1.33 3.721.114 5.094-.594.672-1.693 1.174-3.04 1.642l4.039 2.877L33.661 46.417zM41.911 46.113l-2.667-.055c.073-3.597.03-10.618-.135-14.28l2.665-.119C41.941 35.369 41.985 42.475 41.911 46.113zM50.125 45.913h-2.669l.003-12.474c0-.599.398-1.123.974-1.284.799-.226 1.698-.457 2.689-.464.993.015 1.896.351 2.841 1.058 1.78 1.334 2.19 4.439 1.211 5.873-.603.882-1.436 1.526-2.411 1.864-.845.294-1.733.42-2.637.431L50.125 45.913zM31.874 36.112c-.701-1.052-2.132-1.097-3.21-.948-.002 0-.005 0-.007.001 0 .001 0 .002 0 .004l-.206 4.269c.098-.03.2-.062.307-.095.831-.256 3.038-.937 3.453-1.387C32.412 37.729 32.341 36.812 31.874 36.112z"/>
</svg>