<svg xmlns="http://www.w3.org/2000/svg" viewBox="0 0 80 80">
<path d="M61.34 30.72c-7.373-6.209-13.97-5.821-16.687-8.149-2.716-2.328-4.334-4.4-6.597-8.925-3.493-6.985-1.552-6.985-6.985-6.597-5.433.388-8.925 5.433-7.761 7.373.893 1.488 3.493 1.552 5.045 1.164.842-.211 1.164-2.328.388-1.94-.347.174-2.716.388-2.716-.776 0-1.227 5.045-2.716 5.433-1.94 1.355 2.711 2.716 11.254-1.552 12.806-2.777 1.01-11.254 3.881-15.522 12.03-3.986 7.609-4.269 22.507 3.881 29.493 8.149 6.985 17.075 8.149 24.836 7.761 7.761-.388 21.731-4.657 24.06-13.582C69.492 50.513 68.713 36.929 61.34 30.72zM57.063 39.258c0 0-3.487 7.329-7.369 6.881-5.817-.672-7.369-6.881-7.369-6.881H57.063zM40.374 46.158c2.339 0 3.504 5.13.011 5.13C36.892 51.288 38.056 46.158 40.374 46.158zM38.436 39.258c0 0-3.493 6.388-7.369 6.881-3.876.493-7.369-6.881-7.369-6.881H38.436zM60.635 59.825c-3.564 6.209-10.161 8.149-10.161 8.149l-3.493-6.209-1.94 7.373h-5.669l-1.705-6.597L33.4 67.974c0 0-8.149-2.328-12.03-8.537-3.881-6.209-4.269-15.91-4.269-15.91 0 0 5.821 6.985 12.418 10.09l.388 6.209 3.881-4.657c0 0 5.045 1.164 15.522 0l1.986 4.657 1.894-6.597c0 0 6.985-5.433 10.09-12.03C63.28 41.198 64.199 53.616 60.635 59.825z"/>
</svg>