<svg xmlns="http://www.w3.org/2000/svg" viewBox="0 0 80 80">
<path d="M32.899 19.511l-12.602 5.401c-.449.193-.965-.053-1.1-.523l-3.186-11.151c-.095-.331.328-.558.552-.297l4.808 5.609 10.277-7.065c2.666-1.833 6.341-.835 7.713 2.096l18.513 40.511c0 0 7.67-.852 13.378-4.965.345-.249.801.106.66.507-1.381 3.932-7.453 15.414-31.328 15.799C29.223 65.616 14.13 60.954 8.179 53.462c-.155-.195-.155-.471-.011-.674l3.977-5.568c.181-.254.581-.125.581.186v4.763c0 0 7.685 1.921 11.527 1.921L32.899 19.511z"/>
</svg>