<svg xmlns="http://www.w3.org/2000/svg" viewBox="0 0 80 80">
<path d="M61.863 30.1c-4.69-3.95-9.116-5.314-12.348-6.312-1.915-.59-3.427-1.057-4.334-1.834-2.767-2.371-4.262-4.397-6.398-8.672-.886-1.771-1.42-3.095-1.811-4.062-1.3-3.222-1.704-3.286-5.659-3.004l-.3.021c-3.927.28-6.917 2.775-8.138 5.123-.704 1.353-.797 2.588-.263 3.479 1.156 1.926 4.185 1.972 5.938 1.534.794-.198 1.236-1.031 1.386-1.745.154-.735.013-1.314-.398-1.632-.324-.25-.758-.278-1.113-.098-.333.107-1.276.102-1.542-.005.541-.609 3.095-1.397 3.955-1.375.841 1.91 1.747 6.636.601 9.512-.402 1.01-.994 1.645-1.81 1.94l-.25.091c-3.123 1.129-11.421 4.129-15.715 12.326-4.075 7.779-4.497 23.141 4.072 30.486 6.35 5.443 13.65 8.021 22.811 8.021.849 0 1.713-.021 2.594-.065 6.977-.35 22.22-4.277 24.805-14.188C70.478 49.936 69.207 36.284 61.863 30.1zM66.375 59.232c-2.129 8.162-15.171 12.568-23.314 12.976-9.955.502-17.664-1.906-24.267-7.567-7.843-6.723-7.424-21.369-3.689-28.498 4-7.638 11.867-10.482 14.828-11.553l.252-.091c1.259-.458 2.188-1.422 2.764-2.866 1.409-3.535.27-9-.763-11.066-.348-.696-1.268-.841-2.895-.457-.681.161-4.077 1.049-4.077 2.761 0 .553.271 1.024.762 1.328.627.388 1.583.442 2.297.366-.04.112-.084.204-.116.233-1.34.336-3.526.246-4.15-.794-.22-.365-.098-1.108.311-1.894.979-1.883 3.529-4.017 6.812-4.251l.301-.021c1.604-.116 2.571-.186 2.975.022.324.167.56.724 1.062 1.968.4.993.949 2.352 1.864 4.181 2.222 4.444 3.873 6.675 6.795 9.18 1.163.996 2.817 1.507 4.912 2.152 3.271 1.009 7.342 2.264 11.78 6.001C67.651 37.098 68.781 50.008 66.375 59.232zM31.067 46.138c3.876-.492 7.369-6.881 7.369-6.881H23.698C23.698 39.258 27.19 46.631 31.067 46.138zM49.694 46.138c3.882.448 7.369-6.881 7.369-6.881H42.325C42.325 39.258 43.877 45.467 49.694 46.138zM40.385 51.288c3.493 0 2.328-5.13-.011-5.13C38.056 46.158 36.892 51.288 40.385 51.288zM53.191 53.228l-1.895 6.597-1.986-4.657c-10.478 1.164-15.522 0-15.522 0l-3.88 4.657-.388-6.209c-6.597-3.104-12.418-10.09-12.418-10.09 0 0 .388 9.701 4.269 15.91 3.881 6.209 12.03 8.537 12.03 8.537l4.269-5.433 1.705 6.597h5.668l1.94-7.373 3.492 6.209c0 0 6.597-1.94 10.161-8.149 3.564-6.209 2.645-18.627 2.645-18.627C60.176 47.795 53.191 53.228 53.191 53.228z"/>
</svg>