<svg xmlns="http://www.w3.org/2000/svg" viewBox="0 0 80 80">
<path d="M71.496 56.052l-15.741.542-4.904-7.44c.413-.409.814-.845 1.198-1.301 1.513.78 3.207 1.191 4.928 1.191 4.935 0 9.152-3.281 10.377-8.023l1.904-.229c.133-.016.253-.084.336-.189.082-.105.119-.239.103-.372l-.743-5.976c-.034-.274-.286-.479-.558-.437l-1.604.191c-1.708-3.905-5.519-6.407-9.815-6.407-2.542 0-4.986.895-6.928 2.528-.37-.262-.767-.521-1.184-.776l3.207-8.292 16.818-3.877c.463-.103.749-.53.665-.997-.086-.474-.51-.771-.997-.711l-18.151 2.824c-.153.024-.287.118-.362.254l-4.964 8.968c-.099-.038-.198-.075-.299-.113l-1.502-9.969 10.55-9.314c.354-.308.401-.818.111-1.188-.292-.373-.805-.448-1.196-.173l-12.378 8.901c-.135.097-.213.253-.209.419l.211 10.08c-.244-.049-.499-.077-.746-.121-1.701-.339-3.318-.518-4.812-.582l-1.919-6.969 7.18-13.926c.216-.424.067-.921-.349-1.157-.414-.235-.915-.112-1.167.289l-8.789 14.045c-.061.098-.087.213-.073.327l.894 7.407c-.632.053-1.271.133-1.936.243l-3.774-12.159c-.081-.261-.357-.409-.619-.333L8.232 17.866c-.459.136-.721.585-.608 1.047.112.461.547.743 1.021.648l14.108-2.924 1.959 10.128c-5.597 2.083-9.728 6.354-11.156 11.539l-2.25.273c-.133.016-.253.084-.335.189-.083.104-.12.238-.103.37l1.046 8.575c.016.133.084.254.19.336.106.082.239.117.372.103l1.989-.249c2.39 4.585 7.445 7.907 13.354 8.775l.174 10.249-12.64-.97c-.478-.054-.884.278-.943.756-.058.479.256.892.728.961l14.978 2.318c.137.021.277-.015.386-.101.109-.086.179-.213.191-.351l1.152-12.653c.716-.024 1.419-.083 2.104-.175l.074-.011.461 7.423c.007.121.059.235.144.321l11.83 12c.174.173.396.261.618.261.209 0 .418-.077.587-.233.35-.322.382-.839.075-1.201L37.526 63.068l.396-7.104c1.843-.453 3.615-1.047 5.281-1.768l1.926 9.734c.037.19.182.342.369.39l17.333 4.39c.459.115.906-.141 1.042-.596.136-.455-.101-.918-.559-1.077l-15.412-5.149-.666-9.848c.154-.102.308-.203.46-.307l6.604 7.745c.108.126.272.194.438.174l16.896-1.869c.478-.057.807-.461.768-.938C72.359 56.372 71.968 56.014 71.496 56.052zM50.804 19.258l14.213-2.212-13.432 3.097c-.162.038-.296.153-.355.309l-3.293 8.516c-.667-.346-1.33-.654-1.988-.939L50.804 19.258zM41.167 16.329l9.987-7.182-8.746 7.722c-.128.113-.189.283-.164.452l1.482 9.84c-.794-.275-1.577-.512-2.347-.712L41.167 16.329zM37.73 6.916l-5.822 11.292c-.058.112-.071.242-.038.364l1.891 6.865c-.759-.007-1.479.014-2.159.054l-.888-7.363L37.73 6.916zM23.642 15.946c-.025-.132-.103-.248-.215-.322-.112-.075-.248-.101-.381-.074l-11.248 2.331 12.266-3.548 3.613 11.642c-.885.171-1.567.347-2.003.472L23.642 15.946zM15.206 47.139c-.094-.193-.303-.299-.514-.278l-1.84.23-.925-7.575 2.089-.254c.207-.025.377-.175.427-.377 1.289-5.132 5.404-9.363 11.01-11.317.002-.001.003-.002.005-.003l0 .001c.065-.025 3.654-1.275 8.924-1.115.007 0 .013.007.02.007 1.531.067 3.034.228 4.495.468 3.372.612 7.114 1.881 10.913 4.273l.003-.004c.189.117.435.103.603-.049 1.802-1.636 4.132-2.536 6.56-2.536 4.012 0 7.557 2.406 9.03 6.13.084.213.302.346.527.314l1.483-.177.619 4.978-1.75.21c-.211.025-.384.182-.431.389-1.001 4.467-4.899 7.586-9.48 7.586-1.689 0-3.351-.436-4.805-1.262-.206-.117-.463-.069-.62.105l-.003-.003c-8.931 9.996-22.787 8.891-23.171 8.861 0 0 0 0-.001 0C22.478 54.997 17.431 51.702 15.206 47.139zM29.741 68.916l-10.859-1.681 9.585.735c.145.007.281-.038.384-.135.103-.098.16-.233.158-.375l-.182-10.69c.272.012.626.023 1.077.023.282 0 .602-.006.944-.016L29.741 68.916zM44.828 73.358l-9.351-9.483-.464-7.48c.609-.092 1.239-.2 1.896-.337l-.398 7.152c-.007.128.035.253.117.351L44.828 73.358zM47.263 62.735l12.322 4.117-13.532-3.428-1.936-9.786c.715-.344 1.431-.714 2.141-1.136l.662 9.79C46.934 62.496 47.07 62.671 47.263 62.735zM54.89 58.624l-6.461-7.579c.546-.402 1.083-.834 1.612-1.295l5.03 7.631c.097.146.255.256.437.226l12.448-.428L54.89 58.624zM60.657 39.651c-1.182.596-1.722 1.902-1.215 2.915.506 1.024 1.879 1.373 3.061.788 1.182-.585 1.733-1.891 1.215-2.915C63.211 39.415 61.838 39.066 60.657 39.651zM60.285 36.613c1.294.281 2.532-.382 2.779-1.497.248-1.114-.596-2.25-1.879-2.543-1.294-.281-2.543.394-2.791 1.508C58.147 35.195 58.991 36.331 60.285 36.613zM40.907 47.641 39.343 32.73 32.062 39.325 23.745 35.33 24.781 49.025 32.242 43.477z"/>
</svg>