<svg xmlns="http://www.w3.org/2000/svg" viewBox="0 0 80 80">
<path d="M64.407 18.114c-9.713 1.367-17.4 12.547-17.4 12.547 0 0 2.795 1.344 2.083 5.963-.711 4.619-3.876 5.588-3.876 5.588-.657-2.102-.331-6.909-.331-6.909C40.504 38.442 40 42.947 40 42.947c0 0-.504-4.504-4.883-7.642 0 0 .326 4.807-.331 6.909 0 0-3.165-.969-3.876-5.588-.711-4.619 2.083-5.963 2.083-5.963 0 0-7.687-11.179-17.4-12.547-9.713-1.368-12.54 3.921-12.54 3.921 0 0 5.581-.204 8.734 3.93 3.153 4.134 2.12 6.985.729 8.659 0 0 4.082.121 6.477 3.581 2.146 3.099 1.943 6.49.238 8.583 0 0 5.007-3.576 8.8 1.95 4.478 6.523 4.36 13.375 11.969 13.375 7.608 0 7.491-6.852 11.969-13.375 3.793-5.526 8.8-1.95 8.8-1.95-1.705-2.092-1.907-5.483.238-8.583 2.395-3.46 6.477-3.581 6.477-3.581-1.391-1.674-2.424-4.525.729-8.659 3.153-4.134 8.734-3.93 8.734-3.93C76.947 22.037 74.12 16.747 64.407 18.114z"/>
</svg>