<svg xmlns="http://www.w3.org/2000/svg" viewBox="0 0 80 80">
<path d="M66.76 19.999l-.059-.126c-2.794-6.044-5.876-8.926-9.145-8.569-3.43.386-6.224 4.639-6.587 8.212-.163 1.564-.959 2.475-1.607 2.966-.917-5.5-3.208-8.421-5.494-10.939-1.546-1.705-4.668-3.235-7.651-2.837-1.77.23-4.255 1.231-6.042 4.687-2.088 4.045-1.417 8.707-.629 11.614-2.828-2.131-7.907-5.631-11.746-6.45-1.349-.28-2.527-.085-3.501.588-1.559 1.076-2.593 3.377-3.164 7.033-.773 5.022-.262 16.179 2.129 16.759 2.072.511 2.813-.709 3.355-1.602.459-.756.781-1.227 1.597-1.379 1.124-.215 1.955.178 2.836.594.873.412 1.862.878 3.017.539 1.091-.316 1.625-.946 2.096-1.502.473-.558.962-1.135 2.175-1.612.712-.28 2.122-.635 3.557.158 1.675.924 2.89 3.156 3.513 6.454 1.384 7.369.169 8.18-3.077 10.347-1.898 1.264-4.583 1.083-7.18.91-1.898-.129-3.861-.26-5.529.182-4.042 1.057-7.252 4.528-6.949 6.525.257 1.686 2.657 1.506 5.437 1.298 1.17-.089 2.38-.176 3.388-.13 2.938.133 6.926 2.196 8.939 4.035 1.825 1.65 7.686 5.594 13.604 5.594 2.898 0 5.81-.946 8.267-3.57 6.171-6.592 3.278-16.464 1.166-23.673-.475-1.62-.923-3.15-1.22-4.472l-.254-1.116c-1.463-6.409-1.956-8.568 1.639-10.676 2.274-1.336 3.327-.513 4.442.355.732.572 1.563 1.218 2.621.861 1.177-.399 1.533-1.25 1.793-1.871.256-.613.442-1.057 1.318-1.391 1.026-.396 1.687-.183 2.387.043.615.199 1.311.425 2.063.041C69.995 26.981 69.374 25.641 66.76 19.999zM67.533 26.456c-.144.072-.365.013-.839-.141-.757-.243-1.901-.614-3.453-.015-1.514.577-1.923 1.554-2.222 2.267-.24.573-.356.812-.831.974-.223.074-.573-.179-1.122-.606-1.204-.939-3.024-2.358-6.235-.476-4.605 2.701-3.865 5.946-2.389 12.413l.253 1.111c.307 1.37.763 2.925 1.245 4.57 2.115 7.22 4.748 16.204-.799 22.129-6.583 7.032-17.158.118-19.626-2.114-2.265-2.068-6.604-4.298-9.941-4.448-.223-.011-.451-.016-.685-.016-.925 0-1.924.074-2.897.147-1.226.091-3.247.241-3.742-.021 0-.98 2.333-3.758 5.779-4.658 1.417-.375 3.165-.257 5.015-.134 2.863.192 5.824.391 8.174-1.175 3.957-2.641 5.212-4.254 3.762-11.974-.725-3.837-2.176-6.381-4.312-7.56-1.489-.821-3.235-.909-4.917-.245-1.587.624-2.265 1.424-2.81 2.066-.417.492-.692.817-1.324 1-.547.165-1.047-.055-1.885-.45-.973-.46-2.183-1.034-3.816-.719-1.557.291-2.199 1.349-2.668 2.121-.483.797-.658 1.086-1.497.903-.873-1.071-1.918-9.273-1.038-14.985.492-3.153 1.331-5.159 2.492-5.962.607-.42 1.348-.53 2.261-.339 5.108 1.09 12.848 7.51 13.175 7.782.282.234.687.24.983.021.297-.218.402-.619.261-.959-.516-1.239-2.953-7.685-.291-12.84 1.179-2.28 2.803-3.57 4.827-3.835 2.413-.309 5.024.964 6.26 2.326 2.362 2.604 4.542 5.421 5.258 11.22.029.238.164.45.366.578.203.129.452.158.679.084.13-.043 3.185-1.096 3.574-4.819.295-2.902 2.619-6.499 5.171-6.786 3.136-.326 5.816 3.972 7.517 7.651 0 0 0 0 0 0l.059.127c1.424 3.074 2.453 5.295 2.312 5.728C67.619 26.399 67.598 26.422 67.533 26.456zM40.616 27.449c-1.52.37-2.11 2.55-1.43 5.38.67 2.83 2.88 5.11 3.88 4.87 1.1-.27 1.94-3.27 1.27-6.1C43.656 28.769 42.245 27.069 40.616 27.449zM41.906 24.089c.84 0 1.95-1.47 1.95-3.03-.01-1.56-.73-2.62-1.97-2.62-1.15.01-1.95 1.08-1.94 2.64C39.946 22.639 41.156 24.099 41.906 24.089zM35.096 20.119c-1.04.5-1.3 1.81-.62 3.21.67 1.41 2.39 2.21 3.07 1.88.75-.37 1.13-2.17.45-3.58C37.316 20.229 36.206 19.579 35.096 20.119z"/>
</svg>