<svg xmlns="http://www.w3.org/2000/svg" viewBox="0 0 80 80">
<path d="M31.58 51.948 11.18 69.79 68.81 69.79 48.422 51.948zM9.128 34.439 9.128 68.308 29.195 50.75zM50.794 50.75 70.873 68.308 70.873 34.439zM65.028 28.076 65.028 36.009 70.095 31.881zM15.912 27.285 9.894 31.881 15.912 36.774zM48.446 49.477 62.557 38.01V18.87H18.383v19.906l13.172 10.7H48.446zM28.404 23.22c1.742-1.409 3.621-1.977 5.585-1.68 2.57.395 4.622 2.236 5.783 3.522 1.149-1.285 3.213-3.126 5.782-3.522 1.952-.297 3.831.272 5.585 1.68 1.804 1.458 2.719 3.336 2.694 5.56-.074 7.302-10.207 15.692-13.308 18.089-.223.173-.494.26-.754.26-.272 0-.532-.087-.754-.26C35.917 44.472 25.785 36.082 25.71 28.78 25.686 26.556 26.588 24.678 28.404 23.22zM39.772 9.047 30.159 16.399 49.534 16.399z"/>
</svg>