<svg xmlns="http://www.w3.org/2000/svg" viewBox="0 0 80 80">
<path d="M49.567 30.452c-.127-.065-.285-.033-.379.075l-3.301 3.803c-.137.158-.077.396.116.477 6.184 2.583 10.542 8.695 10.542 15.805 0 9.719-8.14 17.572-17.96 17.099-8.855-.426-16.062-7.821-16.273-16.683-.174-7.274 4.215-13.564 10.501-16.207.192-.081.252-.319.115-.477l-3.3-3.801c-.094-.108-.251-.14-.379-.075-7.347 3.727-12.394 11.357-12.394 20.143 0 13.296 11.557 23.944 25.152 22.426 10.332-1.153 18.685-9.502 19.843-19.834C62.957 43.333 57.648 34.534 49.567 30.452zM34.181 23.223h-6.13c-.288 0-.443.339-.254.557l9.083 10.467c.235.271.675.034.577-.312l-2.952-10.467C34.464 23.323 34.332 23.223 34.181 23.223zM39.725 34.404l3.034-10.754c.06-.214-.101-.427-.324-.427h-6.078c-.223 0-.384.213-.324.428l3.045 10.754C39.17 34.731 39.633 34.731 39.725 34.404zM41.924 34.247l9.083-10.467c.188-.218.034-.557-.254-.557h-6.13c-.151 0-.283.1-.324.245l-2.952 10.467C41.249 34.281 41.689 34.518 41.924 34.247zM48.265 16.645l-2.824 4.638c-.137.224.025.511.287.511h5.501c.259 0 .42-.28.291-.504l-2.676-4.638C48.716 16.431 48.398 16.427 48.265 16.645zM43.55 20.677c.127.223.447.229.58.009l2.868-4.705c.137-.224-.024-.511-.287-.511h-5.53c-.257 0-.419.278-.293.502L43.55 20.677zM41.958 21.794c.258 0 .419-.278.293-.502l-2.556-4.519c-.129-.228-.456-.228-.585 0l-2.556 4.519c-.127.224.035.502.293.502H41.958zM31.805 15.981l2.868 4.705c.134.219.453.214.58-.009l2.662-4.705c.127-.224-.035-.502-.293-.502h-5.53C31.83 15.47 31.669 15.757 31.805 15.981zM27.574 21.794h5.501c.262 0 .424-.287.287-.511l-2.824-4.638c-.133-.218-.451-.215-.578.007l-2.677 4.638C27.154 21.514 27.315 21.794 27.574 21.794zM39.206 9.773c.395 0 .715-.32.715-.714V4.108c0-.394-.32-.714-.715-.714-.395 0-.715.32-.715.714v4.951C38.492 9.454 38.812 9.773 39.206 9.773zM47.72 11.169c.099.047.202.07.305.07.267 0 .524-.151.646-.409l2.12-4.473c.169-.356.017-.783-.34-.951-.356-.166-.783-.019-.952.34l-2.12 4.473C47.212 10.574 47.363 11 47.72 11.169zM55.505 15.854c.181 0 .363-.069.503-.207l3.516-3.484c.28-.277.283-.729.005-1.01-.277-.281-.73-.281-1.011-.005l-3.516 3.484c-.28.277-.283.729-.005 1.01C55.137 15.784 55.321 15.854 55.505 15.854zM30.439 10.83c.122.258.379.409.646.409.103 0 .207-.023.306-.07.356-.169.509-.595.34-.951l-2.12-4.473c-.169-.358-.596-.506-.952-.34-.356.169-.508.595-.34.951L30.439 10.83zM23.103 15.647c.14.138.322.207.503.207.184 0 .368-.07.508-.212.278-.28.276-.733-.005-1.01l-3.516-3.484c-.281-.279-.733-.278-1.011.005-.278.28-.276.733.005 1.01L23.103 15.647z"/>
</svg>