<svg xmlns="http://www.w3.org/2000/svg" viewBox="0 0 80 80">
<path d="M76.167 10.664c-.192-.324-.578-.483-.94-.371l-4.995 1.45 1.451-4.994c.105-.361-.048-.748-.372-.94-.324-.191-.737-.139-1.003.127l-6.459 6.459c-.099.099-.171.222-.21.357l-1.618 5.661c-.076.047-.159.083-.225.149l-3.982 3.982c-3.918-1.938-8.312-1.689-10.969-.735-4.143 1.488-6.65 4.965-7.806 6.976-1.155-2.011-3.661-5.487-7.804-6.976-3.737-1.341-10.91-1.313-15.358 4.27-2.392 3.003-3.38 6.29-2.937 9.77.687 5.404 4.849 11.015 12.37 16.678.495.373.965.737 1.423 1.099l-9.957 9.958c-.11-.36-.261-.72-.502-1.048-.519-.706-1.312-1.135-2.29-1.24-1.021-.108-1.924.208-2.615.912-2.152 2.198-1.651 7.584-1.447 9.182.048.373.341.666.713.713.611.078 1.775.2 3.103.2 2.147 0 4.721-.317 6.079-1.647.706-.691 1.021-1.595.912-2.615-.105-.979-.534-1.771-1.24-2.291-.328-.24-.687-.391-1.047-.501L28.569 55.12c9.151 7.72 9.645 12.369 9.648 12.411.025.432.38.767.813.773.003 0 .007 0 .01 0 .428 0 .787-.334.822-.761.005-.056.607-5.754 12.908-15.015 7.522-5.663 11.684-11.274 12.371-16.678.442-3.48-.546-6.767-2.937-9.77-.714-.896-1.503-1.635-2.331-2.262l3.59-3.59c.089-.089.146-.196.201-.302l5.561-1.589c.135-.038.258-.11.357-.209l6.459-6.46C76.306 11.4 76.358 10.989 76.167 10.664zM40.935 47.462c-.455 0-.825-.369-.825-.825 0-1.096-.24-1.993-.704-2.688l-7.601 7.601c-.183.184-.425.276-.666.276-.241 0-.482-.092-.666-.276-.368-.368-.368-.964 0-1.332l7.496-7.496c-1.094-.523-2.216-.493-2.231-.493-.453.038-.838-.336-.857-.789-.018-.454.331-.837.785-.858.107-.014 2.63-.099 4.413 1.604 1.114 1.065 1.679 2.562 1.679 4.45C41.759 47.093 41.389 47.462 40.935 47.462z"/>
</svg>