<svg xmlns="http://www.w3.org/2000/svg" viewBox="0 0 80 80">
<path d="M70.482 68.803c.046-.125.079-.255.079-.393V32.497c0-.034-.011-.066-.014-.099-.004-.04-.009-.077-.017-.116-.012-.061-.027-.12-.049-.177-.013-.036-.029-.068-.046-.102-.003-.006-.005-.012-.008-.018-.012-.023-.018-.047-.032-.07-.036-.06-.084-.112-.131-.165-.02-.022-.036-.047-.058-.068-.024-.022-.049-.042-.075-.062-.009-.008-.014-.019-.024-.027l-7.163-5.394V19.47c0-.626-.507-1.133-1.133-1.133h-9.306L40.471 9.275c-.406-.305-.966-.303-1.369.004l-11.86 9.059h-8.188c-.625 0-1.133.507-1.133 1.133v5.986l-8.037 6.14c-.009.007-.013.018-.023.025-.024.019-.047.038-.069.059-.022.021-.038.046-.058.068-.048.054-.096.108-.133.17-.014.024-.021.05-.034.075-.001.002-.002.005-.003.008-.017.034-.033.066-.046.102-.023.059-.038.12-.05.184-.007.039-.013.076-.017.116-.002.032-.013.061-.013.093v35.912c0 .138.033.269.08.393.014.037.031.07.048.105.044.088.098.169.164.243.024.026.043.054.068.078.09.085.189.159.305.211.004.002.008.001.012.003.139.061.291.098.452.098.001 0 .003.001.004.001l0 0 0 0h58.857l0 0c.001 0 .001 0 .001 0 .001 0 .002-.001.003-.001.161-.001.314-.037.452-.098.004-.002.009-.001.013-.003.116-.053.216-.127.305-.211.026-.024.045-.052.068-.078.066-.074.12-.155.164-.243C70.451 68.873 70.468 68.84 70.482 68.803zM30.1 49.825 11.704 65.914V34.876L30.1 49.825zM32.283 50.925h15.434l18.696 16.351H13.587L32.283 50.925zM68.296 65.914 49.899 49.825l18.396-14.949V65.914zM67.591 32.531l-4.644 3.773v-7.27L67.591 32.531zM39.794 11.601l8.948 6.737H30.974L39.794 11.601zM60.681 20.603v17.541L47.74 48.66H32.26l-12.073-9.81V20.603H60.681zM17.921 37.009l-5.519-4.485 5.519-4.216V37.009zM39.097 46.263c.204.158.448.237.692.237.244 0 .489-.079.693-.237 2.843-2.198 12.127-9.888 12.197-16.575.022-2.045-.809-3.762-2.47-5.102-1.604-1.294-3.325-1.813-5.117-1.537-2.359.361-4.242 2.045-5.303 3.226-1.06-1.181-2.943-2.866-5.302-3.226-1.792-.277-3.513.243-5.117 1.537-1.661 1.341-2.491 3.057-2.47 5.102C26.97 36.375 36.253 44.065 39.097 46.263zM30.793 26.349c.918-.741 1.831-1.106 2.776-1.106.188 0 .377.014.567.043 2.644.399 4.691 3.402 4.711 3.431.42.63 1.464.632 1.884 0 .02-.03 2.087-3.03 4.703-3.43 1.153-.177 2.249.171 3.352 1.062 1.109.895 1.642 1.98 1.628 3.316-.045 4.309-5.601 10.241-10.625 14.261-5.023-4.02-10.579-9.951-10.625-14.261C29.151 28.329 29.683 27.244 30.793 26.349z"/>
</svg>