<svg xmlns="http://www.w3.org/2000/svg" viewBox="0 0 80 80">
<path d="M72.153 28.254c-2.129-2.744-4.733-4.257-7.742-4.499-4.706-.361-9.09 2.485-11.082 4.029-1.092-2.271-3.733-6.793-8.11-8.56-2.798-1.13-5.805-.942-8.937.561-3.827 1.836-5.909 4.951-6.245 9.236-.826.043-1.636.216-2.426.528-3.18 1.257-5.178 4.397-6.1 6.191-1.609-1.216-4.774-3.196-8.183-2.928-2.326.169-4.343 1.32-5.996 3.418-1.706 2.167-2.26 4.565-1.646 7.128 2.077 8.672 16.62 16.002 21.028 18.042.141.066.291.097.44.097.307 0 .606-.134.811-.383 1.724-2.096 5.58-7.055 8.318-12.543 2.947 5.084 6.223 9.461 8.565 12.351.204.252.506.388.815.388.146 0 .294-.031.433-.094 12.125-5.506 25.882-14.626 28.127-23.709C75.043 34.194 74.346 31.081 72.153 28.254zM26.858 59.152C18.411 55.134 9.16 48.858 7.727 42.871c-.463-1.934-.053-3.682 1.254-5.341 1.271-1.615 2.783-2.497 4.493-2.624.151-.011.302-.017.453-.017 3.707 0 7.211 3.259 7.248 3.294.255.24.613.337.954.259.342-.079.622-.322.746-.65.018-.048 1.885-4.859 5.507-6.29 1.597-.631 3.345-.493 5.194.411l0 0c1.897.927 3.025 2.323 3.448 4.267C38.332 42.194 32.723 51.865 26.858 59.152zM72.187 37.005c-2.022 8.181-14.729 16.637-26.218 21.963-2.453-3.077-5.752-7.593-8.604-12.744 1.528-3.625 2.397-7.334 1.71-10.49-.56-2.577-2.1-4.496-4.577-5.706-.802-.393-1.594-.661-2.374-.827.274-3.54 1.925-6.016 5.068-7.523 2.575-1.235 5.009-1.407 7.236-.51 4.966 1.999 7.494 8.617 7.519 8.684.122.328.401.573.742.654.341.081.699-.014.956-.253.052-.048 5.273-4.827 10.609-4.404 2.393.195 4.493 1.437 6.244 3.693C72.3 31.867 72.853 34.308 72.187 37.005z"/>
</svg>