<svg xmlns="http://www.w3.org/2000/svg" viewBox="0 0 80 80">
<path d="M41.704 48.137c-1.383-.765-2.682-1.481-3.774-1.663-2.111-.352-4.272.85-5.303 1.554 3.992 3.884 9.357 3.277 9.406 3.264.4-.061.764.231.813.631.061.401-.231.765-.619.814-.073.012-.497.06-1.19.06-1.905 0-5.752-.412-9.017-3.337-.037.886.085 2.1.776 3.204.996 1.566 2.889 2.573 5.632 2.986 6.372.959 9.491-2.973 10.643-4.976 0 0-.012 0-.024 0C46.304 50.673 43.877 49.326 41.704 48.137zM19.458 49.666c1.117.704 2.318.825 3.204.789-3.956-4.442-3.301-9.952-3.277-10.207.061-.401.425-.68.813-.631.401.061.68.425.631.825 0 .048-.619 5.413 3.265 9.406.704-1.044 1.905-3.204 1.565-5.303-.194-1.093-.91-2.403-1.663-3.775-1.201-2.185-2.549-4.612-2.536-7.367-2.002 1.141-5.946 4.272-4.988 10.643C16.885 46.79 17.893 48.683 19.458 49.666zM61.839 22.371c-5.485-.194-11.02 3.07-16.42 9.685-.024.024-.048.049-.073.073.182.194.364.388.57.582 9.054 9.066 16.482 3.714 21.288-1.08 2.343-2.342 4.842-2.961 6.444-3.095C71.827 26.51 67.555 22.565 61.839 22.371zM57.203 21.509c1.444-8.641-4.017-13.981-6.324-15.814-.255 1.614-.898 4.381-2.524 5.996l-.316.316c-1.736 1.711-6.347 6.238-6.372 11.784-.012 2.476.899 4.903 2.719 7.221C48.574 25.939 52.858 22.759 57.203 21.509zM58.732 21.158c1.056-.194 2.112-.279 3.18-.231 1.287.036 2.5.267 3.641.594-.717-5.801-5.765-7.476-7.452-7.876C58.792 15.817 59.108 18.318 58.732 21.158zM67.081 22.044c1.214.485 2.331 1.092 3.314 1.747l1.942-.668c-2.561-2.318-4.576-3.143-5.656-3.434.194.716.352 1.48.401 2.33C67.081 22.031 67.081 22.031 67.081 22.044zM57.737 12.091c.036 0 1.287.182 2.864.874-.461-1.105-1.432-2.84-3.471-5.049l-.692 2.051c.389.668.765 1.372 1.092 2.136C57.603 12.091 57.676 12.079 57.737 12.091zM44.943 34.482l-1.617-1.81c-.218.195-21.65 19.429-36.735 39.696-.402.54-.283 1.304.259 1.701.539.395 1.293.279 1.692-.257C23.474 53.75 44.726 34.676 44.943 34.482z"/>
</svg>