<svg xmlns="http://www.w3.org/2000/svg" viewBox="0 0 80 80">
<path d="M67.313 70.204c.047-.126.08-.258.08-.398v-32.03c0-.16-.043-.309-.104-.45-.012-.03-.024-.058-.039-.086-.071-.133-.163-.25-.281-.346-.007-.006-.01-.016-.017-.022l-9.747-7.599c2.008-3.229 3.363-6.577 3.397-9.767.034-3.177-1.262-5.847-3.85-7.936-2.509-2.025-5.19-2.837-7.968-2.413-4.18.639-7.439 3.941-8.972 5.792-1.532-1.852-4.79-5.153-8.971-5.792-2.778-.424-5.459.387-7.968 2.413-2.588 2.089-3.883 4.759-3.85 7.936.034 3.255 1.444 6.674 3.52 9.964l-9.494 7.402c-.007.006-.01.016-.018.022-.117.096-.21.214-.281.346-.015.029-.026.057-.039.086-.061.141-.104.291-.104.45v32.03c0 .14.033.272.081.398.014.037.031.071.049.106.044.09.1.171.166.246.024.027.043.055.069.079.091.086.191.161.309.214.004.002.008.001.012.003.14.062.294.099.457.099.001 0 .003.001.004.001l0 0 0 0h52.494l0 0c.001 0 .001 0 .001 0 .001 0 .002-.001.003-.001.163-.001.317-.037.457-.099.004-.002.009-.001.013-.003.117-.053.218-.128.308-.214.026-.025.045-.053.069-.08.067-.075.121-.156.166-.246C67.282 70.275 67.299 70.242 67.313 70.204zM30.96 53.234 14.899 67.28V40.184L30.96 53.234zM33.169 54.348h13.662l16.363 14.312H16.805L33.169 54.348zM49.04 53.234l16.06-13.05V67.28L49.04 53.234zM24.312 13.353c1.657-1.338 3.378-2.012 5.13-2.012.346 0 .695.027 1.044.079 4.747.721 8.338 6.004 8.373 6.057.213.318.57.509.953.508h.001c.383 0 .741-.19.953-.509.036-.053 3.601-5.326 8.365-6.054 2.113-.325 4.194.326 6.181 1.931 2.043 1.649 3.023 3.653 2.997 6.128-.03 2.845-1.368 6.038-3.505 9.292-.015.017-.035.024-.049.042-.025.032-.031.071-.051.104-3.572 5.385-9.302 10.927-14.892 15.333-5.533-4.361-11.198-9.835-14.777-15.169-.016-.024-.02-.052-.038-.075-.011-.013-.026-.018-.037-.031-2.214-3.325-3.615-6.591-3.645-9.496C21.289 17.006 22.27 15.002 24.312 13.353zM39.111 46.614c.207.16.453.24.701.24.247 0 .495-.079.701-.24 3.029-2.341 10.491-8.463 15.419-15.426l8.474 6.606L46.855 52.055h-13.71L15.594 37.794l8.232-6.418C28.754 38.26 36.109 44.294 39.111 46.614z"/>
</svg>