<svg xmlns="http://www.w3.org/2000/svg" viewBox="0 0 80 80">
<path d="M55.145 25.444c.1.256.222.509.396.746.515.702 1.294 1.126 2.252 1.228.114.013.227.018.34.018.879 0 1.705-.372 2.406-1.087 1.896-1.936 2.667-6.281 2.294-9.197-.064-.497-.455-.889-.952-.952-2.915-.366-7.26.399-9.196 2.295-.807.79-1.176 1.739-1.069 2.745.102.958.527 1.737 1.229 2.253.236.173.49.294.745.395L24.886 52.591l-5.421 1.549c-.179.052-.343.148-.476.281l-5.754 5.753c-.355.355-.425.906-.169 1.338.256.434.771.642 1.254.497l3.809-1.106-1.106 3.809c-.14.483.064.998.497 1.254.174.103.368.154.56.154.285 0 .566-.111.778-.322l5.754-5.753c.132-.132.228-.296.28-.476l1.548-5.419L55.145 25.444zM54.223 20.068c1.198-1.174 4.185-1.811 6.492-1.751.071 2.309-.577 5.295-1.75 6.493-.413.421-.734.439-.939.42-.445-.047-.618-.217-.709-.34-.35-.472-.278-1.379-.227-1.653.072-.359-.042-.73-.3-.99-.209-.211-.493-.326-.785-.326-.068 0-.136.006-.205.019-.281.053-1.187.127-1.658-.225-.123-.091-.292-.264-.34-.71C53.781 20.802 53.801 20.482 54.223 20.068zM22.855 58.69l-2.521 2.52.469-1.614c.112-.386.005-.802-.278-1.086-.21-.21-.491-.322-.778-.322-.103 0-.206.014-.307.044l-1.616.469 2.522-2.521 3.515-1.005L22.855 58.69zM70.897 69.825c-4.482-3.063-4.326-7.434-4.128-12.968.192-5.372.411-11.461-3.711-17.642-4.082-6.124-10.211-7.459-10.47-7.514-.594-.12-1.175.258-1.3.851-.125.593.255 1.177.849 1.304.055.012 5.525 1.233 9.09 6.58 3.727 5.591 3.532 11.057 3.343 16.343-.036 1.008-.07 2.004-.075 2.985l-35.003-3.951c-.603-.069-1.149.367-1.217.971-.068.604.366 1.149.971 1.218l35.307 3.986c.242 3.711 1.326 7.075 5.103 9.655.19.13.406.192.62.192.351 0 .696-.168.91-.479C71.528 70.852 71.399 70.168 70.897 69.825zM21.034 49.789c.063.562.54.977 1.093.977.041 0 .083-.002.125-.006.604-.069 1.039-.614.97-1.218L19.27 14.539c.981-.005 1.978-.039 2.985-.075 5.286-.189 10.752-.385 16.343 3.343 5.336 3.558 6.563 9.014 6.579 9.09.109.518.566.874 1.076.874.074 0 .15-.008.226-.023.595-.125.977-.707.853-1.303-.054-.259-1.39-6.388-7.513-10.47-6.182-4.121-12.271-3.905-17.643-3.71-5.534.195-9.905.354-12.967-4.129C8.866 7.634 8.181 7.506 7.68 7.848c-.502.344-.631 1.029-.288 1.53 2.581 3.776 5.945 4.861 9.657 5.103L21.034 49.789z"/>
</svg>