<svg xmlns="http://www.w3.org/2000/svg" viewBox="0 0 80 80">
<path d="M76.119 10.784c-.271-.459-.818-.677-1.328-.526l-4.332 1.257 1.258-4.33c.149-.511-.068-1.057-.526-1.328-.457-.272-1.041-.197-1.417.179l-6.391 6.391c-.14.14-.242.313-.296.504l-1.743 6.101-3.398 3.397c-4.226-2.17-8.868-1.627-11.259-.77-3.867 1.389-6.325 4.48-7.605 6.551-1.279-2.071-3.738-5.162-7.604-6.551-3.263-1.171-10.72-1.778-15.589 4.337-2.427 3.048-3.43 6.389-2.98 9.929.692 5.444 4.856 11.075 12.377 16.737.476.358.929.71 1.37 1.057l-9.327 9.327c-.117-.332-.268-.662-.492-.967-.574-.781-1.442-1.253-2.511-1.367-1.12-.122-2.113.228-2.874 1.005-2.178 2.225-1.795 7.297-1.529 9.375.068.526.482.941 1.008 1.008.752.096 1.896.207 3.156.207 2.221 0 4.799-.346 6.218-1.737.777-.76 1.125-1.755 1.005-2.875-.114-1.069-.587-1.937-1.368-2.51-.304-.224-.634-.375-.966-.492l9.496-9.496c8.913 7.512 9.442 12.022 9.446 12.053.034.609.533 1.078 1.143 1.088.007.001.014.001.022.001.6 0 1.105-.468 1.161-1.067.005-.056.65-5.586 12.634-14.609 7.52-5.663 11.684-11.293 12.377-16.737.45-3.54-.552-6.881-2.98-9.929-.722-.907-1.506-1.65-2.319-2.281l3.12-3.12 5.969-1.705c.19-.055.364-.157.504-.297l6.391-6.392C76.316 11.825 76.39 11.242 76.119 10.784zM18.675 68.907c-.904.884-3.47 1.26-6.539.981-.277-3.069.096-5.635.981-6.539.262-.267.55-.362.962-.319.546.058.762.271.877.427.421.567.337 1.639.275 1.964-.076.382.043.777.319 1.053.276.276.67.393 1.053.319.264-.053 1.371-.163 1.961.272.156.115.372.332.43.881C19.038 68.357 18.942 68.645 18.675 68.907zM62.943 35.632c-.61 4.795-4.468 9.899-11.467 15.169-7.574 5.704-10.918 10.196-12.394 13.013-1.23-2.347-3.767-5.861-8.958-10.267l9.181-9.182c.314.591.486 1.316.486 2.191 0 .644.522 1.165 1.165 1.165.643 0 1.165-.521 1.165-1.165 0-1.966-.596-3.533-1.77-4.655-1.871-1.787-4.512-1.683-4.624-1.684-.64.03-1.134.57-1.108 1.211.025.641.576 1.171 1.207 1.117.013.002.82-.012 1.693.309l-9.206 9.207c-.522-.414-1.058-.832-1.626-1.26-6.999-5.27-10.857-10.374-11.466-15.169-.368-2.893.47-5.647 2.49-8.183 2.524-3.169 6.093-4.215 9.121-4.215 1.474 0 2.821.248 3.856.62 4.97 1.785 7.293 7.228 7.317 7.283.181.434.605.716 1.075.716.47 0 .895-.282 1.077-.716.023-.055 2.346-5.498 7.317-7.283 2.354-.846 6.321-1.049 9.742.851.016.019.023.043.04.061.149.149.331.23.519.282.962.613 1.873 1.394 2.675 2.401C62.473 29.986 63.311 32.74 62.943 35.632zM68.114 16.732l-4.018 1.148 1.148-4.018 2.969-2.969-.583 2.009c-.118.409-.006.849.295 1.149.301.302.741.419 1.149.295l2.009-.583L68.114 16.732z"/>
</svg>