<svg xmlns="http://www.w3.org/2000/svg" viewBox="0 0 80 80">
<path d="M28.424 38.578c.579.17 1.186-.161 1.356-.74.222-.758.931-1.287 1.722-1.287.796 0 1.505.532 1.725 1.295.138.479.575.791 1.049.791.1 0 .202-.014.303-.043.58-.167.914-.772.748-1.352-.488-1.693-2.061-2.877-3.824-2.877-1.755 0-3.325 1.176-3.818 2.857C27.514 37.802 27.845 38.408 28.424 38.578zM39.664 38.594c.101.029.203.043.303.043.474 0 .911-.312 1.049-.791.219-.763.929-1.295 1.725-1.295.792 0 1.5.529 1.722 1.287.17.579.777.91 1.355.74.579-.17.911-.776.741-1.355-.494-1.682-2.064-2.857-3.818-2.857-1.764 0-3.336 1.184-3.824 2.877C38.75 37.821 39.085 38.427 39.664 38.594zM61.15 11.115c-1.092 0-2.109.318-2.973.86-3.123-3.762-10.771-8.87-21.274-5.828-9.973 2.886-14.19 13.764-15.038 16.261-2.13.29-3.782 2.102-3.782 4.31 0 1.575.846 2.947 2.1 3.716-.037 1.344-.292 5.594-2.025 9.268-.484 1.025-1.055 2.041-1.659 3.116-2.117 3.765-4.306 7.657-2.74 12.092 1.497 4.241 3.792 5.891 4.887 6.462-.097 1.453.123 5.109 4.077 8.536 3.985 3.453 7.579 2.923 8.971 2.519.696.825 2.339 2.354 4.96 2.354 2.798 0 4.882-1.759 5.612-2.472 1.468.082 6.691.166 9.607-2.75 2.809-2.809 3.479-6.941 3.624-8.228.929-.655 3.594-2.725 4.961-5.732 1.676-3.688-.729-8.744-3.274-14.097l-.165-.347c-2.013-4.236-2.731-9.201-2.916-10.745 1.229-.774 2.055-2.134 2.055-3.691 0-2.172-1.598-3.965-3.678-4.299-.071-.753-.082-2.136.628-3.154.7-1.002 1.809-1.373 2.522-1.511.482 2.611 2.772 4.595 5.52 4.595 3.098 0 5.618-2.52 5.618-5.617C66.768 13.636 64.247 11.115 61.15 11.115zM55.608 41.825l.165.347c2.385 5.016 4.638 9.753 3.262 12.78-1.441 3.172-4.67 5.262-4.702 5.282-.209.134-.343.361-.359.608-.003.048-.338 4.744-3.206 7.612-2.818 2.818-8.675 2.279-8.733 2.271-.249-.029-.498.074-.663.261-.02.022-2.005 2.232-4.72 2.232-2.63 0-3.966-2.046-4.02-2.13-.207-.33-.629-.456-.984-.297-.149.066-3.693 1.586-7.905-2.064-4.245-3.678-3.525-7.516-3.493-7.673.084-.392-.15-.785-.531-.908-.113-.036-2.793-.95-4.489-5.757-1.33-3.768.593-7.188 2.628-10.808.592-1.052 1.203-2.14 1.71-3.215 1.681-3.563 2.069-7.513 2.157-9.353.237.04.478.073.727.073h1.098v7.579c0 1.926 2.124 5.727 6.191 7.19-.584.359-1.068.524-1.893.25-1.631-.543-2.907-2.048-2.92-2.063-.201-.239-.527-.333-.826-.245-.299.092-.515.353-.548.664-.021.202-.47 4.982 4.102 8.168 1.256.876 2.544 1.198 3.763 1.198 2.622 0 4.919-1.496 5.859-2.203 1.38.756 5.403 2.629 9.053 1.084 4.559-1.929 3.92-7.589 3.891-7.829-.032-.265-.198-.494-.438-.609-.241-.114-.523-.098-.75.042-.662.413-2.634 1.536-3.797 1.77-.56.112-.967-.031-1.41-.327.864-.254 1.648-.549 2.326-.893 3.348-1.695 4.713-3.641 4.713-6.715v-7.061h.921c.279 0 .55-.032.814-.083C52.856 32.978 53.63 37.663 55.608 41.825zM49.306 31.089v7.061c0 2.08-.646 3.696-3.857 5.322-.87.44-1.944.802-3.186 1.081-.725-.504-1.461-.836-2.359-1.035-.277-1.199-1.487-2.103-2.94-2.103-1.529 0-2.777 1.005-2.962 2.299-.927.293-1.698.681-2.377 1.027l-.035.018c-.009-.002-.015-.008-.024-.01-4.259-.79-6.456-4.62-6.456-6.08v-7.579H49.306zM31.918 46.34l.414-.209c.599-.305 1.239-.631 1.983-.881.501.837 1.492 1.415 2.647 1.415 1.239 0 2.302-.658 2.76-1.596.701.177 1.259.461 1.841.895.184.137.36.286.537.436.812.686 1.822 1.549 3.442 1.214.979-.195 2.245-.811 3.153-1.303-.081 1.504-.595 3.957-2.974 4.963-3.635 1.541-8.051-1.221-8.096-1.248-.292-.185-.672-.157-.933.071-.181.156-4.46 3.821-8.146 1.256-2.201-1.534-3.012-3.495-3.302-4.904.582.436 1.303.872 2.108 1.141 1.75.582 2.787-.109 3.7-.722C31.344 46.673 31.618 46.49 31.918 46.34zM54.596 26.719c0 1.549-1.26 2.81-2.809 2.81H22.451c-.396 0-.771-.084-1.113-.233-.034-.019-.065-.043-.102-.055-.939-.455-1.593-1.41-1.593-2.521 0-1.549 1.26-2.809 2.809-2.809h29.336C53.336 23.91 54.596 25.17 54.596 26.719zM51.828 18.373c-.92 1.317-.99 2.961-.922 3.977H23.551c1.153-3.059 5.263-12.237 13.786-14.704 9.742-2.819 16.792 1.881 19.646 5.333-.782.867-1.302 1.974-1.422 3.2C54.593 16.332 52.913 16.819 51.828 18.373zM61.15 20.789c-2.237 0-4.057-1.819-4.057-4.057 0-2.238 1.82-4.057 4.057-4.057 2.237 0 4.057 1.819 4.057 4.057C65.207 18.97 63.387 20.789 61.15 20.789z"/>
</svg>