<svg xmlns="http://www.w3.org/2000/svg" viewBox="0 0 80 80">
<path d="M71.066 31.372h-4.026l3.306-3.262c.39-.384.394-1.012.009-1.402-.384-.39-1.012-.393-1.402-.009l-3.469 3.423v-3.906c0-.548-.444-.992-.992-.992-.548 0-.992.443-.992.992v5.863l-5.253 5.182c-1.263-1.616-2.75-3.072-4.441-4.324 1.034-.465 1.822-1.331 2.159-2.419.353-1.137.177-2.358-.481-3.351l-.242-.365c-.396-.597-.93-1.046-1.529-1.345.69-1.711 1.059-3.516 1.059-5.391 0-7.984-6.496-14.48-14.48-14.48-7.984 0-14.48 6.496-14.48 14.48 0 1.809.337 3.553.979 5.208-.803.229-1.54.698-2.073 1.409-.68.906-.937 2.062-.707 3.173.231 1.11.927 2.068 1.912 2.629.208.118.418.215.626.326-1.798 1.307-3.368 2.844-4.69 4.555L16.5 32.078v-5.863c0-.548-.444-.992-.992-.992-.548 0-.992.443-.992.992v3.906l-3.469-3.423c-.39-.383-1.018-.38-1.403.009-.384.39-.38 1.018.01 1.402l3.306 3.262H8.934c-.548 0-.992.443-.992.992 0 .548.444.992.992.992h6.037l5.723 5.646c-2.328 3.634-3.609 7.908-3.609 12.404 0 12.688 10.321 23.009 23.009 23.009 12.688 0 23.009-10.321 23.009-23.009 0-4.542-1.31-8.857-3.684-12.516l5.61-5.534h6.036c.548 0 .992-.443.992-.992C72.057 31.815 71.614 31.372 71.066 31.372zM40.292 7.568c6.891 0 12.496 5.606 12.496 12.496 0 1.742-.367 3.413-1.055 4.987-.549.032-1.099.167-1.617.441-9.304 4.927-16.689 2.206-20.263.144-.291-.168-.596-.28-.907-.368-.752-1.636-1.151-3.381-1.151-5.204C27.796 13.174 33.401 7.568 40.292 7.568zM26.305 27.871c.381-.508.969-.782 1.57-.782.336 0 .677.086.987.265l0 0c3.929 2.265 12.035 5.261 22.183-.109.892-.471 1.985-.192 2.545.652l.242.365c.327.494.415 1.101.239 1.667-.175.566-.591 1.016-1.141 1.238-5.532 2.231-16.268 5.145-26.026-.408-.49-.279-.837-.755-.951-1.309C25.838 28.898 25.966 28.322 26.305 27.871zM47.347 49.819c.459-6.115-2.397-11.613-3.965-14.127 1.599-.191 3.113-.484 4.526-.83 3.358 3.858 4.009 12.102 4.131 14.957H47.347zM40.094 72.431c-11.593 0-21.026-9.432-21.026-21.026 0-7.163 3.563-13.703 9.547-17.607 3.646 1.548 7.335 2.141 10.805 2.141.579 0 1.146-.027 1.711-.057 1.13 1.656 5.094 8.039 4.13 14.788-.041.284.044.573.233.79.189.218.462.342.749.342h.547l.048 5.365c.005.544.448.982.992.982.003 0 .006 0 .009 0 .548-.005.987-.453.983-1.001l-.048-5.347h1.942l.09 4.977c.01.542.452.974.991.974.006 0 .012 0 .019 0 .548-.01.983-.462.973-1.009l-.09-4.942h.361c.263 0 .516-.105.702-.291.186-.187.29-.439.29-.703-.001-.479-.072-10.99-4.058-16.517.546-.164 1.067-.331 1.565-.503 5.992 3.902 9.561 10.449 9.561 17.617C61.119 62.999 51.687 72.431 40.094 72.431zM40.292 45.653c-.877 0-1.587.71-1.587 1.587 0 .877.71 1.587 1.587 1.587.877 0 1.587-.711 1.587-1.587C41.879 46.364 41.169 45.653 40.292 45.653zM35.928 13.519c-.8765 0-1.587.7105-1.587 1.587 0 .8765.7105 1.587 1.587 1.587.8765 0 1.587-.7105 1.587-1.587 0-.8765-.7105-1.587-1.587-1.587ZM44.656 13.519c-.8765 0-1.587.7105-1.587 1.587 0 .8765.7105 1.587 1.587 1.587.8765 0 1.587-.7105 1.587-1.587 0-.8765-.7105-1.587-1.587-1.587ZM40.292 52.397c-.8765 0-1.587.7105-1.587 1.587 0 .8765.7105 1.587 1.587 1.587.8765 0 1.587-.7105 1.587-1.587 0-.8765-.7105-1.587-1.587-1.587ZM40.292 59.141c-.8765 0-1.587.7105-1.587 1.587 0 .8765.7105 1.587 1.587 1.587.8765 0 1.587-.7105 1.587-1.587 0-.8765-.7105-1.587-1.587-1.587ZM39.809 26.668c.174 0 .352-.004.534-.013.547-.028.968-.494.94-1.041-.028-.547-.495-.977-1.041-.94-3.805.203-4.508-2.151-4.542-2.274-.134-.526-.667-.851-1.195-.719-.533.13-.859.665-.729 1.198C34.102 24.225 35.781 26.668 39.809 26.668zM37.519 20.744c.403 1.025 1.285 1.774 2.361 2.004l7.254 1.553c.069.015.139.022.208.022.354 0 .688-.19.866-.508.212-.38.152-.855-.149-1.17l-5.128-5.36c-.681-.711-1.634-1.068-2.614-1.001-.981.075-1.867.579-2.431 1.385C37.253 18.571 37.116 19.72 37.519 20.744zM39.509 18.807c.222-.317.571-.516.957-.545.387-.037.762.114 1.03.395l2.898 3.029-4.1-.878c-.43-.092-.769-.379-.93-.79C39.204 19.609 39.257 19.167 39.509 18.807z"/>
</svg>