<svg xmlns="http://www.w3.org/2000/svg" viewBox="0 0 80 80">
<path d="M63.163 10.073c-2.448 0-4.44 1.996-4.44 4.444 0 2.451 1.993 4.444 4.44 4.444 2.451 0 4.444-1.993 4.444-4.444C67.607 12.069 65.614 10.073 63.163 10.073zM20.785 28.531H52.91c1.696 0 3.076-1.383 3.076-3.079 0-1.696-1.379-3.075-3.076-3.075H20.785c-1.697 0-3.076 1.379-3.076 3.075C17.709 27.149 19.088 28.531 20.785 28.531zM57.095 41.998c-2.161-4.548-3.013-9.678-3.292-11.846-.289.055-.586.086-.893.086h-1.007v7.733c0 3.368-1.496 5.499-5.165 7.354-.744.379-1.6.707-2.551.986.486.328.934.472 1.548.348 1.276-.255 3.434-1.483 4.158-1.934.248-.155.558-.176.824-.048.262.124.441.379.479.666.031.265.731 6.464-4.261 8.578-3.992 1.686-8.391-.355-9.908-1.186-1.458 1.124-3.879 2.379-6.444 2.379-1.365 0-2.772-.355-4.099-1.279-5.006-3.489-4.516-8.726-4.492-8.947.034-.341.273-.627.6-.727.331-.1.686.007.907.269.01.017 1.41 1.665 3.196 2.258.9.3 1.431.124 2.066-.269-4.451-1.603-6.775-5.768-6.775-7.878v-8.302h-1.2c-.273 0-.538-.028-.797-.072-.097 2.02-.524 6.34-2.362 10.236-.555 1.176-1.227 2.369-1.872 3.52-2.23 3.965-4.337 7.709-2.879 11.836 1.855 5.265 4.793 6.264 4.917 6.306.417.135.672.566.579.993-.034.172-.821 4.375 3.827 8.405 4.613 3.996 8.495 2.334 8.657 2.258.39-.172.852-.034 1.075.328.063.09 1.524 2.331 4.403 2.331 2.975 0 5.148-2.42 5.168-2.444.183-.203.455-.31.727-.286.066.007 6.478.6 9.564-2.486 3.141-3.141 3.51-8.285 3.513-8.336.017-.272.162-.521.393-.669.034-.021 3.572-2.31 5.151-5.782 1.507-3.317-.962-8.505-3.575-13.998L57.095 41.998zM39.698 45.549c-.5 1.027-1.666 1.748-3.024 1.748-1.265 0-2.361-.627-2.909-1.545-.81.272-1.507.627-2.162.959-.152.079-.304.155-.452.231-.331.162-.631.365-.948.576-.999.672-2.134 1.431-4.051.789-.882-.293-1.672-.769-2.31-1.248.317 1.545 1.206 3.693 3.617 5.372 1.669 1.162 3.648 1.303 5.882.424 1.765-.696 3.027-1.789 3.041-1.8.286-.248.703-.283 1.021-.076.048.028 4.885 3.051 8.867 1.365 2.579-1.09 3.151-3.782 3.247-5.43-.993.538-2.375 1.207-3.444 1.42-1.776.355-2.882-.579-3.772-1.331-.203-.169-.393-.331-.586-.476C41.077 46.052 40.467 45.742 39.698 45.549zM50.193 37.971v-7.733H23.694v8.302c0 1.6 2.407 5.792 7.071 6.658.01.003.017.007.028.01.014-.007.024-.01.034-.017.741-.379 1.579-.803 2.593-1.124.2-1.42 1.579-2.52 3.254-2.52 1.589 0 2.914.986 3.22 2.296.993.217 1.796.583 2.596 1.141 1.358-.307 2.528-.703 3.479-1.183C49.486 42.019 50.193 40.25 50.193 37.971zM34.065 38.457c-.111.031-.221.048-.331.048-.52 0-1-.341-1.151-.865-.238-.838-1.017-1.42-1.886-1.42-.869 0-1.645.579-1.886 1.41-.186.634-.852.997-1.486.81-.634-.186-.996-.852-.81-1.482.542-1.844 2.258-3.13 4.182-3.13 1.931 0 3.651 1.296 4.186 3.151C35.065 37.613 34.699 38.275 34.065 38.457zM44.89 37.63c-.244-.831-1.02-1.41-1.886-1.41-.872 0-1.648.583-1.889 1.42-.152.524-.631.865-1.148.865-.11 0-.224-.017-.334-.048-.635-.183-1-.845-.818-1.479.534-1.855 2.255-3.151 4.189-3.151 1.92 0 3.641 1.286 4.182 3.13.187.631-.179 1.296-.813 1.482C45.742 38.626 45.077 38.264 44.89 37.63zM52.955 16.313c1.19-1.699 3.027-2.234 4.089-2.403.131-1.344.703-2.558 1.562-3.51-3.134-3.778-10.863-8.919-21.521-5.833-9.329 2.7-13.832 12.746-15.097 16.101h29.957C51.872 19.557 51.948 17.757 52.955 16.313z"/>
</svg>