<svg xmlns="http://www.w3.org/2000/svg" viewBox="0 0 80 80">
<path d="M62.356 37.767 49.49 35.898c-.59-.087-1.098-.456-1.361-.989L42.375 23.25c-.116-.235-.331-.26-.418-.26-.087 0-.302.025-.418.26l-5.754 11.659c-.263.533-.772.902-1.36.989l-12.868 1.869c-.259.037-.349.235-.376.318-.027.082-.069.295.117.477l9.311 9.075c.426.417.62 1.014.52 1.601l-2.198 12.814c-.044.258.115.405.186.456.07.051.259.158.49.035l11.509-6.051c.527-.275 1.156-.275 1.682 0l11.509 6.051c.231.121.42.016.491-.035.071-.051.23-.199.186-.456l-2.198-12.814c-.1-.586.093-1.183.519-1.599l9.311-9.076c.187-.182.145-.395.118-.477C62.705 38.002 62.615 37.804 62.356 37.767zM68.447 32.972l-16.442-2.389-5.382-10.906c1.023-.188 1.802-1.083 1.802-2.16v-3.16c0-1.743-1.146-3.228-2.754-3.828.059-.4.097-.807.097-1.223 0-3.257-1.802-5.808-4.102-5.808-2.3 0-4.102 2.552-4.102 5.808 0 .417.03.826.089 1.226-1.604.601-2.746 2.085-2.746 3.825v3.16c0 1.077.779 1.972 1.803 2.16l-5.383 10.906-16.442 2.389c-2.732.397-3.823 3.754-1.846 5.681L24.934 50.25l-2.808 16.376c-.467 2.721 2.389 4.796 4.832 3.511l14.706-7.732 14.706 7.732c2.443 1.284 5.3-.79 4.833-3.511L58.395 50.25l11.897-11.598C72.27 36.726 71.179 33.368 68.447 32.972zM41.665 5.734c.881 0 1.866 1.527 1.866 3.572 0 .32-.031.63-.078.933h-3.582c-.046-.302-.073-.613-.073-.933C39.798 7.261 40.784 5.734 41.665 5.734zM37.141 14.357c0-1.037.933-1.881 2.08-1.881h4.887c1.147 0 2.08.844 2.08 1.881l.036 3.124h-9.084V14.357zM63.551 39.523l-9.31 9.075c-.11.107-.16.262-.134.413l2.198 12.814c.117.683-.158 1.361-.719 1.769-.561.408-1.29.459-1.904.138L42.173 57.68c-.135-.072-.298-.072-.435 0l-11.507 6.051c-.267.14-.556.21-.843.21-.373 0-.744-.117-1.06-.347-.561-.407-.837-1.085-.719-1.769l2.198-12.814c.026-.151-.025-.306-.135-.414l-9.31-9.074c-.496-.484-.671-1.193-.457-1.853.214-.659.774-1.131 1.46-1.23L34.23 34.57c.151-.022.283-.118.351-.255l5.754-11.659c.307-.621.928-1.008 1.621-1.008.693 0 1.315.386 1.621 1.008l5.754 11.659c.068.138.2.234.353.255l12.865 1.869c.686.099 1.246.571 1.46 1.23C64.222 38.329 64.047 39.039 63.551 39.523z"/>
</svg>