<svg xmlns="http://www.w3.org/2000/svg" viewBox="0 0 80 80">
<path d="M65.6 64.972l-.879-4.836c5.357-6.045 8.306-13.789 8.306-21.889C73.027 20.036 58.211 5.221 40 5.221 21.789 5.221 6.973 20.036 6.973 38.247c0 8.1 2.95 15.844 8.307 21.889L14.4 64.972c-1.217.405-2.103 1.541-2.103 2.892v6.915h55.404v-6.915C67.702 66.513 66.816 65.377 65.6 64.972zM31.575 47.144c0-2.387.959-4.609 2.661-6.232 1.535 1.518 3.643 2.458 5.967 2.458 2.324 0 4.432-.94 5.967-2.458 1.701 1.623 2.661 3.844 2.661 6.232 0 1.721-.52 3.34-1.46 4.75-.262-.094-.529-.196-.813-.304-1.574-.601-3.533-1.35-6.557-1.35-2.87 0-4.797.69-6.496 1.299-.196.07-.382.134-.572.2C32.059 50.363 31.575 48.798 31.575 47.144zM38.968 18.891l.423-6.222 6.595 1.772-2.412 5.546L38.968 18.891zM37.55 20.77l6.835 1.627c.259.573.4 1.196.4 1.831 0 2.453-1.995 4.449-4.449 4.449-2.453 0-4.449-1.996-4.449-4.449C35.888 22.875 36.507 21.612 37.55 20.77zM36.606 29.673c1.063.731 2.347 1.161 3.731 1.161 1.324 0 2.557-.395 3.591-1.069 1.621 1.185 2.61 3.084 2.61 5.114 0 3.493-2.842 6.336-6.336 6.336-3.493 0-6.336-2.842-6.336-6.336C33.866 32.782 34.905 30.849 36.606 29.673zM34.231 53.57c1.609-.576 3.273-1.172 5.769-1.172 2.626 0 4.233.614 5.787 1.208 1.303.498 2.532.968 4.121.968 1.682 0 2.877-.535 4.033-1.052 1.229-.551 2.5-1.119 4.595-1.119 2.875 0 6.231 1.074 7.948 1.701-1.012 1.686-2.188 3.284-3.523 4.769H17.04c-1.332-1.482-2.506-3.075-3.516-4.758 1.604-.472 4.524-1.203 7.259-1.205 2.071.016 3.37.44 4.626.852 1.22.399 2.482.812 4.279.812C31.429 54.573 32.79 54.086 34.231 53.57zM17.31 61.029h45.381l.686 3.774H16.623L17.31 61.029zM40 7.378c17.022 0 30.87 13.848 30.87 30.87 0 4.901-1.155 9.663-3.326 13.946-1.734-.656-5.586-1.948-9.009-1.948-2.556 0-4.108.695-5.476 1.307-1.078.483-1.93.865-3.151.865-.098 0-.189-.016-.284-.021.894-1.594 1.363-3.38 1.363-5.251 0-3.059-1.267-5.893-3.494-7.933.758-1.271 1.202-2.75 1.202-4.334 0-.307-.028-.609-.061-.911l5.225-3.3c.504-.318.654-.985.336-1.488-.319-.503-.984-.654-1.488-.336l-4.619 2.916c-.535-1.349-1.411-2.548-2.551-3.474.877-1.121 1.404-2.528 1.404-4.058 0-.47-.063-.934-.161-1.389.384-.091.708-.377.806-.788.138-.579-.22-1.161-.799-1.299l-1.084-.258 2.758-6.341c.125-.288.119-.615-.017-.897-.136-.283-.389-.493-.691-.574l-9.07-2.437c-.312-.081-.644-.024-.907.164-.262.187-.427.482-.449.805l-.487 7.17-1.376-.328c-.579-.14-1.161.22-1.299.799-.138.579.22 1.161.799 1.299l.157.037c-.884 1.142-1.391 2.552-1.391 4.036 0 1.469.488 2.823 1.303 3.922-1.226.942-2.158 2.192-2.719 3.609l-4.612-2.916c-.503-.316-1.17-.166-1.488.336-.319.503-.168 1.169.335 1.488l5.22 3.3c-.033.301-.062.603-.062.91 0 1.584.444 3.064 1.203 4.334-2.227 2.039-3.494 4.874-3.494 7.933 0 1.841.46 3.606 1.331 5.186-.343.052-.693.086-1.062.086-1.453 0-2.452-.326-3.608-.706-1.347-.441-2.874-.94-5.28-.958-.043 0-.085 0-.127 0-3.274 0-6.65.929-8.223 1.426C10.283 47.9 9.13 43.142 9.13 38.247 9.13 21.225 22.978 7.378 40 7.378zM65.545 72.622h-51.09v-4.758c0-.498.405-.904.903-.904h49.284c.498 0 .903.405.903.904V72.622zM38.18 22.61c-.4468 0-.809.3622-.809.809 0 .4468.3622.809.809.809.4468 0 .809-.3622.809-.809 0-.4468-.3622-.809-.809-.809ZM41.685 23.419c-.4468 0-.809.3622-.809.809 0 .4468.3622.809.809.809.4468 0 .809-.3622.809-.809 0-.4468-.3622-.809-.809-.809ZM40.067 32.047c-.5954 0-1.078.4826-1.078 1.078 0 .5954.4826 1.078 1.078 1.078.5954 0 1.078-.4826 1.078-1.078 0-.5954-.4826-1.078-1.078-1.078ZM18.499 43.37c-.5954 0-1.078.4826-1.078 1.078 0 .5954.4826 1.078 1.078 1.078.5954 0 1.078-.4826 1.078-1.078 0-.5954-.4826-1.078-1.078-1.078ZM25.508 36.9c-.5954 0-1.078.4826-1.078 1.078 0 .5954.4826 1.078 1.078 1.078.5954 0 1.078-.4826 1.078-1.078 0-.5954-.4826-1.078-1.078-1.078ZM15.263 31.508c-.5954 0-1.078.4826-1.078 1.078 0 .5954.4826 1.078 1.078 1.078.5954 0 1.078-.4826 1.078-1.078 0-.5954-.4826-1.078-1.078-1.078ZM19.577 22.341c-.5954 0-1.078.4826-1.078 1.078 0 .5954.4826 1.078 1.078 1.078.5954 0 1.078-.4826 1.078-1.078 0-.5954-.4826-1.078-1.078-1.078ZM28.474 20.723c-.5954 0-1.078.4826-1.078 1.078 0 .5954.4826 1.078 1.078 1.078.5954 0 1.078-.4826 1.078-1.078 0-.5954-.4826-1.078-1.078-1.078ZM26.857 13.444c-.5954 0-1.078.4826-1.078 1.078 0 .5954.4826 1.078 1.078 1.078.5954 0 1.078-.4826 1.078-1.078 0-.5954-.4826-1.078-1.078-1.078ZM53.548 13.444c-.5954 0-1.078.4826-1.078 1.078 0 .5954.4826 1.078 1.078 1.078.5954 0 1.078-.4826 1.078-1.078 0-.5954-.4826-1.078-1.078-1.078ZM53.548 21.532c-.5954 0-1.078.4826-1.078 1.078 0 .5954.4826 1.078 1.078 1.078.5954 0 1.078-.4826 1.078-1.078 0-.5954-.4826-1.078-1.078-1.078ZM62.445 22.611c-.5954 0-1.078.4826-1.078 1.078 0 .5954.4826 1.078 1.078 1.078.5954 0 1.078-.4826 1.078-1.078 0-.5954-.4826-1.078-1.078-1.078ZM60.018 30.429c-.5954 0-1.078.4826-1.078 1.078 0 .5954.4826 1.078 1.078 1.078.5954 0 1.078-.4826 1.078-1.078 0-.5954-.4826-1.078-1.078-1.078ZM53.278 37.169c-.5954 0-1.078.4826-1.078 1.078 0 .5954.4826 1.078 1.078 1.078.5954 0 1.078-.4826 1.078-1.078 0-.5954-.4826-1.078-1.078-1.078ZM65.949 39.596c-.5954 0-1.078.4826-1.078 1.078 0 .5954.4826 1.078 1.078 1.078.5954 0 1.078-.4826 1.078-1.078 0-.5954-.4826-1.078-1.078-1.078ZM58.131 45.258c-.5954 0-1.078.4826-1.078 1.078 0 .5954.4826 1.078 1.078 1.078.5954 0 1.078-.4826 1.078-1.078 0-.5954-.4826-1.078-1.078-1.078ZM40.067 36.091c-.5954 0-1.078.4826-1.078 1.078 0 .5954.4826 1.078 1.078 1.078.5954 0 1.078-.4826 1.078-1.078 0-.5954-.4826-1.078-1.078-1.078Z"/>
</svg>