<svg xmlns="http://www.w3.org/2000/svg" viewBox="0 0 80 80">
<path d="M70.542 23.269c-.253-.437-.813-.589-1.251-.334l-7.056 4.074 1.355-5.058c.131-.489-.159-.991-.648-1.122-.489-.132-.991.159-1.122.647l-1.829 6.827-6.475 3.738 3.114-11.619c.131-.489-.159-.991-.648-1.122-.489-.132-.991.159-1.122.647l-3.588 13.389-7.396 4.27c-.767-.893-1.816-1.527-3.021-1.743v-8.292l10.036-10.037c.358-.358.358-.937 0-1.295-.358-.358-.938-.358-1.295 0l-8.741 8.741v-7.598l5.037-5.036c.357-.358.358-.937 0-1.295-.358-.358-.938-.358-1.296 0l-3.741 3.741V6.65c0-.505-.41-.916-.916-.916-.506 0-.916.41-.916.916v8.148l-3.702-3.702c-.358-.358-.938-.358-1.295 0-.358.358-.358.937 0 1.295l4.998 4.997v7.477l-8.505-8.505c-.358-.358-.938-.358-1.295 0-.358.358-.358.937 0 1.295l9.801 9.802v8.409c-1.118.2-2.108.754-2.858 1.546l-7.121-4.357L25.8 19.578c-.119-.491-.613-.798-1.105-.675-.492.117-.794.613-.676 1.105l2.816 11.693-6.377-3.902-1.655-6.871c-.119-.491-.613-.795-1.105-.675-.492.119-.795.613-.676 1.105l1.226 5.09-6.95-4.252c-.432-.263-.995-.129-1.259.303-.264.432-.129.996.303 1.26l6.945 4.249-5.144 1.24c-.492.119-.794.613-.676 1.105.101.419.476.701.89.701.071 0 .143-.008.215-.026l6.924-1.668 6.481 3.966L13.96 36.22c-.492.117-.794.613-.676 1.105.101.419.476.701.89.701.071 0 .143-.008.215-.026l13.799-3.323 6.961 4.259c-.27.629-.422 1.321-.422 2.047 0 .607.125 1.181.316 1.723l-7.231 4.175-13.388-3.587c-.489-.13-.991.159-1.122.647-.131.489.159.991.647 1.122l11.62 3.113-6.476 3.739-6.827-1.829c-.489-.132-.991.159-1.122.647-.131.489.159.991.647 1.122l5.059 1.355-7.057 4.075c-.438.253-.588.813-.335 1.251.169.293.477.457.794.457.155 0 .313-.039.457-.123l7.052-4.072-1.369 5.112c-.131.489.159.991.648 1.122.079.021.159.031.237.031.405 0 .775-.269.884-.679l1.844-6.881 6.579-3.799-3.199 11.94c-.131.489.159.991.647 1.122.079.021.159.031.238.031.405 0 .775-.269.884-.679l3.674-13.71 7.121-4.112c.77.925 1.84 1.585 3.073 1.805v8.443l-9.801 9.8c-.358.358-.358.937 0 1.295.358.358.938.358 1.295 0l8.505-8.504v7.476l-4.998 4.997c-.358.358-.358.937 0 1.295.358.358.938.358 1.295 0l3.702-3.701v8.147c0 .505.41.916.916.916.505 0 .916-.41.916-.916v-8.142l3.741 3.741c.179.179.414.268.648.268.234 0 .469-.089.648-.268.357-.358.358-.937 0-1.295l-5.037-5.037V57.02l8.741 8.74c.179.179.414.268.648.268.234 0 .469-.089.647-.268.358-.358.358-.937 0-1.295L40.855 54.429v-8.327c1.23-.22 2.297-.876 3.067-1.798l7.174 4.389 3.323 13.799c.101.419.476.701.89.701.071 0 .143-.008.215-.026.492-.119.794-.613.676-1.105l-2.894-12.017 6.481 3.965 1.668 6.926c.101.419.476.701.89.701.071 0 .143-.008.215-.026.492-.117.794-.613.676-1.105l-1.238-5.144 6.946 4.25c.149.091.314.134.477.134.309 0 .609-.155.782-.437.264-.432.129-.996-.303-1.26l-6.95-4.252 5.09-1.226c.492-.117.795-.613.676-1.105-.119-.491-.613-.796-1.105-.675l-6.871 1.654-6.376-3.902 11.693-2.817c.491-.117.794-.613.676-1.105-.119-.491-.613-.797-1.105-.675l-13.474 3.245-7.32-4.479c.193-.544.318-1.121.318-1.73 0-.636-.131-1.238-.34-1.801l7.275-4.2 13.71 3.674c.079.021.159.031.237.031.405 0 .775-.269.884-.679.131-.489-.159-.991-.647-1.122l-11.941-3.2 6.581-3.8 6.88 1.843c.079.021.159.031.238.031.404 0 .774-.269.884-.679.131-.489-.159-.991-.648-1.122l-5.111-1.369 7.052-4.072C70.644 24.268 70.794 23.707 70.542 23.269zM39.939 44.363c-1.864 0-3.38-1.516-3.38-3.38 0-1.864 1.516-3.38 3.38-3.38 1.863 0 3.38 1.516 3.38 3.38C43.319 42.847 41.803 44.363 39.939 44.363zM26.911 43.878c.088.026.178.039.267.039.146 0 .291-.035.423-.103l3.892-2.026c.296-.154.485-.458.493-.792.008-.334-.167-.646-.456-.814l-3.739-2.169c-.224-.13-.493-.16-.739-.079l-6.792 2.169c-.382.122-.64.477-.637.878.003.401.266.754.649.871L26.911 43.878zM27.223 39.802l1.947 1.129-2.083 1.085-3.475-1.061L27.223 39.802zM52.826 37.934c-.247-.079-.514-.05-.738.079l-3.74 2.169c-.289.168-.464.48-.456.814.008.333.196.637.493.792l3.892 2.026c.132.068.277.103.423.103.09 0 .18-.013.267-.039l6.64-2.026c.384-.117.646-.47.649-.871.003-.4-.256-.756-.637-.878L52.826 37.934zM52.792 42.016l-2.083-1.085 1.948-1.129 3.611 1.153L52.792 42.016zM30.41 58.72c.229 0 .455-.085.63-.25l5.044-4.77c.174-.164.277-.391.286-.632l.163-4.385c.012-.333-.158-.647-.445-.82-.286-.169-.644-.172-.932-.006l-3.734 2.178c-.224.131-.381.35-.435.603l-1.473 6.977c-.083.391.099.793.448.988C30.102 58.682 30.257 58.72 30.41 58.72zM32.695 51.413l1.944-1.135-.087 2.347-2.64 2.497L32.695 51.413zM48.972 23.402l-5.243 4.832c-.19.174-.297.423-.295.681l.036 4.323c.003.334.187.64.481.798.136.074.285.11.434.11.173 0 .346-.049.497-.146l3.685-2.382c.201-.13.344-.334.396-.568l1.521-6.773c.088-.391-.088-.794-.436-.994C49.703 23.081 49.266 23.13 48.972 23.402zM47.26 30.282l-1.972 1.274-.019-2.251 2.787-2.568L47.26 30.282zM48.368 50.442l-3.633-2.46c-.277-.188-.634-.209-.931-.057-.297.152-.489.454-.498.788l-.129 4.322c-.008.258.094.508.281.687l5.139 4.942c.175.169.404.256.636.256.15 0 .302-.037.441-.113.351-.193.536-.592.457-.984l-1.377-6.804C48.705 50.783 48.567 50.576 48.368 50.442zM45.019 52.683l.067-2.25 1.944 1.316.72 3.561L45.019 52.683zM31.617 31.662l3.687 2.258c.147.089.313.134.479.134.157 0 .313-.04.454-.121.29-.165.467-.475.462-.81l-.069-4.388c-.004-.24-.102-.469-.273-.637l-4.941-4.876c-.285-.283-.721-.347-1.074-.157-.353.188-.544.585-.47.978l1.324 7.006C31.243 31.304 31.397 31.527 31.617 31.662zM34.803 29.139l.037 2.347-1.919-1.175-.704-3.725L34.803 29.139z"/>
</svg>