<svg xmlns="http://www.w3.org/2000/svg" viewBox="0 0 80 80">
<path d="M73.393 13.2c-.105-.12-.276-.176-.433-.146-.154.03-.276.142-.322.28-.56 1.37-1.938 2.296-3.406 2.305-.07-.006-.178-.012-.293-.018-.176-.01-.372-.02-.46-.03l-.747-.146c-.334-.104-.669-.21-.981-.321l-.312-.139c.367-.721.639-1.473.808-2.231.323-1.185.348-2.393.345-3.528-.001-.351-.288-.641-.64-.646-.174-.01-.337.063-.461.184-.124.121-.193.283-.196.458-.002 1.127-.069 2.593-.568 3.946l-.108.289c-.058.154-.115.309-.165.437-.038.069-.132.254-.227.44-.098.191-.197.385-.229.443-1.544 2.569-4.46 4.331-7.602 4.597-2.307.129-4.608.121-7.224.053.505-.171 1.004-.352 1.493-.542 1.187-.485 2.712-1.178 3.991-2.243.246-.225.489-.468.728-.723 1.887 1.516 4.314 1.539 6.104.04.555-.432 1.063-.965 1.603-1.678.136-.18.107-.435-.067-.582-.088-.073-.2-.113-.312-.096-.113.011-.215.065-.286.151-.515.614-1.009 1.083-1.518 1.438-1.45 1.1-3.317 1-4.709-.232.944-1.222 1.647-2.578 2.049-3.948 3.271.372 5.784-1.351 6.285-4.34.046-.25-.108-.479-.359-.53-.251-.053-.483.095-.541.347-.613 2.878-2.994 3.582-5.107 3.283.151-.953.156-1.89.012-2.785-.145-.966-.451-1.954-.91-2.938-.149-.317-.531-.461-.851-.317-.159.069-.28.197-.342.359-.062.162-.058.339.016.502 1.544 3.251.856 6.973-1.849 9.963-1.172 1.414-2.865 2.205-4.515 2.847-1.614.601-3.352 1.079-5.159 1.441-.671-.412-1.516-.723-2.647-.723-.951 0-1.486.086-1.877.149-.446.07-.669.107-1.288-.019l0 0c-.232-.048-.534-.146-.862-.252-1.264-.405-3.173-1.017-3.662.45-.402 1.208.122 2.274 1.81 3.683 1.608 1.339 1.608 1.413 1.608 2.118 0 .48-1.206 1.897-5.724 4.156-4.287 2.144-5.509 4.332-5.846 5.562l-8.366-2.543c-1.21-.331-2.505.274-3.013 1.411-1.198 2.686-1.872 5.557-1.878 7.969-1.579.605-3.023 1.263-4.298 1.959-2.469 1.346-3.955 4.435-4.017 4.565-.143.301-.054.66.212.859l3.188 2.391c.19.144.439.18.663.097.223-.082.389-.272.44-.504.352-1.584 1.202-2.949 2.394-3.843.57-.428 1.243-.826 2.007-1.189.271.968.619 1.812.976 2.347 1.127 1.69 4.31 3.823 4.445 3.913.208.139.474.155.698.046.224-.11.372-.332.389-.581l.266-3.985c.019-.277-.128-.538-.374-.667-1.099-.576-1.849-1.389-2.277-2.475 1.625-.388 3.127-.598 4.165-.728 1.07-.138 3.05 1.291 4.497 2.329 1.043.749 1.945 1.396 2.634 1.626.755.253 1.826-.096 2.457-.356 3.393 3.252 10.998 5.773 12.844 6.353.27 1.126 1.167 4.28 3.244 6.803 1.072 1.302 2.373 2.209 3.554 2.922-.016.581-.059 1.369-.104 2.193-.073 1.324-.156 2.825-.156 4.004 0 1.207.83 3.512 1.799 4.48.773.772 2.258 1.967 3.901 2.787.232.117.509.096.72-.057.211-.15.321-.405.287-.662l-.531-3.984c-.033-.249-.2-.462-.432-.557-.303-.123-1.162-.59-1.496-1.259-.216-.432-.206-1.449-.196-2.434l.005-.706c0-.319 0-1.043.113-1.942.98.476 1.794 1.022 2.146 1.374.452.451.858 1.618 1.29 2.854.393 1.127.838 2.403 1.452 3.567.652 1.237 2.356 3.195 4.556 4.571.113.07.242.106.371.106.101 0 .202-.021.296-.065.215-.101.364-.303.397-.537l.531-3.778c.046-.325-.143-.64-.45-.754-.031-.012-3.12-1.192-3.815-3.972-.089-.357-.144-.753-.202-1.161-.174-1.233-.372-2.632-1.437-3.632-.34-.318-.673-.645-1.007-.972-1.061-1.038-2.155-2.109-3.493-2.983-.073-.577-.216-1.827-.216-2.771 0-1.529.212-2.428.459-3.468.229-.964.482-2.035.57-3.729 1.145.493 2.74.773 4.451-.16 3.292-1.795 3.031-4.808 3.018-4.935-.025-.252-.184-.47-.415-.571-.231-.103-.5-.071-.702.081-.02.015-1.998 1.482-4.173 1.725-.995.112-2.293-.507-3.07-.875l-.118-.056c-1.337-1.761-3.784-2.465-6.858-3.351-.524-.15-1.069-.308-1.632-.477-5.54-1.662-6.674-3.802-6.674-6.503 0-2.658 1.592-3.678 3.608-4.969.285-.182.573-.367.862-.56 1.506-1.004 2.637-2.928 2.814-4.788.099-1.044-.106-1.984-.59-2.771 1.809.035 3.483.047 5.075.037.393-.011.788-.017 1.185-.021 1.911-.026 3.886-.053 5.725-.711.417-.138.841-.31 1.265-.512.901 1.36 2.081 2.196 3.422 2.422.246.041.494.062.744.062 1.253 0 2.546-.517 3.782-1.52.128-.107.188-.266.16-.425-.03-.166-.152-.31-.312-.365-.152-.054-.319-.021-.431.076-1.285.951-2.576 1.328-3.732 1.082-.991-.208-1.857-.878-2.518-1.94 1.304-.809 2.422-1.872 3.255-3.093.621.236 1.18.411 1.681.522.098.013.209.03.326.05.285.047.607.1.839.09 2.143.157 4.135-1.128 4.84-3.113C73.526 13.479 73.496 13.317 73.393 13.2zM47.364 23.633c-.137 1.44-1.04 2.984-2.197 3.756-.281.188-.562.367-.84.545-2.091 1.339-4.254 2.723-4.254 6.147 0 3.937 2.223 6.209 7.672 7.845.568.17 1.118.328 1.647.48 2.897.834 5.186 1.493 6.21 2.963.071.102.168.184.281.235l.271.128c.911.432 2.435 1.155 3.824 1 1.355-.15 2.615-.685 3.513-1.162-.27.712-.846 1.577-2.065 2.243-1.604.873-3.093.292-4.061-.351-.214-.144-.49-.155-.717-.035-.227.121-.369.357-.371.614-.012 2.231-.293 3.419-.565 4.566-.256 1.078-.497 2.097-.497 3.79 0 1.362.262 3.209.273 3.286.029.206.149.389.326.497 1.336.822 2.452 1.915 3.532 2.973.341.333.682.666 1.028.992.705.662.859 1.752 1.009 2.807.062.437.125.889.229 1.305.688 2.751 3.086 4.194 4.163 4.716l-.3 2.134c-1.626-1.223-2.75-2.649-3.153-3.413-.565-1.072-.992-2.296-1.369-3.376-.506-1.451-.943-2.705-1.621-3.383-.659-.659-2.066-1.498-3.423-2.041-.084-.034-.172-.051-.26-.051-.116 0-.23.028-.334.085-.183.1-.312.276-.353.48-.279 1.422-.279 2.63-.279 3.085l-.004.692c-.012 1.255-.023 2.34.344 3.073.457.914 1.331 1.482 1.842 1.752l.294 2.207c-1.066-.683-1.928-1.428-2.344-1.844-.67-.671-1.389-2.622-1.389-3.49 0-1.141.082-2.621.153-3.927.061-1.096.112-2.043.112-2.665 0-.248-.131-.479-.346-.604-1.163-.683-2.492-1.55-3.533-2.814-2.288-2.777-3.034-6.556-3.041-6.594-.049-.256-.237-.465-.488-.539-.097-.028-9.688-2.912-12.971-6.447-.211-.227-.547-.29-.825-.149-.633.314-1.552.595-1.857.493-.488-.162-1.389-.81-2.26-1.436-1.816-1.304-3.875-2.786-5.487-2.58-1.228.152-3.089.417-5.064.943-.371.1-.593.478-.498.849.421 1.658 1.36 2.938 2.796 3.812l-.153 2.299c-1.061-.788-2.471-1.94-3.053-2.813-.28-.421-.685-1.351-.979-2.697-.044-.203-.176-.375-.359-.471-.184-.098-.401-.106-.592-.026-1.186.491-2.214 1.062-3.057 1.694-1.193.895-2.104 2.163-2.628 3.641l-1.896-1.422c.491-.858 1.625-2.603 3.155-3.437 1.34-.731 2.881-1.421 4.579-2.05.284-.104.468-.381.457-.683-.086-2.271.567-5.206 1.749-7.854.229-.511.814-.781 1.346-.637l9.131 2.776c.217.063.453.014.632-.125.18-.14.28-.365.27-.593-.001-.024-.048-2.549 5.194-5.171 5.824-2.911 6.498-4.48 6.498-5.408 0-1.435-.532-1.878-2.111-3.194-1.643-1.369-1.471-1.886-1.422-2.115.282-.148 1.452.231 1.951.393.384.123.737.233 1.008.289.869.177 1.276.113 1.792.029.363-.059.816-.131 1.654-.131 1.584 0 2.372.783 3.133 1.541l.16.158C47.344 21.978 47.429 22.95 47.364 23.633zM24.683 38.808l-5.313-3.453c-.17-.11-.379-.142-.575-.086-.194.056-.355.193-.441.377-.04.086-.986 2.136-1.226 4.589-.022.233.072.462.253.61.126.104.284.158.443.158.068 0 .137-.01.204-.03 1.037-.316 2.132-.618 3.254-.899l0 0c.926-.23 2.128-.235 2.797-.015.334.112.699-.043.852-.36C25.084 39.382 24.978 39 24.683 38.808zM20.944 38.716c-.773.192-1.533.396-2.271.606.178-.943.442-1.771.647-2.33l2.422 1.573C21.468 38.601 21.199 38.651 20.944 38.716z"/>
</svg>