<svg xmlns="http://www.w3.org/2000/svg" viewBox="0 0 80 80">
<path d="M73.643 12.95c-.105-.12-.276-.176-.433-.146-.154.03-.276.142-.322.28-.56 1.37-1.938 2.296-3.406 2.305-.07-.006-.178-.012-.293-.018-.176-.01-.372-.02-.46-.03l-.747-.146c-.334-.104-.669-.21-.981-.321l-.312-.139c.367-.721.639-1.473.808-2.231.323-1.185.348-2.393.345-3.528-.001-.351-.288-.641-.64-.646-.174-.01-.337.063-.461.184-.124.121-.193.283-.196.458-.002 1.127-.069 2.593-.568 3.946l-.108.289c-.058.154-.115.309-.165.437-.038.069-.132.254-.227.44-.098.191-.197.385-.229.443-1.544 2.569-4.46 4.331-7.602 4.597-2.307.129-4.608.121-7.224.053.505-.171 1.004-.352 1.493-.542 1.187-.485 2.712-1.178 3.991-2.243.246-.225.489-.468.728-.723 1.887 1.516 4.314 1.539 6.104.04.555-.432 1.063-.965 1.603-1.678.136-.18.107-.435-.067-.582-.088-.073-.2-.113-.312-.096-.113.011-.215.065-.286.151-.515.614-1.009 1.083-1.518 1.438-1.45 1.1-3.317 1-4.709-.232.944-1.222 1.647-2.578 2.049-3.948 3.271.372 5.784-1.351 6.285-4.34.046-.25-.108-.479-.359-.53-.251-.053-.483.095-.541.347-.613 2.878-2.994 3.582-5.107 3.283.151-.953.156-1.89.012-2.785-.145-.966-.451-1.954-.91-2.938-.149-.317-.531-.461-.851-.317-.159.069-.28.197-.342.359-.062.162-.058.339.016.502 1.544 3.251.856 6.973-1.849 9.963-1.172 1.414-2.865 2.205-4.515 2.847-1.69.629-3.51 1.133-5.41 1.5l-.04.008c-.616-.342-1.375-.589-2.357-.589-.935 0-1.461.085-1.845.146-.455.073-.706.115-1.36-.021-.238-.048-.546-.148-.882-.256-1.26-.405-2.985-.958-3.412.322-.372 1.116.135 2.12 1.749 3.465 1.57 1.309 1.68 1.457 1.68 2.272 0 .686-1.533 2.185-5.834 4.335-4.453 2.227-5.53 4.52-5.782 5.64l-8.572-2.606c-1.116-.307-2.311.253-2.778 1.3-1.21 2.712-1.88 5.612-1.86 8.025-1.621.615-3.101 1.286-4.403 1.997-2.413 1.315-3.871 4.347-3.932 4.476-.102.214-.039.472.152.614l3.188 2.392c.136.102.314.13.473.068.16-.059.278-.194.315-.36.362-1.632 1.239-3.038 2.468-3.96.635-.477 1.393-.916 2.258-1.311.273 1.043.638 1.957 1.011 2.517 1.105 1.658 4.256 3.77 4.39 3.858.148.099.338.112.499.032.16-.079.266-.237.278-.415l.266-3.985c.013-.197-.092-.384-.267-.477-1.198-.627-2.02-1.565-2.449-2.792 1.707-.421 3.311-.648 4.404-.785 1.147-.155 3.083 1.247 4.638 2.364 1.03.739 1.92 1.378 2.58 1.599.747.249 1.857-.15 2.438-.403 3.378 3.336 11.331 5.925 12.968 6.433.229.997 1.104 4.251 3.229 6.832 1.084 1.317 2.411 2.226 3.603 2.938-.012.594-.059 1.434-.107 2.315-.073 1.321-.155 2.819-.155 3.993 0 1.146.819 3.418 1.74 4.339.763.763 2.229 1.94 3.85 2.75.166.082.363.067.514-.04.15-.107.229-.29.205-.474l-.531-3.984c-.024-.179-.143-.331-.31-.397-.011-.005-1.164-.485-1.598-1.354-.238-.476-.228-1.472-.218-2.526l.005-.704c0-.354 0-1.202.151-2.239 1.11.512 2.057 1.138 2.449 1.53.484.483.898 1.672 1.337 2.93.39 1.12.833 2.389 1.44 3.54.641 1.215 2.318 3.14 4.485 4.493.081.051.173.076.265.076.072 0 .144-.016.211-.047.153-.071.26-.216.284-.384l.531-3.777c.033-.232-.102-.457-.322-.538-.032-.012-3.217-1.225-3.939-4.11-.091-.364-.146-.767-.206-1.182-.17-1.201-.362-2.563-1.375-3.514-.341-.32-.676-.648-1.011-.977-1.074-1.051-2.183-2.136-3.539-3.008-.069-.53-.23-1.88-.23-2.89 0-1.553.226-2.504.464-3.512.239-1.012.507-2.14.579-3.989 1.115.542 2.766.938 4.541-.029 3.178-1.733 2.927-4.618 2.915-4.74-.018-.18-.131-.335-.296-.407-.165-.075-.356-.051-.501.057-.02.016-2.05 1.516-4.272 1.763-1.05.117-2.381-.513-3.177-.892l-.163-.076c-1.29-1.736-3.722-2.437-6.783-3.318-.525-.15-1.071-.308-1.634-.477-5.658-1.698-6.817-3.905-6.817-6.695 0-2.769 1.633-3.813 3.701-5.137.283-.182.571-.366.858-.558 1.459-.974 2.555-2.839 2.726-4.642.1-1.05-.126-1.985-.64-2.756 1.905.039 3.66.052 5.323.042.393-.011.788-.017 1.185-.021 1.911-.026 3.886-.053 5.725-.711.417-.138.841-.31 1.265-.512.901 1.36 2.081 2.196 3.422 2.422.246.041.494.062.744.062 1.253 0 2.546-.517 3.782-1.52.128-.107.188-.266.16-.425-.03-.166-.152-.31-.312-.365-.152-.054-.319-.021-.431.076-1.285.951-2.576 1.328-3.732 1.082-.991-.208-1.857-.878-2.518-1.94 1.304-.809 2.422-1.872 3.255-3.093.621.236 1.18.411 1.681.522.098.013.209.03.326.05.285.047.607.1.839.09 2.143.157 4.135-1.128 4.84-3.113C73.776 13.229 73.746 13.067 73.643 12.95zM21.242 38.659 21.242 38.659c-.888.223-1.75.455-2.572.694.201-1.233.565-2.306.8-2.916l3.111 2.022C22.125 38.487 21.666 38.554 21.242 38.659z"/>
</svg>