<svg xmlns="http://www.w3.org/2000/svg" viewBox="0 0 80 80">
<path d="M55.373 49.182H43.386h-8.298H23.1c-.552 0-1 .447-1 1v19.315c0 2.104 1.711 3.814 3.814 3.814h9.172 8.298 9.173c2.103 0 3.814-1.711 3.814-3.814V50.182C56.373 49.629 55.925 49.182 55.373 49.182zM24.1 69.497V51.182h9.987v20.13h-8.172C24.914 71.311 24.1 70.498 24.1 69.497zM36.087 71.311v-20.13h6.298v20.13H36.087zM54.373 69.497c0 1.001-.814 1.814-1.814 1.814h-8.173v-20.13h9.987V69.497zM48.379 19.667C48.379 19.667 48.379 19.667 48.379 19.667c.9-.901.9-2.367 0-3.269l-4.015-4.014c-.9-.899-2.366-.899-3.268 0l-9.188 9.187c.545-1.161.955-2.284 1.323-3.294.949-2.602 1.343-3.328 2.13-3.177.678.135 1.354-.024 1.954-.46 2.627-1.908 3.625-9.361 3.799-10.836.064-.549-.328-1.046-.876-1.11-.548-.071-1.045.328-1.11.876-.363 3.079-1.496 8.368-2.988 9.452-.185.134-.295.137-.387.117-2.116-.427-3.091 1.114-3.887 3.088-.027-1.811-.25-3.541-.715-4.934-.842-2.527-2.247-3.233-3.277-3.381-1.777-.257-3.242.942-4.019 3.283-1.007 3.031-.813 7.835 1.041 11.377-3.263-.796-7.072-.804-9.325.005-1.803.647-2.361 1.679-2.511 2.43-.272 1.358.44 2.566 1.955 3.312 1.169.576 2.883.889 4.754.889 1.363 0 2.805-.178 4.182-.527-5.102 3.133-11.367 4.658-11.446 4.678-.537.128-.869.668-.741 1.205.11.459.52.768.972.768.077 0 .155-.009.233-.027.254-.061 3.921-.951 7.998-2.793l-6.055 6.055c-.899.9-.899 2.366 0 3.268l4.014 4.014c.451.45 1.042.676 1.634.676.592 0 1.184-.226 1.634-.676L48.379 19.667zM28.428 27.881l.577-.576c.003-.003.006-.005.008-.008.001-.001.001-.002.002-.002l2.632-2.631 4.454 4.453-4.454 4.454-4.454-4.454L28.428 27.881zM42.511 13.799c.061-.061.141-.091.22-.091.08 0 .16.03.22.091l4.014 4.013c.122.122.122.32 0 .442l-9.449 9.449-4.455-4.454L42.511 13.799zM25.755 11.827c.247-.742.786-1.943 1.689-1.943.049 0 .099.003.149.011.855.122 1.376 1.173 1.663 2.033.96 2.882.72 7.364-.11 10.556-.264.431-.549.86-.87 1.281C25.327 21.128 24.654 15.143 25.755 11.827zM15.901 26.527c-1.004-.495-.913-.953-.878-1.126.094-.469.808-.79 1.225-.939.941-.338 2.18-.493 3.517-.493 2.413 0 5.143.504 7.006 1.345C23.803 27.474 18.26 27.69 15.901 26.527zM20.343 44.434l-4.014-4.013c-.121-.122-.121-.32 0-.441l9.45-9.45 4.454 4.454-9.45 9.45C20.661 44.556 20.464 44.556 20.343 44.434zM63.891 28.865c-.094-.29-.344-.501-.646-.545l-4.837-.702-2.164-4.384c-.27-.545-1.165-.545-1.435 0l-2.164 4.384L47.81 28.32c-.301.044-.552.255-.646.545-.094.289-.016.607.202.82l3.5 3.411-.826 4.818c-.051.3.072.603.318.782.246.178.573.202.842.061l4.327-2.274 4.326 2.274c.117.062.245.092.372.092.166 0 .331-.052.471-.152.246-.18.37-.482.318-.782l-.826-4.818 3.5-3.411C63.907 29.473 63.986 29.154 63.891 28.865zM58.771 32.244c-.189.185-.275.449-.23.708l.624 3.636L55.9 34.872c-.116-.062-.244-.092-.372-.092-.128 0-.256.03-.372.092l-3.264 1.716.624-3.636c.044-.259-.042-.523-.23-.708l-2.64-2.573 3.649-.529c.261-.038.486-.202.603-.438l1.632-3.308 1.632 3.308c.117.235.342.399.603.438l3.649.529L58.771 32.244zM45.487 38.663c-.094-.29-.345-.501-.646-.545l-2.777-.404-1.242-2.517c-.27-.545-1.165-.545-1.435 0l-1.242 2.517-2.777.404c-.301.044-.552.255-.646.545-.094.29-.016.607.203.82l2.009 1.958-.474 2.767c-.052.3.072.604.318.782.247.178.573.202.843.061l2.484-1.306 2.484 1.306c.117.062.245.092.372.092.166 0 .331-.052.47-.152.247-.18.37-.482.318-.782l-.474-2.767 2.009-1.958C45.502 39.27 45.581 38.953 45.487 38.663zM41.857 40.589c-.189.185-.275.449-.23.708l.271 1.583-1.421-.747c-.117-.062-.244-.092-.372-.092-.128 0-.256.03-.373.092l-1.421.747.271-1.583c.044-.259-.042-.523-.23-.708l-1.15-1.12 1.589-.231c.261-.038.485-.202.602-.438l.711-1.44.71 1.44c.117.235.342.399.603.438l1.589.231L41.857 40.589z"/>
</svg>