<svg xmlns="http://www.w3.org/2000/svg" viewBox="0 0 80 80">
<path d="M65.656 63.256 54.262 52.692c3.19-.384 5.476-.796 6.675-1.035.785-.158 1.407-.731 1.621-1.498.215-.764-.016-1.575-.599-2.114l-9.004-8.355c2.17-.273 3.909-.571 5.096-.8.784-.147 1.407-.717 1.628-1.485.221-.771-.007-1.587-.593-2.127l-7.85-7.283c1.682-.214 3.01-.435 3.928-.605.785-.146 1.412-.711 1.637-1.478.227-.77.004-1.59-.576-2.137L45.032 13.082c-.08-.076-.175-.121-.268-.17l2.463-2.401c.397-.389.537-.958.364-1.485-.172-.527-.62-.903-1.167-.983l-3.548-.516L41.29 4.313c-.246-.497-.743-.806-1.298-.806l0 0c-.555 0-1.052.309-1.298.806l-1.587 3.215-3.546.516c-.549.08-.997.456-1.169.983-.172.528-.033 1.097.366 1.487l2.465 2.402c-.092.048-.186.092-.265.167L23.789 23.751c-.591.548-.821 1.367-.598 2.138.224.772.854 1.343 1.658 1.492.962.168 2.289.388 3.916.595l-7.86 7.287c-.586.541-.812 1.354-.59 2.123.224.774.855 1.347 1.653 1.495 1.71.31 3.39.57 5.084.784l-9.001 8.359c-.594.539-.828 1.353-.611 2.124.219.775.845 1.35 1.637 1.5 1.525.286 3.803.668 6.666 1.017L14.347 63.243c-.584.538-.813 1.347-.6 2.111.215.769.835 1.344 1.627 1.504 2.554.496 9.283 1.66 18.016 2.097v5.728c0 1.11.898 2.013 2.002 2.013h9.195c1.11 0 2.013-.903 2.013-2.013v-5.724c8.491-.393 14.901-1.468 18.037-2.09.783-.159 1.402-.734 1.617-1.502C66.468 64.604 66.238 63.794 65.656 63.256zM38.309 9.182l1.683-3.409 1.683 3.409 3.763.547-2.723 2.654.643 3.746-3.365-1.769-3.365 1.769.643-3.746-2.723-2.654L38.309 9.182zM25.541 25.206l9.201-8.79-.023.132c-.094.548.126 1.09.576 1.416.253.184.55.277.849.277.23 0 .462-.055.675-.168l3.173-1.668 3.172 1.668c.491.257 1.076.218 1.525-.109.45-.326.67-.868.577-1.415l-.024-.139 4.031 3.851c-2.821 2.864-9.996 9.086-20.129 10.449l2.97-2.754c.326-.303.444-.769.302-1.191-.143-.422-.52-.721-.963-.763C28.937 25.759 26.909 25.44 25.541 25.206zM30.696 38.46c-.141-.422-.516-.721-.959-.765-2.384-.24-4.699-.563-7.065-.985l3.888-3.606c4.412-.188 8.771-1.281 12.985-3.282.079 1.571 1.382 2.824 2.971 2.824 1.64 0 2.975-1.334 2.975-2.974 0-.996-.511-1.917-1.308-2.462 3.052-2.004 5.292-4.057 6.658-5.45l3.621 3.459c-1.304.234-3.318.548-5.915.805-.443.044-.819.343-.96.765-.142.422-.023.887.303 1.189l3.61 3.348c-3.377 3.079-12.026 9.811-24.447 11.425l3.341-3.103C30.72 39.346 30.838 38.881 30.696 38.46zM29.396 51.455c-.141-.421-.516-.72-.959-.765-3.746-.379-6.718-.855-8.632-1.206l4.654-4.323c3.242-.206 6.479-.753 9.65-1.674-.027.165-.041.332-.041.503 0 1.64 1.334 2.974 2.974 2.974 1.647 0 2.986-1.334 2.986-2.974 0-.874-.382-1.684-1.019-2.241 6.916-2.89 11.743-6.786 14.086-8.941l4.227 3.92c-1.582.295-4.012.688-7.057.991-.443.044-.819.343-.96.765-.142.422-.023.887.303 1.189l4.225 3.919c-3.963 3.383-16.201 12.856-30.247 14.162l5.506-5.109C29.419 52.342 29.537 51.877 29.396 51.455zM35.652 74.435v-5.428h8.686v5.428H35.652zM45.45 66.744H34.546c-8.772-.371-15.633-1.516-18.439-2.049l4.993-4.633c2.589-.051 5.255-.372 7.953-.984-.027.159-.039.32-.039.484 0 1.64 1.335 2.975 2.975 2.975 1.646 0 2.985-1.335 2.985-2.975 0-.738-.273-1.434-.754-1.975 2.718-.947 5.494-2.172 8.275-3.655.134 1.518 1.417 2.713 2.974 2.713 1.64 0 2.974-1.335 2.974-2.975 0-.991-.505-1.91-1.294-2.456 3.834-2.45 6.706-4.78 8.281-6.14l4.768 4.424c-1.548.299-4.514.806-8.632 1.216-.442.044-.818.343-.96.765-.142.422-.023.887.303 1.189l12.987 12.041C60.595 65.351 54.047 66.411 45.45 66.744z"/>
</svg>