<svg xmlns="http://www.w3.org/2000/svg" viewBox="0 0 80 80">
<path d="M36.181 11.852l-.709 4.128c-.078.457.402.806.812.59l3.707-1.949L43.7 16.57c.41.216.89-.133.812-.59l-.708-4.128 2.999-2.924c.332-.324.149-.887-.31-.954l-4.145-.602-1.854-3.756c-.205-.416-.798-.416-1.004 0l-1.854 3.756-4.145.602c-.459.067-.642.631-.31.954L36.181 11.852zM21.605 37.711c1.667.31 4.332.745 7.697 1.088l-5.152 4.778c15.83-1.113 26.43-10.561 28.911-12.995l-4.124-3.825c2.823-.276 5.044-.632 6.494-.902.815-.152 1.11-1.166.502-1.73l-4.341-4.025c-1.321 1.431-4.144 4.207-8.222 6.772 1.062.329 1.834 1.319 1.834 2.489 0 1.439-1.167 2.606-2.606 2.606-1.439 0-2.606-1.167-2.606-2.606 0-.216.03-.425.079-.626-4.177 2.099-9.298 3.715-15.194 3.745l-3.776 3.502C20.493 36.544 20.789 37.559 21.605 37.711zM24.573 25.842c1.471.266 3.711.619 6.493.897l-4.732 4.388c12.908-.672 21.724-9.113 24.303-11.913l-5.053-4.686.211 1.232c.093.542-.056 1.094-.41 1.513-.357.423-.876.665-1.426.665-.299 0-.599-.074-.866-.214l-3.102-1.631-3.101 1.63c-.268.141-.568.215-.867.215-.55 0-1.069-.242-1.426-.665-.353-.419-.502-.97-.41-1.513l.211-1.232-10.334 9.583C23.456 24.677 23.755 25.694 24.573 25.842zM18.637 50.88c1.916.363 5.164.905 9.323 1.322l-7.27 6.742c16.737-.429 31.387-12.613 34.812-15.676l-4.798-4.449c3.414-.342 6.054-.781 7.697-1.096.812-.156 1.102-1.167.496-1.729l-4.881-4.527c-1.74 1.711-7.404 6.83-16.048 10.258.934.396 1.59 1.321 1.59 2.4 0 1.439-1.167 2.606-2.606 2.606-1.439 0-2.606-1.167-2.606-2.606 0-.444.112-.862.308-1.228-3.596 1.128-7.613 1.911-11.998 2.063l-4.518 4.189C17.532 49.714 17.824 50.726 18.637 50.88zM65.67 64.857 52.049 52.225c4.224-.416 7.435-.963 9.32-1.333.809-.159 1.096-1.167.492-1.728l-5.4-5.008c-1.447 1.301-5.041 4.361-10.04 7.471 1.057.332 1.823 1.319 1.823 2.486 0 1.439-1.167 2.606-2.606 2.606-1.439 0-2.606-1.167-2.606-2.606 0-.183.019-.362.055-.534-3.001 1.649-6.365 3.205-9.976 4.401.741.46 1.235 1.277 1.235 2.213 0 1.439-1.167 2.606-2.606 2.606-1.439 0-2.606-1.167-2.606-2.606 0-.411.098-.799.267-1.145-3.086.757-6.31 1.212-9.61 1.212-.171 0-.342-.005-.513-.008l-4.949 4.589c-.606.562-.317 1.572.494 1.729 3.254.629 10.39 1.816 19.522 2.192v7.03c0 .499.405.904.904.904h9.483c.499 0 .904-.405.904-.904V68.77c9.399-.364 16.371-1.549 19.547-2.185C65.991 66.423 66.273 65.417 65.67 64.857z"/>
</svg>