<svg xmlns="http://www.w3.org/2000/svg" viewBox="0 0 80 80">
<path d="M40 10.399c1.288 0 2.332-1.044 2.332-2.332 0-1.288-1.044-2.333-2.332-2.333-1.288 0-2.332 1.044-2.332 2.333C37.667 9.355 38.712 10.399 40 10.399zM40.027 34.031c-3.227 0-5.853 2.626-5.853 5.854 0 3.227 2.626 5.853 5.853 5.853 3.227 0 5.853-2.626 5.853-5.853C45.879 36.657 43.254 34.031 40.027 34.031zM40.027 43.911c-2.22 0-4.026-1.806-4.026-4.026 0-2.22 1.806-4.027 4.026-4.027 2.22 0 4.026 1.807 4.026 4.027C44.052 42.105 42.246 43.911 40.027 43.911zM40 69.601c-1.2879 0-2.332 1.0441-2.332 2.332 0 1.2879 1.0441 2.332 2.332 2.332 1.2879 0 2.332-1.0441 2.332-2.332 0-1.2879-1.0441-2.332-2.332-2.332ZM68.754 25.916c1.113-.649 1.488-2.078.839-3.19-.649-1.112-2.078-1.488-3.19-.839-1.113.649-1.488 2.078-.839 3.19C66.214 26.19 67.642 26.565 68.754 25.916zM62.28 25.937l-4.899 2.86.615-4.545c.068-.5-.283-.96-.782-1.028-.5-.07-.96.282-1.028.783l-.806 5.959-5.844 3.411.754-9.961c.027-.35-.15-.685-.454-.86-.304-.177-.682-.161-.972.036l-7.95 5.427v-6.494l4.742-3.737c.397-.312.465-.887.152-1.283-.313-.396-.887-.466-1.283-.152l-3.611 2.845v-5.531c0-.504-.409-.914-.914-.914-.504 0-.914.409-.914.914v5.673l-3.615-2.823c-.398-.31-.972-.24-1.282.158-.311.397-.24.972.157 1.283l4.739 3.7v6.487l-8.146-5.555c-.29-.197-.668-.214-.972-.036-.305.175-.481.51-.455.86l.722 9.593-5.444-3.303-.706-5.971c-.059-.502-.512-.844-1.014-.801-.501.06-.859.514-.8 1.015l.538 4.555-4.849-2.942c-.432-.262-.993-.124-1.255.307-.262.432-.124.994.307 1.255l4.729 2.869-4.306 1.612c-.472.176-.712.703-.535 1.176.137.367.486.593.856.593.107 0 .215-.018.32-.058l5.655-2.117 5.708 3.463-8.886 4.275c-.316.152-.518.472-.518.823 0 .351.201.671.518.823l9.115 4.39L23.7 48.457l-5.585-2.228c-.469-.189-1.001.041-1.187.51-.187.47.041 1.001.51 1.188l4.259 1.699-4.898 2.86c-.436.254-.583.813-.328 1.249.17.291.476.453.79.453.157 0 .315-.04.46-.125l4.777-2.789-.637 4.554c-.07.5.278.961.778 1.031.043.007.086.009.128.009.448 0 .84-.33.904-.787l.836-5.979 5.716-3.337-.707 9.339c-.026.35.15.685.455.86.303.176.682.161.972-.036l8.145-5.56v6.972l-4.739 3.7c-.398.311-.468.886-.157 1.283.31.397.885.468 1.282.158l3.615-2.823v5.673c0 .504.409.914.914.914.505 0 .914-.409.914-.914v-5.531l3.611 2.845c.167.133.367.196.565.196.27 0 .538-.119.718-.348.312-.396.244-.97-.152-1.283l-4.742-3.737v-6.966l7.95 5.421c.155.105.335.158.515.158.157 0 .316-.04.457-.123.304-.175.48-.51.454-.86l-.694-9.216 5.725 3.473.735 5.994c.057.463.451.802.906.802.037 0 .074-.002.112-.007.501-.061.857-.518.796-1.018l-.56-4.564 4.729 2.869c.148.09.312.133.473.133.309 0 .61-.156.782-.439.262-.432.124-.994-.308-1.255l-4.85-2.942 4.288-1.627c.472-.18.709-.707.53-1.179-.179-.471-.707-.706-1.178-.53l-5.622 2.133-6.121-3.713 9.217-4.435c.317-.152.518-.472.518-.823 0-.351-.201-.671-.518-.823l-8.558-4.122 5.722-3.34 5.618 2.212c.11.044.223.064.335.064.364 0 .709-.219.851-.579.185-.47-.046-.999-.515-1.185l-4.279-1.685 4.777-2.789c.436-.254.583-.813.328-1.249C63.275 25.83 62.716 25.681 62.28 25.937zM48.121 43.911c-.339.163-.544.516-.515.891l.719 9.548-7.913-5.396c-.155-.106-.335-.158-.515-.158-.18 0-.36.052-.515.158l-7.901 5.394.722-9.538c.028-.375-.176-.729-.515-.892l-8.631-4.157 8.627-4.151c.292-.14.474-.424.503-.74.004-.023.003-.046.006-.069.001-.028.008-.055.006-.083l-.719-9.546 7.913 5.396c.171.117.372.163.57.151.013.001.024.008.037.008.287 0 .533-.141.7-.348l7.624-5.206-.722 9.538c-.028.375.176.729.515.892l8.631 4.157L48.121 43.911zM11.245 54.084c-1.112.649-1.488 2.078-.838 3.19.649 1.113 2.077 1.488 3.19.839 1.113-.649 1.488-2.077.838-3.19C13.786 53.81 12.358 53.435 11.245 54.084zM68.512 54.569c-1.101-.668-2.535-.317-3.204.784-.668 1.101-.317 2.536.784 3.204 1.101.668 2.536.317 3.204-.784C69.965 56.672 69.613 55.237 68.512 54.569zM13.908 21.443c-1.101-.668-2.536-.317-3.204.784-.668 1.101-.317 2.536.784 3.204 1.101.668 2.536.317 3.204-.784C15.36 23.545 15.009 22.111 13.908 21.443z"/>
</svg>