<svg xmlns="http://www.w3.org/2000/svg" viewBox="0 0 80 80">
<path d="M73.066 31.372h-4.026l3.306-3.262c.39-.384.394-1.012.009-1.402-.384-.39-1.012-.393-1.402-.009l-3.469 3.423v-3.906c0-.548-.444-.992-.992-.992C65.944 25.224 65.5 25.666 65.5 26.215v5.863l-5.256 5.185c-1.265-1.615-2.755-3.07-4.447-4.323 1.039-.464 1.83-1.333 2.169-2.424.353-1.137.177-2.358-.481-3.351l-.242-.365c-.396-.597-.93-1.046-1.529-1.345.69-1.711 1.059-3.516 1.059-5.391 0-7.984-6.496-14.48-14.48-14.48-7.984 0-14.48 6.496-14.48 14.48 0 .276-.005.563-.01.854-.026 1.464-.04 3.162.571 4.487-.638.262-1.216.69-1.656 1.277-.68.906-.937 2.062-.707 3.173.231 1.11.927 2.068 1.912 2.629.212.12.426.22.638.333-1.799 1.307-3.373 2.842-4.697 4.553L18.5 32.078v-5.863c0-.548-.444-.992-.992-.992-.548 0-.992.443-.992.992v3.906l-3.469-3.423c-.39-.383-1.018-.38-1.403.009-.384.39-.38 1.018.01 1.402l3.306 3.262h-4.027c-.548 0-.992.443-.992.992 0 .548.444.992.992.992h6.037l5.732 5.655c-2.329 3.632-3.618 7.899-3.618 12.395 0 12.688 10.321 23.009 23.009 23.009 12.688 0 23.009-10.321 23.009-23.009 0-4.542-1.318-8.85-3.694-12.506l5.62-5.545h6.036c.548 0 .992-.443.992-.992C74.057 31.815 73.614 31.372 73.066 31.372zM46.656 13.519c.877 0 1.587.711 1.587 1.587 0 .877-.71 1.587-1.587 1.587-.876 0-1.587-.71-1.587-1.587C45.069 14.23 45.78 13.519 46.656 13.519zM41.001 18.396c.757-1.081 2.314-1.199 3.226-.246l3.817 3.99c.269.281.012.741-.368.66l-5.399-1.156C40.812 21.33 40.141 19.623 41.001 18.396zM37.928 13.519c.877 0 1.587.711 1.587 1.587 0 .877-.71 1.587-1.587 1.587-.876 0-1.587-.71-1.587-1.587C36.341 14.23 37.052 13.519 37.928 13.519zM36.504 21.68c.528-.132 1.061.193 1.195.719.034.123.737 2.478 4.542 2.274.544-.037 1.013.393 1.041.94.028.547-.393 1.013-.94 1.041-.182.009-.361.013-.534.013-4.028 0-5.707-2.443-6.034-3.79C35.645 22.345 35.971 21.81 36.504 21.68zM28.305 27.871c.381-.508.969-.782 1.57-.782.027 0 .054.009.082.011 2.031 1.192 4.108 1.961 6.158 2.421 3.186.856 7.205 1.149 11.813-.191 3.237-.739 5.651-1.804 6.553-2.237.439.122.837.396 1.109.805l.242.365c.327.494.415 1.101.239 1.667-.175.566-.591 1.016-1.141 1.238-5.532 2.231-16.268 5.145-26.026-.408-.49-.279-.837-.755-.951-1.309C27.838 28.898 27.966 28.322 28.305 27.871zM42.292 62.315c-.877 0-1.587-.71-1.587-1.587 0-.876.71-1.587 1.587-1.587.877 0 1.587.711 1.587 1.587C43.879 61.605 43.169 62.315 42.292 62.315zM42.292 55.571c-.877 0-1.587-.711-1.587-1.587 0-.877.71-1.587 1.587-1.587.877 0 1.587.71 1.587 1.587C43.879 54.861 43.169 55.571 42.292 55.571zM42.292 48.827c-.877 0-1.587-.711-1.587-1.587 0-.876.71-1.587 1.587-1.587.877 0 1.587.71 1.587 1.587C43.879 48.117 43.169 48.827 42.292 48.827zM56.046 50.914c-.053.505-.479.888-.986.888h-.504l.09 4.944c.008.468-.365.856-.833.864-.005 0-.01 0-.016 0-.462 0-.84-.37-.849-.833l-.09-4.975H50.63l.048 5.349c.004.468-.373.852-.841.856-.003 0-.005 0-.008 0-.465 0-.844-.375-.849-.841l-.048-5.363h-.69c-.288 0-.561-.124-.749-.342-.189-.217-.274-.506-.233-.79.964-6.749-2.999-13.132-4.13-14.788 2.476-.132 4.804-.531 6.896-1.051.019-.005.038-.01.057-.015.685-.171 1.342-.353 1.971-.544.001 0 .001 0 .002 0C57.071 40.525 56.093 50.466 56.046 50.914z"/>
</svg>