<svg xmlns="http://www.w3.org/2000/svg" viewBox="0 0 80 80">
<path d="M47.215 20.022c.001-.026.008-.051.008-.077v-3.236c0-1.785-1.174-3.307-2.821-3.921.06-.41.099-.826.099-1.253 0-3.336-1.846-5.949-4.202-5.949-2.356 0-4.202 2.614-4.202 5.949 0 .427.031.847.091 1.255-1.643.616-2.813 2.135-2.813 3.918v3.236c0 .026.008.051.009.077-11.82 3.074-20.572 13.836-20.572 26.605 0 15.156 12.331 27.486 27.487 27.486 15.157 0 27.487-12.331 27.487-27.486C67.786 33.858 59.035 23.096 47.215 20.022zM40.3 7.876c.902 0 1.912 1.565 1.912 3.659 0 .328-.032.645-.08.956h-3.668c-.048-.31-.075-.628-.075-.956C38.388 9.44 39.397 7.876 40.3 7.876zM35.666 16.708c0-1.062.956-1.927 2.13-1.927h5.006c1.175 0 2.131.864 2.131 1.927l.011 2.832c-1.511-.258-3.061-.4-4.645-.4-1.58 0-3.126.141-4.633.398V16.708zM40.3 71.822c-13.893 0-25.196-11.303-25.196-25.196 0-13.894 11.303-25.197 25.196-25.197 13.894 0 25.196 11.303 25.196 25.197C65.496 60.52 54.193 71.822 40.3 71.822z"/>
</svg>