<svg xmlns="http://www.w3.org/2000/svg" viewBox="0 0 80 80">
<path d="M68.334 68.696 52.217 52.631c-.907-.903-.267-2.452 1.013-2.452h7.41c1.502 0 2.253-1.817 1.189-2.878L49.949 35.46c-.906-.904-.266-2.452 1.013-2.452h4.244c1.502 0 2.253-1.817 1.189-2.878L45.992 19.761c.593-.41.984-1.093.984-1.867v-3.261c0-1.799-1.183-3.331-2.842-3.95.061-.413.1-.833.1-1.262 0-3.361-1.86-5.994-4.234-5.994-2.374 0-4.234 2.633-4.234 5.994 0 .43.031.853.092 1.265-1.655.621-2.834 2.151-2.834 3.947v3.261c0 .774.39 1.457.984 1.867L23.605 30.13c-1.064 1.061-.313 2.878 1.189 2.878h4.244c1.28 0 1.919 1.548 1.013 2.452l-11.88 11.841c-1.064 1.061-.313 2.878 1.189 2.878h7.41c1.279 0 1.919 1.548 1.013 2.452L11.666 68.696c-1.064 1.06-.313 2.878 1.189 2.878h54.29C68.647 71.573 69.398 69.756 68.334 68.696zM40 5.734c.909 0 1.926 1.576 1.926 3.687 0 .33-.032.65-.081.963H38.15c-.048-.312-.076-.633-.076-.963C38.074 7.31 39.091 5.734 40 5.734zM35.332 14.633c0-1.07.963-1.941 2.146-1.941h5.043c1.184 0 2.147.871 2.147 1.941l.037 3.222h-9.374V14.633zM29.361 58.778l-7.668 7.668h4.376c.319 0 .577.258.577.577C26.646 67.342 26.388 67.6 26.069 67.6H20.3c-.233 0-.444-.141-.533-.356-.089-.215-.04-.464.125-.629l8.653-8.653c.225-.225.59-.225.816 0C29.587 58.188 29.587 58.553 29.361 58.778zM31.669 40.318l-5.361 5.361h2.838c.319 0 .577.258.577.577 0 .319-.258.577-.577.577h-4.23c-.233 0-.444-.141-.533-.356-.089-.215-.04-.464.125-.629l6.346-6.346c.225-.225.59-.225.816 0C31.894 39.727 31.894 40.092 31.669 40.318zM34.553 24.742l-4.207 4.207h2.069c.319 0 .577.258.577.577 0 .319-.258.577-.577.577h-3.461c-.233 0-.444-.141-.533-.356-.089-.215-.04-.464.125-.629l5.192-5.192c.225-.225.59-.225.816 0C34.779 24.152 34.779 24.517 34.553 24.742z"/>
</svg>