<svg xmlns="http://www.w3.org/2000/svg" viewBox="0 0 80 80">
<path d="M73.346 57.037c-.258-8.262 3.483-18.074-.636-26.63-2.237-4.646-9.257-11.172-14.683-11.172-5.426 0-9.256-4.15-11.491-5.426-2.235-1.277-6.065-1.915-9.576.957-3.511 2.873-7.98 2.873-15.96 8.937-6.24 4.743-9.099 11.702-10.052 14.519-.167.127-.325.251-.467.369-.227.189-.554.282-.933.392-.275.079-.551.161-.817.275-4.895 2.094-5.572 4.957-5.54 6.477.054 2.546 1.952 4.626 3.71 5.29 3.382 1.281 7.284-.111 8.566-.568.846-.3 1.749-.183 2.418.317 3.895 2.901 10.718.929 13.471-.056.522-.188 1.091-.203 1.602-.042 5.263 1.65 12.077.863 14.763.446.424-.065.862-.024 1.269.121 2.697.967 5.168 1.452 7.391 1.452 1.493 0 2.873-.218 4.135-.656 2.873-.995 4.423-4.185 3.455-7.11-.507-1.532-1.297-2.655-2.154-3.502-.37-3.737.678-4.954.678-4.954 4.855 5.141 4.855 18.193 4.802 20.887-1.125.712-2.009 1.773-2.401 3.116-.89 3.049 1.009 6.294 4.234 7.236.596.174 1.203.26 1.805.26.965 0 1.915-.222 2.781-.661 1.421-.72 2.443-1.936 2.876-3.422C77.385 61.168 75.954 58.294 73.346 57.037zM62.47 45.425c.71 2.145-.376 4.395-2.471 5.12-2.751.955-6.372.682-10.475-.791-.452-.162-.93-.244-1.408-.244-.213 0-.426.017-.637.05-2.01.311-8.962 1.202-14.048-.393-.837-.263-1.764-.242-2.608.062-1.961.702-8.619 2.794-11.993.277-1.093-.814-2.549-1.017-3.894-.537-1.147.409-4.638 1.651-7.477.579-1.264-.479-2.651-2.085-2.688-3.846-.042-1.965 1.542-3.69 4.58-4.989h.001c.206-.088.42-.148.632-.208.48-.138 1.025-.295 1.507-.695 1.732-1.438 5.501-3.744 11.277-3.025.802.101 1.598-.019 2.302-.345 2.098-.971 9.35-3.838 14.562.12 1.095.831 2.538 1.05 3.861.586 2.85-.999 9.719-2.848 11.936 1.605.477.957 1.36 1.706 2.422 2.056C59.433 41.327 61.518 42.55 62.47 45.425zM75.072 63.445 75.072 63.445c-.31 1.062-1.046 1.935-2.074 2.454-1.044.529-2.261.633-3.427.293-2.388-.697-3.804-3.063-3.159-5.275.524-1.794 2.245-2.943 4.15-2.943.445 0 .9.063 1.351.194C74.301 58.867 75.718 61.234 75.072 63.445z"/>
</svg>