<svg xmlns="http://www.w3.org/2000/svg" viewBox="0 0 80 80">
<path d="M47.45 20.563c.002-.041.013-.08.013-.122v-3.348c0-1.847-1.215-3.421-2.919-4.056.062-.424.102-.855.102-1.296 0-3.451-1.91-6.155-4.347-6.155-2.438 0-4.347 2.704-4.347 6.155 0 .442.032.876.094 1.299-1.7.637-2.91 2.209-2.91 4.054v3.348c0 .041.012.08.014.121-11.582 3.141-20.104 13.722-20.104 26.298 0 15.051 12.202 27.252 27.252 27.252 15.051 0 27.252-12.201 27.252-27.252C67.552 34.285 59.031 23.704 47.45 20.563zM40.3 7.955c.934 0 1.978 1.619 1.978 3.786 0 .339-.033.668-.083.989H38.4c-.05-.32-.078-.65-.078-.989C38.322 9.573 39.366 7.955 40.3 7.955zM25.568 51.481c-.348 1.262-1.652 2.003-2.914 1.655-1.262-.348-2.003-1.652-1.655-2.914.348-1.262 1.652-2.002 2.914-1.655C25.175 48.914 25.915 50.219 25.568 51.481zM35.805 29.378c-.378.141-8.624 3.341-10.12 12.715-.139.875-.894 1.497-1.752 1.497-.094 0-.187-.007-.282-.022-.97-.155-1.63-1.066-1.475-2.035 1.834-11.492 11.972-15.334 12.403-15.491.921-.338 1.942.134 2.28 1.056C37.195 28.019 36.724 29.039 35.805 29.378zM35.506 20.038v-2.945c0-1.099.989-1.993 2.204-1.993h5.179c1.216 0 2.205.894 2.205 1.993l.012 2.947c-1.561-.278-3.165-.431-4.806-.431C38.663 19.609 37.063 19.761 35.506 20.038z"/>
</svg>