<svg xmlns="http://www.w3.org/2000/svg" viewBox="0 0 80 80">
<path d="M66.973 20.113c-.977 0-2.022.228-3.164.705-3.107 1.543-11.816 5.138-15.681 3.725 2.724-2.467 4.159-5.968 3.947-9.657-.361-6.206-5.51-11.202-11.721-11.375-3.3-.1-6.42 1.116-8.787 3.412-2.366 2.297-3.669 5.377-3.669 8.67 0 3.415 1.448 6.662 3.974 8.95-3.854 1.413-12.574-2.182-15.758-3.76-2.974-1.174-4.932-.578-6.051.126-1.502.946-2.449 2.68-2.598 4.827 0 1.708.694 3.212 2.057 4.465 1.201 1.117 2.801 1.914 4.212 2.548 2.93 1.303 9.518 3.674 12.588 4.532.559.155 1.436 1.491 1.645 2.502 1.525 7.541-7.905 26.968-8.036 27.248-.656 1.74-.592 3.638.181 5.343.776 1.71 2.167 3.014 3.919 3.673.785.293 1.607.443 2.444.443 2.908 0 5.548-1.826 6.546-4.487l5.944-13.312c.378-.85 1.694-.852 2.073.001l5.921 13.257c.657 1.75 1.961 3.141 3.672 3.916.926.42 1.909.631 2.893.631.827 0 1.654-.149 2.449-.448 1.751-.658 3.142-1.962 3.918-3.674.773-1.704.837-3.601.144-5.427-.095-.195-9.536-19.622-8.001-27.157.209-1.009 1.09-2.366 1.627-2.502 3.375-.862 9.396-3.168 12.595-4.532 2.696-1.153 6.281-3.137 6.278-7.087C72.3 22.398 70.014 20.113 66.973 20.113zM65.483 30.949c-3.141 1.338-9.036 3.598-12.31 4.435-1.61.411-2.781 2.633-3.066 4.01-1.668 8.191 7.758 27.595 8.124 28.332.471 1.248.424 2.611-.132 3.837-.559 1.232-1.559 2.173-2.82 2.646-1.248.471-2.612.425-3.838-.133-1.232-.558-2.171-1.559-2.666-2.872l-5.943-13.31c-.507-1.139-1.591-1.845-2.832-1.845-1.24 0-2.325.706-2.831 1.844l-5.966 13.366c-.734 1.955-2.635 3.267-4.729 3.267-.601 0-1.192-.107-1.754-.317-1.259-.473-2.261-1.412-2.819-2.644-.556-1.227-.603-2.59-.169-3.754.402-.822 9.816-20.226 8.16-28.419-.278-1.351-1.439-3.558-3.043-4.002-3.003-.839-9.449-3.16-12.313-4.433-1.261-.567-2.683-1.271-3.68-2.197-.973-.893-1.426-1.853-1.428-2.953.102-1.446.716-2.625 1.683-3.234 1.054-.664 2.535-.651 4.206.004 1.259.626 12.448 6.048 17.654 3.639.548-.249.929-.752 1.019-1.348.09-.593-.126-1.185-.587-1.594-2.249-1.933-3.539-4.732-3.539-7.68 0-2.757 1.092-5.335 3.073-7.26 1.982-1.925 4.598-2.932 7.362-2.859 5.202.145 9.514 4.329 9.816 9.524.184 3.183-1.097 6.198-3.526 8.283-.451.399-.666.992-.577 1.586.09.594.471 1.098 1.012 1.343 5.214 2.407 16.402-3.009 17.6-3.608.842-.349 1.633-.526 2.35-.526 2.304 0 3.468 1.873 3.598 3.659C70.571 27.835 69.001 29.444 65.483 30.949zM39.994 32.626c-1.043 0-1.89.848-1.89 1.904 0 1.044.847 1.891 1.89 1.891 1.057 0 1.904-.847 1.904-1.891C41.898 33.474 41.05 32.626 39.994 32.626zM39.994 46.724c-1.043 0-1.89.847-1.89 1.903 0 1.044.847 1.891 1.89 1.891 1.057 0 1.904-.847 1.904-1.891C41.898 47.572 41.05 46.724 39.994 46.724zM39.994 39.675c-1.043 0-1.89.847-1.89 1.903 0 1.044.847 1.891 1.89 1.891 1.057 0 1.904-.847 1.904-1.891C41.898 40.523 41.05 39.675 39.994 39.675zM43.26 18.505l-.123.123c-.601.577-1.498 1.449-3.144 1.449-1.645 0-2.578-.81-3.204-1.523-.344-.38-.933-.417-1.314-.073-.393.344-.43.933-.086 1.314.479.528 1.916 2.149 4.605 2.149 2.408 0 3.783-1.338 4.446-1.977l.111-.123c.38-.356.393-.945.036-1.314C44.231 18.161 43.641 18.149 43.26 18.505zM44.022 12.316c-.86 0-1.548.688-1.548 1.535 0 .847.688 1.535 1.548 1.535.847 0 1.535-.688 1.535-1.535C45.557 13.004 44.869 12.316 44.022 12.316zM37.526 13.986c0-.847-.688-1.535-1.548-1.535-.847 0-1.535.688-1.535 1.535 0 .86.688 1.547 1.535 1.547C36.838 15.533 37.526 14.845 37.526 13.986z"/>
</svg>