<svg xmlns="http://www.w3.org/2000/svg" viewBox="0 0 80 80">
<path d="M70.173 18.958c-2.275 0-4.316 1.005-5.717 2.588-9.866-8.314-26.875-7.327-34.989-.371-8.863 7.596-6.784 14.926-9.499 16.283-4.376 2.188-1.357 5.428-4.339 7.025-2.493 1.335-3.354 3.549-3.651 5.685h-.339c-4.111 0-7.456 3.345-7.456 7.456 0 4.112 3.345 7.457 7.456 7.457H62.22c4.111 0 7.456-3.345 7.456-7.457 0-4.111-3.345-7.456-7.456-7.456h-.18c-.148-1.716-.733-3.375-2.721-4.568-2.602-1.561-1.357-5.427-4.071-6.784-2.714-1.357-3.564-4.462-1.357-8.141 1.776-2.961 4.845-4.113 7.74-4.471.314-.039.614-.046.923-.067-.01.155-.024.309-.024.467 0 4.215 3.429 7.644 7.644 7.644 4.215 0 7.644-3.429 7.644-7.644C77.818 22.389 74.388 18.958 70.173 18.958zM67.957 57.623c0 3.164-2.574 5.738-5.737 5.738H11.639c-3.163 0-5.737-2.574-5.737-5.738 0-3.164 2.574-5.737 5.737-5.737H62.22C65.383 51.886 67.957 54.459 67.957 57.623zM70.173 32.527c-3.267 0-5.925-2.658-5.925-5.925 0-3.267 2.658-5.925 5.925-5.925 3.267 0 5.925 2.658 5.925 5.925C76.098 29.869 73.44 32.527 70.173 32.527z"/>
</svg>