<svg xmlns="http://www.w3.org/2000/svg" xmlns:xlink="http://www.w3.org/1999/xlink" width="20" height="20" viewBox="0 0 20 20">
  <g id="Icon-nodetype-2_5" data-name="Icon-nodetype-2 – 5">
    <g id="Group_125" data-name="Group 125" transform="translate(-1460.356 -2007.094)">
      <path id="Path_257" data-name="Path 257" d="M1463.91,2020.69v-7.213h13.49v2.873a3.24,3.24,0,0,1,.365.614v-3.546a.305.305,0,0,0-.305-.3H1463.85a.305.305,0,0,0-.305.3v7.332a.305.305,0,0,0,.305.3h9.239a3.266,3.266,0,0,1-.479-.365Z" transform="translate(-0.915 -0.909)" fill="none"/>
      <path id="Path_258" data-name="Path 258" d="M1476.78,2011.682H1462.7a.6.6,0,0,0-.594.594v8.244a.6.6,0,0,0,.594.594h4.944v.868h-2.68a.239.239,0,1,0,0,.477h9.552a.239.239,0,1,0,0-.477h-2.68v-.868h4.479l-.808-.911a3.225,3.225,0,0,1-3.332-.058h-9.239a.305.305,0,0,1-.3-.305v-7.332a.305.305,0,0,1,.3-.305h13.609a.3.3,0,0,1,.305.305v3.546a3.261,3.261,0,0,1-.255,3.131.278.278,0,0,1,.026.021l.23.259.525.59v-7.779A.594.594,0,0,0,1476.78,2011.682Z" transform="translate(0 0)" fill="#a9a9a9"/>
      <path id="Path_259" data-name="Path 259" d="M1464.545,2014.112v7.213h8.7a3.246,3.246,0,1,1,4.789-4.34v-2.873Z" transform="translate(-1.55 -1.544)" fill="#a9a9a9"/>
      <path id="Path_260" data-name="Path 260" d="M1502.379,2035.384l-1.171-1.318-.54-.608-.347-.391-.081-.091a3.256,3.256,0,0,1-.323.337,3.343,3.343,0,0,1-.3.248l.1.116.86.969,1.161,1.308a.251.251,0,0,0,.353.02l.267-.237h0A.251.251,0,0,0,1502.379,2035.384Z" transform="translate(-23.836 -13.532)" fill="#a9a9a9"/>
      <path id="Path_261" data-name="Path 261" d="M1492,2021.053a2.883,2.883,0,1,0-1.743,4.009,2.853,2.853,0,0,0,.625-.283,2.9,2.9,0,0,0,.9-.84,2.975,2.975,0,0,0,.22-.382,2.851,2.851,0,0,0,0-2.5Zm-2.28,3.644a2.28,2.28,0,0,1-.529,0,2.408,2.408,0,1,1,.529,0Z" transform="translate(-15.51 -4.916)" fill="#a9a9a9"/>
    </g>
  </g>
</svg>
