<svg xmlns="http://www.w3.org/2000/svg" xmlns:xlink="http://www.w3.org/1999/xlink" width="20" height="20" viewBox="0 0 20 20">
  <g id="Pause">
    <g id="Group_82" data-name="Group 82" transform="translate(-10.199 -5.086)">
      <path id="Path_181" data-name="Path 181" d="M20.2,23.086a8.04,8.04,0,0,1-1.569-.154A8,8,0,0,1,21.767,7.242h0A8,8,0,0,1,20.2,23.086ZM20.187,8.373a6.713,6.713,0,1,0,6.6,8.029,6.715,6.715,0,0,0-5.272-7.9A6.617,6.617,0,0,0,20.187,8.373Z" transform="translate(0 0)" fill="#444"/>
      <g id="Group_81" data-name="Group 81" transform="translate(17.177 11.784)">
        <path id="Path_182" data-name="Path 182" d="M16.916,16.248H15.642a.735.735,0,0,1-.736-.736V10.375a.735.735,0,0,1,.736-.734h1.274a.735.735,0,0,1,.736.734v5.138A.735.735,0,0,1,16.916,16.248Zm-1.09-.919h.907V10.56h-.907Z" transform="translate(-14.906 -9.641)" fill="#444"/>
        <path id="Path_183" data-name="Path 183" d="M18.722,16.248h-1.3a.726.726,0,0,1-.725-.726V10.366a.725.725,0,0,1,.725-.725h1.3a.725.725,0,0,1,.725.725v5.156A.726.726,0,0,1,18.722,16.248Zm-1.1-.919h.907V10.56H17.62Z" transform="translate(-13.4 -9.641)" fill="#444"/>
      </g>
    </g>
  </g>
</svg>
