<svg xmlns="http://www.w3.org/2000/svg" xmlns:xlink="http://www.w3.org/1999/xlink" width="100" height="100" viewBox="0 0 100 100">
  <g id="Shake_hands" data-name="Shake hands">
    <path id="Path_173" data-name="Path 173" d="M401.819,397.281l-7.2-13.92a4.831,4.831,0,0,0-2.946-2.429,4.909,4.909,0,0,0-3.79.412l-13.248,6.026a1.768,1.768,0,0,1-1.4-.587c-3.142-3.368-6.13-6.8-13.526-4.135l-.023.009L345.19,388.12l-3.458-1.7h0l-10.456-5.088c-2.176-1.145-4.653-.187-6.047,2.346l-7.459,13.544a4.859,4.859,0,0,0,2.072,6.683l10.023,4.624a4.936,4.936,0,0,0-.837,2.52,5.305,5.305,0,0,0,1.38,3.7,5.362,5.362,0,0,0,3.249,1.723A5.223,5.223,0,0,0,335,419.835a5.5,5.5,0,0,0,3.214,1.755,5.389,5.389,0,0,0,4.634,5.06,5.367,5.367,0,0,0,4.922,5.155,5.02,5.02,0,0,0,3.7-1.379l1.279-1.153a4.959,4.959,0,0,0,1.077-1.416l8.285,3.476a5.188,5.188,0,0,0,7.162-4.89,5.186,5.186,0,0,0,6.132-5.53,5.113,5.113,0,0,0,4.334-3.025,4.842,4.842,0,0,0,.315-2.539,5.241,5.241,0,0,0,5.147-4l14.51-7.444A4.949,4.949,0,0,0,401.819,397.281ZM335.26,412.71a1.585,1.585,0,0,1-2.238-.114,2.112,2.112,0,0,1-.582-.94,1.6,1.6,0,0,1,.482-1.533l4.607-4.16a1.6,1.6,0,0,1,1.363-.38,2.1,2.1,0,0,1,1.49,1.651,1.6,1.6,0,0,1-.516,1.317Zm4.115,5.441a1.563,1.563,0,0,1-.663.093,1.6,1.6,0,0,1-1.058-.518h0a2.048,2.048,0,0,1-.6-1.027,1.6,1.6,0,0,1,.5-1.447l6.037-5.452a1.6,1.6,0,0,1,1.334-.385,2.08,2.08,0,0,1,1.521,1.685,1.6,1.6,0,0,1-.519,1.288S339.58,418.075,339.375,418.151Zm5.08,4.742a1.586,1.586,0,0,1-2.238-.114,2.2,2.2,0,0,1-.564-.87,1.594,1.594,0,0,1-.007-.826,1.521,1.521,0,0,1,.147-.366c.088-.16,4.686-4.273,4.686-4.273a1.6,1.6,0,0,1,1.353-.028,2.161,2.161,0,0,1,.723.6,1.6,1.6,0,0,1-.1,2.258Zm6,3.89-1.371,1.239a1.6,1.6,0,0,1-1.434.365,1.919,1.919,0,0,1-.977-.671,1.609,1.609,0,0,1,.075-2.281l1.371-1.239a1.6,1.6,0,0,1,2.1-.021,1.925,1.925,0,0,1,.757,1.512A1.571,1.571,0,0,1,350.459,426.783Zm31.357-15.922a1.815,1.815,0,0,1-2.35.969l-12.522-5.321a1.691,1.691,0,0,0-2.217.9l-.014.037a1.623,1.623,0,0,0,.776,2.223l9.6,4.323.042.018a2.424,2.424,0,0,1,1.59,2.036,1.39,1.39,0,0,1-.106.542,2.165,2.165,0,0,1-2.857.758l-9.517-4.286a1.69,1.69,0,0,0-2.235.847c-.012.027-.022.055-.033.082s-.011.024-.016.036a1.689,1.689,0,0,0,.891,2.217l4.257,1.815L371.436,420a1.8,1.8,0,0,1-1.885,3.014L361.54,419.6a1.731,1.731,0,0,0-2.083.526,1.891,1.891,0,0,0,.775,2.691l4.532,2.049.043.019a1.8,1.8,0,0,1-1.39,3.329l-9.215-3.866a5.592,5.592,0,0,0-1.225-2.185,5.846,5.846,0,0,0-1.517-1.2,4.927,4.927,0,0,0,.9-2.607,5.311,5.311,0,0,0-1.38-3.7,5.782,5.782,0,0,0-1.646-1.27,5.22,5.22,0,0,0-5.72-7.26,5.614,5.614,0,0,0-1.228-2.2,5.315,5.315,0,0,0-3.539-1.749,4.927,4.927,0,0,0-3.58,1.275l-2.806,2.534-2.358-1.064c-.051-.023-.1-.054-.146-.079l-.007.011-8.634-3.879a1.583,1.583,0,0,1-.675-2.176l7.459-13.544c.246-.446.894-1.438,1.667-1.019l9.943,4.916,2.654,1.413a5.239,5.239,0,0,0-.559,3.177,5.251,5.251,0,0,0,6.1,4.473l.085-.017,8.887-2.032,23.857,12.277a2.1,2.1,0,0,1,1.018.873A1.814,1.814,0,0,1,381.816,410.861ZM398.2,401l-13.4,6.877c-.037-.075-.066-.155-.107-.229a5.567,5.567,0,0,0-2.978-2.5L357.87,392.878a1.688,1.688,0,0,0-1.151-.145l-9.44,2.159a1.867,1.867,0,0,1-1.959-1.042,1.918,1.918,0,0,1-.169-.566,1.83,1.83,0,0,1,1.166-1.977l14.546-5.482c5.3-1.9,7.962.516,10.04,2.935.617.718,1.937,3.179,5.446,1.479l12.959-5.943.129-.066a1.662,1.662,0,0,1,1.307-.155,1.58,1.58,0,0,1,.966.793l7.2,13.919A1.66,1.66,0,0,1,398.2,401Z" transform="translate(-309.762 -347.668)" fill="#5b5b5b"/>
    <g id="Group_78" data-name="Group 78" transform="translate(-314.198 -343.298)">
      <path id="Path_174" data-name="Path 174" d="M375.179,372.364a1.064,1.064,0,0,0,.755-.313l7.291-7.291a1.068,1.068,0,0,0-1.51-1.51l-7.291,7.291a1.067,1.067,0,0,0,.754,1.822Z" transform="translate(-6.82 -1.007)" fill="#5b5b5b"/>
      <path id="Path_175" data-name="Path 175" d="M356.083,372.051a1.068,1.068,0,0,0,1.51-1.51l-7.291-7.291a1.068,1.068,0,0,0-1.51,1.51Z" transform="translate(0 -1.007)" fill="#5b5b5b"/>
      <path id="Path_176" data-name="Path 176" d="M366.263,360.222V370.29a1.067,1.067,0,0,0,1.068,1.067h0a1.067,1.067,0,0,0,1.067-1.067V360.222a1.067,1.067,0,0,0-1.067-1.067h0A1.067,1.067,0,0,0,366.263,360.222Z" transform="translate(-4.732 0)" fill="#5b5b5b"/>
    </g>
  </g>
</svg>
