<svg xmlns="http://www.w3.org/2000/svg" xmlns:xlink="http://www.w3.org/1999/xlink" width="32" height="32" viewBox="0 0 32 32">
  <g id="Usb_connection" data-name="Usb connection">
    <path id="Path_618" data-name="Path 618" d="M267.516,221.292h-3.428a.356.356,0,0,0-.356.356v3.416a.169.169,0,0,0,.169.169h.724a.223.223,0,0,1,.237.231c0,.026-.006.87-.006.963a.427.427,0,0,1-.209.357l-2,1.3c0,.185-.006-.137-.006-.137,0-2.587,0-4.849,0-4.849,0-.35,0-1.45-.013-2.475,0,0,.159,0,.218,0,.395.01.792-.014,1.185.009.493.028.536-.194.392-.476-.786-1.551-1.563-3.106-2.342-4.659-.057-.114-.1-.254-.289-.253s-.226.151-.282.261q-.794,1.565-1.581,3.133c-.249.494-.5.986-.749,1.48-.188.374-.08.5.41.505.307,0,.629.016.935,0,.046,0,.236,0,.236,0,0,.295-.005,1.026-.005,1.026.012,2.846.031,6.674.03,8.96l-2.295-1.388a.637.637,0,0,1-.305-.558c0-.132,0-.239,0-.423,0,0,0-1.274,0-1.744a.369.369,0,0,1,.181-.311,2.017,2.017,0,0,0,.851-2.266,2.06,2.06,0,0,0-1.969-1.5,2.024,2.024,0,0,0-1.968,1.489,2,2,0,0,0,.855,2.261.389.389,0,0,1,.206.391c0,.215,0,.77,0,.77,0,.252,0,2.093,0,2.437a.625.625,0,0,0,.3.535l4.142,2.552h0c0,.1,0,.208,0,.315h0c0,.845,0,1.55,0,1.656h0a2.31,2.31,0,1,0,1.853-.028h0c0-.072,0-.23,0-.453h0c0-1.182,0-2.67,0-3.873h0L266.419,228a.576.576,0,0,0,.285-.437c0-.255-.007-.658,0-1.1,0,0,0-.749,0-.985,0-.19.052-.236.235-.236h.767a.167.167,0,0,0,.167-.167v-3.419A.356.356,0,0,0,267.516,221.292Z" transform="translate(-245.535 -211.25)" fill="#3e3a3a"/>
  </g>
</svg>
