<svg xmlns="http://www.w3.org/2000/svg" width="17.627" height="17.627" viewBox="0 0 17.627 17.627">
  <path id="Path_114" data-name="Path 114" d="M2.4,0A2.4,2.4,0,0,0,0,2.4V15.231a2.4,2.4,0,0,0,2.4,2.4H15.231a2.4,2.4,0,0,0,2.4-2.4V2.4a2.4,2.4,0,0,0-2.4-2.4ZM3.655,4.2H13.972a.3.3,0,0,1,.3.3v6.121a.3.3,0,0,1-.3.3H12.888a.3.3,0,0,0-.3.3v.664a.3.3,0,0,1-.3.3H11.209a.3.3,0,0,0-.3.3v.664a.3.3,0,0,1-.3.3h-3.6a.3.3,0,0,1-.3-.3v-.664a.3.3,0,0,0-.3-.3H5.334a.3.3,0,0,1-.3-.3v-.665a.3.3,0,0,0-.3-.3H3.655a.3.3,0,0,1-.3-.3V4.494A.3.3,0,0,1,3.655,4.2Zm.962,1.259V8.1a.3.3,0,0,0,.3.3h.245a.3.3,0,0,0,.3-.3V5.753a.3.3,0,0,0-.3-.3H4.617Zm1.259.3V8.1a.3.3,0,0,0,.3.3h.245a.3.3,0,0,0,.3-.3V5.753a.3.3,0,0,0-.3-.3H6.173A.3.3,0,0,0,5.875,5.753Zm1.259,0V8.1a.3.3,0,0,0,.3.3h.245a.3.3,0,0,0,.3-.3V5.753a.3.3,0,0,0-.3-.3H7.432A.3.3,0,0,0,7.135,5.753Zm1.259,0V8.1a.3.3,0,0,0,.3.3h.245a.3.3,0,0,0,.3-.3V5.753a.3.3,0,0,0-.3-.3H8.691A.3.3,0,0,0,8.394,5.753Zm1.259,0V8.1a.3.3,0,0,0,.3.3h.245a.3.3,0,0,0,.3-.3V5.753a.3.3,0,0,0-.3-.3H9.95A.3.3,0,0,0,9.653,5.753Zm1.259,0V8.1a.3.3,0,0,0,.3.3h.245a.3.3,0,0,0,.3-.3V5.753a.3.3,0,0,0-.3-.3h-.245A.3.3,0,0,0,10.912,5.753Zm1.259,0V8.1a.3.3,0,0,0,.3.3h.245a.3.3,0,0,0,.3-.3V5.753a.3.3,0,0,0-.3-.3h-.245A.3.3,0,0,0,12.171,5.753Z" fill="#5c5c5c"/>
</svg>
