<svg width="1em" height="1em" viewBox="0 0 24 24" fill="none" xmlns="http://www.w3.org/2000/svg">
<path d="M12.1025 7.92792H10.0765V9.95392H12.1025V7.92792Z" fill="currentColor"/>
<path d="M14.8172 8.75035C14.8284 8.45392 14.9064 8.17532 15.0312 7.92792H14.1308V9.95392H15.2742C14.9956 9.62851 14.8239 9.20949 14.815 8.75035H14.8172Z" fill="currentColor"/>
<path d="M19.5869 4.9101H4.41308C3.63299 4.9101 3 5.54308 3 6.32317V17.679C3 18.4591 3.63299 19.0921 4.41308 19.0921H19.5892C20.3692 19.0921 21.0022 18.4591 21.0022 17.679V6.32317C21.0022 5.54308 20.3692 4.9101 19.5892 4.9101H19.5869ZM4.50669 13.9926H4.04978V11.9888H5.81501C5.3581 12.6307 4.8945 13.3417 4.50669 13.9926ZM18.185 13.4866C17.8886 13.2036 17.5721 13.0208 17.2355 13.0208C16.7853 13.0208 16.4621 13.1991 16.159 13.4866V11.9888H18.185V13.4866ZM19.9502 16.003C19.5713 15.4792 19.1367 14.6612 18.6464 14.0148H19.9502V16.003ZM19.9502 7.92793H18.4235C18.5527 8.18201 18.6308 8.46507 18.6397 8.76596C18.6263 9.21842 18.4569 9.63075 18.1828 9.9517L19.948 9.95393V11.9888H18.1828V9.96284H18.1738C17.8306 10.3596 17.3291 10.6137 16.7675 10.6248C16.5535 10.6293 16.3507 10.5981 16.1568 10.5379V11.9911H14.1308V14.0171H15.6865C15.5438 14.1932 15.3945 14.3826 15.2296 14.5832C14.8418 15.049 14.474 15.2117 14.1218 15.1828V13.9948H12.5661C12.4859 13.8945 12.4079 13.792 12.3321 13.6894C12.2519 13.5847 12.1783 13.4777 12.1048 13.3707V11.9888H14.1308V9.96284H12.1048V11.9888H11.2355C10.899 11.4272 10.5513 10.87 10.1033 10.3462C10.0944 10.3351 10.0854 10.3284 10.0765 10.3172V9.96062H9.73106C9.15156 9.43907 8.61218 9.341 8.05052 9.60846V7.9257H6.02452V9.9517H7.52897C7.34398 10.1055 7.15453 10.2927 6.9584 10.5156C6.68425 10.8209 6.36107 11.231 6.02229 11.6946V9.96062H4.04978V7.92347H6.02452V5.95987H8.05052V7.9257H10.0765V5.95987H12.1025V7.9257H14.1285V5.95987H16.1568V6.94947C16.3395 6.88706 16.5334 6.8514 16.7363 6.84472C17.318 6.86923 17.8351 7.14115 18.1828 7.56017V5.95987H19.5446C19.7675 5.95987 19.948 6.14041 19.948 6.36329V7.92793H19.9502Z" fill="currentColor"/>
</svg>
