<svg width="1em" height="1em" viewBox="0 0 24 24" fill="none" xmlns="http://www.w3.org/2000/svg">
<path d="M4.4488 12.0399C4.72826 12.0394 5.00713 12.0139 5.28203 11.9636L6.54798 18.0292H18.7298V5.98534L10.5821 6.20551C10.6887 5.79064 10.7411 5.36368 10.7379 4.93533L19.3497 4.69908C19.5205 4.69606 19.6856 4.76093 19.8086 4.87944C19.8693 4.93861 19.9175 5.00933 19.9503 5.08743C19.9832 5.16553 20.0001 5.24943 20 5.33416V18.6659C20 18.8344 19.9331 18.9959 19.814 19.115C19.6949 19.2341 19.5333 19.301 19.3649 19.301H6.03398C5.88865 19.3011 5.74769 19.2513 5.63471 19.1599C5.52172 19.0685 5.44355 18.941 5.41328 18.7989L4 12.0449C4 12.0365 4 12.0272 4 12.0178C4.14734 12.0314 4.29553 12.0399 4.45049 12.0399" fill="currentColor"/>
<path d="M18.7484 18.6804C18.8804 18.6807 19.0092 18.6398 19.1169 18.5635C19.2246 18.4872 19.3058 18.3792 19.3493 18.2546C19.3928 18.13 19.3964 17.995 19.3595 17.8682C19.3227 17.7415 19.2474 17.6294 19.1439 17.5474L11.3865 11.404C11.2539 11.3057 11.0883 11.2628 10.9247 11.2844C10.7611 11.3061 10.6123 11.3906 10.5099 11.5201C10.4075 11.6495 10.3596 11.8138 10.3762 11.978C10.3928 12.1422 10.4727 12.2935 10.599 12.3998L18.3547 18.5433C18.4667 18.6321 18.6055 18.6805 18.7484 18.6804Z" fill="currentColor"/>
<path d="M4.63747 12.5377H10.996C11.1644 12.5377 11.3259 12.4708 11.4451 12.3517C11.5642 12.2326 11.6311 12.0711 11.6311 11.9027V5.54415C11.6311 5.37571 11.5642 5.21417 11.4451 5.09507C11.3259 4.97597 11.1644 4.90906 10.996 4.90906H4.63747C4.46903 4.90906 4.3075 4.97597 4.18839 5.09507C4.06929 5.21417 4.00238 5.37571 4.00238 5.54415V11.9027C4.00238 12.0711 4.06929 12.2326 4.18839 12.3517C4.3075 12.4708 4.46903 12.5377 4.63747 12.5377ZM10.3609 11.2676H5.27171V6.17923H10.3609V11.2676Z" fill="currentColor"/>
</svg>
