<svg width="1em" height="1em" viewBox="0 0 24 24" fill="currentColor" xmlns="http://www.w3.org/2000/svg" >
  <path d="M17.233,10.988h-.002v-2.007c0-.232-.188-.419-.419-.419h-1.651c-.232,0-.419-.188-.419-.419v-1.275c0-.232-.188-.419-.419-.419l-4.63-.016c-.232,0-.419.188-.419.419v1.425c0,.232-.188.419-.419.419h-1.662c-.232,0-.419.188-.419.419v2.477h.003v2.007c0,.232.188.419.419.419h1.657c.232,0,.419.188.419.419v1.815c0,.232.188.419.419.419l4.63.017c.232,0,.42-.188.42-.419l.002-2.021c0-.201.163-.364.365-.364h1.708c.232,0,.419-.188.419-.419v-2.477ZM12.409,8.781v-1.765h1.765v1.765h-1.765ZM14.173,13.676h-1.765v-1.765h1.765v1.765ZM9.839,9.445h1.765v1.765h-1.765v-1.765ZM14.897,10.895v-1.765h1.765v1.765h-1.765ZM9.108,11.685v1.765h-1.765v-1.765h1.765ZM11.604,14.339v1.765h-1.765v-1.765h1.765Z"/>
  <path d="M15.608,19.251l-7.211-.026c-.645,0-1.173-.526-1.173-1.174v-1.887h-1.809c-.647,0-1.174-.526-1.174-1.174l-.005-6.981c0-.648.527-1.175,1.175-1.175h1.816v-1.789c0-.647.527-1.174,1.175-1.174l7.212.025c.645,0,1.172.526,1.172,1.174v1.556h1.805c.647,0,1.175.527,1.175,1.174l.002,6.981c0,.647-.526,1.175-1.174,1.175h-1.809l-.002,2.123c0,.646-.527,1.173-1.175,1.173ZM5.411,7.875c-.073,0-.132.059-.132.132l.005,6.982c0,.072.059.131.131.131h2.851v2.93c0,.072.059.131.132.131l7.211.026c.071,0,.13-.059.13-.131l.004-3.164h2.849c.072,0,.131-.059.131-.132l-.002-6.981c0-.073-.059-.132-.132-.132h-2.847v-2.598c0-.072-.059-.131-.131-.131l-7.212-.025c-.071,0-.13.059-.13.132v2.831h-2.859Z"/>
</svg>