<svg width="24" height="24" viewBox="0 0 24 24" fill="none" xmlns="http://www.w3.org/2000/svg">
<g clip-path="url(#clip0_7360_31046)">
<path d="M19.3501 6.67261C18.7838 5.89084 18.1049 5.21203 17.3288 4.65144C15.7822 3.52836 13.9497 2.93536 12.0313 2.93536C7.05225 2.93536 3 6.98722 3 11.9677C3 13.8859 3.59306 15.7183 4.71434 17.2647C5.27879 18.0426 5.95957 18.7214 6.7357 19.2839C8.28413 20.407 10.1148 21 12.0313 21C17.0122 21 21.0645 16.9481 21.0645 11.9677C21.0645 10.0533 20.4714 8.2209 19.3501 6.67261ZM12.0313 4.07942C13.4786 4.07942 14.8707 4.46649 16.0931 5.2044L15.0328 6.26456C14.1117 5.77834 13.0839 5.52474 12.0313 5.52474C8.47864 5.52474 5.58772 8.41539 5.58772 11.9677C5.58772 13.0202 5.84325 14.048 6.32761 14.9689L5.26735 16.0291C4.53127 14.8068 4.14416 13.4168 4.14416 11.9677C4.14416 7.61836 7.68154 4.07942 12.0313 4.07942ZM5.93669 16.9767L7.44508 15.4685C7.63387 15.2797 7.66629 14.988 7.52517 14.7611C7.00458 13.9259 6.72998 12.9592 6.72998 11.9677C6.72998 9.04462 9.10793 6.66879 12.0294 6.66879C13.021 6.66879 13.9878 6.94337 14.823 7.46391C15.05 7.60501 15.3417 7.57069 15.5305 7.38383L17.0389 5.87558C17.4355 6.20164 17.7979 6.56392 18.124 6.96244L16.6156 8.47068C16.4268 8.65945 16.3944 8.95119 16.5355 9.17809C17.0561 10.0133 17.3307 10.98 17.3307 11.9696C17.3307 14.8926 14.9527 17.2704 12.0294 17.2704C11.0378 17.2704 10.0709 16.9958 9.2357 16.4753C9.00877 16.3342 8.71701 16.3685 8.52822 16.5553L7.02174 18.0617C6.6251 17.7356 6.26278 17.3733 5.93669 16.9767ZM12.0313 19.8559C10.5839 19.8559 9.19375 19.4689 7.9714 18.731L9.02975 17.6727C9.9508 18.1589 10.9786 18.4125 12.0313 18.4125C15.5858 18.4125 18.4767 15.5219 18.4767 11.9677C18.4767 10.9171 18.2212 9.88931 17.7368 8.96835L18.7971 7.90819C19.5351 9.13233 19.9203 10.5224 19.9203 11.9677C19.9203 16.317 16.381 19.8559 12.0313 19.8559Z" fill="#333333"/>
<path d="M22.4279 2.93536H21.0645V1.57203C21.0645 1.25551 20.8089 1 20.4924 1C20.1758 1 19.9203 1.25551 19.9203 1.57203V2.93536H18.5568C18.2403 2.93536 17.9847 3.19087 17.9847 3.50739C17.9847 3.82391 18.2403 4.07942 18.5568 4.07942H19.9203V5.44275C19.9203 5.75927 20.1758 6.01478 20.4924 6.01478C20.8089 6.01478 21.0645 5.75927 21.0645 5.44275V4.07942H22.4279C22.7445 4.07942 23 3.82391 23 3.50739C23 3.19087 22.7445 2.93536 22.4279 2.93536Z" fill="#333333"/>
</g>
<defs>
<clipPath id="clip0_7360_31046">
<rect width="20" height="20" fill="white" transform="translate(3 1)"/>
</clipPath>
</defs>
</svg>
