<svg width="1em" height="1em" viewBox="0 0 24 24" fill="none" xmlns="http://www.w3.org/2000/svg">
<path d="M20.9847 17.4412L19.377 14.4827C19.1811 14.1215 18.8581 13.8544 18.4663 13.7298L13.7196 12.2162C13.3049 12.0763 12.8547 12.1806 12.5469 12.4909C12.2365 12.8013 12.1322 13.249 12.2696 13.6535L13.7857 18.4104C13.9104 18.8021 14.1775 19.1252 14.5387 19.3211L17.4971 20.9287C17.5862 20.9771 17.6803 21 17.777 21C17.9296 21 18.0771 20.9415 18.1916 20.8295L20.8855 18.1356C21.0687 17.9525 21.1094 17.6701 20.9872 17.4437L20.9847 17.4412ZM17.6701 19.6925L15.0958 18.2934C15.0017 18.2425 14.933 18.1585 14.8999 18.0568L13.7348 14.3988L15.5918 16.2558C15.5028 16.5941 15.5867 16.9706 15.8513 17.2351C16.2481 17.632 16.8917 17.632 17.2911 17.2351C17.6879 16.8383 17.6879 16.1947 17.2911 15.7953C17.0265 15.5308 16.6501 15.4468 16.3117 15.5359L14.4547 13.6789L18.1127 14.844C18.2145 14.877 18.2984 14.9457 18.3493 15.0398L19.7484 17.6142L17.6701 19.6925Z" fill="currentColor"/>
<path d="M15.6149 5.23855C15.6149 4.0048 14.6101 3 13.3764 3C12.1426 3 11.1378 4.0048 11.1378 5.23855C11.1378 6.23318 11.7916 7.07773 12.6921 7.36772C12.5089 8.68287 11.6135 11.8041 7.28902 12.6868C6.98122 11.8168 6.15448 11.1936 5.1802 11.1936C3.94646 11.1936 2.94165 12.1984 2.94165 13.4322C2.94165 14.6659 3.94646 15.6707 5.1802 15.6707C6.22825 15.6707 7.10587 14.9457 7.35007 13.9715C12.6972 12.9743 13.7528 8.95252 13.9589 7.3957C14.9103 7.13624 15.6124 6.2688 15.6124 5.23855H15.6149ZM5.18275 14.5006C4.59258 14.5006 4.11435 14.0198 4.11435 13.4322C4.11435 12.8445 4.59513 12.3638 5.18275 12.3638C5.77037 12.3638 6.25115 12.8445 6.25115 13.4322C6.25115 14.0198 5.77037 14.5006 5.18275 14.5006ZM13.3764 6.30695C12.7862 6.30695 12.308 5.82617 12.308 5.23855C12.308 4.65093 12.7887 4.17015 13.3764 4.17015C13.964 4.17015 14.4448 4.65093 14.4448 5.23855C14.4448 5.82617 13.964 6.30695 13.3764 6.30695Z" fill="currentColor"/>
</svg>
