<svg width="1em" height="1em" viewBox="0 0 24 24" fill="none" xmlns="http://www.w3.org/2000/svg">
<path d="M3 17.3496C3.35899 17.3496 3.65039 17.641 3.65039 18V19.3496H5.25C5.60898 19.3496 5.90039 19.641 5.90039 20C5.90039 20.3142 5.67711 20.5762 5.38086 20.6367L5.25 20.6504H3C2.64101 20.6504 2.34961 20.359 2.34961 20V18C2.34961 17.641 2.64101 17.3496 3 17.3496ZM14.25 19.3496C14.609 19.3496 14.9004 19.641 14.9004 20C14.9004 20.3142 14.6771 20.5762 14.3809 20.6367L14.25 20.6504H9.75C9.39102 20.6504 9.09961 20.359 9.09961 20C9.09961 19.641 9.39102 19.3496 9.75 19.3496H14.25ZM21 17.3496C21.359 17.3496 21.6504 17.641 21.6504 18V20C21.6504 20.359 21.359 20.6504 21 20.6504H18.75C18.391 20.6504 18.0996 20.359 18.0996 20C18.0996 19.641 18.391 19.3496 18.75 19.3496H20.3496V18C20.3496 17.641 20.641 17.3496 21 17.3496ZM18.4365 6C18.7481 6 19 6.24419 19 6.5459V17.4541C19 17.7558 18.7481 18 18.4365 18H5.56348C5.25195 18 5 17.7558 5 17.4541V6.5459C5 6.24419 5.25195 6 5.56348 6H18.4365ZM11.3467 16.3262L8.70508 13.292L6.26758 16.0928V16.7725H17.7324V16.2549L13.8467 11.7217L11.3467 16.3262ZM3 9.34961C3.35899 9.34961 3.65039 9.64102 3.65039 10V14C3.65039 14.359 3.35899 14.6504 3 14.6504C2.64101 14.6504 2.34961 14.359 2.34961 14V10C2.34961 9.64102 2.64101 9.34961 3 9.34961ZM21 9.34961C21.359 9.34961 21.6504 9.64102 21.6504 10V14C21.6504 14.359 21.359 14.6504 21 14.6504C20.641 14.6504 20.3496 14.359 20.3496 14V10C20.3496 9.64102 20.641 9.34961 21 9.34961ZM6.26758 7.22754V14.3984L8.59766 11.7217C8.65399 11.6573 8.75624 11.6572 8.8125 11.7217L11.1152 14.3984L13.5791 10.0361C13.6354 9.97154 13.7377 9.97145 13.7939 10.0361L17.7324 14.5605V7.22754H6.26758ZM5.38086 3.36328C5.67711 3.42385 5.90039 3.68585 5.90039 4C5.90039 4.31415 5.67711 4.57615 5.38086 4.63672L5.25 4.65039H3.65039V6C3.65039 6.35898 3.35899 6.65039 3 6.65039C2.64101 6.65039 2.34961 6.35898 2.34961 6V4C2.34961 3.64101 2.64101 3.34961 3 3.34961H5.25L5.38086 3.36328ZM21 3.34961C21.359 3.34961 21.6504 3.64101 21.6504 4V6C21.6504 6.35898 21.359 6.65039 21 6.65039C20.641 6.65039 20.3496 6.35898 20.3496 6V4.65039H18.75C18.391 4.65039 18.0996 4.35899 18.0996 4C18.0996 3.64101 18.391 3.34961 18.75 3.34961H21ZM14.3809 3.36328C14.6771 3.42385 14.9004 3.68585 14.9004 4C14.9004 4.31415 14.6771 4.57615 14.3809 4.63672L14.25 4.65039H9.75C9.39102 4.65039 9.09961 4.35899 9.09961 4C9.09961 3.64101 9.39102 3.34961 9.75 3.34961H14.25L14.3809 3.36328Z" fill="currentColor"/>
</svg>
