<svg width="32" height="32" viewBox="0 0 32 32" fill="none" xmlns="http://www.w3.org/2000/svg">
<path d="M17.57 9.83C18 9.4 18.23 8.84 18.23 8.23C18.23 7.62 18 7.07 17.57 6.64C16.72 5.79 15.24 5.79 14.39 6.64C13.96 7.07 13.73 7.63 13.73 8.23C13.73 8.83 13.96 9.4 14.39 9.83C14.56 10 14.75 10.14 14.96 10.24C14.64 11.34 14.05 12.36 13.21 13.2C12.37 14.03 11.35 14.62 10.25 14.94C10.15 14.74 10.01 14.55 9.84 14.38C8.96 13.5 7.53 13.5 6.65 14.38C5.78 15.26 5.78 16.68 6.65 17.56C7.08 17.99 7.64 18.22 8.24 18.22C8.84 18.22 9.41 17.99 9.84 17.56C10.15 17.25 10.35 16.87 10.44 16.46C11.87 16.09 13.19 15.34 14.27 14.26C15.34 13.18 16.09 11.86 16.47 10.43C16.89 10.34 17.27 10.13 17.57 9.83ZM8.77 16.5C8.63 16.64 8.44 16.71 8.24 16.71C8.04 16.71 7.86 16.64 7.71 16.5C7.57 16.36 7.49 16.17 7.49 15.97C7.49 15.77 7.57 15.58 7.71 15.44C7.86 15.29 8.05 15.22 8.24 15.22H8.29C8.47 15.23 8.64 15.3 8.78 15.44C8.92 15.58 8.99 15.77 8.99 15.97C8.99 16.17 8.92 16.36 8.77 16.5ZM15.45 8.77C15.31 8.62 15.23 8.45 15.23 8.24C15.23 8.03 15.31 7.85 15.45 7.7C15.59 7.56 15.78 7.48 15.98 7.48C16.18 7.48 16.37 7.56 16.51 7.7C16.65 7.85 16.73 8.03 16.73 8.23C16.73 8.44 16.65 8.62 16.51 8.77C16.23 9.05 15.73 9.05 15.45 8.77Z" fill="currentColor"/>
<path d="M25.68 21.6L23.82 18.18C23.62 17.81 23.27 17.54 22.86 17.44L16.45 15.85C16.45 15.85 16.4 15.84 16.37 15.84L17.03 16.5L17.73 17.2L20.15 19.62C20.6 19.38 21.18 19.45 21.56 19.84C22.04 20.32 22.04 21.09 21.56 21.57C21.09 22.04 20.31 22.04 19.84 21.57C19.45 21.18 19.38 20.61 19.62 20.15L17.18 17.72L16.51 17.04L15.84 16.38C15.84 16.38 15.84 16.43 15.85 16.45L17.43 22.87C17.53 23.27 17.8 23.62 18.17 23.82L21.6 25.68C21.82 25.8 22.06 25.86 22.31 25.86C22.7 25.86 23.08 25.71 23.37 25.42L25.42 23.37C25.89 22.91 25.99 22.18 25.68 21.6Z" fill="currentColor"/>
</svg>
