<svg width="1em" height="1em" viewBox="0 0 32 32" fill="none" xmlns="http://www.w3.org/2000/svg">
<path d="M21.11 24.04C20.76 23.82 20.3 23.92 20.07 24.26C19.81 24.67 19.43 24.91 19 24.96C18.42 25.02 17.77 24.71 17.13 24.07L9.88 16.82C8.65 15.59 7.53 15.43 6.79 15.5C5.92 15.59 5.12 16.09 4.62 16.88C4.4 17.23 4.5 17.69 4.84 17.92C5.19 18.14 5.65 18.04 5.88 17.7C6.14 17.29 6.52 17.05 6.95 17C7.53 16.93 8.18 17.25 8.82 17.89L16.07 25.14C17.14 26.21 18.13 26.47 18.85 26.47C18.96 26.47 19.06 26.47 19.16 26.45C20.03 26.36 20.82 25.86 21.33 25.07C21.55 24.72 21.45 24.26 21.11 24.03V24.04Z" fill="currentColor"/>
<path d="M15.77 18.77L16.75 17.79L15.04 16.08L14.06 17.05C13.59 17.53 13.59 18.3 14.06 18.77C14.3 19 14.61 19.12 14.92 19.12C15.23 19.12 15.54 19 15.77 18.77Z" fill="currentColor"/>
<path d="M19.86 11.26L17.51 13.6L19.23 15.32L21.58 12.96L24.26 15.65C24.5 15.88 24.81 16.01 25.12 16.01C25.43 16.01 25.74 15.88 25.98 15.65C26.45 15.18 26.45 14.41 25.98 13.94L18.89 6.85C18.42 6.38 17.65 6.38 17.18 6.85C16.71 7.32 16.71 8.09 17.18 8.56L19.86 11.26Z" fill="currentColor"/>
<path d="M27.16 24.67L18.52 16.03L16.8 14.31L8.71 6.22C8.42 5.93 7.95 5.93 7.65 6.22C7.36 6.51 7.36 6.99 7.65 7.28L15.74 15.37L17.46 17.09L26.1 25.73C26.24 25.87 26.44 25.95 26.63 25.95C26.82 25.95 27.01 25.87 27.16 25.73C27.45 25.43 27.45 24.96 27.16 24.67Z" fill="currentColor"/>
</svg>
