<svg width="32" height="32" viewBox="0 0 32 32" fill="none" xmlns="http://www.w3.org/2000/svg">
<path fill-rule="evenodd" clip-rule="evenodd" d="M11.4 7C10.9858 7 10.65 7.33579 10.65 7.75V21.16C10.65 21.5742 10.9858 21.91 11.4 21.91H15.6634H15.6766H24.81C25.2242 21.91 25.56 21.5742 25.56 21.16V7.75C25.56 7.33579 25.2242 7 24.81 7H11.4ZM21.8807 20.41H24.06V18.2307L21.8807 20.41ZM19.7594 20.41H17.4793L24.06 13.8221V16.1094L19.7594 20.41ZM24.06 11.6996V9.41066L13.0607 20.41H15.3591L24.06 11.6996ZM12.15 19.1993L22.8493 8.5H20.5607L12.15 16.9107V19.1993ZM12.15 10.3368V8.5H13.9824L12.15 10.3368ZM12.15 12.46V14.7893L18.4393 8.5H16.1011L12.171 12.4397C12.1641 12.4466 12.1571 12.4534 12.15 12.46ZM6 11.92C6 11.5886 6.26863 11.32 6.6 11.32H8.6C8.93137 11.32 9.2 11.5886 9.2 11.92V23.35H20.63C20.9614 23.35 21.23 23.6186 21.23 23.95V25.95C21.23 26.2814 20.9614 26.55 20.63 26.55H6.6C6.26863 26.55 6 26.2814 6 25.95V11.92Z" fill="currentColor"/>
</svg>
