<svg width="32" height="32" viewBox="0 0 32 32" fill="none" xmlns="http://www.w3.org/2000/svg">
<path d="M17.8064 8.11029L23.1936 13.4976C23.2864 13.6149 23.4211 13.6916 23.5694 13.7116C23.7177 13.7316 23.868 13.6933 23.9886 13.6047L25.6304 11.9629C25.7189 11.8424 25.7571 11.6922 25.737 11.544C25.7169 11.3958 25.6399 11.2613 25.5225 11.1688L20.132 5.77825C20.0392 5.66133 19.9049 5.58496 19.7569 5.56499C19.609 5.54502 19.4592 5.58313 19.3387 5.67126L17.6969 7.31307C17.6079 7.43408 17.5695 7.58505 17.5899 7.73391C17.6104 7.88276 17.688 8.01776 17.8064 8.11029Z" fill="currentColor"/>
<path d="M9.51491 12.9642L7.26216 22.4626C7.18594 22.7783 7.23292 23.1111 7.39342 23.3934L13.5997 17.1871C13.4531 16.9104 13.4108 16.5904 13.4802 16.2851C13.5497 15.9798 13.7263 15.7094 13.9781 15.5234C14.23 15.3373 14.5404 15.248 14.8526 15.2713C15.1648 15.2946 15.4583 15.4292 15.6797 15.6506C15.9011 15.872 16.0357 16.1656 16.0591 16.4778C16.0824 16.79 15.9929 17.1002 15.8068 17.3521C15.6208 17.6039 15.3504 17.7805 15.0451 17.8499C14.7398 17.9194 14.4197 17.877 14.1431 17.7305L7.94841 23.9251C8.22887 24.0712 8.55335 24.1088 8.85978 24.0307L18.1596 21.6476C18.3322 21.6032 18.4939 21.5238 18.6348 21.4146C18.7758 21.3054 18.893 21.1686 18.9792 21.0126L21.7257 15.8861C22.006 15.3761 22.1372 14.7745 21.7265 14.3638L16.7164 9.36617C16.3011 8.95087 15.6514 9.07746 15.1422 9.36624L10.1453 12.1321C9.98879 12.2201 9.85207 12.3395 9.74363 12.4826C9.63518 12.6258 9.55725 12.7896 9.51491 12.9642Z" fill="currentColor"/>
</svg>
