<svg width="1em" height="1em" viewBox="0 0 24 24" fill="none" xmlns="http://www.w3.org/2000/svg">
<path d="M5.30907 19.1877L9.83699 14.6598C10.0442 14.7703 10.2841 14.8026 10.5131 14.7511C10.7422 14.6995 10.9451 14.5674 11.0849 14.3788C11.2248 14.1903 11.2923 13.9577 11.2751 13.7236C11.258 13.4895 11.1573 13.2693 10.9915 13.1031C10.8257 12.9369 10.6057 12.8358 10.3716 12.8181C10.1375 12.8004 9.90486 12.8674 9.71598 13.0068C9.5271 13.1463 9.39455 13.3489 9.34247 13.5778C9.29039 13.8067 9.32223 14.0467 9.4322 14.2541L4.81915 18.8672C4.99119 18.96 5.15508 19.0673 5.30907 19.1877Z" fill="currentColor"/>
<path fill-rule="evenodd" clip-rule="evenodd" d="M9.58152 12.8247C9.81405 12.6531 10.1005 12.5706 10.3887 12.5923C10.6769 12.6141 10.9477 12.7386 11.1518 12.9432C11.3559 13.1478 11.4798 13.4189 11.5009 13.7071C11.522 13.9953 11.4389 14.2816 11.2668 14.5137C11.0946 14.7458 10.8448 14.9085 10.5629 14.9719C10.3372 15.0228 10.1029 15.0074 9.88754 14.9295L5.32745 19.4896L5.16959 19.3661C5.02563 19.2535 4.87243 19.1532 4.7116 19.0664L4.44415 18.922L9.16282 14.2033C9.08529 13.9877 9.07037 13.7533 9.12172 13.5276C9.18584 13.2458 9.349 12.9963 9.58152 12.8247ZM10.3546 13.0439C10.1746 13.0303 9.99567 13.0818 9.85043 13.189C9.70519 13.2962 9.60328 13.452 9.56323 13.628C9.52318 13.804 9.54766 13.9886 9.63222 14.1481L9.71059 14.2959L5.18515 18.8214C5.21941 18.8436 5.2533 18.8665 5.28681 18.8899L9.7955 14.3812L9.94349 14.4601C10.1028 14.545 10.2873 14.5699 10.4634 14.5302C10.6395 14.4906 10.7955 14.389 10.9031 14.244C11.0106 14.099 11.0625 13.9202 11.0493 13.7402C11.0362 13.5601 10.9588 13.3908 10.8313 13.263C10.7038 13.1352 10.5346 13.0574 10.3546 13.0439Z" fill="currentColor"/>
<path fill-rule="evenodd" clip-rule="evenodd" d="M14.2757 4.28969C14.4949 4.094 14.7825 3.99298 15.0759 4.00867C15.3622 4.02398 15.6312 4.14924 15.8271 4.35782L19.6491 8.17716C19.8574 8.37282 19.9827 8.64139 19.9984 8.92729C20.0145 9.2201 19.9144 9.50743 19.7198 9.72684L19.7057 9.74273L18.2941 11.147L18.2795 11.1599C18.0601 11.3545 17.7728 11.4546 17.48 11.4385C17.1941 11.4228 16.9255 11.2976 16.7299 11.0893L12.9136 7.27205C12.7049 7.07649 12.5794 6.80779 12.5636 6.52169C12.5475 6.22832 12.6481 5.94049 12.8435 5.72107L12.8567 5.70631L14.2615 4.30238L14.2757 4.28969ZM15.0166 5.46824L14.0233 6.46082L17.5414 9.97972L18.5386 8.98777L15.0166 5.46824Z" fill="currentColor"/>
<path fill-rule="evenodd" clip-rule="evenodd" d="M10.6038 7.71086C10.8886 7.50011 11.2337 7.38623 11.5884 7.38623C11.9487 7.38623 12.2991 7.50377 12.5865 7.72101L12.6251 7.75013L16.2836 11.4363L16.3091 11.4693C16.5277 11.7515 16.6463 12.0983 16.6463 12.4552C16.6463 12.8011 16.5349 13.1375 16.3291 13.4148L14.1317 16.8193C14.0238 17.0081 13.8797 17.1738 13.7077 17.3071C13.5345 17.4413 13.3366 17.5397 13.1253 17.5969L5.82419 19.932C5.5809 20.0058 5.32219 20.0126 5.07534 19.9518C4.82849 19.8909 4.60262 19.7646 4.42151 19.5862C4.2404 19.4078 4.11077 19.1838 4.04626 18.9379C3.98175 18.692 3.98476 18.4332 4.05497 18.1888L4.05994 18.1716L6.53903 10.9983C6.5928 10.7911 6.68616 10.5961 6.8141 10.4242C6.94364 10.2502 7.10598 10.1033 7.29187 9.99179L10.6038 7.71086ZM11.5884 8.74461C11.5237 8.74461 11.4608 8.7657 11.4093 8.80468L11.3973 8.81371L8.0196 11.14L7.99553 11.1538C7.9597 11.1744 7.92849 11.2021 7.90382 11.2352C7.87915 11.2684 7.86156 11.3062 7.85213 11.3465L7.84418 11.3804L5.35891 18.5715C5.3579 18.5788 5.35832 18.5861 5.36018 18.5932C5.3627 18.6028 5.36777 18.6116 5.37485 18.6186C5.38192 18.6255 5.39075 18.6305 5.4004 18.6329C5.40934 18.6351 5.41868 18.635 5.42756 18.6327L12.7472 16.2917L12.7666 16.2867C12.8063 16.2765 12.8434 16.2584 12.8758 16.2333C12.9082 16.2082 12.9351 16.1767 12.9549 16.1408L12.9663 16.12L15.2173 12.6325L15.2352 12.6094C15.2694 12.5653 15.2879 12.5111 15.2879 12.4552C15.2879 12.409 15.2752 12.3639 15.2514 12.3246L11.7389 8.78556C11.6934 8.75885 11.6415 8.74461 11.5884 8.74461Z" fill="currentColor"/>
</svg>
