<svg width="1em" height="1em" viewBox="0 0 24 24" fill="none" xmlns="http://www.w3.org/2000/svg">
<path d="M13.8521 12.5572L15.6418 11.2557C15.8828 11.0815 15.758 10.7007 15.4611 10.7007H13.2477C13.1229 10.7007 13.0132 10.6211 12.9745 10.5028L12.2904 8.39689C12.1979 8.1151 11.7978 8.1151 11.7075 8.39689L11.0234 10.5028C10.9847 10.6211 10.875 10.7007 10.7502 10.7007H8.53671C8.23985 10.7007 8.11509 11.0815 8.35601 11.2557L10.1457 12.5572C10.2468 12.6303 10.2877 12.7594 10.2511 12.8777L9.56709 14.9836C9.47459 15.2654 9.79941 15.502 10.0382 15.3256L11.8279 14.0242C11.929 13.9511 12.0645 13.9511 12.1656 14.0242L13.9554 15.3256C14.1963 15.4999 14.519 15.2654 14.4265 14.9836L13.7424 12.8777C13.7037 12.7594 13.7467 12.6303 13.8478 12.5572H13.8521Z" fill="currentColor"/>
<path d="M8.09145 19.3805C7.74942 19.3805 7.40739 19.2729 7.10839 19.0557C6.51038 18.6211 6.2716 17.8876 6.49962 17.1842L7.61605 13.7446L4.69053 11.6193C4.09467 11.1869 3.85805 10.4533 4.08607 9.74993C4.31409 9.04867 4.93791 8.59478 5.67789 8.59478H9.29392L10.4103 5.15515C10.6384 4.45389 11.2622 4 12.0022 4C12.7422 4 13.366 4.45389 13.594 5.15515L14.7104 8.59478H18.3265C19.0643 8.59478 19.6903 9.04867 19.9183 9.74993C20.1463 10.4512 19.9075 11.1869 19.3095 11.6214L16.384 13.7467L17.5004 17.1842C17.7284 17.8855 17.4897 18.6211 16.8938 19.0557C16.2958 19.4902 15.5236 19.4902 14.9277 19.0557L12.0022 16.9304L9.07666 19.0557C8.77765 19.2729 8.43562 19.3805 8.0936 19.3805H8.09145ZM11.7053 15.9473C11.8753 15.8225 12.1054 15.8204 12.2797 15.9387L12.2883 15.9451L15.4934 18.2748C15.7989 18.4964 16.1216 18.4211 16.3216 18.2748C16.5217 18.1285 16.6938 17.8467 16.5776 17.4875L15.3558 13.7252C15.2891 13.5208 15.3622 13.295 15.5365 13.1681L18.7395 10.8405C19.0449 10.619 19.0729 10.2877 18.9955 10.0532C18.918 9.81877 18.7029 9.56709 18.3243 9.56709H14.3684C14.1554 9.56709 13.9683 9.43372 13.8973 9.23366V9.22506L12.6712 5.46061C12.555 5.10137 12.2474 4.97446 12 4.97446C11.7526 4.97446 11.4472 5.10352 11.3289 5.46061L10.107 9.22291C10.0425 9.42511 9.85536 9.56279 9.64455 9.56924H9.63595H5.67789C5.2993 9.56924 5.08419 9.82092 5.00675 10.0554C4.92931 10.292 4.95727 10.6211 5.26273 10.8427L8.46359 13.1681C8.63568 13.2928 8.70882 13.5122 8.64858 13.7166V13.7252L7.42245 17.4896C7.30629 17.8489 7.47838 18.1328 7.67843 18.277C7.87849 18.4232 8.20115 18.4985 8.50661 18.277L11.7075 15.9516L11.7053 15.9473Z" fill="currentColor"/>
</svg>
