<svg width="1em" height="1em" viewBox="0 0 24 24" fill="none" xmlns="http://www.w3.org/2000/svg">
<path d="M7.33866 20.7525H7.32366C6.49866 20.7525 5.73366 20.535 5.10366 20.1375C4.09116 19.5 3.62616 18.2475 3.97116 17.085L4.01616 16.9425C4.33116 15.8775 4.66116 14.775 5.25366 13.7025C5.37366 13.485 5.41116 13.2525 5.36616 13.05C5.20116 12.315 5.14866 11.7075 5.18616 11.19C5.27616 10.125 5.99616 6.54749 11.6662 5.19749C14.2837 4.57499 15.4912 3.92249 15.8887 3.67499C16.3912 3.35999 16.9687 3.21749 17.5537 3.26999C18.8287 3.37499 19.8712 4.43249 20.0287 5.77499C20.2387 7.55249 20.4412 12 17.8462 14.985C16.2862 16.7775 13.9087 17.7225 10.9612 17.7225C10.6912 17.7225 10.4287 17.715 10.1812 17.7C10.1212 17.9475 10.0537 18.225 10.0012 18.5475C9.76116 19.83 8.63616 20.7675 7.33866 20.7675V20.7525ZM7.33116 19.6275H7.33866C8.09616 19.6275 8.74866 19.08 8.89116 18.33C8.96616 17.9175 9.04866 17.5575 9.13116 17.2575C9.24366 16.8225 9.64866 16.53 10.0987 16.56C10.3612 16.575 10.6537 16.59 10.9537 16.59C13.5637 16.59 15.6562 15.78 16.9912 14.235C19.2862 11.5875 19.0912 7.52249 18.9037 5.89499C18.8137 5.09249 18.1837 4.43999 17.4562 4.37999C17.1187 4.34999 16.7737 4.43249 16.4812 4.61999C16.0387 4.90499 14.6962 5.62499 11.9212 6.285C6.99366 7.455 6.37866 10.395 6.30366 11.2725C6.27366 11.67 6.32616 12.18 6.46116 12.8025C6.56616 13.275 6.48366 13.7925 6.22866 14.2425C5.68866 15.21 5.38116 16.2525 5.08116 17.265L5.03616 17.4075C4.83366 18.0825 5.10366 18.8175 5.68866 19.185C6.13866 19.47 6.70116 19.6275 7.31616 19.6275H7.33116Z" fill="currentColor"/>
<path d="M17.5912 5.91749C17.5687 5.72999 17.3512 5.62499 17.1862 5.72999C16.5862 6.11249 15.1087 6.87749 12.2287 7.56749C8.98874 8.33999 7.72874 10.0275 7.61624 11.385C7.57874 11.8125 7.64624 12.96 8.08124 13.8975C7.10624 15.0075 6.72374 16.3575 6.30374 17.79C6.27374 17.895 6.30374 18.0225 6.40124 18.0825C6.72374 18.285 7.09874 18.3225 7.33874 18.3225C7.46624 18.3225 7.57874 18.225 7.60124 18.0975C7.90874 16.4325 8.31374 15.5475 8.50124 15.21C8.55374 15.105 8.66624 15.0525 8.77874 15.075C9.68624 15.255 13.8262 15.8925 16.0087 13.38C18.0412 11.04 17.7562 7.20749 17.5912 5.92499V5.91749Z" fill="currentColor"/>
</svg>
