<svg width="1em" height="1em" viewBox="0 0 24 24" fill="none" xmlns="http://www.w3.org/2000/svg">
  <g>
    <path
      d="M8.61546 12.5994H9.93402C10.2657 12.5994 10.5334 12.3316 10.5334 12C10.5334 11.6684 10.2657 11.4007 9.93402 11.4007H8.61546C8.28382 11.4007 8.01611 11.6684 8.01611 12C8.01611 12.3316 8.28382 12.5994 8.61546 12.5994Z"
      fill="currentColor"
    />
    <path
      d="M12.6555 12.5994H13.9741C14.3057 12.5994 14.5734 12.3316 14.5734 12C14.5734 11.6684 14.3057 11.4007 13.9741 11.4007H12.6555C12.3239 11.4007 12.0562 11.6684 12.0562 12C12.0562 12.3316 12.3239 12.5994 12.6555 12.5994Z"
      fill="currentColor"
    />
    <path
      d="M16.695 12.5994H18.0136C18.3453 12.5994 18.613 12.3316 18.613 12C18.613 11.6684 18.3453 11.4007 18.0136 11.4007H16.695C16.3634 11.4007 16.0957 11.6684 16.0957 12C16.0957 12.3316 16.3634 12.5994 16.695 12.5994Z"
      fill="currentColor"
    />
    <path
      d="M22.4007 11.4007H21.182C21.152 11.4007 21.126 11.4047 21.0981 11.4087V8.55578C21.0981 8.25012 20.8703 7.99439 20.5667 7.96043L6.61388 6.36817V6.1544C6.61388 5.97859 6.53596 5.81078 6.40211 5.6969C6.26825 5.58303 6.09045 5.53308 5.91664 5.56105L4.10461 5.85673C3.45332 5.96261 2.97984 6.52 2.97984 7.17928V11.3987H1.59935C1.26771 11.3987 1 11.6664 1 11.998C1 12.3297 1.26771 12.5974 1.59935 12.5974H2.98184V16.8168C2.98184 17.478 3.45532 18.0334 4.10661 18.1393L5.91863 18.435C5.9506 18.441 5.98256 18.443 6.01453 18.443C6.15637 18.443 6.29422 18.3931 6.40211 18.3012C6.53596 18.1873 6.61388 18.0195 6.61388 17.8436V17.6299L20.5647 16.0396C20.8683 16.0057 21.0961 15.7479 21.0961 15.4443V12.5914C21.124 12.5954 21.152 12.5994 21.18 12.5994H22.3987C22.7303 12.5994 22.998 12.3317 22.998 12C22.998 11.6684 22.7303 11.4007 22.3987 11.4007H22.4007ZM5.41518 17.1404L4.2984 16.9586C4.22848 16.9466 4.17853 16.8887 4.17853 16.8188V7.18128C4.17853 7.11136 4.22848 7.05342 4.2984 7.04143L5.41518 6.85963V17.1404ZM19.8974 14.9089L6.61388 16.4232V7.57485L19.8974 9.0892V14.9089Z"
      fill="currentColor"
    />
  </g>
</svg>
