<svg width="1em" height="1em" viewBox="0 0 24 24" fill="none" xmlns="http://www.w3.org/2000/svg">
<path fill-rule="evenodd" clip-rule="evenodd" d="M16.8421 18.8713H6.82454V17.754H16.8421V18.8713Z" fill="currentColor"/>
<path fill-rule="evenodd" clip-rule="evenodd" d="M17.176 18.8713H13.2443V17.754H17.176V18.8713Z" fill="currentColor"/>
<path fill-rule="evenodd" clip-rule="evenodd" d="M5.69542 17.7431C5.3807 17.7431 5.12556 17.9982 5.12556 18.313C5.12556 18.6277 5.3807 18.8828 5.69542 18.8828C6.01015 18.8828 6.26528 18.6277 6.26528 18.313C6.26528 17.9982 6.01015 17.7431 5.69542 17.7431ZM4.00819 18.313C4.00819 17.3811 4.76359 16.6257 5.69542 16.6257C6.62725 16.6257 7.38265 17.3811 7.38265 18.313C7.38265 19.2448 6.62725 20.0002 5.69542 20.0002C4.76359 20.0002 4.00819 19.2448 4.00819 18.313Z" fill="currentColor"/>
<path fill-rule="evenodd" clip-rule="evenodd" d="M18.2768 17.7703C17.9773 17.7703 17.7345 18.0131 17.7345 18.3126C17.7345 18.6121 17.9773 18.8549 18.2768 18.8549C18.5763 18.8549 18.8191 18.6121 18.8191 18.3126C18.8191 18.0131 18.5763 17.7703 18.2768 17.7703ZM16.6172 18.3126C16.6172 17.396 17.3602 16.653 18.2768 16.653C19.1934 16.653 19.9365 17.396 19.9365 18.3126C19.9365 19.2292 19.1934 19.9723 18.2768 19.9723C17.3602 19.9723 16.6172 19.2292 16.6172 18.3126Z" fill="currentColor"/>
<path fill-rule="evenodd" clip-rule="evenodd" d="M18.8639 10.1382V17.1129H17.7465V10.1382H18.8639Z" fill="currentColor"/>
<path fill-rule="evenodd" clip-rule="evenodd" d="M18.8639 6.76055V10.6922H17.7465V6.76055H18.8639Z" fill="currentColor"/>
<path fill-rule="evenodd" clip-rule="evenodd" d="M17.7345 18.2418C17.7345 18.5566 17.9897 18.8117 18.3044 18.8117C18.6191 18.8117 18.8743 18.5566 18.8743 18.2418C18.8743 17.9271 18.6191 17.672 18.3044 17.672C17.9897 17.672 17.7345 17.9271 17.7345 18.2418ZM18.3044 19.9291C17.3726 19.9291 16.6172 19.1737 16.6172 18.2418C16.6172 17.31 17.3726 16.5546 18.3044 16.5546C19.2362 16.5546 19.9916 17.31 19.9916 18.2418C19.9916 19.1737 19.2362 19.9291 18.3044 19.9291Z" fill="currentColor"/>
<path fill-rule="evenodd" clip-rule="evenodd" d="M17.7629 5.65973C17.7629 5.95923 18.0057 6.20203 18.3052 6.20203C18.6047 6.20203 18.8475 5.95923 18.8475 5.65973C18.8475 5.36023 18.6047 5.11743 18.3052 5.11743C18.0057 5.11743 17.7629 5.36023 17.7629 5.65973ZM18.3052 7.3194C17.3886 7.3194 16.6455 6.57634 16.6455 5.65973C16.6455 4.74312 17.3886 4.00006 18.3052 4.00006C19.2218 4.00006 19.9649 4.74312 19.9649 5.65973C19.9649 6.57634 19.2218 7.3194 18.3052 7.3194Z" fill="currentColor"/>
<path fill-rule="evenodd" clip-rule="evenodd" d="M11.6829 6.23035C11.9824 6.23035 12.2252 5.98755 12.2252 5.68805C12.2252 5.38855 11.9824 5.14575 11.6829 5.14575C11.3834 5.14575 11.1406 5.38855 11.1406 5.68805C11.1406 5.98755 11.3834 6.23035 11.6829 6.23035ZM13.3425 5.68805C13.3425 6.60466 12.5995 7.34772 11.6829 7.34772C10.7663 7.34772 10.0232 6.60466 10.0232 5.68805C10.0232 4.77144 10.7663 4.02838 11.6829 4.02838C12.5995 4.02838 13.3425 4.77144 13.3425 5.68805Z" fill="currentColor"/>
<path fill-rule="evenodd" clip-rule="evenodd" d="M13.2718 5.12939H17.1759V6.24677L13.2718 6.24677V5.12939Z" fill="currentColor"/>
<path fill-rule="evenodd" clip-rule="evenodd" d="M6.82477 5.12939H10.7564V6.24677L6.82477 6.24677V5.12939Z" fill="currentColor"/>
<path fill-rule="evenodd" clip-rule="evenodd" d="M5.72356 6.23035C6.02306 6.23035 6.26585 5.98755 6.26585 5.68805C6.26585 5.38855 6.02306 5.14575 5.72356 5.14575C5.42405 5.14575 5.18126 5.38855 5.18126 5.68805C5.18126 5.98755 5.42405 6.23035 5.72356 6.23035ZM7.38322 5.68805C7.38322 6.60466 6.64017 7.34772 5.72356 7.34772C4.80695 7.34772 4.06389 6.60466 4.06389 5.68805C4.06389 4.77144 4.80695 4.02838 5.72356 4.02838C6.64017 4.02838 7.38322 4.77144 7.38322 5.68805Z" fill="currentColor"/>
<path fill-rule="evenodd" clip-rule="evenodd" d="M11.6829 6.23035C11.9824 6.23035 12.2252 5.98755 12.2252 5.68805C12.2252 5.38855 11.9824 5.14575 11.6829 5.14575C11.3834 5.14575 11.1406 5.38855 11.1406 5.68805C11.1406 5.98755 11.3834 6.23035 11.6829 6.23035ZM13.3425 5.68805C13.3425 6.60466 12.5995 7.34772 11.6829 7.34772C10.7663 7.34772 10.0232 6.60466 10.0232 5.68805C10.0232 4.77144 10.7663 4.02838 11.6829 4.02838C12.5995 4.02838 13.3425 4.77144 13.3425 5.68805Z" fill="currentColor"/>
<path fill-rule="evenodd" clip-rule="evenodd" d="M5.13684 10.7921V6.888H6.25421V10.7921H5.13684Z" fill="currentColor"/>
<path fill-rule="evenodd" clip-rule="evenodd" d="M5.13684 17.2402V13.3085H6.25421V17.2402H5.13684Z" fill="currentColor"/>
<path fill-rule="evenodd" clip-rule="evenodd" d="M6.26585 5.75888C6.26585 5.44416 6.01072 5.18903 5.696 5.18903C5.38127 5.18903 5.12614 5.44416 5.12614 5.75888C5.12614 6.07361 5.38127 6.32874 5.696 6.32874C6.01072 6.32874 6.26585 6.07361 6.26585 5.75888ZM5.696 4.07166C6.62783 4.07166 7.38322 4.82705 7.38322 5.75888C7.38322 6.69072 6.62783 7.44611 5.696 7.44611C4.76416 7.44611 4.00877 6.69072 4.00877 5.75888C4.00877 4.82705 4.76416 4.07166 5.696 4.07166Z" fill="currentColor"/>
<path fill-rule="evenodd" clip-rule="evenodd" d="M5.72356 12.5785C6.02306 12.5785 6.26585 12.3357 6.26585 12.0362C6.26585 11.7367 6.02306 11.4939 5.72356 11.4939C5.42405 11.4939 5.18126 11.7367 5.18126 12.0362C5.18126 12.3357 5.42405 12.5785 5.72356 12.5785ZM7.38322 12.0362C7.38322 12.9528 6.64017 13.6959 5.72356 13.6959C4.80695 13.6959 4.06389 12.9528 4.06389 12.0362C4.06389 11.1196 4.80695 10.3765 5.72356 10.3765C6.64017 10.3765 7.38322 11.1196 7.38322 12.0362Z" fill="currentColor"/>
</svg>
