<svg width="32" height="32" viewBox="0 0 32 32" fill="none" xmlns="http://www.w3.org/2000/svg">
<path d="M25.18 21.77V10.4C26.34 10.07 27.18 9 27.18 7.75C27.18 6.23 25.95 5 24.43 5C23.17 5 22.12 5.84 21.79 6.99H18.73C18.4 5.84 17.35 5 16.09 5C14.83 5 13.78 5.84 13.45 6.99H10.39C10.06 5.84 9.01 5 7.75 5C6.24 5 5 6.23 5 7.75C5 9 5.85 10.07 7 10.4V13.43C5.85 13.76 5 14.83 5 16.08C5 17.33 5.85 18.4 7 18.73V21.77C5.85 22.1 5 23.16 5 24.42C5 25.94 6.24 27.17 7.75 27.17C9.01 27.17 10.07 26.33 10.4 25.17H21.78C22.11 26.33 23.17 27.17 24.43 27.17C25.95 27.17 27.18 25.94 27.18 24.42C27.18 23.16 26.34 22.1 25.18 21.77ZM24.43 25.67C24.02 25.67 23.66 25.47 23.43 25.17C23.27 24.96 23.18 24.7 23.18 24.42C23.18 24.14 23.27 23.88 23.43 23.67C23.5 23.57 23.58 23.49 23.68 23.42C23.89 23.26 24.15 23.17 24.43 23.17C24.71 23.17 24.97 23.26 25.18 23.42C25.48 23.65 25.68 24.01 25.68 24.42C25.68 25.11 25.12 25.67 24.43 25.67ZM9 24.42C9 24.7 8.91 24.96 8.75 25.17C8.52 25.47 8.16 25.67 7.75 25.67C7.06 25.67 6.5 25.11 6.5 24.42C6.5 24.01 6.7 23.65 7 23.42C7.21 23.26 7.47 23.17 7.75 23.17C8.03 23.17 8.29 23.26 8.5 23.42C8.6 23.49 8.68 23.57 8.75 23.67C8.91 23.88 9 24.14 9 24.42ZM8.5 21.77V18.73C9.66 18.4 10.5 17.34 10.5 16.08C10.5 14.82 9.66 13.76 8.5 13.43V10.4C9.42 10.13 10.14 9.41 10.4 8.49H13.44C13.77 9.65 14.84 10.5 16.09 10.5C17.34 10.5 18.41 9.65 18.74 8.49H21.78C22.04 9.41 22.76 10.13 23.68 10.4V21.77C22.76 22.03 22.04 22.75 21.78 23.67H10.4C10.14 22.75 9.42 22.03 8.5 21.77ZM6.5 7.75C6.5 7.06 7.06 6.5 7.75 6.5C8.15 6.5 8.51 6.69 8.74 6.99C8.9 7.2 9 7.46 9 7.75C9 8.04 8.91 8.28 8.75 8.49C8.68 8.59 8.6 8.68 8.5 8.75C8.29 8.91 8.03 9 7.75 9C7.47 9 7.21 8.91 7 8.75C6.7 8.52 6.5 8.16 6.5 7.75ZM23.18 7.75C23.18 7.46 23.28 7.2 23.44 6.99C23.67 6.69 24.03 6.5 24.43 6.5C25.12 6.5 25.68 7.06 25.68 7.75C25.68 8.16 25.48 8.52 25.18 8.75C24.97 8.91 24.71 9 24.43 9C24.15 9 23.89 8.91 23.68 8.75C23.58 8.68 23.5 8.59 23.43 8.49C23.27 8.28 23.18 8.03 23.18 7.75Z" fill="currentColor"/>
</svg>
