<svg width="1em" height="1em" viewBox="0 0 24 24" fill="none" xmlns="http://www.w3.org/2000/svg">
<g>
<path d="M17.4561 6.07853V9.82806H13.7065V6.07853H17.4561ZM18.5776 4.95703H12.5851V10.9496H18.5776V4.95703Z" fill="currentColor"/>
<path d="M8.51776 13.1943C9.71963 13.1943 10.6953 14.1719 10.6953 15.3719C10.6953 16.5719 9.71776 17.5495 8.51776 17.5495C7.31776 17.5495 6.34019 16.5719 6.34019 15.3719C6.34019 14.1719 7.31776 13.1943 8.51776 13.1943ZM8.51776 12.1345C6.72898 12.1345 5.27851 13.585 5.27851 15.3738C5.27851 17.1626 6.72898 18.613 8.51776 18.613C10.3065 18.613 11.757 17.1626 11.757 15.3738C11.757 13.585 10.3065 12.1345 8.51776 12.1345Z" fill="currentColor"/>
<path d="M12.5963 12.1794L15.2337 13.3944L12.8617 15.071L12.5963 12.1794ZM11.3009 10.3477L11.9215 17.1084L17.4654 13.1906L11.3009 10.3495V10.3477Z" fill="currentColor"/>
<path d="M9.42244 6.10845L11.2056 8.60191L9.38505 11.0673L6.47851 10.0991L6.50094 7.03556L9.42244 6.11032M9.85982 4.79443L5.38505 6.21126L5.34954 10.9047L9.80188 12.3888L12.5888 8.61313L9.85795 4.79443H9.85982Z" fill="currentColor"/>
<path d="M19.1645 14.5906C19.0467 14.5906 18.9308 14.5345 18.8579 14.4317C18.7402 14.2635 18.7794 14.0298 18.9495 13.9102L20.015 13.1626V11.8616C20.015 11.656 20.1832 11.4878 20.3888 11.4878C20.5944 11.4878 20.7626 11.656 20.7626 11.8616V13.357C20.7626 13.4784 20.7028 13.5925 20.6037 13.6635L19.3794 14.5233C19.314 14.57 19.2393 14.5906 19.1645 14.5906Z" fill="currentColor"/>
<path d="M20.3869 9.73835C20.1813 9.73835 20.0131 9.57012 20.0131 9.36452V7.36639C20.0131 7.16078 20.1813 6.99255 20.3869 6.99255C20.5925 6.99255 20.7608 7.16078 20.7608 7.36639V9.36452C20.7608 9.57012 20.5925 9.73835 20.3869 9.73835Z" fill="currentColor"/>
<path d="M20.3869 5.24299C20.1813 5.24299 20.0131 5.07477 20.0131 4.86916V3.74766H18.8916C18.686 3.74766 18.5178 3.57944 18.5178 3.37383C18.5178 3.16822 18.686 3 18.8916 3H20.3869C20.5925 3 20.7608 3.16822 20.7608 3.37383V4.86916C20.7608 5.07477 20.5925 5.24299 20.3869 5.24299Z" fill="currentColor"/>
<path d="M15.8953 3.74766H13.4991C13.2935 3.74766 13.1252 3.57944 13.1252 3.37383C13.1252 3.16822 13.2935 3 13.4991 3H15.8953C16.1009 3 16.2692 3.16822 16.2692 3.37383C16.2692 3.57944 16.1009 3.74766 15.8953 3.74766ZM10.5028 3.74766H8.10654C7.90094 3.74766 7.73271 3.57944 7.73271 3.37383C7.73271 3.16822 7.90094 3 8.10654 3H10.5028C10.7084 3 10.8766 3.16822 10.8766 3.37383C10.8766 3.57944 10.7084 3.74766 10.5028 3.74766Z" fill="currentColor"/>
<path d="M3.61309 5.24299C3.40748 5.24299 3.23926 5.07477 3.23926 4.86916V3.37383C3.23926 3.16822 3.40748 3 3.61309 3H5.10842C5.31402 3 5.48225 3.16822 5.48225 3.37383C5.48225 3.57944 5.31402 3.74766 5.10842 3.74766H3.98692V4.86916C3.98692 5.07477 3.8187 5.24299 3.61309 5.24299Z" fill="currentColor"/>
<path d="M3.61309 16.1364C3.40748 16.1364 3.23926 15.9682 3.23926 15.7626V13.342C3.23926 13.1364 3.40748 12.9682 3.61309 12.9682C3.8187 12.9682 3.98692 13.1364 3.98692 13.342V15.7626C3.98692 15.9682 3.8187 16.1364 3.61309 16.1364ZM3.61309 10.6897C3.40748 10.6897 3.23926 10.5215 3.23926 10.3159V7.89532C3.23926 7.68971 3.40748 7.52148 3.61309 7.52148C3.8187 7.52148 3.98692 7.68971 3.98692 7.89532V10.3159C3.98692 10.5215 3.8187 10.6897 3.61309 10.6897Z" fill="currentColor"/>
<path d="M5.10842 20.6579H3.61309C3.40748 20.6579 3.23926 20.4897 3.23926 20.2841V18.7887C3.23926 18.5831 3.40748 18.4149 3.61309 18.4149C3.8187 18.4149 3.98692 18.5831 3.98692 18.7887V19.9102H5.10842C5.31402 19.9102 5.48225 20.0785 5.48225 20.2841C5.48225 20.4897 5.31402 20.6579 5.10842 20.6579Z" fill="currentColor"/>
<path d="M10.529 20.6579H8.58131C8.37571 20.6579 8.20748 20.4897 8.20748 20.2841C8.20748 20.0785 8.37571 19.9103 8.58131 19.9103H10.4112L10.9944 19.5009C11.1626 19.3832 11.3963 19.4224 11.5159 19.5925C11.6336 19.7607 11.5944 19.9944 11.4243 20.114L10.7458 20.5906C10.6822 20.6355 10.6075 20.6579 10.5308 20.6579H10.529Z" fill="currentColor"/>
<path d="M17.5009 17.428H18.6766C18.9869 17.428 19.2374 17.1757 19.2374 16.8673C19.2374 16.5589 18.9869 16.3065 18.6766 16.3065H16.114C15.8037 16.3065 15.5533 16.5589 15.5533 16.8673V19.5514C15.5533 19.8617 15.8056 20.1121 16.114 20.1121C16.4243 20.1121 16.6748 19.8617 16.6748 19.5514V18.1888L19.3252 20.8374C19.4355 20.9458 19.5776 21.0018 19.7215 21.0018C19.8654 21.0018 20.0094 20.9476 20.1178 20.8374C20.3365 20.6187 20.3365 20.2635 20.1178 20.0448L17.4991 17.4299L17.5009 17.428Z" fill="currentColor"/>
</g>
</svg>
