<svg width="24" height="24" viewBox="0 0 24 24" fill="none" xmlns="http://www.w3.org/2000/svg">
<path d="M12.3515 2C12.5727 2.08086 12.8086 2.10268 13.0312 2.18555C14.2651 2.64515 15.0389 3.83205 14.9794 5.15137C14.9357 6.1201 14.6845 7.04905 14.4794 7.9873C14.2878 8.86405 14.0904 9.7405 14.1093 10.6455C14.1237 11.3314 14.3045 11.9547 14.8349 12.4336C14.9615 12.5478 14.9896 12.6961 14.9892 12.8584C14.9873 13.5353 14.9924 14.2128 14.9863 14.8896C14.9851 15.025 15.0168 15.0875 15.1572 15.1357C15.7526 15.3398 16.1598 15.749 16.3642 16.3447C16.4084 16.4734 16.462 16.5102 16.5947 16.5098C18.1826 16.5048 19.7704 16.5067 21.3583 16.5068C21.8522 16.5069 21.9999 16.6527 21.9999 17.1426C21.9999 18.1059 22.0003 19.0699 21.9999 20.0332C21.9997 20.4667 21.8357 20.6273 21.3954 20.6279C21.2067 20.6282 21.0173 20.6356 20.829 20.626C20.7072 20.6198 20.658 20.6481 20.666 20.7822C20.6784 20.9898 20.6693 21.1989 20.6689 21.4072C20.668 21.8316 20.5023 21.9999 20.082 22H3.95209C3.48691 22 3.33136 21.8455 3.33099 21.3828C3.33088 21.1745 3.32599 20.9659 3.33295 20.7578C3.33627 20.6582 3.31059 20.6207 3.20502 20.626C3.02977 20.6347 2.85247 20.618 2.67767 20.6309C2.39098 20.6518 2.15544 20.5776 1.99994 20.3203V16.8047C2.16677 16.5441 2.41716 16.5016 2.70502 16.5029C4.26029 16.5102 5.81571 16.5046 7.37103 16.5098C7.52049 16.5102 7.59019 16.4792 7.64447 16.3223C7.84788 15.7347 8.2583 15.337 8.84564 15.1338C8.97091 15.0904 9.01613 15.0411 9.01459 14.9053C9.00667 14.2286 9.01196 13.5517 9.0097 12.875C9.00914 12.7064 9.03467 12.5512 9.16791 12.4316C9.68854 11.9644 9.86814 11.3536 9.88959 10.6826C9.91289 9.94956 9.78418 9.2325 9.63568 8.51855C9.43612 7.55902 9.17404 6.61214 9.0517 5.63672C8.89512 4.38815 9.22492 3.33241 10.2665 2.55957C10.6213 2.29637 11.0242 2.13642 11.456 2.04785C11.4957 2.03978 11.5519 2.06209 11.5703 2H12.3515ZM19.5331 20.6309C14.5078 20.6281 9.48236 20.6279 4.45697 20.6279C4.41146 20.6279 4.36549 20.6263 4.32025 20.6299C4.29633 20.6318 4.25495 20.6397 4.25189 20.6523C4.21968 20.7858 4.21998 20.9257 4.24701 21.0557C4.26443 21.1392 4.37218 21.0956 4.43744 21.0957C6.95666 21.098 9.47583 21.0977 11.9951 21.0977H15.9794C17.177 21.0977 18.3746 21.0975 19.5722 21.0957C19.6335 21.0956 19.7363 21.1301 19.7499 21.0645C19.7759 20.9399 19.7836 20.8011 19.7548 20.6787C19.7304 20.575 19.6087 20.6309 19.5331 20.6309ZM3.07416 17.4141C2.91703 17.4139 2.89805 17.4679 2.89935 17.6025C2.90591 18.2404 2.91006 18.8789 2.8974 19.5166C2.89384 19.6948 2.94601 19.7278 3.11322 19.7275C6.07541 19.7222 9.03125 19.7236 11.9999 19.7236C14.9686 19.7236 17.9375 19.7223 20.9062 19.7266C21.0554 19.7268 21.1039 19.6949 21.1015 19.5361C21.0916 18.8919 21.094 18.2469 21.1005 17.6025C21.1018 17.4679 21.0828 17.414 20.9257 17.4141C14.9753 17.4187 9.0246 17.4187 3.07416 17.4141ZM14.666 15.9473C12.8909 15.9188 11.1149 15.9198 9.33978 15.9473C8.98649 15.9528 8.73784 16.1782 8.54584 16.4893H15.457C15.2575 16.179 15.0132 15.9531 14.666 15.9473ZM13.6835 13.2246C13.0914 13.2303 10.5911 13.23 10.0956 13.2236C9.96817 13.222 9.91318 13.2434 9.91595 13.3896C9.92539 13.884 9.92377 14.3787 9.91693 14.873C9.91531 14.9923 9.94581 15.0269 10.0673 15.0254C10.5943 15.0184 11.1222 15.0225 11.6494 15.0225C12.4041 15.0225 13.1593 15.018 13.914 15.0254C14.0536 15.0267 14.0862 14.9869 14.0839 14.8525C14.0757 14.358 14.0772 13.8627 14.082 13.3682C14.0829 13.2616 14.0563 13.22 13.9423 13.2236C13.8563 13.2263 13.7699 13.2266 13.6835 13.2246ZM13.5917 3.65918C13.0304 3.02283 12.333 2.76706 11.5078 2.97461C10.6721 3.18496 10.148 3.73618 9.96576 4.58008C9.84378 5.14515 9.96625 5.70673 10.0703 6.2627C10.2957 7.46842 10.657 8.64831 10.7665 9.87598C10.8371 10.667 10.8164 11.4501 10.4638 12.1855C10.4013 12.316 10.4494 12.3223 10.5576 12.3213C10.8681 12.3182 12.8237 12.3159 13.5165 12.3193C13.5396 12.314 13.5631 12.3076 13.5869 12.2998C13.3362 11.7982 13.2231 11.2762 13.207 10.7305C13.1838 9.94488 13.3058 9.17595 13.4648 8.41016C13.664 7.45035 13.9255 6.50276 14.0468 5.52734C14.1314 4.84745 14.0712 4.20293 13.5917 3.65918Z" fill="#333333"/>
</svg>
