<svg width="1em" height="1em" viewBox="0 0 24 24" fill="currentColor" xmlns="http://www.w3.org/2000/svg">
  <path d="M12.461,1.993c1.653.246,3.01,1.528,3.24,3.227.126.929-.094,1.775-.554,2.572-.698,1.21-1.258,2.568-1.463,3.991.587.27.978.802.982,1.449l.004.571,2.778.01c1.419.005,2.568,1.199,2.572,2.606l.003,1.151c0,.266-.181.538-.453.543l-.622.012-.02.779c-.104.688-.631,1.192-1.275,1.36H6.33c-.645-.169-1.171-.671-1.275-1.36l-.021-.779-.622-.012c-.272-.005-.454-.277-.453-.543l.003-1.152c.004-1.406,1.153-2.601,2.572-2.606l2.778-.01.004-.57c.004-.649.395-1.178.985-1.451-.241-1.466-.614-2.742-1.423-3.953-.519-.776-.72-1.672-.598-2.608.221-1.698,1.582-2.981,3.241-3.227h.94ZM12.614,11.651c.205-1.374.645-2.603,1.27-3.784l.482-.905c.63-1.182.252-2.621-.811-3.39s-2.514-.648-3.441.265c-.934.92-1.056,2.364-.3,3.46.881,1.276,1.302,2.821,1.564,4.366l1.236-.012ZM13.594,13.806l.007-.495c.004-.295-.214-.574-.531-.574h-2.158c-.317,0-.534.279-.531.574l.005.495h3.208ZM18.935,17.057l.013-.637c-.058-.869-.746-1.544-1.637-1.544H6.672c-.905,0-1.606.699-1.637,1.586-.007.201-.024.382.016.596h13.884ZM17.264,19.198c.351,0,.588-.201.613-.53.013-.173.02-.353-.012-.549H6.116c-.032.195-.024.379-.012.548.025.355.291.533.63.533h10.529Z"/>
</svg>
