<svg width="1em" height="1em" viewBox="0 0 24 24" fill="none" xmlns="http://www.w3.org/2000/svg">
<path d="M5.81097 17.42V14.549H4.38098V17.42C4.38283 18.0029 4.61522 18.5614 5.0274 18.9736C5.43959 19.3858 5.99809 19.6182 6.58099 19.62H9.46698V18.191H6.58099C6.4794 18.1911 6.37875 18.1713 6.28485 18.1325C6.19095 18.0937 6.10564 18.0368 6.03375 17.965C5.96187 17.8932 5.90482 17.8079 5.86591 17.7141C5.827 17.6202 5.80695 17.5196 5.80695 17.418L5.81097 17.42Z" fill="currentColor"/>
<path d="M18.2009 17.42C18.2013 17.5214 18.1817 17.622 18.1432 17.7159C18.1048 17.8098 18.0481 17.8951 17.9766 17.9671C17.9051 18.0391 17.8201 18.0963 17.7264 18.1354C17.6328 18.1745 17.5324 18.1947 17.431 18.195H14.58V19.625H17.415C17.9979 19.6232 18.5564 19.3908 18.9686 18.9786C19.3807 18.5664 19.6131 18.0079 19.6149 17.425V14.553H18.186L18.2009 17.42Z" fill="currentColor"/>
<path d="M17.426 4.375H14.579V5.80501H17.4139C17.5155 5.80474 17.6162 5.82451 17.7101 5.86317C17.8041 5.90184 17.8895 5.95865 17.9615 6.03035C18.0335 6.10205 18.0906 6.18724 18.1296 6.28104C18.1687 6.37484 18.1888 6.4754 18.189 6.577V9.45H19.619V6.57901C19.6219 5.99914 19.3946 5.44179 18.987 5.02933C18.5794 4.61686 18.0248 4.38296 17.4449 4.379L17.426 4.375Z" fill="currentColor"/>
<path d="M5.81097 6.57901C5.81084 6.47741 5.83072 6.37678 5.86951 6.28288C5.90829 6.18898 5.96526 6.10365 6.03705 6.03177C6.10884 5.95988 6.19405 5.90285 6.2879 5.86394C6.38175 5.82503 6.48239 5.80501 6.58398 5.80501H9.47095V4.375H6.58496C6.00205 4.37685 5.44355 4.60923 5.03137 5.02141C4.61919 5.43359 4.38679 5.99209 4.38495 6.575V9.446H5.815L5.81097 6.57901Z" fill="currentColor"/>
<path d="M6.95398 11.297V12.727H8.45398C8.62484 13.57 9.08226 14.3277 9.74854 14.8716C10.4148 15.4154 11.2488 15.7118 12.1089 15.7104C12.9689 15.709 13.802 15.4099 14.4665 14.8638C15.131 14.3178 15.5859 13.5585 15.754 12.715H17.243V11.285L6.95398 11.297Z" fill="currentColor" stroke="currentColor" stroke-width="0.1" stroke-linecap="round" stroke-linejoin="round"/>
<path d="M14.662 10.057C14.6891 10.092 14.7234 10.1208 14.7625 10.1413C14.8017 10.1618 14.8448 10.1737 14.889 10.176C14.9419 10.1739 14.9932 10.1575 15.0375 10.1285C15.0818 10.0996 15.1175 10.0592 15.1406 10.0116C15.1638 9.964 15.1737 9.91101 15.1692 9.85827C15.1646 9.80553 15.1459 9.755 15.115 9.71204C14.8703 9.37597 14.5724 9.08211 14.233 8.84205C14.2017 8.8188 14.1661 8.80207 14.1283 8.79284C14.0904 8.78361 14.0512 8.78207 14.0127 8.78831C13.9743 8.79455 13.9374 8.80844 13.9044 8.82917C13.8715 8.8499 13.843 8.87703 13.8207 8.90897C13.7984 8.94091 13.7828 8.977 13.7747 9.0151C13.7666 9.0532 13.7662 9.09253 13.7736 9.13077C13.781 9.16902 13.796 9.20538 13.8177 9.23772C13.8394 9.27006 13.8674 9.29773 13.9 9.31905C14.1932 9.52106 14.4507 9.77046 14.662 10.057Z" fill="currentColor"/>
<path d="M11.934 8.759C12.2839 8.73877 12.6348 8.77903 12.971 8.87801C12.9976 8.8888 13.0264 8.89291 13.055 8.89C13.1158 8.8892 13.1748 8.86951 13.2239 8.83368C13.273 8.79785 13.3097 8.74764 13.329 8.69C13.3393 8.65343 13.3424 8.61517 13.338 8.57742C13.3335 8.53967 13.3216 8.50316 13.303 8.47C13.2845 8.43684 13.2595 8.40768 13.2297 8.38417C13.1998 8.36066 13.1656 8.34328 13.129 8.33301C12.7296 8.22415 12.3153 8.17991 11.902 8.202C11.827 8.20852 11.7572 8.24298 11.7065 8.29855C11.6557 8.35412 11.6277 8.42674 11.628 8.502C11.6336 8.57629 11.6682 8.6454 11.7244 8.69441C11.7805 8.74342 11.8536 8.76842 11.928 8.76401L11.934 8.759Z" fill="currentColor"/>
<path d="M9.82499 9.60496C9.89464 9.60504 9.96203 9.58022 10.015 9.53497C10.2768 9.29894 10.5798 9.11316 10.909 8.98697C10.9785 8.95846 11.0337 8.90351 11.0627 8.83421C11.0917 8.76492 11.092 8.68695 11.0635 8.61746C11.0349 8.54797 10.98 8.49267 10.9107 8.4637C10.8414 8.43472 10.7634 8.43445 10.6939 8.46296C10.3111 8.6212 9.95752 8.84261 9.64799 9.11796C9.59172 9.16765 9.55728 9.23753 9.55222 9.31242C9.54717 9.38731 9.57187 9.46118 9.62095 9.51797C9.64648 9.54656 9.67804 9.56917 9.71329 9.58421C9.74855 9.59925 9.78668 9.60633 9.82499 9.60496Z" fill="currentColor"/>
<path d="M15.783 11.267H15.183L15.124 10.988C15.1123 10.9521 15.108 10.9142 15.1113 10.8766C15.1145 10.839 15.1253 10.8024 15.1429 10.769C15.1796 10.7017 15.2415 10.6517 15.315 10.63C15.3435 10.6213 15.3731 10.6169 15.403 10.617C15.4634 10.6167 15.5223 10.636 15.5709 10.6721C15.6194 10.7082 15.6549 10.759 15.672 10.817C15.719 10.9605 15.7541 11.1077 15.777 11.257L15.783 11.267ZM8.41998 11.277L8.43097 11.225C8.51082 10.8153 8.65567 10.421 8.85999 10.057C8.88423 10.0128 8.91973 9.97577 8.96295 9.94977C9.00617 9.92377 9.05552 9.90969 9.10596 9.909C9.15767 9.90976 9.20834 9.92389 9.25299 9.95C9.28544 9.96706 9.3142 9.99034 9.33765 10.0185C9.36109 10.0467 9.37872 10.0792 9.38959 10.1143C9.40045 10.1493 9.40431 10.1861 9.40094 10.2226C9.39757 10.2591 9.38708 10.2946 9.37 10.327L9.35999 10.344C9.19885 10.6387 9.0829 10.9559 9.01599 11.285L8.41998 11.277Z" fill="currentColor"/>
</svg>
