<svg width="1em" height="1em" viewBox="0 0 24 24" fill="none" xmlns="http://www.w3.org/2000/svg">
<path d="M21.42,17.01l-.35-1.61c-.07-.32-.27-.6-.55-.77-.24-.15-.53-.21-.82-.16l-.12.03s-.01,0-.02,0v-3.09h.52c.66,0,1.2-.54,1.2-1.2v-1.59c0-.66-.54-1.2-1.2-1.2h-.52v-.89c0-.66-.54-1.2-1.2-1.2h-2.06c-.62,0-1.13.47-1.19,1.08v.12s0,.89,0,.89h-.83c-.52,0-.97.33-1.14.81l-.03.1-.41,1.65-.43-1.67c-.13-.5-.56-.85-1.06-.9h-.1s-2.07,0-2.07,0c-.51,0-.97.33-1.13.81l-.03.1-.43,1.69-.42-1.69c-.13-.5-.55-.86-1.06-.9h-.1s-2.1,0-2.1,0c-.38,0-.73.18-.96.48-.23.3-.3.69-.2,1.05l2.47,8.73.03.09c.17.47.62.78,1.12.78h2.15c.54,0,1.01-.36,1.16-.88l.54-1.95.54,1.95c.14.52.62.88,1.16.88h2.14c.54,0,1.01-.36,1.16-.87l.31-1.11c.07.18.17.36.28.52.33.49.77.88,1.29,1.15l.23.11h0c.59.25,1.23.35,1.89.33h0c.34,0,.66-.04.96-.11h0c.22-.05.43-.1.6-.16.57-.2.91-.79.78-1.39ZM19.77,17.39c-.2.05-.45.07-.74.08-.52.02-.98-.06-1.39-.23-.41-.17-.74-.44-.98-.81-.24-.36-.36-.82-.35-1.36v-4.85h-.37l-2.02,7.14h-2.14l-1.64-5.9h-.12l-1.64,5.9h-2.15l-2.47-8.73h2.1l1.53,6.14h.08s1.57-6.14,1.57-6.14h2.07l1.57,6.1h.09l1.51-6.1h2.03v-2.09h2.06v2.09h1.72v1.59h-1.72v4.51c0,.28.04.49.12.64.09.14.2.24.34.3.14.05.3.08.47.08.13,0,.25,0,.35-.03.11-.02.19-.04.25-.05l.35,1.61c-.11.04-.27.08-.47.13Z" fill="currentColor"/>
</svg>
