<svg width="1em" height="1em" viewBox="0 0 24 24" fill="none" xmlns="http://www.w3.org/2000/svg">
<mask id="path-1-outside-1_1403_11802" maskUnits="userSpaceOnUse" x="1.76025" y="4.53027" width="20" height="15" fill="black">
<rect fill="white" x="1.76025" y="4.53027" width="20" height="15"/>
<path fill-rule="evenodd" clip-rule="evenodd" d="M20.0805 10.2121V8.62118H18.3589V6.53027H16.3021V8.62109H14.2773L12.7659 14.7234H12.6807L11.1125 8.62109H9.03866L7.47048 14.7575H7.39094L5.85684 8.62109H3.76025L6.22616 17.3484H8.37389L10.0103 11.4506H10.1296L11.7659 17.3484H13.908L15.929 10.2121H16.3021V15.0644C16.2983 15.6098 16.4157 16.0644 16.6544 16.428C16.8968 16.7916 17.2245 17.0606 17.6373 17.2348C18.0502 17.4053 18.5142 17.4829 19.0294 17.4678C19.3211 17.4602 19.5673 17.4337 19.768 17.3882C19.9726 17.3428 20.1298 17.3011 20.2396 17.2632L19.893 15.6553C19.8362 15.6704 19.7529 15.6875 19.643 15.7064C19.537 15.7253 19.4195 15.7348 19.2907 15.7348C19.1203 15.7348 18.965 15.7083 18.8248 15.6553C18.6847 15.6022 18.5711 15.5038 18.4839 15.3598C18.4006 15.2121 18.3589 15 18.3589 14.7235V10.2121H20.0805Z"/>
</mask>
<path d="M20.0805 8.62118H21.2805C21.2805 7.95844 20.7433 7.42118 20.0805 7.42118V8.62118ZM20.0805 10.2121V11.4121C20.7433 11.4121 21.2805 10.8748 21.2805 10.2121H20.0805ZM18.3589 8.62118H17.1589C17.1589 9.28392 17.6962 9.82118 18.3589 9.82118V8.62118ZM18.3589 6.53027H19.5589C19.5589 5.86753 19.0217 5.33027 18.3589 5.33027V6.53027ZM16.3021 6.53027V5.33027C15.6394 5.33027 15.1021 5.86753 15.1021 6.53027H16.3021ZM16.3021 8.62109V9.82109C16.9649 9.82109 17.5021 9.28384 17.5021 8.62109H16.3021ZM14.2773 8.62109V7.42109C13.7257 7.42109 13.2451 7.79716 13.1125 8.3326L14.2773 8.62109ZM12.7659 14.7234V15.9234C13.3176 15.9234 13.7981 15.5473 13.9307 15.0119L12.7659 14.7234ZM12.6807 14.7234L11.5185 15.022C11.6548 15.5525 12.133 15.9234 12.6807 15.9234V14.7234ZM11.1125 8.62109L12.2748 8.32242C12.1384 7.79195 11.6602 7.42109 11.1125 7.42109V8.62109ZM9.03866 8.62109V7.42109C8.49036 7.42109 8.01179 7.79274 7.87603 8.32398L9.03866 8.62109ZM7.47048 14.7575V15.9575C8.01879 15.9575 8.49736 15.5858 8.63312 15.0546L7.47048 14.7575ZM7.39094 14.7575L6.22676 15.0485C6.36031 15.5827 6.84029 15.9575 7.39094 15.9575V14.7575ZM5.85684 8.62109L7.02102 8.33005C6.88747 7.79585 6.40749 7.42109 5.85684 7.42109V8.62109ZM3.76025 8.62109V7.42109C3.38432 7.42109 3.03012 7.59727 2.80329 7.89706C2.57647 8.19685 2.50325 8.58561 2.60547 8.94738L3.76025 8.62109ZM6.22616 17.3484L5.07137 17.6747C5.21741 18.1915 5.68908 18.5484 6.22616 18.5484V17.3484ZM8.37389 17.3484V18.5484C8.91307 18.5484 9.38605 18.1887 9.53021 17.6692L8.37389 17.3484ZM10.0103 11.4506V10.2506C9.47107 10.2506 8.99809 10.6103 8.85394 11.1298L10.0103 11.4506ZM10.1296 11.4506L11.2859 11.1298C11.1417 10.6103 10.6688 10.2506 10.1296 10.2506V11.4506ZM11.7659 17.3484L10.6096 17.6692C10.7538 18.1887 11.2268 18.5484 11.7659 18.5484V17.3484ZM13.908 17.3484V18.5484C14.4448 18.5484 14.9163 18.1918 15.0626 17.6754L13.908 17.3484ZM15.929 10.2121V9.01209C15.3922 9.01209 14.9207 9.36861 14.7744 9.88511L15.929 10.2121ZM16.3021 10.2121H17.5021C17.5021 9.54935 16.9649 9.01209 16.3021 9.01209V10.2121ZM16.3021 15.0644L17.5021 15.0727V15.0644H16.3021ZM16.6544 16.428L15.6511 17.0864L15.6559 17.0936L16.6544 16.428ZM17.6373 17.2348L17.1708 18.3404L17.1794 18.344L17.6373 17.2348ZM19.0294 17.4678L18.9982 16.2682L18.9941 16.2683L19.0294 17.4678ZM19.768 17.3882L19.5077 16.2168L19.503 16.2179L19.768 17.3882ZM20.2396 17.2632L20.6308 18.3977C21.2049 18.1997 21.5406 17.604 21.4127 17.0104L20.2396 17.2632ZM19.893 15.6553L21.0661 15.4024C20.9969 15.0815 20.7992 14.8029 20.5192 14.6316C20.2391 14.4603 19.901 14.4112 19.5838 14.4958L19.893 15.6553ZM19.643 15.7064L19.4391 14.5238L19.4321 14.5251L19.643 15.7064ZM18.8248 15.6553L19.2495 14.5329L19.2495 14.5329L18.8248 15.6553ZM18.4839 15.3598L17.4388 15.9494C17.4448 15.9601 17.451 15.9707 17.4573 15.9812L18.4839 15.3598ZM18.3589 10.2121V9.01209C17.6962 9.01209 17.1589 9.54935 17.1589 10.2121H18.3589ZM18.8805 8.62118V10.2121H21.2805V8.62118H18.8805ZM18.3589 9.82118H20.0805V7.42118H18.3589V9.82118ZM17.1589 6.53027V8.62118H19.5589V6.53027H17.1589ZM16.3021 7.73027H18.3589V5.33027H16.3021V7.73027ZM17.5021 8.62109V6.53027H15.1021V8.62109H17.5021ZM14.2773 9.82109H16.3021V7.42109H14.2773V9.82109ZM13.9307 15.0119L15.4421 8.90958L13.1125 8.3326L11.6011 14.4349L13.9307 15.0119ZM12.6807 15.9234H12.7659V13.5234H12.6807V15.9234ZM9.95029 8.91977L11.5185 15.022L13.8429 14.4247L12.2748 8.32242L9.95029 8.91977ZM9.03866 9.82109H11.1125V7.42109H9.03866V9.82109ZM8.63312 15.0546L10.2013 8.91821L7.87603 8.32398L6.30785 14.4603L8.63312 15.0546ZM7.39094 15.9575H7.47048V13.5575H7.39094V15.9575ZM4.69267 8.91214L6.22676 15.0485L8.55511 14.4664L7.02102 8.33005L4.69267 8.91214ZM3.76025 9.82109H5.85684V7.42109H3.76025V9.82109ZM7.38095 17.0221L4.91504 8.29481L2.60547 8.94738L5.07137 17.6747L7.38095 17.0221ZM8.37389 16.1484H6.22616V18.5484H8.37389V16.1484ZM8.85394 11.1298L7.21757 17.0275L9.53021 17.6692L11.1666 11.7715L8.85394 11.1298ZM10.1296 10.2506H10.0103V12.6506H10.1296V10.2506ZM12.9223 17.0275L11.2859 11.1298L8.97326 11.7715L10.6096 17.6692L12.9223 17.0275ZM13.908 16.1484H11.7659V18.5484H13.908V16.1484ZM14.7744 9.88511L12.7534 17.0214L15.0626 17.6754L17.0836 10.5391L14.7744 9.88511ZM16.3021 9.01209H15.929V11.4121H16.3021V9.01209ZM17.5021 15.0644V10.2121H15.1021V15.0644H17.5021ZM17.6576 15.7696C17.5784 15.6489 17.4995 15.4416 17.5021 15.0727L15.1021 15.056C15.0971 15.7781 15.2531 16.4798 15.6511 17.0864L17.6576 15.7696ZM18.1039 16.1292C17.9018 16.0439 17.7614 15.9252 17.6528 15.7624L15.6559 17.0936C16.0322 17.6581 16.5472 18.0772 17.1708 18.3404L18.1039 16.1292ZM18.9941 16.2683C18.622 16.2792 18.3297 16.2224 18.0953 16.1256L17.1794 18.344C17.7707 18.5881 18.4064 18.6866 19.0647 18.6673L18.9941 16.2683ZM19.503 16.2179C19.4035 16.2404 19.2409 16.2619 18.9982 16.2682L19.0605 18.6674C19.4012 18.6585 19.7311 18.627 20.033 18.5586L19.503 16.2179ZM19.8484 16.1288C19.8026 16.1446 19.6971 16.1747 19.5077 16.2168L20.0283 18.5597C20.2481 18.5108 20.457 18.4576 20.6308 18.3977L19.8484 16.1288ZM18.72 15.9081L19.0666 17.5161L21.4127 17.0104L21.0661 15.4024L18.72 15.9081ZM19.8469 16.889C19.9668 16.8683 20.0925 16.844 20.2022 16.8148L19.5838 14.4958C19.5857 14.4953 19.5752 14.4981 19.5474 14.5038C19.521 14.5092 19.4853 14.5159 19.4391 14.5239L19.8469 16.889ZM19.2907 16.9348C19.4771 16.9348 19.6664 16.9212 19.854 16.8877L19.4321 14.5251C19.4075 14.5295 19.362 14.5348 19.2907 14.5348V16.9348ZM18.4002 16.7776C18.6933 16.8885 18.995 16.9348 19.2907 16.9348V14.5348C19.2677 14.5348 19.2542 14.533 19.2484 14.532C19.2429 14.5311 19.2439 14.5308 19.2495 14.5329L18.4002 16.7776ZM17.4573 15.9812C17.6654 16.325 17.9783 16.618 18.4002 16.7776L19.2495 14.5329C19.3121 14.5566 19.3708 14.5918 19.4204 14.6348C19.4687 14.6767 19.4969 14.7159 19.5105 14.7385L17.4573 15.9812ZM17.1589 14.7235C17.1589 15.0902 17.209 15.5421 17.4388 15.9494L19.5291 14.7702C19.5475 14.8029 19.5577 14.8285 19.5628 14.8432C19.5679 14.8578 19.5687 14.8638 19.5677 14.8586C19.5667 14.8536 19.5644 14.8401 19.5624 14.8168C19.5604 14.7936 19.5589 14.7628 19.5589 14.7235H17.1589ZM17.1589 10.2121V14.7235H19.5589V10.2121H17.1589ZM20.0805 9.01209H18.3589V11.4121H20.0805V9.01209Z" fill="currentColor" mask="url(#path-1-outside-1_1403_11802)"/>
</svg>
