<svg xmlns="http://www.w3.org/2000/svg" width="24.929" height="18.337" viewBox="0 0 24.929 18.337">
  <g id="Group_64" data-name="Group 64" transform="translate(-1408.443 -640.925)">
    <path id="Path_115" data-name="Path 115" d="M1408.867,646.382l2.684,2.841.352-.341a12.92,12.92,0,0,1,18.132,0l.351.341,2.685-2.843-.351-.342a16.748,16.748,0,0,0-11.751-4.814h0a16.755,16.755,0,0,0-11.752,4.817l-.349.34" fill="#707070" stroke="#707070" stroke-linecap="round" stroke-linejoin="round" stroke-width="0.6"/>
    <path id="Path_116" data-name="Path 116" d="M1422.1,648.8a11.008,11.008,0,0,0-7.722,3.165l-.351.34,2.7,2.855.351-.344a7.122,7.122,0,0,1,10.051,0l.35.343,2.7-2.855-.349-.34A11.018,11.018,0,0,0,1422.1,648.8Z" transform="translate(-1.131 -1.66)" fill="#707070" stroke="#707070" stroke-linecap="round" stroke-linejoin="round" stroke-width="0.6"/>
    <circle id="Ellipse_26" data-name="Ellipse 26" cx="2.651" cy="2.651" r="2.651" transform="translate(1418.318 653.659)" fill="#707070" stroke="#707070" stroke-linecap="round" stroke-linejoin="round" stroke-width="0.6"/>
  </g>
</svg>
