<?xml version="1.0" encoding="utf-8"?>
<!-- Generator: Adobe Illustrator 24.0.1, SVG Export Plug-In . SVG Version: 6.00 Build 0)  -->
<svg version="1.1" id="Layer_1" xmlns="http://www.w3.org/2000/svg" xmlns:xlink="http://www.w3.org/1999/xlink" x="0px" y="0px"
	 viewBox="0 0 48 48" style="enable-background:new 0 0 48 48;" xml:space="preserve">
<style type="text/css">
	.st0{fill-rule:evenodd;clip-rule:evenodd;fill:#5C5C5C;}
	.st1{fill:#5C5C5C;}
</style>
<title>Custom Preset 9 Copy 21</title>
<g id="Custom-Preset-9-Copy-21">
	<path id="Triangle" class="st0" d="M3.1,11.3L17.2,0.1c0.3-0.2,0.7-0.2,0.9,0.1c0.1,0.1,0.1,0.3,0.1,0.4v22.3
		c0,0.4-0.3,0.7-0.7,0.7c-0.1,0-0.3-0.1-0.4-0.1L3.1,12.3c-0.3-0.2-0.3-0.6-0.1-0.9C3,11.4,3,11.3,3.1,11.3z"/>
	<path id="Path-2" class="st1" d="M24.8,8.5c10.9,0,19.7,8.8,19.7,19.7c0,10.8-8.6,19.5-19.3,19.7l-0.4,0h-6.9v-5.3h6.9
		c8,0,14.5-6.5,14.5-14.5c0-7.9-6.3-14.3-14.1-14.5l-0.4,0h-9.7V8.5H24.8z"/>
</g>
</svg>
