<svg xmlns="http://www.w3.org/2000/svg" xmlns:xlink="http://www.w3.org/1999/xlink" width="32" height="32" viewBox="0 0 32 32">
  <defs>
    <clipPath id="clip-icon-draw">
      <rect width="32" height="32"/>
    </clipPath>
  </defs>
  <g id="icon-draw" clip-path="url(#clip-icon-draw)">
    <g id="Group_38" data-name="Group 38" transform="translate(2250.371 2286.123) rotate(-135)">
      <path id="Path_74" data-name="Path 74" d="M3189.327,48.332h-7.763a.588.588,0,0,0-.65.495v2.364a.588.588,0,0,0,.65.494h7.763a.588.588,0,0,0,.648-.494V48.827A.588.588,0,0,0,3189.327,48.332Z" transform="translate(-0.72 -16.569)" fill="#484949"/>
      <path id="Path_75" data-name="Path 75" d="M3191.083,22.3l-5.218-8.462a1.3,1.3,0,0,0-.765-.576V22.2a1.331,1.331,0,1,1-.78,0V13.276a1.31,1.31,0,0,0-.732.58l-4.98,8.413a1.334,1.334,0,0,0-.133,1.048l1.716,5.669c.166.569.5,1.1,1.1,1.1l7.206-.009c.6,0,.975-.556,1.134-1.134l1.607-5.59A1.334,1.334,0,0,0,3191.083,22.3Z" transform="translate(0 0)" fill="#484949"/>
    </g>
  </g>
</svg>
