<svg xmlns="http://www.w3.org/2000/svg" width="20.655" height="20.671" viewBox="0 0 20.655 20.671">
  <g id="Group_30" data-name="Group 30" transform="translate(-882.143 -214.95)">
    <path id="Path_1" data-name="Path 1" d="M884.081,273.3v-3.892h-1.938V273.3a2.991,2.991,0,0,0,2.987,2.987h3.912V274.35H885.13a1.048,1.048,0,0,1-1.049-1.047Z" transform="translate(0 -40.667)" fill="#5d5d5d"/>
    <path id="Path_2" data-name="Path 2" d="M941.638,273.3a1.047,1.047,0,0,1-1.044,1.05h-3.865v1.938h3.844a2.991,2.991,0,0,0,2.987-2.987v-3.893h-1.937Z" transform="translate(-40.762 -40.667)" fill="#5d5d5d"/>
    <path id="Path_3" data-name="Path 3" d="M940.588,214.95h-3.859v1.938h3.844a1.048,1.048,0,0,1,1.05,1.046v3.895h1.938v-3.892a2.968,2.968,0,0,0-2.948-2.987Z" transform="translate(-40.762 0)" fill="#5d5d5d"/>
    <path id="Path_4" data-name="Path 4" d="M884.081,217.937a1.048,1.048,0,0,1,1.047-1.049h3.914V214.95H885.13a2.991,2.991,0,0,0-2.987,2.987v3.892h1.938Z" transform="translate(0 0)" fill="#5d5d5d"/>
    <path id="Path_67" data-name="Path 67" d="M895.917,251.952v1.938h2.035a5.047,5.047,0,0,0,9.9-.016h2.019v-1.938Z" transform="translate(-10.286 -27.619)" fill="#5d5d5d" stroke="#5d5d5d" stroke-linecap="round" stroke-linejoin="round" stroke-width="0.1"/>
    <path id="Path_6" data-name="Path 6" d="M933.629,240.3a.416.416,0,0,0,.307.162.4.4,0,0,0,.307-.629,5.172,5.172,0,0,0-1.2-1.179.394.394,0,1,0-.452.647A4.347,4.347,0,0,1,933.629,240.3Z" transform="translate(-37.55 -17.651)" fill="#969595"/>
    <path id="Path_7" data-name="Path 7" d="M921.335,236.156a4.131,4.131,0,0,1,1.405.162.238.238,0,0,0,.114.016.4.4,0,0,0,.371-.274.391.391,0,0,0-.269-.483h0a5.259,5.259,0,0,0-1.663-.178.4.4,0,0,0-.371.4.385.385,0,0,0,.411.356Z" transform="translate(-28.954 -15.263)" fill="#969595"/>
    <path id="Path_8" data-name="Path 8" d="M910.19,238.3a.4.4,0,0,0,.258-.094,3.889,3.889,0,0,1,1.212-.743.384.384,0,0,0-.291-.711,5.016,5.016,0,0,0-1.418.888.386.386,0,0,0-.036.544l0,.005A.354.354,0,0,0,910.19,238.3Z" transform="translate(-20.668 -16.257)" fill="#969595"/>
    <path id="Subtraction_5" data-name="Subtraction 5" d="M913.74,246.414l-.807,0-.081-.378a.383.383,0,0,1,.026-.3.391.391,0,0,1,.232-.189.4.4,0,0,1,.119-.018.378.378,0,0,1,.365.276,3.729,3.729,0,0,1,.143.6Zm-9.98.014.015-.071a5.316,5.316,0,0,1,.581-1.584.387.387,0,0,1,.333-.2.4.4,0,0,1,.2.056.378.378,0,0,1,.158.511l-.013.023a4.545,4.545,0,0,0-.467,1.276Z" transform="translate(-16.143 -22.121)" fill="#969595"/>
  </g>
</svg>
