<?xml version="1.0" encoding="UTF-8"?>
<svg width="26px" height="23px" viewBox="0 0 26 23" version="1.1" xmlns="http://www.w3.org/2000/svg" xmlns:xlink="http://www.w3.org/1999/xlink">
    <!-- Generator: Sketch 62 (91390) - https://sketch.com -->
    <title>icons8-shape</title>
    <desc>Created with Sketch.</desc>
    <g id="Symbols" stroke="none" stroke-width="1" fill="none" fill-rule="evenodd">
        <g id="Sidebar---Camera" transform="translate(-12.000000, -71.000000)" fill="#B2B2B2" fill-rule="nonzero">
            <g id="icons8-shape" transform="translate(12.000000, 71.000000)">
                <path d="M19.2187244,0 L13.1316844,10.612235 L25.3057644,10.612235 L19.2187244,0 Z M19.2187244,3.93259433 L21.9557716,8.70642502 L16.4816763,8.70642502 L19.2187244,3.93259433 Z M6.03656312,11.56514 C2.77098001,11.56514 0.115288221,14.1294074 0.115288221,17.28257 C0.115288221,20.4357326 2.77098001,23 6.03656312,23 C9.30214623,23 11.957838,20.4357326 11.957838,17.28257 C11.957838,14.1294074 9.30214623,11.56514 6.03656312,11.56514 Z M13.9315963,12.518045 L13.9315963,23 L24.787267,23 L24.787267,12.518045 L13.9315963,12.518045 Z M6.03656312,13.47095 C8.21361853,13.47095 9.98407973,15.1804616 9.98407973,17.28257 C9.98407973,19.3846784 8.21361853,21.09419 6.03656312,21.09419 C3.85950772,21.09419 2.08904652,19.3846784 2.08904652,17.28257 C2.08904652,15.1804616 3.85950772,13.47095 6.03656312,13.47095 Z M15.9053546,14.423855 L22.8135087,14.423855 L22.8135087,21.09419 L15.9053546,21.09419 L15.9053546,14.423855 Z" id="Shape"></path>
            </g>
        </g>
    </g>
</svg>