<svg xmlns="http://www.w3.org/2000/svg" width="16.552" height="18.999" viewBox="0 0 16.552 18.999">
  <path id="Path_111" data-name="Path 111" d="M1235.444,329.894l-.086,0-.052,0-3.68-.021a.3.3,0,0,1-.3-.3l0-1.67a.3.3,0,0,0-.516-.214l-3.3,3.3a.3.3,0,0,0,0,.428l3.3,3.3a.3.3,0,0,0,.517-.214v-2.256a.3.3,0,0,1,.3-.3l3.746.015.068,0a6.126,6.126,0,0,1,.115,12.252h-2.821a.3.3,0,0,0-.3.3v1.47a.3.3,0,0,0,.3.3h2.89l.173,0v-.006a8.2,8.2,0,0,0-.357-16.389Z" transform="translate(-1227.241 -327.445)" fill="#707070" stroke="#707070" stroke-width="0.3"/>
</svg>
