<svg xmlns="http://www.w3.org/2000/svg" width="20" height="20" viewBox="0 0 20 20">
  <g id="Polygon_1" data-name="Polygon 1" fill="none">
    <path d="M8.786.928a2,2,0,0,1,2.428,0l7.677,5.865a2,2,0,0,1,.7,2.18L16.616,18.59A2,2,0,0,1,14.705,20H5.295a2,2,0,0,1-1.911-1.41L.412,8.972a2,2,0,0,1,.7-2.18Z" stroke="none"/>
    <path d="M 10 2.316822052001953 C 9.955109596252441 2.316822052001953 9.914270401000977 2.330631256103516 9.878589630126953 2.357891082763672 L 2.201320648193359 8.222801208496094 C 2.135009765625 8.273451805114746 2.107009887695312 8.361051559448242 2.131650924682617 8.440771102905273 L 5.103859901428223 18.05905151367188 C 5.129910469055176 18.14336204528809 5.206700325012207 18.20000076293945 5.294939994812012 18.20000076293945 L 14.70506000518799 18.20000076293945 C 14.79330062866211 18.20000076293945 14.87009048461914 18.14336204528809 14.89614009857178 18.05904197692871 L 17.86835098266602 8.440761566162109 C 17.89299011230469 8.361051559448242 17.864990234375 8.273451805114746 17.79867935180664 8.222801208496094 L 10.1213903427124 2.357881546020508 C 10.08572959899902 2.330631256103516 10.04489040374756 2.316822052001953 10 2.316822052001953 M 10 0.5168190002441406 C 10.42786026000977 0.5168190002441406 10.85571956634521 0.653717041015625 11.21411991119385 0.9275112152099609 L 18.89138984680176 6.792421340942383 C 19.55744934082031 7.301241874694824 19.83558082580566 8.171401023864746 19.58810997009277 8.972211837768555 L 16.61590003967285 18.59048080444336 C 16.3569393157959 19.42850112915039 15.5821704864502 20.00000190734863 14.70506000518799 20.00000190734863 L 5.294939994812012 20.00000190734863 C 4.417830467224121 20.00000190734863 3.643060684204102 19.42850112915039 3.384099960327148 18.59048080444336 L 0.4118900299072266 8.972211837768555 C 0.1644191741943359 8.171401023864746 0.4425506591796875 7.301241874694824 1.108610153198242 6.792421340942383 L 8.785880088806152 0.9275112152099609 C 9.144280433654785 0.653717041015625 9.572139739990234 0.5168190002441406 10 0.5168190002441406 Z" stroke="none" fill="#5c5c5c"/>
  </g>
</svg>
