<svg xmlns="http://www.w3.org/2000/svg" xmlns:xlink="http://www.w3.org/1999/xlink" width="32" height="32" viewBox="0 0 32 32">
  <defs>
    <clipPath id="clip-icon-polygon">
      <rect width="32" height="32"/>
    </clipPath>
  </defs>
  <g id="icon-polygon" clip-path="url(#clip-icon-polygon)">
    <g id="Polygon_1" data-name="Polygon 1" transform="translate(-688.067 -217.655)">
      <path id="Path_82" data-name="Path 82" d="M702.755,224.077a2.051,2.051,0,0,1,2.492,0l7.881,6.021a2.053,2.053,0,0,1,.719,2.238l-3.054,9.872a2.054,2.054,0,0,1-1.962,1.447h-9.659a2.054,2.054,0,0,1-1.962-1.447l-3.051-9.873a2.053,2.053,0,0,1,.719-2.238Z" transform="translate(0)" fill="none" stroke="#494a4a" stroke-width="0.3"/>
      <path id="Path_83" data-name="Path 83" d="M704,225.5a.194.194,0,0,0-.124.042l-7.882,6.021a.205.205,0,0,0-.071.224l3.051,9.873a.2.2,0,0,0,.2.145h9.66a.205.205,0,0,0,.2-.145l3.051-9.873a.205.205,0,0,0-.071-.224l-7.882-6.021A.193.193,0,0,0,704,225.5m0-1.848a2.047,2.047,0,0,1,1.246.421l7.881,6.021a2.053,2.053,0,0,1,.716,2.238l-3.051,9.873a2.054,2.054,0,0,1-1.962,1.447h-9.66a2.054,2.054,0,0,1-1.961-1.447l-3.051-9.873a2.053,2.053,0,0,1,.716-2.238l7.881-6.021A2.046,2.046,0,0,1,704,223.655Z" transform="translate(0 0)" fill="#494a4a" stroke="#494a4a" stroke-width="0.3"/>
    </g>
  </g>
</svg>
