<svg xmlns="http://www.w3.org/2000/svg" width="17.131" height="17.131" viewBox="0 0 17.131 17.131">
  <path id="icon-objects" d="M673.687,231.507a3.807,3.807,0,1,0,3.807,3.807A3.807,3.807,0,0,0,673.687,231.507Zm7.614,0a1.9,1.9,0,0,0-1.9,1.9v3.807a1.9,1.9,0,0,0,1.9,1.9h3.807a1.9,1.9,0,0,0,1.9-1.9V233.41a1.9,1.9,0,0,0-1.9-1.9Zm1.729,9.518a.912.912,0,0,0-.561.172l-3,2.184a.912.912,0,0,0-.331,1.018l1.149,3.532a.912.912,0,0,0,.867.63h3.711a.912.912,0,0,0,.867-.63l1.149-3.532a.912.912,0,0,0-.331-1.018l-3-2.183a.913.913,0,0,0-.512-.172Zm-9.335,0a.952.952,0,0,0-.857.526l-2.855,5.71a.952.952,0,0,0,.849,1.377h5.71a.952.952,0,0,0,.852-1.377l-2.855-5.71A.951.951,0,0,0,673.695,241.024Z" transform="translate(-669.88 -231.507)" fill="#707070"/>
</svg>
