<?xml version="1.0" encoding="UTF-8"?>
<svg width="29px" height="25px" viewBox="0 0 29 25" version="1.1" xmlns="http://www.w3.org/2000/svg" xmlns:xlink="http://www.w3.org/1999/xlink">
    <!-- Generator: Sketch 62 (91390) - https://sketch.com -->
    <title>icons-shoot</title>
    <desc>Created with Sketch.</desc>
    <g id="Symbols" stroke="none" stroke-width="1" fill="none" fill-rule="evenodd">
        <g id="Sidebar---Camera" transform="translate(-10.000000, -16.000000)">
            <g id="icons-shoot" transform="translate(10.999996, 17.000000)">
                <path d="M17.6929872,11 C17.1973719,11 16.7448698,11.2778547 16.5232159,11.7185547 L16.2652527,12.2314453 C16.0435991,12.6714953 15.5904429,12.95 15.0954813,12.95 L12.3076959,12.95 C11.5851959,12.95 11.0000036,13.53175 11.0000036,14.25 L11.0000036,22.7 C11.0000036,23.41825 11.5851959,24 12.3076959,24 L26.6923112,24 C27.4148112,24 28.0000036,23.41825 28.0000036,22.7 L28.0000036,14.25 C28.0000036,13.53175 27.4148112,12.95 26.6923112,12.95 L23.9045257,12.95 C23.4089103,12.95 22.9564082,12.6721453 22.7347544,12.2314453 L22.4767912,11.7185547 C22.2551373,11.2785047 21.8019814,11 21.3070199,11 L17.6929872,11 Z M13.6666702,11 C13.2986702,11 13.0000036,11.448 13.0000036,12 L15.0000036,12 C15.0000036,11.448 14.7013369,11 14.3333369,11 L13.6666702,11 Z M19.5000036,14 C21.9814321,14 24.0000036,16.0185714 24.0000036,18.5 C24.0000036,20.9814286 21.9814321,23 19.5000036,23 C17.018575,23 15.0000036,20.9814286 15.0000036,18.5 C15.0000036,16.0185714 17.018575,14 19.5000036,14 Z M25.5000036,14 C25.7760036,14 26.0000036,14.224 26.0000036,14.5 C26.0000036,14.776 25.7760036,15 25.5000036,15 C25.2240036,15 25.0000036,14.776 25.0000036,14.5 C25.0000036,14.224 25.2240036,14 25.5000036,14 Z M19.5000036,15 C17.5670069,15 16.0000036,16.5670034 16.0000036,18.5 C16.0000036,20.4329966 17.5670069,22 19.5000036,22 C21.4330002,22 23.0000036,20.4329966 23.0000036,18.5 C23.0000036,16.5670034 21.4330002,15 19.5000036,15 Z" id="Shape" fill="#333333" fill-rule="nonzero"></path>
                <line x1="1" y1="7.74981529" x2="13.9903953" y2="7.25018471" id="Line-2" stroke="#333333" stroke-width="2" stroke-linecap="square" transform="translate(7.495198, 7.500000) rotate(2.202598) translate(-7.495198, -7.500000) "></line>
                <line x1="7.50000355" y1="0.5" x2="7.50000355" y2="13.5" id="Line" stroke="#333333" stroke-width="2" stroke-linecap="square"></line>
            </g>
        </g>
    </g>
</svg>