<?xml version="1.0" encoding="UTF-8"?>
<svg width="21px" height="24px" viewBox="0 0 21 24" version="1.1" xmlns="http://www.w3.org/2000/svg" xmlns:xlink="http://www.w3.org/1999/xlink">
    <!-- Generator: Sketch 62 (91390) - https://sketch.com -->
    <title>icons8-trash</title>
    <desc>Created with Sketch.</desc>
    <g id="Symbols" stroke="none" stroke-width="1" fill="none" fill-rule="evenodd">
        <g id="Sidebar---Camera" transform="translate(-15.000000, -124.000000)" fill="#B2B2B2" fill-rule="nonzero">
            <g id="icons8-trash" transform="translate(15.000000, 124.000000)">
                <path d="M8.55,0 C6.77812526,0 5.31160766,1.34590352 5.14285714,3.02730819 L0,3.02730819 L0,5.02470741 L5.11071429,5.02470741 L5.11071429,5.05591678 L15.4607143,5.05591678 L15.4607143,5.02470741 L20.5714286,5.02470741 L20.5714286,3.02730819 L15.4285714,3.02730819 C15.2678571,1.34590352 13.8696429,0 12.15,0 L8.55,0 Z M8.55,2.05981795 L12.15,2.05981795 C12.6723219,2.05981795 13.0580362,2.45773782 13.2107143,2.99609883 L7.36071429,2.99609883 C7.50535714,2.45773782 7.90714286,2.05981795 8.55,2.05981795 Z M2.05714286,6.02340702 L2.05714286,22.5019506 C2.05714286,23.3016903 2.77633954,24 3.6,24 L17.0678571,24 C17.8915176,24 18.6107143,23.3016903 18.6107143,22.5019506 L18.6107143,6.02340702 L2.05714286,6.02340702 Z M5.14285714,9.01950585 L6.17142857,9.01950585 L6.17142857,22.0026008 L5.14285714,22.0026008 L5.14285714,9.01950585 Z M8.22857143,9.01950585 L9.25714286,9.01950585 L9.25714286,22.0026008 L8.22857143,22.0026008 L8.22857143,9.01950585 Z M11.3142857,9.01950585 L12.3428571,9.01950585 L12.3428571,22.0026008 L11.3142857,22.0026008 L11.3142857,9.01950585 Z M14.4,9.01950585 L15.4285714,9.01950585 L15.4285714,22.0026008 L14.4,22.0026008 L14.4,9.01950585 Z" id="Shape"></path>
            </g>
        </g>
    </g>
</svg>