<?xml version="1.0" encoding="utf-8"?>
<!-- Generator: Adobe Illustrator 24.0.1, SVG Export Plug-In . SVG Version: 6.00 Build 0)  -->
<svg version="1.1" id="Layer_1" xmlns="http://www.w3.org/2000/svg" xmlns:xlink="http://www.w3.org/1999/xlink" x="0px" y="0px"
	 viewBox="0 0 48 48" style="enable-background:new 0 0 48 48;" xml:space="preserve">
<style type="text/css">
	.st0{fill:#333333;}
	.st1{fill-rule:evenodd;clip-rule:evenodd;fill:#333333;}
</style>
<title>Custom Preset 9 Copy 22</title>
<g id="Custom-Preset-9-Copy-22">
	<path id="Shape" class="st0" d="M24.1,15.5c-1.1,0-2.2,0.6-2.7,1.7l-0.6,1.2c-0.5,1-1.5,1.7-2.7,1.7h-6.4c-1.7,0-3,1.4-3,3v19.7
		c0,1.7,1.3,3,3,3h32.9c1.7,0,3-1.4,3-3V23.1c0-1.7-1.3-3-3-3h-6.4c-1.1,0-2.2-0.6-2.7-1.7l-0.6-1.2c-0.5-1-1.5-1.7-2.7-1.7H24.1z
		 M28.9,22.8c5.7,0,10.3,4.6,10.3,10.3s-4.6,10.3-10.3,10.3s-10.3-4.6-10.3-10.3S23.2,22.8,28.9,22.8z M42.8,22.8
		c1.3,0,2.4,1.1,2.4,2.4c0,1.3-1.1,2.4-2.4,2.4s-2.4-1.1-2.4-2.4C40.4,23.9,41.5,22.8,42.8,22.8z M28.9,25.2c-4.4,0-7.9,3.5-7.9,7.9
		s3.5,7.9,7.9,7.9s7.9-3.5,7.9-7.9S33.2,25.2,28.9,25.2z"/>
	<path id="Combined-Shape" class="st1" d="M9.4,2.1c0.3,0,0.6,0.3,0.6,0.6v5.5h5.5c0.3,0,0.6,0.3,0.6,0.6v2.4c0,0.3-0.3,0.6-0.6,0.6
		H10v5.5c0,0.3-0.3,0.6-0.6,0.6H7c-0.3,0-0.6-0.3-0.6-0.6v-5.5H0.9c-0.3,0-0.6-0.3-0.6-0.6V8.8c0-0.3,0.3-0.6,0.6-0.6h5.5V2.8
		c0-0.3,0.3-0.6,0.6-0.6H9.4z"/>
</g>
</svg>
