<svg xmlns="http://www.w3.org/2000/svg" xmlns:xlink="http://www.w3.org/1999/xlink" width="32" height="32" viewBox="0 0 32 32">
  <defs>
    <clipPath id="clip-icon-photo">
      <rect width="32" height="32"/>
    </clipPath>
  </defs>
  <g id="icon-photo" clip-path="url(#clip-icon-photo)">
    <g id="Group_1" data-name="Group 1" transform="translate(-3369.154 -64.588)">
      <path id="Path_76" data-name="Path 76" d="M3393.178,72.584h-16.049a1.934,1.934,0,0,0-1.933,1.933v12.14a1.934,1.934,0,0,0,1.933,1.933h16.049a1.933,1.933,0,0,0,1.933-1.933V74.517A1.933,1.933,0,0,0,3393.178,72.584Zm-.1,11.773c-1-1-1.8-1.847-2.65-2.654a1.776,1.776,0,0,0-2.636-.005,1.872,1.872,0,0,0-.329.327c-.576.881-1.009.6-1.539-.095-.844-1.109-1.761-2.161-2.668-3.22-1.1-1.291-2.106-1.286-3.241.007a19.278,19.278,0,0,0-2.782,4.031c0-2.438.005-5.427,0-7.616,0-.512.314-.63.723-.63q7.162-.006,14.323,0c.521,0,.806.214.8.777C3393.071,78.215,3393.075,81.154,3393.075,84.357Z" fill="#5c5c5c"/>
      <path id="Path_77" data-name="Path 77" d="M3446.395,88.037a2.1,2.1,0,0,0-2.031,2.014,2.022,2.022,0,0,0,4.044.017A2.1,2.1,0,0,0,3446.395,88.037Z" transform="translate(-56.289 -12.576)" fill="#5c5c5c"/>
    </g>
  </g>
</svg>
