<?xml version="1.0" encoding="utf-8"?>
<!-- Generator: Adobe Illustrator 23.0.6, SVG Export Plug-In . SVG Version: 6.00 Build 0)  -->
<svg version="1.0" id="圖層_1" xmlns="http://www.w3.org/2000/svg" xmlns:xlink="http://www.w3.org/1999/xlink" x="0px" y="0px"
	 viewBox="0 0 128 128" style="enable-background:new 0 0 128 128;" xml:space="preserve">
<style type="text/css">
	.st0{fill:#AEAEAE;}
</style>
<path class="st0" d="M12,109.5V85.4H0v24.1C0,119.7,8.3,128,18.5,128h24.2v-12H18.5C14.9,116,12,113.1,12,109.5z"/>
<path class="st0" d="M116,109.5c0,3.6-2.9,6.5-6.5,6.5H85.6v12h23.8c10.2,0,18.5-8.3,18.5-18.5V85.4h-12V109.5z"/>
<path class="st0" d="M109.5,0H85.6v12h23.8c3.6,0,6.5,2.9,6.5,6.5v24.1h12V18.5C128,8.3,119.7,0,109.5,0z"/>
<path class="st0" d="M12,18.5c0-3.6,2.9-6.5,6.5-6.5h24.2V0H18.5C8.3,0,0,8.3,0,18.5v24.1h12V18.5z"/>
<g>
	<path class="st0" d="M98.9,58h-3.2c-0.2-1.3-0.5-2.6-0.9-3.8c-0.4-1.3-1.7-2-3-1.6c-1.3,0.4-2,1.7-1.6,3c0.2,0.8,0.4,1.6,0.6,2.4
		h-5.2H44.1h-5.2c0.6-2.7,1.5-5.4,2.9-7.8c0.7-1.2,0.3-2.6-0.9-3.3c-1.2-0.7-2.6-0.3-3.3,0.9c-1.7,3-2.9,6.3-3.6,9.8
		c0,0.2,0,0.3,0,0.5h-4.5h-7.9v12h12.6C37,84.4,49.7,95.2,64.8,95.2C80,95.2,92.7,84.4,95.5,70H108V58H98.9z"/>
	<path class="st0" d="M86.3,47.7c0.5,0.6,1.2,1,1.9,1c0.5,0,1-0.2,1.4-0.5c1.1-0.8,1.3-2.3,0.5-3.4c-2.1-2.8-4.5-5.3-7.4-7.3
		c-1.1-0.8-2.6-0.5-3.4,0.6c-0.8,1.1-0.5,2.6,0.6,3.4C82.4,43.2,84.5,45.3,86.3,47.7z"/>
	<path class="st0" d="M63.4,36.8c2.9-0.2,5.9,0.2,8.7,1c0.2,0.1,0.4,0.1,0.7,0.1c1,0,2-0.7,2.3-1.7c0.4-1.3-0.4-2.6-1.7-3
		c-3.3-0.9-6.9-1.3-10.3-1.1c-1.3,0.1-2.3,1.2-2.3,2.5C60.9,35.9,62,36.9,63.4,36.8z"/>
	<path class="st0" d="M45.7,43.9c0.6,0,1.1-0.2,1.6-0.6c2.2-2,4.7-3.5,7.5-4.6c1.2-0.5,1.8-1.9,1.3-3.1c-0.5-1.2-1.9-1.8-3.1-1.3
		c-3.2,1.3-6.2,3.2-8.8,5.5c-1,0.9-1.1,2.4-0.2,3.4C44.4,43.7,45.1,43.9,45.7,43.9z"/>
</g>
</svg>
