<svg xmlns="http://www.w3.org/2000/svg" width="18.271" height="14.686" viewBox="0 0 18.271 14.686">
  <g id="Group_39" data-name="Group 39" transform="translate(-3375.196 -72.584)">
    <path id="Path_76" data-name="Path 76" d="M3391.693,72.584H3376.97a1.774,1.774,0,0,0-1.774,1.774V85.5a1.774,1.774,0,0,0,1.774,1.774h14.723a1.774,1.774,0,0,0,1.774-1.774V74.358A1.774,1.774,0,0,0,3391.693,72.584Zm-.094,10.8c-.913-.918-1.656-1.694-2.432-2.435a1.63,1.63,0,0,0-2.418,0,1.76,1.76,0,0,0-.3.3c-.529.808-.925.553-1.412-.087-.773-1.017-1.615-1.983-2.447-2.954-1.013-1.184-1.933-1.18-2.973.007a17.638,17.638,0,0,0-2.552,3.7c0-2.237,0-4.979,0-6.987,0-.469.288-.578.664-.578q6.57-.005,13.14,0c.478,0,.74.2.738.712C3391.6,77.75,3391.6,80.447,3391.6,83.385Z" fill="#5c5c5c"/>
    <path id="Path_77" data-name="Path 77" d="M3446.227,88.037a1.923,1.923,0,0,0-1.863,1.848,1.855,1.855,0,0,0,3.71.015A1.925,1.925,0,0,0,3446.227,88.037Z" transform="translate(-57.353 -12.813)" fill="#5c5c5c"/>
  </g>
</svg>
