<svg xmlns="http://www.w3.org/2000/svg" xmlns:xlink="http://www.w3.org/1999/xlink" width="18.789" height="18.604" viewBox="0 0 18.789 18.604">
  <defs>
    <clipPath id="clip-path">
      <rect x="3" width="18.789" height="18.604" fill="none"/>
    </clipPath>
  </defs>
  <g id="Scroll_Group_1" data-name="Scroll Group 1" transform="translate(-3)" clip-path="url(#clip-path)" style="isolation: isolate">
    <g id="Group_47" data-name="Group 47" transform="translate(-11.831 -15.265)">
      <path id="Path_74" data-name="Path 74" d="M3188.3,48.332h-6.818a.544.544,0,0,0-.571.512V51.29a.543.543,0,0,0,.571.512h6.818a.544.544,0,0,0,.571-.512V48.844A.544.544,0,0,0,3188.3,48.332Z" transform="translate(2246.236 2306.768) rotate(-135)" fill="#484949"/>
      <path id="Path_75" data-name="Path 75" d="M3190.126,21.616l-4.822-7.823a1.207,1.207,0,0,0-.708-.533v8.263a1.23,1.23,0,1,1-.721,0V13.275a1.208,1.208,0,0,0-.677.536l-4.6,7.777a1.23,1.23,0,0,0-.123.969l1.586,5.241c.153.526.466,1.013,1.013,1.013l6.661-.008c.553,0,.9-.514,1.048-1.048l1.485-5.168A1.229,1.229,0,0,0,3190.126,21.616Z" transform="translate(2258.344 2293.73) rotate(-135)" fill="#484949"/>
    </g>
  </g>
</svg>
