<svg xmlns="http://www.w3.org/2000/svg" width="15.848" height="18.641" viewBox="0 0 15.848 18.641">
  <g id="Group_29" data-name="Group 29" transform="translate(-15.152 -12.559)">
    <g id="Group_28" data-name="Group 28" transform="translate(15.402 12.809)">
      <g id="Group_27" data-name="Group 27" transform="translate(0)">
        <path id="Path_62" data-name="Path 62" d="M832.833,120.747l-4.654-.011v-1.4a1.24,1.24,0,0,0-1.24-1.241h-2.91a1.24,1.24,0,0,0-1.24,1.241v.441c0,.392-.018.953-.018.953l-4.537.016a.374.374,0,0,0-.374.374v.22a.374.374,0,0,0,.374.374h14.6a.374.374,0,0,0,.374-.374v-.22A.374.374,0,0,0,832.833,120.747Zm-5.6-.443a.423.423,0,0,1-.423.424h-2.561a.424.424,0,0,1-.424-.424v-.823a.424.424,0,0,1,.424-.424h2.561a.423.423,0,0,1,.423.424Z" transform="translate(-817.859 -118.097)" fill="#707070" stroke="#707070" stroke-width="0.5"/>
      </g>
      <path id="Path_63" data-name="Path 63" d="M851.322,189.782l1.06-11.981a.2.2,0,0,0-.183-.219l-.553-.049a.2.2,0,0,0-.219.183L850.4,189.285c-.009.1-.015.954-.7.954l-6.638.02c-.522-.041-.595-.745-.6-.849l-1.072-11.66a.2.2,0,0,0-.219-.183l-.554.049a.2.2,0,0,0-.183.219l1.077,12.17c.01.111.1,1.249,1.146,1.249l7.522-.031C850.287,191.234,851.206,191.254,851.322,189.782Z" transform="translate(-838.732 -173.064)" fill="#707070" stroke="#707070" stroke-width="0.4"/>
    </g>
    <path id="Path_64" data-name="Path 64" d="M915.564,962.226l.979,8.623" transform="translate(-895.421 -943.205)" fill="none" stroke="#707070" stroke-linecap="round" stroke-width="1.2"/>
    <path id="Path_65" data-name="Path 65" d="M919,962.226v8.623" transform="translate(-895.848 -943.205)" fill="none" stroke="#707070" stroke-linecap="round" stroke-width="1.2"/>
    <path id="Path_66" data-name="Path 66" d="M916.395,962.226l-.83,8.623" transform="translate(-890.386 -943.205)" fill="none" stroke="#707070" stroke-linecap="round" stroke-width="1.2"/>
  </g>
</svg>
