<svg xmlns="http://www.w3.org/2000/svg" xmlns:xlink="http://www.w3.org/1999/xlink" width="32" height="32" viewBox="0 0 32 32">
  <defs>
    <clipPath id="clip-path">
      <rect id="Rectangle_69" data-name="Rectangle 69" width="16.626" height="15.461" fill="#484949"/>
    </clipPath>
    <clipPath id="clip-Dm_icon">
      <rect width="32" height="32"/>
    </clipPath>
  </defs>
  <g id="Dm_icon" data-name="Dm icon" clip-path="url(#clip-Dm_icon)">
    <g id="Group_73" data-name="Group 73" transform="translate(7.687 8.269)">
      <g id="Group_72" data-name="Group 72" transform="translate(0 0)" clip-path="url(#clip-path)">
        <path id="Path_154" data-name="Path 154" d="M48.613,0c.478-.014.619.135.612.619-.027,2.041-.023,3.845,0,5.886.005.489-.158.621-.638.6a6.96,6.96,0,0,1-6.5-6.461c-.04-.572.154-.655.644-.64Z" transform="translate(-32.61 0)" fill="#484949"/>
        <path id="Path_155" data-name="Path 155" d="M42.758,43.71c-.545.019-.738-.111-.691-.711a6.924,6.924,0,0,1,6.271-6.381c.646-.06.906.055.883.8l-.006,5.611c.007.513-.135.7-.662.682Z" transform="translate(-32.596 -28.368)" fill="#484949"/>
        <path id="Path_156" data-name="Path 156" d="M0,.954V15.119a.646.646,0,0,0,.681.609H.7C5.35,15.783,9.082,12,9.082,8.037A7.956,7.956,0,0,0,.7.347.646.646,0,0,0,0,.938c0,.005,0,.01,0,.016" transform="translate(0 -0.268)" fill="#484949"/>
      </g>
    </g>
  </g>
</svg>
