<svg width="50" height="50" viewBox="0 0 50 50" fill="none" xmlns="http://www.w3.org/2000/svg">
<path d="M23.2089 11.6049C23.9443 10.1248 26.0557 10.1248 26.7911 11.6049L29.8464 17.7542C30.1376 18.3403 30.6972 18.7469 31.3446 18.8427L38.1371 19.8482C39.772 20.0903 40.4245 22.0983 39.244 23.2551L34.3399 28.0611C33.8724 28.5192 33.6587 29.177 33.7676 29.8224L34.9103 36.5931C35.1853 38.2228 33.4771 39.4639 32.0122 38.6987L25.926 35.5197C25.3458 35.2166 24.6542 35.2166 24.074 35.5197L17.9878 38.6987C16.5229 39.4639 14.8147 38.2228 15.0897 36.5931L16.2324 29.8224C16.3413 29.177 16.1276 28.5192 15.6601 28.0611L10.756 23.2551C9.57554 22.0983 10.228 20.0903 11.8629 19.8482L18.6554 18.8427C19.3028 18.7469 19.8624 18.3403 20.1536 17.7542L23.2089 11.6049Z"/>
</svg>
