<svg width="50" height="50" viewBox="0 0 50 50" fill="none" xmlns="http://www.w3.org/2000/svg">
<path d="M44 25C44 23.5755 43.2732 22.3199 42.1708 21.5842C42.9076 20.4828 43.0988 19.045 42.5532 17.7289C42.0075 16.4129 40.857 15.5307 39.5566 15.2736C39.816 13.9732 39.4426 12.5722 38.4352 11.5648C37.4278 10.5574 36.0268 10.184 34.7264 10.4434C34.4681 9.143 33.5871 7.99135 32.2711 7.44683C30.955 6.90119 29.5172 7.09239 28.4158 7.82922C27.6801 6.72677 26.4256 6 25 6C23.5744 6 22.3199 6.72677 21.5842 7.82922C20.4828 7.09239 19.045 6.90119 17.7289 7.44683C16.4129 7.99247 15.5307 9.14412 15.2736 10.4434C13.9732 10.184 12.5722 10.5574 11.5648 11.5648C10.5574 12.5722 10.184 13.9732 10.4434 15.2736C9.143 15.5319 7.99135 16.4129 7.44683 17.7289C6.90119 19.045 7.09239 20.4828 7.82922 21.5842C6.72677 22.3199 6 23.5744 6 25C6 26.4256 6.72677 27.6801 7.82922 28.4158C7.09239 29.5172 6.90119 30.955 7.44683 32.2711C7.99247 33.5871 9.14412 34.4693 10.4434 34.7264C10.184 36.0257 10.5574 37.4266 11.5648 38.4352C12.5722 39.4426 13.9732 39.816 15.2736 39.5566C15.5319 40.857 16.4129 42.0087 17.7289 42.5532C19.045 43.0988 20.4828 42.9076 21.5842 42.1708C22.3199 43.2732 23.5744 44 25 44C26.4256 44 27.6801 43.2732 28.4158 42.1708C29.5172 42.9076 30.955 43.0988 32.2711 42.5532C33.5871 42.0075 34.4693 40.8559 34.7264 39.5566C36.0257 39.816 37.4266 39.4426 38.4352 38.4352C39.4426 37.4278 39.816 36.0268 39.5566 34.7264C40.857 34.4681 42.0087 33.5871 42.5532 32.2711C43.0988 30.955 42.9076 29.5172 42.1708 28.4158C43.2732 27.6801 44 26.4256 44 25Z"/>
</svg>
