<svg width="50" height="50" viewBox="0 0 50 50" fill="none" xmlns="http://www.w3.org/2000/svg">
<path fill-rule="evenodd" clip-rule="evenodd" d="M6 15C6 14.4477 6.44772 14 7 14H40C40.5523 14 41 14.4477 41 15V19.7617C41 20.1592 41.2405 20.5112 41.5808 20.7167C43.0306 21.5921 44 23.1828 44 25C44 26.8172 43.0306 28.4079 41.5808 29.2833C41.2405 29.4888 41 29.8408 41 30.2383V35C41 35.5523 40.5523 36 40 36H7C6.44772 36 6 35.5523 6 35V15ZM39 27C40.1046 27 41 26.1046 41 25C41 23.8954 40.1046 23 39 23C37.8954 23 37 23.8954 37 25C37 26.1046 37.8954 27 39 27Z"/>
</svg>
