<svg width="50" height="50" viewBox="0 0 50 50" fill="none" xmlns="http://www.w3.org/2000/svg">
<path d="M44 24.9996C44 22.3034 42.5948 19.9377 40.4787 18.5879C41.0209 16.1369 40.3416 13.4706 38.4355 11.5645C36.5294 9.65843 33.8622 8.97824 31.4121 9.52133C30.0623 7.40519 27.6957 6 24.9996 6C22.3034 6 19.9377 7.40519 18.5879 9.52133C16.1369 8.97912 13.4706 9.65843 11.5645 11.5645C9.65843 13.4706 8.97824 16.1378 9.52133 18.5879C7.40519 19.9377 6 22.3043 6 24.9996C6 27.6948 7.40519 30.0614 9.52133 31.4113C8.97912 33.8622 9.65843 36.5285 11.5645 38.4346C13.4706 40.3407 16.1378 41.0209 18.5879 40.4778C19.9368 42.5939 22.3034 43.9991 24.9996 43.9991C27.6957 43.9991 30.0614 42.5939 31.4113 40.4778C33.8622 41.02 36.5285 40.3407 38.4346 38.4346C40.3407 36.5285 41.0209 33.8613 40.4778 31.4113C42.5939 30.0623 43.9991 27.6957 43.9991 24.9996H44Z"/>
</svg>
